<?xml version="1.0" standalone="no"?>
<!DOCTYPE svg PUBLIC "-//W3C//DTD SVG 1.1//EN" "http://www.w3.org/Graphics/SVG/1.1/DTD/svg11.dtd" >
<svg xmlns="http://www.w3.org/2000/svg" xmlns:xlink="http://www.w3.org/1999/xlink" version="1.1">
<metadata>
Created by FontForge 20190801 at Thu Aug 22 13:06:49 2019
 By Jimmy Wärting
Copyright \(c\) 2019 by Roch Modrzejewski. All rights reserved.
</metadata>
<defs>
<font id="MontreuxC-DmBd" horiz-adv-x="647" >
  <font-face 
    font-family="Montreux C Dm Bd"
    font-weight="600"
    font-stretch="normal"
    units-per-em="1000"
    panose-1="0 0 7 0 0 0 0 0 0 0"
    ascent="775"
    descent="-225"
    x-height="529.459"
    cap-height="750"
    bbox="-427 -294.643 2146.43 1001.16"
    underline-thickness="50"
    underline-position="-100"
    stemh="104"
    stemv="110"
    unicode-range="U+0020-277E"
  />
<missing-glyph horiz-adv-x="799" 
d="M91.96 830h614.84v-910h-614.84v910zM145.63 -26.3398l506.87 802.67h-506.87v-802.67z" />
    <glyph glyph-name="T_h" unicode="Th" horiz-adv-x="1224" 
d="M953.12 543.46c126.64 0 198.641 -78.1992 198.641 -215.229v-328.23h-110v330.73c0 75.9004 -39.2402 117.33 -111.101 117.33c-94.2998 0 -154.24 -69.1299 -154.24 -179.36v-268.7h-110v646.83h-259.46v-646.83h-118v646.83h-260.16v103.17h747.62v-220.54
l-3.36035 -77.4297h4.73047c38.2695 61.1699 96.7998 91.4297 175.33 91.4297z" />
    <glyph glyph-name="f_i" unicode="fi" horiz-adv-x="670" 
d="M113.86 578.03c0 128.93 57.7705 186.699 186.7 186.699c51.4004 0 80.5 -9.09961 80.5 -9.09961v-86.9697h-68c-71.0303 0 -89.2002 -18.1602 -89.2002 -89.2002v-50h157.2v-95.5996h-157.2v-433.86h-110v433.86h-90.0596v95.5996h90.0596v48.5703zM477.461 750h110
v-115.94h-110v115.94zM477.461 0v529.46h110v-529.46h-110z" />
    <glyph glyph-name="f_j" unicode="fj" horiz-adv-x="670" 
d="M381.06 433.86h-157.199v-433.86h-110v433.86h-90.0596v95.5996h90.0596v48.5703c0 128.93 57.7695 186.699 186.699 186.699c51.4004 0 80.5 -9.09961 80.5 -9.09961v-86.9697h-68c-71.0303 0 -89.2002 -18.1602 -89.2002 -89.2002v-50h157.2v-95.5996zM587.101 750
v-115.94h-110v115.94h110zM477.461 529.46h110v-590.46c0 -120.24 -58.6602 -178.54 -178.9 -178.54c-40.9297 0 -65.7598 5.37012 -65.7598 5.37012v94.5996h47.3604c60.8701 0 87.2998 27.0703 87.2998 87.9307v581.1z" />
    <glyph glyph-name=".notdef" horiz-adv-x="799" 
d="M91.96 830h614.84v-910h-614.84v910zM145.63 -26.3398l506.87 802.67h-506.87v-802.67z" />
    <glyph glyph-name="space" unicode=" " horiz-adv-x="264" 
 />
    <glyph glyph-name="A" unicode="A" horiz-adv-x="753" 
d="M441.86 750l285.069 -733.27v-16.7305h-120.47l-63.8398 171.7h-333.16l-64.4004 -171.7h-119.1v16.7305l287.07 733.27h128.83zM246.38 270.131h259.649l-128.27 344.97h-2z" />
    <glyph glyph-name="Aacute" unicode="&#xc1;" horiz-adv-x="753" 
d="M522.03 953.8l-120.229 -149.27h-80.9004v16.7305l77.96 149.27h123.17v-16.7305zM441.86 750l285.069 -733.27v-16.7305h-120.47l-63.8398 171.7h-333.16l-64.4004 -171.7h-119.1v16.7305l287.07 733.27h128.83zM246.38 270.131h259.649l-128.27 344.97h-2z" />
    <glyph glyph-name="Abreve" unicode="&#x102;" horiz-adv-x="753" 
d="M455.39 715.21l271.54 -698.479v-16.7305h-120.47l-63.8398 171.7h-333.16l-64.4004 -171.7h-119.1v16.7305l272.96 697.23c-38.9502 18.2197 -65.9004 51.5996 -76.8604 97.1992v16.7402h91.0996c6 -29.7002 26.54 -44.2402 63.2402 -44.2402
c36.3301 0 56.8604 14.54 62.8604 44.2402h91.4697l-0.370117 -16.7402c-11.5596 -44.5801 -37.7295 -77.4805 -74.9697 -95.9502zM246.38 270.131h259.649l-128.27 344.97h-2z" />
    <glyph glyph-name="uni1EB6" unicode="&#x1eb6;" horiz-adv-x="753" 
d="M455.39 715.21l271.54 -698.479v-16.7305h-120.47l-63.8398 171.7h-333.16l-64.4004 -171.7h-119.1v16.7305l272.96 697.23c-38.9502 18.2197 -65.9004 51.5996 -76.8604 97.1992v16.7402h91.0996c6 -29.7002 26.54 -44.2402 63.2402 -44.2402
c36.3301 0 56.8604 14.54 62.8604 44.2402h91.4697l-0.370117 -16.7402c-11.5596 -44.5801 -37.7295 -77.4805 -74.9697 -95.9502zM246.38 270.131h259.649l-128.27 344.97h-2zM318.129 -181.439v123.2h118v-123.2h-118z" />
    <glyph glyph-name="uni01CD" unicode="&#x1cd;" horiz-adv-x="753" 
d="M441.86 800.16h-126.93l-106.53 113.67v16.7305h106.16l61.4697 -69.2998h4.73047l61.4697 69.2998h106.17v-16.7305zM441.86 750l285.069 -733.27v-16.7305h-120.47l-63.8398 171.7h-333.16l-64.4004 -171.7h-119.1v16.7305l287.07 733.27h128.83zM246.38 270.131
h259.649l-128.27 344.97h-2z" />
    <glyph glyph-name="Acircumflex" unicode="&#xc2;" horiz-adv-x="753" 
d="M376.03 869.46l-61.4697 -69.2998h-106.16v16.7402l106.53 113.66h126.93l106.54 -113.66v-16.7402h-106.17l-61.4697 69.2998h-4.73047zM441.86 750l285.069 -733.27v-16.7305h-120.47l-63.8398 171.7h-333.16l-64.4004 -171.7h-119.1v16.7305l287.07 733.27h128.83z
M246.38 270.131h259.649l-128.27 344.97h-2z" />
    <glyph glyph-name="uni1EAC" unicode="&#x1eac;" horiz-adv-x="753" 
d="M376.03 869.46l-61.4697 -69.2998h-106.16v16.7402l106.53 113.66h126.93l106.54 -113.66v-16.7402h-106.17l-61.4697 69.2998h-4.73047zM441.86 750l285.069 -733.27v-16.7305h-120.47l-63.8398 171.7h-333.16l-64.4004 -171.7h-119.1v16.7305l287.07 733.27h128.83z
M246.38 270.131h259.649l-128.27 344.97h-2zM318.129 -181.439v123.2h118v-123.2h-118z" />
    <glyph glyph-name="uni0200" unicode="&#x200;" horiz-adv-x="753" 
d="M329.3 804.53h-81.2002l-120.24 149.27v16.7305h106.44l95 -149.27v-16.7305zM504.859 804.53h-80.1992l-95 149.27v16.7305h99.7695l75.4297 -149.27v-16.7305zM441.86 750l285.069 -733.27v-16.7305h-120.47l-63.8398 171.7h-333.16l-64.4004 -171.7h-119.1v16.7305
l287.07 733.27h128.83zM246.38 270.131h259.649l-128.27 344.97h-2z" />
    <glyph glyph-name="Adieresis" unicode="&#xc4;" horiz-adv-x="753" 
d="M323.1 922.36v-120.46h-114v120.46h114zM545.159 922.36v-120.46h-114v120.46h114zM441.859 750l285.069 -733.27v-16.7305h-120.47l-63.8398 171.7h-333.16l-64.4004 -171.7h-119.1v16.7305l287.07 733.27h128.83zM246.379 270.131h259.649l-128.27 344.97h-2z" />
    <glyph glyph-name="uni1EA0" unicode="&#x1ea0;" horiz-adv-x="753" 
d="M441.86 750l285.069 -733.27v-16.7305h-120.47l-63.8398 171.7h-333.16l-64.4004 -171.7h-119.1v16.7305l287.07 733.27h128.83zM246.38 270.131h259.649l-128.27 344.97h-2zM318.129 -181.439v123.2h118v-123.2h-118z" />
    <glyph glyph-name="Agrave" unicode="&#xc0;" horiz-adv-x="753" 
d="M433.36 804.53h-80.8994l-120.23 149.27v16.7305h123.17l77.96 -149.27v-16.7305zM441.861 750l285.069 -733.27v-16.7305h-120.47l-63.8398 171.7h-333.16l-64.4004 -171.7h-119.1v16.7305l287.07 733.27h128.83zM246.381 270.131h259.649l-128.27 344.97h-2z" />
    <glyph glyph-name="Amacron" unicode="&#x100;" horiz-adv-x="753" 
d="M553.73 910.4v-88.2695h-351.2v88.2695h351.2zM441.86 750.001l285.069 -733.27v-16.7305h-120.47l-63.8398 171.7h-333.16l-64.4004 -171.7h-119.1v16.7305l287.07 733.27h128.83zM246.38 270.132h259.649l-128.27 344.97h-2z" />
    <glyph glyph-name="Aogonek" unicode="&#x104;" horiz-adv-x="753" 
d="M726.93 0c0 0 -85.2305 -37.1689 -85.2305 -95.8691c0 -23.1699 13.5303 -35.0703 40.3301 -35.0703c17.2695 0 28.1699 7.63965 28.1699 7.63965h16.7305v-84.1699s-22.8301 -8.73047 -64.4004 -8.73047c-76.5703 0 -120.67 36.3604 -120.67 99.1006
c0 59.2002 41.6396 95.5498 83.21 117.1h-18.6104l-63.8398 171.7h-333.16l-64.4004 -171.7h-119.1v16.7305l287.07 733.27h128.83l285.07 -733.27v-16.7305zM246.38 270.131h259.649l-128.27 344.97h-2z" />
    <glyph glyph-name="Aring" unicode="&#xc5;" horiz-adv-x="753" 
d="M452.63 722.3l274.298 -705.569v-16.7305h-120.47l-63.8398 171.7h-333.16l-64.4004 -171.7h-119.1v16.7305l275.43 703.52c-29.2695 20.6201 -47.3291 53.7402 -47.3291 92.3799c0 64.2998 52.9404 114.87 121.7 114.87c72.4004 0 122.341 -49.5703 122.341 -114.87
c0 -37.1396 -17.46 -69.5 -45.4697 -90.3301zM375.758 854.601c-23.7998 0 -41.3301 -17.54 -41.3301 -41.9697s16.5303 -41.9697 41.3301 -41.9697c24.4404 0 42.6006 17.54 42.6006 41.9697s-17.1602 41.9697 -42.6006 41.9697zM246.378 270.131h259.649l-128.27 344.97
h-2z" />
    <glyph glyph-name="Atilde" unicode="&#xc3;" horiz-adv-x="753" 
d="M314.3 851.56c-22.9004 0 -36.541 -10.9004 -39.9014 -33.0605h-71.8701v16.7305c9.83008 65.0303 49.4004 102.601 107.971 102.601c61.7998 0 86.8301 -36.7002 129.46 -36.7002c22.9004 0 36.54 10.9004 40.2705 32.7002h71.5v-16.7305
c-9.46973 -65.04 -49.0293 -102.6 -108.6 -102.6c-61.1699 0 -85.2002 37.0596 -128.83 37.0596zM441.858 750l285.069 -733.27v-16.7305h-120.47l-63.8398 171.7h-333.16l-64.4004 -171.7h-119.1v16.7305l287.07 733.27h128.83zM246.378 270.131h259.649l-128.27 344.97h-2
z" />
    <glyph glyph-name="AE" unicode="&#xc6;" horiz-adv-x="1157" 
d="M685.5 104.53h419.36v-104.53h-537.36v171.7h-307.3l-110.77 -171.7h-124.83v16.7305l478.43 733.27h597.83v-103.17h-415.36v-215.93h391.36v-101.8h-391.36v-224.57zM323.7 270.13h243.8v374.8h-2z" />
    <glyph glyph-name="AEacute" unicode="&#x1fc;" horiz-adv-x="1157" 
d="M750.5 953.8l-120.239 -149.27h-80.9004v16.7305l77.9697 149.27h123.17v-16.7305zM685.501 104.53h419.36v-104.53h-537.36v171.7h-307.3l-110.77 -171.7h-124.83v16.7305l478.43 733.27h597.83v-103.17h-415.36v-215.93h391.36v-101.8h-391.36v-224.57zM323.701 270.13
h243.8v374.8h-2z" />
    <glyph glyph-name="B" unicode="B" horiz-adv-x="733" 
d="M546.33 381.46c82.1699 -15.6299 131.63 -81.459 131.63 -174.629c0 -131.1 -95.46 -206.83 -262.66 -206.83h-323.34v750h330.07c153.2 0 240.67 -74.3701 240.67 -204.37c0 -83.7998 -43.4697 -143.53 -116.37 -159.431v-4.74023zM545.061 540.331
c0 72.8301 -41.4004 107.601 -129.5 107.601h-205.6v-215.4h199.7c87.0996 0 135.399 38.1299 135.399 107.8zM411.561 102.432c98.0996 0 145.14 35.1299 145.14 109.33c0 77.2998 -52.2998 119.7 -148.399 119.7h-198.34v-229.03h201.6z" />
    <glyph glyph-name="C" unicode="C" horiz-adv-x="765" 
d="M398.56 -16c-208.4 0 -346.33 151.729 -346.33 387.999c0 238.26 139.3 394 351.069 394c169.33 0 279.9 -91.8398 307.16 -253.77v-16.7305h-116.63c-17.5303 111.1 -81.1299 165.96 -190.53 165.96c-148.14 0 -229.439 -99.3604 -229.439 -289.46
c0 -181 79.2998 -283.1 224.7 -283.1c120.67 0 189 60.8604 207.27 184.601h116.63v-16.7402c-29.0996 -173.93 -146.399 -272.76 -323.899 -272.76z" />
    <glyph glyph-name="Cacute" unicode="&#x106;" horiz-adv-x="765" 
d="M342.8 804.53l0.000976562 16.7305l77.96 149.27h123.17v-16.7305l-120.23 -149.27h-80.9004zM398.561 -15.999c-208.4 0 -346.33 151.729 -346.33 387.999c0 238.26 139.3 394 351.069 394c169.33 0 279.9 -91.8398 307.16 -253.77v-16.7305h-116.63
c-17.5303 111.1 -81.1299 165.96 -190.53 165.96c-148.14 0 -229.439 -99.3604 -229.439 -289.46c0 -181 79.2998 -283.1 224.7 -283.1c120.67 0 189 60.8604 207.27 184.601h116.63v-16.7402c-29.0996 -173.93 -146.399 -272.76 -323.899 -272.76z" />
    <glyph glyph-name="Ccaron" unicode="&#x10c;" horiz-adv-x="765" 
d="M336.83 800.16l-106.53 113.67v16.7305h106.16l61.4697 -69.2998h4.73047l61.4697 69.2998h106.17v-16.7305l-106.54 -113.67h-126.93zM398.56 -16c-208.4 0 -346.33 151.729 -346.33 387.999c0 238.26 139.3 394 351.069 394c169.33 0 279.9 -91.8398 307.16 -253.77
v-16.7305h-116.63c-17.5303 111.1 -81.1299 165.96 -190.53 165.96c-148.14 0 -229.439 -99.3604 -229.439 -289.46c0 -181 79.2998 -283.1 224.7 -283.1c120.67 0 189 60.8604 207.27 184.601h116.63v-16.7402c-29.0996 -173.93 -146.399 -272.76 -323.899 -272.76z" />
    <glyph glyph-name="Ccedilla" unicode="&#xc7;" horiz-adv-x="765" 
d="M605.83 273.5l116.631 0.00976562v-16.7402c-27.1699 -162.4 -131.24 -259.33 -289.41 -271.47l-11.4502 -34.0898h2.73047c58.8301 0 92.2998 -31.3701 92.2998 -85.1006c0 -65.5703 -44.5703 -97.6699 -134.33 -97.6699c-47 0 -76.6699 5.62988 -76.6699 5.62988
v73.7002h64.9004c27.4297 0 39.3301 9.63965 39.3301 30.8994c0 21.2695 -11.9004 30.5391 -39.3301 30.5391h-31.7002v16.7305l20.25 59.9502c-186.16 18.0703 -306.851 165.11 -306.851 386.11c0 238.26 139.3 394 351.069 394c169.33 0 279.9 -91.8398 307.16 -253.77
v-16.7305h-116.63c-17.5303 111.1 -81.1299 165.96 -190.53 165.96c-148.14 0 -229.439 -99.3604 -229.439 -289.46c0 -181 79.2998 -283.1 224.7 -283.1c120.67 0 189 60.8604 207.27 184.601z" />
    <glyph glyph-name="Ccircumflex" unicode="&#x108;" horiz-adv-x="765" 
d="M230.3 800.16v16.7402l106.53 113.66h126.93l106.54 -113.66v-16.7402h-106.17l-61.4697 69.2998h-4.73047l-61.4697 -69.2998h-106.16zM398.56 -16c-208.4 0 -346.33 151.729 -346.33 387.999c0 238.26 139.3 394 351.069 394c169.33 0 279.9 -91.8398 307.16 -253.77
v-16.7305h-116.63c-17.5303 111.1 -81.1299 165.96 -190.53 165.96c-148.14 0 -229.439 -99.3604 -229.439 -289.46c0 -181 79.2998 -283.1 224.7 -283.1c120.67 0 189 60.8604 207.27 184.601h116.63v-16.7402c-29.0996 -173.93 -146.399 -272.76 -323.899 -272.76z" />
    <glyph glyph-name="Cdotaccent" unicode="&#x10a;" horiz-adv-x="765" 
d="M340.03 801.26v123.2h118v-123.2h-118zM398.561 -16c-208.4 0 -346.33 151.729 -346.33 387.999c0 238.26 139.3 394 351.069 394c169.33 0 279.9 -91.8398 307.16 -253.77v-16.7305h-116.63c-17.5303 111.1 -81.1299 165.96 -190.53 165.96
c-148.14 0 -229.439 -99.3604 -229.439 -289.46c0 -181 79.2998 -283.1 224.7 -283.1c120.67 0 189 60.8604 207.27 184.601h116.63v-16.7402c-29.0996 -173.93 -146.399 -272.76 -323.899 -272.76z" />
    <glyph glyph-name="D" unicode="D" horiz-adv-x="786" 
d="M382.96 750c221.04 0 350.6 -137.64 350.6 -378c0 -238 -127.93 -372 -352.6 -372h-289v750h291zM375.5 104.16c157.1 0 236.43 89.2998 236.43 267.84c0 185.7 -78.1299 273.83 -234.43 273.83h-167.54v-541.67h165.54z" />
    <glyph glyph-name="uni01F1" unicode="&#x1f1;" horiz-adv-x="1454" 
d="M382.96 750c221.04 0 350.6 -137.64 350.6 -378c0 -238 -127.93 -372 -352.6 -372h-289v750h291zM971.17 104.33h441.39v-104.33h-597.86v85.4004l437.75 560.26h-423.39v104.34h579.5v-85.7695zM375.5 104.16c157.1 0 236.43 89.2998 236.43 267.84
c0 185.7 -78.1299 273.83 -234.43 273.83h-167.54v-541.67h165.54z" />
    <glyph glyph-name="uni01C4" unicode="&#x1c4;" horiz-adv-x="1454" 
d="M1183.23 800.16h-126.93l-106.54 113.67v16.7305h106.17l61.4697 -69.2998h4.73047l61.4697 69.2998h106.16v-16.7305zM382.961 750c221.04 0 350.6 -137.64 350.6 -378c0 -238 -127.93 -372 -352.6 -372h-289v750h291zM971.171 104.33h441.39v-104.33h-597.86v85.4004
l437.75 560.26h-423.39v104.34h579.5v-85.7695zM375.501 104.16c157.1 0 236.43 89.2998 236.43 267.84c0 185.7 -78.1299 273.83 -234.43 273.83h-167.54v-541.67h165.54z" />
    <glyph glyph-name="Eth" unicode="&#xd0;" horiz-adv-x="794" 
d="M390.96 750c221.04 0 350.6 -137.64 350.6 -378c0 -238 -127.93 -372 -352.6 -372h-289v328.2h-63.6299v95.5996h63.6299v326.2h291zM383.5 104.16c157.1 0 236.43 89.2998 236.43 267.84c0 185.7 -78.1299 273.83 -234.43 273.83h-167.54v-222.03h161.37v-95.5996
h-161.37v-224.04h165.54z" />
    <glyph glyph-name="Dcaron" unicode="&#x10e;" horiz-adv-x="786" 
d="M407.5 800.16h-126.939l-106.53 113.67v16.7305h106.17l61.46 -69.2998h4.74023l61.46 69.2998h106.17v-16.7305zM382.961 750c221.04 0 350.6 -137.64 350.6 -378c0 -238 -127.93 -372 -352.6 -372h-289v750h291zM375.501 104.16c157.1 0 236.43 89.2998 236.43 267.84
c0 185.7 -78.1299 273.83 -234.43 273.83h-167.54v-541.67h165.54z" />
    <glyph glyph-name="Dcroat" unicode="&#x110;" horiz-adv-x="794" 
d="M390.96 750c221.04 0 350.6 -137.64 350.6 -378c0 -238 -127.93 -372 -352.6 -372h-289v328.2h-63.6299v95.5996h63.6299v326.2h291zM383.5 104.16c157.1 0 236.43 89.2998 236.43 267.84c0 185.7 -78.1299 273.83 -234.43 273.83h-167.54v-222.03h161.37v-95.5996
h-161.37v-224.04h165.54z" />
    <glyph glyph-name="uni1E0C" unicode="&#x1e0c;" horiz-adv-x="786" 
d="M382.96 750c221.04 0 350.6 -137.64 350.6 -378c0 -238 -127.93 -372 -352.6 -372h-289v750h291zM375.5 104.16c157.1 0 236.43 89.2998 236.43 267.84c0 185.7 -78.1299 273.83 -234.43 273.83h-167.54v-541.67h165.54zM353.76 -181.439v123.2h118v-123.2h-118z" />
    <glyph glyph-name="uni01F2" unicode="&#x1f2;" horiz-adv-x="1336" 
d="M382.96 750c221.04 0 350.6 -137.64 350.6 -378c0 -238 -127.93 -372 -352.6 -372h-289v750h291zM375.5 104.16c157.1 0 236.43 89.2998 236.43 267.84c0 185.7 -78.1299 273.83 -234.43 273.83h-167.54v-541.67h165.54zM977.95 97.6006h315.609v-97.5996h-469.13
v81.7598l313.61 350.1h-300.88v97.5996h454.4v-81.7598z" />
    <glyph glyph-name="uni01C5" unicode="&#x1c5;" horiz-adv-x="1336" 
d="M382.96 750c221.04 0 350.6 -137.64 350.6 -378c0 -238 -127.93 -372 -352.6 -372h-289v750h291zM1120.86 594.53h-113.002l-98 114.3v16.7305h96.0703l55.5703 -69.9297h5.36035l55.5703 69.9297h96.0703v-16.7305zM375.498 104.16
c157.1 0 236.43 89.2998 236.43 267.84c0 185.7 -78.1299 273.83 -234.43 273.83h-167.54v-541.67h165.54zM977.948 97.6006h315.609v-97.5996h-469.13v81.7598l313.61 350.1h-300.88v97.5996h454.4v-81.7598z" />
    <glyph glyph-name="E" unicode="E" horiz-adv-x="681" 
d="M209.96 104.53h419.37v-104.53h-537.37v750h533.37v-103.17h-415.37v-213.93h391.37v-101.8h-391.37v-226.57z" />
    <glyph glyph-name="Eacute" unicode="&#xc9;" horiz-adv-x="681" 
d="M503.73 953.8l-120.229 -149.27h-80.9004v16.7305l77.96 149.27h123.17v-16.7305zM209.961 104.53h419.37v-104.53h-537.37v750h533.37v-103.17h-415.37v-213.93h391.37v-101.8h-391.37v-226.57z" />
    <glyph glyph-name="Ebreve" unicode="&#x114;" horiz-adv-x="681" 
d="M359.46 799.16c-80.5596 0 -137.129 41.4697 -154.329 113.04v16.7305h91.0996c6 -29.7002 26.5303 -44.2305 63.2305 -44.2305c36.3398 0 56.8701 14.5303 62.8701 44.2305h91.4697l-0.370117 -16.7305c-18.5703 -71.5703 -74.7705 -113.04 -153.971 -113.04z
M209.961 104.53h419.37v-104.53h-537.37v750h533.37v-103.17h-415.37v-213.93h391.37v-101.8h-391.37v-226.57z" />
    <glyph glyph-name="Ecaron" unicode="&#x11a;" horiz-adv-x="681" 
d="M423.56 800.16h-126.93l-106.53 113.67v16.7305h106.16l61.4697 -69.2998h4.73047l61.4697 69.2998h106.17v-16.7305zM209.96 104.53h419.37v-104.53h-537.37v750h533.37v-103.17h-415.37v-213.93h391.37v-101.8h-391.37v-226.57z" />
    <glyph glyph-name="Ecircumflex" unicode="&#xca;" horiz-adv-x="681" 
d="M357.73 869.46l-61.4697 -69.2998h-106.16v16.7402l106.53 113.66h126.93l106.54 -113.66v-16.7402h-106.17l-61.4697 69.2998h-4.73047zM209.961 104.53h419.37v-104.53h-537.37v750h533.37v-103.17h-415.37v-213.93h391.37v-101.8h-391.37v-226.57z" />
    <glyph glyph-name="uni1EC6" unicode="&#x1ec6;" horiz-adv-x="681" 
d="M357.73 869.46l-61.4697 -69.2998h-106.16v16.7402l106.53 113.66h126.93l106.54 -113.66v-16.7402h-106.17l-61.4697 69.2998h-4.73047zM209.961 104.53h419.37v-104.53h-537.37v750h533.37v-103.17h-415.37v-213.93h391.37v-101.8h-391.37v-226.57zM301.831 -181.439
v123.2h118v-123.2h-118z" />
    <glyph glyph-name="uni0204" unicode="&#x204;" horiz-adv-x="681" 
d="M311 804.53h-81.2002l-120.24 149.27v16.7305h106.44l95 -149.27v-16.7305zM486.56 804.53h-80.1992l-95 149.27v16.7305h99.7695l75.4297 -149.27v-16.7305zM209.96 104.53h419.37v-104.53h-537.37v750h533.37v-103.17h-415.37v-213.93h391.37v-101.8h-391.37v-226.57z
" />
    <glyph glyph-name="Edieresis" unicode="&#xcb;" horiz-adv-x="681" 
d="M304.8 922.36v-120.46h-114v120.46h114zM526.859 922.36v-120.46h-114v120.46h114zM209.959 104.53h419.37v-104.53h-537.37v750h533.37v-103.17h-415.37v-213.93h391.37v-101.8h-391.37v-226.57z" />
    <glyph glyph-name="Edotaccent" unicode="&#x116;" horiz-adv-x="681" 
d="M417.83 924.46v-123.2h-118v123.2h118zM209.96 104.529h419.37v-104.53h-537.37v750h533.37v-103.17h-415.37v-213.93h391.37v-101.8h-391.37v-226.57z" />
    <glyph glyph-name="uni1EB8" unicode="&#x1eb8;" horiz-adv-x="681" 
d="M209.96 104.53h419.37v-104.53h-537.37v750h533.37v-103.17h-415.37v-213.93h391.37v-101.8h-391.37v-226.57zM301.83 -181.439v123.2h118v-123.2h-118z" />
    <glyph glyph-name="Egrave" unicode="&#xc8;" horiz-adv-x="681" 
d="M415.06 804.53h-80.8994l-120.23 149.27v16.7305h123.17l77.96 -149.27v-16.7305zM209.96 104.53h419.37v-104.53h-537.37v750h533.37v-103.17h-415.37v-213.93h391.37v-101.8h-391.37v-226.57z" />
    <glyph glyph-name="Emacron" unicode="&#x112;" horiz-adv-x="681" 
d="M535.43 910.4v-88.2695h-351.2v88.2695h351.2zM209.96 104.531h419.37v-104.53h-537.37v750h533.37v-103.17h-415.37v-213.93h391.37v-101.8h-391.37v-226.57z" />
    <glyph glyph-name="Eogonek" unicode="&#x118;" horiz-adv-x="681" 
d="M209.96 104.53l419.37 0.000976562v-104.53h-15.3701s-85.2305 -37.1699 -85.2305 -95.8701c0 -23.1699 13.5303 -35.0703 40.3301 -35.0703c17.2695 0 28.1699 7.63965 28.1699 7.63965h16.7305v-84.1699s-22.8301 -8.73047 -64.4004 -8.73047
c-76.5596 0 -120.659 36.3604 -120.659 99.1006c0 59.2002 41.6396 95.5498 83.21 117.1h-420.15v750h533.37v-103.17h-415.37v-213.93h391.37v-101.8h-391.37v-226.57z" />
    <glyph glyph-name="uni1EBC" unicode="&#x1ebc;" horiz-adv-x="681" 
d="M296 851.56c-22.9004 0 -36.541 -10.9004 -39.9014 -33.0605h-71.8701v16.7305c9.83008 65.0303 49.4004 102.601 107.971 102.601c61.7998 0 86.8301 -36.7002 129.46 -36.7002c22.9004 0 36.54 10.9004 40.2705 32.7002h71.5v-16.7305
c-9.46973 -65.04 -49.0293 -102.6 -108.6 -102.6c-61.1699 0 -85.2002 37.0596 -128.83 37.0596zM209.959 104.529h419.37v-104.53h-537.37v750h533.37v-103.17h-415.37v-213.93h391.37v-101.8h-391.37v-226.57z" />
    <glyph glyph-name="F" unicode="F" horiz-adv-x="637" 
d="M603.33 646.83l-393.37 -0.000976562v-225.93h349.37v-101.8h-349.37v-319.1h-118v750h511.37v-103.17z" />
    <glyph glyph-name="G" unicode="G" horiz-adv-x="809" 
d="M396.43 -16c-214.07 0 -343.201 142.301 -343.201 378.36c0 253.27 136.03 403.64 363.07 403.64c166.86 0 286.16 -92.8398 305.43 -235.67v-16.7305h-117.63c-10.2695 93.7305 -78.5 147.86 -187.8 147.86c-159.3 0 -241.439 -100.2 -241.439 -299.101
c0 -178.76 78.1699 -273.83 228.17 -273.83c130.7 0 211.57 77.7305 221.431 213.131h-206.16v98.6699h321.43v-400.33h-95.4004v113.3h-4.73047c-41.9697 -86.2002 -122.239 -129.3 -243.169 -129.3z" />
    <glyph glyph-name="uni01F4" unicode="&#x1f4;" horiz-adv-x="809" 
d="M360.06 804.53l0.000976562 16.7305l77.9697 149.27h123.17v-16.7305l-120.24 -149.27h-80.9004zM396.431 -15.999c-214.07 0 -343.201 142.301 -343.201 378.36c0 253.27 136.03 403.64 363.07 403.64c166.86 0 286.16 -92.8398 305.43 -235.67v-16.7305h-117.63
c-10.2695 93.7305 -78.5 147.86 -187.8 147.86c-159.3 0 -241.439 -100.2 -241.439 -299.101c0 -178.76 78.1699 -273.83 228.17 -273.83c130.7 0 211.57 77.7305 221.431 213.131h-206.16v98.6699h321.43v-400.33h-95.4004v113.3h-4.73047
c-41.9697 -86.2002 -122.239 -129.3 -243.169 -129.3z" />
    <glyph glyph-name="Gbreve" unicode="&#x11e;" horiz-adv-x="809" 
d="M416.93 799.16c-80.5703 0 -137.129 41.4697 -154.329 113.04v16.7305h91.0996c6 -29.7002 26.5303 -44.2305 63.2305 -44.2305c36.3301 0 56.8701 14.5303 62.8701 44.2305h91.46l-0.360352 -16.7305c-18.5703 -71.5703 -74.7705 -113.04 -153.971 -113.04zM396.431 -16
c-214.07 0 -343.201 142.301 -343.201 378.36c0 253.27 136.03 403.64 363.07 403.64c166.86 0 286.16 -92.8398 305.43 -235.67v-16.7305h-117.63c-10.2695 93.7305 -78.5 147.86 -187.8 147.86c-159.3 0 -241.439 -100.2 -241.439 -299.101
c0 -178.76 78.1699 -273.83 228.17 -273.83c130.7 0 211.57 77.7305 221.431 213.131h-206.16v98.6699h321.43v-400.33h-95.4004v113.3h-4.73047c-41.9697 -86.2002 -122.239 -129.3 -243.169 -129.3z" />
    <glyph glyph-name="Gcircumflex" unicode="&#x11c;" horiz-adv-x="809" 
d="M247.56 800.16v16.7402l106.54 113.66h126.93l106.53 -113.66v-16.7402h-106.16l-61.4697 69.2998h-4.73047l-61.4697 -69.2998h-106.17zM396.43 -16c-214.07 0 -343.201 142.301 -343.201 378.36c0 253.27 136.03 403.64 363.07 403.64
c166.86 0 286.16 -92.8398 305.43 -235.67v-16.7305h-117.63c-10.2695 93.7305 -78.5 147.86 -187.8 147.86c-159.3 0 -241.439 -100.2 -241.439 -299.101c0 -178.76 78.1699 -273.83 228.17 -273.83c130.7 0 211.57 77.7305 221.431 213.131h-206.16v98.6699h321.43
v-400.33h-95.4004v113.3h-4.73047c-41.9697 -86.2002 -122.239 -129.3 -243.169 -129.3z" />
    <glyph glyph-name="uni0122" unicode="&#x122;" horiz-adv-x="809" 
d="M418.3 400.33l321.429 0.000976562v-400.33h-95.4004v113.3h-4.73047c-41.9697 -86.2002 -122.239 -129.3 -243.169 -129.3c-214.07 0 -343.2 142.3 -343.2 378.359c0 253.27 136.03 403.64 363.07 403.64c166.86 0 286.16 -92.8398 305.43 -235.67v-16.7305h-117.63
c-10.2695 93.7305 -78.5 147.86 -187.8 147.86c-159.3 0 -241.439 -100.2 -241.439 -299.101c0 -178.76 78.1699 -273.83 228.17 -273.83c130.7 0 211.57 77.7305 221.431 213.131h-206.16v98.6699zM336.398 -174.569v116.329h120.53v-79.0996
c0 -129.6 -103.8 -157.3 -103.8 -157.3h-16.7305v62.7402s44.4004 7.59961 53.3301 57.3301h-53.3301z" />
    <glyph glyph-name="Gdotaccent" unicode="&#x120;" horiz-adv-x="809" 
d="M357.3 801.26v123.2h118v-123.2h-118zM396.43 -16c-214.07 0 -343.201 142.301 -343.201 378.36c0 253.27 136.03 403.64 363.07 403.64c166.86 0 286.16 -92.8398 305.43 -235.67v-16.7305h-117.63c-10.2695 93.7305 -78.5 147.86 -187.8 147.86
c-159.3 0 -241.439 -100.2 -241.439 -299.101c0 -178.76 78.1699 -273.83 228.17 -273.83c130.7 0 211.57 77.7305 221.431 213.131h-206.16v98.6699h321.43v-400.33h-95.4004v113.3h-4.73047c-41.9697 -86.2002 -122.239 -129.3 -243.169 -129.3z" />
    <glyph glyph-name="H" unicode="H" horiz-adv-x="804" 
d="M91.96 0v750h118v-316.1h384.07v316.1h118v-750h-118v330.1h-384.07v-330.1h-118z" />
    <glyph glyph-name="Hbar" unicode="&#x126;" horiz-adv-x="804" 
d="M785.73 635.16v-77.5303h-73.7002v-557.63h-118v330.1h-384.07v-330.1h-118v557.63h-73.7002v77.5303h73.7002v114.84h118v-114.84h384.07v114.84h118v-114.84h73.7002zM594.03 433.899v123.73h-384.07v-123.73h384.07z" />
    <glyph glyph-name="Hcircumflex" unicode="&#x124;" horiz-adv-x="804" 
d="M233.76 800.16v16.7402l106.54 113.66h126.93l106.53 -113.66v-16.7402h-106.16l-61.4697 69.2998h-4.73047l-61.4697 -69.2998h-106.17zM91.96 0v750h118v-316.1h384.07v316.1h118v-750h-118v330.1h-384.07v-330.1h-118z" />
    <glyph glyph-name="uni1E24" unicode="&#x1e24;" horiz-adv-x="804" 
d="M91.96 0v750h118v-316.1h384.07v316.1h118v-750h-118v330.1h-384.07v-330.1h-118zM343.5 -181.44v123.2h118v-123.2h-118z" />
    <glyph glyph-name="I" unicode="I" horiz-adv-x="304" 
d="M91.96 0v750h120v-750h-120z" />
    <glyph glyph-name="IJ" unicode="&#x132;" horiz-adv-x="905" 
d="M91.96 0v750h120v-750h-120zM578.6 -16c-154.14 0 -242.7 90.46 -242.7 248.66h116.63c0 -98.0996 40.1299 -144.76 126.07 -144.76c85.9297 0 126.43 46.6602 126.43 144.76v517.34h118v-512.97c0 -160.57 -88.9297 -253.03 -244.43 -253.03z" />
    <glyph glyph-name="Iacute" unicode="&#xcd;" horiz-adv-x="304" 
d="M95.7305 804.53l0.000976562 16.7305l77.9697 149.27h123.16v-16.7305l-120.23 -149.27h-80.9004zM91.9619 0.000976562v750h120v-750h-120z" />
    <glyph glyph-name="Ibreve" unicode="&#x12c;" horiz-adv-x="304" 
d="M152.6 799.16c-80.5703 0 -137.14 41.4697 -154.34 113.04v16.7305h91.0996c6 -29.7002 26.54 -44.2305 63.2402 -44.2305c36.3301 0 56.8604 14.5303 62.8604 44.2305h91.4697l-0.370117 -16.7305c-18.5596 -71.5703 -74.7598 -113.04 -153.96 -113.04zM91.9609 0v750
h120v-750h-120z" />
    <glyph glyph-name="uni01CF" unicode="&#x1cf;" horiz-adv-x="304" 
d="M89.7598 800.16l-106.529 113.67v16.7305h106.17l61.46 -69.2998h4.74023l61.46 69.2998h106.17v-16.7305l-106.53 -113.67h-126.94zM91.9609 0v750h120v-750h-120z" />
    <glyph glyph-name="Icircumflex" unicode="&#xce;" horiz-adv-x="304" 
d="M-16.7695 800.16l-0.000976562 16.7402l106.53 113.66h126.94l106.53 -113.66v-16.7402h-106.17l-61.46 69.2998h-4.74023l-61.46 -69.2998h-106.17zM91.96 0v750h120v-750h-120z" />
    <glyph glyph-name="uni0208" unicode="&#x208;" horiz-adv-x="304" 
d="M22.9297 804.53l-120.229 149.27v16.7305h106.43l95 -149.27v-16.7305h-81.2002zM199.5 804.53l-95 149.27v16.7305h99.7598l75.4404 -149.27v-16.7305h-80.2002zM91.96 -0v750h120v-750h-120z" />
    <glyph glyph-name="Idieresis" unicode="&#xcf;" horiz-adv-x="304" 
d="M-16.0703 801.9v120.46h114v-120.46h-114zM206 801.9v120.46h114v-120.46h-114zM91.96 0v750h120v-750h-120z" />
    <glyph glyph-name="Idotaccent" unicode="&#x130;" horiz-adv-x="304" 
d="M92.96 801.26v123.2h118v-123.2h-118zM91.96 -0v750h120v-750h-120z" />
    <glyph glyph-name="uni1ECA" unicode="&#x1eca;" horiz-adv-x="304" 
d="M91.96 0v750h120v-750h-120zM92.96 -181.44v123.2h118v-123.2h-118z" />
    <glyph glyph-name="Igrave" unicode="&#xcc;" horiz-adv-x="304" 
d="M127.3 804.53l-120.239 149.27v16.7305h123.17l77.9697 -149.27v-16.7305h-80.9004zM91.9609 -0v750h120v-750h-120z" />
    <glyph glyph-name="Imacron" unicode="&#x12a;" horiz-adv-x="304" 
d="M-22.6396 822.13v88.2695h351.2v-88.2695h-351.2zM91.96 -0.000976562v750h120v-750h-120z" />
    <glyph glyph-name="Iogonek" unicode="&#x12e;" horiz-adv-x="304" 
d="M211.96 0c0 0 -85.2305 -37.1689 -85.2305 -95.8691c0 -23.1699 13.5303 -35.0703 40.3301 -35.0703c17.2695 0 28.1699 7.63965 28.1699 7.63965h16.7305v-84.1699s-22.8301 -8.73047 -64.4004 -8.73047c-76.5596 0 -120.659 36.3604 -120.659 99.1006
c0 59.2002 41.6396 95.5498 83.21 117.1h-18.1504v750h120v-750z" />
    <glyph glyph-name="Itilde" unicode="&#x128;" horiz-adv-x="304" 
d="M217.96 814.5c-61.1602 0 -85.1992 37.0596 -128.829 37.0596c-22.9004 0 -36.5303 -10.9004 -39.9004 -33.0605h-71.8701v16.7305c9.83984 65.0303 49.3994 102.601 107.97 102.601c61.7998 0 86.8301 -36.7002 129.47 -36.7002
c22.9004 0 36.5303 10.9004 40.2607 32.7002h71.5v-16.7305c-9.45996 -65.04 -49.0303 -102.6 -108.601 -102.6zM91.9609 0v750h120v-750h-120z" />
    <glyph glyph-name="J" unicode="J" horiz-adv-x="601" 
d="M274.66 -16c-154.13 0 -242.699 90.46 -242.699 248.66h116.64c0 -98.0996 40.1299 -144.76 126.06 -144.76c85.9404 0 126.44 46.6602 126.44 144.76v517.34h118v-512.97c0 -160.57 -88.9404 -253.03 -244.44 -253.03z" />
    <glyph glyph-name="Jcircumflex" unicode="&#x134;" horiz-adv-x="601" 
d="M291.36 800.16v16.7402l106.54 113.66h126.93l106.53 -113.66v-16.7402h-106.16l-61.4697 69.2998h-4.73047l-61.4697 -69.2998h-106.17zM274.66 -16c-154.13 0 -242.699 90.46 -242.699 248.66h116.64c0 -98.0996 40.1299 -144.76 126.06 -144.76
c85.9404 0 126.44 46.6602 126.44 144.76v517.34h118v-512.97c0 -160.57 -88.9404 -253.03 -244.44 -253.03z" />
    <glyph glyph-name="K" unicode="K" horiz-adv-x="750" 
d="M430.89 434.47l294.769 -417.739v-16.7305h-127.1l-244.43 352.39l-144.17 -158.26v-194.13h-118v750h118v-403.4l355.87 403.4h135.57v-16.7402z" />
    <glyph glyph-name="uni0136" unicode="&#x136;" horiz-adv-x="750" 
d="M430.89 434.47l294.769 -417.739v-16.7305h-127.1l-244.43 352.39l-144.17 -158.26v-194.13h-118v750h118v-403.4l355.87 403.4h135.57v-16.7402zM348.229 -174.569v116.329h120.53v-79.0996c0 -129.6 -103.8 -157.3 -103.8 -157.3h-16.7305v62.7402
s44.4004 7.59961 53.3301 57.3301h-53.3301z" />
    <glyph glyph-name="L" unicode="L" horiz-adv-x="624" 
d="M211.33 106.53h384v-106.53h-503.37v750h119.37v-643.47z" />
    <glyph glyph-name="uni01C7" unicode="&#x1c7;" horiz-adv-x="1225" 
d="M211.33 750v-643.47h384v-106.53h-503.37v750h119.37zM1025.23 750h117.999v-512.97c0 -160.57 -88.9297 -253.03 -244.43 -253.03c-154.14 0 -242.699 90.46 -242.699 248.66h116.63c0 -98.0996 40.1299 -144.76 126.07 -144.76c85.9297 0 126.43 46.6602 126.43 144.76
v517.34z" />
    <glyph glyph-name="Lacute" unicode="&#x139;" horiz-adv-x="624" 
d="M297.23 953.8l-120.229 -149.27h-80.9004v16.7305l77.96 149.27h123.17v-16.7305zM211.331 106.53h384v-106.53h-503.37v750h119.37v-643.47z" />
    <glyph glyph-name="Lcaron" unicode="&#x13d;" horiz-adv-x="624" 
d="M211.33 106.53h384v-106.53h-503.37v750h119.37v-643.47zM491.26 670.9c0 -129.6 -103.8 -157.301 -103.8 -157.301h-16.7305v62.7305s44.4004 7.59961 53.3301 57.3301h-53.3301v116.34h120.53v-79.0996z" />
    <glyph glyph-name="uni013B" unicode="&#x13b;" horiz-adv-x="624" 
d="M211.33 106.53h384v-106.53h-503.37v750h119.37v-643.47zM283.2 -174.569v116.329h120.53v-79.0996c0 -129.6 -103.8 -157.3 -103.8 -157.3h-16.7305v62.7402s44.4004 7.59961 53.3301 57.3301h-53.3301z" />
    <glyph glyph-name="Ldot" unicode="&#x13f;" horiz-adv-x="624" 
d="M211.33 106.53h384v-106.53h-503.37v750h119.37v-643.47zM463.5 435.16v-116.33h-114v116.33h114z" />
    <glyph glyph-name="uni01C8" unicode="&#x1c8;" horiz-adv-x="889" 
d="M595.33 106.53v-106.53h-503.37v750h119.37v-643.47h384zM806.36 750v-115.94h-110v115.94h110zM696.73 529.46h110v-590.46c0 -120.24 -58.6699 -178.54 -178.9 -178.54c-40.9297 0 -65.7695 5.37012 -65.7695 5.37012v94.5996h47.3701
c60.8701 0 87.2998 27.0703 87.2998 87.9307v581.1z" />
    <glyph glyph-name="Lslash" unicode="&#x141;" horiz-adv-x="663" 
d="M250.3 106.53h383.999v-106.53h-503.37v220.49l-94.3301 -65.0596h-16.7402v108.27l111.07 76.7002v409.6h119.37v-327.16l182.2 125.82h16.7305v-108.63l-198.93 -137.21v-196.29z" />
    <glyph glyph-name="M" unicode="M" horiz-adv-x="970" 
d="M91.96 0v750h166.44l226.26 -584.7h4.74023l222.53 584.7h165.8v-750h-112.53v551.36l3.36035 46.6699h-4.73047l-231.37 -598.03h-91.5l-234.46 595.66h-4.74023l2.74023 -44.2998v-551.36h-112.54z" />
    <glyph glyph-name="N" unicode="N" horiz-adv-x="810" 
d="M91.96 0v750h118l393.27 -564.54h2v564.54h113.17v-750h-118.64l-393.26 564.53h-2v-564.53h-112.54z" />
    <glyph glyph-name="uni01CA" unicode="&#x1ca;" horiz-adv-x="1412" 
d="M91.96 0v750h118l393.27 -564.54h2v564.54h113.17v-750h-118.64l-393.26 564.53h-2v-564.53h-112.54zM1085.03 -16c-154.13 0 -242.699 90.46 -242.699 248.66h116.63c0 -98.0996 40.1396 -144.76 126.069 -144.76s126.43 46.6602 126.43 144.76v517.34h118v-512.97
c0 -160.57 -88.9297 -253.03 -244.43 -253.03z" />
    <glyph glyph-name="Nacute" unicode="&#x143;" horiz-adv-x="810" 
d="M349.26 804.53l0.000976562 16.7305l77.9697 149.27h123.17v-16.7305l-120.24 -149.27h-80.9004zM91.9609 0.000976562v750h118l393.27 -564.54h2v564.54h113.17v-750h-118.64l-393.26 564.53h-2v-564.53h-112.54z" />
    <glyph glyph-name="Ncaron" unicode="&#x147;" horiz-adv-x="810" 
d="M343.3 800.16l-106.54 113.67v16.7305h106.17l61.4697 -69.2998h4.73047l61.4697 69.2998h106.16v-16.7305l-106.53 -113.67h-126.93zM91.96 0v750h118l393.27 -564.54h2v564.54h113.17v-750h-118.64l-393.26 564.53h-2v-564.53h-112.54z" />
    <glyph glyph-name="uni0145" unicode="&#x145;" horiz-adv-x="810" 
d="M605.23 750h113.17v-750h-118.64l-393.26 564.53h-2v-564.53h-112.54v750h118l393.27 -564.54h2v564.54zM345.23 -174.57v116.329h120.53v-79.0996c0 -129.6 -103.8 -157.3 -103.8 -157.3h-16.7305v62.7402s44.4004 7.59961 53.3301 57.3301h-53.3301z" />
    <glyph glyph-name="uni1E44" unicode="&#x1e44;" horiz-adv-x="810" 
d="M346.5 801.26v123.2h118v-123.2h-118zM91.96 -0v750h118l393.27 -564.54h2v564.54h113.17v-750h-118.64l-393.26 564.53h-2v-564.53h-112.54z" />
    <glyph glyph-name="Eng" unicode="&#x14a;" horiz-adv-x="810" 
d="M718.4 750l0.000976562 -811c0 -120.24 -58.6699 -178.54 -178.9 -178.54c-40.9404 0 -65.7705 5.37012 -65.7705 5.37012v94.5996h47.3701c60.8604 0 87.3008 27.0703 87.3008 87.9307v40.4902l-401.9 575.68h-2v-564.53h-112.54v750h118l393.27 -564.54h2v564.54
h113.17z" />
    <glyph glyph-name="uni01CB" unicode="&#x1cb;" horiz-adv-x="1086" 
d="M91.96 0v750h118l393.27 -564.54h2v564.54h113.17v-750h-118.64l-393.26 564.53h-2v-564.53h-112.54zM892.6 634.06v115.94h110v-115.94h-110zM824.06 -239.54c-40.9297 0 -65.7598 5.37012 -65.7598 5.37012v94.5996h47.3604c60.8701 0 87.2998 27.0703 87.2998 87.9307
v581.1h110v-590.46c0 -120.24 -58.6602 -178.54 -178.9 -178.54z" />
    <glyph glyph-name="Ntilde" unicode="&#xd1;" horiz-adv-x="810" 
d="M471.5 814.5c-61.1699 0 -85.2002 37.0596 -128.84 37.0596c-22.9004 0 -36.5303 -10.9004 -39.9004 -33.0605h-71.8604v16.7305c9.83008 65.0303 49.4004 102.601 107.96 102.601c61.7998 0 86.8398 -36.7002 129.47 -36.7002
c22.9004 0 36.5303 10.9004 40.2705 32.7002h71.5v-16.7305c-9.46973 -65.04 -49.04 -102.6 -108.6 -102.6zM91.96 0v750h118l393.27 -564.54h2v564.54h113.17v-750h-118.64l-393.26 564.53h-2v-564.53h-112.54z" />
    <glyph glyph-name="O" unicode="O" horiz-adv-x="819" 
d="M408.56 -16c-217.56 0 -357.33 154.1 -357.33 394c0 230.36 145.23 388 358.801 388c216.3 0 357.33 -153.37 357.33 -388c0 -236.9 -145.86 -394 -358.801 -394zM408.559 88.5303c152.84 0 237.171 103.029 237.171 289.47c0 177.16 -87.5 283.46 -235.7 283.46
c-151.47 0 -237.17 -103.93 -237.17 -283.46c0 -183.8 86.1396 -289.47 235.699 -289.47z" />
    <glyph glyph-name="Oacute" unicode="&#xd3;" horiz-adv-x="819" 
d="M353.06 804.53l0.000976562 16.7305l77.9697 149.27h123.17v-16.7305l-120.24 -149.27h-80.9004zM408.561 -15.999c-217.56 0 -357.33 154.1 -357.33 394c0 230.36 145.23 388 358.801 388c216.3 0 357.33 -153.37 357.33 -388c0 -236.9 -145.86 -394 -358.801 -394z
M408.56 88.5312c152.84 0 237.171 103.029 237.171 289.47c0 177.16 -87.5 283.46 -235.7 283.46c-151.47 0 -237.17 -103.93 -237.17 -283.46c0 -183.8 86.1396 -289.47 235.699 -289.47z" />
    <glyph glyph-name="Obreve" unicode="&#x14e;" horiz-adv-x="819" 
d="M409.93 799.16c-80.5703 0 -137.129 41.4697 -154.329 113.04v16.7305h91.0996c6 -29.7002 26.5303 -44.2305 63.2305 -44.2305c36.3301 0 56.8701 14.5303 62.8701 44.2305h91.46l-0.360352 -16.7305c-18.5703 -71.5703 -74.7705 -113.04 -153.971 -113.04zM408.561 -16
c-217.56 0 -357.33 154.1 -357.33 394c0 230.36 145.23 388 358.801 388c216.3 0 357.33 -153.37 357.33 -388c0 -236.9 -145.86 -394 -358.801 -394zM408.56 88.5303c152.84 0 237.171 103.029 237.171 289.47c0 177.16 -87.5 283.46 -235.7 283.46
c-151.47 0 -237.17 -103.93 -237.17 -283.46c0 -183.8 86.1396 -289.47 235.699 -289.47z" />
    <glyph glyph-name="uni01D1" unicode="&#x1d1;" horiz-adv-x="819" 
d="M347.1 800.16l-106.54 113.67v16.7305h106.17l61.4697 -69.2998h4.73047l61.4697 69.2998h106.16v-16.7305l-106.53 -113.67h-126.93zM408.56 -16c-217.56 0 -357.33 154.1 -357.33 394c0 230.36 145.23 388 358.801 388c216.3 0 357.33 -153.37 357.33 -388
c0 -236.9 -145.86 -394 -358.801 -394zM408.559 88.5303c152.84 0 237.171 103.029 237.171 289.47c0 177.16 -87.5 283.46 -235.7 283.46c-151.47 0 -237.17 -103.93 -237.17 -283.46c0 -183.8 86.1396 -289.47 235.699 -289.47z" />
    <glyph glyph-name="Ocircumflex" unicode="&#xd4;" horiz-adv-x="819" 
d="M240.56 800.16v16.7402l106.54 113.66h126.93l106.53 -113.66v-16.7402h-106.16l-61.4697 69.2998h-4.73047l-61.4697 -69.2998h-106.17zM408.56 -16c-217.56 0 -357.33 154.1 -357.33 394c0 230.36 145.23 388 358.801 388c216.3 0 357.33 -153.37 357.33 -388
c0 -236.9 -145.86 -394 -358.801 -394zM408.559 88.5303c152.84 0 237.171 103.029 237.171 289.47c0 177.16 -87.5 283.46 -235.7 283.46c-151.47 0 -237.17 -103.93 -237.17 -283.46c0 -183.8 86.1396 -289.47 235.699 -289.47z" />
    <glyph glyph-name="uni1ED8" unicode="&#x1ed8;" horiz-adv-x="819" 
d="M240.56 800.16v16.7402l106.54 113.66h126.93l106.53 -113.66v-16.7402h-106.16l-61.4697 69.2998h-4.73047l-61.4697 -69.2998h-106.17zM408.56 -16c-217.56 0 -357.33 154.1 -357.33 394c0 230.36 145.23 388 358.801 388c216.3 0 357.33 -153.37 357.33 -388
c0 -236.9 -145.86 -394 -358.801 -394zM408.559 88.5303c152.84 0 237.171 103.029 237.171 289.47c0 177.16 -87.5 283.46 -235.7 283.46c-151.47 0 -237.17 -103.93 -237.17 -283.46c0 -183.8 86.1396 -289.47 235.699 -289.47zM350.3 -181.44v123.2h118v-123.2h-118z" />
    <glyph glyph-name="uni020C" unicode="&#x20c;" horiz-adv-x="819" 
d="M280.26 804.53l-120.229 149.27v16.7305h106.43l95 -149.27v-16.7305h-81.2002zM456.83 804.53l-94.999 149.27v16.7305h99.7695l75.4297 -149.27v-16.7305h-80.2002zM408.562 -16c-217.56 0 -357.33 154.1 -357.33 394c0 230.36 145.23 388 358.801 388
c216.3 0 357.33 -153.37 357.33 -388c0 -236.9 -145.86 -394 -358.801 -394zM408.561 88.5303c152.84 0 237.171 103.029 237.171 289.47c0 177.16 -87.5 283.46 -235.7 283.46c-151.47 0 -237.17 -103.93 -237.17 -283.46c0 -183.8 86.1396 -289.47 235.699 -289.47z" />
    <glyph glyph-name="Odieresis" unicode="&#xd6;" horiz-adv-x="819" 
d="M241.26 801.9v120.46h114v-120.46h-114zM463.33 801.9v120.46h114v-120.46h-114zM408.561 -16c-217.56 0 -357.33 154.1 -357.33 394c0 230.36 145.23 388 358.801 388c216.3 0 357.33 -153.37 357.33 -388c0 -236.9 -145.86 -394 -358.801 -394zM408.56 88.5303
c152.84 0 237.171 103.029 237.171 289.47c0 177.16 -87.5 283.46 -235.7 283.46c-151.47 0 -237.17 -103.93 -237.17 -283.46c0 -183.8 86.1396 -289.47 235.699 -289.47z" />
    <glyph glyph-name="uni1ECC" unicode="&#x1ecc;" horiz-adv-x="819" 
d="M408.56 -16c-217.56 0 -357.33 154.1 -357.33 394c0 230.36 145.23 388 358.801 388c216.3 0 357.33 -153.37 357.33 -388c0 -236.9 -145.86 -394 -358.801 -394zM408.559 88.5303c152.84 0 237.171 103.029 237.171 289.47c0 177.16 -87.5 283.46 -235.7 283.46
c-151.47 0 -237.17 -103.93 -237.17 -283.46c0 -183.8 86.1396 -289.47 235.699 -289.47zM350.3 -181.44v123.2h118v-123.2h-118z" />
    <glyph glyph-name="Ograve" unicode="&#xd2;" horiz-adv-x="819" 
d="M384.63 804.53l-120.229 149.27v16.7305h123.16l77.9697 -149.27v-16.7305h-80.9004zM408.561 -16c-217.56 0 -357.33 154.1 -357.33 394c0 230.36 145.23 388 358.801 388c216.3 0 357.33 -153.37 357.33 -388c0 -236.9 -145.86 -394 -358.801 -394zM408.56 88.5303
c152.84 0 237.171 103.029 237.171 289.47c0 177.16 -87.5 283.46 -235.7 283.46c-151.47 0 -237.17 -103.93 -237.17 -283.46c0 -183.8 86.1396 -289.47 235.699 -289.47z" />
    <glyph glyph-name="Ohungarumlaut" unicode="&#x150;" horiz-adv-x="819" 
d="M281.56 804.53v16.7305l75.4404 149.27h99.7598v-16.7305l-95 -149.27h-80.2002zM457.13 804.53l0.000976562 16.7305l95 149.27h106.43v-16.7305l-120.23 -149.27h-81.2002zM408.561 -15.999c-217.56 0 -357.33 154.1 -357.33 394c0 230.36 145.23 388 358.801 388
c216.3 0 357.33 -153.37 357.33 -388c0 -236.9 -145.86 -394 -358.801 -394zM408.56 88.5312c152.84 0 237.171 103.029 237.171 289.47c0 177.16 -87.5 283.46 -235.7 283.46c-151.47 0 -237.17 -103.93 -237.17 -283.46c0 -183.8 86.1396 -289.47 235.699 -289.47z" />
    <glyph glyph-name="Omacron" unicode="&#x14c;" horiz-adv-x="819" 
d="M234.7 822.13v88.2695h351.2v-88.2695h-351.2zM408.561 -16.001c-217.56 0 -357.33 154.1 -357.33 394c0 230.36 145.23 388 358.801 388c216.3 0 357.33 -153.37 357.33 -388c0 -236.9 -145.86 -394 -358.801 -394zM408.56 88.5293
c152.84 0 237.171 103.029 237.171 289.47c0 177.16 -87.5 283.46 -235.7 283.46c-151.47 0 -237.17 -103.93 -237.17 -283.46c0 -183.8 86.1396 -289.47 235.699 -289.47z" />
    <glyph glyph-name="uni01EA" unicode="&#x1ea;" horiz-adv-x="819" 
d="M486.69 -8.48047c-24.7695 -14.1396 -68.79 -45.1992 -68.79 -87.3896c0 -23.1699 13.5303 -35.0703 40.3301 -35.0703c17.2695 0 28.1699 7.63965 28.1699 7.63965h16.7305v-84.1699s-22.8301 -8.73047 -64.4004 -8.73047c-76.5703 0 -120.67 36.3604 -120.67 99.1006
c0 47.2998 26.5898 80.0098 58.4795 102.24c-199.16 14.4805 -325.311 164.95 -325.311 392.86c0 230.36 145.23 388 358.801 388c216.3 0 357.33 -153.37 357.33 -388c0 -206.65 -110.99 -352.58 -280.67 -386.48zM172.859 378c0 -183.8 86.1406 -289.471 235.7 -289.471
c152.84 0 237.17 103.03 237.17 289.471c0 177.16 -87.5 283.46 -235.7 283.46c-151.47 0 -237.17 -103.93 -237.17 -283.46z" />
    <glyph glyph-name="Oslash" unicode="&#xd8;" horiz-adv-x="819" 
d="M659 668.82c68.6602 -68.5898 108.361 -170.151 108.361 -293.821c0 -235.27 -144.13 -391 -358.06 -391c-76.9902 0 -144.931 20.1602 -200.381 56.9502l-66.8896 -93.3203l-51.8301 36.7305l69.4697 96.8604c-68.71 68.6504 -108.44 170.25 -108.44 293.78
c0 235.63 144.13 391 358.07 391c77.0996 0 145.14 -20.1904 200.64 -57.04l66.9902 93.4004l51.4697 -36.7305zM172.861 374.998c0 -84.5801 18.5908 -152.38 53.5508 -200.74l320.56 446.91c-36.6797 26.4404 -82.9297 40.29 -137.67 40.29
c-150.2 0 -236.44 -104.3 -236.44 -286.46zM409.303 88.5283c150.2 0 236.431 104.299 236.431 286.469c0 84.54 -18.5703 152.32 -53.5 200.681l-320.41 -446.99c36.6396 -26.3496 82.8193 -40.1592 137.479 -40.1592z" />
    <glyph glyph-name="Oslashacute" unicode="&#x1fe;" horiz-adv-x="819" 
d="M554.2 953.8l-120.239 -149.27h-80.9004v16.7305l77.9697 149.27h123.17v-16.7305zM659.001 668.82c68.6602 -68.5898 108.361 -170.151 108.361 -293.821c0 -235.27 -144.13 -391 -358.06 -391c-76.9902 0 -144.931 20.1602 -200.381 56.9502l-66.8896 -93.3203
l-51.8301 36.7305l69.4697 96.8604c-68.71 68.6504 -108.44 170.25 -108.44 293.78c0 235.63 144.13 391 358.07 391c77.0996 0 145.14 -20.1904 200.64 -57.04l66.9902 93.4004l51.4697 -36.7305zM172.862 374.998c0 -84.5801 18.5908 -152.38 53.5508 -200.74
l320.56 446.91c-36.6797 26.4404 -82.9297 40.29 -137.67 40.29c-150.2 0 -236.44 -104.3 -236.44 -286.46zM409.304 88.5283c150.2 0 236.431 104.299 236.431 286.469c0 84.54 -18.5703 152.32 -53.5 200.681l-320.41 -446.99
c36.6396 -26.3496 82.8193 -40.1592 137.479 -40.1592z" />
    <glyph glyph-name="Otilde" unicode="&#xd5;" horiz-adv-x="819" 
d="M475.3 814.5c-61.1699 0 -85.2002 37.0596 -128.84 37.0596c-22.9004 0 -36.5303 -10.9004 -39.9004 -33.0605h-71.8604v16.7305c9.83008 65.0303 49.4004 102.601 107.96 102.601c61.7998 0 86.8398 -36.7002 129.47 -36.7002
c22.9004 0 36.5303 10.9004 40.2705 32.7002h71.5v-16.7305c-9.46973 -65.04 -49.04 -102.6 -108.6 -102.6zM408.56 -16c-217.56 0 -357.33 154.1 -357.33 394c0 230.36 145.23 388 358.801 388c216.3 0 357.33 -153.37 357.33 -388c0 -236.9 -145.86 -394 -358.801 -394z
M408.559 88.5303c152.84 0 237.171 103.029 237.171 289.47c0 177.16 -87.5 283.46 -235.7 283.46c-151.47 0 -237.17 -103.93 -237.17 -283.46c0 -183.8 86.1396 -289.47 235.699 -289.47z" />
    <glyph glyph-name="OE" unicode="&#x152;" horiz-adv-x="1235" 
d="M763.73 104.53l419.37 0.000976562v-104.53h-534.27v87.0898c-55.2305 -65.79 -136.171 -102.91 -241.631 -103.09c-211.84 -0.370117 -355.97 155.729 -355.97 394.999c0 231.63 144.13 386.63 355.97 387c105.46 0.179688 186.4 -36.8506 241.631 -101.74v85.7402
h530.27v-103.17h-415.37v-215.93h391.37v-101.8h-391.37v-224.57zM409.301 88.5312c150.2 0 236.431 104.3 236.431 290.47c0 178.16 -86.2305 282.46 -236.431 282.46s-236.44 -104.3 -236.44 -282.46c0 -186.17 86.2402 -290.47 236.44 -290.47z" />
    <glyph glyph-name="P" unicode="P" horiz-adv-x="709" 
d="M407.6 750c165.56 0 260.029 -86.8398 260.029 -237.87c0 -151.67 -95.4697 -238.5 -262.029 -238.5h-197.64v-273.63h-116v750h315.64zM394.46 377.8c105.04 0 154.17 43.1299 154.17 134.33c0 90.5703 -49.1299 133.7 -152.53 133.7h-188.14v-268.03h186.5z" />
    <glyph glyph-name="Thorn" unicode="&#xde;" horiz-adv-x="715" 
d="M407.6 618.5c165.56 0 260.029 -86.8398 260.029 -237.87c0 -151.67 -95.4697 -238.5 -262.029 -238.5h-197.64v-142.13h-116v750h116v-131.5h199.64zM394.46 246.3c105.04 0 154.17 43.1299 154.17 134.33c0 90.5703 -49.1299 133.7 -152.53 133.7h-188.14v-268.03
h186.5z" />
    <glyph glyph-name="Q" unicode="Q" horiz-adv-x="819" 
d="M647.79 72.7695l129.568 -155.109v-17.3604h-122.63l-95.5996 114.26c-44.7803 -19.8896 -95.4199 -30.5596 -150.57 -30.5596c-217.56 0 -357.329 154.1 -357.329 394c0 230.36 145.23 388 358.801 388c216.3 0 357.33 -153.37 357.33 -388
c0 -129.37 -44.2402 -235.75 -119.57 -305.23zM408.559 88.5303c29.1602 0 55.7314 3.63965 79.6611 10.7793l-125.22 149.65v16.7402h123.63l92.0195 -110.16c44.29 49.0498 67.0801 124.16 67.0801 222.46c0 177.16 -87.5 283.46 -235.7 283.46
c-151.47 0 -237.17 -103.93 -237.17 -283.46c0 -183.8 86.1396 -289.47 235.699 -289.47z" />
    <glyph glyph-name="R" unicode="R" horiz-adv-x="730" 
d="M643.1 166.8c14.4297 -122.34 35.7998 -150.069 35.7998 -150.069v-16.7305h-122.74s-15.5303 35.2598 -27.0605 144.33c-12.1699 112.87 -55.5 147.3 -177.37 147.3h-143.77v-291.63h-116v750h324.27c162.2 0 254.67 -84.2002 254.67 -230.24
c0 -100.6 -43.8496 -163.85 -131.55 -190.25c63.6602 -22.7002 93.5205 -73.2598 103.751 -162.71zM207.96 391.961h193.599c101.94 0 150.341 41.1396 150.341 127.8c0 86.6699 -47.7695 127.8 -148.34 127.8h-195.6v-255.6z" />
    <glyph glyph-name="Racute" unicode="&#x154;" horiz-adv-x="730" 
d="M490.26 953.8l-120.229 -149.27h-80.9004v16.7305l77.9697 149.27h123.16v-16.7305zM643.101 166.8c14.4297 -122.34 35.7998 -150.069 35.7998 -150.069v-16.7305h-122.74s-15.5303 35.2598 -27.0605 144.33c-12.1699 112.87 -55.5 147.3 -177.37 147.3h-143.77v-291.63
h-116v750h324.27c162.2 0 254.67 -84.2002 254.67 -230.24c0 -100.6 -43.8496 -163.85 -131.55 -190.25c63.6602 -22.7002 93.5205 -73.2598 103.751 -162.71zM207.961 391.961h193.599c101.94 0 150.341 41.1396 150.341 127.8c0 86.6699 -47.7695 127.8 -148.34 127.8
h-195.6v-255.6z" />
    <glyph glyph-name="Rcaron" unicode="&#x158;" horiz-adv-x="730" 
d="M410.1 800.16h-126.939l-106.53 113.67v16.7305h106.17l61.46 -69.2998h4.74023l61.46 69.2998h106.17v-16.7305zM643.101 166.8c14.4297 -122.34 35.7998 -150.069 35.7998 -150.069v-16.7305h-122.74s-15.5303 35.2598 -27.0605 144.33
c-12.1699 112.87 -55.5 147.3 -177.37 147.3h-143.77v-291.63h-116v750h324.27c162.2 0 254.67 -84.2002 254.67 -230.24c0 -100.6 -43.8496 -163.85 -131.55 -190.25c63.6602 -22.7002 93.5205 -73.2598 103.751 -162.71zM207.961 391.961h193.599
c101.94 0 150.341 41.1396 150.341 127.8c0 86.6699 -47.7695 127.8 -148.34 127.8h-195.6v-255.6z" />
    <glyph glyph-name="uni0156" unicode="&#x156;" horiz-adv-x="730" 
d="M643.1 166.8c14.4297 -122.34 35.7998 -150.069 35.7998 -150.069v-16.7305h-122.74s-15.5303 35.2598 -27.0605 144.33c-12.1699 112.87 -55.5 147.3 -177.37 147.3h-143.77v-291.63h-116v750h324.27c162.2 0 254.67 -84.2002 254.67 -230.24
c0 -100.6 -43.8496 -163.85 -131.55 -190.25c63.6602 -22.7002 93.5205 -73.2598 103.751 -162.71zM207.96 391.961h193.599c101.94 0 150.341 41.1396 150.341 127.8c0 86.6699 -47.7695 127.8 -148.34 127.8h-195.6v-255.6zM323.299 -174.569v116.329h120.53v-79.0996
c0 -129.6 -103.8 -157.3 -103.8 -157.3h-16.7305v62.7402s44.4004 7.59961 53.3301 57.3301h-53.3301z" />
    <glyph glyph-name="uni0210" unicode="&#x210;" horiz-adv-x="730" 
d="M297.53 804.53h-81.1992l-120.23 149.27v16.7305h106.43l95 -149.27v-16.7305zM473.101 804.53h-80.2002l-95 149.27v16.7305h99.7598l75.4404 -149.27v-16.7305zM643.101 166.8c14.4297 -122.34 35.7998 -150.069 35.7998 -150.069v-16.7305h-122.74
s-15.5303 35.2598 -27.0605 144.33c-12.1699 112.87 -55.5 147.3 -177.37 147.3h-143.77v-291.63h-116v750h324.27c162.2 0 254.67 -84.2002 254.67 -230.24c0 -100.6 -43.8496 -163.85 -131.55 -190.25c63.6602 -22.7002 93.5205 -73.2598 103.751 -162.71z
M207.961 391.961h193.599c101.94 0 150.341 41.1396 150.341 127.8c0 86.6699 -47.7695 127.8 -148.34 127.8h-195.6v-255.6z" />
    <glyph glyph-name="uni1E5A" unicode="&#x1e5a;" horiz-adv-x="730" 
d="M643.1 166.8c14.4297 -122.34 35.7998 -150.069 35.7998 -150.069v-16.7305h-122.74s-15.5303 35.2598 -27.0605 144.33c-12.1699 112.87 -55.5 147.3 -177.37 147.3h-143.77v-291.63h-116v750h324.27c162.2 0 254.67 -84.2002 254.67 -230.24
c0 -100.6 -43.8496 -163.85 -131.55 -190.25c63.6602 -22.7002 93.5205 -73.2598 103.751 -162.71zM207.96 391.961h193.599c101.94 0 150.341 41.1396 150.341 127.8c0 86.6699 -47.7695 127.8 -148.34 127.8h-195.6v-255.6zM324.559 -181.439v123.2h118v-123.2h-118z" />
    <glyph glyph-name="S" unicode="S" horiz-adv-x="697" 
d="M350.1 -16c-190.3 0 -299.14 92.458 -299.14 254.658h118.54c0 -102.73 59.2305 -153.601 178.33 -153.601c121 0 180.87 39.8701 180.87 120.87c0 70.2002 -42.4404 94.6299 -211.44 120.53c-178.2 27.7402 -254.3 90.9404 -254.3 215.601
c0 142.2 102.84 223.94 281.14 223.94s281.13 -84.4697 281.13 -232.399h-118.53c0 88.0996 -53.8701 131.33 -162.34 131.33c-109.73 0 -163.601 -38.5 -163.601 -115.87c0 -68.9297 42.4404 -93.3594 210.801 -121.26c180.57 -31.0996 257.67 -95.2998 257.67 -218.87
c0 -142.83 -108.83 -224.93 -299.13 -224.93z" />
    <glyph glyph-name="Sacute" unicode="&#x15a;" horiz-adv-x="697" 
d="M287.86 804.53l0.000976562 16.7305l77.9697 149.27h123.17v-16.7305l-120.24 -149.27h-80.9004zM350.102 -15.999c-190.3 0 -299.14 92.458 -299.14 254.658h118.54c0 -102.73 59.2305 -153.601 178.33 -153.601c121 0 180.87 39.8701 180.87 120.87
c0 70.2002 -42.4404 94.6299 -211.44 120.53c-178.2 27.7402 -254.3 90.9404 -254.3 215.601c0 142.2 102.84 223.94 281.14 223.94s281.13 -84.4697 281.13 -232.399h-118.53c0 88.0996 -53.8701 131.33 -162.34 131.33c-109.73 0 -163.601 -38.5 -163.601 -115.87
c0 -68.9297 42.4404 -93.3594 210.801 -121.26c180.57 -31.0996 257.67 -95.2998 257.67 -218.87c0 -142.83 -108.83 -224.93 -299.13 -224.93z" />
    <glyph glyph-name="Scaron" unicode="&#x160;" horiz-adv-x="697" 
d="M281.9 800.16l-106.54 113.67v16.7305h106.17l61.4697 -69.2998h4.73047l61.4697 69.2998h106.16v-16.7305l-106.53 -113.67h-126.93zM350.101 -16c-190.3 0 -299.14 92.458 -299.14 254.658h118.54c0 -102.73 59.2305 -153.601 178.33 -153.601
c121 0 180.87 39.8701 180.87 120.87c0 70.2002 -42.4404 94.6299 -211.44 120.53c-178.2 27.7402 -254.3 90.9404 -254.3 215.601c0 142.2 102.84 223.94 281.14 223.94s281.13 -84.4697 281.13 -232.399h-118.53c0 88.0996 -53.8701 131.33 -162.34 131.33
c-109.73 0 -163.601 -38.5 -163.601 -115.87c0 -68.9297 42.4404 -93.3594 210.801 -121.26c180.57 -31.0996 257.67 -95.2998 257.67 -218.87c0 -142.83 -108.83 -224.93 -299.13 -224.93z" />
    <glyph glyph-name="Scedilla" unicode="&#x15e;" horiz-adv-x="697" 
d="M649.23 208.93c0 -134.27 -96.1709 -214.87 -265.781 -224.05l-11.3203 -33.6797h2.73047c58.8398 0 92.2998 -31.3701 92.2998 -85.1006c0 -65.5703 -44.5596 -97.6699 -134.329 -97.6699c-47 0 -76.6699 5.62988 -76.6699 5.62988v73.7002h64.9004
c27.4404 0 39.3408 9.63965 39.3408 30.8994c0 21.2695 -11.9004 30.5391 -39.3408 30.5391h-31.7002v16.7305l20.1201 59.5596c-165.09 12.4697 -258.52 102.89 -258.52 253.17h118.54c0 -102.73 59.2305 -153.601 178.33 -153.601c121 0 180.87 39.8701 180.87 120.87
c0 70.2002 -42.4404 94.6299 -211.44 120.53c-178.2 27.7402 -254.3 90.9404 -254.3 215.601c0 142.2 102.84 223.94 281.14 223.94s281.13 -84.4697 281.13 -232.399h-118.53c0 88.0996 -53.8701 131.33 -162.34 131.33c-109.73 0 -163.601 -38.5 -163.601 -115.87
c0 -68.9297 42.4404 -93.3594 210.801 -121.26c180.57 -31.0996 257.67 -95.2998 257.67 -218.87z" />
    <glyph glyph-name="Scircumflex" unicode="&#x15c;" horiz-adv-x="697" 
d="M175.36 800.16v16.7402l106.54 113.66h126.93l106.53 -113.66v-16.7402h-106.16l-61.4697 69.2998h-4.73047l-61.4697 -69.2998h-106.17zM350.101 -16c-190.3 0 -299.14 92.458 -299.14 254.658h118.54c0 -102.73 59.2305 -153.601 178.33 -153.601
c121 0 180.87 39.8701 180.87 120.87c0 70.2002 -42.4404 94.6299 -211.44 120.53c-178.2 27.7402 -254.3 90.9404 -254.3 215.601c0 142.2 102.84 223.94 281.14 223.94s281.13 -84.4697 281.13 -232.399h-118.53c0 88.0996 -53.8701 131.33 -162.34 131.33
c-109.73 0 -163.601 -38.5 -163.601 -115.87c0 -68.9297 42.4404 -93.3594 210.801 -121.26c180.57 -31.0996 257.67 -95.2998 257.67 -218.87c0 -142.83 -108.83 -224.93 -299.13 -224.93z" />
    <glyph glyph-name="uni0218" unicode="&#x218;" horiz-adv-x="697" 
d="M391.56 427.8c180.57 -31.0996 257.67 -95.3018 257.67 -218.872c0 -142.83 -108.83 -224.93 -299.13 -224.93s-299.14 92.46 -299.14 254.66h118.54c0 -102.73 59.2305 -153.601 178.33 -153.601c121 0 180.87 39.8701 180.87 120.87
c0 70.2002 -42.4404 94.6299 -211.44 120.53c-178.2 27.7402 -254.3 90.9404 -254.3 215.601c0 142.2 102.84 223.94 281.14 223.94s281.13 -84.4697 281.13 -232.399h-118.53c0 88.0996 -53.8701 131.33 -162.34 131.33c-109.73 0 -163.601 -38.5 -163.601 -115.87
c0 -68.9297 42.4404 -93.3594 210.801 -121.26zM289.829 -174.572v116.329h120.53v-79.0996c0 -129.6 -103.8 -157.3 -103.8 -157.3h-16.7305v62.7402s44.4004 7.59961 53.3301 57.3301h-53.3301z" />
    <glyph glyph-name="uni1E62" unicode="&#x1e62;" horiz-adv-x="697" 
d="M350.1 -16c-190.3 0 -299.14 92.458 -299.14 254.658h118.54c0 -102.73 59.2305 -153.601 178.33 -153.601c121 0 180.87 39.8701 180.87 120.87c0 70.2002 -42.4404 94.6299 -211.44 120.53c-178.2 27.7402 -254.3 90.9404 -254.3 215.601
c0 142.2 102.84 223.94 281.14 223.94s281.13 -84.4697 281.13 -232.399h-118.53c0 88.0996 -53.8701 131.33 -162.34 131.33c-109.73 0 -163.601 -38.5 -163.601 -115.87c0 -68.9297 42.4404 -93.3594 210.801 -121.26c180.57 -31.0996 257.67 -95.2998 257.67 -218.87
c0 -142.83 -108.83 -224.93 -299.13 -224.93zM291.1 -181.442v123.2h118v-123.2h-118z" />
    <glyph glyph-name="uni1E9E" unicode="&#x1e9e;" horiz-adv-x="716" 
d="M91.8604 0v524.329c0 147.4 78.2695 225.67 225.67 225.67h329.17v-84.1396l-173.1 -240.76c118.76 -12.5703 187.1 -87.4707 187.1 -205.44c0 -139.56 -100.94 -219.659 -276.07 -219.659h-87.6699v102.43h87.6699c103.57 0 155.17 41.2305 155.17 124.7
c0 81.2002 -51.5996 121.8 -155.17 121.8h-26.2998v93.2002l147.23 205.8h-176.73c-80.4697 0 -120.069 -39.5996 -120.069 -120.069v-527.86h-116.9z" />
    <glyph glyph-name="T" unicode="T" horiz-adv-x="695" 
d="M666.13 750v-103.17h-259.17v-646.83h-118v646.83h-260.16v103.17h637.33z" />
    <glyph glyph-name="Tbar" unicode="&#x166;" horiz-adv-x="695" 
d="M666.13 646.83h-259.17v-246.37h147.8v-94.3301h-147.8v-306.13h-118v306.13h-147.8v94.3301h147.8v246.37h-260.16v103.17h637.33v-103.17z" />
    <glyph glyph-name="Tcaron" unicode="&#x164;" horiz-adv-x="695" 
d="M412.7 800.16h-126.939l-106.53 113.67v16.7305h106.17l61.46 -69.2998h4.74023l61.46 69.2998h106.17v-16.7305zM666.131 750v-103.17h-259.17v-646.83h-118v646.83h-260.16v103.17h637.33z" />
    <glyph glyph-name="uni0162" unicode="&#x162;" horiz-adv-x="695" 
d="M406.96 0l-20.5703 0.000976562l-16.3896 -48.7998h2.73047c58.8301 0 92.2998 -31.3701 92.2998 -85.1006c0 -65.5703 -44.5703 -97.6699 -134.33 -97.6699c-47 0 -76.6699 5.62988 -76.6699 5.62988v73.7002h64.9004c27.4297 0 39.3301 9.63965 39.3301 30.8994
c0 21.2695 -11.9004 30.5391 -39.3301 30.5391h-31.7002v16.7305l25.0195 74.0703h-23.29v646.83h-260.16v103.17h637.33v-103.17h-259.17v-646.83z" />
    <glyph glyph-name="uni021A" unicode="&#x21a;" horiz-adv-x="695" 
d="M666.13 750v-103.17h-259.17v-646.83h-118v646.83h-260.16v103.17h637.33zM287.7 -174.57v116.329h120.53v-79.0996c0 -129.6 -103.8 -157.3 -103.8 -157.3h-16.7305v62.7402s44.4004 7.59961 53.3301 57.3301h-53.3301z" />
    <glyph glyph-name="uni1E6C" unicode="&#x1e6c;" horiz-adv-x="695" 
d="M666.13 750v-103.17h-259.17v-646.83h-118v646.83h-260.16v103.17h637.33zM288.96 -181.439v123.2h118v-123.2h-118z" />
    <glyph glyph-name="U" unicode="U" horiz-adv-x="779" 
d="M386.8 -16c-201.24 0 -315.899 116.2 -315.899 319.5v446.5h118v-453.6c0 -139 65.96 -207.87 197.9 -207.87c134.3 0 199.63 68.8701 199.63 207.87v453.6h115.27v-446.5c0 -203.3 -114.67 -319.5 -314.9 -319.5z" />
    <glyph glyph-name="Uacute" unicode="&#xda;" horiz-adv-x="779" 
d="M330.56 804.53l0.000976562 16.7305l77.9697 149.27h123.17v-16.7305l-120.24 -149.27h-80.9004zM386.801 -15.999c-201.24 0 -315.899 116.2 -315.899 319.5v446.5h118v-453.6c0 -139 65.96 -207.87 197.9 -207.87c134.3 0 199.63 68.8701 199.63 207.87v453.6h115.27
v-446.5c0 -203.3 -114.67 -319.5 -314.9 -319.5z" />
    <glyph glyph-name="Ubreve" unicode="&#x16c;" horiz-adv-x="779" 
d="M387.43 799.16c-80.5703 0 -137.129 41.4697 -154.329 113.04v16.7305h91.0996c6 -29.7002 26.5303 -44.2305 63.2305 -44.2305c36.3301 0 56.8701 14.5303 62.8701 44.2305h91.46l-0.360352 -16.7305c-18.5703 -71.5703 -74.7705 -113.04 -153.971 -113.04zM386.801 -16
c-201.24 0 -315.899 116.2 -315.899 319.5v446.5h118v-453.6c0 -139 65.96 -207.87 197.9 -207.87c134.3 0 199.63 68.8701 199.63 207.87v453.6h115.27v-446.5c0 -203.3 -114.67 -319.5 -314.9 -319.5z" />
    <glyph glyph-name="uni01D3" unicode="&#x1d3;" horiz-adv-x="779" 
d="M324.6 800.16l-106.54 113.67v16.7305h106.17l61.4697 -69.2998h4.73047l61.4697 69.2998h106.16v-16.7305l-106.53 -113.67h-126.93zM386.8 -16c-201.24 0 -315.899 116.2 -315.899 319.5v446.5h118v-453.6c0 -139 65.96 -207.87 197.9 -207.87
c134.3 0 199.63 68.8701 199.63 207.87v453.6h115.27v-446.5c0 -203.3 -114.67 -319.5 -314.9 -319.5z" />
    <glyph glyph-name="Ucircumflex" unicode="&#xdb;" horiz-adv-x="779" 
d="M218.06 800.16v16.7402l106.54 113.66h126.93l106.53 -113.66v-16.7402h-106.16l-61.4697 69.2998h-4.73047l-61.4697 -69.2998h-106.17zM386.8 -16c-201.24 0 -315.899 116.2 -315.899 319.5v446.5h118v-453.6c0 -139 65.96 -207.87 197.9 -207.87
c134.3 0 199.63 68.8701 199.63 207.87v453.6h115.27v-446.5c0 -203.3 -114.67 -319.5 -314.9 -319.5z" />
    <glyph glyph-name="uni0214" unicode="&#x214;" horiz-adv-x="779" 
d="M257.76 804.53l-120.229 149.27v16.7305h106.43l95 -149.27v-16.7305h-81.2002zM434.33 804.53l-94.999 149.27v16.7305h99.7695l75.4297 -149.27v-16.7305h-80.2002zM386.801 -16c-201.24 0 -315.899 116.2 -315.899 319.5v446.5h118v-453.6
c0 -139 65.96 -207.87 197.9 -207.87c134.3 0 199.63 68.8701 199.63 207.87v453.6h115.27v-446.5c0 -203.3 -114.67 -319.5 -314.9 -319.5z" />
    <glyph glyph-name="Udieresis" unicode="&#xdc;" horiz-adv-x="779" 
d="M218.76 801.9v120.46h114v-120.46h-114zM440.83 801.9v120.46h114v-120.46h-114zM386.8 -16c-201.24 0 -315.899 116.2 -315.899 319.5v446.5h118v-453.6c0 -139 65.96 -207.87 197.9 -207.87c134.3 0 199.63 68.8701 199.63 207.87v453.6h115.27v-446.5
c0 -203.3 -114.67 -319.5 -314.9 -319.5z" />
    <glyph glyph-name="uni1EE4" unicode="&#x1ee4;" horiz-adv-x="779" 
d="M386.8 -16c-201.24 0 -315.899 116.2 -315.899 319.5v446.5h118v-453.6c0 -139 65.96 -207.87 197.9 -207.87c134.3 0 199.63 68.8701 199.63 207.87v453.6h115.27v-446.5c0 -203.3 -114.67 -319.5 -314.9 -319.5zM327.801 -181.44v123.2h118v-123.2h-118z" />
    <glyph glyph-name="Ugrave" unicode="&#xd9;" horiz-adv-x="779" 
d="M362.13 804.53l-120.229 149.27v16.7305h123.16l77.9697 -149.27v-16.7305h-80.9004zM386.801 -16c-201.24 0 -315.899 116.2 -315.899 319.5v446.5h118v-453.6c0 -139 65.96 -207.87 197.9 -207.87c134.3 0 199.63 68.8701 199.63 207.87v453.6h115.27v-446.5
c0 -203.3 -114.67 -319.5 -314.9 -319.5z" />
    <glyph glyph-name="Uhungarumlaut" unicode="&#x170;" horiz-adv-x="779" 
d="M259.06 804.53v16.7305l75.4404 149.27h99.7598v-16.7305l-95 -149.27h-80.2002zM434.63 804.53l0.000976562 16.7305l95 149.27h106.43v-16.7305l-120.23 -149.27h-81.2002zM386.801 -15.999c-201.24 0 -315.899 116.2 -315.899 319.5v446.5h118v-453.6
c0 -139 65.96 -207.87 197.9 -207.87c134.3 0 199.63 68.8701 199.63 207.87v453.6h115.27v-446.5c0 -203.3 -114.67 -319.5 -314.9 -319.5z" />
    <glyph glyph-name="Umacron" unicode="&#x16a;" horiz-adv-x="779" 
d="M212.2 822.13v88.2695h351.2v-88.2695h-351.2zM386.8 -16.001c-201.24 0 -315.899 116.2 -315.899 319.5v446.5h118v-453.6c0 -139 65.96 -207.87 197.9 -207.87c134.3 0 199.63 68.8701 199.63 207.87v453.6h115.27v-446.5c0 -203.3 -114.67 -319.5 -314.9 -319.5z" />
    <glyph glyph-name="Uogonek" unicode="&#x172;" horiz-adv-x="779" 
d="M586.43 750l115.269 0.000976562v-446.5c0 -180.07 -89.96 -291.811 -249.65 -314.99c-23.0596 -12.3701 -74.1895 -44.9199 -74.1895 -90.3799c0 -23.1699 13.54 -35.0703 40.3398 -35.0703c17.2598 0 28.1602 7.63965 28.1602 7.63965h16.7402v-84.1699
s-22.8398 -8.73047 -64.3994 -8.73047c-76.5703 0 -120.67 36.3604 -120.67 99.1006c0 52.1396 32.2998 86.5596 68.4102 108.739c-176.14 14.79 -275.54 128.57 -275.54 317.86v446.5h118v-453.6c0 -139 65.96 -207.87 197.9 -207.87c134.3 0 199.63 68.8701 199.63 207.87
v453.6z" />
    <glyph glyph-name="Uring" unicode="&#x16e;" horiz-adv-x="779" 
d="M386.8 771.43c-70.1396 0 -121.699 49.5703 -121.699 114.87c0 64.2998 52.9297 114.859 121.699 114.859c72.4004 0 122.33 -49.5596 122.33 -114.859c0 -64.6699 -52.9297 -114.87 -122.33 -114.87zM386.8 844.33c24.4297 0 42.5996 17.5303 42.5996 41.9707
c0 24.4297 -17.1699 41.96 -42.5996 41.96c-23.7998 0 -41.3398 -17.5303 -41.3398 -41.96c0 -24.4404 16.54 -41.9707 41.3398 -41.9707zM386.8 -16c-201.24 0 -315.899 116.2 -315.899 319.5v446.5h118v-453.6c0 -139 65.96 -207.87 197.9 -207.87
c134.3 0 199.63 68.8701 199.63 207.87v453.6h115.27v-446.5c0 -203.3 -114.67 -319.5 -314.9 -319.5z" />
    <glyph glyph-name="Utilde" unicode="&#x168;" horiz-adv-x="779" 
d="M452.8 814.5c-61.1699 0 -85.2002 37.0596 -128.84 37.0596c-22.9004 0 -36.5303 -10.9004 -39.9004 -33.0605h-71.8604v16.7305c9.83008 65.0303 49.4004 102.601 107.96 102.601c61.7998 0 86.8398 -36.7002 129.47 -36.7002
c22.9004 0 36.5303 10.9004 40.2705 32.7002h71.5v-16.7305c-9.46973 -65.04 -49.04 -102.6 -108.6 -102.6zM386.8 -16c-201.24 0 -315.899 116.2 -315.899 319.5v446.5h118v-453.6c0 -139 65.96 -207.87 197.9 -207.87c134.3 0 199.63 68.8701 199.63 207.87v453.6h115.27
v-446.5c0 -203.3 -114.67 -319.5 -314.9 -319.5z" />
    <glyph glyph-name="V" unicode="V" horiz-adv-x="722" 
d="M296.3 0l-270.341 733.26v16.7402h120.1l214.7 -606.27h2l214.44 606.27h118.73v-16.7402l-270.17 -733.26h-129.46z" />
    <glyph glyph-name="W" unicode="W" horiz-adv-x="1030" 
d="M240.3 0l-210.97 735.16v14.8398h118.37l156.33 -574.2h2l154.43 574.2h110.74l153.8 -574.2h2l157.96 574.2h115.74v-14.8398l-210.97 -735.16h-122l-151.9 542.03h-2l-151.53 -542.03h-122z" />
    <glyph glyph-name="Wacute" unicode="&#x1e82;" horiz-adv-x="1030" 
d="M458.6 804.53l0.000976562 16.7305l77.96 149.27h123.17v-16.7305l-120.23 -149.27h-80.9004zM240.301 0.000976562l-210.97 735.16v14.8398h118.37l156.33 -574.2h2l154.43 574.2h110.74l153.8 -574.2h2l157.96 574.2h115.74v-14.8398l-210.97 -735.16h-122
l-151.9 542.03h-2l-151.53 -542.03h-122z" />
    <glyph glyph-name="Wcircumflex" unicode="&#x174;" horiz-adv-x="1030" 
d="M346.1 800.16v16.7402l106.53 113.66h126.93l106.54 -113.66v-16.7402h-106.17l-61.4697 69.2998h-4.73047l-61.4697 -69.2998h-106.16zM240.3 0l-210.97 735.16v14.8398h118.37l156.33 -574.2h2l154.43 574.2h110.74l153.8 -574.2h2l157.96 574.2h115.74v-14.8398
l-210.97 -735.16h-122l-151.9 542.03h-2l-151.53 -542.03h-122z" />
    <glyph glyph-name="Wdieresis" unicode="&#x1e84;" horiz-adv-x="1030" 
d="M346.8 801.9v120.46h114v-120.46h-114zM568.859 801.9v120.46h114v-120.46h-114zM240.3 0l-210.97 735.16v14.8398h118.37l156.33 -574.2h2l154.43 574.2h110.74l153.8 -574.2h2l157.96 574.2h115.74v-14.8398l-210.97 -735.16h-122l-151.9 542.03h-2l-151.53 -542.03
h-122z" />
    <glyph glyph-name="Wgrave" unicode="&#x1e80;" horiz-adv-x="1030" 
d="M490.16 804.53l-120.229 149.27v16.7305h123.17l77.96 -149.27v-16.7305h-80.9004zM240.301 -0l-210.97 735.16v14.8398h118.37l156.33 -574.2h2l154.43 574.2h110.74l153.8 -574.2h2l157.96 574.2h115.74v-14.8398l-210.97 -735.16h-122l-151.9 542.03h-2
l-151.53 -542.03h-122z" />
    <glyph glyph-name="X" unicode="X" horiz-adv-x="738" 
d="M26.96 0l0.000976562 16.7305l270.07 365.27l-262.07 351.26v16.7402h133.04l200.86 -278.14l198.6 278.14h130.67v-16.0996l-259.43 -351.9l273.43 -365.27v-16.7305h-133.03l-212.24 292.5l-209.86 -292.5h-130.04z" />
    <glyph glyph-name="Y" unicode="Y" horiz-adv-x="662" 
d="M274.33 0v292.23l-258.7 441.03v16.7402h124.57l193.13 -343.5h2l194.5 343.5h123.2v-16.7402l-260.7 -441.03v-292.23h-118z" />
    <glyph glyph-name="Yacute" unicode="&#xdd;" horiz-adv-x="662" 
d="M278.1 804.53l0.000976562 16.7305l77.96 149.27h123.17v-16.7305l-120.23 -149.27h-80.9004zM274.331 0.000976562v292.23l-258.7 441.03v16.7402h124.57l193.13 -343.5h2l194.5 343.5h123.2v-16.7402l-260.7 -441.03v-292.23h-118z" />
    <glyph glyph-name="Ycircumflex" unicode="&#x176;" horiz-adv-x="662" 
d="M165.6 800.16v16.7402l106.53 113.66h126.93l106.54 -113.66v-16.7402h-106.17l-61.4697 69.2998h-4.73047l-61.4697 -69.2998h-106.16zM274.33 0v292.23l-258.7 441.03v16.7402h124.57l193.13 -343.5h2l194.5 343.5h123.2v-16.7402l-260.7 -441.03v-292.23h-118z" />
    <glyph glyph-name="Ydieresis" unicode="&#x178;" horiz-adv-x="662" 
d="M166.3 801.9v120.46h114v-120.46h-114zM388.359 801.9v120.46h114v-120.46h-114zM274.329 0v292.23l-258.7 441.03v16.7402h124.57l193.13 -343.5h2l194.5 343.5h123.2v-16.7402l-260.7 -441.03v-292.23h-118z" />
    <glyph glyph-name="uni1EF4" unicode="&#x1ef4;" horiz-adv-x="662" 
d="M274.33 0v292.23l-258.7 441.03v16.7402h124.57l193.13 -343.5h2l194.5 343.5h123.2v-16.7402l-260.7 -441.03v-292.23h-118zM274.33 -181.439v123.2h118v-123.2h-118z" />
    <glyph glyph-name="Ygrave" unicode="&#x1ef2;" horiz-adv-x="662" 
d="M309.66 804.53l-120.229 149.27v16.7305h123.17l77.96 -149.27v-16.7305h-80.9004zM274.331 -0v292.23l-258.7 441.03v16.7402h124.57l193.13 -343.5h2l194.5 343.5h123.2v-16.7402l-260.7 -441.03v-292.23h-118z" />
    <glyph glyph-name="uni1EF8" unicode="&#x1ef8;" horiz-adv-x="662" 
d="M400.33 814.5c-61.1699 0 -85.2012 37.0596 -128.831 37.0596c-22.9004 0 -36.54 -10.9004 -39.9004 -33.0605h-71.8701v16.7305c9.83008 65.0303 49.4004 102.601 107.971 102.601c61.7998 0 86.8301 -36.7002 129.46 -36.7002c22.9004 0 36.54 10.9004 40.2705 32.7002
h71.5v-16.7305c-9.46973 -65.04 -49.0293 -102.6 -108.6 -102.6zM274.329 0v292.23l-258.7 441.03v16.7402h124.57l193.13 -343.5h2l194.5 343.5h123.2v-16.7402l-260.7 -441.03v-292.23h-118z" />
    <glyph glyph-name="Z" unicode="Z" horiz-adv-x="678" 
d="M195.37 104.33h441.39v-104.33h-597.86v85.4004l437.75 560.26h-423.39v104.34h579.5v-85.7695z" />
    <glyph glyph-name="Zacute" unicode="&#x179;" horiz-adv-x="678" 
d="M487.6 953.8l-120.239 -149.27h-80.9004v16.7305l77.9697 149.27h123.17v-16.7305zM195.37 104.33h441.39v-104.33h-597.86v85.4004l437.75 560.26h-423.39v104.34h579.5v-85.7695z" />
    <glyph glyph-name="Zcaron" unicode="&#x17d;" horiz-adv-x="678" 
d="M407.43 800.16h-126.93l-106.54 113.67v16.7305h106.17l61.4697 -69.2998h4.73047l61.4697 69.2998h106.16v-16.7305zM195.37 104.33h441.39v-104.33h-597.86v85.4004l437.75 560.26h-423.39v104.34h579.5v-85.7695z" />
    <glyph glyph-name="Zdotaccent" unicode="&#x17b;" horiz-adv-x="678" 
d="M401.7 924.46v-123.2h-118v123.2h118zM195.37 104.33h441.39v-104.33h-597.86v85.4004l437.75 560.26h-423.39v104.34h579.5v-85.7695z" />
    <glyph glyph-name="uni1E92" unicode="&#x1e92;" horiz-adv-x="678" 
d="M195.37 104.33h441.39v-104.33h-597.86v85.4004l437.75 560.26h-423.39v104.34h579.5v-85.7695zM279.33 -181.439v123.2h118v-123.2h-118z" />
    <glyph glyph-name="R.ss01" horiz-adv-x="727" 
d="M620.56 180.76l55.5996 -164.03v-16.7305h-121.36l-51.1396 162.1c-32.7998 103.9 -63.96 129.53 -157.1 129.53h-138.6v-291.63h-116v750h324.27c162.2 0 254.67 -84.2002 254.67 -230.24c0 -115.22 -57.5195 -181.439 -172.55 -199.43
c62.7002 -13.9199 92.4697 -52.4697 122.21 -139.569zM207.959 391.96h193.599c101.94 0 150.341 41.1396 150.341 127.8c0 86.6699 -47.7695 127.8 -148.34 127.8h-195.6v-255.6z" />
    <glyph glyph-name="Racute.ss01" horiz-adv-x="727" 
d="M490.26 953.8l-120.229 -149.27h-80.9004v16.7305l77.9697 149.27h123.16v-16.7305zM620.561 180.761l55.5996 -164.03v-16.7305h-121.36l-51.1396 162.1c-32.7998 103.9 -63.96 129.53 -157.1 129.53h-138.6v-291.63h-116v750h324.27
c162.2 0 254.67 -84.2002 254.67 -230.24c0 -115.22 -57.5195 -181.439 -172.55 -199.43c62.7002 -13.9199 92.4697 -52.4697 122.21 -139.569zM207.96 391.961h193.599c101.94 0 150.341 41.1396 150.341 127.8c0 86.6699 -47.7695 127.8 -148.34 127.8h-195.6v-255.6z" />
    <glyph glyph-name="Rcaron.ss01" horiz-adv-x="727" 
d="M410.1 800.16h-126.939l-106.53 113.67v16.7305h106.17l61.46 -69.2998h4.74023l61.46 69.2998h106.17v-16.7305zM620.561 180.76l55.5996 -164.03v-16.7305h-121.36l-51.1396 162.1c-32.7998 103.9 -63.96 129.53 -157.1 129.53h-138.6v-291.63h-116v750h324.27
c162.2 0 254.67 -84.2002 254.67 -230.24c0 -115.22 -57.5195 -181.439 -172.55 -199.43c62.7002 -13.9199 92.4697 -52.4697 122.21 -139.569zM207.96 391.96h193.599c101.94 0 150.341 41.1396 150.341 127.8c0 86.6699 -47.7695 127.8 -148.34 127.8h-195.6v-255.6z" />
    <glyph glyph-name="uni0156.ss01" horiz-adv-x="727" 
d="M620.56 180.76l55.5996 -164.03v-16.7305h-121.36l-51.1396 162.1c-32.7998 103.9 -63.96 129.53 -157.1 129.53h-138.6v-291.63h-116v750h324.27c162.2 0 254.67 -84.2002 254.67 -230.24c0 -115.22 -57.5195 -181.439 -172.55 -199.43
c62.7002 -13.9199 92.4697 -52.4697 122.21 -139.569zM207.959 391.96h193.599c101.94 0 150.341 41.1396 150.341 127.8c0 86.6699 -47.7695 127.8 -148.34 127.8h-195.6v-255.6zM323.298 -174.57v116.329h120.53v-79.0996c0 -129.6 -103.8 -157.3 -103.8 -157.3h-16.7305
v62.7402s44.4004 7.59961 53.3301 57.3301h-53.3301z" />
    <glyph glyph-name="uni0210.ss01" horiz-adv-x="727" 
d="M297.53 804.53h-81.1992l-120.23 149.27v16.7305h106.43l95 -149.27v-16.7305zM473.101 804.53h-80.2002l-95 149.27v16.7305h99.7598l75.4404 -149.27v-16.7305zM620.561 180.761l55.5996 -164.03v-16.7305h-121.36l-51.1396 162.1
c-32.7998 103.9 -63.96 129.53 -157.1 129.53h-138.6v-291.63h-116v750h324.27c162.2 0 254.67 -84.2002 254.67 -230.24c0 -115.22 -57.5195 -181.439 -172.55 -199.43c62.7002 -13.9199 92.4697 -52.4697 122.21 -139.569zM207.96 391.961h193.599
c101.94 0 150.341 41.1396 150.341 127.8c0 86.6699 -47.7695 127.8 -148.34 127.8h-195.6v-255.6z" />
    <glyph glyph-name="uni1E5A.ss01" horiz-adv-x="727" 
d="M620.56 180.76l55.5996 -164.03v-16.7305h-121.36l-51.1396 162.1c-32.7998 103.9 -63.96 129.53 -157.1 129.53h-138.6v-291.63h-116v750h324.27c162.2 0 254.67 -84.2002 254.67 -230.24c0 -115.22 -57.5195 -181.439 -172.55 -199.43
c62.7002 -13.9199 92.4697 -52.4697 122.21 -139.569zM207.959 391.96h193.599c101.94 0 150.341 41.1396 150.341 127.8c0 86.6699 -47.7695 127.8 -148.34 127.8h-195.6v-255.6zM324.558 -181.44v123.2h118v-123.2h-118z" />
    <glyph glyph-name="a" unicode="a" horiz-adv-x="611" 
d="M237.06 -12c-122.73 0 -193.102 53.998 -193.102 146.998c0 104 60 154.36 200.37 170.101c141.93 15.2598 169.5 25.96 169.5 70.7002c0 48.5996 -40.7695 75.5596 -115.43 75.5596c-74.04 0 -115.17 -26.96 -115.17 -85.5596h-111.27
c0 112.03 86.3701 175.66 225.44 175.66c139.06 0 225.43 -65.2598 225.43 -169.029v-263.43c0 -21.9004 7.62988 -29.54 29.5303 -29.54h24.6396v-77.7998s-20.7695 -9.66016 -61.5693 -9.66016c-63.0996 0 -95.6699 28.5303 -95.6699 82.6602v2h-4.73047
c-31.4297 -56.2305 -95.9697 -88.6602 -177.97 -88.6602zM248.759 72.8984c98.5703 0 164.07 67.3994 164.07 169.76v21.4404h-6c-22.4297 -22.4404 -60.0293 -33.3408 -142.229 -41.9707c-79.5703 -8.26953 -108.641 -30.0693 -108.641 -82.5693
c0 -44.2305 30.5996 -66.6602 92.7998 -66.6602z" />
    <glyph glyph-name="aacute" unicode="&#xe1;" horiz-adv-x="611" 
d="M248.9 584l0.000976562 16.7305l77.96 149.27h123.17v-16.7402l-120.23 -149.26h-80.9004zM237.062 -12c-122.73 0 -193.102 53.998 -193.102 146.998c0 104 60 154.36 200.37 170.101c141.93 15.2598 169.5 25.96 169.5 70.7002
c0 48.5996 -40.7695 75.5596 -115.43 75.5596c-74.04 0 -115.17 -26.96 -115.17 -85.5596h-111.27c0 112.03 86.3701 175.66 225.44 175.66c139.06 0 225.43 -65.2598 225.43 -169.029v-263.43c0 -21.9004 7.62988 -29.54 29.5303 -29.54h24.6396v-77.7998
s-20.7695 -9.66016 -61.5693 -9.66016c-63.0996 0 -95.6699 28.5303 -95.6699 82.6602v2h-4.73047c-31.4297 -56.2305 -95.9697 -88.6602 -177.97 -88.6602zM248.761 72.8984c98.5703 0 164.07 67.3994 164.07 169.76v21.4404h-6
c-22.4297 -22.4404 -60.0293 -33.3408 -142.229 -41.9707c-79.5703 -8.26953 -108.641 -30.0693 -108.641 -82.5693c0 -44.2305 30.5996 -66.6602 92.7998 -66.6602z" />
    <glyph glyph-name="abreve" unicode="&#x103;" horiz-adv-x="611" 
d="M305.76 592.53c-74.6602 0 -127.23 37.4697 -144.33 103.029v16.7402h83.6299c6 -29.7002 26.9004 -44.2402 60.7002 -44.2402s54.3398 14.54 60.3398 44.2402h84l-0.370117 -16.7402c-18.4697 -65.5596 -71.0293 -103.029 -143.97 -103.029zM237.06 -12
c-122.73 0 -193.102 53.998 -193.102 146.998c0 104 60 154.36 200.37 170.101c141.93 15.2598 169.5 25.96 169.5 70.7002c0 48.5996 -40.7695 75.5596 -115.43 75.5596c-74.04 0 -115.17 -26.96 -115.17 -85.5596h-111.27c0 112.03 86.3701 175.66 225.44 175.66
c139.06 0 225.43 -65.2598 225.43 -169.029v-263.43c0 -21.9004 7.62988 -29.54 29.5303 -29.54h24.6396v-77.7998s-20.7695 -9.66016 -61.5693 -9.66016c-63.0996 0 -95.6699 28.5303 -95.6699 82.6602v2h-4.73047c-31.4297 -56.2305 -95.9697 -88.6602 -177.97 -88.6602z
M248.759 72.8984c98.5703 0 164.07 67.3994 164.07 169.76v21.4404h-6c-22.4297 -22.4404 -60.0293 -33.3408 -142.229 -41.9707c-79.5703 -8.26953 -108.641 -30.0693 -108.641 -82.5693c0 -44.2305 30.5996 -66.6602 92.7998 -66.6602z" />
    <glyph glyph-name="uni1EB7" unicode="&#x1eb7;" horiz-adv-x="611" 
d="M305.76 592.53c-74.6602 0 -127.23 37.4697 -144.33 103.029v16.7402h83.6299c6 -29.7002 26.9004 -44.2402 60.7002 -44.2402s54.3398 14.54 60.3398 44.2402h84l-0.370117 -16.7402c-18.4697 -65.5596 -71.0293 -103.029 -143.97 -103.029zM237.06 -12
c-122.73 0 -193.102 53.998 -193.102 146.998c0 104 60 154.36 200.37 170.101c141.93 15.2598 169.5 25.96 169.5 70.7002c0 48.5996 -40.7695 75.5596 -115.43 75.5596c-74.04 0 -115.17 -26.96 -115.17 -85.5596h-111.27c0 112.03 86.3701 175.66 225.44 175.66
c139.06 0 225.43 -65.2598 225.43 -169.029v-263.43c0 -21.9004 7.62988 -29.54 29.5303 -29.54h24.6396v-77.7998s-20.7695 -9.66016 -61.5693 -9.66016c-63.0996 0 -95.6699 28.5303 -95.6699 82.6602v2h-4.73047c-31.4297 -56.2305 -95.9697 -88.6602 -177.97 -88.6602z
M248.759 72.8984c98.5703 0 164.07 67.3994 164.07 169.76v21.4404h-6c-22.4297 -22.4404 -60.0293 -33.3408 -142.229 -41.9707c-79.5703 -8.26953 -108.641 -30.0693 -108.641 -82.5693c0 -44.2305 30.5996 -66.6602 92.7998 -66.6602zM228.398 -174.173v115.93h110
v-115.93h-110z" />
    <glyph glyph-name="uni01CE" unicode="&#x1ce;" horiz-adv-x="611" 
d="M249.13 594.53l-98 114.3v16.7305h96.0703l55.5596 -69.9297h5.37012l55.5703 69.9297h96.0596v-16.7305l-97.6299 -114.3h-113zM237.06 -12c-122.73 0 -193.102 53.998 -193.102 146.998c0 104 60 154.36 200.37 170.101c141.93 15.2598 169.5 25.96 169.5 70.7002
c0 48.5996 -40.7695 75.5596 -115.43 75.5596c-74.04 0 -115.17 -26.96 -115.17 -85.5596h-111.27c0 112.03 86.3701 175.66 225.44 175.66c139.06 0 225.43 -65.2598 225.43 -169.029v-263.43c0 -21.9004 7.62988 -29.54 29.5303 -29.54h24.6396v-77.7998
s-20.7695 -9.66016 -61.5693 -9.66016c-63.0996 0 -95.6699 28.5303 -95.6699 82.6602v2h-4.73047c-31.4297 -56.2305 -95.9697 -88.6602 -177.97 -88.6602zM248.759 72.8984c98.5703 0 164.07 67.3994 164.07 169.76v21.4404h-6
c-22.4297 -22.4404 -60.0293 -33.3408 -142.229 -41.9707c-79.5703 -8.26953 -108.641 -30.0693 -108.641 -82.5693c0 -44.2305 30.5996 -66.6602 92.7998 -66.6602z" />
    <glyph glyph-name="acircumflex" unicode="&#xe2;" horiz-adv-x="611" 
d="M151.13 594.53v16.7305l98 114.3h113l97.6299 -114.3v-16.7305h-96.0596l-55.5703 69.9297h-5.37012l-55.5596 -69.9297h-96.0703zM237.06 -11.999c-122.73 0 -193.102 53.998 -193.102 146.998c0 104 60 154.36 200.37 170.101
c141.93 15.2598 169.5 25.96 169.5 70.7002c0 48.5996 -40.7695 75.5596 -115.43 75.5596c-74.04 0 -115.17 -26.96 -115.17 -85.5596h-111.27c0 112.03 86.3701 175.66 225.44 175.66c139.06 0 225.43 -65.2598 225.43 -169.029v-263.43
c0 -21.9004 7.62988 -29.54 29.5303 -29.54h24.6396v-77.7998s-20.7695 -9.66016 -61.5693 -9.66016c-63.0996 0 -95.6699 28.5303 -95.6699 82.6602v2h-4.73047c-31.4297 -56.2305 -95.9697 -88.6602 -177.97 -88.6602zM248.759 72.8994
c98.5703 0 164.07 67.3994 164.07 169.76v21.4404h-6c-22.4297 -22.4404 -60.0293 -33.3408 -142.229 -41.9707c-79.5703 -8.26953 -108.641 -30.0693 -108.641 -82.5693c0 -44.2305 30.5996 -66.6602 92.7998 -66.6602z" />
    <glyph glyph-name="uni1EAD" unicode="&#x1ead;" horiz-adv-x="611" 
d="M151.13 594.53v16.7305l98 114.3h113l97.6299 -114.3v-16.7305h-96.0596l-55.5703 69.9297h-5.37012l-55.5596 -69.9297h-96.0703zM237.06 -11.999c-122.73 0 -193.102 53.998 -193.102 146.998c0 104 60 154.36 200.37 170.101
c141.93 15.2598 169.5 25.96 169.5 70.7002c0 48.5996 -40.7695 75.5596 -115.43 75.5596c-74.04 0 -115.17 -26.96 -115.17 -85.5596h-111.27c0 112.03 86.3701 175.66 225.44 175.66c139.06 0 225.43 -65.2598 225.43 -169.029v-263.43
c0 -21.9004 7.62988 -29.54 29.5303 -29.54h24.6396v-77.7998s-20.7695 -9.66016 -61.5693 -9.66016c-63.0996 0 -95.6699 28.5303 -95.6699 82.6602v2h-4.73047c-31.4297 -56.2305 -95.9697 -88.6602 -177.97 -88.6602zM248.759 72.8994
c98.5703 0 164.07 67.3994 164.07 169.76v21.4404h-6c-22.4297 -22.4404 -60.0293 -33.3408 -142.229 -41.9707c-79.5703 -8.26953 -108.641 -30.0693 -108.641 -82.5693c0 -44.2305 30.5996 -66.6602 92.7998 -66.6602zM228.398 -174.172v115.93h110v-115.93h-110z" />
    <glyph glyph-name="uni0201" unicode="&#x201;" horiz-adv-x="611" 
d="M176.1 584l-120.24 149.26v16.7402h106.44l95 -149.27v-16.7305h-81.2002zM352.659 584l-94.999 149.26v16.7402h99.7695l75.4297 -149.27v-16.7305h-80.2002zM237.061 -12c-122.73 0 -193.102 53.998 -193.102 146.998c0 104 60 154.36 200.37 170.101
c141.93 15.2598 169.5 25.96 169.5 70.7002c0 48.5996 -40.7695 75.5596 -115.43 75.5596c-74.04 0 -115.17 -26.96 -115.17 -85.5596h-111.27c0 112.03 86.3701 175.66 225.44 175.66c139.06 0 225.43 -65.2598 225.43 -169.029v-263.43
c0 -21.9004 7.62988 -29.54 29.5303 -29.54h24.6396v-77.7998s-20.7695 -9.66016 -61.5693 -9.66016c-63.0996 0 -95.6699 28.5303 -95.6699 82.6602v2h-4.73047c-31.4297 -56.2305 -95.9697 -88.6602 -177.97 -88.6602zM248.76 72.8984
c98.5703 0 164.07 67.3994 164.07 169.76v21.4404h-6c-22.4297 -22.4404 -60.0293 -33.3408 -142.229 -41.9707c-79.5703 -8.26953 -108.641 -30.0693 -108.641 -82.5693c0 -44.2305 30.5996 -66.6602 92.7998 -66.6602z" />
    <glyph glyph-name="adieresis" unicode="&#xe4;" horiz-adv-x="611" 
d="M147.93 634.8v115.2h107.27v-115.2h-107.27zM355.06 634.8v115.2h107.27v-115.2h-107.27zM237.06 -12c-122.73 0 -193.102 53.998 -193.102 146.998c0 104 60 154.36 200.37 170.101c141.93 15.2598 169.5 25.96 169.5 70.7002
c0 48.5996 -40.7695 75.5596 -115.43 75.5596c-74.04 0 -115.17 -26.96 -115.17 -85.5596h-111.27c0 112.03 86.3701 175.66 225.44 175.66c139.06 0 225.43 -65.2598 225.43 -169.029v-263.43c0 -21.9004 7.62988 -29.54 29.5303 -29.54h24.6396v-77.7998
s-20.7695 -9.66016 -61.5693 -9.66016c-63.0996 0 -95.6699 28.5303 -95.6699 82.6602v2h-4.73047c-31.4297 -56.2305 -95.9697 -88.6602 -177.97 -88.6602zM248.759 72.8984c98.5703 0 164.07 67.3994 164.07 169.76v21.4404h-6
c-22.4297 -22.4404 -60.0293 -33.3408 -142.229 -41.9707c-79.5703 -8.26953 -108.641 -30.0693 -108.641 -82.5693c0 -44.2305 30.5996 -66.6602 92.7998 -66.6602z" />
    <glyph glyph-name="uni1EA1" unicode="&#x1ea1;" horiz-adv-x="611" 
d="M237.06 -12c-122.73 0 -193.102 53.998 -193.102 146.998c0 104 60 154.36 200.37 170.101c141.93 15.2598 169.5 25.96 169.5 70.7002c0 48.5996 -40.7695 75.5596 -115.43 75.5596c-74.04 0 -115.17 -26.96 -115.17 -85.5596h-111.27
c0 112.03 86.3701 175.66 225.44 175.66c139.06 0 225.43 -65.2598 225.43 -169.029v-263.43c0 -21.9004 7.62988 -29.54 29.5303 -29.54h24.6396v-77.7998s-20.7695 -9.66016 -61.5693 -9.66016c-63.0996 0 -95.6699 28.5303 -95.6699 82.6602v2h-4.73047
c-31.4297 -56.2305 -95.9697 -88.6602 -177.97 -88.6602zM248.759 72.8984c98.5703 0 164.07 67.3994 164.07 169.76v21.4404h-6c-22.4297 -22.4404 -60.0293 -33.3408 -142.229 -41.9707c-79.5703 -8.26953 -108.641 -30.0693 -108.641 -82.5693
c0 -44.2305 30.5996 -66.6602 92.7998 -66.6602zM228.398 -174.173v115.93h110v-115.93h-110z" />
    <glyph glyph-name="agrave" unicode="&#xe0;" horiz-adv-x="611" 
d="M280.46 584l-120.229 149.26v16.7402h123.17l77.96 -149.27v-16.7305h-80.9004zM237.061 -12c-122.73 0 -193.102 53.998 -193.102 146.998c0 104 60 154.36 200.37 170.101c141.93 15.2598 169.5 25.96 169.5 70.7002c0 48.5996 -40.7695 75.5596 -115.43 75.5596
c-74.04 0 -115.17 -26.96 -115.17 -85.5596h-111.27c0 112.03 86.3701 175.66 225.44 175.66c139.06 0 225.43 -65.2598 225.43 -169.029v-263.43c0 -21.9004 7.62988 -29.54 29.5303 -29.54h24.6396v-77.7998s-20.7695 -9.66016 -61.5693 -9.66016
c-63.0996 0 -95.6699 28.5303 -95.6699 82.6602v2h-4.73047c-31.4297 -56.2305 -95.9697 -88.6602 -177.97 -88.6602zM248.76 72.8984c98.5703 0 164.07 67.3994 164.07 169.76v21.4404h-6c-22.4297 -22.4404 -60.0293 -33.3408 -142.229 -41.9707
c-79.5703 -8.26953 -108.641 -30.0693 -108.641 -82.5693c0 -44.2305 30.5996 -66.6602 92.7998 -66.6602z" />
    <glyph glyph-name="amacron" unicode="&#x101;" horiz-adv-x="611" 
d="M146.53 626.6v80.7998h319.2v-80.7998h-319.2zM237.061 -12.001c-122.73 0 -193.102 53.998 -193.102 146.998c0 104 60 154.36 200.37 170.101c141.93 15.2598 169.5 25.96 169.5 70.7002c0 48.5996 -40.7695 75.5596 -115.43 75.5596
c-74.04 0 -115.17 -26.96 -115.17 -85.5596h-111.27c0 112.03 86.3701 175.66 225.44 175.66c139.06 0 225.43 -65.2598 225.43 -169.029v-263.43c0 -21.9004 7.62988 -29.54 29.5303 -29.54h24.6396v-77.7998s-20.7695 -9.66016 -61.5693 -9.66016
c-63.0996 0 -95.6699 28.5303 -95.6699 82.6602v2h-4.73047c-31.4297 -56.2305 -95.9697 -88.6602 -177.97 -88.6602zM248.76 72.8975c98.5703 0 164.07 67.3994 164.07 169.76v21.4404h-6c-22.4297 -22.4404 -60.0293 -33.3408 -142.229 -41.9707
c-79.5703 -8.26953 -108.641 -30.0693 -108.641 -82.5693c0 -44.2305 30.5996 -66.6602 92.7998 -66.6602z" />
    <glyph glyph-name="aogonek" unicode="&#x105;" horiz-adv-x="611" 
d="M544.8 -6.17969c-24.8701 -10.3604 -68.2002 -34.0898 -68.2002 -73.6895c0 -23.1699 13.5303 -35.0703 40.3301 -35.0703c17.2695 0 28.1699 7.63965 28.1699 7.63965h16.7305v-77.4404s-22.8301 -8.73047 -64.4004 -8.73047
c-72.8301 0 -113.93 33.6299 -113.93 91.2695c0 52.4697 38.4697 84.6299 78.4395 103.89c-27.9199 12.5498 -42.1797 37.1602 -42.1797 72.9697v2h-4.73047c-31.4297 -56.2305 -95.9697 -88.6602 -177.97 -88.6602c-122.73 0 -193.101 54 -193.101 147
c0 104 60 154.36 200.37 170.101c141.93 15.2598 169.5 25.96 169.5 70.7002c0 48.5996 -40.7695 75.5596 -115.43 75.5596c-74.04 0 -115.17 -26.96 -115.17 -85.5596h-111.27c0 112.03 86.3701 175.66 225.44 175.66c139.06 0 225.43 -65.2598 225.43 -169.029v-263.43
c0 -21.9004 7.62988 -29.54 29.5303 -29.54h24.6396v-77.7998s-10.8301 -5.03027 -32.2002 -7.83984zM412.83 242.661v21.4395h-6c-22.4297 -22.4404 -60.0293 -33.3408 -142.229 -41.9707c-79.5703 -8.26953 -108.641 -30.0693 -108.641 -82.5693
c0 -44.2305 30.5996 -66.6602 92.7998 -66.6602c98.5703 0 164.07 67.4004 164.07 169.761z" />
    <glyph glyph-name="aring" unicode="&#xe5;" horiz-adv-x="611" 
d="M305.13 580.9c-69.4004 0 -118.972 49.5596 -118.972 113.5c0 63.9297 50.5703 113.5 118.971 113.5c71.0303 0 119.601 -49.5703 119.601 -113.5c0 -63.2998 -50.9297 -113.5 -119.6 -113.5zM305.129 652.431c24.4297 0 42.5996 17.5303 42.5996 41.9707
c0 24.4297 -17.1699 41.96 -42.5996 41.96c-23.7998 0 -41.3301 -17.5303 -41.3301 -41.96c0 -24.4404 16.5303 -41.9707 41.3301 -41.9707zM237.059 -11.999c-122.73 0 -193.102 53.998 -193.102 146.998c0 104 60 154.36 200.37 170.101
c141.93 15.2598 169.5 25.96 169.5 70.7002c0 48.5996 -40.7695 75.5596 -115.43 75.5596c-74.04 0 -115.17 -26.96 -115.17 -85.5596h-111.27c0 112.03 86.3701 175.66 225.44 175.66c139.06 0 225.43 -65.2598 225.43 -169.029v-263.43
c0 -21.9004 7.62988 -29.54 29.5303 -29.54h24.6396v-77.7998s-20.7695 -9.66016 -61.5693 -9.66016c-63.0996 0 -95.6699 28.5303 -95.6699 82.6602v2h-4.73047c-31.4297 -56.2305 -95.9697 -88.6602 -177.97 -88.6602zM248.758 72.8994
c98.5703 0 164.07 67.3994 164.07 169.76v21.4404h-6c-22.4297 -22.4404 -60.0293 -33.3408 -142.229 -41.9707c-79.5703 -8.26953 -108.641 -30.0693 -108.641 -82.5693c0 -44.2305 30.5996 -66.6602 92.7998 -66.6602z" />
    <glyph glyph-name="atilde" unicode="&#xe3;" horiz-adv-x="611" 
d="M367.33 593.97c-57.6299 0 -83.3193 40.8906 -121.419 40.8906c-20.6299 0 -32.2598 -12.6299 -34.2598 -36.8994h-69.1299v16.7305c8 65.0303 44.4697 102.601 99.3994 102.601c58.2695 0 85.2998 -40.5303 122.399 -40.5303c20.2695 0 32.2695 12.2695 34.6396 36.5391
h68.7695v-16.7305c-7.62988 -65.0303 -44.0996 -102.601 -100.399 -102.601zM237.041 -12.0098c-122.73 0 -193.112 54.0078 -193.112 147.008c0 104 60 154.37 200.37 170.101c141.93 15.2695 169.5 25.9697 169.5 70.7002c0 48.5996 -40.7695 75.5693 -115.439 75.5693
c-74.0303 0 -115.16 -26.9697 -115.16 -85.5693h-111.27c0 112.03 86.3701 175.66 225.44 175.66s225.44 -65.2695 225.44 -169.039v-263.43c0 -21.9004 7.62988 -29.5303 29.5303 -29.5303h24.6299v-77.7998s-20.7695 -9.66992 -61.5693 -9.66992
c-63.0996 0 -95.6699 28.5303 -95.6699 82.6602v2h-4.73047c-31.4297 -56.2305 -95.96 -88.6602 -177.96 -88.6602zM248.729 72.8984c98.5703 0 164.07 67.3896 164.07 169.76v21.4297h-6c-22.4297 -22.4297 -60.0293 -33.3301 -142.229 -41.96
c-79.5703 -8.26953 -108.641 -30.0693 -108.641 -82.5693c0 -44.2305 30.5996 -66.6602 92.7998 -66.6602z" />
    <glyph glyph-name="ae" unicode="&#xe6;" horiz-adv-x="955" 
d="M908.43 266.63l-0.00292969 -36.5986h-385.42c8.25977 -101.13 54.75 -151.57 141.72 -151.57c64.2305 0 109.07 32.9697 120.07 85.2002h108v-17.46c-24.6396 -95.4697 -113.199 -158.2 -225.339 -158.2c-95.5498 0 -162.64 31.9102 -201.529 96.29
c-41.6699 -62.4502 -114.939 -96.29 -214.199 -96.29c-132.57 0 -208.03 57.7305 -208.03 157.83c0 108.3 79.0996 167.2 225 167.2h144.86v62.7695c0 48.5996 -40.7598 75.5596 -115.43 75.5596c-75.1299 0 -115.17 -27.3301 -115.17 -85.5605h-111.26
c0 112.03 86.3604 175.66 225.431 175.66c91.8896 0 153.399 -27.0098 184.539 -81.1396c41.21 52.7998 104.08 81.1396 185.16 81.1396c147.13 0 241.6 -110 241.6 -274.83zM524.377 313.031h272.681c-3.73047 87.6699 -51.1309 138.6 -133.601 138.6
c-81.8896 0 -127.87 -46.3896 -139.08 -138.6zM413.197 225.231v4.7998h-144.5c-76.7695 0 -113 -26.3301 -113 -81.8301c0 -49.8701 33.5996 -75.2998 100.8 -75.2998c101.9 0 156.7 55 156.7 152.33z" />
    <glyph glyph-name="aeacute" unicode="&#x1fd;" horiz-adv-x="955" 
d="M621.46 733.26l-120.229 -149.26h-80.9004v16.7305l77.9697 149.27h123.16v-16.7402zM908.431 266.63l-0.00292969 -36.5986h-385.42c8.25977 -101.13 54.75 -151.57 141.72 -151.57c64.2305 0 109.07 32.9697 120.07 85.2002h108v-17.46
c-24.6396 -95.4697 -113.199 -158.2 -225.339 -158.2c-95.5498 0 -162.64 31.9102 -201.529 96.29c-41.6699 -62.4502 -114.939 -96.29 -214.199 -96.29c-132.57 0 -208.03 57.7305 -208.03 157.83c0 108.3 79.0996 167.2 225 167.2h144.86v62.7695
c0 48.5996 -40.7598 75.5596 -115.43 75.5596c-75.1299 0 -115.17 -27.3301 -115.17 -85.5605h-111.26c0 112.03 86.3604 175.66 225.431 175.66c91.8896 0 153.399 -27.0098 184.539 -81.1396c41.21 52.7998 104.08 81.1396 185.16 81.1396
c147.13 0 241.6 -110 241.6 -274.83zM524.378 313.031h272.681c-3.73047 87.6699 -51.1309 138.6 -133.601 138.6c-81.8896 0 -127.87 -46.3896 -139.08 -138.6zM413.198 225.231v4.7998h-144.5c-76.7695 0 -113 -26.3301 -113 -81.8301
c0 -49.8701 33.5996 -75.2998 100.8 -75.2998c101.9 0 156.7 55 156.7 152.33z" />
    <glyph glyph-name="b" unicode="b" horiz-adv-x="661" 
d="M359.1 -14c-77.54 0 -139.34 35.2607 -170.87 97.0605h-4.73047v-83.0596h-100.9v750h110v-220.54l-3.37012 -75.2305h4.73047c32.54 56.7002 94.0703 89.2305 168.5 89.2305c151.9 0 249.07 -109.73 249.07 -275.73c0 -170.73 -103 -281.73 -252.43 -281.73z
M342.93 82.1309c99.4697 0 156.6 65.3994 156.6 185.6c0 112.1 -56.8701 179.6 -155.43 179.6c-93.5703 0 -156.24 -72.7695 -156.24 -179.6c0 -112.83 60.8701 -185.6 155.07 -185.6z" />
    <glyph glyph-name="c" unicode="c" horiz-adv-x="605" 
d="M312 -12c-160.3 0 -264.401 106.101 -264.401 273.73c0 166.83 106.46 279.73 268.03 279.73c130.23 0 216.9 -66.2998 240.801 -183.33v-16.7305h-108c-10.9004 66.2305 -59.5 104.66 -132.8 104.66c-100.63 0 -157.03 -67.4004 -157.03 -184.33
c0 -113.1 56.5 -178.33 154.13 -178.33c77.5703 0 128.431 41.4297 139.7 114.66h108v-16.7305c-24 -124.13 -113.93 -193.33 -248.43 -193.33z" />
    <glyph glyph-name="cacute" unicode="&#x107;" horiz-adv-x="605" 
d="M259.4 584l0.000976562 16.7305l77.96 149.27h123.17v-16.7402l-120.23 -149.26h-80.9004zM312.001 -12c-160.3 0 -264.401 106.101 -264.401 273.73c0 166.83 106.46 279.73 268.03 279.73c130.23 0 216.9 -66.2998 240.801 -183.33v-16.7305h-108
c-10.9004 66.2305 -59.5 104.66 -132.8 104.66c-100.63 0 -157.03 -67.4004 -157.03 -184.33c0 -113.1 56.5 -178.33 154.13 -178.33c77.5703 0 128.431 41.4297 139.7 114.66h108v-16.7305c-24 -124.13 -113.93 -193.33 -248.43 -193.33z" />
    <glyph glyph-name="ccaron" unicode="&#x10d;" horiz-adv-x="605" 
d="M259.63 594.53l-98 114.3v16.7305h96.0703l55.5596 -69.9297h5.37012l55.5703 69.9297h96.0596v-16.7305l-97.6299 -114.3h-113zM312 -12c-160.3 0 -264.401 106.101 -264.401 273.73c0 166.83 106.46 279.73 268.03 279.73c130.23 0 216.9 -66.2998 240.801 -183.33
v-16.7305h-108c-10.9004 66.2305 -59.5 104.66 -132.8 104.66c-100.63 0 -157.03 -67.4004 -157.03 -184.33c0 -113.1 56.5 -178.33 154.13 -178.33c77.5703 0 128.431 41.4297 139.7 114.66h108v-16.7305c-24 -124.13 -113.93 -193.33 -248.43 -193.33z" />
    <glyph glyph-name="ccedilla" unicode="&#xe7;" horiz-adv-x="605" 
d="M452.43 198.06l107.999 -0.000976562v-16.7305c-22.2305 -114.96 -101.011 -182.81 -219.371 -192.21l-8.75977 -26.3896h1.62988c49.6699 0 80.4004 -30 80.4004 -77.2002c0 -57.0996 -41.7305 -88.7295 -117.87 -88.7295c-39.9297 0 -64.6602 6 -64.6602 6v70.7002
h49.9004c23.5303 0 33.7998 8.25977 33.7998 26.4297s-10.2695 26.0703 -33.7998 26.0703h-23.54v16.7305l15.96 47.3398c-138.63 15.5498 -226.52 117.63 -226.52 271.66c0 166.83 106.46 279.73 268.03 279.73c130.23 0 216.9 -66.2998 240.801 -183.33v-16.7305h-108
c-10.9004 66.2305 -59.5 104.66 -132.8 104.66c-100.63 0 -157.03 -67.4004 -157.03 -184.33c0 -113.1 56.5 -178.33 154.13 -178.33c77.5703 0 128.431 41.4297 139.7 114.66z" />
    <glyph glyph-name="ccircumflex" unicode="&#x109;" horiz-adv-x="605" 
d="M161.63 594.53v16.7305l98 114.3h113l97.6299 -114.3v-16.7305h-96.0596l-55.5703 69.9297h-5.37012l-55.5596 -69.9297h-96.0703zM312 -11.999c-160.3 0 -264.401 106.101 -264.401 273.73c0 166.83 106.46 279.73 268.03 279.73
c130.23 0 216.9 -66.2998 240.801 -183.33v-16.7305h-108c-10.9004 66.2305 -59.5 104.66 -132.8 104.66c-100.63 0 -157.03 -67.4004 -157.03 -184.33c0 -113.1 56.5 -178.33 154.13 -178.33c77.5703 0 128.431 41.4297 139.7 114.66h108v-16.7305
c-24 -124.13 -113.93 -193.33 -248.43 -193.33z" />
    <glyph glyph-name="cdotaccent" unicode="&#x10b;" horiz-adv-x="605" 
d="M260.63 634.06v115.94h110v-115.94h-110zM312 -12c-160.3 0 -264.401 106.101 -264.401 273.73c0 166.83 106.46 279.73 268.03 279.73c130.23 0 216.9 -66.2998 240.801 -183.33v-16.7305h-108c-10.9004 66.2305 -59.5 104.66 -132.8 104.66
c-100.63 0 -157.03 -67.4004 -157.03 -184.33c0 -113.1 56.5 -178.33 154.13 -178.33c77.5703 0 128.431 41.4297 139.7 114.66h108v-16.7305c-24 -124.13 -113.93 -193.33 -248.43 -193.33z" />
    <glyph glyph-name="d" unicode="d" horiz-adv-x="661" 
d="M297.03 -14c-150.53 0 -248.069 109.101 -248.069 281.73c0 164.63 100.54 275.729 252.07 275.729c76.1699 0 136.33 -32.5303 165.5 -89.2305h4.73047l-3.36035 75.2305v220.54h110v-750h-100.9v83.0596h-4.74023
c-34.2598 -61.7998 -97.7002 -97.0596 -175.23 -97.0596zM315.031 82.1309c94.8301 0 157.6 72.7695 157.6 185.6c0 106.83 -61.1299 179.6 -154.33 179.6c-100.2 0 -157.34 -65.1299 -157.34 -179.6c0 -118.47 56.2402 -185.6 154.07 -185.6z" />
    <glyph glyph-name="eth" unicode="&#xf0;" horiz-adv-x="619" 
d="M365.14 672.37c128.96 -88.6904 200.119 -232.132 200.119 -414.441c0 -163.83 -102.66 -269.93 -261.33 -269.93c-157.4 0 -260.33 102 -260.33 260.1c0 153.73 99.2998 257.101 253.859 257.101c47.7197 0 92.4893 -14.5996 131.249 -37.96
c-29.5098 59.1104 -73.7598 105.86 -132.8 140.221l-86.1797 -80.7998l-46.2002 47.7402l67.7695 63.5303c-34.7998 13.1299 -73.3594 23.0996 -115.699 29.9297v94.1396h16.7305c64.1904 -10.71 122.091 -29.1201 173.121 -54.5498l85.5498 80.21l46.2002 -47.7305z
M303.929 83.3994c96.0996 0 149.33 58.8604 149.33 164.7c0 97.2002 -60.1299 163.061 -150.33 163.061c-95.0996 0 -147.33 -60.8604 -147.33 -163.061c0 -105.84 53.8604 -164.7 148.33 -164.7z" />
    <glyph glyph-name="dcaron" unicode="&#x10f;" horiz-adv-x="804" 
d="M467.9 529.46l0.000976562 220.541h110v-750h-100.9v83.0596h-4.74023c-34.2598 -61.7998 -97.7002 -97.0596 -175.23 -97.0596c-150.53 0 -248.07 109.1 -248.07 281.729c0 164.63 100.54 275.729 252.07 275.729c76.1699 0 136.33 -32.5303 165.5 -89.2305h4.73047z
M665.501 750.001l120.53 -0.000976562v-79.0996c0 -129.6 -103.8 -157.3 -103.8 -157.3h-16.7305v62.7305s44.4004 7.59961 53.3301 57.3301h-53.3301v116.34zM315.031 82.1299c94.8301 0 157.6 72.7695 157.6 185.6c0 106.83 -61.1299 179.6 -154.33 179.6
c-100.2 0 -157.34 -65.1299 -157.34 -179.6c0 -118.47 56.2402 -185.6 154.07 -185.6z" />
    <glyph glyph-name="dcroat" unicode="&#x111;" horiz-adv-x="659" 
d="M651.23 667.5l0.000976562 -77.5391h-74.3301v-589.96h-100.9v83.0596h-4.74023c-34.2598 -61.7998 -97.7002 -97.0596 -175.23 -97.0596c-150.53 0 -248.07 109.1 -248.07 281.729c0 164.63 100.54 275.729 252.07 275.729c76.1699 0 136.33 -32.5303 165.5 -89.2305
h4.73047l-3.36035 75.2305v60.5h-154.14v77.54h154.14v82.5h110v-82.5h74.3301zM314.031 82.1309c94.8301 0 157.6 72.7695 157.6 185.6c0 106.83 -61.1299 179.6 -154.33 179.6c-100.2 0 -157.34 -65.1299 -157.34 -179.6c0 -118.47 56.2402 -185.6 154.07 -185.6z" />
    <glyph glyph-name="uni1E0D" unicode="&#x1e0d;" horiz-adv-x="661" 
d="M297.03 -14c-150.53 0 -248.069 109.101 -248.069 281.73c0 164.63 100.54 275.729 252.07 275.729c76.1699 0 136.33 -32.5303 165.5 -89.2305h4.73047l-3.36035 75.2305v220.54h110v-750h-100.9v83.0596h-4.74023
c-34.2598 -61.7998 -97.7002 -97.0596 -175.23 -97.0596zM315.031 82.1309c94.8301 0 157.6 72.7695 157.6 185.6c0 106.83 -61.1299 179.6 -154.33 179.6c-100.2 0 -157.34 -65.1299 -157.34 -179.6c0 -118.47 56.2402 -185.6 154.07 -185.6zM258.932 -174.169v115.93h110
v-115.93h-110z" />
    <glyph glyph-name="uni01F3" unicode="&#x1f3;" horiz-adv-x="1200" 
d="M467.9 529.46l0.000976562 220.541h110v-750h-100.9v83.0596h-4.74023c-34.2598 -61.7998 -97.7002 -97.0596 -175.23 -97.0596c-150.53 0 -248.07 109.1 -248.07 281.729c0 164.63 100.54 275.729 252.07 275.729c76.1699 0 136.33 -32.5303 165.5 -89.2305h4.73047z
M842.651 97.6006h315.609v-97.5996h-469.13v81.7598l313.61 350.1h-300.88v97.5996h454.4v-81.7598zM315.03 82.1309c94.8301 0 157.6 72.7695 157.6 185.6c0 106.83 -61.1299 179.6 -154.33 179.6c-100.2 0 -157.34 -65.1299 -157.34 -179.6
c0 -118.47 56.2402 -185.6 154.07 -185.6z" />
    <glyph glyph-name="uni01C6" unicode="&#x1c6;" horiz-adv-x="1200" 
d="M467.9 529.46l0.000976562 220.541h110v-750h-100.9v83.0596h-4.74023c-34.2598 -61.7998 -97.7002 -97.0596 -175.23 -97.0596c-150.53 0 -248.07 109.1 -248.07 281.729c0 164.63 100.54 275.729 252.07 275.729c76.1699 0 136.33 -32.5303 165.5 -89.2305h4.73047z
M985.562 594.531h-113.002l-98 114.3v16.7305h96.0703l55.5703 -69.9297h5.36035l55.5703 69.9297h96.0703v-16.7305zM842.649 97.6016h315.609v-97.5996h-469.13v81.7598l313.61 350.1h-300.88v97.5996h454.4v-81.7598zM315.028 82.1318
c94.8301 0 157.6 72.7695 157.6 185.6c0 106.83 -61.1299 179.6 -154.33 179.6c-100.2 0 -157.34 -65.1299 -157.34 -179.6c0 -118.47 56.2402 -185.6 154.07 -185.6z" />
    <glyph glyph-name="e" unicode="e" horiz-adv-x="615" 
d="M569.06 267.73l-0.00195312 -32.2305h-409.14c8.87012 -103.26 61.9102 -157.67 150.74 -157.67c73.7402 0 123.141 31.0703 134.771 85.8301h108v-18.7305c-29.7002 -98 -121.47 -156.93 -242.77 -156.93c-158.76 0 -263.06 110 -263.06 279.73
c0 163.73 104.3 273.73 263.06 273.73c155.57 0 258.4 -110 258.4 -273.73zM163.008 321.96h293.419c-8.09961 82.9004 -61.8691 129.67 -145.77 129.67c-81.5195 0 -132.89 -45.8203 -147.649 -129.67z" />
    <glyph glyph-name="eacute" unicode="&#xe9;" horiz-adv-x="615" 
d="M455.56 733.26l-120.229 -149.26h-80.9004v16.7305l77.9697 149.27h123.16v-16.7402zM569.061 267.73l-0.00195312 -32.2305h-409.14c8.87012 -103.26 61.9102 -157.67 150.74 -157.67c73.7402 0 123.141 31.0703 134.771 85.8301h108v-18.7305
c-29.7002 -98 -121.47 -156.93 -242.77 -156.93c-158.76 0 -263.06 110 -263.06 279.73c0 163.73 104.3 273.73 263.06 273.73c155.57 0 258.4 -110 258.4 -273.73zM163.009 321.96h293.419c-8.09961 82.9004 -61.8691 129.67 -145.77 129.67
c-81.5195 0 -132.89 -45.8203 -147.649 -129.67z" />
    <glyph glyph-name="ebreve" unicode="&#x115;" horiz-adv-x="615" 
d="M311.3 592.53c-74.6699 0 -127.24 37.4697 -144.34 103.029v16.7402h83.6396c6 -29.7002 26.9004 -44.2402 60.7002 -44.2402s54.3301 14.54 60.3301 44.2402h84l-0.370117 -16.7402c-18.46 -65.5596 -71.0303 -103.029 -143.96 -103.029zM569.06 267.73
l-0.00195312 -32.2305h-409.14c8.87012 -103.26 61.9102 -157.67 150.74 -157.67c73.7402 0 123.141 31.0703 134.771 85.8301h108v-18.7305c-29.7002 -98 -121.47 -156.93 -242.77 -156.93c-158.76 0 -263.06 110 -263.06 279.73c0 163.73 104.3 273.73 263.06 273.73
c155.57 0 258.4 -110 258.4 -273.73zM163.008 321.96h293.419c-8.09961 82.9004 -61.8691 129.67 -145.77 129.67c-81.5195 0 -132.89 -45.8203 -147.649 -129.67z" />
    <glyph glyph-name="ecaron" unicode="&#x11b;" horiz-adv-x="615" 
d="M367.66 594.53h-113.002l-98 114.3v16.7305h96.0703l55.5703 -69.9297h5.36035l55.5703 69.9297h96.0703v-16.7305zM569.059 267.73l-0.00195312 -32.2305h-409.14c8.87012 -103.26 61.9102 -157.67 150.74 -157.67c73.7402 0 123.141 31.0703 134.771 85.8301h108
v-18.7305c-29.7002 -98 -121.47 -156.93 -242.77 -156.93c-158.76 0 -263.06 110 -263.06 279.73c0 163.73 104.3 273.73 263.06 273.73c155.57 0 258.4 -110 258.4 -273.73zM163.007 321.96h293.419c-8.09961 82.9004 -61.8691 129.67 -145.77 129.67
c-81.5195 0 -132.89 -45.8203 -147.649 -129.67z" />
    <glyph glyph-name="ecircumflex" unicode="&#xea;" horiz-adv-x="615" 
d="M308.3 664.46l-55.5684 -69.9297h-96.0703v16.7305l98 114.3h113l97.6396 -114.3v-16.7305h-96.0703l-55.5703 69.9297h-5.36035zM569.062 267.73l-0.00195312 -32.2305h-409.14c8.87012 -103.26 61.9102 -157.67 150.74 -157.67
c73.7402 0 123.141 31.0703 134.771 85.8301h108v-18.7305c-29.7002 -98 -121.47 -156.93 -242.77 -156.93c-158.76 0 -263.06 110 -263.06 279.73c0 163.73 104.3 273.73 263.06 273.73c155.57 0 258.4 -110 258.4 -273.73zM163.01 321.96h293.419
c-8.09961 82.9004 -61.8691 129.67 -145.77 129.67c-81.5195 0 -132.89 -45.8203 -147.649 -129.67z" />
    <glyph glyph-name="uni1EC7" unicode="&#x1ec7;" horiz-adv-x="615" 
d="M308.3 664.46l-55.5684 -69.9297h-96.0703v16.7305l98 114.3h113l97.6396 -114.3v-16.7305h-96.0703l-55.5703 69.9297h-5.36035zM569.062 267.73l-0.00195312 -32.2305h-409.14c8.87012 -103.26 61.9102 -157.67 150.74 -157.67
c73.7402 0 123.141 31.0703 134.771 85.8301h108v-18.7305c-29.7002 -98 -121.47 -156.93 -242.77 -156.93c-158.76 0 -263.06 110 -263.06 279.73c0 163.73 104.3 273.73 263.06 273.73c155.57 0 258.4 -110 258.4 -273.73zM163.01 321.96h293.419
c-8.09961 82.9004 -61.8691 129.67 -145.77 129.67c-81.5195 0 -132.89 -45.8203 -147.649 -129.67zM255.659 -174.17v115.93h110v-115.93h-110z" />
    <glyph glyph-name="uni0205" unicode="&#x205;" horiz-adv-x="615" 
d="M262.83 584h-81.1992l-120.23 149.26v16.7402h106.43l95 -149.27v-16.7305zM438.4 584h-80.2002l-95 149.26v16.7402h99.7598l75.4404 -149.27v-16.7305zM569.061 267.73l-0.00195312 -32.2305h-409.14c8.87012 -103.26 61.9102 -157.67 150.74 -157.67
c73.7402 0 123.141 31.0703 134.771 85.8301h108v-18.7305c-29.7002 -98 -121.47 -156.93 -242.77 -156.93c-158.76 0 -263.06 110 -263.06 279.73c0 163.73 104.3 273.73 263.06 273.73c155.57 0 258.4 -110 258.4 -273.73zM163.009 321.96h293.419
c-8.09961 82.9004 -61.8691 129.67 -145.77 129.67c-81.5195 0 -132.89 -45.8203 -147.649 -129.67z" />
    <glyph glyph-name="edieresis" unicode="&#xeb;" horiz-adv-x="615" 
d="M260.73 750v-115.2h-107.27v115.2h107.27zM467.86 750v-115.2h-107.26v115.2h107.26zM569.061 267.729l-0.00195312 -32.2305h-409.14c8.87012 -103.26 61.9102 -157.67 150.74 -157.67c73.7402 0 123.141 31.0703 134.771 85.8301h108v-18.7305
c-29.7002 -98 -121.47 -156.93 -242.77 -156.93c-158.76 0 -263.06 110 -263.06 279.73c0 163.73 104.3 273.73 263.06 273.73c155.57 0 258.4 -110 258.4 -273.73zM163.009 321.959h293.419c-8.09961 82.9004 -61.8691 129.67 -145.77 129.67
c-81.5195 0 -132.89 -45.8203 -147.649 -129.67z" />
    <glyph glyph-name="edotaccent" unicode="&#x117;" horiz-adv-x="615" 
d="M365.66 750v-115.94h-110v115.94h110zM569.061 267.729l-0.00195312 -32.2305h-409.14c8.87012 -103.26 61.9102 -157.67 150.74 -157.67c73.7402 0 123.141 31.0703 134.771 85.8301h108v-18.7305c-29.7002 -98 -121.47 -156.93 -242.77 -156.93
c-158.76 0 -263.06 110 -263.06 279.73c0 163.73 104.3 273.73 263.06 273.73c155.57 0 258.4 -110 258.4 -273.73zM163.009 321.959h293.419c-8.09961 82.9004 -61.8691 129.67 -145.77 129.67c-81.5195 0 -132.89 -45.8203 -147.649 -129.67z" />
    <glyph glyph-name="uni1EB9" unicode="&#x1eb9;" horiz-adv-x="615" 
d="M569.06 267.73l-0.00195312 -32.2305h-409.14c8.87012 -103.26 61.9102 -157.67 150.74 -157.67c73.7402 0 123.141 31.0703 134.771 85.8301h108v-18.7305c-29.7002 -98 -121.47 -156.93 -242.77 -156.93c-158.76 0 -263.06 110 -263.06 279.73
c0 163.73 104.3 273.73 263.06 273.73c155.57 0 258.4 -110 258.4 -273.73zM163.008 321.96h293.419c-8.09961 82.9004 -61.8691 129.67 -145.77 129.67c-81.5195 0 -132.89 -45.8203 -147.649 -129.67zM255.657 -174.17v115.93h110v-115.93h-110z" />
    <glyph glyph-name="egrave" unicode="&#xe8;" horiz-adv-x="615" 
d="M366.9 584h-80.8994l-120.24 149.26v16.7402h123.17l77.9697 -149.27v-16.7305zM569.061 267.73l-0.00195312 -32.2305h-409.14c8.87012 -103.26 61.9102 -157.67 150.74 -157.67c73.7402 0 123.141 31.0703 134.771 85.8301h108v-18.7305
c-29.7002 -98 -121.47 -156.93 -242.77 -156.93c-158.76 0 -263.06 110 -263.06 279.73c0 163.73 104.3 273.73 263.06 273.73c155.57 0 258.4 -110 258.4 -273.73zM163.009 321.96h293.419c-8.09961 82.9004 -61.8691 129.67 -145.77 129.67
c-81.5195 0 -132.89 -45.8203 -147.649 -129.67z" />
    <glyph glyph-name="emacron" unicode="&#x113;" horiz-adv-x="615" 
d="M471.26 707.4v-80.7998h-319.2v80.7998h319.2zM569.06 267.73l-0.00195312 -32.2305h-409.14c8.87012 -103.26 61.9102 -157.67 150.74 -157.67c73.7402 0 123.141 31.0703 134.771 85.8301h108v-18.7305c-29.7002 -98 -121.47 -156.93 -242.77 -156.93
c-158.76 0 -263.06 110 -263.06 279.73c0 163.73 104.3 273.73 263.06 273.73c155.57 0 258.4 -110 258.4 -273.73zM163.008 321.96h293.419c-8.09961 82.9004 -61.8691 129.67 -145.77 129.67c-81.5195 0 -132.89 -45.8203 -147.649 -129.67z" />
    <glyph glyph-name="eogonek" unicode="&#x119;" horiz-adv-x="615" 
d="M569.06 267.73l-0.000976562 -32.2285h-409.14c8.87012 -103.26 61.9102 -157.67 150.74 -157.67c73.7402 0 123.141 31.0703 134.771 85.8301h108v-18.7305c-22.75 -75.0596 -81.9102 -127.21 -162.87 -147.5c-21.9404 -12.9902 -44.5605 -33.3203 -44.5605 -61.9307
c0 -23.1699 13.5303 -35.0703 40.3301 -35.0703c17.2695 0 28.1699 7.62988 28.1699 7.62988h16.7305v-77.4297s-22.8301 -8.73047 -64.4004 -8.73047c-72.8301 0 -113.93 33.6299 -113.93 91.2598c0 32.3398 14.5996 56.96 35.1699 75.5996
c-146 9.99023 -240.47 117.431 -240.47 278.971c0 163.73 104.3 273.73 263.06 273.73c155.57 0 258.4 -110 258.4 -273.73zM163.009 321.962h293.419c-8.09961 82.9004 -61.8691 129.67 -145.77 129.67c-81.5195 0 -132.89 -45.8203 -147.649 -129.67z" />
    <glyph glyph-name="uni1EBD" unicode="&#x1ebd;" horiz-adv-x="615" 
d="M372.87 593.97c-57.6299 0 -83.3193 40.8906 -121.419 40.8906c-20.6299 0 -32.2598 -12.6299 -34.2598 -36.8994h-69.1299v16.7305c8 65.0303 44.4697 102.601 99.3994 102.601c58.2695 0 85.2998 -40.5303 122.399 -40.5303c20.2695 0 32.2695 12.2695 34.6396 36.5391
h68.7695v-16.7305c-7.62988 -65.0303 -44.0996 -102.601 -100.399 -102.601zM569.051 267.729l-0.00195312 -32.2402h-409.14c8.87012 -103.26 61.9102 -157.67 150.75 -157.67c73.7305 0 123.131 31.0703 134.761 85.8398h108v-18.7305
c-29.7002 -98 -121.47 -156.93 -242.77 -156.93c-158.77 0 -263.069 110 -263.069 279.73c0 163.73 104.3 273.73 263.069 273.73c155.57 0 258.4 -110 258.4 -273.73zM162.989 321.959h293.429c-8.09961 82.9004 -61.8691 129.67 -145.77 129.67
c-81.5195 0 -132.899 -45.8203 -147.659 -129.67z" />
    <glyph glyph-name="uni0259" unicode="&#x259;" horiz-adv-x="615" 
d="M46.3301 261.73l0.00195312 32.2305h409.14c-8.86035 103.26 -61.9004 157.67 -150.74 157.67c-73.7305 0 -123.131 -31.0703 -134.771 -85.8301h-108v18.7305c29.7002 98 121.47 156.93 242.77 156.93c158.77 0 263.069 -110 263.069 -279.73
c0 -163.73 -104.3 -273.73 -263.069 -273.73c-155.57 0 -258.4 110 -258.4 273.73zM452.392 207.501h-293.429c8.09961 -82.9004 61.8691 -129.67 145.77 -129.67c81.5195 0 132.899 45.8203 147.659 129.67z" />
    <glyph glyph-name="f" unicode="f" horiz-adv-x="405" 
d="M313.06 668.66c-71.0303 0 -89.1992 -18.1602 -89.1992 -89.2002v-50h157.2v-95.5996h-157.2v-433.86h-110v433.86h-90.0596v95.5996h90.0596v48.5703c0 128.93 57.7695 186.699 186.699 186.699c51.4004 0 80.5 -9.09961 80.5 -9.09961v-86.9697h-68z" />
    <glyph glyph-name="g" unicode="g" horiz-adv-x="660" 
d="M326.2 -239.54c-151.4 0 -251.34 79.3711 -251.34 200.371h110.9c0 -70.2998 51.2402 -109.17 140.44 -109.17c94.46 0 140.7 40.7002 140.7 122.84v35.5l3.36035 75.2305h-4.73047c-28.7305 -56.7002 -91.2705 -89.2305 -170.23 -89.2305
c-151.7 0 -247.34 108.36 -247.34 276.73c0 161.63 101.8 270.729 253.97 270.729c81.7998 0 137.069 -31.9004 169.329 -97.0605h4.74023v83.0596h100.9v-544.7c0 -142.2 -91.5703 -224.3 -250.7 -224.3zM313.562 92.1309c94.2002 0 157.7 70.7705 157.7 180.601
c0 103.83 -61.1299 174.6 -154.33 174.6c-99.4697 0 -156.97 -63.2305 -156.97 -174.601c0 -116.1 55.7695 -180.6 153.6 -180.6z" />
    <glyph glyph-name="uni01F5" unicode="&#x1f5;" horiz-adv-x="660" 
d="M255.96 584l0.000976562 16.7305l77.9697 149.27h123.17v-16.7402l-120.24 -149.26h-80.9004zM326.201 -239.539c-151.4 0 -251.34 79.3711 -251.34 200.371h110.9c0 -70.2998 51.2402 -109.17 140.44 -109.17c94.46 0 140.7 40.7002 140.7 122.84v35.5l3.36035 75.2305
h-4.73047c-28.7305 -56.7002 -91.2705 -89.2305 -170.23 -89.2305c-151.7 0 -247.34 108.36 -247.34 276.73c0 161.63 101.8 270.729 253.97 270.729c81.7998 0 137.069 -31.9004 169.329 -97.0605h4.74023v83.0596h100.9v-544.7c0 -142.2 -91.5703 -224.3 -250.7 -224.3z
M313.562 92.1318c94.2002 0 157.7 70.7705 157.7 180.601c0 103.83 -61.1299 174.6 -154.33 174.6c-99.4697 0 -156.97 -63.2305 -156.97 -174.601c0 -116.1 55.7695 -180.6 153.6 -180.6z" />
    <glyph glyph-name="gbreve" unicode="&#x11f;" horiz-adv-x="660" 
d="M312.83 592.53c-74.6699 0 -127.23 37.4697 -144.33 103.029v16.7402h83.6299c6 -29.7002 26.9004 -44.2402 60.7002 -44.2402s54.3301 14.54 60.3301 44.2402h84l-0.360352 -16.7402c-18.4697 -65.5596 -71.04 -103.029 -143.97 -103.029zM326.199 -239.54
c-151.4 0 -251.34 79.3711 -251.34 200.371h110.9c0 -70.2998 51.2402 -109.17 140.44 -109.17c94.46 0 140.7 40.7002 140.7 122.84v35.5l3.36035 75.2305h-4.73047c-28.7305 -56.7002 -91.2705 -89.2305 -170.23 -89.2305c-151.7 0 -247.34 108.36 -247.34 276.73
c0 161.63 101.8 270.729 253.97 270.729c81.7998 0 137.069 -31.9004 169.329 -97.0605h4.74023v83.0596h100.9v-544.7c0 -142.2 -91.5703 -224.3 -250.7 -224.3zM313.561 92.1309c94.2002 0 157.7 70.7705 157.7 180.601c0 103.83 -61.1299 174.6 -154.33 174.6
c-99.4697 0 -156.97 -63.2305 -156.97 -174.601c0 -116.1 55.7695 -180.6 153.6 -180.6z" />
    <glyph glyph-name="gcircumflex" unicode="&#x11d;" horiz-adv-x="660" 
d="M158.2 594.53v16.7305l98 114.3h113l97.6299 -114.3v-16.7305h-96.0703l-55.5596 69.9297h-5.37012l-55.5703 -69.9297h-96.0596zM326.2 -239.539c-151.4 0 -251.34 79.3711 -251.34 200.371h110.9c0 -70.2998 51.2402 -109.17 140.44 -109.17
c94.46 0 140.7 40.7002 140.7 122.84v35.5l3.36035 75.2305h-4.73047c-28.7305 -56.7002 -91.2705 -89.2305 -170.23 -89.2305c-151.7 0 -247.34 108.36 -247.34 276.73c0 161.63 101.8 270.729 253.97 270.729c81.7998 0 137.069 -31.9004 169.329 -97.0605h4.74023
v83.0596h100.9v-544.7c0 -142.2 -91.5703 -224.3 -250.7 -224.3zM313.562 92.1318c94.2002 0 157.7 70.7705 157.7 180.601c0 103.83 -61.1299 174.6 -154.33 174.6c-99.4697 0 -156.97 -63.2305 -156.97 -174.601c0 -116.1 55.7695 -180.6 153.6 -180.6z" />
    <glyph glyph-name="uni0123" unicode="&#x123;" horiz-adv-x="660" 
d="M372.46 704.03v-116.329h-120.53v79.0996c0 129.6 103.8 157.3 103.8 157.3h16.7305v-62.7402s-44.4004 -7.59961 -53.3301 -57.3301h53.3301zM476 529.461l100.901 0.000976562v-544.7c0 -142.2 -91.5703 -224.3 -250.7 -224.3
c-151.4 0 -251.341 79.3701 -251.341 200.37h110.9c0 -70.2998 51.2402 -109.17 140.44 -109.17c94.46 0 140.7 40.7002 140.7 122.84v35.5l3.36035 75.2305h-4.73047c-28.7305 -56.7002 -91.2705 -89.2305 -170.23 -89.2305c-151.7 0 -247.34 108.36 -247.34 276.73
c0 161.63 101.8 270.729 253.97 270.729c81.7998 0 137.069 -31.9004 169.329 -97.0605h4.74023v83.0596zM313.562 92.1318c94.2002 0 157.7 70.7705 157.7 180.601c0 103.83 -61.1299 174.6 -154.33 174.6c-99.4697 0 -156.97 -63.2305 -156.97 -174.601
c0 -116.1 55.7695 -180.6 153.6 -180.6z" />
    <glyph glyph-name="gdotaccent" unicode="&#x121;" horiz-adv-x="660" 
d="M257.2 634.06v115.94h110v-115.94h-110zM326.2 -239.54c-151.4 0 -251.34 79.3711 -251.34 200.371h110.9c0 -70.2998 51.2402 -109.17 140.44 -109.17c94.46 0 140.7 40.7002 140.7 122.84v35.5l3.36035 75.2305h-4.73047
c-28.7305 -56.7002 -91.2705 -89.2305 -170.23 -89.2305c-151.7 0 -247.34 108.36 -247.34 276.73c0 161.63 101.8 270.729 253.97 270.729c81.7998 0 137.069 -31.9004 169.329 -97.0605h4.74023v83.0596h100.9v-544.7c0 -142.2 -91.5703 -224.3 -250.7 -224.3z
M313.562 92.1309c94.2002 0 157.7 70.7705 157.7 180.601c0 103.83 -61.1299 174.6 -154.33 174.6c-99.4697 0 -156.97 -63.2305 -156.97 -174.601c0 -116.1 55.7695 -180.6 153.6 -180.6z" />
    <glyph glyph-name="h" unicode="h" horiz-adv-x="641" 
d="M82.5996 0v750.001h110v-220.54l-3.37012 -77.4297h4.73047c38.2695 61.1699 96.7998 91.4297 175.34 91.4297c126.63 0 198.63 -78.2002 198.63 -215.23v-328.23h-110v330.73c0 75.9004 -39.2305 117.33 -111.101 117.33c-94.2998 0 -154.229 -69.1299 -154.229 -179.36
v-268.7h-110z" />
    <glyph glyph-name="hbar" unicode="&#x127;" horiz-adv-x="639" 
d="M368.3 543.46c126.63 0 198.63 -78.1992 198.63 -215.229v-328.23h-110v330.73c0 75.9004 -39.2305 117.33 -111.101 117.33c-94.2998 0 -154.229 -69.1299 -154.229 -179.36v-268.7h-110v589.96h-74.3398v77.54h74.3398v82.5h110v-82.5h154.13v-77.54h-154.13v-60.5
l-3.37012 -77.4297h4.73047c38.2695 61.1699 96.7998 91.4297 175.34 91.4297z" />
    <glyph glyph-name="hcircumflex" unicode="&#x125;" horiz-adv-x="641" 
d="M-31.1396 800.16v16.7402l106.54 113.66h126.93l106.53 -113.66v-16.7402h-106.16l-61.4697 69.2998h-4.73047l-61.4697 -69.2998h-106.17zM82.6006 0v750.001h110v-220.54l-3.37012 -77.4297h4.73047c38.2695 61.1699 96.7998 91.4297 175.34 91.4297
c126.63 0 198.63 -78.2002 198.63 -215.23v-328.23h-110v330.73c0 75.9004 -39.2305 117.33 -111.101 117.33c-94.2998 0 -154.229 -69.1299 -154.229 -179.36v-268.7h-110z" />
    <glyph glyph-name="uni1E25" unicode="&#x1e25;" horiz-adv-x="641" 
d="M82.5996 0v750.001h110v-220.54l-3.37012 -77.4297h4.73047c38.2695 61.1699 96.7998 91.4297 175.34 91.4297c126.63 0 198.63 -78.2002 198.63 -215.23v-328.23h-110v330.73c0 75.9004 -39.2305 117.33 -111.101 117.33c-94.2998 0 -154.229 -69.1299 -154.229 -179.36
v-268.7h-110zM269.76 -174.169v115.93h110v-115.93h-110z" />
    <glyph glyph-name="i" unicode="i" horiz-adv-x="275" 
d="M82.5996 634.06v115.94h110v-115.94h-110zM82.5996 0v529.46h110v-529.46h-110z" />
    <glyph glyph-name="dotlessi" unicode="&#x131;" horiz-adv-x="273" 
d="M82.5996 0v529.46h110v-529.46h-110z" />
    <glyph glyph-name="iacute" unicode="&#xed;" horiz-adv-x="273" 
d="M81.3604 584l0.000976562 16.7305l77.9697 149.27h123.17v-16.7402l-120.24 -149.26h-80.9004zM82.6016 0v529.46h110v-529.46h-110z" />
    <glyph glyph-name="ibreve" unicode="&#x12d;" horiz-adv-x="273" 
d="M138.23 592.53c-74.6699 0 -127.23 37.4697 -144.33 103.029v16.7402h83.6299c6 -29.7002 26.9004 -44.2402 60.7002 -44.2402s54.3301 14.54 60.3301 44.2402h84l-0.360352 -16.7402c-18.4697 -65.5596 -71.04 -103.029 -143.97 -103.029zM82.5996 0v529.46h110v-529.46
h-110z" />
    <glyph glyph-name="uni01D0" unicode="&#x1d0;" horiz-adv-x="273" 
d="M81.5996 594.53l-98 114.3v16.7305h96.0596l55.5703 -69.9297h5.37012l55.5596 69.9297h96.0703v-16.7305l-97.6299 -114.3h-113zM82.5996 0v529.46h110v-529.46h-110z" />
    <glyph glyph-name="icircumflex" unicode="&#xee;" horiz-adv-x="273" 
d="M-16.4004 594.53v16.7305l98 114.3h113l97.6299 -114.3v-16.7305h-96.0703l-55.5596 69.9297h-5.37012l-55.5703 -69.9297h-96.0596zM82.5996 0.000976562v529.46h110v-529.46h-110z" />
    <glyph glyph-name="uni0209" unicode="&#x209;" horiz-adv-x="273" 
d="M8.55957 584l-120.229 149.26v16.7402h106.43l95 -149.27v-16.7305h-81.2002zM185.13 584l-94.999 149.26v16.7402h99.7695l75.4297 -149.27v-16.7305h-80.2002zM82.6006 -0v529.46h110v-529.46h-110z" />
    <glyph glyph-name="idieresis" unicode="&#xef;" horiz-adv-x="273" 
d="M-19.5996 634.8v115.2h107.26v-115.2h-107.26zM187.53 634.8v115.2h107.27v-115.2h-107.27zM82.6006 0v529.46h110v-529.46h-110z" />
    <glyph glyph-name="i.loclTRK" horiz-adv-x="273" 
d="M82.5996 634.06v115.94h110v-115.94h-110zM82.5996 0v529.46h110v-529.46h-110z" />
    <glyph glyph-name="uni1ECB" unicode="&#x1ecb;" horiz-adv-x="275" 
d="M82.5996 634.06v115.94h110v-115.94h-110zM82.5996 0v529.46h110v-529.46h-110zM82.5996 -174.17v115.93h110v-115.93h-110z" />
    <glyph glyph-name="igrave" unicode="&#xec;" horiz-adv-x="273" 
d="M112.93 584l-120.229 149.26v16.7402h123.16l77.9697 -149.27v-16.7305h-80.9004zM82.6006 -0v529.46h110v-529.46h-110z" />
    <glyph glyph-name="ij" unicode="&#x133;" horiz-adv-x="550" 
d="M82.5996 634.06v115.94h110v-115.94h-110zM357.43 634.06v115.94h110v-115.94h-110zM82.5996 0v529.46h110v-529.46h-110zM288.899 -239.54c-40.9404 0 -65.7705 5.37012 -65.7705 5.37012v94.5996h47.3701c60.8604 0 87.3008 27.0703 87.3008 87.9307v581.1h110v-590.46
c0 -120.24 -58.6699 -178.54 -178.9 -178.54z" />
    <glyph glyph-name="imacron" unicode="&#x12b;" horiz-adv-x="273" 
d="M-21 626.6v80.7998h319.2v-80.7998h-319.2zM82.5996 -0.000976562v529.46h110v-529.46h-110z" />
    <glyph glyph-name="iogonek" unicode="&#x12f;" horiz-adv-x="273" 
d="M82.5996 750h110v-115.94h-110v115.94zM82.5996 0l-0.000976562 529.463h110v-529.46s-85.2402 -24.3398 -85.2402 -79.8701c0 -23.1699 13.54 -35.0703 40.3398 -35.0703c17.2598 0 28.1602 7.63965 28.1602 7.63965h16.7402v-77.4404
s-22.8398 -8.73047 -64.3994 -8.73047c-72.8398 0 -113.939 33.6299 -113.939 91.2695c0 50.9697 36.2998 82.7695 75.0098 102.199h-6.66992z" />
    <glyph glyph-name="itilde" unicode="&#x129;" horiz-adv-x="273" 
d="M199.8 593.97c-57.6299 0 -83.3193 40.8906 -121.419 40.8906c-20.6299 0 -32.2598 -12.6299 -34.2598 -36.8994h-69.1299v16.7305c8 65.0303 44.4697 102.601 99.3994 102.601c58.2695 0 85.2998 -40.5303 122.399 -40.5303c20.2695 0 32.2695 12.2695 34.6396 36.5391
h68.7695v-16.7305c-7.62988 -65.0303 -44.0996 -102.601 -100.399 -102.601zM82.5801 -0.00976562v529.47h110v-529.47h-110z" />
    <glyph glyph-name="j" unicode="j" horiz-adv-x="275" 
d="M82.2305 634.06v115.94h110v-115.94h-110zM13.7002 -239.54c-40.9404 0 -65.7705 5.37012 -65.7705 5.37012v94.5996h47.3701c60.8604 0 87.3008 27.0703 87.3008 87.9307v581.1h110v-590.46c0 -120.24 -58.6699 -178.54 -178.9 -178.54z" />
    <glyph glyph-name="uni0237" unicode="&#x237;" horiz-adv-x="275" 
d="M13.7002 -239.54c-40.9404 0 -65.7705 5.37012 -65.7705 5.37012v94.5996h47.3701c60.8604 0 87.3008 27.0703 87.3008 87.9307v581.1h110v-590.46c0 -120.24 -58.6699 -178.54 -178.9 -178.54z" />
    <glyph glyph-name="jcircumflex" unicode="&#x135;" horiz-adv-x="275" 
d="M-16.4004 594.53v16.7305l98 114.3h113l97.6299 -114.3v-16.7305h-96.0703l-55.5596 69.9297h-5.37012l-55.5703 -69.9297h-96.0596zM13.6992 -239.539c-40.9404 0 -65.7705 5.37012 -65.7705 5.37012v94.5996h47.3701c60.8604 0 87.3008 27.0703 87.3008 87.9307v581.1
h110v-590.46c0 -120.24 -58.6699 -178.54 -178.9 -178.54z" />
    <glyph glyph-name="k" unicode="k" horiz-adv-x="588" 
d="M368.66 319.59l200 -302.859v-16.7305h-117.56l-155.51 245.05l-102.99 -108.66v-136.39h-110v750h110v-480.53l229.6 259.99h124.83v-16.7305z" />
    <glyph glyph-name="uni0137" unicode="&#x137;" horiz-adv-x="588" 
d="M368.66 319.59l200 -302.859v-16.7305h-117.56l-155.51 245.05l-102.99 -108.66v-136.39h-110v750h110v-480.53l229.6 259.99h124.83v-16.7305zM264.86 -174.569l-0.000976562 116.329h120.54v-79.0996c0 -129.6 -103.8 -157.3 -103.8 -157.3h-16.7402v62.7402
s44.4004 7.59961 53.3408 57.3301h-53.3398z" />
    <glyph glyph-name="kgreenlandic" unicode="&#x138;" horiz-adv-x="588" 
d="M368.66 319.59l200 -302.859v-16.7305h-117.56l-155.51 245.05l-102.99 -108.66v-136.39h-110v529.46h110v-259.99l229.6 259.99h124.83v-16.7305z" />
    <glyph glyph-name="l" unicode="l" horiz-adv-x="275" 
d="M82.5996 0v750h110v-750h-110z" />
    <glyph glyph-name="lacute" unicode="&#x13a;" horiz-adv-x="275" 
d="M81.3604 804.53l0.000976562 16.7305l77.9697 149.27h123.17v-16.7305l-120.24 -149.27h-80.9004zM82.6016 0.000976562v750h110v-750h-110z" />
    <glyph glyph-name="lcaron" unicode="&#x13e;" horiz-adv-x="419" 
d="M82.5996 0v750h110v-750h-110zM280.199 750l120.53 -0.000976562v-79.0996c0 -129.6 -103.8 -157.3 -103.8 -157.3h-16.7305v62.7305s44.4004 7.59961 53.3301 57.3301h-53.3301v116.34z" />
    <glyph glyph-name="uni013C" unicode="&#x13c;" horiz-adv-x="275" 
d="M192.6 750v-750h-110v750h110zM77.3301 -58.2402l120.53 -0.000976562v-79.0996c0 -129.6 -103.8 -157.3 -103.8 -157.3h-16.7305v62.7402s44.4004 7.59961 53.3301 57.3301h-53.3301v116.33z" />
    <glyph glyph-name="ldot" unicode="&#x140;" horiz-adv-x="433" 
d="M82.5996 0v750h110v-750h-110zM297.26 318.83v116.33h114v-116.33h-114z" />
    <glyph glyph-name="uni01C9" unicode="&#x1c9;" horiz-adv-x="550" 
d="M82.5996 0v750h110v-750h-110zM357.43 634.06v115.94h110v-115.94h-110zM288.899 -239.54c-40.9404 0 -65.7705 5.37012 -65.7705 5.37012v94.5996h47.3701c60.8604 0 87.3008 27.0703 87.3008 87.9307v581.1h110v-590.46c0 -120.24 -58.6699 -178.54 -178.9 -178.54z
" />
    <glyph glyph-name="lslash" unicode="&#x142;" horiz-adv-x="389" 
d="M360.66 513.83l-0.000976562 -97.8701l-111.06 -76.7305v-339.23h-110v263.24l-94.3398 -65.1797h-16.7305v97.8701l111.07 76.7305v377.34h110v-301.34l94.3301 65.1699h16.7305z" />
    <glyph glyph-name="m" unicode="m" horiz-adv-x="1000" 
d="M732.63 543.46c123.63 0 194.63 -78.2012 194.63 -215.231v-328.23h-110v330.73c0 75.9004 -38.2305 117.33 -108.101 117.33c-90.9297 0 -149.229 -69.1299 -149.229 -179.36v-268.7h-110v330.73c0 75.9004 -38.2305 117.33 -108.101 117.33
c-90.9297 0 -149.229 -69.1299 -149.229 -179.36v-268.7h-110v529.46h100.9v-83.0596h4.73047c37 65.1602 96.9004 97.0605 177.07 97.0605c83.3701 0 142.8 -35.5596 172.67 -100.739c41.3896 67.4902 105.659 100.74 194.659 100.74z" />
    <glyph glyph-name="n" unicode="n" horiz-adv-x="641" 
d="M82.5996 0l-0.00195312 529.46h100.9v-83.0596h4.73047c38.7305 65.1602 98.6309 97.0605 181.071 97.0605c126.63 0 198.63 -78.2002 198.63 -215.23v-328.23h-110v330.73c0 75.9004 -39.2305 117.33 -111.101 117.33c-94.2998 0 -154.229 -69.1299 -154.229 -179.36
v-268.7h-110z" />
    <glyph glyph-name="nacute" unicode="&#x144;" horiz-adv-x="641" 
d="M269.53 584l0.000976562 16.7305l77.9697 149.27h123.16v-16.7402l-120.23 -149.26h-80.9004zM82.6016 0l-0.00195312 529.46h100.9v-83.0596h4.73047c38.7305 65.1602 98.6309 97.0605 181.071 97.0605c126.63 0 198.63 -78.2002 198.63 -215.23v-328.23h-110v330.73
c0 75.9004 -39.2305 117.33 -111.101 117.33c-94.2998 0 -154.229 -69.1299 -154.229 -179.36v-268.7h-110z" />
    <glyph glyph-name="napostrophe" unicode="&#x149;" horiz-adv-x="806" 
d="M40.3301 633.66l-0.000976562 116.341h122.73v-75.4404c0 -172 -106 -203.36 -106 -203.36h-16.7305v75.4004s46.2305 10.7998 49.9707 87.0596h-49.9697zM535.229 543.461c126.63 0 198.629 -78.2002 198.629 -215.23v-328.23h-110v330.73
c0 75.9004 -39.2305 117.33 -111.101 117.33c-94.2998 0 -154.229 -69.1299 -154.229 -179.36v-268.7h-110v529.46h100.9v-83.0596h4.73047c38.7402 65.1602 98.6406 97.0605 181.07 97.0605z" />
    <glyph glyph-name="ncaron" unicode="&#x148;" horiz-adv-x="641" 
d="M269.76 594.53l-98.002 114.3v16.7305h96.0703l55.5703 -69.9297h5.36035l55.5703 69.9297h96.0703v-16.7305l-97.6396 -114.3h-113zM82.5977 0l-0.00195312 529.46h100.9v-83.0596h4.73047c38.7305 65.1602 98.6309 97.0605 181.071 97.0605
c126.63 0 198.63 -78.2002 198.63 -215.23v-328.23h-110v330.73c0 75.9004 -39.2305 117.33 -111.101 117.33c-94.2998 0 -154.229 -69.1299 -154.229 -179.36v-268.7h-110z" />
    <glyph glyph-name="uni0146" unicode="&#x146;" horiz-adv-x="641" 
d="M369.3 543.46c126.63 0 198.628 -78.2002 198.628 -215.23v-328.23h-110v330.73c0 75.9004 -39.2305 117.33 -111.101 117.33c-94.2998 0 -154.229 -69.1299 -154.229 -179.36v-268.7h-110v529.46h100.9v-83.0596h4.73047
c38.7305 65.1602 98.6309 97.0605 181.071 97.0605zM265.498 -174.57v116.329h120.53v-79.0996c0 -129.6 -103.8 -157.3 -103.8 -157.3h-16.7305v62.7402s44.4004 7.59961 53.3301 57.3301h-53.3301z" />
    <glyph glyph-name="uni1E45" unicode="&#x1e45;" horiz-adv-x="641" 
d="M270.76 634.06v115.94h110v-115.94h-110zM82.5996 0l-0.00195312 529.46h100.9v-83.0596h4.73047c38.7305 65.1602 98.6309 97.0605 181.071 97.0605c126.63 0 198.63 -78.2002 198.63 -215.23v-328.23h-110v330.73c0 75.9004 -39.2305 117.33 -111.101 117.33
c-94.2998 0 -154.229 -69.1299 -154.229 -179.36v-268.7h-110z" />
    <glyph glyph-name="eng" unicode="&#x14b;" horiz-adv-x="650" 
d="M389.03 -239.54c-40.9297 0 -65.7715 5.37012 -65.7715 5.37012v94.5996h47.3701c60.8701 0 87.2998 27.0703 87.2998 87.9307v382.37c0 75.9004 -39.2305 117.33 -111.101 117.33c-94.2998 0 -154.229 -69.1299 -154.229 -179.36v-268.7h-110v529.46h100.9v-83.0596
h4.73047c38.7305 65.1602 98.6309 97.0605 181.071 97.0605c126.63 0 198.63 -78.2002 198.63 -215.23v-389.23c0 -120.24 -58.6699 -178.54 -178.9 -178.54z" />
    <glyph glyph-name="uni01CC" unicode="&#x1cc;" horiz-adv-x="916" 
d="M722.76 634.06v115.94h110v-115.94h-110zM82.5996 0l-0.00195312 529.46h100.9v-83.0596h4.73047c38.7305 65.1602 98.6309 97.0605 181.071 97.0605c126.63 0 198.63 -78.2002 198.63 -215.23v-328.23h-110v330.73c0 75.9004 -39.2305 117.33 -111.101 117.33
c-94.2998 0 -154.229 -69.1299 -154.229 -179.36v-268.7h-110zM654.228 -239.54c-40.9297 0 -65.7695 5.37012 -65.7695 5.37012v94.5996h47.3701c60.8701 0 87.2998 27.0703 87.2998 87.9307v581.1h110v-590.46c0 -120.24 -58.6699 -178.54 -178.9 -178.54z" />
    <glyph glyph-name="ntilde" unicode="&#xf1;" horiz-adv-x="641" 
d="M387.97 593.97c-57.6299 0 -83.3193 40.8906 -121.419 40.8906c-20.6299 0 -32.2598 -12.6299 -34.2598 -36.8994h-69.1299v16.7305c8 65.0303 44.4697 102.601 99.3994 102.601c58.2695 0 85.2998 -40.5303 122.399 -40.5303c20.2695 0 32.2695 12.2695 34.6396 36.5391
h68.7695v-16.7305c-7.62988 -65.0303 -44.0996 -102.601 -100.399 -102.601zM82.5801 -0.00976562l0.00878906 529.461h100.9v-83.0703h4.73047c38.7305 65.1699 98.6309 97.0703 181.061 97.0703c126.63 0 198.63 -78.2002 198.63 -215.23v-328.23h-110v330.73
c0 75.9004 -39.2305 117.33 -111.101 117.33c-94.2998 0 -154.229 -69.1299 -154.229 -179.36v-268.7h-110z" />
    <glyph glyph-name="o" unicode="o" horiz-adv-x="646" 
d="M321.83 -12c-168.67 0 -275.229 108.001 -275.229 279.731c0 162.47 111.93 273.729 277.229 273.729c167.67 0 275.229 -109.36 275.229 -273.73c0 -168.73 -110.93 -279.73 -277.229 -279.73zM321.83 83.4014c105.1 0 165.229 64.2305 165.229 184.33
c0 110.47 -61.1299 178.33 -163.229 178.33c-103.47 0 -165.229 -63.5 -165.229 -178.33c0 -117.47 60.1299 -184.33 163.229 -184.33z" />
    <glyph glyph-name="oacute" unicode="&#xf3;" horiz-adv-x="646" 
d="M266.6 584l0.000976562 16.7305l77.96 149.27h123.17v-16.7402l-120.23 -149.26h-80.9004zM321.831 -12c-168.67 0 -275.229 108.001 -275.229 279.731c0 162.47 111.93 273.729 277.229 273.729c167.67 0 275.229 -109.36 275.229 -273.73
c0 -168.73 -110.93 -279.73 -277.229 -279.73zM321.831 83.4014c105.1 0 165.229 64.2305 165.229 184.33c0 110.47 -61.1299 178.33 -163.229 178.33c-103.47 0 -165.229 -63.5 -165.229 -178.33c0 -117.47 60.1299 -184.33 163.229 -184.33z" />
    <glyph glyph-name="obreve" unicode="&#x14f;" horiz-adv-x="646" 
d="M323.46 592.53c-74.6602 0 -127.23 37.4697 -144.33 103.029v16.7402h83.6299c6 -29.7002 26.9004 -44.2402 60.7002 -44.2402s54.3398 14.54 60.3398 44.2402h84l-0.370117 -16.7402c-18.4697 -65.5596 -71.0293 -103.029 -143.97 -103.029zM321.83 -12
c-168.67 0 -275.229 108.001 -275.229 279.731c0 162.47 111.93 273.729 277.229 273.729c167.67 0 275.229 -109.36 275.229 -273.73c0 -168.73 -110.93 -279.73 -277.229 -279.73zM321.83 83.4014c105.1 0 165.229 64.2305 165.229 184.33
c0 110.47 -61.1299 178.33 -163.229 178.33c-103.47 0 -165.229 -63.5 -165.229 -178.33c0 -117.47 60.1299 -184.33 163.229 -184.33z" />
    <glyph glyph-name="uni01D2" unicode="&#x1d2;" horiz-adv-x="646" 
d="M266.83 594.53l-98 114.3v16.7305h96.0703l55.5596 -69.9297h5.37012l55.5703 69.9297h96.0596v-16.7305l-97.6299 -114.3h-113zM321.83 -12c-168.67 0 -275.229 108.001 -275.229 279.731c0 162.47 111.93 273.729 277.229 273.729
c167.67 0 275.229 -109.36 275.229 -273.73c0 -168.73 -110.93 -279.73 -277.229 -279.73zM321.83 83.4014c105.1 0 165.229 64.2305 165.229 184.33c0 110.47 -61.1299 178.33 -163.229 178.33c-103.47 0 -165.229 -63.5 -165.229 -178.33
c0 -117.47 60.1299 -184.33 163.229 -184.33z" />
    <glyph glyph-name="ocircumflex" unicode="&#xf4;" horiz-adv-x="646" 
d="M168.83 594.53v16.7305l98 114.3h113l97.6299 -114.3v-16.7305h-96.0596l-55.5703 69.9297h-5.37012l-55.5596 -69.9297h-96.0703zM321.83 -11.999c-168.67 0 -275.229 108.001 -275.229 279.731c0 162.47 111.93 273.729 277.229 273.729
c167.67 0 275.229 -109.36 275.229 -273.73c0 -168.73 -110.93 -279.73 -277.229 -279.73zM321.83 83.4023c105.1 0 165.229 64.2305 165.229 184.33c0 110.47 -61.1299 178.33 -163.229 178.33c-103.47 0 -165.229 -63.5 -165.229 -178.33
c0 -117.47 60.1299 -184.33 163.229 -184.33z" />
    <glyph glyph-name="uni1ED9" unicode="&#x1ed9;" horiz-adv-x="646" 
d="M168.83 594.53v16.7305l98 114.3h113l97.6299 -114.3v-16.7305h-96.0596l-55.5703 69.9297h-5.37012l-55.5596 -69.9297h-96.0703zM321.83 -11.999c-168.67 0 -275.229 108.001 -275.229 279.731c0 162.47 111.93 273.729 277.229 273.729
c167.67 0 275.229 -109.36 275.229 -273.73c0 -168.73 -110.93 -279.73 -277.229 -279.73zM321.83 83.4023c105.1 0 165.229 64.2305 165.229 184.33c0 110.47 -61.1299 178.33 -163.229 178.33c-103.47 0 -165.229 -63.5 -165.229 -178.33
c0 -117.47 60.1299 -184.33 163.229 -184.33zM267.83 -174.168v115.93h110v-115.93h-110z" />
    <glyph glyph-name="uni020D" unicode="&#x20d;" horiz-adv-x="646" 
d="M193.8 584l-120.24 149.26v16.7402h106.44l95 -149.27v-16.7305h-81.2002zM370.359 584l-94.999 149.26v16.7402h99.7695l75.4297 -149.27v-16.7305h-80.2002zM321.83 -12c-168.67 0 -275.229 108.001 -275.229 279.731c0 162.47 111.93 273.729 277.229 273.729
c167.67 0 275.229 -109.36 275.229 -273.73c0 -168.73 -110.93 -279.73 -277.229 -279.73zM321.83 83.4014c105.1 0 165.229 64.2305 165.229 184.33c0 110.47 -61.1299 178.33 -163.229 178.33c-103.47 0 -165.229 -63.5 -165.229 -178.33
c0 -117.47 60.1299 -184.33 163.229 -184.33z" />
    <glyph glyph-name="odieresis" unicode="&#xf6;" horiz-adv-x="646" 
d="M165.63 634.8v115.2h107.27v-115.2h-107.27zM372.76 634.8v115.2h107.27v-115.2h-107.27zM321.83 -12c-168.67 0 -275.229 108.001 -275.229 279.731c0 162.47 111.93 273.729 277.229 273.729c167.67 0 275.229 -109.36 275.229 -273.73
c0 -168.73 -110.93 -279.73 -277.229 -279.73zM321.83 83.4014c105.1 0 165.229 64.2305 165.229 184.33c0 110.47 -61.1299 178.33 -163.229 178.33c-103.47 0 -165.229 -63.5 -165.229 -178.33c0 -117.47 60.1299 -184.33 163.229 -184.33z" />
    <glyph glyph-name="uni1ECD" unicode="&#x1ecd;" horiz-adv-x="646" 
d="M321.83 -12c-168.67 0 -275.229 108.001 -275.229 279.731c0 162.47 111.93 273.729 277.229 273.729c167.67 0 275.229 -109.36 275.229 -273.73c0 -168.73 -110.93 -279.73 -277.229 -279.73zM321.83 83.4014c105.1 0 165.229 64.2305 165.229 184.33
c0 110.47 -61.1299 178.33 -163.229 178.33c-103.47 0 -165.229 -63.5 -165.229 -178.33c0 -117.47 60.1299 -184.33 163.229 -184.33zM267.83 -174.169v115.93h110v-115.93h-110z" />
    <glyph glyph-name="ograve" unicode="&#xf2;" horiz-adv-x="646" 
d="M298.16 584l-120.229 149.26v16.7402h123.17l77.96 -149.27v-16.7305h-80.9004zM321.831 -12c-168.67 0 -275.229 108.001 -275.229 279.731c0 162.47 111.93 273.729 277.229 273.729c167.67 0 275.229 -109.36 275.229 -273.73
c0 -168.73 -110.93 -279.73 -277.229 -279.73zM321.831 83.4014c105.1 0 165.229 64.2305 165.229 184.33c0 110.47 -61.1299 178.33 -163.229 178.33c-103.47 0 -165.229 -63.5 -165.229 -178.33c0 -117.47 60.1299 -184.33 163.229 -184.33z" />
    <glyph glyph-name="ohungarumlaut" unicode="&#x151;" horiz-adv-x="646" 
d="M195.1 584l0.000976562 16.7305l75.4297 149.27h99.7695v-16.7402l-95 -149.26h-80.2002zM370.66 584v16.7305l95 149.27h106.44v-16.7402l-120.24 -149.26h-81.2002zM321.83 -12c-168.67 0 -275.229 108.001 -275.229 279.731c0 162.47 111.93 273.729 277.229 273.729
c167.67 0 275.229 -109.36 275.229 -273.73c0 -168.73 -110.93 -279.73 -277.229 -279.73zM321.83 83.4014c105.1 0 165.229 64.2305 165.229 184.33c0 110.47 -61.1299 178.33 -163.229 178.33c-103.47 0 -165.229 -63.5 -165.229 -178.33
c0 -117.47 60.1299 -184.33 163.229 -184.33z" />
    <glyph glyph-name="omacron" unicode="&#x14d;" horiz-adv-x="646" 
d="M164.23 626.6v80.7998h319.2v-80.7998h-319.2zM321.83 -12.001c-168.67 0 -275.229 108.001 -275.229 279.731c0 162.47 111.93 273.729 277.229 273.729c167.67 0 275.229 -109.36 275.229 -273.73c0 -168.73 -110.93 -279.73 -277.229 -279.73zM321.83 83.4004
c105.1 0 165.229 64.2305 165.229 184.33c0 110.47 -61.1299 178.33 -163.229 178.33c-103.47 0 -165.229 -63.5 -165.229 -178.33c0 -117.47 60.1299 -184.33 163.229 -184.33z" />
    <glyph glyph-name="uni01EB" unicode="&#x1eb;" horiz-adv-x="646" 
d="M386.62 -5.9502c-24.7803 -10.2402 -68.7607 -34.0264 -68.7607 -73.916c0 -23.1699 13.54 -35.0703 40.3398 -35.0703c17.2598 0 28.1602 7.63965 28.1602 7.63965h16.7402v-77.4404s-22.8398 -8.73047 -64.3994 -8.73047c-72.8398 0 -113.939 33.6299 -113.939 91.2695
c0 43.0996 25.96 72.5 57.3799 92.29c-145.52 15.7998 -235.539 119.8 -235.539 277.64c0 162.47 111.93 273.729 277.229 273.729c167.67 0 275.229 -109.36 275.229 -273.73c0 -145.73 -82.7402 -248.391 -212.44 -273.681zM158.601 267.733
c0 -117.47 60.1299 -184.33 163.229 -184.33c105.1 0 165.229 64.2305 165.229 184.33c0 110.47 -61.1299 178.33 -163.229 178.33c-103.47 0 -165.229 -63.5 -165.229 -178.33z" />
    <glyph glyph-name="oslash" unicode="&#xf8;" horiz-adv-x="646" 
d="M513.36 476.52c54.6904 -48.1201 85.7002 -120.529 85.7002 -208.789c0 -168.73 -110.93 -279.73 -277.229 -279.73c-52.4902 0 -98.9707 10.46 -138.091 30.0498l-49.9102 -69.4199l-50.8301 35.7305l49.2197 68.4199c-54.7695 48.5996 -85.6191 122.55 -85.6191 214.95
c0 162.47 111.93 273.729 277.229 273.729c52.4102 0 98.9502 -10.6797 138.17 -30.3896l50.2002 69.7598l50.46 -35.7305zM158.601 267.73c0 -53.5498 12.8896 -96.5908 36.5098 -127.561l207.84 288.84c-22.4697 11.1504 -49.0098 17.0508 -79.1201 17.0508
c-103.47 0 -165.229 -63.5 -165.229 -178.33zM321.831 83.3994c105.1 0 165.23 64.2305 165.23 184.33c0 50.29 -12.6699 91.75 -36.0996 122l-207.96 -289.25c22.4697 -11.25 48.9395 -17.0801 78.8291 -17.0801z" />
    <glyph glyph-name="oslashacute" unicode="&#x1ff;" horiz-adv-x="646" 
d="M467.73 733.26l-120.229 -149.26h-80.9004v16.7305l77.96 149.27h123.17v-16.7402zM513.361 476.52c54.6904 -48.1201 85.7002 -120.529 85.7002 -208.789c0 -168.73 -110.93 -279.73 -277.229 -279.73c-52.4902 0 -98.9707 10.46 -138.091 30.0498l-49.9102 -69.4199
l-50.8301 35.7305l49.2197 68.4199c-54.7695 48.5996 -85.6191 122.55 -85.6191 214.95c0 162.47 111.93 273.729 277.229 273.729c52.4102 0 98.9502 -10.6797 138.17 -30.3896l50.2002 69.7598l50.46 -35.7305zM158.602 267.73
c0 -53.5498 12.8896 -96.5908 36.5098 -127.561l207.84 288.84c-22.4697 11.1504 -49.0098 17.0508 -79.1201 17.0508c-103.47 0 -165.229 -63.5 -165.229 -178.33zM321.832 83.3994c105.1 0 165.23 64.2305 165.23 184.33c0 50.29 -12.6699 91.75 -36.0996 122
l-207.96 -289.25c22.4697 -11.25 48.9395 -17.0801 78.8291 -17.0801z" />
    <glyph glyph-name="otilde" unicode="&#xf5;" horiz-adv-x="646" 
d="M385.03 593.97c-57.6299 0 -83.3193 40.8906 -121.419 40.8906c-20.6299 0 -32.2598 -12.6299 -34.2598 -36.8994h-69.1299v16.7305c8 65.0303 44.4697 102.601 99.3994 102.601c58.2695 0 85.2998 -40.5303 122.399 -40.5303c20.2695 0 32.2695 12.2695 34.6396 36.5391
h68.7695v-16.7305c-7.62988 -65.0303 -44.0996 -102.601 -100.399 -102.601zM321.811 -12.0098c-168.67 0 -275.24 108.001 -275.24 279.731c0 162.47 111.93 273.739 277.229 273.739c167.67 0 275.24 -109.37 275.24 -273.74c0 -168.73 -110.93 -279.73 -277.229 -279.73z
M321.811 83.3916c105.1 0 165.239 64.2305 165.239 184.33c0 110.47 -61.1299 178.34 -163.229 178.34c-103.47 0 -165.239 -63.5 -165.239 -178.33c0 -117.47 60.1299 -184.34 163.229 -184.34z" />
    <glyph glyph-name="oe" unicode="&#x153;" horiz-adv-x="1056" 
d="M1009.53 264.73l-0.00292969 -29.2305h-409.33c8.26953 -102.45 61.4395 -157.67 150.93 -157.67c73.7305 0 123.131 31.0703 134.771 85.8301h108v-18.7305c-29.7002 -98 -121.47 -156.93 -242.77 -156.93c-98.6797 0 -170.319 38.8203 -212.229 105.301
c-44.1299 -66.7197 -118.36 -105.3 -217.07 -105.3c-166.67 0 -275.229 106.63 -275.229 279.729c0 162 111.83 273.73 277.23 273.73c99.1504 0 172.9 -38.9297 216.381 -104.939c42.6299 66.2598 114.59 104.939 210.92 104.939c155.57 0 258.4 -110 258.4 -276.73z
M603.777 321.96h293.12c-8.09961 82.9004 -61.8691 129.67 -145.77 129.67c-80.96 0 -132.19 -45.2002 -147.351 -129.67zM321.827 83.4004c104.1 0 165.229 65.8604 165.229 184.33c0 112.47 -59.1299 178.33 -163.229 178.33c-105.37 0 -165.23 -65.5 -165.23 -178.33
c0 -117.47 60.5 -184.33 163.23 -184.33z" />
    <glyph glyph-name="p" unicode="p" horiz-adv-x="661" 
d="M82.5996 -224.54v754.001h100.9v-83.0596h4.73047c34.5303 61.7998 97.4307 97.0596 176.23 97.0596c149.54 0 247.07 -110.36 247.07 -275.73c0 -170.73 -101.53 -281.73 -251.431 -281.73c-75.54 0 -138.24 32.5303 -166.141 89.2305h-4.73047l3.37012 -75.2305
v-224.54h-110zM342.83 82.1309c100.2 0 156.7 67.1299 156.7 185.6c0 113.1 -57.1299 179.6 -153.07 179.6c-96.0996 0 -158.6 -72.7695 -158.6 -179.6c0 -112.83 61.7695 -185.6 154.97 -185.6z" />
    <glyph glyph-name="thorn" unicode="&#xfe;" horiz-adv-x="661" 
d="M82.5996 -224.54l0.000976562 974.541h110v-220.54l-3.37012 -75.2305h4.73047c31.2695 54.7002 93.5996 89.2305 169.869 89.2305c150.17 0 247.7 -109.73 247.7 -275.73c0 -171.37 -100.9 -281.73 -252.07 -281.73c-74.4297 0 -134.6 32.5303 -165.5 89.2305h-4.73047
l3.37012 -75.2305v-224.54h-110zM342.831 82.1309c99.8301 0 156.7 65.1289 156.7 185.599c0 112.73 -56.5 179.601 -154.7 179.601c-94.8301 0 -156.97 -72.7695 -156.97 -179.6c0 -112.83 61.7695 -185.6 154.97 -185.6z" />
    <glyph glyph-name="q" unicode="q" horiz-adv-x="661" 
d="M467.9 -224.54l-0.000976562 224.54l3.36035 75.2305h-4.73047c-31.2695 -56.7002 -92.0693 -89.2305 -168.77 -89.2305c-150.53 0 -248.8 109.26 -248.8 281.729c0 164 101 275.73 252.7 275.73c77.6396 0 140.069 -35.2598 170.6 -97.0596h4.74023v83.0596h100.9v-754
h-110zM314.659 82.1299c96.2002 0 157.97 72.7705 157.97 185.601c0 106.83 -62.1299 179.6 -154.07 179.6c-101.1 0 -157.6 -65.8701 -157.6 -179.601c0 -119.1 58.5 -185.6 153.7 -185.6z" />
    <glyph glyph-name="r" unicode="r" horiz-adv-x="411" 
d="M82.5996 0l-0.000976562 529.459h100.9v-93.0596h6c29.3604 71.7998 83.2607 107.06 162.701 107.06c21.6299 0 36.2598 -3.62988 36.2598 -3.62988v-97.9697h-26.2998c-115.33 0 -169.561 -69.1299 -169.561 -216.1v-225.76h-110z" />
    <glyph glyph-name="racute" unicode="&#x155;" horiz-adv-x="411" 
d="M179.8 584l0.000976562 16.7305l77.96 149.27h123.17v-16.7402l-120.23 -149.26h-80.9004zM82.6006 0l-0.000976562 529.459h100.9v-93.0596h6c29.3604 71.7998 83.2607 107.06 162.701 107.06c21.6299 0 36.2598 -3.62988 36.2598 -3.62988v-97.9697h-26.2998
c-115.33 0 -169.561 -69.1299 -169.561 -216.1v-225.76h-110z" />
    <glyph glyph-name="rcaron" unicode="&#x159;" horiz-adv-x="411" 
d="M180.03 594.53l-98 114.3v16.7305h96.0703l55.5596 -69.9297h5.37012l55.5703 69.9297h96.0596v-16.7305l-97.6299 -114.3h-113zM82.6006 0l-0.000976562 529.459h100.9v-93.0596h6c29.3604 71.7998 83.2607 107.06 162.701 107.06
c21.6299 0 36.2598 -3.62988 36.2598 -3.62988v-97.9697h-26.2998c-115.33 0 -169.561 -69.1299 -169.561 -216.1v-225.76h-110z" />
    <glyph glyph-name="uni0157" unicode="&#x157;" horiz-adv-x="411" 
d="M352.2 543.46c21.6299 0 36.2588 -3.63086 36.2588 -3.63086v-97.9697h-26.2998c-115.33 0 -169.561 -69.1299 -169.561 -216.1v-225.76h-110v529.46h100.9v-93.0596h6c29.3604 71.7998 83.2607 107.06 162.701 107.06zM77.3291 -174.571v116.329h120.53v-79.0996
c0 -129.6 -103.8 -157.3 -103.8 -157.3h-16.7305v62.7402s44.4004 7.59961 53.3301 57.3301h-53.3301z" />
    <glyph glyph-name="uni0211" unicode="&#x211;" horiz-adv-x="411" 
d="M107 584l-120.24 149.26v16.7402h106.44l95 -149.27v-16.7305h-81.2002zM283.56 584l-94.999 149.26v16.7402h99.7695l75.4297 -149.27v-16.7305h-80.2002zM82.6006 -0l-0.000976562 529.459h100.9v-93.0596h6c29.3604 71.7998 83.2607 107.06 162.701 107.06
c21.6299 0 36.2598 -3.62988 36.2598 -3.62988v-97.9697h-26.2998c-115.33 0 -169.561 -69.1299 -169.561 -216.1v-225.76h-110z" />
    <glyph glyph-name="uni1E5B" unicode="&#x1e5b;" horiz-adv-x="411" 
d="M82.5996 0l-0.000976562 529.459h100.9v-93.0596h6c29.3604 71.7998 83.2607 107.06 162.701 107.06c21.6299 0 36.2598 -3.62988 36.2598 -3.62988v-97.9697h-26.2998c-115.33 0 -169.561 -69.1299 -169.561 -216.1v-225.76h-110zM82.5986 -174.171v115.93h110v-115.93
h-110z" />
    <glyph glyph-name="s" unicode="s" horiz-adv-x="559" 
d="M281.93 -12c-145.47 0 -233.329 65.9316 -233.329 176.201h108.9c0 -60.2002 37.7002 -87 122.7 -87c83.7305 0 122.061 21.4297 122.061 69.0996c0 46.1299 -33.7002 63.5596 -152.3 76.2998c-135.36 14.46 -193.36 61.46 -193.36 155.729
c0 98.9297 86.9297 163.13 218.699 163.13c136.46 0 218.96 -62.2998 218.96 -165.66h-108.53c0 52.6602 -33.0703 76.46 -108.431 76.46c-76 0 -110.07 -20.4297 -110.07 -66.7295c0 -44.6699 34.0703 -61.0996 152.601 -74.5693
c136.17 -15.46 194.43 -63.2002 194.43 -159.561c0 -98.5703 -91.9297 -163.4 -232.33 -163.4z" />
    <glyph glyph-name="sacute" unicode="&#x15b;" horiz-adv-x="559" 
d="M219.7 584l0.000976562 16.7305l77.96 149.27h123.17v-16.7402l-120.23 -149.26h-80.9004zM281.932 -12c-145.47 0 -233.329 65.9316 -233.329 176.201h108.9c0 -60.2002 37.7002 -87 122.7 -87c83.7305 0 122.061 21.4297 122.061 69.0996
c0 46.1299 -33.7002 63.5596 -152.3 76.2998c-135.36 14.46 -193.36 61.46 -193.36 155.729c0 98.9297 86.9297 163.13 218.699 163.13c136.46 0 218.96 -62.2998 218.96 -165.66h-108.53c0 52.6602 -33.0703 76.46 -108.431 76.46c-76 0 -110.07 -20.4297 -110.07 -66.7295
c0 -44.6699 34.0703 -61.0996 152.601 -74.5693c136.17 -15.46 194.43 -63.2002 194.43 -159.561c0 -98.5703 -91.9297 -163.4 -232.33 -163.4z" />
    <glyph glyph-name="scaron" unicode="&#x161;" horiz-adv-x="559" 
d="M219.93 594.53l-98 114.3v16.7305h96.0703l55.5596 -69.9297h5.37012l55.5703 69.9297h96.0596v-16.7305l-97.6299 -114.3h-113zM281.93 -12c-145.47 0 -233.329 65.9316 -233.329 176.201h108.9c0 -60.2002 37.7002 -87 122.7 -87
c83.7305 0 122.061 21.4297 122.061 69.0996c0 46.1299 -33.7002 63.5596 -152.3 76.2998c-135.36 14.46 -193.36 61.46 -193.36 155.729c0 98.9297 86.9297 163.13 218.699 163.13c136.46 0 218.96 -62.2998 218.96 -165.66h-108.53
c0 52.6602 -33.0703 76.46 -108.431 76.46c-76 0 -110.07 -20.4297 -110.07 -66.7295c0 -44.6699 34.0703 -61.0996 152.601 -74.5693c136.17 -15.46 194.43 -63.2002 194.43 -159.561c0 -98.5703 -91.9297 -163.4 -232.33 -163.4z" />
    <glyph glyph-name="scedilla" unicode="&#x15f;" horiz-adv-x="559" 
d="M514.26 151.4c0 -91.6104 -79.3984 -154.08 -203.318 -162.44l-8.70996 -26.2305h1.62988c49.6699 0 80.4004 -30 80.4004 -77.2002c0 -57.0996 -41.7305 -88.7295 -117.86 -88.7295c-39.9404 0 -64.6709 6 -64.6709 6v70.7002h49.9004
c23.5303 0 33.7998 8.25977 33.7998 26.4297s-10.2695 26.0703 -33.7998 26.0703h-23.5303v16.7305l15.79 46.8701c-122.6 10.6904 -195.29 74.3008 -195.29 174.601h108.9c0 -60.2002 37.7002 -87 122.7 -87c83.7305 0 122.061 21.4297 122.061 69.0996
c0 46.1299 -33.7002 63.5596 -152.3 76.2998c-135.36 14.46 -193.36 61.46 -193.36 155.729c0 98.9297 86.9297 163.13 218.699 163.13c136.46 0 218.96 -62.2998 218.96 -165.66h-108.53c0 52.6602 -33.0703 76.46 -108.431 76.46c-76 0 -110.07 -20.4297 -110.07 -66.7295
c0 -44.6699 34.0703 -61.0996 152.601 -74.5693c136.17 -15.46 194.43 -63.2002 194.43 -159.561z" />
    <glyph glyph-name="scircumflex" unicode="&#x15d;" horiz-adv-x="559" 
d="M121.93 594.53v16.7305l98 114.3h113l97.6299 -114.3v-16.7305h-96.0596l-55.5703 69.9297h-5.37012l-55.5596 -69.9297h-96.0703zM281.93 -11.999c-145.47 0 -233.329 65.9316 -233.329 176.201h108.9c0 -60.2002 37.7002 -87 122.7 -87
c83.7305 0 122.061 21.4297 122.061 69.0996c0 46.1299 -33.7002 63.5596 -152.3 76.2998c-135.36 14.46 -193.36 61.46 -193.36 155.729c0 98.9297 86.9297 163.13 218.699 163.13c136.46 0 218.96 -62.2998 218.96 -165.66h-108.53
c0 52.6602 -33.0703 76.46 -108.431 76.46c-76 0 -110.07 -20.4297 -110.07 -66.7295c0 -44.6699 34.0703 -61.0996 152.601 -74.5693c136.17 -15.46 194.43 -63.2002 194.43 -159.561c0 -98.5703 -91.9297 -163.4 -232.33 -163.4z" />
    <glyph glyph-name="uni0219" unicode="&#x219;" horiz-adv-x="559" 
d="M319.83 310.96c136.17 -15.46 194.431 -63.1982 194.431 -159.559c0 -98.5703 -91.9297 -163.4 -232.33 -163.4c-145.47 0 -233.33 65.9297 -233.33 176.199h108.9c0 -60.2002 37.7002 -87 122.7 -87c83.7305 0 122.061 21.4297 122.061 69.0996
c0 46.1299 -33.7002 63.5596 -152.3 76.2998c-135.36 14.46 -193.36 61.46 -193.36 155.729c0 98.9297 86.9297 163.13 218.699 163.13c136.46 0 218.96 -62.2998 218.96 -165.66h-108.53c0 52.6602 -33.0703 76.46 -108.431 76.46c-76 0 -110.07 -20.4297 -110.07 -66.7295
c0 -44.6699 34.0703 -61.0996 152.601 -74.5693zM221.661 -174.568l-0.000976562 116.329h120.54v-79.0996c0 -129.6 -103.8 -157.3 -103.8 -157.3h-16.7402v62.7402s44.4004 7.59961 53.3408 57.3301h-53.3398z" />
    <glyph glyph-name="uni1E63" unicode="&#x1e63;" horiz-adv-x="559" 
d="M281.93 -12c-145.47 0 -233.329 65.9316 -233.329 176.201h108.9c0 -60.2002 37.7002 -87 122.7 -87c83.7305 0 122.061 21.4297 122.061 69.0996c0 46.1299 -33.7002 63.5596 -152.3 76.2998c-135.36 14.46 -193.36 61.46 -193.36 155.729
c0 98.9297 86.9297 163.13 218.699 163.13c136.46 0 218.96 -62.2998 218.96 -165.66h-108.53c0 52.6602 -33.0703 76.46 -108.431 76.46c-76 0 -110.07 -20.4297 -110.07 -66.7295c0 -44.6699 34.0703 -61.0996 152.601 -74.5693
c136.17 -15.46 194.43 -63.2002 194.43 -159.561c0 -98.5703 -91.9297 -163.4 -232.33 -163.4zM226.931 -174.168v115.93h110v-115.93h-110z" />
    <glyph glyph-name="germandbls" unicode="&#xdf;" horiz-adv-x="621" 
d="M80.96 0l0.000976562 565.098c0 118.63 94.2998 196.899 236.439 196.899c142.13 0 236.43 -78.2695 236.43 -196.899c0 -82.2695 -39.3701 -140.64 -107.101 -160.739v-4.73047c83.3701 -21.2695 130.73 -87.5293 130.73 -182.799
c0 -133.67 -97.3604 -216.83 -253.16 -216.83h-49.4004v95.4004h46.0303c93.4004 0 144.53 45.5 144.53 128.9c0 83.7598 -52.7598 129.26 -149.8 129.26h-40.7598v91.4004h42.1299c84.0303 0 130.17 39.8701 130.17 112.37c0 70.6699 -46.2402 111.27 -127.8 111.27
c-81.5703 0 -128.44 -40.5996 -128.44 -111.27v-557.33h-110z" />
    <glyph glyph-name="longs" unicode="&#x17f;" horiz-adv-x="304" 
d="M298.93 764.73c51.4004 0 80.501 -9.09961 80.501 -9.09961v-86.9697h-68c-71.0303 0 -89.2002 -18.1602 -89.2002 -89.2002v-579.46h-110v433.86h-90.0703v95.5996h90.0703v48.5703c0 128.93 57.7695 186.699 186.699 186.699z" />
    <glyph glyph-name="t" unicode="t" horiz-adv-x="418" 
d="M376.8 433.86l-153.2 -0.000976562v-262.6c0 -71.0303 18.1602 -89.2002 89.2002 -89.2002h64v-86.96s-26.8398 -9.09961 -76.5 -9.09961c-128.94 0 -186.7 57.7598 -186.7 186.7v261.16h-90.0703v95.5996h90.0703v135.97h110v-135.97h153.2v-95.5996z" />
    <glyph glyph-name="tbar" unicode="&#x167;" horiz-adv-x="418" 
d="M376.8 438.8l-153.2 -0.000976562v-130.54h153.2v-90.6602h-153.2v-46.3398c0 -71.0303 18.1602 -89.2002 89.2002 -89.2002h64v-86.96s-26.8398 -9.09961 -76.5 -9.09961c-128.94 0 -186.7 57.7598 -186.7 186.7v44.9004h-90.0703v90.6602h90.0703v130.54h-90.0703
v90.6602h90.0703v135.97h110v-135.97h153.2v-90.6602z" />
    <glyph glyph-name="tcaron" unicode="&#x165;" horiz-adv-x="418" 
d="M284.95 819.96h116.12v-76.2002c0 -124.84 -100 -151.53 -100 -151.53h-16.1201v60.4404s42.7695 7.32031 51.3799 55.2305h-51.3799v112.06zM223.601 665.43v-135.971h153.2v-95.5996h-153.2v-262.6c0 -71.0303 18.1602 -89.2002 89.2002 -89.2002h64v-86.96
s-26.8398 -9.09961 -76.5 -9.09961c-128.94 0 -186.7 57.7598 -186.7 186.7v261.16h-90.0703v95.5996h90.0703v135.97h110z" />
    <glyph glyph-name="uni0163" unicode="&#x163;" horiz-adv-x="418" 
d="M376.8 433.86l-153.198 -0.000976562v-262.6c0 -71.0303 18.1602 -89.2002 89.2002 -89.2002h64v-86.96s-26.8398 -9.09961 -76.5 -9.09961c-1.41992 0 -2.83008 0 -4.24023 0.0195312l-7.73047 -23.29h1.62988c49.6699 0 80.4004 -30 80.4004 -77.2002
c0 -57.0996 -41.7305 -88.7295 -117.86 -88.7295c-39.9404 0 -64.6709 6 -64.6709 6v70.7002h49.9004c23.5303 0 33.7998 8.25977 33.7998 26.4297s-10.2695 26.0703 -33.7998 26.0703h-23.5303v16.7305l16.9697 50.3604c-80.6602 18.96 -117.57 76.5498 -117.57 179.609
v261.16h-90.0703v95.5996h90.0703v135.97h110v-135.97h153.2v-95.5996z" />
    <glyph glyph-name="uni021B" unicode="&#x21b;" horiz-adv-x="418" 
d="M376.8 433.86l-153.2 -0.000976562v-262.6c0 -71.0303 18.1602 -89.2002 89.2002 -89.2002h64v-86.96s-26.8398 -9.09961 -76.5 -9.09961c-128.94 0 -186.7 57.7598 -186.7 186.7v261.16h-90.0703v95.5996h90.0703v135.97h110v-135.97h153.2v-95.5996zM207.76 -174.57
l-0.000976562 116.329h120.54v-79.0996c0 -129.6 -103.8 -157.3 -103.8 -157.3h-16.7402v62.7402s44.4004 7.59961 53.3408 57.3301h-53.3398z" />
    <glyph glyph-name="uni1E6D" unicode="&#x1e6d;" horiz-adv-x="418" 
d="M376.8 433.86l-153.2 -0.000976562v-262.6c0 -71.0303 18.1602 -89.2002 89.2002 -89.2002h64v-86.96s-26.8398 -9.09961 -76.5 -9.09961c-128.94 0 -186.7 57.7598 -186.7 186.7v261.16h-90.0703v95.5996h90.0703v135.97h110v-135.97h153.2v-95.5996zM213.029 -174.171
v115.93h110v-115.93h-110z" />
    <glyph glyph-name="u" unicode="u" horiz-adv-x="641" 
d="M557.93 529.46l0.000976562 -529.46h-100.9v83.0596h-4.73047c-38.7402 -65.1602 -98.6406 -97.0605 -181.07 -97.0605c-126.63 0 -198.63 78.2002 -198.63 215.23v328.23h110v-330.73c0 -75.9004 39.2305 -117.33 111.101 -117.33
c94.2998 0 154.229 69.1299 154.229 179.36v268.7h110z" />
    <glyph glyph-name="uacute" unicode="&#xfa;" horiz-adv-x="641" 
d="M257.63 584l0.000976562 16.7305l77.9697 149.27h123.16v-16.7402l-120.23 -149.26h-80.9004zM557.931 529.461l0.000976562 -529.46h-100.9v83.0596h-4.73047c-38.7402 -65.1602 -98.6406 -97.0605 -181.07 -97.0605c-126.63 0 -198.63 78.2002 -198.63 215.23v328.23
h110v-330.73c0 -75.9004 39.2305 -117.33 111.101 -117.33c94.2998 0 154.229 69.1299 154.229 179.36v268.7h110z" />
    <glyph glyph-name="ubreve" unicode="&#x16d;" horiz-adv-x="641" 
d="M314.5 592.53c-74.6699 0 -127.24 37.4697 -144.34 103.029v16.7402h83.6396c6 -29.7002 26.9004 -44.2402 60.7002 -44.2402s54.3301 14.54 60.3301 44.2402h84l-0.370117 -16.7402c-18.46 -65.5596 -71.0303 -103.029 -143.96 -103.029zM557.93 529.46
l0.000976562 -529.46h-100.9v83.0596h-4.73047c-38.7402 -65.1602 -98.6406 -97.0605 -181.07 -97.0605c-126.63 0 -198.63 78.2002 -198.63 215.23v328.23h110v-330.73c0 -75.9004 39.2305 -117.33 111.101 -117.33c94.2998 0 154.229 69.1299 154.229 179.36v268.7h110z
" />
    <glyph glyph-name="uni01D4" unicode="&#x1d4;" horiz-adv-x="641" 
d="M257.86 594.53l-98.002 114.3v16.7305h96.0703l55.5703 -69.9297h5.36035l55.5703 69.9297h96.0703v-16.7305l-97.6396 -114.3h-113zM557.929 529.46l0.000976562 -529.46h-100.9v83.0596h-4.73047c-38.7402 -65.1602 -98.6406 -97.0605 -181.07 -97.0605
c-126.63 0 -198.63 78.2002 -198.63 215.23v328.23h110v-330.73c0 -75.9004 39.2305 -117.33 111.101 -117.33c94.2998 0 154.229 69.1299 154.229 179.36v268.7h110z" />
    <glyph glyph-name="ucircumflex" unicode="&#xfb;" horiz-adv-x="641" 
d="M159.86 594.53l0.00195312 16.7305l98 114.3h113l97.6396 -114.3v-16.7305h-96.0703l-55.5703 69.9297h-5.36035l-55.5703 -69.9297h-96.0703zM557.933 529.461l0.000976562 -529.46h-100.9v83.0596h-4.73047c-38.7402 -65.1602 -98.6406 -97.0605 -181.07 -97.0605
c-126.63 0 -198.63 78.2002 -198.63 215.23v328.23h110v-330.73c0 -75.9004 39.2305 -117.33 111.101 -117.33c94.2998 0 154.229 69.1299 154.229 179.36v268.7h110z" />
    <glyph glyph-name="uni0215" unicode="&#x215;" horiz-adv-x="641" 
d="M184.83 584l-120.229 149.26v16.7402h106.43l95 -149.27v-16.7305h-81.2002zM361.4 584l-95 149.26v16.7402h99.7598l75.4404 -149.27v-16.7305h-80.2002zM557.931 529.46l0.000976562 -529.46h-100.9v83.0596h-4.73047
c-38.7402 -65.1602 -98.6406 -97.0605 -181.07 -97.0605c-126.63 0 -198.63 78.2002 -198.63 215.23v328.23h110v-330.73c0 -75.9004 39.2305 -117.33 111.101 -117.33c94.2998 0 154.229 69.1299 154.229 179.36v268.7h110z" />
    <glyph glyph-name="udieresis" unicode="&#xfc;" horiz-adv-x="641" 
d="M156.66 634.8v115.2h107.27v-115.2h-107.27zM363.8 634.8v115.2h107.26v-115.2h-107.26zM557.93 529.46l0.000976562 -529.46h-100.9v83.0596h-4.73047c-38.7402 -65.1602 -98.6406 -97.0605 -181.07 -97.0605c-126.63 0 -198.63 78.2002 -198.63 215.23v328.23h110
v-330.73c0 -75.9004 39.2305 -117.33 111.101 -117.33c94.2998 0 154.229 69.1299 154.229 179.36v268.7h110z" />
    <glyph glyph-name="uni1EE5" unicode="&#x1ee5;" horiz-adv-x="641" 
d="M557.93 529.46l0.000976562 -529.46h-100.9v83.0596h-4.73047c-38.7402 -65.1602 -98.6406 -97.0605 -181.07 -97.0605c-126.63 0 -198.63 78.2002 -198.63 215.23v328.23h110v-330.73c0 -75.9004 39.2305 -117.33 111.101 -117.33
c94.2998 0 154.229 69.1299 154.229 179.36v268.7h110zM258.86 -174.17v115.93h110v-115.93h-110z" />
    <glyph glyph-name="ugrave" unicode="&#xf9;" horiz-adv-x="641" 
d="M289.2 584l-120.239 149.26v16.7402h123.17l77.9697 -149.27v-16.7305h-80.9004zM557.931 529.46l0.000976562 -529.46h-100.9v83.0596h-4.73047c-38.7402 -65.1602 -98.6406 -97.0605 -181.07 -97.0605c-126.63 0 -198.63 78.2002 -198.63 215.23v328.23h110v-330.73
c0 -75.9004 39.2305 -117.33 111.101 -117.33c94.2998 0 154.229 69.1299 154.229 179.36v268.7h110z" />
    <glyph glyph-name="uhungarumlaut" unicode="&#x171;" horiz-adv-x="641" 
d="M186.13 584l0.000976562 16.7305l75.4297 149.27h99.7695v-16.7402l-95 -149.26h-80.2002zM361.701 584l0.000976562 16.7305l95 149.27h106.43v-16.7402l-120.23 -149.26h-81.2002zM557.933 529.461l0.000976562 -529.46h-100.9v83.0596h-4.73047
c-38.7402 -65.1602 -98.6406 -97.0605 -181.07 -97.0605c-126.63 0 -198.63 78.2002 -198.63 215.23v328.23h110v-330.73c0 -75.9004 39.2305 -117.33 111.101 -117.33c94.2998 0 154.229 69.1299 154.229 179.36v268.7h110z" />
    <glyph glyph-name="umacron" unicode="&#x16b;" horiz-adv-x="641" 
d="M155.26 626.6v80.7998h319.2v-80.7998h-319.2zM557.93 529.459l0.000976562 -529.46h-100.9v83.0596h-4.73047c-38.7402 -65.1602 -98.6406 -97.0605 -181.07 -97.0605c-126.63 0 -198.63 78.2002 -198.63 215.23v328.23h110v-330.73
c0 -75.9004 39.2305 -117.33 111.101 -117.33c94.2998 0 154.229 69.1299 154.229 179.36v268.7h110z" />
    <glyph glyph-name="uogonek" unicode="&#x173;" horiz-adv-x="641" 
d="M447.93 529.46l110.001 0.00292969v-529.46h-10.2695s-85.2305 -24.3398 -85.2305 -79.8701c0 -23.1699 13.5303 -35.0703 40.3301 -35.0703c17.2695 0 28.1699 7.63965 28.1699 7.63965h16.7305v-77.4404s-22.8301 -8.73047 -64.4004 -8.73047
c-72.8301 0 -113.93 33.6299 -113.93 91.2695c0 56.5195 44.6396 89.4795 87.6992 108.119v77.1396h-4.73047c-38.7402 -65.1602 -98.6406 -97.0605 -181.07 -97.0605c-126.63 0 -198.63 78.2002 -198.63 215.23v328.23h110v-330.73
c0 -75.9004 39.2305 -117.33 111.101 -117.33c94.2998 0 154.229 69.1299 154.229 179.36v268.7z" />
    <glyph glyph-name="uring" unicode="&#x16f;" horiz-adv-x="641" 
d="M313.86 580.9c-69.4004 0 -118.96 49.5596 -118.96 113.5c0 63.9297 50.5596 113.5 118.96 113.5c71.04 0 119.6 -49.5703 119.6 -113.5c0 -63.2998 -50.9297 -113.5 -119.6 -113.5zM313.86 652.431c24.4404 0 42.6006 17.5303 42.6006 41.9707
c0 24.4297 -17.1602 41.96 -42.6006 41.96c-23.7998 0 -41.3301 -17.5303 -41.3301 -41.96c0 -24.4404 16.5303 -41.9707 41.3301 -41.9707zM557.931 529.461l0.000976562 -529.46h-100.9v83.0596h-4.73047c-38.7402 -65.1602 -98.6406 -97.0605 -181.07 -97.0605
c-126.63 0 -198.63 78.2002 -198.63 215.23v328.23h110v-330.73c0 -75.9004 39.2305 -117.33 111.101 -117.33c94.2998 0 154.229 69.1299 154.229 179.36v268.7h110z" />
    <glyph glyph-name="utilde" unicode="&#x169;" horiz-adv-x="641" 
d="M376.07 593.97c-57.6299 0 -83.3193 40.8906 -121.419 40.8906c-20.6299 0 -32.2598 -12.6299 -34.2598 -36.8994h-69.1299v16.7305c8 65.0303 44.4697 102.601 99.3994 102.601c58.2695 0 85.2998 -40.5303 122.399 -40.5303c20.2695 0 32.2695 12.2695 34.6396 36.5391
h68.7695v-16.7305c-7.62988 -65.0303 -44.0996 -102.601 -100.399 -102.601zM557.921 529.46l-0.00878906 -529.461h-100.9v83.0703h-4.73047c-38.7305 -65.1699 -98.6309 -97.0703 -181.061 -97.0703c-126.63 0 -198.63 78.2002 -198.63 215.23v328.23h110v-330.73
c0 -75.9004 39.2305 -117.33 111.101 -117.33c94.2998 0 154.229 69.1299 154.229 179.36v268.7h110z" />
    <glyph glyph-name="v" unicode="v" horiz-adv-x="559" 
d="M223.23 0l-202.271 512.73v16.7305h114.4l143.87 -384.56h2l144.33 384.56h112.67v-16.7305l-203 -512.73h-112z" />
    <glyph glyph-name="w" unicode="w" horiz-adv-x="852" 
d="M194.13 0l-170.17 512.73v16.7305h110.84l121.16 -378.6h2l120.74 378.6h95.2305l121.1 -378.6h1l123.43 378.6h108.84v-16.7305l-172.8 -512.73h-108l-121 373.3h-2l-122.37 -373.3h-108z" />
    <glyph glyph-name="wacute" unicode="&#x1e83;" horiz-adv-x="852" 
d="M371.26 584l0.000976562 16.7305l77.9697 149.27h123.17v-16.7402l-120.24 -149.26h-80.9004zM194.131 0l-170.17 512.73v16.7305h110.84l121.16 -378.6h2l120.74 378.6h95.2305l121.1 -378.6h1l123.43 378.6h108.84v-16.7305l-172.8 -512.73h-108l-121 373.3h-2
l-122.37 -373.3h-108z" />
    <glyph glyph-name="wcircumflex" unicode="&#x175;" horiz-adv-x="852" 
d="M273.5 594.53v16.7305l98 114.3h113l97.6299 -114.3v-16.7305h-96.0703l-55.5596 69.9297h-5.37012l-55.5703 -69.9297h-96.0596zM194.13 0.000976562l-170.17 512.73v16.7305h110.84l121.16 -378.6h2l120.74 378.6h95.2305l121.1 -378.6h1l123.43 378.6h108.84v-16.7305
l-172.8 -512.73h-108l-121 373.3h-2l-122.37 -373.3h-108z" />
    <glyph glyph-name="wdieresis" unicode="&#x1e85;" horiz-adv-x="852" 
d="M270.3 634.8v115.2h107.26v-115.2h-107.26zM477.43 634.8v115.2h107.27v-115.2h-107.27zM194.13 0l-170.17 512.73v16.7305h110.84l121.16 -378.6h2l120.74 378.6h95.2305l121.1 -378.6h1l123.43 378.6h108.84v-16.7305l-172.8 -512.73h-108l-121 373.3h-2
l-122.37 -373.3h-108z" />
    <glyph glyph-name="wgrave" unicode="&#x1e81;" horiz-adv-x="852" 
d="M402.83 584l-120.229 149.26v16.7402h123.16l77.9697 -149.27v-16.7305h-80.9004zM194.131 -0l-170.17 512.73v16.7305h110.84l121.16 -378.6h2l120.74 378.6h95.2305l121.1 -378.6h1l123.43 378.6h108.84v-16.7305l-172.8 -512.73h-108l-121 373.3h-2l-122.37 -373.3
h-108z" />
    <glyph glyph-name="x" unicode="x" horiz-adv-x="548" 
d="M22.96 0v16.7305l187.54 255l-179.54 241v16.7305h122.67l119.7 -171.6l118.33 171.6h122.67v-16.7305l-177.53 -241l189.53 -255v-16.7305h-122.67l-129.33 184.96l-128.7 -184.96h-122.67z" />
    <glyph glyph-name="y" unicode="y" horiz-adv-x="572" 
d="M438.36 529.46l113.398 -0.00195312l-0.629883 -16.7305l-263.77 -616.97c-42.4004 -97.6299 -88.5303 -133.3 -175.061 -133.3c-39.7695 0 -59.2393 6.74023 -59.2393 6.74023v93.2305h47.2002c45.7402 0 65.7402 14.6299 86.7402 64.5303l42.6602 99.1904
l-209.7 486.58v16.7305h116.4l149.87 -366h2z" />
    <glyph glyph-name="yacute" unicode="&#xfd;" horiz-adv-x="572" 
d="M430.76 733.26l-120.229 -149.26h-80.9004v16.7305l77.9697 149.27h123.16v-16.7402zM438.36 529.46l113.398 -0.00195312l-0.629883 -16.7305l-263.77 -616.97c-42.4004 -97.6299 -88.5303 -133.3 -175.061 -133.3c-39.7695 0 -59.2393 6.74023 -59.2393 6.74023
v93.2305h47.2002c45.7402 0 65.7402 14.6299 86.7402 64.5303l42.6602 99.1904l-209.7 486.58v16.7305h116.4l149.87 -366h2z" />
    <glyph glyph-name="ycircumflex" unicode="&#x177;" horiz-adv-x="572" 
d="M283.5 664.46l-55.5684 -69.9297h-96.0703v16.7305l98 114.3h113l97.6396 -114.3v-16.7305h-96.0703l-55.5703 69.9297h-5.36035zM438.361 529.46l113.398 -0.00195312l-0.629883 -16.7305l-263.77 -616.97c-42.4004 -97.6299 -88.5303 -133.3 -175.061 -133.3
c-39.7695 0 -59.2393 6.74023 -59.2393 6.74023v93.2305h47.2002c45.7402 0 65.7402 14.6299 86.7402 64.5303l42.6602 99.1904l-209.7 486.58v16.7305h116.4l149.87 -366h2z" />
    <glyph glyph-name="ydieresis" unicode="&#xff;" horiz-adv-x="572" 
d="M235.93 750v-115.2h-107.27v115.2h107.27zM443.06 750v-115.2h-107.26v115.2h107.26zM438.359 529.46l113.398 -0.00195312l-0.629883 -16.7305l-263.77 -616.97c-42.4004 -97.6299 -88.5303 -133.3 -175.061 -133.3c-39.7695 0 -59.2393 6.74023 -59.2393 6.74023
v93.2305h47.2002c45.7402 0 65.7402 14.6299 86.7402 64.5303l42.6602 99.1904l-209.7 486.58v16.7305h116.4l149.87 -366h2z" />
    <glyph glyph-name="uni1EF5" unicode="&#x1ef5;" horiz-adv-x="572" 
d="M438.36 529.46l113.398 -0.00195312l-0.629883 -16.7305l-263.77 -616.97c-42.4004 -97.6299 -88.5303 -133.3 -175.061 -133.3c-39.7695 0 -59.2393 6.74023 -59.2393 6.74023v93.2305h47.2002c45.7402 0 65.7402 14.6299 86.7402 64.5303l42.6602 99.1904
l-209.7 486.58v16.7305h116.4l149.87 -366h2zM404.499 -174.172v115.93h110v-115.93h-110z" />
    <glyph glyph-name="ygrave" unicode="&#x1ef3;" horiz-adv-x="572" 
d="M342.1 584h-80.8994l-120.24 149.26v16.7402h123.17l77.9697 -149.27v-16.7305zM438.36 529.46l113.398 -0.00195312l-0.629883 -16.7305l-263.77 -616.97c-42.4004 -97.6299 -88.5303 -133.3 -175.061 -133.3c-39.7695 0 -59.2393 6.74023 -59.2393 6.74023v93.2305
h47.2002c45.7402 0 65.7402 14.6299 86.7402 64.5303l42.6602 99.1904l-209.7 486.58v16.7305h116.4l149.87 -366h2z" />
    <glyph glyph-name="uni1EF9" unicode="&#x1ef9;" horiz-adv-x="572" 
d="M348.07 593.97c-57.6299 0 -83.3193 40.8906 -121.419 40.8906c-20.6299 0 -32.2598 -12.6299 -34.2598 -36.8994h-69.1299v16.7305c8 65.0303 44.4697 102.601 99.3994 102.601c58.2695 0 85.2998 -40.5303 122.399 -40.5303c20.2695 0 32.2695 12.2695 34.6396 36.5391
h68.7695v-16.7305c-7.62988 -65.0303 -44.0996 -102.601 -100.399 -102.601zM438.351 529.46l113.398 0.0078125l-0.629883 -16.7305l-263.77 -616.97c-42.4004 -97.6299 -88.5303 -133.3 -175.061 -133.3c-39.7695 0 -59.2393 6.73047 -59.2393 6.73047v93.2305h47.2002
c45.7305 0 65.7305 14.6299 86.7305 64.5303l42.6602 99.1904l-209.69 486.58v16.7305h116.4l149.87 -366h2z" />
    <glyph glyph-name="z" unicode="z" horiz-adv-x="550" 
d="M192.15 97.5996h315.609v-97.5996h-469.13v81.7598l313.61 350.1h-300.88v97.5996h454.4v-81.7598z" />
    <glyph glyph-name="zacute" unicode="&#x17a;" horiz-adv-x="550" 
d="M422.96 733.26l-120.229 -149.26h-80.9004v16.7305l77.9697 149.27h123.16v-16.7402zM192.15 97.5996h315.609v-97.5996h-469.13v81.7598l313.61 350.1h-300.88v97.5996h454.4v-81.7598z" />
    <glyph glyph-name="zcaron" unicode="&#x17e;" horiz-adv-x="550" 
d="M335.06 594.53h-113.002l-98 114.3v16.7305h96.0703l55.5703 -69.9297h5.36035l55.5703 69.9297h96.0703v-16.7305zM192.147 97.6006h315.609v-97.5996h-469.13v81.7598l313.61 350.1h-300.88v97.5996h454.4v-81.7598z" />
    <glyph glyph-name="zdotaccent" unicode="&#x17c;" horiz-adv-x="550" 
d="M333.06 750v-115.94h-110v115.94h110zM192.149 97.5996h315.609v-97.5996h-469.13v81.7598l313.61 350.1h-300.88v97.5996h454.4v-81.7598z" />
    <glyph glyph-name="uni1E93" unicode="&#x1e93;" horiz-adv-x="550" 
d="M192.15 97.5996h315.609v-97.5996h-469.13v81.7598l313.61 350.1h-300.88v97.5996h454.4v-81.7598zM218.7 -174.17v115.93h110v-115.93h-110z" />
    <glyph glyph-name="a.ss01" horiz-adv-x="598" 
d="M237.06 -12c-122.73 0 -193.101 53.999 -193.101 146.999c0 104 60 154.36 200.37 170.101c141.93 15.2598 169.5 25.96 169.5 70.7002c0 48.5996 -40.7695 75.5596 -115.43 75.5596c-74.04 0 -115.17 -26.96 -115.17 -85.5596h-111.27
c0 112.03 86.3701 175.66 225.44 175.66c139.06 0 225.43 -65.2598 225.43 -169.029v-276.63c0 -49.6396 12.7305 -79.0693 12.7305 -79.0693v-16.7305h-98.1602s-17.6396 26.0596 -17.6396 74.6592v2h-4.73047c-30.7002 -56.2305 -95.6006 -88.6602 -177.971 -88.6602z
M248.76 72.8994c98.5703 0 164.07 67.3994 164.07 169.76v21.4404h-6c-22.4297 -22.4404 -60.0293 -33.3408 -142.229 -41.9707c-79.5703 -8.26953 -108.641 -30.0693 -108.641 -82.5693c0 -44.2305 30.5996 -66.6602 92.7998 -66.6602z" />
    <glyph glyph-name="aacute.ss01" horiz-adv-x="598" 
d="M244.63 584l0.000976562 16.7305l77.9697 149.27h123.16v-16.7402l-120.23 -149.26h-80.9004zM237.061 -12c-122.73 0 -193.101 53.999 -193.101 146.999c0 104 60 154.36 200.37 170.101c141.93 15.2598 169.5 25.96 169.5 70.7002
c0 48.5996 -40.7695 75.5596 -115.43 75.5596c-74.04 0 -115.17 -26.96 -115.17 -85.5596h-111.27c0 112.03 86.3701 175.66 225.44 175.66c139.06 0 225.43 -65.2598 225.43 -169.029v-276.63c0 -49.6396 12.7305 -79.0693 12.7305 -79.0693v-16.7305h-98.1602
s-17.6396 26.0596 -17.6396 74.6592v2h-4.73047c-30.7002 -56.2305 -95.6006 -88.6602 -177.971 -88.6602zM248.761 72.8994c98.5703 0 164.07 67.3994 164.07 169.76v21.4404h-6c-22.4297 -22.4404 -60.0293 -33.3408 -142.229 -41.9707
c-79.5703 -8.26953 -108.641 -30.0693 -108.641 -82.5693c0 -44.2305 30.5996 -66.6602 92.7998 -66.6602z" />
    <glyph glyph-name="abreve.ss01" horiz-adv-x="598" 
d="M301.5 592.53c-74.6699 0 -127.24 37.4697 -144.34 103.029v16.7402h83.6396c6 -29.7002 26.9004 -44.2402 60.7002 -44.2402s54.3301 14.54 60.3301 44.2402h84l-0.370117 -16.7402c-18.46 -65.5596 -71.0303 -103.029 -143.96 -103.029zM237.06 -12
c-122.73 0 -193.101 53.999 -193.101 146.999c0 104 60 154.36 200.37 170.101c141.93 15.2598 169.5 25.96 169.5 70.7002c0 48.5996 -40.7695 75.5596 -115.43 75.5596c-74.04 0 -115.17 -26.96 -115.17 -85.5596h-111.27c0 112.03 86.3701 175.66 225.44 175.66
c139.06 0 225.43 -65.2598 225.43 -169.029v-276.63c0 -49.6396 12.7305 -79.0693 12.7305 -79.0693v-16.7305h-98.1602s-17.6396 26.0596 -17.6396 74.6592v2h-4.73047c-30.7002 -56.2305 -95.6006 -88.6602 -177.971 -88.6602zM248.76 72.8994
c98.5703 0 164.07 67.3994 164.07 169.76v21.4404h-6c-22.4297 -22.4404 -60.0293 -33.3408 -142.229 -41.9707c-79.5703 -8.26953 -108.641 -30.0693 -108.641 -82.5693c0 -44.2305 30.5996 -66.6602 92.7998 -66.6602z" />
    <glyph glyph-name="uni1EB7.ss01" horiz-adv-x="598" 
d="M301.5 592.53c-74.6699 0 -127.24 37.4697 -144.34 103.029v16.7402h83.6396c6 -29.7002 26.9004 -44.2402 60.7002 -44.2402s54.3301 14.54 60.3301 44.2402h84l-0.370117 -16.7402c-18.46 -65.5596 -71.0303 -103.029 -143.96 -103.029zM237.06 -12
c-122.73 0 -193.101 53.999 -193.101 146.999c0 104 60 154.36 200.37 170.101c141.93 15.2598 169.5 25.96 169.5 70.7002c0 48.5996 -40.7695 75.5596 -115.43 75.5596c-74.04 0 -115.17 -26.96 -115.17 -85.5596h-111.27c0 112.03 86.3701 175.66 225.44 175.66
c139.06 0 225.43 -65.2598 225.43 -169.029v-276.63c0 -49.6396 12.7305 -79.0693 12.7305 -79.0693v-16.7305h-98.1602s-17.6396 26.0596 -17.6396 74.6592v2h-4.73047c-30.7002 -56.2305 -95.6006 -88.6602 -177.971 -88.6602zM248.76 72.8994
c98.5703 0 164.07 67.3994 164.07 169.76v21.4404h-6c-22.4297 -22.4404 -60.0293 -33.3408 -142.229 -41.9707c-79.5703 -8.26953 -108.641 -30.0693 -108.641 -82.5693c0 -44.2305 30.5996 -66.6602 92.7998 -66.6602zM231.5 -174.172v115.93h110v-115.93h-110z" />
    <glyph glyph-name="uni01CE.ss01" horiz-adv-x="598" 
d="M244.86 594.53l-98.002 114.3v16.7305h96.0703l55.5703 -69.9297h5.36035l55.5703 69.9297h96.0703v-16.7305l-97.6396 -114.3h-113zM237.059 -12c-122.73 0 -193.101 53.999 -193.101 146.999c0 104 60 154.36 200.37 170.101c141.93 15.2598 169.5 25.96 169.5 70.7002
c0 48.5996 -40.7695 75.5596 -115.43 75.5596c-74.04 0 -115.17 -26.96 -115.17 -85.5596h-111.27c0 112.03 86.3701 175.66 225.44 175.66c139.06 0 225.43 -65.2598 225.43 -169.029v-276.63c0 -49.6396 12.7305 -79.0693 12.7305 -79.0693v-16.7305h-98.1602
s-17.6396 26.0596 -17.6396 74.6592v2h-4.73047c-30.7002 -56.2305 -95.6006 -88.6602 -177.971 -88.6602zM248.759 72.8994c98.5703 0 164.07 67.3994 164.07 169.76v21.4404h-6c-22.4297 -22.4404 -60.0293 -33.3408 -142.229 -41.9707
c-79.5703 -8.26953 -108.641 -30.0693 -108.641 -82.5693c0 -44.2305 30.5996 -66.6602 92.7998 -66.6602z" />
    <glyph glyph-name="acircumflex.ss01" horiz-adv-x="598" 
d="M146.86 594.53l0.00195312 16.7305l98 114.3h113l97.6396 -114.3v-16.7305h-96.0703l-55.5703 69.9297h-5.36035l-55.5703 -69.9297h-96.0703zM237.062 -11.999c-122.73 0 -193.101 53.999 -193.101 146.999c0 104 60 154.36 200.37 170.101
c141.93 15.2598 169.5 25.96 169.5 70.7002c0 48.5996 -40.7695 75.5596 -115.43 75.5596c-74.04 0 -115.17 -26.96 -115.17 -85.5596h-111.27c0 112.03 86.3701 175.66 225.44 175.66c139.06 0 225.43 -65.2598 225.43 -169.029v-276.63
c0 -49.6396 12.7305 -79.0693 12.7305 -79.0693v-16.7305h-98.1602s-17.6396 26.0596 -17.6396 74.6592v2h-4.73047c-30.7002 -56.2305 -95.6006 -88.6602 -177.971 -88.6602zM248.763 72.9004c98.5703 0 164.07 67.3994 164.07 169.76v21.4404h-6
c-22.4297 -22.4404 -60.0293 -33.3408 -142.229 -41.9707c-79.5703 -8.26953 -108.641 -30.0693 -108.641 -82.5693c0 -44.2305 30.5996 -66.6602 92.7998 -66.6602z" />
    <glyph glyph-name="uni1EAD.ss01" horiz-adv-x="598" 
d="M146.86 594.53l0.00195312 16.7305l98 114.3h113l97.6396 -114.3v-16.7305h-96.0703l-55.5703 69.9297h-5.36035l-55.5703 -69.9297h-96.0703zM237.062 -11.999c-122.73 0 -193.101 53.999 -193.101 146.999c0 104 60 154.36 200.37 170.101
c141.93 15.2598 169.5 25.96 169.5 70.7002c0 48.5996 -40.7695 75.5596 -115.43 75.5596c-74.04 0 -115.17 -26.96 -115.17 -85.5596h-111.27c0 112.03 86.3701 175.66 225.44 175.66c139.06 0 225.43 -65.2598 225.43 -169.029v-276.63
c0 -49.6396 12.7305 -79.0693 12.7305 -79.0693v-16.7305h-98.1602s-17.6396 26.0596 -17.6396 74.6592v2h-4.73047c-30.7002 -56.2305 -95.6006 -88.6602 -177.971 -88.6602zM248.763 72.9004c98.5703 0 164.07 67.3994 164.07 169.76v21.4404h-6
c-22.4297 -22.4404 -60.0293 -33.3408 -142.229 -41.9707c-79.5703 -8.26953 -108.641 -30.0693 -108.641 -82.5693c0 -44.2305 30.5996 -66.6602 92.7998 -66.6602zM231.503 -174.171v115.93h110v-115.93h-110z" />
    <glyph glyph-name="uni0201.ss01" horiz-adv-x="598" 
d="M171.83 584l-120.229 149.26v16.7402h106.43l95 -149.27v-16.7305h-81.2002zM348.4 584l-95 149.26v16.7402h99.7598l75.4404 -149.27v-16.7305h-80.2002zM237.061 -12c-122.73 0 -193.101 53.999 -193.101 146.999c0 104 60 154.36 200.37 170.101
c141.93 15.2598 169.5 25.96 169.5 70.7002c0 48.5996 -40.7695 75.5596 -115.43 75.5596c-74.04 0 -115.17 -26.96 -115.17 -85.5596h-111.27c0 112.03 86.3701 175.66 225.44 175.66c139.06 0 225.43 -65.2598 225.43 -169.029v-276.63
c0 -49.6396 12.7305 -79.0693 12.7305 -79.0693v-16.7305h-98.1602s-17.6396 26.0596 -17.6396 74.6592v2h-4.73047c-30.7002 -56.2305 -95.6006 -88.6602 -177.971 -88.6602zM248.761 72.8994c98.5703 0 164.07 67.3994 164.07 169.76v21.4404h-6
c-22.4297 -22.4404 -60.0293 -33.3408 -142.229 -41.9707c-79.5703 -8.26953 -108.641 -30.0693 -108.641 -82.5693c0 -44.2305 30.5996 -66.6602 92.7998 -66.6602z" />
    <glyph glyph-name="adieresis.ss01" horiz-adv-x="598" 
d="M143.66 634.8v115.2h107.27v-115.2h-107.27zM350.8 634.8v115.2h107.26v-115.2h-107.26zM237.06 -12c-122.73 0 -193.101 53.999 -193.101 146.999c0 104 60 154.36 200.37 170.101c141.93 15.2598 169.5 25.96 169.5 70.7002
c0 48.5996 -40.7695 75.5596 -115.43 75.5596c-74.04 0 -115.17 -26.96 -115.17 -85.5596h-111.27c0 112.03 86.3701 175.66 225.44 175.66c139.06 0 225.43 -65.2598 225.43 -169.029v-276.63c0 -49.6396 12.7305 -79.0693 12.7305 -79.0693v-16.7305h-98.1602
s-17.6396 26.0596 -17.6396 74.6592v2h-4.73047c-30.7002 -56.2305 -95.6006 -88.6602 -177.971 -88.6602zM248.76 72.8994c98.5703 0 164.07 67.3994 164.07 169.76v21.4404h-6c-22.4297 -22.4404 -60.0293 -33.3408 -142.229 -41.9707
c-79.5703 -8.26953 -108.641 -30.0693 -108.641 -82.5693c0 -44.2305 30.5996 -66.6602 92.7998 -66.6602z" />
    <glyph glyph-name="uni1EA1.ss01" horiz-adv-x="598" 
d="M237.06 -12c-122.73 0 -193.101 53.999 -193.101 146.999c0 104 60 154.36 200.37 170.101c141.93 15.2598 169.5 25.96 169.5 70.7002c0 48.5996 -40.7695 75.5596 -115.43 75.5596c-74.04 0 -115.17 -26.96 -115.17 -85.5596h-111.27
c0 112.03 86.3701 175.66 225.44 175.66c139.06 0 225.43 -65.2598 225.43 -169.029v-276.63c0 -49.6396 12.7305 -79.0693 12.7305 -79.0693v-16.7305h-98.1602s-17.6396 26.0596 -17.6396 74.6592v2h-4.73047c-30.7002 -56.2305 -95.6006 -88.6602 -177.971 -88.6602z
M248.76 72.8994c98.5703 0 164.07 67.3994 164.07 169.76v21.4404h-6c-22.4297 -22.4404 -60.0293 -33.3408 -142.229 -41.9707c-79.5703 -8.26953 -108.641 -30.0693 -108.641 -82.5693c0 -44.2305 30.5996 -66.6602 92.7998 -66.6602zM231.5 -174.172v115.93h110v-115.93
h-110z" />
    <glyph glyph-name="agrave.ss01" horiz-adv-x="598" 
d="M276.2 584l-120.239 149.26v16.7402h123.17l77.9697 -149.27v-16.7305h-80.9004zM237.061 -12c-122.73 0 -193.101 53.999 -193.101 146.999c0 104 60 154.36 200.37 170.101c141.93 15.2598 169.5 25.96 169.5 70.7002c0 48.5996 -40.7695 75.5596 -115.43 75.5596
c-74.04 0 -115.17 -26.96 -115.17 -85.5596h-111.27c0 112.03 86.3701 175.66 225.44 175.66c139.06 0 225.43 -65.2598 225.43 -169.029v-276.63c0 -49.6396 12.7305 -79.0693 12.7305 -79.0693v-16.7305h-98.1602s-17.6396 26.0596 -17.6396 74.6592v2h-4.73047
c-30.7002 -56.2305 -95.6006 -88.6602 -177.971 -88.6602zM248.761 72.8994c98.5703 0 164.07 67.3994 164.07 169.76v21.4404h-6c-22.4297 -22.4404 -60.0293 -33.3408 -142.229 -41.9707c-79.5703 -8.26953 -108.641 -30.0693 -108.641 -82.5693
c0 -44.2305 30.5996 -66.6602 92.7998 -66.6602z" />
    <glyph glyph-name="amacron.ss01" horiz-adv-x="598" 
d="M142.26 626.6v80.7998h319.2v-80.7998h-319.2zM237.06 -12.001c-122.73 0 -193.101 53.999 -193.101 146.999c0 104 60 154.36 200.37 170.101c141.93 15.2598 169.5 25.96 169.5 70.7002c0 48.5996 -40.7695 75.5596 -115.43 75.5596
c-74.04 0 -115.17 -26.96 -115.17 -85.5596h-111.27c0 112.03 86.3701 175.66 225.44 175.66c139.06 0 225.43 -65.2598 225.43 -169.029v-276.63c0 -49.6396 12.7305 -79.0693 12.7305 -79.0693v-16.7305h-98.1602s-17.6396 26.0596 -17.6396 74.6592v2h-4.73047
c-30.7002 -56.2305 -95.6006 -88.6602 -177.971 -88.6602zM248.76 72.8984c98.5703 0 164.07 67.3994 164.07 169.76v21.4404h-6c-22.4297 -22.4404 -60.0293 -33.3408 -142.229 -41.9707c-79.5703 -8.26953 -108.641 -30.0693 -108.641 -82.5693
c0 -44.2305 30.5996 -66.6602 92.7998 -66.6602z" />
    <glyph glyph-name="aogonek.ss01" horiz-adv-x="598" 
d="M535.56 0c0 0 -85.2305 -24.3398 -85.2305 -79.8701c0 -23.1699 13.5303 -35.0703 40.3301 -35.0703c17.2695 0 28.1699 7.63965 28.1699 7.63965h16.7305v-77.4404s-22.8301 -8.73047 -64.4004 -8.73047c-72.8301 0 -113.93 33.6299 -113.93 91.2695
c0 52.71 38.8203 84.9199 78.9805 104.15c-3.95996 6.87012 -16.4502 31.8203 -16.4502 72.71v2h-4.73047c-30.7002 -56.2305 -95.6006 -88.6602 -177.971 -88.6602c-122.73 0 -193.101 54 -193.101 147c0 104 60 154.36 200.37 170.101
c141.93 15.2598 169.5 25.96 169.5 70.7002c0 48.5996 -40.7695 75.5596 -115.43 75.5596c-74.04 0 -115.17 -26.96 -115.17 -85.5596h-111.27c0 112.03 86.3701 175.66 225.44 175.66c139.06 0 225.43 -65.2598 225.43 -169.029v-276.63
c0 -49.6396 12.7305 -79.0693 12.7305 -79.0693v-16.7305zM412.829 242.66v21.4395h-6c-22.4297 -22.4404 -60.0293 -33.3408 -142.229 -41.9707c-79.5703 -8.26953 -108.641 -30.0693 -108.641 -82.5693c0 -44.2305 30.5996 -66.6602 92.7998 -66.6602
c98.5703 0 164.07 67.4004 164.07 169.761z" />
    <glyph glyph-name="aring.ss01" horiz-adv-x="598" 
d="M300.86 580.9c-69.4004 0 -118.96 49.5596 -118.96 113.5c0 63.9297 50.5596 113.5 118.96 113.5c71.04 0 119.6 -49.5703 119.6 -113.5c0 -63.2998 -50.9297 -113.5 -119.6 -113.5zM300.86 652.431c24.4404 0 42.6006 17.5303 42.6006 41.9707
c0 24.4297 -17.1602 41.96 -42.6006 41.96c-23.7998 0 -41.3301 -17.5303 -41.3301 -41.96c0 -24.4404 16.5303 -41.9707 41.3301 -41.9707zM237.061 -11.999c-122.73 0 -193.101 53.999 -193.101 146.999c0 104 60 154.36 200.37 170.101
c141.93 15.2598 169.5 25.96 169.5 70.7002c0 48.5996 -40.7695 75.5596 -115.43 75.5596c-74.04 0 -115.17 -26.96 -115.17 -85.5596h-111.27c0 112.03 86.3701 175.66 225.44 175.66c139.06 0 225.43 -65.2598 225.43 -169.029v-276.63
c0 -49.6396 12.7305 -79.0693 12.7305 -79.0693v-16.7305h-98.1602s-17.6396 26.0596 -17.6396 74.6592v2h-4.73047c-30.7002 -56.2305 -95.6006 -88.6602 -177.971 -88.6602zM248.761 72.9004c98.5703 0 164.07 67.3994 164.07 169.76v21.4404h-6
c-22.4297 -22.4404 -60.0293 -33.3408 -142.229 -41.9707c-79.5703 -8.26953 -108.641 -30.0693 -108.641 -82.5693c0 -44.2305 30.5996 -66.6602 92.7998 -66.6602z" />
    <glyph glyph-name="atilde.ss01" horiz-adv-x="598" 
d="M363.07 593.97c-57.6299 0 -83.3193 40.8906 -121.419 40.8906c-20.6299 0 -32.2598 -12.6299 -34.2598 -36.8994h-69.1299v16.7305c8 65.0303 44.4697 102.601 99.3994 102.601c58.2695 0 85.2998 -40.5303 122.399 -40.5303c20.2695 0 32.2695 12.2695 34.6396 36.5391
h68.7695v-16.7305c-7.62988 -65.0303 -44.0996 -102.601 -100.399 -102.601zM237.051 -12.0098c-122.73 0 -193.111 53.9883 -193.111 146.988c0 104 60 154.37 200.37 170.101c141.93 15.2695 169.5 25.9697 169.5 70.7002c0 48.5996 -40.7695 75.5693 -115.439 75.5693
c-74.0303 0 -115.16 -26.9697 -115.16 -85.5693h-111.27c0 112.03 86.3701 175.66 225.44 175.66s225.44 -65.2695 225.44 -169.039v-276.63c0 -49.6299 12.7305 -79.0596 12.7305 -79.0596v-16.7305h-98.1699s-17.6299 26.0703 -17.6299 74.6699v2h-4.73047
c-30.7002 -56.2305 -95.6006 -88.6602 -177.971 -88.6602zM248.74 72.8789c98.5703 0 164.07 67.3896 164.07 169.76v21.4297h-6c-22.4297 -22.4297 -60.0293 -33.3301 -142.229 -41.96c-79.5703 -8.26953 -108.641 -30.0693 -108.641 -82.5693
c0 -44.2305 30.5996 -66.6602 92.7998 -66.6602z" />
    <glyph glyph-name="D_O" horiz-adv-x="1114" 
d="M704.93 766c216.3 0 357.329 -153.37 357.329 -388c0 -236.9 -145.86 -394 -358.801 -394c-65.6104 0 -124.15 14.0098 -173.91 40.1699c-43.29 -15.96 -92.9697 -24.1699 -148.59 -24.1699h-289v750h291c55.3604 0 104.971 -8.62988 148.251 -25.3496
c50.1504 26.7695 108.771 41.3496 173.721 41.3496zM703.459 88.5303c152.84 0 237.17 103.029 237.17 289.47c0 177.16 -87.5 283.46 -235.7 283.46c-23.7695 0 -45.9297 -2.55957 -66.3799 -7.56934c61.6904 -64.5 95.0107 -159.98 95.0107 -281.891
c0 -119.73 -32.3701 -213.131 -93.1504 -276.4c19.54 -4.67969 40.5801 -7.06934 63.0498 -7.06934zM375.499 104.159c18.9004 0 36.6787 1.29883 53.3291 3.87891c-53.1201 67.4004 -82.7002 159.601 -82.7002 269.961c0 106.19 30.8604 196.921 85.0508 263.881
c-16.7402 2.63965 -34.6299 3.94922 -53.6797 3.94922h-167.54v-541.67h165.54zM537.067 155.578c49.8203 43.96 74.8594 116.11 74.8594 216.42c0 105.13 -25.04 178.99 -75.1299 223.29c-45.04 -48.46 -69.04 -122.3 -69.04 -217.29
c0 -97.4902 24.2402 -173 69.3105 -222.42z" />
    <glyph glyph-name="E_D" horiz-adv-x="1206" 
d="M803.4 750c221.03 0 350.601 -137.64 350.601 -378c0 -238 -127.94 -372 -352.601 -372h-709.44v750h711.44zM795.931 104.53c157.1 0 236.43 88.9297 236.43 267.47c0 185.7 -78.1299 274.83 -234.43 274.83h-587.97v-213.93h391.37v-101.8h-391.37v-226.57h585.97z" />
    <glyph glyph-name="H_D" horiz-adv-x="1287" 
d="M885.4 750c221.03 0 350.601 -137.64 350.601 -378c0 -238 -127.94 -372 -352.601 -372h-289.37v330.1h-384.07v-330.1h-118v750h118v-316.1h384.07v316.1h291.37zM877.931 104.53c157.1 0 236.43 88.9297 236.43 267.47c0 185.7 -78.1299 274.83 -234.43 274.83h-167.9
v-542.3h165.9z" />
    <glyph glyph-name="H_E" horiz-adv-x="1184" 
d="M712.03 104.53h419.37v-104.53h-537.37v330.1h-384.07v-330.1h-118v750h118v-316.1h384.07v316.1h533.37v-103.17h-415.37v-213.93h391.37v-101.8h-391.37v-226.57z" />
    <glyph glyph-name="H_H" horiz-adv-x="1306" 
d="M1096.1 750h118v-750h-118v330.1h-384.07v-330.1h-118v330.1h-384.07v-330.1h-118v750h118v-316.1h384.07v316.1h118v-316.1h384.07v316.1z" />
    <glyph glyph-name="H_T" horiz-adv-x="1382" 
d="M1353.66 750v-103.17h-260.16v-646.83h-118v646.83h-263.47v-646.83h-118v330.1h-384.07v-330.1h-118v750h118v-316.1h384.07v316.1h759.63z" />
    <glyph glyph-name="H_U" horiz-adv-x="1302" 
d="M1109.56 750h115.271v-446.5c0 -203.3 -114.67 -319.5 -314.9 -319.5c-201.23 0 -315.9 116.2 -315.9 319.5v26.5996h-384.07v-330.1h-118v750h118v-316.1h384.07v316.1h118v-453.6c0 -139 65.9697 -207.87 197.899 -207.87c134.3 0 199.63 68.8701 199.63 207.87v453.6z
" />
    <glyph glyph-name="I_J" horiz-adv-x="679" 
d="M70.9004 362.16v387.84h120v-387.84h-120zM335.801 -16c-167.24 0 -263.54 99.46 -263.54 272.4h116.64c0 -113.84 47.5 -167.87 146.9 -167.87c100.03 0 147.53 54.0303 147.53 167.87v493.6h118v-489.24c0 -175.93 -96.6699 -276.76 -265.53 -276.76z" />
    <glyph glyph-name="I_T" horiz-adv-x="803" 
d="M774.06 750l0.000976562 -103.17h-260.16v-646.83h-118v646.83h-303.94v103.17h682.1zM91.9609 0v541.06h120v-541.06h-120z" />
    <glyph glyph-name="I_T_I" horiz-adv-x="910" 
d="M817.83 750v-103.17h-303.93v-646.83h-118v646.83h-303.94v103.17h725.87zM91.96 0v541.06h120v-541.06h-120zM697.83 -0v541.06h120v-541.06h-120z" />
    <glyph glyph-name="L_A" horiz-adv-x="1202" 
d="M892.13 750l285.07 -733.27v-16.7305h-120.47l-63.8398 171.7h-333.16l-64.4004 -171.7h-503.37v750h119.37v-643.47h300.06l251.91 643.47h128.83zM696.65 270.131h259.64l-128.26 344.97h-2z" />
    <glyph glyph-name="L_I" horiz-adv-x="687" 
d="M211.33 106.53h384v-106.53h-503.37v750h119.37v-643.47zM534.8 750v-537.7h-120v537.7h120z" />
    <glyph glyph-name="M_D" horiz-adv-x="1453" 
d="M1051.1 750c221.03 0 350.601 -137.64 350.601 -378c0 -238 -127.94 -372 -352.601 -372h-283.9v551.36l3.36035 46.6699h-4.73047l-231.37 -598.03h-91.5l-234.46 595.66h-4.74023l2.74023 -44.2998v-551.36h-112.54v750h166.44l226.26 -584.7h4.74023l222.53 584.7
h339.17zM1043.63 104.53c157.1 0 236.43 88.9297 236.43 267.47c0 185.7 -78.1299 274.83 -234.43 274.83h-167.9v-542.3h165.9z" />
    <glyph glyph-name="M_E" horiz-adv-x="1349" 
d="M877.73 104.53h419.37v-104.53h-531.9v551.36l3.36035 46.6699h-4.73047l-231.37 -598.03h-91.5l-234.46 595.66h-4.74023l2.74023 -44.2998v-551.36h-112.54v750h166.44l226.26 -584.7h4.74023l222.53 584.7h581.17v-103.17h-415.37v-213.93h391.37v-101.8h-391.37
v-226.57z" />
    <glyph glyph-name="M_U" horiz-adv-x="1469" 
d="M1275.26 750h116.54v-446.5c0 -203.3 -114.3 -319.5 -314.439 -319.5c-200.96 0 -312.16 116.2 -312.16 319.5v247.86l2.73047 44.2998h-4.73047l-230.74 -595.66h-91.5l-235.1 598.03h-4.73047l3.37012 -46.6699v-551.36h-112.54v750h165.8l227.27 -584.7h4.73047
l221.54 584.7h166.43v-453.6c0 -139 65.3301 -207.87 199.63 -207.87c131.94 0 197.9 68.8701 197.9 207.87v453.6z" />
    <glyph glyph-name="N_D" horiz-adv-x="1294" 
d="M891.76 750c221.04 0 350.6 -137.64 350.6 -378c0 -238 -127.93 -372 -352.6 -372h-290l-393.26 564.53h-2v-564.53h-112.54v750h118l393.27 -564.54h2v564.54h286.53zM884.3 104.53c157.1 0 236.43 88.9297 236.43 267.47c0 185.7 -78.1299 274.83 -234.43 274.83
h-167.9v-542.3h165.9z" />
    <glyph glyph-name="N_E" horiz-adv-x="1190" 
d="M718.4 104.53h419.36v-104.53h-538l-393.26 564.53h-2v-564.53h-112.54v750h118l393.27 -564.54h2v564.54h528.53v-103.17h-415.36v-213.93h391.36v-101.8h-391.36v-226.57z" />
    <glyph glyph-name="N_N" horiz-adv-x="1325" 
d="M91.96 0v750h118.64l393.26 -564.54h2v564.54h118.64l393.26 -564.54h2v564.54h113.17v-750h-118.63l-393.27 564.53h-2v-564.53h-118.63l-393.27 564.53h-2v-564.53h-113.17z" />
    <glyph glyph-name="N_N_E" horiz-adv-x="1704" 
d="M1232.93 104.53h419.37v-104.53h-538l-393.27 564.53h-2v-564.53h-118.63l-393.27 564.53h-2v-564.53h-113.17v750h118.64l393.26 -564.54h2v564.54h118.64l393.26 -564.54h2v564.54h528.54v-103.17h-415.37v-213.93h391.37v-101.8h-391.37v-226.57z" />
    <glyph glyph-name="N_T" horiz-adv-x="1388" 
d="M1359.03 750v-103.17h-259.17v-646.83h-118v646.83h-263.46v-646.83h-118.64l-393.26 564.53h-2v-564.53h-112.54v750h118l393.27 -564.54h2v564.54h753.8z" />
    <glyph glyph-name="O_C" horiz-adv-x="1060" 
d="M900.2 273.5h116.629v-16.7402c-29.0996 -173.93 -146.399 -272.76 -323.899 -272.76c-51.79 0 -99.2197 9.37012 -141.27 27.0801c-42.9199 -17.6797 -91 -27.0801 -143.1 -27.0801c-217.56 0 -357.329 154.1 -357.329 394c0 230.36 145.23 388 358.801 388
c53.5195 0 102.439 -9.38965 145.749 -27.0801c42.2695 17.6904 89.8896 27.0801 141.88 27.0801c169.34 0 279.899 -91.8398 307.169 -253.77v-16.7305h-116.63c-17.54 111.1 -81.1396 165.96 -190.54 165.96c-9.62988 0 -18.9902 -0.419922 -28.0498 -1.25
c62.4199 -67.6904 97.75 -164.771 97.75 -282.211c0 -119.62 -37.1797 -218.89 -101.42 -287.859c8.73047 -0.830078 17.7305 -1.24023 26.9902 -1.24023c120.67 0 189 60.8604 207.27 184.601zM172.859 378c0 -183.8 86.1396 -289.47 235.699 -289.47
c11.1602 0 21.9502 0.549805 32.3604 1.63965c-60.0996 67.4297 -94.3193 164.14 -94.3193 281.83c0 119.81 35.2197 218.75 97.1699 287.52c-10.8604 1.29004 -22.1201 1.94043 -33.7402 1.94043c-151.47 0 -237.17 -103.93 -237.17 -283.46zM645.729 378
c0 108.18 -32.6211 189.93 -91.7715 237.199c-56.0898 -46.7197 -85.7295 -128.42 -85.7295 -243.2c0 -110.76 29.6904 -191.979 86.0605 -238.329c59.7402 47.0801 91.4404 130.03 91.4404 244.33z" />
    <glyph glyph-name="O_O" horiz-adv-x="1104" 
d="M694.93 766c216.3 0 357.327 -153.369 357.327 -387.999c0 -236.9 -145.86 -394 -358.801 -394c-52.8096 0 -101.04 9.08008 -143.8 26.2598c-42.4102 -17.1504 -89.7998 -26.2607 -141.1 -26.2607c-217.56 0 -357.329 154.1 -357.329 394
c0 230.36 145.23 388 358.801 388c52.6504 0 100.841 -9.08984 143.621 -26.2197c42.4199 17.0801 89.8701 26.2197 141.28 26.2197zM172.856 378.001c0 -183.8 86.1406 -289.47 235.7 -289.47c8.90039 0 17.5605 0.349609 25.9805 1.04004
c-62.9697 68.5703 -98.4102 167.62 -98.4102 288.43c0 116.22 36.9697 213.93 101.02 282.22c-8.79004 0.830078 -17.8398 1.24023 -27.1201 1.24023c-151.47 0 -237.17 -103.93 -237.17 -283.46zM693.457 88.5312c152.84 0 237.17 103.029 237.17 289.47
c0 177.16 -87.5 283.46 -235.7 283.46c-8.73047 0 -17.2402 -0.339844 -25.5303 -1.03027c62.5498 -67.6904 97.96 -164.86 97.96 -282.431c0 -119.81 -37.2998 -219.199 -101.72 -288.189c9.00977 -0.849609 18.29 -1.2793 27.8203 -1.2793zM645.727 378
c0 109.9 -33.6699 192.528 -94.6201 239.438c-60.6602 -46.54 -93.3506 -128.58 -93.3506 -239.44c0 -114.42 33.3799 -198.56 94.6602 -245.779c60.9502 46.8203 93.3105 130.301 93.3105 245.781z" />
    <glyph glyph-name="T_E" horiz-adv-x="1260" 
d="M788.43 104.53h419.37v-104.53h-537.37v646.83h-263.47v-646.83h-118v646.83h-260.16v103.17h1175v-103.17h-415.37v-213.93h391.37v-101.8h-391.37v-226.57z" />
    <glyph glyph-name="T_F" horiz-adv-x="1216" 
d="M1181.8 646.83l-393.37 -0.000976562v-225.93h349.37v-101.8h-349.37v-319.1h-118v646.83h-263.47v-646.83h-118v646.83h-260.16v103.17h1153v-103.17z" />
    <glyph glyph-name="T_H" horiz-adv-x="1382" 
d="M1172.5 750h118v-750h-118v330.1h-384.07v-330.1h-118v646.83h-263.47v-646.83h-118v646.83h-260.16v103.17h759.63v-316.1h384.07v316.1z" />
    <glyph glyph-name="T_H_E" horiz-adv-x="1762" 
d="M1290.5 104.53h419.36v-104.53h-537.36v330.1h-384.07v-330.1h-118v646.83h-263.47v-646.83h-118v646.83h-260.16v103.17h759.63v-316.1h384.07v316.1h533.36v-103.17h-415.36v-213.93h391.36v-101.8h-391.36v-226.57z" />
    <glyph glyph-name="T_I" horiz-adv-x="803" 
d="M710.9 750l0.000976562 -103.17h-303.94v-646.83h-118v646.83h-260.16v103.17h682.1zM590.901 0v541.06h120v-541.06h-120z" />
    <glyph glyph-name="T_R" horiz-adv-x="1309" 
d="M1221.56 166.8c14.4404 -122.34 35.7998 -150.069 35.7998 -150.069v-16.7305h-122.73s-15.5303 35.2598 -27.0703 144.33c-12.1602 112.87 -55.5 147.3 -177.36 147.3h-143.77v-291.63h-116v646.83h-263.47v-646.83h-118v646.83h-260.16v103.17h965.9
c162.2 0 254.66 -84.2002 254.66 -230.24c0 -100.6 -43.8496 -163.85 -131.54 -190.25c63.6504 -22.7002 93.5205 -73.2598 103.74 -162.71zM786.429 391.961h193.6c101.93 0 150.33 41.1396 150.33 127.8c0 86.6699 -47.7598 127.8 -148.33 127.8h-195.6v-255.6z" />
    <glyph glyph-name="T_T" horiz-adv-x="1146" 
d="M1117.4 750v-103.17h-259.17v-646.83h-118v646.83h-333.27v-646.83h-118v646.83h-260.16v103.17h1088.6z" />
    <glyph glyph-name="T_T_E" horiz-adv-x="1711" 
d="M1239.7 104.53h419.36v-104.53h-537.36v646.83h-263.47v-646.83h-118v646.83h-333.27v-646.83h-118v646.83h-260.16v103.17h1626.26v-103.17h-415.36v-213.93h391.36v-101.8h-391.36v-226.57z" />
    <glyph glyph-name="T_T_R" horiz-adv-x="1760" 
d="M1672.83 166.8c14.4297 -122.34 35.7988 -150.069 35.7988 -150.069v-16.7305h-122.73s-15.54 35.2598 -27.0703 144.33c-12.1699 112.87 -55.5 147.3 -177.37 147.3h-143.76v-291.63h-116v646.83h-263.47v-646.83h-118v646.83h-333.27v-646.83h-118v646.83h-260.16
v103.17h1417.16c162.2 0 254.67 -84.2002 254.67 -230.24c0 -100.6 -43.8496 -163.85 -131.55 -190.25c63.6602 -22.7002 93.5205 -73.2598 103.751 -162.71zM1237.7 391.961h193.599c101.93 0 150.33 41.1396 150.33 127.8c0 86.6699 -47.7695 127.8 -148.329 127.8h-195.6
v-255.6z" />
    <glyph glyph-name="T_T_Y" horiz-adv-x="1663" 
d="M1530.7 750l123.2 0.000976562v-16.7402l-260.7 -441.03v-292.23h-118v292.23l-208 354.6h-208.97v-646.83h-118v646.83h-333.27v-646.83h-118v646.83h-260.16v103.17h1112.26l193.14 -343.5h2z" />
    <glyph glyph-name="T_U" horiz-adv-x="1378" 
d="M1185.96 750h115.271v-446.5c0 -203.3 -114.67 -319.5 -314.9 -319.5c-201.23 0 -315.9 116.2 -315.9 319.5v343.33h-263.47v-646.83h-118v646.83h-260.16v103.17h759.63v-453.6c0 -139 65.9697 -207.87 197.899 -207.87c134.3 0 199.63 68.8701 199.63 207.87v453.6z
" />
    <glyph glyph-name="T_V" horiz-adv-x="1271" 
d="M1126.8 750h118.729v-16.7402l-270.17 -733.26h-129.46l-238.47 646.83h-200.47v-646.83h-118v646.83h-260.16v103.17h666.86l214.7 -606.27h2z" />
    <glyph glyph-name="T_W" horiz-adv-x="1583" 
d="M1438.23 750h115.731v-14.8398l-210.96 -735.16h-122l-151.9 542.03h-2l-151.54 -542.03h-122l-185.61 646.83h-200.99v-646.83h-118v646.83h-260.16v103.17h672.16l156.34 -574.2h2l154.43 574.2h110.73l153.8 -574.2h2z" />
    <glyph glyph-name="T_Y" horiz-adv-x="1212" 
d="M1079.43 750l123.2 0.000976562v-16.7402l-260.7 -441.03v-292.23h-118v292.23l-208 354.6h-208.97v-646.83h-118v646.83h-260.16v103.17h661l193.13 -343.5h2z" />
    <glyph glyph-name="T_Z" horiz-adv-x="1266" 
d="M786.31 104.33l441.39 -0.000976562v-104.33h-597.87v85.4004l437.18 559.53h-660.05v-644.93h-118v644.93h-260.16v105.07h1194.9v-85.7695z" />
    <glyph glyph-name="U_F" horiz-adv-x="1129" 
d="M1095.06 646.83l-393.359 -0.000976562v-225.93h349.36v-101.8h-349.36v-15.5996c0 -203.3 -114.67 -319.5 -314.9 -319.5c-201.24 0 -315.9 116.2 -315.9 319.5v446.5h118v-453.6c0 -139 65.96 -207.87 197.9 -207.87c134.3 0 199.63 68.8701 199.63 207.87v453.6
h508.63v-103.17z" />
    <glyph glyph-name="U_H" horiz-adv-x="1296" 
d="M1085.76 750h118.001v-750h-118v330.1h-384.06v-26.5996c0 -203.3 -114.67 -319.5 -314.9 -319.5c-201.24 0 -315.9 116.2 -315.9 319.5v446.5h118v-453.6c0 -139 65.96 -207.87 197.9 -207.87c134.3 0 199.63 68.8701 199.63 207.87v453.6h115.27v-316.1h384.06v316.1z
" />
    <glyph glyph-name="U_K" horiz-adv-x="1242" 
d="M922.62 434.47l294.779 -417.74v-16.7305h-127.1l-244.92 353.07l-159.46 -168.91c-37.7998 -128.77 -142.17 -200.159 -299.12 -200.159c-201.24 0 -315.9 116.2 -315.9 319.5v446.5h118v-453.6c0 -139 65.96 -207.87 197.9 -207.87
c134.3 0 199.63 68.8701 199.63 207.87v453.6h115.27v-403.55l355.86 403.55h135.57v-16.7402z" />
    <glyph glyph-name="U_M" horiz-adv-x="1464" 
d="M1206.4 750h165.801v-750h-112.54v551.36l3.37012 46.6699h-4.73047l-231.37 -598.03h-91.5l-234.47 595.66h-4.73047l2.73047 -44.2998v-247.86c0 -203.3 -110.46 -319.5 -312.16 -319.5c-201.24 0 -315.9 116.2 -315.9 319.5v446.5h118v-453.6
c0 -139 65.96 -207.87 197.9 -207.87c134.3 0 199.63 68.8701 199.63 207.87v453.6h166.43l226.27 -584.7h4.73047z" />
    <glyph glyph-name="U_N" horiz-adv-x="1305" 
d="M1099.7 750h113.16v-750h-118.63l-393.27 564.53h-2v-261.03c0 -203.3 -111.93 -319.5 -312.16 -319.5c-201.24 0 -315.9 116.2 -315.9 319.5v446.5h118v-453.6c0 -139 65.96 -207.87 197.9 -207.87c134.3 0 199.63 68.8701 199.63 207.87v453.6h118l393.27 -564.54h2
v564.54z" />
    <glyph glyph-name="U_P" horiz-adv-x="1203" 
d="M901.33 750c165.57 0 260.03 -86.8398 260.03 -237.87c0 -151.67 -95.46 -238.5 -262.03 -238.5h-198.49c-10.8398 -184.77 -123.83 -289.63 -314.04 -289.63c-201.24 0 -315.9 116.2 -315.9 319.5v446.5h118v-453.6c0 -139 65.96 -207.87 197.9 -207.87
c134.3 0 199.63 68.8701 199.63 207.87v453.6h314.9zM888.2 377.8c105.03 0 154.16 43.1299 154.16 134.33c0 90.5703 -49.1299 133.7 -152.53 133.7h-188.13v-268.03h186.5z" />
    <glyph glyph-name="U_R" horiz-adv-x="1224" 
d="M1136.83 166.8c14.4297 -122.34 35.7988 -150.069 35.7988 -150.069v-16.7305h-122.73s-15.54 35.2598 -27.0703 144.33c-12.1699 112.87 -55.5 147.3 -177.37 147.3h-143.89c-4.41016 -195.95 -118.47 -307.63 -314.77 -307.63c-201.24 0 -315.9 116.2 -315.9 319.5
v446.5h118v-453.6c0 -139 65.96 -207.87 197.9 -207.87c134.3 0 199.63 68.8701 199.63 207.87v453.6h323.53c162.2 0 254.67 -84.2002 254.67 -230.24c0 -100.6 -43.8496 -163.85 -131.55 -190.25c63.6602 -22.7002 93.5205 -73.2598 103.751 -162.71zM701.699 391.961
h193.599c101.93 0 150.33 41.1396 150.33 127.8c0 86.6699 -47.7695 127.8 -148.329 127.8h-195.6v-255.6z" />
    <glyph glyph-name="U_T" horiz-adv-x="1372" 
d="M1343.33 750v-103.17h-260.17v-646.83h-118v646.83h-263.46v-343.33c0 -203.3 -114.67 -319.5 -314.9 -319.5c-201.24 0 -315.9 116.2 -315.9 319.5v446.5h118v-453.6c0 -139 65.96 -207.87 197.9 -207.87c134.3 0 199.63 68.8701 199.63 207.87v453.6h756.9z" />
    <glyph glyph-name="U_T_I" horiz-adv-x="1479" 
d="M1387.1 750l0.000976562 -103.17h-303.94v-646.83h-118v646.83h-263.46v-343.33c0 -203.3 -114.67 -319.5 -314.9 -319.5c-201.24 0 -315.9 116.2 -315.9 319.5v446.5h118v-453.6c0 -139 65.96 -207.87 197.9 -207.87c134.3 0 199.63 68.8701 199.63 207.87v453.6h800.67
zM1267.1 0v541.06h120v-541.06h-120z" />
    <glyph glyph-name="V_I" horiz-adv-x="981" 
d="M888.53 750v-105.07h-225.15l-237.62 -644.93h-129.46l-270.34 733.26v16.7402h120.1l214.7 -606.27h2l214.44 606.27h311.33zM765.63 -0v541.06h120v-541.06h-120z" />
    <glyph glyph-name="Z_A" horiz-adv-x="1296" 
d="M985.83 750l285.069 -733.27v-16.7305h-120.47l-63.8398 171.7h-333.16l-64.4004 -171.7h-653.23v85.4004l437.75 560.26h-423.39v104.34h579.5v-85.7695l-437.39 -559.9h411.95l252.78 645.67h128.83zM790.35 270.131h259.64l-128.26 344.97h-2z" />
    <glyph glyph-name="H_H.ss01" horiz-adv-x="1306" 
d="M91.96 0v750h118v-316.1h384.07v316.1h118v-750h-118v330.1h-384.07v-330.1h-118zM1096.1 0v330.101h-270.14v103.8h270.14v316.1h118v-750h-118z" />
    <glyph glyph-name="T_R.ss01" horiz-adv-x="1306" 
d="M1199.03 180.76l55.5986 -164.03v-16.7305h-121.37l-51.1299 162.1c-32.7998 103.9 -63.9697 129.53 -157.1 129.53h-138.6v-291.63h-116v646.83h-263.47v-646.83h-118v646.83h-260.16v103.17h965.9c162.2 0 254.66 -84.2002 254.66 -230.24
c0 -115.22 -57.5098 -181.439 -172.54 -199.43c62.7002 -13.9199 92.4697 -52.4697 122.21 -139.569zM786.429 391.96h193.6c101.93 0 150.33 41.1396 150.33 127.8c0 86.6699 -47.7598 127.8 -148.33 127.8h-195.6v-255.6z" />
    <glyph glyph-name="T_T_R.ss01" horiz-adv-x="1757" 
d="M1650.3 180.76l55.5986 -164.03v-16.7305h-121.37l-51.1299 162.1c-32.7998 103.9 -63.9697 129.53 -157.1 129.53h-138.6v-291.63h-116v646.83h-263.47v-646.83h-118v646.83h-333.27v-646.83h-118v646.83h-260.16v103.17h1417.16
c162.2 0 254.67 -84.2002 254.67 -230.24c0 -115.22 -57.5195 -181.439 -172.55 -199.43c62.71 -13.9199 92.4697 -52.4697 122.22 -139.569zM1237.7 391.96h193.599c101.93 0 150.33 41.1396 150.33 127.8c0 86.6699 -47.7695 127.8 -148.329 127.8h-195.6v-255.6z" />
    <glyph glyph-name="U_R.ss01" horiz-adv-x="1221" 
d="M1114.66 180.76l55.5986 -164.03v-16.7305h-121.36l-51.1396 162.1c-32.7998 103.9 -63.96 129.53 -157.1 129.53h-139.09c-4.41016 -195.95 -118.47 -307.63 -314.77 -307.63c-201.24 0 -315.9 116.2 -315.9 319.5v446.5h118v-453.6c0 -139 65.96 -207.87 197.9 -207.87
c134.3 0 199.63 68.8701 199.63 207.87v453.6h323.9c162.2 0 254.67 -84.2002 254.67 -230.24c0 -115.22 -57.5195 -181.439 -172.55 -199.43c62.7002 -13.9199 92.4697 -52.4697 122.21 -139.569zM701.699 391.96h193.959c101.94 0 150.341 41.1396 150.341 127.8
c0 86.6699 -47.7695 127.8 -148.34 127.8h-195.96v-255.6z" />
    <glyph glyph-name="ordfeminine" unicode="&#xaa;" horiz-adv-x="474" 
d="M173.7 392c-90.3701 0 -143 37.3613 -143 102.361c0 71.3701 44 107.74 151.1 119.101c100.16 11 121.86 16.0996 121.86 46.3398c0 29.2305 -26.3301 45.6602 -75 45.6602c-49.0303 0 -75 -17.1602 -75 -54.8604h-101.96c0 83.2002 66.8301 129.86 175.96 129.86
c110.14 0 176.34 -47.6602 176.34 -127.43v-164.23c0 -12.9004 4 -20.1699 21.5303 -20.1699h18.2695v-64.9004s-18.4697 -9.73047 -55.5996 -9.73047c-47.2002 0 -74.04 20.0996 -74.04 56.9297v5.16992h-4.36035c-23 -42.7402 -72.6396 -64.1006 -136.1 -64.1006z
M196.061 461.161c64.4697 0 106.6 38.7686 106.6 99.6982v16.9004h-4.36035c-15.7998 -14.0596 -38.5 -19.3291 -92.1699 -24.959c-54.2998 -5.63965 -72.7295 -20.4395 -72.7295 -50.7695c0 -27.3301 21.7002 -40.8701 62.6602 -40.8701z" />
    <glyph glyph-name="ordmasculine" unicode="&#xba;" horiz-adv-x="487" 
d="M242.83 392c-127.93 0 -212.13 77.3604 -212.13 194.36c0 116.74 84.2002 194.101 212.13 194.101c127.67 0 213.13 -76.7305 213.13 -194.101c0 -117 -84.8301 -194.36 -213.13 -194.36zM242.83 474.46c69.9297 0 110.17 41.6006 110.17 111.9
c0 70.6699 -41.2402 111.27 -110.17 111.27c-68.5703 0 -109.431 -40.5996 -109.431 -111.27c0 -70.6602 40.8604 -111.9 109.431 -111.9z" />
    <glyph glyph-name="ordfeminine.ss01.alt" horiz-adv-x="445" 
d="M175.16 392c-91.46 0 -144.46 37.3584 -144.46 102.358c0 71.3701 44 107.74 151.1 119.101c100.16 11 121.86 16.0996 121.86 46.3398c0 29.2305 -26.3301 45.6602 -75 45.6602c-49.0303 0 -75 -17.1602 -75 -54.8604h-101.96c0 83.2002 66.8301 129.86 175.96 129.86
c110.14 0 176.34 -47.6602 176.34 -127.43v-184.83c0 -36.3701 10.3604 -56.4697 10.3604 -56.4697v-11.7305h-86.46s-13.7402 17.3604 -13.7402 52.2002v3.90039h-4.36035c-21.6396 -42 -71.8994 -64.0996 -134.64 -64.0996zM196.061 461.158
c64.4697 0 106.6 38.7686 106.6 99.6982v16.9004h-4.36035c-15.7998 -14.0596 -38.5 -19.3291 -92.1699 -24.959c-54.2998 -5.63965 -72.7295 -20.4395 -72.7295 -50.7695c0 -27.3301 21.7002 -40.8701 62.6602 -40.8701z" />
    <glyph glyph-name="zero" unicode="0" horiz-adv-x="724" 
d="M360.93 -16c-182.5 0 -300.43 153 -300.43 391c0 235 120.66 391 301.8 391c183.13 0 301.06 -153.37 301.06 -391c0 -235 -121.3 -391 -302.43 -391zM360.93 83.5996c120.03 0 187.7 102.2 187.7 291.4c0 191.83 -66.2998 291.4 -186.33 291.4
c-119.04 0 -187.07 -102.2 -187.07 -291.4c0 -191.2 65.6699 -291.4 185.7 -291.4z" />
    <glyph glyph-name="one" unicode="1" horiz-adv-x="397" 
d="M186.46 0l0.000976562 555.26c-45.96 -68.5596 -130.66 -104 -130.66 -104h-16.7402v117.07s122.64 51.9697 178 181.67h81.7695v-750h-112.37z" />
    <glyph glyph-name="two" unicode="2" horiz-adv-x="624" 
d="M373.13 277c-87.8799 -56.1201 -169.041 -91.96 -189.471 -176.67h374.77v-100.33h-506.83c0 183.1 117.36 273.63 226.73 342.36c103.43 64.6396 174.729 105.87 174.729 203.07c0 75.8301 -47.4004 119.23 -134.33 119.23c-99.4697 0 -145.33 -48.3301 -153.13 -160.9
h-109v16.7402c14.3604 154.3 111.561 242.5 266.23 242.5c147.03 0 243.601 -88.0996 243.601 -220.67c0 -132.07 -87.8701 -198.601 -193.3 -265.331z" />
    <glyph glyph-name="three" unicode="3" horiz-adv-x="644" 
d="M319.1 -12c-159.67 0 -257.87 82.458 -269.87 227.028v16.7305h107.63c5.90039 -102.83 53.7705 -146.16 158.87 -146.16c103.1 0 153.97 39.2305 153.97 118.431c0 82.4004 -56.4004 126.53 -147.87 126.53h-69.2002v94.8701h68.8301
c87.9404 0 137.601 43.5 137.601 124.9c0 77.2002 -46.2305 115.431 -139.33 115.431c-99.7305 0 -145.33 -40.96 -151.6 -137.16h-103.9v16.7305c11.3701 137.57 105.57 216.67 258.23 216.67c149.04 0 246.6 -82.4697 246.6 -208.3
c0 -84.0703 -42.6299 -147.601 -115.899 -174.171c82.2695 -22.8301 128.899 -88.3701 128.899 -180.97c0 -126.83 -104.56 -210.561 -262.96 -210.561z" />
    <glyph glyph-name="four" unicode="4" horiz-adv-x="616" 
d="M384 0v162.4h-346.67v81.7598l360.23 505.84h98.7998v-490.84h82.3398v-96.7598h-82.3398v-162.4h-112.36zM161.73 259.16h224.27v315.64z" />
    <glyph glyph-name="five" unicode="5" horiz-adv-x="623" 
d="M333.33 497.46c140.37 0 232.729 -100.63 232.729 -254.26c0 -159.17 -95.7598 -255.2 -254.76 -255.2c-149.04 0 -240.97 80.0996 -252.7 219.93v16.7305h107.63c5.26953 -91.8301 54.0293 -138.33 143.869 -138.33c94.46 0 142.6 53.7695 142.6 156.869
c0 104.2 -51.7695 160.86 -146.8 160.86c-103.84 0 -135.34 -72.8301 -135.34 -72.8301h-91.3301v16.7305l46 402.04h412.83v-99.7002h-325.8l-22.5996 -203.34h4.74023s35.3604 50.5 138.931 50.5z" />
    <glyph glyph-name="six" unicode="6" horiz-adv-x="652" 
d="M360.43 485.56c140.27 0 233.628 -97.001 233.628 -244.001c0 -153.2 -101.66 -253.561 -252.5 -253.561c-180.8 0 -277.7 117.9 -277.7 351.9c0 268.73 103.2 422.101 282.601 422.101c123.57 0 208.141 -69.0996 231.601 -190.199v-16.7402h-106.63
c-10.9004 75.4697 -52.7705 112.7 -126.33 112.7c-107.74 0 -162.88 -91.8799 -170.06 -286.399c37.5498 67.5195 101.7 104.199 185.391 104.199zM337.458 83.5986c97.3701 0 145.239 51.8594 145.239 156.229c0 97.8301 -49.04 151.771 -138.6 151.771
c-82.1699 0 -138.95 -55.3096 -162.05 -156.68c18.3301 -102.4 69.1904 -151.32 155.41 -151.32z" />
    <glyph glyph-name="seven" unicode="7" horiz-adv-x="549" 
d="M33.4297 750l483.269 -0.000976562v-81.7695c-173.8 -230.6 -252.34 -408.199 -295.87 -668.229h-112.27v16.7305c52.1504 255.81 139.351 453.51 277.751 630.93h-352.88v102.34z" />
    <glyph glyph-name="eight" unicode="8" horiz-adv-x="646" 
d="M476.77 378.95c66.7305 -35.71 105.931 -97.1504 105.931 -175.29c0 -131.03 -103.57 -215.66 -261.601 -215.66c-156.3 0 -259.24 83.46 -259.24 215.66c0 78.79 39.0195 139.93 105.369 175.41c-59.2305 36.3398 -93.3701 96.2197 -93.3701 171.26
c0 125.83 98.2002 211.67 249.24 211.67c153.03 0 248.23 -85.0996 248.23 -211.67c0 -74.4805 -34.5098 -134.79 -94.5596 -171.38zM323.1 667.23c-89.0996 0 -140.34 -44.9697 -140.34 -119.27c0 -76.5596 50.2402 -121.529 139.34 -121.529
c90.0996 0 140.33 44.9697 140.33 121.529c0 75.2998 -48.5996 119.27 -139.33 119.27zM321.46 84.1309c94.7402 0 148.869 43.499 148.869 121.899c0 80.2998 -54.1299 124.17 -148.229 124.17c-93.7402 0 -147.87 -43.8701 -147.87 -124.17
c0 -79.9297 53.8701 -121.899 147.23 -121.899z" />
    <glyph glyph-name="nine" unicode="9" horiz-adv-x="652" 
d="M310.36 762c180.8 0 277.7 -117.899 277.7 -351.899c0 -268.74 -103.2 -422.101 -282.601 -422.101c-123.56 0 -208.13 69.0996 -231.6 190.199v16.7305h106.64c10.9004 -75.4697 52.7607 -112.7 126.331 -112.7c107.74 0 162.88 91.8799 170.06 286.399
c-37.5498 -67.5195 -101.7 -104.199 -185.391 -104.199c-140.27 0 -233.64 97 -233.64 244c0 153.2 101.67 253.57 252.5 253.57zM307.83 358.401c82.1699 0 138.95 55.2998 162.05 156.67c-18.3398 102.41 -69.1895 151.33 -155.42 151.33
c-97.3604 0 -145.23 -51.8701 -145.23 -156.24c0 -97.8301 49.0303 -151.76 138.601 -151.76z" />
    <glyph glyph-name="uni24FF" unicode="&#x24ff;" horiz-adv-x="942" 
d="M471.23 -45c254 0 420 166 420 420s-166 420 -420 420s-420 -166 -420 -420s166 -420 420 -420zM470.601 102c-140.77 0 -232.34 107 -232.34 274c0 164 93.5703 273 233.601 273c141.77 0 232.34 -108 232.34 -273c0 -164.64 -93.5703 -274 -233.601 -274z
M470.601 189.2c82.6602 0 128.899 64.2295 128.899 186.8c0 121.2 -44.5996 185.8 -127.64 185.8c-82.0303 0 -128.9 -64.2402 -128.9 -185.8c0 -122.84 45.2402 -186.8 127.641 -186.8z" />
    <glyph glyph-name="uni2776" unicode="&#x2776;" horiz-adv-x="942" 
d="M471.23 -45c254 0 420 166 420 420s-166 420 -420 420s-420 -166 -420 -420s166 -420 420 -420zM438.16 113l0.00195312 370.859c-33.7305 -44.3301 -92.1309 -64.2002 -92.1309 -64.2002h-12.7305v99.5703s93.0996 32.0703 136.93 118.771h71.2695v-525h-103.34z" />
    <glyph glyph-name="uni2777" unicode="&#x2777;" horiz-adv-x="942" 
d="M471.23 -45c254 0 420 166 420 420s-166 420 -420 420s-420 -166 -420 -420s166 -420 420 -420zM279.101 113c0 128.73 83.959 195.828 166.959 246.298c76.9404 47.2998 125.971 72.0996 125.971 132.5c0 45.1299 -31.2305 71.2002 -88.5303 71.2002
c-65.2998 0 -95.8994 -31.0703 -101.169 -104.5h-99.2305v11.7305c11 112.93 84.3604 177.13 204.761 177.13c113.67 0 188.24 -63.46 188.24 -158.3c0 -84.46 -61.4004 -133.13 -137.94 -180.13c-60.7998 -37.2695 -116.76 -59.8994 -135.33 -108.829h267.27v-87.0996h-391
z" />
    <glyph glyph-name="uni2778" unicode="&#x2778;" horiz-adv-x="942" 
d="M471.23 -45c254 0 420 166 420 420s-166 420 -420 420s-420 -166 -420 -420s166 -420 420 -420zM476.23 105c-124.6 0 -198.129 57.4609 -207.129 163.301v12.3604h98.96c4.26953 -65.5996 36.2393 -93.7598 105.799 -93.7598c66.9404 0 102.171 24.7998 102.171 73.3994
c0 50.1299 -36.7695 76.5596 -96.7998 76.5596h-53.4697v81.2695h52.8398c58.2998 0 90.5303 26.4297 90.5303 75.5693c0 47.5996 -31.3301 71.3994 -92.2705 71.3994c-65.8301 0 -96.9004 -26.0703 -100.53 -86.7705h-95.8701v11.7305
c9 100.57 82.6699 155.94 198.77 155.94c115.03 0 190.5 -57.7402 190.5 -148.57c0 -56.1699 -31.1699 -99.3301 -86.7002 -119.43c63.6299 -17.3701 96.7002 -63 96.7002 -122.8c0 -91.0996 -81.5703 -150.199 -203.5 -150.199z" />
    <glyph glyph-name="uni2779" unicode="&#x2779;" horiz-adv-x="942" 
d="M471.23 -45c254 0 420 166 420 420s-166 420 -420 420s-420 -166 -420 -420s166 -420 420 -420zM499.7 113v106.5h-254.14v70.5303l265.97 347.97h91.5v-335.77h58.4297v-82.7305h-58.4297v-106.5h-103.33zM342.73 302.23h158.33v206.67z" />
    <glyph glyph-name="uni277A" unicode="&#x277a;" horiz-adv-x="942" 
d="M471.23 -45c254 0 420 166 420 420s-166 420 -420 420s-420 -166 -420 -420s166 -420 420 -420zM472.23 105c-114.67 0 -186.5 57.0996 -195.87 157.199v12.0996h99.3398c3.25977 -55.3398 33.96 -84.9395 94.4297 -84.9395c62.2998 0 94.5303 32.7002 94.5303 96.4697
c0 63.4004 -33.8604 97.7305 -97.9004 97.7305c-69.8301 0 -91.3604 -43.5996 -91.3604 -43.5996h-83.7695v11.7402l34.3701 286.3h321.73v-87.0996h-242.07l-15.1602 -122.7h4.36035s26.9004 34.2598 100.24 34.2598c105.46 0 173.63 -68.5303 173.63 -177
c0 -112.56 -73.7305 -180.46 -196.5 -180.46z" />
    </font>
</defs>
</svg>
