<?xml version="1.0" encoding="UTF-8"?>
<svg xmlns="http://www.w3.org/2000/svg" xmlns:xlink="http://www.w3.org/1999/xlink" version="1.2" >
<font id="Biennale Ultra Light">
<font-face  font-family="Biennale" units-per-em="1000" ascent="1040" descent="-345" font-style="normal" font-weight="300" font-stretch="normal" cap-height="695" x-height="527" underline-position="-75" underline-thickness="50" />
<missing-glyph  horiz-adv-x="630" d="M100 730 L100 0 L530 0 L530 730 L100 730 Z M165 695 L465 695 L315 408 L165 695 Z M293 365 L140 73 L140 657 L293 365 Z M338 365 L490 657 L490 73 L338 365 Z M315 322 L465 35 L165 35 L315 322 Z " />
<glyph glyph-name="NULL" d="" />
<glyph glyph-name="CR" unicode="&#xd;" horiz-adv-x="250" d="" />
<glyph glyph-name="space" unicode="&#x20;" horiz-adv-x="247" d="" />
<glyph glyph-name="exclam" unicode="&#x21;" horiz-adv-x="225" d="M96 184 L130 184 L135 731 L88 731 L96 184 Z M112 -9 C135 -9 151 7 151 30 C151 52 135 69 112 69 C90 69 73 52 73 30 C73 7 90 -9 112 -9 L112 -9 Z " />
<glyph glyph-name="quotedbl" unicode="&#x22;" horiz-adv-x="272" d="M63 538 L95 538 L98 715 L60 715 L63 538 Z M178 538 L209 538 L213 715 L175 715 L178 538 Z " />
<glyph glyph-name="numbersign" unicode="&#x23;" horiz-adv-x="676" d="M646 463 L646 495 L523 495 L577 695 L542 695 L487 495 L270 495 L324 695 L290 695 L235 495 L99 495 L99 463 L227 463 L164 235 L30 235 L30 202 L155 202 L100 0 L135 0 L190 202 L407 202 L352 0 L388 0 L443 202 L579 202 L579 235 L452 235 L514 463 L646 463 Z M416 235 L199 235 L261 463 L479 463 L416 235 Z " />
<glyph glyph-name="dollar" unicode="&#x24;" horiz-adv-x="457" d="M415 169 C415 399 97 322 97 508 C97 571 146 618 232 618 C303 618 350 586 371 516 L407 529 C385 603 331 644 253 650 L253 741 L220 741 L220 651 C122 646 60 586 60 504 C60 291 377 364 377 167 C377 91 317 43 227 43 C142 43 85 86 66 163 L31 149 C54 62 123 13 215 9 L215 -80 L249 -80 L249 10 C350 18 415 79 415 169 L415 169 Z " />
<glyph glyph-name="percent" unicode="&#x25;" horiz-adv-x="726" d="M183 386 C272 386 335 454 335 543 C335 630 272 701 183 701 C94 701 31 630 31 543 C31 454 94 386 183 386 L183 386 Z M140 0 L175 0 L584 695 L548 695 L140 0 Z M183 414 C113 414 60 470 60 544 C60 613 113 672 183 672 C252 672 305 613 305 544 C305 470 252 414 183 414 L183 414 Z M543 -6 C632 -6 695 63 695 151 C695 239 632 309 543 309 C455 309 391 239 391 151 C391 63 455 -6 543 -6 L543 -6 Z M543 23 C473 23 421 78 421 152 C421 222 473 281 543 281 C612 281 665 222 665 152 C665 78 612 23 543 23 L543 23 Z " />
<glyph glyph-name="ampersand" unicode="&#x26;" horiz-adv-x="639" d="M603 0 L514 91 C557 137 595 224 596 335 L558 350 C558 250 525 161 487 118 L261 347 C188 422 152 462 152 537 C152 603 207 665 295 665 C384 665 435 613 448 546 L489 546 C474 637 408 702 295 702 C182 702 112 626 112 539 C112 480 129 440 171 389 C102 349 47 294 47 193 C47 76 156 -10 284 -10 C371 -10 438 13 489 66 L554 0 L603 0 Z M284 25 C179 25 86 97 86 195 C86 285 136 329 193 364 C203 353 214 342 226 330 L463 92 C417 45 359 25 284 25 L284 25 Z " />
<glyph glyph-name="quotesingle" unicode="&#x27;" horiz-adv-x="158" d="M63 538 L95 538 L98 715 L60 715 L63 538 Z " />
<glyph glyph-name="parenleft" unicode="&#x28;" horiz-adv-x="299" d="M262 -94 L286 -66 C191 -7 87 127 87 330 C87 532 191 666 286 725 L262 754 C163 692 49 551 49 330 C49 109 163 -32 262 -94 L262 -94 Z " />
<glyph glyph-name="parenright" unicode="&#x29;" horiz-adv-x="299" d="M36 -94 C135 -32 249 109 249 330 C249 551 135 692 36 754 L13 725 C107 666 211 532 211 330 C211 127 107 -7 13 -66 L36 -94 Z " />
<glyph glyph-name="asterisk" unicode="&#x2a;" horiz-adv-x="398" d="M180 411 L218 411 L212 541 L324 471 L343 505 L221 567 L343 630 L324 663 L212 593 L219 731 L180 731 L186 593 L74 663 L55 630 L178 567 L55 505 L74 471 L186 541 L180 411 Z " />
<glyph glyph-name="plus" unicode="&#x2b;" horiz-adv-x="481" d="M448 319 L259 319 L259 519 L222 519 L222 319 L32 319 L32 283 L222 283 L222 71 L259 71 L259 283 L448 283 L448 319 Z " />
<glyph glyph-name="comma" unicode="&#x2c;" horiz-adv-x="180" d="M90 69 C68 69 51 53 51 29 C51 6 68 -8 89 -8 L50 -88 L80 -88 L114 -19 C125 3 129 15 129 29 C129 53 113 69 90 69 L90 69 Z " />
<glyph glyph-name="hyphen" unicode="&#x2d;" horiz-adv-x="370" d="M67 239 L303 239 L303 272 L67 272 L67 239 Z " />
<glyph glyph-name="period" unicode="&#x2e;" horiz-adv-x="188" d="M94 -9 C116 -9 133 7 133 30 C133 52 116 69 94 69 C71 69 55 52 55 30 C55 7 71 -9 94 -9 L94 -9 Z " />
<glyph glyph-name="slash" unicode="&#x2f;" horiz-adv-x="315" d="M42 -50 L80 -50 L271 711 L235 711 L42 -50 Z " />
<glyph glyph-name="zero" unicode="0" horiz-adv-x="682" d="M342 -10 C516 -10 625 126 625 346 C625 568 517 703 342 703 C167 703 57 569 57 346 C57 125 167 -10 342 -10 L342 -10 Z M342 28 C194 28 97 147 97 346 C97 546 194 665 342 665 C488 665 585 545 585 346 C585 148 488 28 342 28 L342 28 Z " />
<glyph glyph-name="one" unicode="1" horiz-adv-x="325" d="M202 34 L202 695 L164 695 L164 603 L48 603 L48 569 L164 569 L164 34 L44 34 L44 0 L304 0 L304 34 L202 34 Z " />
<glyph glyph-name="two" unicode="2" horiz-adv-x="517" d="M98 35 L334 290 C388 345 458 428 458 525 C458 630 377 704 258 704 C154 704 69 645 42 550 L80 537 C104 623 176 668 259 668 C354 668 419 608 419 525 C419 436 347 356 305 311 L41 26 L41 0 L472 0 L472 35 L98 35 Z " />
<glyph glyph-name="three" unicode="3" horiz-adv-x="542" d="M280 401 L252 401 L484 662 L484 695 L60 695 L60 661 L437 661 L207 401 L207 371 L274 371 C367 371 450 309 450 201 C450 100 378 25 263 25 C164 25 89 82 69 155 L32 140 C56 56 145 -10 263 -10 C401 -10 491 81 491 199 C491 319 401 401 280 401 L280 401 Z " />
<glyph glyph-name="four" unicode="4" horiz-adv-x="563" d="M534 215 L435 215 L435 694 L397 694 L20 207 L20 182 L396 182 L396 0 L435 0 L435 182 L534 182 L534 215 Z M397 215 L69 215 L397 640 L397 215 Z " />
<glyph glyph-name="five" unicode="5" horiz-adv-x="532" d="M258 412 L129 412 L143 662 L450 662 L450 695 L109 695 L92 378 L257 378 C369 378 447 303 447 201 C447 98 369 25 258 25 C166 25 94 76 71 157 L35 143 C64 46 147 -10 258 -10 C394 -10 487 77 487 201 C487 325 394 412 258 412 L258 412 Z " />
<glyph glyph-name="six" unicode="6" horiz-adv-x="550" d="M280 454 C249 454 221 449 187 436 L392 695 L344 695 L100 384 C62 337 40 285 40 222 C40 90 144 -10 280 -10 C413 -10 513 87 513 223 C513 358 413 454 280 454 L280 454 Z M280 25 C166 25 80 110 80 222 C80 335 166 420 280 420 C391 420 473 337 473 222 C473 108 391 25 280 25 L280 25 Z " />
<glyph glyph-name="seven" unicode="7" horiz-adv-x="462" d="M13 695 L13 660 L397 660 L135 0 L178 0 L440 663 L440 695 L13 695 Z " />
<glyph glyph-name="eight" unicode="8" horiz-adv-x="546" d="M344 374 C410 395 463 450 463 532 C463 630 384 703 273 703 C160 703 83 628 83 533 C83 450 136 395 201 374 C127 354 54 285 54 184 C54 71 146 -10 273 -10 C400 -10 492 71 492 184 C492 285 418 354 344 374 L344 374 Z M121 530 C121 608 182 668 273 668 C364 668 425 608 425 530 C425 453 363 390 273 390 C184 390 121 453 121 530 L121 530 Z M273 24 C163 24 94 93 94 188 C94 285 166 357 273 357 C380 357 453 285 453 188 C453 93 384 24 273 24 L273 24 Z " />
<glyph glyph-name="nine" unicode="9" horiz-adv-x="547" d="M270 705 C137 705 37 608 37 472 C37 337 136 241 270 241 C301 241 329 246 363 259 L158 0 L205 0 L450 311 C488 358 510 410 510 473 C510 605 406 705 270 705 L270 705 Z M270 275 C158 275 77 358 77 473 C77 587 158 670 270 670 C383 670 470 585 470 473 C470 360 383 275 270 275 L270 275 Z " />
<glyph glyph-name="colon" unicode="&#x3a;" horiz-adv-x="214" d="M107 372 C129 372 146 389 146 411 C146 434 129 450 107 450 C84 450 68 434 68 411 C68 389 84 372 107 372 L107 372 Z M107 -9 C129 -9 146 7 146 30 C146 52 129 69 107 69 C84 69 68 52 68 30 C68 7 84 -9 107 -9 L107 -9 Z " />
<glyph glyph-name="semicolon" unicode="&#x3b;" horiz-adv-x="216" d="M108 363 C130 363 147 380 147 402 C147 425 130 441 108 441 C85 441 69 425 69 402 C69 380 85 363 108 363 L108 363 Z M109 69 C87 69 71 53 71 29 C71 6 87 -8 108 -8 L69 -88 L100 -88 L134 -19 C145 3 148 15 148 29 C148 53 132 69 109 69 L109 69 Z " />
<glyph glyph-name="less" unicode="&#x3c;" horiz-adv-x="401" d="M348 510 L33 301 L33 268 L348 59 L348 100 L73 285 L348 470 L348 510 Z " />
<glyph glyph-name="equal" unicode="&#x3d;" horiz-adv-x="558" d="M72 386 L486 386 L486 422 L72 422 L72 386 Z M72 150 L486 150 L486 186 L72 186 L72 150 Z " />
<glyph glyph-name="greater" unicode="&#x3e;" horiz-adv-x="401" d="M53 510 L53 469 L328 284 L53 99 L53 59 L368 268 L368 301 L53 510 Z " />
<glyph glyph-name="question" unicode="&#x3f;" horiz-adv-x="425" d="M156 184 L192 184 L192 233 C192 398 388 410 388 579 C388 680 325 741 219 741 C124 741 46 679 30 589 L68 577 C81 649 140 703 217 703 C297 703 348 658 348 576 C348 426 156 418 156 231 L156 184 Z M177 -9 C199 -9 216 7 216 30 C216 52 199 69 177 69 C154 69 138 52 138 30 C138 7 154 -9 177 -9 L177 -9 Z " />
<glyph glyph-name="at" unicode="&#x40;" horiz-adv-x="778" d="M515 400 L515 318 C490 372 440 407 373 407 C282 407 212 332 212 235 C212 137 281 63 373 63 C442 63 491 97 515 151 C517 98 548 72 598 72 C672 72 729 134 729 236 C729 430 590 577 389 577 C187 577 46 434 46 235 C46 30 184 -106 395 -106 C488 -106 566 -73 608 -18 L587 4 C550 -49 479 -77 395 -77 C208 -77 77 44 77 235 C77 415 211 548 389 548 C565 548 698 411 698 236 C698 148 658 101 597 101 C562 101 544 124 544 160 L544 400 L515 400 Z M376 92 C301 92 244 153 244 235 C244 317 304 378 376 378 C456 378 511 318 511 235 C511 152 456 92 376 92 L376 92 Z " />
<glyph glyph-name="A" unicode="A" horiz-adv-x="605" d="M552 0 L591 0 L325 695 L279 695 L14 0 L53 0 L143 235 L462 235 L552 0 Z M156 269 L303 651 L449 269 L156 269 Z " />
<glyph glyph-name="B" unicode="B" horiz-adv-x="612" d="M414 367 C486 390 537 448 537 526 C537 623 475 695 345 695 L95 695 L95 0 L344 0 C480 0 561 71 561 189 C561 283 506 346 414 367 L414 367 Z M498 521 C498 435 425 381 340 381 L133 381 L133 662 L344 662 C446 662 498 602 498 521 L498 521 Z M342 33 L133 33 L133 347 L340 347 C450 347 522 290 522 191 C522 93 456 33 342 33 L342 33 Z " />
<glyph glyph-name="C" unicode="C" horiz-adv-x="726" d="M392 -10 C551 -10 644 74 693 206 L655 221 C609 98 526 27 391 27 C219 27 91 158 91 347 C91 537 219 668 387 668 C522 668 609 596 655 474 L693 489 C644 620 546 705 388 705 C196 705 51 558 51 347 C51 137 196 -10 392 -10 L392 -10 Z " />
<glyph glyph-name="D" unicode="D" horiz-adv-x="714" d="M332 695 L95 695 L95 0 L332 0 C521 0 662 139 662 348 C662 557 521 695 332 695 L332 695 Z M332 35 L133 35 L133 660 L332 660 C497 660 623 534 623 348 C623 159 497 35 332 35 L332 35 Z " />
<glyph glyph-name="E" unicode="E" horiz-adv-x="551" d="M133 35 L133 347 L474 347 L474 382 L133 382 L133 660 L505 660 L505 695 L95 695 L95 0 L511 0 L511 35 L133 35 Z " />
<glyph glyph-name="F" unicode="F" horiz-adv-x="529" d="M504 660 L504 695 L95 695 L95 0 L133 0 L133 346 L472 346 L472 381 L133 381 L133 660 L504 660 Z " />
<glyph glyph-name="G" unicode="G" horiz-adv-x="766" d="M722 351 L387 351 L387 319 L684 319 C671 142 550 26 389 26 C218 26 92 157 92 347 C92 536 218 668 387 668 C516 668 607 601 654 476 L692 492 C642 622 544 705 387 705 C195 705 52 558 52 347 C52 137 195 -10 387 -10 C579 -10 722 135 722 351 L722 351 Z " />
<glyph glyph-name="H" unicode="H" horiz-adv-x="683" d="M550 695 L550 382 L133 382 L133 695 L95 695 L95 0 L133 0 L133 346 L550 346 L550 0 L589 0 L589 695 L550 695 Z " />
<glyph glyph-name="I" unicode="I" horiz-adv-x="228" d="M95 0 L133 0 L133 695 L95 695 L95 0 Z " />
<glyph glyph-name="J" unicode="J" horiz-adv-x="318" d="M14 0 L66 0 C166 0 230 64 230 176 L230 695 L191 695 L191 176 C191 85 142 35 65 35 L14 35 L14 0 Z " />
<glyph glyph-name="K" unicode="K" horiz-adv-x="588" d="M596 0 L174 366 L551 695 L502 695 L133 377 L133 695 L95 695 L95 0 L133 0 L133 354 L544 0 L596 0 Z " />
<glyph glyph-name="L" unicode="L" horiz-adv-x="519" d="M133 35 L133 695 L95 695 L95 0 L506 0 L506 35 L133 35 Z " />
<glyph glyph-name="M" unicode="M" horiz-adv-x="819" d="M745 0 L701 695 L664 695 L664 694 L659 695 L410 78 L160 695 L155 694 L155 695 L118 695 L74 0 L111 0 L151 631 L392 32 L426 32 L668 632 L708 0 L745 0 Z " />
<glyph glyph-name="N" unicode="N" horiz-adv-x="683" d="M550 695 L550 69 L128 695 L95 695 L95 0 L133 0 L133 627 L556 0 L589 0 L589 695 L550 695 Z " />
<glyph glyph-name="O" unicode="O" horiz-adv-x="785" d="M393 -10 C588 -10 734 138 734 347 C734 557 588 705 393 705 C196 705 51 557 51 347 C51 138 196 -10 393 -10 L393 -10 Z M393 27 C219 27 91 159 91 347 C91 536 219 668 393 668 C566 668 694 536 694 347 C694 159 565 27 393 27 L393 27 Z " />
<glyph glyph-name="P" unicode="P" horiz-adv-x="580" d="M334 695 L95 695 L95 0 L133 0 L133 315 L334 315 C465 315 548 389 548 505 C548 621 466 695 334 695 L334 695 Z M332 351 L133 351 L133 660 L332 660 C445 660 508 597 508 505 C508 412 445 351 332 351 L332 351 Z " />
<glyph glyph-name="Q" unicode="Q" horiz-adv-x="785" d="M734 347 C734 557 588 705 393 705 C196 705 51 557 51 347 C51 138 196 -10 393 -10 C440 -10 485 -1 525 15 L684 -141 L709 -112 L562 33 C667 91 734 205 734 347 L734 347 Z M91 347 C91 536 219 668 393 668 C566 668 694 536 694 347 C694 159 565 27 393 27 C219 27 91 159 91 347 L91 347 Z " />
<glyph glyph-name="R" unicode="R" horiz-adv-x="590" d="M334 329 C465 329 548 403 548 512 C548 621 466 695 334 695 L95 695 L95 0 L133 0 L133 329 L221 329 L499 0 L546 0 L266 329 L334 329 Z M133 660 L333 660 C445 660 509 598 509 510 C509 422 445 361 333 361 L133 361 L133 660 Z " />
<glyph glyph-name="S" unicode="S" horiz-adv-x="527" d="M261 -9 C391 -9 479 60 479 168 C479 424 106 337 106 546 C106 617 163 668 265 668 C353 668 406 633 431 555 L468 569 C441 656 374 704 266 704 C144 704 66 637 66 540 C66 305 439 386 439 166 C439 81 369 27 262 27 C162 27 94 76 72 161 L35 147 C62 49 143 -9 261 -9 L261 -9 Z " />
<glyph glyph-name="T" unicode="T" horiz-adv-x="524" d="M510 695 L14 695 L14 660 L243 660 L243 0 L281 0 L281 660 L510 660 L510 695 Z " />
<glyph glyph-name="U" unicode="U" horiz-adv-x="668" d="M543 695 L543 250 C543 127 473 26 335 26 C195 26 126 126 126 250 L126 695 L87 695 L87 249 C87 107 168 -10 335 -10 C501 -10 582 108 582 249 L582 695 L543 695 Z " />
<glyph glyph-name="V" unicode="V" horiz-adv-x="609" d="M555 695 L304 46 L53 695 L13 695 L282 0 L327 0 L596 695 L555 695 Z " />
<glyph glyph-name="W" unicode="W" horiz-adv-x="844" d="M781 695 L627 61 L442 695 L402 695 L217 59 L62 695 L24 695 L196 0 L236 0 L422 638 L608 0 L648 0 L820 695 L781 695 Z " />
<glyph glyph-name="X" unicode="X" horiz-adv-x="594" d="M587 0 L321 355 L574 696 L529 696 L299 385 L67 696 L21 696 L274 357 L7 0 L52 0 L296 329 L542 0 L587 0 Z " />
<glyph glyph-name="Y" unicode="Y" horiz-adv-x="587" d="M575 695 L531 695 L294 323 L57 695 L13 695 L274 290 L274 0 L313 0 L313 289 L575 695 Z " />
<glyph glyph-name="Z" unicode="Z" horiz-adv-x="525" d="M71 36 L495 665 L495 695 L35 695 L35 660 L448 660 L24 29 L24 0 L503 0 L503 36 L71 36 Z " />
<glyph glyph-name="bracketleft" unicode="&#x5b;" horiz-adv-x="275" d="M254 718 L254 754 L93 754 L93 -94 L254 -94 L254 -59 L131 -59 L131 718 L254 718 Z " />
<glyph glyph-name="backslash" unicode="&#x5c;" horiz-adv-x="315" d="M236 -50 L273 -50 L80 711 L43 711 L236 -50 Z " />
<glyph glyph-name="bracketright" unicode="&#x5d;" horiz-adv-x="275" d="M21 754 L21 718 L144 718 L144 -59 L21 -59 L21 -94 L183 -94 L183 754 L21 754 Z " />
<glyph glyph-name="asciicircum" unicode="&#x5e;" horiz-adv-x="422" d="M376 390 L222 648 L193 648 L48 390 L88 390 L208 606 L335 390 L376 390 Z " />
<glyph glyph-name="underscore" unicode="&#x5f;" horiz-adv-x="457" d="M24 -59 L433 -59 L433 -25 L24 -25 L24 -59 Z " />
<glyph glyph-name="grave" unicode="&#x60;" horiz-adv-x="248" d="M218 613 L235 639 L49 753 L30 724 L218 613 Z " />
<glyph glyph-name="a" unicode="a" horiz-adv-x="647" d="M527 527 L527 389 C489 479 408 536 304 536 C156 536 46 420 46 264 C46 107 155 -10 304 -10 C408 -10 489 48 527 138 L527 0 L564 0 L564 527 L527 527 Z M305 25 C179 25 85 126 85 264 C85 400 180 502 305 502 C435 502 526 404 526 264 C526 124 435 25 305 25 L305 25 Z " />
<glyph glyph-name="b" unicode="b" horiz-adv-x="647" d="M344 537 C242 537 161 482 122 394 L122 731 L84 731 L84 0 L121 0 L121 136 C160 47 241 -10 344 -10 C492 -10 601 107 601 264 C601 420 492 537 344 537 L344 537 Z M342 25 C213 25 121 124 121 264 C121 404 212 502 342 502 C468 502 563 400 563 264 C563 126 468 25 342 25 L342 25 Z " />
<glyph glyph-name="c" unicode="c" horiz-adv-x="573" d="M311 -10 C427 -10 512 54 542 148 L506 162 C480 75 407 25 312 25 C181 25 85 124 85 263 C85 402 181 501 310 501 C404 501 477 451 503 364 L539 378 C509 472 424 536 309 536 C157 536 46 420 46 263 C46 105 157 -10 311 -10 L311 -10 Z " />
<glyph glyph-name="d" unicode="d" horiz-adv-x="647" d="M525 731 L525 395 C485 482 405 537 303 537 C155 537 46 420 46 264 C46 107 155 -10 304 -10 C407 -10 488 47 527 136 L527 0 L564 0 L564 731 L525 731 Z M305 25 C179 25 85 126 85 264 C85 400 180 502 305 502 C435 502 526 404 526 264 C526 124 435 25 305 25 L305 25 Z " />
<glyph glyph-name="e" unicode="e" horiz-adv-x="592" d="M302 537 C157 537 46 418 46 263 C46 106 154 -10 304 -10 C423 -10 504 44 539 140 L507 157 C477 69 408 27 304 27 C180 27 92 119 87 253 L548 253 L548 276 C548 425 447 537 302 537 L302 537 Z M88 289 C98 414 185 501 303 501 C422 501 503 416 508 289 L88 289 Z " />
<glyph glyph-name="f" unicode="f" horiz-adv-x="324" d="M285 708 L319 708 L319 741 L285 741 C184 741 120 678 120 565 L120 527 L13 527 L13 492 L120 492 L120 0 L159 0 L159 492 L316 492 L316 527 L159 527 L159 567 C159 659 208 708 285 708 L285 708 Z " />
<glyph glyph-name="g" unicode="g" horiz-adv-x="647" d="M528 527 L528 388 C490 479 409 537 304 537 C157 537 47 420 47 266 C47 111 156 -6 304 -6 C409 -6 490 53 528 144 L528 58 C528 -73 443 -155 306 -155 C200 -155 126 -106 98 -12 L63 -25 C96 -130 180 -189 305 -189 C466 -189 565 -93 565 60 L565 527 L528 527 Z M306 27 C180 27 85 128 85 264 C85 401 180 502 308 502 C436 502 526 403 526 265 C526 126 435 27 306 27 L306 27 Z " />
<glyph glyph-name="h" unicode="h" horiz-adv-x="615" d="M319 537 C221 537 150 483 122 423 L122 731 L84 731 L84 0 L122 0 L122 336 C124 419 201 501 314 502 C432 503 500 431 500 310 L500 0 L539 0 L539 315 C539 452 460 537 319 537 L319 537 Z " />
<glyph glyph-name="i" unicode="i" horiz-adv-x="206" d="M103 639 C129 639 149 657 149 684 C149 710 129 729 103 729 C76 729 56 710 56 684 C56 657 76 639 103 639 L103 639 Z M84 0 L122 0 L122 527 L84 527 L84 0 Z " />
<glyph glyph-name="j" unicode="j" horiz-adv-x="206" d="M103 638 C129 638 149 657 149 683 C149 709 129 729 103 729 C77 729 57 709 57 683 C57 657 77 638 103 638 L103 638 Z M-53 -180 L-41 -180 C58 -180 123 -111 123 -9 L123 527 L84 527 L84 -9 C84 -89 34 -144 -43 -144 L-53 -144 L-53 -180 Z " />
<glyph glyph-name="k" unicode="k" horiz-adv-x="483" d="M483 0 L165 287 L472 527 L422 527 L122 298 L122 731 L84 731 L84 0 L122 0 L122 278 L434 0 L483 0 Z " />
<glyph glyph-name="l" unicode="l" horiz-adv-x="206" d="M84 0 L122 0 L122 731 L84 731 L84 0 Z " />
<glyph glyph-name="m" unicode="m" horiz-adv-x="990" d="M703 537 C598 537 526 468 505 404 C478 486 410 537 309 537 C216 537 148 482 121 425 L121 527 L84 527 L84 0 L122 0 L122 345 C124 419 198 501 303 502 C410 503 479 429 479 318 L479 0 L518 0 L518 345 C520 419 593 501 699 502 C806 503 875 428 875 318 L875 0 L914 0 L914 323 C914 450 834 537 703 537 L703 537 Z " />
<glyph glyph-name="n" unicode="n" horiz-adv-x="615" d="M319 537 C220 537 149 482 121 421 L121 527 L84 527 L84 0 L122 0 L122 336 C124 419 201 501 314 502 C432 503 500 431 500 310 L500 0 L539 0 L539 315 C539 452 460 537 319 537 L319 537 Z " />
<glyph glyph-name="o" unicode="o" horiz-adv-x="624" d="M312 -10 C467 -10 578 106 578 263 C578 421 467 537 312 537 C156 537 46 421 46 263 C46 106 156 -10 312 -10 L312 -10 Z M312 25 C179 25 85 126 85 263 C85 402 179 502 312 502 C446 502 539 402 539 263 C539 126 446 25 312 25 L312 25 Z " />
<glyph glyph-name="p" unicode="p" horiz-adv-x="647" d="M344 537 C241 537 160 480 121 391 L121 527 L84 527 L84 -179 L122 -179 L122 133 C161 45 242 -10 344 -10 C491 -10 601 107 601 263 C601 420 493 537 344 537 L344 537 Z M342 25 C212 25 121 123 121 263 C121 403 213 502 342 502 C468 502 563 400 563 263 C563 127 468 25 342 25 L342 25 Z " />
<glyph glyph-name="q" unicode="q" horiz-adv-x="647" d="M527 527 L527 390 C488 480 406 537 303 537 C155 537 46 420 46 263 C46 107 156 -10 304 -10 C405 -10 485 44 525 131 L525 -179 L564 -179 L564 527 L527 527 Z M305 25 C180 25 85 127 85 263 C85 400 179 502 305 502 C435 502 526 403 526 263 C526 123 435 25 305 25 L305 25 Z " />
<glyph glyph-name="r" unicode="r" horiz-adv-x="317" d="M121 425 L121 527 L84 527 L84 0 L122 0 L122 338 C122 418 201 500 302 501 L302 537 C216 537 148 483 121 425 L121 425 Z " />
<glyph glyph-name="s" unicode="s" horiz-adv-x="464" d="M234 -10 C348 -10 426 42 426 135 C426 328 98 254 98 407 C98 468 146 505 230 505 C298 505 345 479 368 421 L402 435 C378 502 317 537 230 537 C127 537 58 487 58 405 C58 224 386 293 386 132 C386 62 325 22 235 22 C145 22 86 60 67 123 L32 109 C56 33 130 -10 234 -10 L234 -10 Z " />
<glyph glyph-name="t" unicode="t" horiz-adv-x="343" d="M270 0 L340 0 L340 35 L275 35 C196 35 152 83 152 165 L152 492 L330 492 L330 527 L153 527 L153 659 L117 659 L117 570 C117 540 105 527 75 527 L13 527 L13 492 L114 492 L114 162 C114 61 170 0 270 0 L270 0 Z " />
<glyph glyph-name="u" unicode="u" horiz-adv-x="604" d="M482 527 L482 182 C480 107 405 26 296 25 C185 24 115 96 115 208 L115 527 L76 527 L76 204 C76 76 155 -10 290 -10 C386 -10 455 44 483 102 L483 0 L520 0 L520 527 L482 527 Z " />
<glyph glyph-name="v" unicode="v" horiz-adv-x="527" d="M472 527 L263 44 L55 527 L13 527 L243 0 L283 0 L514 527 L472 527 Z " />
<glyph glyph-name="w" unicode="w" horiz-adv-x="750" d="M688 527 L556 48 L399 527 L354 527 L195 48 L62 527 L21 527 L170 0 L217 0 L376 479 L536 0 L581 0 L731 527 L688 527 Z " />
<glyph glyph-name="x" unicode="x" horiz-adv-x="491" d="M483 0 L270 268 L474 527 L430 527 L249 295 L64 527 L18 527 L222 270 L7 0 L50 0 L244 243 L437 0 L483 0 Z " />
<glyph glyph-name="y" unicode="y" horiz-adv-x="527" d="M473 527 L263 40 L54 527 L13 527 L241 0 L245 0 L167 -179 L206 -179 L283 0 L514 527 L473 527 Z " />
<glyph glyph-name="z" unicode="z" horiz-adv-x="447" d="M70 33 L413 495 L413 527 L40 527 L40 494 L368 494 L24 31 L24 0 L427 0 L427 33 L70 33 Z " />
<glyph glyph-name="braceleft" unicode="&#x7b;" horiz-adv-x="278" d="M243 -94 L254 -94 L254 -59 L246 -59 C190 -59 156 -15 156 54 L156 210 C156 302 95 324 72 330 C95 335 156 358 156 450 L156 606 C156 675 189 718 246 718 L254 718 L254 754 L243 754 C176 754 118 712 118 606 L118 449 C118 372 65 347 22 347 L9 347 L9 313 L22 313 C65 313 118 288 118 210 L118 54 C118 -52 176 -94 243 -94 L243 -94 Z " />
<glyph glyph-name="bar" unicode="&#x7c;" horiz-adv-x="219" d="M93 -82 L126 -82 L126 712 L93 712 L93 -82 Z " />
<glyph glyph-name="braceright" unicode="&#x7d;" horiz-adv-x="278" d="M24 -94 L34 -94 C101 -94 159 -52 159 54 L159 210 C159 288 212 313 256 313 L268 313 L268 347 L256 347 C212 347 159 372 159 449 L159 606 C159 712 101 754 34 754 L24 754 L24 718 L31 718 C88 718 121 675 121 606 L121 450 C121 358 183 335 206 330 C183 324 121 302 121 210 L121 54 C121 -15 87 -59 31 -59 L24 -59 L24 -94 Z " />
<glyph glyph-name="asciitilde" unicode="&#x7e;" horiz-adv-x="525" d="M353 244 C401 244 439 266 457 298 L433 319 C420 296 385 280 350 280 C282 280 251 337 172 337 C123 337 86 315 68 283 L92 262 C104 285 140 300 175 300 C243 300 274 244 353 244 L353 244 Z " />
<glyph glyph-name="uni00A0" unicode="&#xa0;" horiz-adv-x="247" d="" />
<glyph glyph-name="exclamdown" unicode="&#xa1;" horiz-adv-x="211" d="M106 458 C128 458 145 475 145 497 C145 520 128 536 106 536 C83 536 67 520 67 497 C67 475 83 458 106 458 L106 458 Z M82 -179 L129 -179 L123 344 L90 344 L82 -179 Z " />
<glyph glyph-name="cent" unicode="&#xa2;" horiz-adv-x="526" d="M486 230 L451 244 C428 168 365 125 283 125 C169 125 86 211 86 330 C86 450 169 536 281 536 C363 536 425 493 449 417 L484 431 C459 508 392 564 299 570 L299 661 L265 661 L265 571 C139 563 48 463 48 330 C48 198 138 99 265 91 L265 0 L299 0 L299 91 C393 97 461 153 486 230 L486 230 Z " />
<glyph glyph-name="sterling" unicode="&#xa3;" horiz-adv-x="526" d="M155 311 L394 311 L394 346 L155 346 L155 477 C155 562 205 636 305 636 C389 636 435 586 455 518 L491 532 C467 612 408 672 304 672 C186 672 117 582 117 477 L117 346 L33 346 L33 311 L117 311 L117 0 L478 0 L478 35 L155 35 L155 311 Z " />
<glyph glyph-name="currency" unicode="&#xa4;" horiz-adv-x="565" d="M494 330 C494 385 476 434 445 471 L504 529 L480 553 L421 494 C385 526 336 545 283 545 C229 545 180 526 143 494 L84 553 L60 529 L120 469 C90 433 72 384 72 330 C72 276 90 229 120 192 L60 133 L84 109 L143 168 C180 135 229 116 283 116 C337 116 385 135 422 167 L481 109 L504 133 L446 191 C476 228 494 276 494 330 L494 330 Z M283 149 C185 149 108 224 108 330 C108 437 186 512 283 512 C380 512 458 437 458 330 C458 224 380 149 283 149 L283 149 Z " />
<glyph glyph-name="yen" unicode="&#xa5;" horiz-adv-x="549" d="M523 660 L480 660 L275 310 L70 660 L27 660 L249 287 L117 287 L117 257 L254 257 L254 150 L117 150 L117 120 L254 120 L254 0 L293 0 L293 120 L430 120 L430 150 L293 150 L293 257 L430 257 L430 287 L300 287 L523 660 Z " />
<glyph glyph-name="brokenbar" unicode="&#xa6;" horiz-adv-x="219" d="M93 399 L126 399 L126 712 L93 712 L93 399 Z M93 -82 L126 -82 L126 231 L93 231 L93 -82 Z " />
<glyph glyph-name="section" unicode="&#xa7;" horiz-adv-x="483" d="M350 163 C403 185 433 229 433 293 C433 489 118 409 118 569 C118 631 167 669 251 669 C321 669 359 642 381 585 L415 598 C390 665 338 700 251 700 C149 700 81 650 81 566 C81 503 117 471 165 449 C101 432 59 387 59 323 C59 139 376 213 376 47 C376 -25 315 -65 236 -65 C148 -65 97 -29 77 35 L43 22 C68 -53 132 -96 237 -96 C336 -96 414 -45 414 51 C414 107 387 140 350 163 L350 163 Z M96 327 C96 384 138 422 214 430 C300 401 396 382 396 290 C396 234 367 196 312 182 C219 220 96 228 96 327 L96 327 Z " />
<glyph glyph-name="dieresis" unicode="&#xa8;" horiz-adv-x="302" d="M74 640 C98 640 118 659 118 683 C118 708 98 727 75 727 C51 727 30 708 30 684 C30 659 51 640 74 640 L74 640 Z M244 640 C268 640 288 659 288 683 C288 708 268 727 244 727 C221 727 200 708 200 684 C200 659 221 640 244 640 L244 640 Z " />
<glyph glyph-name="copyright" unicode="&#xa9;" horiz-adv-x="767" d="M385 -11 C578 -11 716 132 716 330 C716 523 578 672 385 672 C191 672 52 523 52 330 C52 132 191 -11 385 -11 L385 -11 Z M385 19 C214 19 84 144 84 330 C84 506 214 642 385 642 C553 642 685 506 685 330 C685 144 553 19 385 19 L385 19 Z M389 135 C473 135 534 181 556 249 L524 261 C506 200 456 167 389 167 C296 167 233 234 233 331 C233 427 296 495 389 495 C454 495 504 461 522 401 L554 412 C532 480 471 527 388 527 C278 527 198 444 198 331 C198 218 279 135 389 135 L389 135 Z " />
<glyph glyph-name="ordfeminine" unicode="&#xaa;" horiz-adv-x="393" d="M302 813 L302 744 C281 790 239 820 180 820 C103 820 41 758 41 670 C41 584 102 521 180 521 C238 521 281 551 302 597 L302 528 L328 528 L328 813 L302 813 Z M184 551 C122 551 72 601 72 671 C72 739 123 790 184 790 C251 790 297 738 297 671 C297 602 251 551 184 551 L184 551 Z " />
<glyph glyph-name="guillemotleft" unicode="&#xab;" horiz-adv-x="409" d="M151 90 L192 90 L85 254 L192 418 L151 418 L45 254 L151 90 Z M305 90 L345 90 L239 254 L345 418 L305 418 L198 254 L305 90 Z " />
<glyph glyph-name="logicalnot" unicode="&#xac;" horiz-adv-x="554" d="M64 355 L64 319 L439 319 L439 136 L477 136 L477 355 L64 355 Z " />
<glyph glyph-name="registered" unicode="&#xae;" horiz-adv-x="487" d="M244 727 C133 727 48 640 48 532 C48 424 133 336 244 336 C354 336 439 424 439 532 C439 640 354 727 244 727 L244 727 Z M244 359 C148 359 71 435 71 532 C71 627 148 704 244 704 C341 704 416 627 416 532 C416 435 341 359 244 359 L244 359 Z M328 591 C328 627 302 651 261 651 L183 651 L183 428 L205 428 L205 532 L216 532 L301 428 L328 428 L242 532 L261 532 C302 532 328 555 328 591 L328 591 Z M205 551 L205 631 L259 631 C289 631 306 616 306 591 C306 567 289 551 259 551 L205 551 Z " />
<glyph glyph-name="macron" unicode="&#xaf;" horiz-adv-x="282" d="M30 667 L292 667 L292 700 L30 700 L30 667 Z " />
<glyph glyph-name="degree" unicode="&#xb0;" horiz-adv-x="350" d="M175 444 C248 444 303 497 303 572 C303 645 248 699 175 699 C102 699 47 645 47 571 C47 498 101 444 175 444 L175 444 Z M175 473 C121 473 78 515 78 571 C78 628 121 669 175 669 C229 669 272 628 272 571 C272 515 229 473 175 473 L175 473 Z " />
<glyph glyph-name="plusminus" unicode="&#xb1;" horiz-adv-x="530" d="M283 369 L283 566 L247 566 L247 369 L58 369 L58 333 L247 333 L247 124 L283 124 L283 333 L472 333 L472 369 L283 369 Z M58 41 L472 41 L472 77 L58 77 L58 41 Z " />
<glyph glyph-name="uni00B2" unicode="&#xb2;" horiz-adv-x="336" d="M102 373 L207 489 C236 519 267 560 267 608 C267 662 227 699 167 699 C112 699 71 666 59 620 L88 610 C98 651 131 673 167 673 C208 673 238 644 238 607 C238 565 205 526 184 504 L59 367 L59 347 L274 347 L274 373 L102 373 Z " />
<glyph glyph-name="uni00B3" unicode="&#xb3;" horiz-adv-x="324" d="M170 549 L160 549 L266 670 L266 695 L58 695 L58 669 L232 669 L127 549 L127 528 L163 528 C205 528 242 499 242 449 C242 403 210 368 159 368 C115 368 82 393 72 428 L45 417 C56 376 98 342 159 342 C227 342 272 388 272 448 C272 507 228 549 170 549 L170 549 Z " />
<glyph glyph-name="acute" unicode="&#xb4;" horiz-adv-x="208" d="M47 613 L235 724 L216 753 L30 639 L47 613 Z " />
<glyph glyph-name="paragraph" unicode="&#xb6;" horiz-adv-x="589" d="M489 695 L244 695 C112 695 30 621 30 505 C30 389 112 315 244 315 L328 315 L328 659 L381 659 L381 -100 L409 -100 L409 659 L461 659 L461 -100 L489 -100 L489 695 Z " />
<glyph glyph-name="periodcentered" unicode="&#xb7;" horiz-adv-x="212" d="M106 277 C128 277 145 293 145 315 C145 338 128 355 106 355 C83 355 67 338 67 315 C67 293 83 277 106 277 L106 277 Z " />
<glyph glyph-name="cedilla" unicode="&#xb8;" horiz-adv-x="234" d="M129 -239 C194 -239 231 -198 231 -149 C231 -100 194 -61 136 -60 L167 7 L138 7 L101 -72 L107 -80 L124 -80 C169 -80 200 -109 200 -147 C200 -182 171 -212 126 -212 C88 -212 64 -193 48 -174 L30 -193 C48 -216 78 -239 129 -239 L129 -239 Z " />
<glyph glyph-name="uni00B9" unicode="&#xb9;" horiz-adv-x="266" d="M161 374 L161 695 L131 695 L131 647 L61 647 L61 620 L131 620 L131 374 L59 374 L59 347 L221 347 L221 374 L161 374 Z " />
<glyph glyph-name="ordmasculine" unicode="&#xba;" horiz-adv-x="373" d="M186 521 C273 521 333 585 333 670 C333 754 273 820 186 820 C99 820 41 754 41 670 C41 587 99 521 186 521 L186 521 Z M187 549 C117 549 71 601 71 670 C71 739 117 791 187 791 C257 791 301 739 301 670 C301 601 257 549 187 549 L187 549 Z " />
<glyph glyph-name="guillemotright" unicode="&#xbb;" horiz-adv-x="409" d="M64 90 L104 90 L211 254 L104 418 L64 418 L171 254 L64 90 Z M218 90 L258 90 L365 254 L258 418 L218 418 L324 254 L218 90 Z " />
<glyph glyph-name="onequarter" unicode="&#xbc;" horiz-adv-x="595" d="M44 347 L206 347 L206 374 L146 374 L146 695 L115 695 L115 647 L46 647 L46 620 L115 620 L115 374 L44 374 L44 347 Z M498 695 L98 0 L133 0 L534 695 L498 695 Z M556 112 L510 112 L510 348 L481 348 L304 108 L304 87 L480 87 L480 0 L510 0 L510 87 L556 87 L556 112 Z M481 112 L337 112 L481 307 L481 112 Z " />
<glyph glyph-name="onehalf" unicode="&#xbd;" horiz-adv-x="627" d="M44 347 L206 347 L206 374 L146 374 L146 695 L115 695 L115 647 L46 647 L46 620 L115 620 L115 374 L44 374 L44 347 Z M494 695 L93 0 L129 0 L530 695 L494 695 Z M417 26 L522 142 C550 172 582 213 582 261 C582 315 542 352 482 352 C427 352 386 319 374 273 L403 263 C413 304 446 326 482 326 C523 326 552 297 552 260 C552 218 519 179 499 157 L374 20 L374 0 L589 0 L589 26 L417 26 Z " />
<glyph glyph-name="threequarters" unicode="&#xbe;" horiz-adv-x="599" d="M259 448 C259 507 215 549 157 549 L147 549 L253 670 L253 695 L45 695 L45 669 L219 669 L114 549 L114 528 L150 528 C192 528 229 499 229 449 C229 403 197 368 146 368 C102 368 69 393 59 428 L31 417 C43 376 85 342 146 342 C214 342 259 388 259 448 L259 448 Z M511 695 L111 0 L147 0 L547 695 L511 695 Z M552 112 L506 112 L506 348 L477 348 L300 108 L300 87 L477 87 L477 0 L506 0 L506 87 L552 87 L552 112 Z M477 112 L333 112 L477 307 L477 112 Z " />
<glyph glyph-name="questiondown" unicode="&#xbf;" horiz-adv-x="423" d="M247 458 C269 458 286 475 286 497 C286 520 269 536 247 536 C224 536 208 520 208 497 C208 475 224 458 247 458 L247 458 Z M205 -189 C299 -189 377 -127 393 -37 L356 -25 C342 -97 283 -151 206 -151 C126 -151 76 -106 76 -27 C76 114 268 120 268 306 L268 344 L231 344 L231 305 C231 140 36 129 36 -31 C36 -128 99 -189 205 -189 L205 -189 Z " />
<glyph glyph-name="Agrave" unicode="&#xc0;" horiz-adv-x="605" d="M416 801 L198 892 L187 859 L406 772 L416 801 Z M552 0 L591 0 L325 695 L279 695 L14 0 L53 0 L143 235 L462 235 L552 0 Z M156 269 L303 651 L449 269 L156 269 Z " />
<glyph glyph-name="Aacute" unicode="&#xc1;" horiz-adv-x="605" d="M426 859 L415 892 L197 801 L207 772 L426 859 Z M552 0 L591 0 L325 695 L279 695 L14 0 L53 0 L143 235 L462 235 L552 0 Z M156 269 L303 651 L449 269 L156 269 Z " />
<glyph glyph-name="Acircumflex" unicode="&#xc2;" horiz-adv-x="605" d="M301 861 L399 774 L440 774 L318 889 L286 889 L163 774 L204 774 L301 861 Z M552 0 L591 0 L325 695 L279 695 L14 0 L53 0 L143 235 L462 235 L552 0 Z M156 269 L303 651 L449 269 L156 269 Z " />
<glyph glyph-name="Atilde" unicode="&#xc3;" horiz-adv-x="605" d="M241 838 C290 838 301 785 363 785 C417 785 443 825 451 859 L420 871 C415 843 396 819 362 819 C313 819 300 872 241 872 C188 872 161 832 154 799 L184 786 C190 814 207 838 241 838 L241 838 Z M552 0 L591 0 L325 695 L279 695 L14 0 L53 0 L143 235 L462 235 L552 0 Z M156 269 L303 651 L449 269 L156 269 Z " />
<glyph glyph-name="Adieresis" unicode="&#xc4;" horiz-adv-x="605" d="M214 789 C237 789 257 808 257 831 C257 855 237 874 214 874 C191 874 171 855 171 832 C171 808 191 789 214 789 L214 789 Z M388 789 C411 789 431 808 431 831 C431 855 411 874 388 874 C365 874 345 855 345 832 C345 808 365 789 388 789 L388 789 Z M552 0 L591 0 L325 695 L279 695 L14 0 L53 0 L143 235 L462 235 L552 0 Z M156 269 L303 651 L449 269 L156 269 Z " />
<glyph glyph-name="Aring" unicode="&#xc5;" horiz-adv-x="605" d="M302 735 C350 735 386 770 386 817 C386 863 350 899 302 899 C253 899 217 863 217 817 C217 770 253 735 302 735 L302 735 Z M302 872 C334 872 358 848 358 817 C358 786 334 762 302 762 C269 762 245 786 245 817 C245 848 269 872 302 872 L302 872 Z M552 0 L591 0 L325 695 L279 695 L14 0 L53 0 L143 235 L462 235 L552 0 Z M156 269 L303 651 L449 269 L156 269 Z " />
<glyph glyph-name="AE" unicode="&#xc6;" horiz-adv-x="907" d="M491 35 L491 347 L830 347 L830 382 L491 382 L491 660 L861 660 L861 695 L405 695 L-10 0 L32 0 L173 235 L452 235 L452 0 L868 0 L868 35 L491 35 Z M194 269 L429 660 L452 660 L452 269 L194 269 Z " />
<glyph glyph-name="Ccedilla" unicode="&#xc7;" horiz-adv-x="727" d="M392 27 C220 27 92 158 92 347 C92 537 220 668 388 668 C523 668 610 596 656 474 L693 489 C645 620 546 705 389 705 C197 705 52 558 52 347 C52 144 187 0 373 -10 L345 -72 L350 -80 L368 -80 C412 -80 444 -109 444 -147 C444 -182 415 -212 370 -212 C331 -212 307 -193 292 -174 L273 -193 C291 -216 322 -239 373 -239 C437 -239 475 -198 475 -149 C475 -100 438 -61 379 -60 L403 -10 C556 -6 645 77 693 206 L656 221 C610 98 527 27 392 27 L392 27 Z " />
<glyph glyph-name="Egrave" unicode="&#xc8;" horiz-adv-x="551" d="M415 801 L196 892 L185 859 L404 772 L415 801 Z M133 35 L133 347 L474 347 L474 382 L133 382 L133 660 L505 660 L505 695 L95 695 L95 0 L511 0 L511 35 L133 35 Z " />
<glyph glyph-name="Eacute" unicode="&#xc9;" horiz-adv-x="551" d="M425 859 L413 892 L195 801 L205 772 L425 859 Z M133 35 L133 347 L474 347 L474 382 L133 382 L133 660 L505 660 L505 695 L95 695 L95 0 L511 0 L511 35 L133 35 Z " />
<glyph glyph-name="Ecircumflex" unicode="&#xca;" horiz-adv-x="551" d="M299 861 L397 774 L438 774 L316 889 L284 889 L161 774 L202 774 L299 861 Z M133 35 L133 347 L474 347 L474 382 L133 382 L133 660 L505 660 L505 695 L95 695 L95 0 L511 0 L511 35 L133 35 Z " />
<glyph glyph-name="Edieresis" unicode="&#xcb;" horiz-adv-x="551" d="M212 789 C235 789 255 808 255 831 C255 855 235 874 212 874 C189 874 169 855 169 832 C169 808 189 789 212 789 L212 789 Z M386 789 C409 789 429 808 429 831 C429 855 409 874 386 874 C364 874 343 855 343 832 C343 808 364 789 386 789 L386 789 Z M133 35 L133 347 L474 347 L474 382 L133 382 L133 660 L505 660 L505 695 L95 695 L95 0 L511 0 L511 35 L133 35 Z " />
<glyph glyph-name="Igrave" unicode="&#xcc;" horiz-adv-x="228" d="M219 772 L229 801 L11 892 L-1 859 L219 772 Z M95 0 L133 0 L133 695 L95 695 L95 0 Z " />
<glyph glyph-name="Iacute" unicode="&#xcd;" horiz-adv-x="228" d="M20 772 L239 859 L228 892 L9 801 L20 772 Z M95 0 L133 0 L133 695 L95 695 L95 0 Z " />
<glyph glyph-name="Icircumflex" unicode="&#xce;" horiz-adv-x="228" d="M131 889 L99 889 L-24 774 L17 774 L114 861 L212 774 L252 774 L131 889 Z M95 0 L133 0 L133 695 L95 695 L95 0 Z " />
<glyph glyph-name="Idieresis" unicode="&#xcf;" horiz-adv-x="228" d="M27 789 C49 789 69 808 69 831 C69 855 50 874 27 874 C4 874 -16 855 -16 832 C-16 808 4 789 27 789 L27 789 Z M201 789 C224 789 244 808 244 831 C244 855 224 874 201 874 C178 874 158 855 158 832 C158 808 178 789 201 789 L201 789 Z M95 0 L133 0 L133 695 L95 695 L95 0 Z " />
<glyph glyph-name="Eth" unicode="&#xd0;" horiz-adv-x="719" d="M338 695 L100 695 L100 380 L19 380 L19 349 L100 349 L100 0 L338 0 C526 0 667 139 667 348 C667 557 526 695 338 695 L338 695 Z M337 35 L138 35 L138 349 L301 349 L301 380 L138 380 L138 660 L337 660 C502 660 628 534 628 348 C628 159 502 35 337 35 L337 35 Z " />
<glyph glyph-name="Ntilde" unicode="&#xd1;" horiz-adv-x="683" d="M279 838 C327 838 338 785 400 785 C455 785 481 825 488 859 L457 871 C452 843 434 819 399 819 C350 819 337 872 278 872 C225 872 198 832 191 799 L222 786 C227 814 245 838 279 838 L279 838 Z M550 695 L550 69 L128 695 L95 695 L95 0 L133 0 L133 627 L556 0 L589 0 L589 695 L550 695 Z " />
<glyph glyph-name="Ograve" unicode="&#xd2;" horiz-adv-x="785" d="M497 772 L508 801 L289 892 L278 859 L497 772 Z M393 -10 C588 -10 734 138 734 347 C734 557 588 705 393 705 C196 705 51 557 51 347 C51 138 196 -10 393 -10 L393 -10 Z M393 27 C219 27 91 159 91 347 C91 536 219 668 393 668 C566 668 694 536 694 347 C694 159 565 27 393 27 L393 27 Z " />
<glyph glyph-name="Oacute" unicode="&#xd3;" horiz-adv-x="785" d="M298 772 L518 859 L506 892 L288 801 L298 772 Z M393 -10 C588 -10 734 138 734 347 C734 557 588 705 393 705 C196 705 51 557 51 347 C51 138 196 -10 393 -10 L393 -10 Z M393 27 C219 27 91 159 91 347 C91 536 219 668 393 668 C566 668 694 536 694 347 C694 159 565 27 393 27 L393 27 Z " />
<glyph glyph-name="Ocircumflex" unicode="&#xd4;" horiz-adv-x="785" d="M393 861 L490 774 L531 774 L409 889 L377 889 L255 774 L295 774 L393 861 Z M393 705 C196 705 51 557 51 347 C51 138 196 -10 393 -10 C588 -10 734 138 734 347 C734 557 588 705 393 705 L393 705 Z M393 27 C219 27 91 159 91 347 C91 536 219 668 393 668 C566 668 694 536 694 347 C694 159 565 27 393 27 L393 27 Z " />
<glyph glyph-name="Otilde" unicode="&#xd5;" horiz-adv-x="785" d="M454 785 C508 785 534 825 542 859 L511 871 C506 843 487 819 453 819 C404 819 391 872 332 872 C279 872 252 832 245 799 L276 786 C281 814 299 838 332 838 C381 838 392 785 454 785 L454 785 Z M393 -10 C588 -10 734 138 734 347 C734 557 588 705 393 705 C196 705 51 557 51 347 C51 138 196 -10 393 -10 L393 -10 Z M393 27 C219 27 91 159 91 347 C91 536 219 668 393 668 C566 668 694 536 694 347 C694 159 565 27 393 27 L393 27 Z " />
<glyph glyph-name="Odieresis" unicode="&#xd6;" horiz-adv-x="785" d="M305 789 C328 789 348 808 348 831 C348 855 328 874 306 874 C282 874 262 855 262 832 C262 808 282 789 305 789 L305 789 Z M479 789 C502 789 522 808 522 831 C522 855 502 874 479 874 C457 874 436 855 436 832 C436 808 457 789 479 789 L479 789 Z M393 -10 C588 -10 734 138 734 347 C734 557 588 705 393 705 C196 705 51 557 51 347 C51 138 196 -10 393 -10 L393 -10 Z M393 27 C219 27 91 159 91 347 C91 536 219 668 393 668 C566 668 694 536 694 347 C694 159 565 27 393 27 L393 27 Z " />
<glyph glyph-name="multiply" unicode="&#xd7;" horiz-adv-x="482" d="M423 452 L397 478 L242 323 L86 478 L60 452 L216 297 L60 141 L86 115 L242 271 L397 115 L423 141 L268 297 L423 452 Z " />
<glyph glyph-name="Oslash" unicode="&#xd8;" horiz-adv-x="788" d="M644 599 L714 677 L689 701 L619 623 C560 675 482 705 395 705 C198 705 53 557 53 347 C53 246 87 159 144 96 L74 18 L99 -7 L170 72 C229 20 307 -10 395 -10 C590 -10 736 138 736 347 C736 449 702 536 644 599 L644 599 Z M93 347 C93 536 221 668 395 668 C472 668 541 641 593 595 L171 125 C122 181 93 258 93 347 L93 347 Z M395 27 C317 27 248 54 195 100 L618 570 C667 514 696 437 696 347 C696 159 567 27 395 27 L395 27 Z " />
<glyph glyph-name="Ugrave" unicode="&#xd9;" horiz-adv-x="668" d="M450 801 L231 892 L220 859 L439 772 L450 801 Z M543 695 L543 250 C543 127 473 26 335 26 C195 26 126 126 126 250 L126 695 L87 695 L87 249 C87 107 168 -10 335 -10 C501 -10 582 108 582 249 L582 695 L543 695 Z " />
<glyph glyph-name="Uacute" unicode="&#xda;" horiz-adv-x="668" d="M460 859 L448 892 L230 801 L240 772 L460 859 Z M543 695 L543 250 C543 127 473 26 335 26 C195 26 126 126 126 250 L126 695 L87 695 L87 249 C87 107 168 -10 335 -10 C501 -10 582 108 582 249 L582 695 L543 695 Z " />
<glyph glyph-name="Ucircumflex" unicode="&#xdb;" horiz-adv-x="668" d="M335 861 L432 774 L473 774 L351 889 L319 889 L197 774 L237 774 L335 861 Z M543 695 L543 250 C543 127 473 26 335 26 C195 26 126 126 126 250 L126 695 L87 695 L87 249 C87 107 168 -10 335 -10 C501 -10 582 108 582 249 L582 695 L543 695 Z " />
<glyph glyph-name="Udieresis" unicode="&#xdc;" horiz-adv-x="668" d="M247 789 C270 789 290 808 290 831 C290 855 270 874 248 874 C224 874 204 855 204 832 C204 808 224 789 247 789 L247 789 Z M421 789 C444 789 464 808 464 831 C464 855 444 874 421 874 C399 874 378 855 378 832 C378 808 399 789 421 789 L421 789 Z M543 695 L543 250 C543 127 473 26 335 26 C195 26 126 126 126 250 L126 695 L87 695 L87 249 C87 107 168 -10 335 -10 C501 -10 582 108 582 249 L582 695 L543 695 Z " />
<glyph glyph-name="Yacute" unicode="&#xdd;" horiz-adv-x="587" d="M420 859 L408 892 L190 801 L200 772 L420 859 Z M575 695 L531 695 L294 323 L57 695 L13 695 L274 290 L274 0 L313 0 L313 289 L575 695 Z " />
<glyph glyph-name="Thorn" unicode="&#xde;" horiz-adv-x="593" d="M334 545 L133 545 L133 695 L95 695 L95 0 L133 0 L133 164 L334 164 C465 164 548 239 548 354 C548 471 466 545 334 545 L334 545 Z M332 200 L133 200 L133 510 L332 510 C445 510 508 447 508 354 C508 262 445 200 332 200 L332 200 Z " />
<glyph glyph-name="germandbls" unicode="&#xdf;" horiz-adv-x="601" d="M391 395 C477 418 520 488 520 565 C520 665 444 741 316 741 C175 741 84 649 84 506 L84 0 L122 0 L122 508 C122 629 198 707 315 707 C417 707 481 648 481 562 C481 493 433 411 317 411 L317 374 C449 374 517 293 517 192 C517 94 450 24 348 24 C250 24 194 80 177 155 L159 131 C181 51 244 -10 351 -10 C467 -10 556 67 556 189 C556 296 489 378 391 395 L391 395 Z " />
<glyph glyph-name="agrave" unicode="&#xe0;" horiz-adv-x="647" d="M406 639 L219 753 L201 724 L389 613 L406 639 Z M527 527 L527 389 C489 479 408 536 304 536 C156 536 46 420 46 264 C46 107 155 -10 304 -10 C408 -10 489 48 527 138 L527 0 L564 0 L564 527 L527 527 Z M305 25 C179 25 85 126 85 264 C85 400 180 502 305 502 C435 502 526 404 526 264 C526 124 435 25 305 25 L305 25 Z " />
<glyph glyph-name="aacute" unicode="&#xe1;" horiz-adv-x="647" d="M424 724 L405 753 L219 639 L235 613 L424 724 Z M527 527 L527 389 C489 479 408 536 304 536 C156 536 46 420 46 264 C46 107 155 -10 304 -10 C408 -10 489 48 527 138 L527 0 L564 0 L564 527 L527 527 Z M305 25 C179 25 85 126 85 264 C85 400 180 502 305 502 C435 502 526 404 526 264 C526 124 435 25 305 25 L305 25 Z " />
<glyph glyph-name="acircumflex" unicode="&#xe2;" horiz-adv-x="647" d="M315 722 L418 617 L457 617 L332 749 L299 749 L173 617 L213 617 L315 722 Z M527 527 L527 389 C489 479 408 536 304 536 C156 536 46 420 46 264 C46 107 155 -10 304 -10 C408 -10 489 48 527 138 L527 0 L564 0 L564 527 L527 527 Z M305 25 C179 25 85 126 85 264 C85 400 180 502 305 502 C435 502 526 404 526 264 C526 124 435 25 305 25 L305 25 Z " />
<glyph glyph-name="atilde" unicode="&#xe3;" horiz-adv-x="647" d="M254 693 C302 693 314 640 376 640 C430 640 454 680 462 714 L431 726 C426 698 407 674 373 674 C324 674 311 727 253 727 C200 727 175 687 167 654 L198 641 C203 669 221 693 254 693 L254 693 Z M527 527 L527 389 C489 479 408 536 304 536 C156 536 46 420 46 264 C46 107 155 -10 304 -10 C408 -10 489 48 527 138 L527 0 L564 0 L564 527 L527 527 Z M305 25 C179 25 85 126 85 264 C85 400 180 502 305 502 C435 502 526 404 526 264 C526 124 435 25 305 25 L305 25 Z " />
<glyph glyph-name="adieresis" unicode="&#xe4;" horiz-adv-x="647" d="M230 640 C253 640 274 659 274 683 C274 708 253 727 230 727 C206 727 185 708 185 684 C185 659 206 640 230 640 L230 640 Z M399 640 C423 640 444 659 444 683 C444 708 423 727 399 727 C376 727 355 708 355 684 C355 659 376 640 399 640 L399 640 Z M527 527 L527 389 C489 479 408 536 304 536 C156 536 46 420 46 264 C46 107 155 -10 304 -10 C408 -10 489 48 527 138 L527 0 L564 0 L564 527 L527 527 Z M305 25 C179 25 85 126 85 264 C85 400 180 502 305 502 C435 502 526 404 526 264 C526 124 435 25 305 25 L305 25 Z " />
<glyph glyph-name="aring" unicode="&#xe5;" horiz-adv-x="647" d="M315 590 C363 590 400 625 400 672 C400 719 363 754 315 754 C267 754 230 719 230 672 C230 625 267 590 315 590 L315 590 Z M315 727 C347 727 371 703 371 672 C371 641 347 617 315 617 C283 617 259 641 259 672 C259 703 283 727 315 727 L315 727 Z M527 527 L527 389 C489 479 408 536 304 536 C156 536 46 420 46 264 C46 107 155 -10 304 -10 C408 -10 489 48 527 138 L527 0 L564 0 L564 527 L527 527 Z M305 25 C179 25 85 126 85 264 C85 400 180 502 305 502 C435 502 526 404 526 264 C526 124 435 25 305 25 L305 25 Z " />
<glyph glyph-name="ae" unicode="&#xe6;" horiz-adv-x="1076" d="M567 253 L1032 253 L1032 276 C1032 425 933 537 789 537 C684 537 602 476 564 384 L564 527 L527 527 L527 389 C489 480 408 537 304 537 C156 537 46 420 46 264 C46 107 155 -10 304 -10 C408 -10 489 48 527 138 L527 0 L564 0 L564 141 C602 49 683 -10 792 -10 C911 -10 991 46 1025 143 L992 156 C961 68 892 23 787 23 C664 23 572 119 567 253 L567 253 Z M567 281 C575 410 666 506 787 506 C909 506 994 413 996 281 L567 281 Z M305 25 C179 25 85 126 85 264 C85 400 180 502 305 502 C435 502 526 404 526 264 C526 124 435 25 305 25 L305 25 Z " />
<glyph glyph-name="ccedilla" unicode="&#xe7;" horiz-adv-x="573" d="M542 148 L506 162 C480 75 407 25 312 25 C181 25 85 124 85 263 C85 402 181 501 310 501 C404 501 477 451 503 364 L539 378 C509 472 424 536 309 536 C157 536 46 420 46 263 C46 111 149 -1 293 -9 L265 -72 L270 -80 L288 -80 C332 -80 364 -109 364 -147 C364 -182 335 -212 290 -212 C251 -212 228 -193 212 -174 L194 -193 C212 -216 242 -239 293 -239 C357 -239 395 -198 395 -149 C395 -100 358 -61 300 -60 L323 -10 C433 -5 513 57 542 148 L542 148 Z " />
<glyph glyph-name="egrave" unicode="&#xe8;" horiz-adv-x="592" d="M396 638 L209 752 L191 723 L379 612 L396 638 Z M302 537 C157 537 46 418 46 263 C46 106 154 -10 304 -10 C423 -10 504 44 539 140 L507 157 C477 69 408 27 304 27 C180 27 92 119 87 253 L548 253 L548 276 C548 425 447 537 302 537 L302 537 Z M88 289 C98 414 185 501 303 501 C422 501 503 416 508 289 L88 289 Z " />
<glyph glyph-name="eacute" unicode="&#xe9;" horiz-adv-x="592" d="M414 723 L395 752 L209 638 L226 612 L414 723 Z M302 537 C157 537 46 418 46 263 C46 106 154 -10 304 -10 C423 -10 504 44 539 140 L507 157 C477 69 408 27 304 27 C180 27 92 119 87 253 L548 253 L548 276 C548 425 447 537 302 537 L302 537 Z M88 289 C98 414 185 501 303 501 C422 501 503 416 508 289 L88 289 Z " />
<glyph glyph-name="ecircumflex" unicode="&#xea;" horiz-adv-x="592" d="M305 721 L408 616 L448 616 L322 748 L289 748 L163 616 L203 616 L305 721 Z M302 537 C157 537 46 418 46 263 C46 106 154 -10 304 -10 C423 -10 504 44 539 140 L507 157 C477 69 408 27 304 27 C180 27 92 119 87 253 L548 253 L548 276 C548 425 447 537 302 537 L302 537 Z M88 289 C98 414 185 501 303 501 C422 501 503 416 508 289 L88 289 Z " />
<glyph glyph-name="edieresis" unicode="&#xeb;" horiz-adv-x="592" d="M220 639 C243 639 264 658 264 682 C264 707 243 726 220 726 C196 726 176 707 176 683 C176 658 196 639 220 639 L220 639 Z M389 639 C413 639 434 658 434 682 C434 707 413 726 389 726 C366 726 346 707 346 683 C346 658 366 639 389 639 L389 639 Z M302 537 C157 537 46 418 46 263 C46 106 154 -10 304 -10 C423 -10 504 44 539 140 L507 157 C477 69 408 27 304 27 C180 27 92 119 87 253 L548 253 L548 276 C548 425 447 537 302 537 L302 537 Z M88 289 C98 414 185 501 303 501 C422 501 503 416 508 289 L88 289 Z " />
<glyph glyph-name="igrave" unicode="&#xec;" horiz-adv-x="206" d="M176 613 L193 639 L7 753 L-12 724 L176 613 Z M84 0 L122 0 L122 527 L84 527 L84 0 Z " />
<glyph glyph-name="iacute" unicode="&#xed;" horiz-adv-x="206" d="M23 613 L211 724 L193 753 L6 639 L23 613 Z M84 0 L122 0 L122 527 L84 527 L84 0 Z " />
<glyph glyph-name="icircumflex" unicode="&#xee;" horiz-adv-x="206" d="M119 749 L86 749 L-40 617 L0 617 L102 722 L205 617 L245 617 L119 749 Z M84 0 L122 0 L122 527 L84 527 L84 0 Z " />
<glyph glyph-name="idieresis" unicode="&#xef;" horiz-adv-x="206" d="M17 640 C40 640 61 659 61 683 C61 708 41 727 18 727 C-6 727 -27 708 -27 684 C-27 659 -6 640 17 640 L17 640 Z M186 640 C210 640 231 659 231 683 C231 708 211 727 187 727 C164 727 143 708 143 684 C143 659 164 640 186 640 L186 640 Z M84 0 L122 0 L122 527 L84 527 L84 0 Z " />
<glyph glyph-name="eth" unicode="&#xf0;" horiz-adv-x="627" d="M320 712 L399 791 L377 813 L290 726 C228 752 158 766 83 766 L66 732 C136 732 202 720 261 697 L148 584 L170 562 L292 684 C406 630 490 533 524 401 C474 487 398 518 311 518 C156 518 46 402 46 254 C46 106 156 -10 312 -10 C467 -10 578 96 578 273 C578 472 477 632 320 712 L320 712 Z M312 25 C179 25 85 126 85 254 C85 383 179 483 312 483 C446 483 538 383 538 257 C538 117 446 25 312 25 L312 25 Z " />
<glyph glyph-name="ntilde" unicode="&#xf1;" horiz-adv-x="615" d="M255 692 C303 692 315 639 376 639 C430 639 455 679 462 713 L431 725 C426 697 407 673 374 673 C324 673 312 726 253 726 C201 726 175 686 168 653 L198 640 C204 668 222 692 255 692 L255 692 Z M319 537 C220 537 149 482 121 421 L121 527 L84 527 L84 0 L122 0 L122 336 C124 419 201 501 314 502 C432 503 500 431 500 310 L500 0 L539 0 L539 315 C539 452 460 537 319 537 L319 537 Z " />
<glyph glyph-name="ograve" unicode="&#xf2;" horiz-adv-x="624" d="M386 612 L403 638 L217 752 L198 723 L386 612 Z M312 -10 C467 -10 578 106 578 263 C578 421 467 537 312 537 C156 537 46 421 46 263 C46 106 156 -10 312 -10 L312 -10 Z M312 25 C179 25 85 126 85 263 C85 402 179 502 312 502 C446 502 539 402 539 263 C539 126 446 25 312 25 L312 25 Z " />
<glyph glyph-name="oacute" unicode="&#xf3;" horiz-adv-x="624" d="M233 612 L421 723 L403 752 L216 638 L233 612 Z M312 -10 C467 -10 578 106 578 263 C578 421 467 537 312 537 C156 537 46 421 46 263 C46 106 156 -10 312 -10 L312 -10 Z M312 25 C179 25 85 126 85 263 C85 402 179 502 312 502 C446 502 539 402 539 263 C539 126 446 25 312 25 L312 25 Z " />
<glyph glyph-name="ocircumflex" unicode="&#xf4;" horiz-adv-x="624" d="M313 721 L415 616 L455 616 L329 748 L296 748 L170 616 L210 616 L313 721 Z M312 537 C156 537 46 421 46 263 C46 106 156 -10 312 -10 C467 -10 578 106 578 263 C578 421 467 537 312 537 L312 537 Z M312 25 C179 25 85 126 85 263 C85 402 179 502 312 502 C446 502 539 402 539 263 C539 126 446 25 312 25 L312 25 Z " />
<glyph glyph-name="otilde" unicode="&#xf5;" horiz-adv-x="624" d="M373 639 C427 639 452 679 459 713 L429 725 C423 697 405 673 371 673 C321 673 309 726 250 726 C198 726 172 686 165 653 L196 640 C201 668 219 692 252 692 C300 692 312 639 373 639 L373 639 Z M312 -10 C467 -10 578 106 578 263 C578 421 467 537 312 537 C156 537 46 421 46 263 C46 106 156 -10 312 -10 L312 -10 Z M312 25 C179 25 85 126 85 263 C85 402 179 502 312 502 C446 502 539 402 539 263 C539 126 446 25 312 25 L312 25 Z " />
<glyph glyph-name="odieresis" unicode="&#xf6;" horiz-adv-x="624" d="M227 639 C251 639 271 658 271 682 C271 707 251 726 228 726 C204 726 183 707 183 683 C183 658 204 639 227 639 L227 639 Z M397 639 C421 639 441 658 441 682 C441 707 421 726 397 726 C374 726 353 707 353 683 C353 658 374 639 397 639 L397 639 Z M312 -10 C467 -10 578 106 578 263 C578 421 467 537 312 537 C156 537 46 421 46 263 C46 106 156 -10 312 -10 L312 -10 Z M312 25 C179 25 85 126 85 263 C85 402 179 502 312 502 C446 502 539 402 539 263 C539 126 446 25 312 25 L312 25 Z " />
<glyph glyph-name="divide" unicode="&#xf7;" horiz-adv-x="553" d="M280 429 C302 429 319 446 319 468 C319 491 302 507 280 507 C258 507 241 491 241 468 C241 446 258 429 280 429 L280 429 Z M70 276 L483 276 L483 312 L70 312 L70 276 Z M282 66 C304 66 321 83 321 105 C321 128 304 144 282 144 C259 144 243 128 243 105 C243 83 259 66 282 66 L282 66 Z " />
<glyph glyph-name="oslash" unicode="&#xf8;" horiz-adv-x="639" d="M600 491 L580 514 L514 456 C467 507 399 537 320 537 C164 537 53 421 53 263 C53 198 72 140 105 95 L39 36 L60 13 L125 71 C173 20 240 -10 320 -10 C475 -10 585 106 585 263 C585 328 566 386 533 432 L600 491 Z M92 263 C92 402 186 502 320 502 C388 502 446 476 486 431 L134 120 C107 159 92 208 92 263 L92 263 Z M546 263 C546 126 453 25 320 25 C252 25 194 51 153 95 L505 407 C531 368 546 318 546 263 L546 263 Z " />
<glyph glyph-name="ugrave" unicode="&#xf9;" horiz-adv-x="604" d="M378 639 L192 753 L173 724 L362 613 L378 639 Z M482 527 L482 182 C480 107 405 26 296 25 C185 24 115 96 115 208 L115 527 L76 527 L76 204 C76 76 155 -10 290 -10 C386 -10 455 44 483 102 L483 0 L520 0 L520 527 L482 527 Z " />
<glyph glyph-name="uacute" unicode="&#xfa;" horiz-adv-x="604" d="M397 724 L378 753 L192 639 L208 613 L397 724 Z M482 527 L482 182 C480 107 405 26 296 25 C185 24 115 96 115 208 L115 527 L76 527 L76 204 C76 76 155 -10 290 -10 C386 -10 455 44 483 102 L483 0 L520 0 L520 527 L482 527 Z " />
<glyph glyph-name="ucircumflex" unicode="&#xfb;" horiz-adv-x="604" d="M288 722 L390 617 L430 617 L305 749 L272 749 L145 617 L185 617 L288 722 Z M482 527 L482 182 C480 107 405 26 296 25 C185 24 115 96 115 208 L115 527 L76 527 L76 204 C76 76 155 -10 290 -10 C386 -10 455 44 483 102 L483 0 L520 0 L520 527 L482 527 Z " />
<glyph glyph-name="udieresis" unicode="&#xfc;" horiz-adv-x="604" d="M203 640 C226 640 246 659 246 683 C246 708 226 727 203 727 C179 727 158 708 158 684 C158 659 179 640 203 640 L203 640 Z M372 640 C396 640 416 659 416 683 C416 708 396 727 372 727 C349 727 328 708 328 684 C328 659 349 640 372 640 L372 640 Z M482 527 L482 182 C480 107 405 26 296 25 C185 24 115 96 115 208 L115 527 L76 527 L76 204 C76 76 155 -10 290 -10 C386 -10 455 44 483 102 L483 0 L520 0 L520 527 L482 527 Z " />
<glyph glyph-name="yacute" unicode="&#xfd;" horiz-adv-x="527" d="M372 724 L354 753 L167 639 L184 613 L372 724 Z M473 527 L263 40 L54 527 L13 527 L241 0 L245 0 L167 -179 L206 -179 L283 0 L514 527 L473 527 Z " />
<glyph glyph-name="thorn" unicode="&#xfe;" horiz-adv-x="647" d="M344 537 C242 537 161 481 122 393 L122 731 L84 731 L84 -179 L122 -179 L122 133 C161 45 242 -10 344 -10 C491 -10 601 107 601 263 C601 420 493 537 344 537 L344 537 Z M342 25 C212 25 121 123 121 263 C121 403 213 502 342 502 C468 502 563 400 563 263 C563 127 467 25 342 25 L342 25 Z " />
<glyph glyph-name="ydieresis" unicode="&#xff;" horiz-adv-x="527" d="M178 640 C201 640 222 659 222 683 C222 708 202 727 179 727 C155 727 134 708 134 684 C134 659 155 640 178 640 L178 640 Z M347 640 C371 640 392 659 392 683 C392 708 372 727 348 727 C325 727 304 708 304 684 C304 659 325 640 347 640 L347 640 Z M473 527 L263 40 L54 527 L13 527 L241 0 L245 0 L167 -179 L206 -179 L283 0 L514 527 L473 527 Z " />
<glyph glyph-name="Amacron" unicode="&#x100;" horiz-adv-x="605" d="M434 849 L168 849 L168 815 L434 815 L434 849 Z M552 0 L591 0 L325 695 L279 695 L14 0 L53 0 L143 235 L462 235 L552 0 Z M156 269 L303 651 L449 269 L156 269 Z " />
<glyph glyph-name="amacron" unicode="&#x101;" horiz-adv-x="647" d="M446 700 L184 700 L184 667 L446 667 L446 700 Z M527 527 L527 389 C489 479 408 536 304 536 C156 536 46 420 46 264 C46 107 155 -10 304 -10 C408 -10 489 48 527 138 L527 0 L564 0 L564 527 L527 527 Z M305 25 C179 25 85 126 85 264 C85 400 180 502 305 502 C435 502 526 404 526 264 C526 124 435 25 305 25 L305 25 Z " />
<glyph glyph-name="Abreve" unicode="&#x102;" horiz-adv-x="605" d="M301 774 C378 774 424 829 424 889 L391 889 C391 847 358 806 301 806 C245 806 212 847 212 889 L178 889 C178 829 225 774 301 774 L301 774 Z M552 0 L591 0 L325 695 L279 695 L14 0 L53 0 L143 235 L462 235 L552 0 Z M156 269 L303 651 L449 269 L156 269 Z " />
<glyph glyph-name="abreve" unicode="&#x103;" horiz-adv-x="647" d="M315 617 C392 617 444 672 444 749 L411 749 C411 690 372 649 315 649 C258 649 219 690 219 749 L186 749 C186 672 238 617 315 617 L315 617 Z M527 527 L527 389 C489 479 408 536 304 536 C156 536 46 420 46 264 C46 107 155 -10 304 -10 C408 -10 489 48 527 138 L527 0 L564 0 L564 527 L527 527 Z M305 25 C179 25 85 126 85 264 C85 400 180 502 305 502 C435 502 526 404 526 264 C526 124 435 25 305 25 L305 25 Z " />
<glyph glyph-name="Aogonek" unicode="&#x104;" horiz-adv-x="605" d="M607 -170 C594 -186 575 -193 553 -193 C520 -193 498 -170 498 -136 C498 -106 513 -78 560 -31 L591 0 L325 695 L279 695 L14 0 L53 0 L143 235 L462 235 L552 0 L557 0 L541 -15 C487 -65 466 -100 466 -140 C466 -186 498 -223 549 -223 C583 -223 610 -210 626 -190 L607 -170 Z M156 269 L303 651 L449 269 L156 269 Z " />
<glyph glyph-name="aogonek" unicode="&#x105;" horiz-adv-x="647" d="M580 -170 C567 -186 548 -193 526 -193 C493 -193 471 -170 471 -136 C471 -106 486 -78 533 -31 L564 0 L564 527 L527 527 L527 389 C489 479 408 536 304 536 C156 536 46 420 46 264 C46 107 155 -10 304 -10 C408 -10 489 48 527 138 L527 0 L530 0 L514 -15 C460 -65 439 -100 439 -140 C439 -186 471 -223 522 -223 C556 -223 582 -210 599 -190 L580 -170 Z M305 25 C179 25 85 126 85 264 C85 400 180 502 305 502 C435 502 526 404 526 264 C526 124 435 25 305 25 L305 25 Z " />
<glyph glyph-name="Cacute" unicode="&#x106;" horiz-adv-x="726" d="M287 772 L507 859 L495 892 L277 801 L287 772 Z M392 -10 C551 -10 644 74 693 206 L655 221 C609 98 526 27 391 27 C219 27 91 158 91 347 C91 537 219 668 387 668 C522 668 609 596 655 474 L693 489 C644 620 546 705 388 705 C196 705 51 558 51 347 C51 137 196 -10 392 -10 L392 -10 Z " />
<glyph glyph-name="cacute" unicode="&#x107;" horiz-adv-x="573" d="M232 613 L420 724 L401 753 L215 639 L232 613 Z M311 -10 C427 -10 512 54 542 148 L506 162 C480 75 407 25 312 25 C181 25 85 124 85 263 C85 402 181 501 310 501 C404 501 477 451 503 364 L539 378 C509 472 424 536 309 536 C157 536 46 420 46 263 C46 105 157 -10 311 -10 L311 -10 Z " />
<glyph glyph-name="Cdotaccent" unicode="&#x10a;" horiz-adv-x="726" d="M382 789 C405 789 423 807 423 831 C423 855 405 873 382 873 C358 873 339 855 339 832 C339 807 358 789 382 789 L382 789 Z M392 -10 C551 -10 644 74 693 206 L655 221 C609 98 526 27 391 27 C219 27 91 158 91 347 C91 537 219 668 387 668 C522 668 609 596 655 474 L693 489 C644 620 546 705 388 705 C196 705 51 558 51 347 C51 137 196 -10 392 -10 L392 -10 Z " />
<glyph glyph-name="cdotaccent" unicode="&#x10b;" horiz-adv-x="573" d="M311 639 C337 639 357 657 357 684 C357 710 337 729 311 729 C285 729 265 710 265 684 C265 657 285 639 311 639 L311 639 Z M311 -10 C427 -10 512 54 542 148 L506 162 C480 75 407 25 312 25 C181 25 85 124 85 263 C85 402 181 501 310 501 C404 501 477 451 503 364 L539 378 C509 472 424 536 309 536 C157 536 46 420 46 263 C46 105 157 -10 311 -10 L311 -10 Z " />
<glyph glyph-name="Ccaron" unicode="&#x10c;" horiz-adv-x="726" d="M398 774 L520 889 L479 889 L382 802 L284 889 L244 889 L366 774 L398 774 Z M391 27 C219 27 91 158 91 347 C91 537 219 668 387 668 C522 668 609 596 655 474 L693 489 C644 620 546 705 388 705 C196 705 51 558 51 347 C51 137 196 -10 392 -10 C551 -10 644 74 693 206 L655 221 C609 98 526 27 391 27 L391 27 Z " />
<glyph glyph-name="ccaron" unicode="&#x10d;" horiz-adv-x="573" d="M328 617 L453 749 L414 749 L311 644 L209 749 L169 749 L295 617 L328 617 Z M506 162 C480 75 407 25 312 25 C181 25 85 124 85 263 C85 402 181 501 310 501 C404 501 477 451 503 364 L539 378 C509 472 424 536 309 536 C157 536 46 420 46 263 C46 105 157 -10 311 -10 C427 -10 512 54 542 148 L506 162 Z " />
<glyph glyph-name="Dcaron" unicode="&#x10e;" horiz-adv-x="714" d="M354 774 L476 889 L436 889 L338 802 L241 889 L200 889 L322 774 L354 774 Z M332 695 L95 695 L95 0 L332 0 C521 0 662 139 662 348 C662 557 521 695 332 695 L332 695 Z M332 35 L133 35 L133 660 L332 660 C497 660 623 534 623 348 C623 159 497 35 332 35 L332 35 Z " />
<glyph glyph-name="dcaron" unicode="&#x10f;" horiz-adv-x="669" d="M525 395 C485 482 405 537 303 537 C155 537 46 420 46 264 C46 107 155 -10 304 -10 C407 -10 488 47 527 136 L527 0 L564 0 L564 731 L525 731 L525 395 Z M667 731 L647 524 L675 524 L699 731 L667 731 Z M305 25 C179 25 85 126 85 264 C85 400 180 502 305 502 C435 502 526 404 526 264 C526 124 435 25 305 25 L305 25 Z " />
<glyph glyph-name="Dcroat" unicode="&#x110;" horiz-adv-x="719" d="M338 695 L100 695 L100 380 L19 380 L19 349 L100 349 L100 0 L338 0 C526 0 667 139 667 348 C667 557 526 695 338 695 L338 695 Z M337 35 L138 35 L138 349 L301 349 L301 380 L138 380 L138 660 L337 660 C502 660 628 534 628 348 C628 159 502 35 337 35 L337 35 Z " />
<glyph glyph-name="dcroat" unicode="&#x111;" horiz-adv-x="647" d="M643 637 L564 637 L564 731 L525 731 L525 637 L360 637 L360 606 L525 606 L525 395 C485 482 405 537 303 537 C155 537 46 420 46 264 C46 107 155 -10 304 -10 C407 -10 488 47 527 136 L527 0 L564 0 L564 606 L643 606 L643 637 Z M305 25 C179 25 85 126 85 264 C85 400 180 502 305 502 C435 502 526 404 526 264 C526 124 435 25 305 25 L305 25 Z " />
<glyph glyph-name="Emacron" unicode="&#x112;" horiz-adv-x="551" d="M432 849 L166 849 L166 815 L432 815 L432 849 Z M133 35 L133 347 L474 347 L474 382 L133 382 L133 660 L505 660 L505 695 L95 695 L95 0 L511 0 L511 35 L133 35 Z " />
<glyph glyph-name="emacron" unicode="&#x113;" horiz-adv-x="592" d="M436 699 L174 699 L174 666 L436 666 L436 699 Z M302 537 C157 537 46 418 46 263 C46 106 154 -10 304 -10 C423 -10 504 44 539 140 L507 157 C477 69 408 27 304 27 C180 27 92 119 87 253 L548 253 L548 276 C548 425 447 537 302 537 L302 537 Z M88 289 C98 414 185 501 303 501 C422 501 503 416 508 289 L88 289 Z " />
<glyph glyph-name="Edotaccent" unicode="&#x116;" horiz-adv-x="551" d="M299 789 C323 789 341 807 341 831 C341 855 323 873 300 873 C276 873 257 855 257 832 C257 807 276 789 299 789 L299 789 Z M133 35 L133 347 L474 347 L474 382 L133 382 L133 660 L505 660 L505 695 L95 695 L95 0 L511 0 L511 35 L133 35 Z " />
<glyph glyph-name="edotaccent" unicode="&#x117;" horiz-adv-x="592" d="M305 638 C331 638 351 656 351 683 C351 709 331 728 305 728 C279 728 259 709 259 683 C259 656 279 638 305 638 L305 638 Z M302 537 C157 537 46 418 46 263 C46 106 154 -10 304 -10 C423 -10 504 44 539 140 L507 157 C477 69 408 27 304 27 C180 27 92 119 87 253 L548 253 L548 276 C548 425 447 537 302 537 L302 537 Z M88 289 C98 414 185 501 303 501 C422 501 503 416 508 289 L88 289 Z " />
<glyph glyph-name="Eogonek" unicode="&#x118;" horiz-adv-x="551" d="M528 -170 C515 -186 496 -193 474 -193 C441 -193 419 -170 419 -136 C419 -106 434 -78 481 -31 L511 0 L511 35 L133 35 L133 347 L474 347 L474 382 L133 382 L133 660 L505 660 L505 695 L95 695 L95 0 L478 0 L461 -15 C408 -65 386 -100 386 -140 C386 -186 418 -223 470 -223 C504 -223 530 -210 546 -190 L528 -170 Z " />
<glyph glyph-name="eogonek" unicode="&#x119;" horiz-adv-x="592" d="M302 537 C157 537 46 418 46 263 C46 106 154 -10 304 -10 C319 -10 334 -9 348 -7 L342 -13 C289 -62 267 -98 267 -137 C267 -184 299 -220 351 -220 C385 -220 411 -207 427 -188 L409 -168 C396 -184 377 -190 354 -190 C322 -190 299 -167 299 -134 C299 -103 315 -75 362 -28 L390 1 C463 21 513 69 539 140 L507 157 C477 69 408 27 304 27 C180 27 92 119 87 253 L548 253 L548 276 C548 425 447 537 302 537 L302 537 Z M88 289 C98 414 185 501 303 501 C422 501 503 416 508 289 L88 289 Z " />
<glyph glyph-name="Ecaron" unicode="&#x11a;" horiz-adv-x="551" d="M316 774 L438 889 L397 889 L299 802 L202 889 L161 889 L284 774 L316 774 Z M133 35 L133 347 L474 347 L474 382 L133 382 L133 660 L505 660 L505 695 L95 695 L95 0 L511 0 L511 35 L133 35 Z " />
<glyph glyph-name="ecaron" unicode="&#x11b;" horiz-adv-x="592" d="M322 616 L448 748 L408 748 L305 643 L203 748 L163 748 L289 616 L322 616 Z M302 537 C157 537 46 418 46 263 C46 106 154 -10 304 -10 C423 -10 504 44 539 140 L507 157 C477 69 408 27 304 27 C180 27 92 119 87 253 L548 253 L548 276 C548 425 447 537 302 537 L302 537 Z M88 289 C98 414 185 501 303 501 C422 501 503 416 508 289 L88 289 Z " />
<glyph glyph-name="Gbreve" unicode="&#x11e;" horiz-adv-x="766" d="M387 774 C463 774 510 829 510 889 L476 889 C476 847 443 806 387 806 C330 806 297 847 297 889 L264 889 C264 829 310 774 387 774 L387 774 Z M722 351 L387 351 L387 319 L684 319 C671 142 550 26 389 26 C218 26 92 157 92 347 C92 536 218 668 387 668 C516 668 607 601 654 476 L692 492 C642 622 544 705 387 705 C195 705 52 558 52 347 C52 137 195 -10 387 -10 C579 -10 722 135 722 351 L722 351 Z " />
<glyph glyph-name="gbreve" unicode="&#x11f;" horiz-adv-x="647" d="M323 617 C400 617 452 672 452 749 L419 749 C419 690 380 649 323 649 C266 649 227 690 227 749 L194 749 C194 672 246 617 323 617 L323 617 Z M528 527 L528 388 C490 479 409 537 304 537 C157 537 47 420 47 266 C47 111 156 -6 304 -6 C409 -6 490 53 528 144 L528 58 C528 -73 443 -155 306 -155 C200 -155 126 -106 98 -12 L63 -25 C96 -130 180 -189 305 -189 C466 -189 565 -93 565 60 L565 527 L528 527 Z M306 27 C180 27 85 128 85 264 C85 401 180 502 308 502 C436 502 526 403 526 265 C526 126 435 27 306 27 L306 27 Z " />
<glyph glyph-name="Gdotaccent" unicode="&#x120;" horiz-adv-x="766" d="M387 789 C410 789 428 807 428 831 C428 855 410 873 387 873 C363 873 344 855 344 832 C344 807 363 789 387 789 L387 789 Z M722 351 L387 351 L387 319 L684 319 C671 142 550 26 389 26 C218 26 92 157 92 347 C92 536 218 668 387 668 C516 668 607 601 654 476 L692 492 C642 622 544 705 387 705 C195 705 52 558 52 347 C52 137 195 -10 387 -10 C579 -10 722 135 722 351 L722 351 Z " />
<glyph glyph-name="gdotaccent" unicode="&#x121;" horiz-adv-x="647" d="M323 639 C349 639 369 657 369 684 C369 710 349 729 323 729 C297 729 277 710 277 684 C277 657 297 639 323 639 L323 639 Z M528 527 L528 388 C490 479 409 537 304 537 C157 537 47 420 47 266 C47 111 156 -6 304 -6 C409 -6 490 53 528 144 L528 58 C528 -73 443 -155 306 -155 C200 -155 126 -106 98 -12 L63 -25 C96 -130 180 -189 305 -189 C466 -189 565 -93 565 60 L565 527 L528 527 Z M306 27 C180 27 85 128 85 264 C85 401 180 502 308 502 C436 502 526 403 526 265 C526 126 435 27 306 27 L306 27 Z " />
<glyph glyph-name="uni0122" unicode="&#x122;" horiz-adv-x="766" d="M722 351 L387 351 L387 319 L684 319 C671 142 550 26 389 26 C218 26 92 157 92 347 C92 536 218 668 387 668 C516 668 607 601 654 476 L692 492 C642 622 544 705 387 705 C195 705 52 558 52 347 C52 137 195 -10 387 -10 C579 -10 722 135 722 351 L722 351 Z M387 -50 C364 -50 347 -66 347 -88 C347 -111 364 -127 386 -127 L383 -134 L344 -207 L367 -215 L407 -142 C418 -124 425 -107 425 -90 C425 -66 408 -50 387 -50 L387 -50 Z " />
<glyph glyph-name="uni0123" unicode="&#x123;" horiz-adv-x="647" d="M315 606 C337 606 354 623 354 644 C354 667 337 684 316 684 C316 686 317 689 318 691 L357 764 L334 772 L294 699 C283 680 276 663 276 646 C276 623 293 606 315 606 L315 606 Z M528 527 L528 388 C490 479 409 537 304 537 C157 537 47 420 47 266 C47 111 156 -6 304 -6 C409 -6 490 53 528 144 L528 58 C528 -73 443 -155 306 -155 C200 -155 126 -106 98 -12 L63 -25 C96 -130 180 -189 305 -189 C466 -189 565 -93 565 60 L565 527 L528 527 Z M306 27 C180 27 85 128 85 264 C85 401 180 502 308 502 C436 502 526 403 526 265 C526 126 435 27 306 27 L306 27 Z " />
<glyph glyph-name="Hbar" unicode="&#x126;" horiz-adv-x="690" d="M658 562 L592 562 L592 695 L553 695 L553 562 L136 562 L136 695 L98 695 L98 562 L31 562 L31 529 L98 529 L98 0 L136 0 L136 346 L553 346 L553 0 L592 0 L592 529 L658 529 L658 562 Z M553 382 L136 382 L136 529 L553 529 L553 382 Z " />
<glyph glyph-name="hbar" unicode="&#x127;" horiz-adv-x="615" d="M319 537 C221 537 150 483 122 423 L122 606 L287 606 L287 637 L122 637 L122 731 L84 731 L84 637 L4 637 L4 606 L84 606 L84 0 L122 0 L122 336 C124 419 201 501 314 502 C432 503 500 431 500 310 L500 0 L539 0 L539 315 C539 452 460 537 319 537 L319 537 Z " />
<glyph glyph-name="Itilde" unicode="&#x128;" horiz-adv-x="228" d="M163 785 C208 785 230 825 236 859 L210 871 C206 843 191 819 162 819 C122 819 111 872 62 872 C19 872 -4 832 -10 799 L16 786 C20 814 35 838 63 838 C103 838 112 785 163 785 L163 785 Z M95 0 L133 0 L133 695 L95 695 L95 0 Z " />
<glyph glyph-name="itilde" unicode="&#x129;" horiz-adv-x="206" d="M151 640 C195 640 215 680 221 714 L196 726 C192 698 177 674 149 674 C109 674 99 727 52 727 C10 727 -11 687 -17 653 L8 641 C12 669 27 693 53 693 C92 693 102 640 151 640 L151 640 Z M84 0 L122 0 L122 527 L84 527 L84 0 Z " />
<glyph glyph-name="Imacron" unicode="&#x12a;" horiz-adv-x="228" d="M10 815 L220 815 L220 849 L10 849 L10 815 Z M95 0 L133 0 L133 695 L95 695 L95 0 Z " />
<glyph glyph-name="imacron" unicode="&#x12b;" horiz-adv-x="206" d="M-3 667 L207 667 L207 700 L-3 700 L-3 667 Z M84 0 L122 0 L122 527 L84 527 L84 0 Z " />
<glyph glyph-name="Iogonek" unicode="&#x12e;" horiz-adv-x="228" d="M150 -170 C137 -186 118 -193 95 -193 C63 -193 40 -170 40 -136 C40 -106 55 -78 103 -31 L133 0 L133 695 L95 695 L95 0 L100 0 L83 -15 C30 -65 8 -100 8 -140 C8 -186 40 -223 92 -223 C125 -223 152 -210 168 -190 L150 -170 Z " />
<glyph glyph-name="iogonek" unicode="&#x12f;" horiz-adv-x="208" d="M103 639 C129 639 149 657 149 684 C149 710 129 729 103 729 C76 729 56 710 56 684 C56 657 76 639 103 639 L103 639 Z M138 -170 C125 -186 106 -193 84 -193 C51 -193 29 -170 29 -136 C29 -106 44 -78 91 -31 L122 0 L122 527 L84 527 L84 0 L88 0 L72 -15 C18 -65 -3 -100 -3 -140 C-3 -186 29 -223 80 -223 C114 -223 140 -210 157 -190 L138 -170 Z " />
<glyph glyph-name="Idotaccent" unicode="&#x130;" horiz-adv-x="228" d="M114 789 C138 789 156 807 156 831 C156 855 138 873 115 873 C90 873 72 855 72 832 C72 807 90 789 114 789 L114 789 Z M95 0 L133 0 L133 695 L95 695 L95 0 Z " />
<glyph glyph-name="dotlessi" unicode="&#x131;" horiz-adv-x="206" d="M84 0 L122 0 L122 527 L84 527 L84 0 Z " />
<glyph glyph-name="IJ" unicode="&#x132;" horiz-adv-x="557" d="M95 0 L133 0 L133 695 L95 695 L95 0 Z M253 0 L305 0 C404 0 468 64 468 176 L468 695 L429 695 L429 176 C429 85 380 35 304 35 L253 35 L253 0 Z " />
<glyph glyph-name="ij" unicode="&#x133;" horiz-adv-x="472" d="M103 639 C129 639 149 657 149 684 C149 710 129 729 103 729 C76 729 56 710 56 684 C56 657 76 639 103 639 L103 639 Z M369 638 C395 638 415 657 415 683 C415 709 395 729 369 729 C343 729 323 709 323 683 C323 657 343 638 369 638 L369 638 Z M84 0 L122 0 L122 527 L84 527 L84 0 Z M212 -180 L224 -180 C323 -180 388 -111 388 -9 L388 527 L350 527 L350 -9 C350 -89 299 -144 223 -144 L212 -144 L212 -180 Z " />
<glyph glyph-name="uni0136" unicode="&#x136;" horiz-adv-x="588" d="M174 366 L551 695 L502 695 L133 377 L133 695 L95 695 L95 0 L133 0 L133 354 L544 0 L596 0 L174 366 Z M319 -50 C296 -50 279 -66 279 -88 C279 -111 296 -127 318 -127 L315 -134 L276 -207 L299 -215 L339 -142 C350 -124 357 -107 357 -90 C357 -66 340 -50 319 -50 L319 -50 Z " />
<glyph glyph-name="uni0137" unicode="&#x137;" horiz-adv-x="483" d="M165 287 L472 527 L422 527 L122 298 L122 731 L84 731 L84 0 L122 0 L122 278 L434 0 L483 0 L165 287 Z M282 -50 C259 -50 242 -66 242 -88 C242 -111 258 -127 281 -127 L278 -134 L239 -207 L262 -215 L302 -142 C313 -124 320 -107 320 -90 C320 -66 303 -50 282 -50 L282 -50 Z " />
<glyph glyph-name="kgreenlandic" unicode="&#x138;" horiz-adv-x="484" d="M483 0 L164 269 L474 527 L422 527 L122 278 L122 527 L84 527 L84 0 L122 0 L122 259 L435 0 L483 0 Z " />
<glyph glyph-name="Lacute" unicode="&#x139;" horiz-adv-x="519" d="M228 892 L9 801 L20 772 L239 859 L228 892 Z M133 35 L133 695 L95 695 L95 0 L506 0 L506 35 L133 35 Z " />
<glyph glyph-name="lacute" unicode="&#x13a;" horiz-adv-x="206" d="M8 808 L228 895 L217 928 L-2 837 L8 808 Z M84 0 L122 0 L122 731 L84 731 L84 0 Z " />
<glyph glyph-name="uni013B" unicode="&#x13b;" horiz-adv-x="519" d="M133 35 L133 695 L95 695 L95 0 L506 0 L506 35 L133 35 Z M301 -50 C279 -50 262 -66 262 -88 C262 -111 279 -127 300 -127 L297 -134 L259 -207 L282 -215 L322 -142 C333 -124 340 -107 340 -90 C340 -66 323 -50 301 -50 L301 -50 Z " />
<glyph glyph-name="uni013C" unicode="&#x13c;" horiz-adv-x="206" d="M122 731 L84 731 L84 0 L122 0 L122 731 Z M104 -50 C81 -50 64 -66 64 -88 C64 -111 81 -126 103 -127 L100 -134 L62 -207 L85 -215 L125 -142 C135 -124 142 -107 142 -90 C142 -66 126 -50 104 -50 L104 -50 Z " />
<glyph glyph-name="Lcaron" unicode="&#x13d;" horiz-adv-x="522" d="M410 705 L378 705 L358 498 L387 498 L410 705 Z M133 35 L133 695 L95 695 L95 0 L506 0 L506 35 L133 35 Z " />
<glyph glyph-name="lcaron" unicode="&#x13e;" horiz-adv-x="227" d="M84 0 L122 0 L122 731 L84 731 L84 0 Z M206 524 L234 524 L257 731 L226 731 L206 524 Z " />
<glyph glyph-name="Ldot" unicode="&#x13f;" horiz-adv-x="522" d="M133 35 L133 695 L95 695 L95 0 L506 0 L506 35 L133 35 Z M362 337 C385 337 401 353 401 376 C401 398 385 415 362 415 C340 415 323 398 323 376 C323 353 340 337 362 337 L362 337 Z " />
<glyph glyph-name="ldot" unicode="&#x140;" horiz-adv-x="249" d="M84 0 L122 0 L122 731 L84 731 L84 0 Z M231 332 C253 332 270 349 270 371 C270 394 253 410 231 410 C209 410 192 394 192 371 C192 349 209 332 231 332 L231 332 Z " />
<glyph glyph-name="Lslash" unicode="&#x141;" horiz-adv-x="551" d="M165 35 L165 343 L280 394 L270 422 L165 375 L165 695 L126 695 L126 358 L22 312 L33 285 L126 326 L126 0 L537 0 L537 35 L165 35 Z " />
<glyph glyph-name="lslash" unicode="&#x142;" horiz-adv-x="280" d="M267 422 L251 448 L158 394 L158 731 L119 731 L119 371 L15 311 L30 285 L119 336 L119 0 L158 0 L158 359 L267 422 Z " />
<glyph glyph-name="Nacute" unicode="&#x143;" horiz-adv-x="683" d="M464 859 L452 892 L234 801 L244 772 L464 859 Z M550 695 L550 69 L128 695 L95 695 L95 0 L133 0 L133 627 L556 0 L589 0 L589 695 L550 695 Z " />
<glyph glyph-name="nacute" unicode="&#x144;" horiz-adv-x="615" d="M424 723 L406 752 L219 638 L236 612 L424 723 Z M319 537 C220 537 149 482 121 421 L121 527 L84 527 L84 0 L122 0 L122 336 C124 419 201 501 314 502 C432 503 500 431 500 310 L500 0 L539 0 L539 315 C539 452 460 537 319 537 L319 537 Z " />
<glyph glyph-name="uni0145" unicode="&#x145;" horiz-adv-x="683" d="M550 695 L550 69 L128 695 L95 695 L95 0 L133 0 L133 627 L556 0 L589 0 L589 695 L550 695 Z M345 -50 C322 -50 305 -66 305 -88 C305 -111 322 -126 344 -127 L341 -134 L303 -207 L326 -215 L366 -142 C377 -124 383 -107 383 -90 C383 -66 367 -50 345 -50 L345 -50 Z " />
<glyph glyph-name="uni0146" unicode="&#x146;" horiz-adv-x="615" d="M319 537 C220 537 149 482 121 421 L121 527 L84 527 L84 0 L122 0 L122 336 C124 419 201 501 314 502 C432 503 500 431 500 310 L500 0 L539 0 L539 315 C539 452 460 537 319 537 L319 537 Z M311 -50 C289 -50 272 -66 272 -88 C272 -111 289 -127 310 -127 L307 -134 L269 -207 L292 -215 L332 -142 C343 -124 350 -107 350 -90 C350 -66 333 -50 311 -50 L311 -50 Z " />
<glyph glyph-name="Ncaron" unicode="&#x147;" horiz-adv-x="683" d="M355 774 L477 889 L437 889 L339 802 L241 889 L201 889 L323 774 L355 774 Z M550 695 L550 69 L128 695 L95 695 L95 0 L133 0 L133 627 L556 0 L589 0 L589 695 L550 695 Z " />
<glyph glyph-name="ncaron" unicode="&#x148;" horiz-adv-x="615" d="M332 616 L458 748 L418 748 L315 643 L213 748 L173 748 L299 616 L332 616 Z M319 537 C220 537 149 482 121 421 L121 527 L84 527 L84 0 L122 0 L122 336 C124 419 201 501 314 502 C432 503 500 431 500 310 L500 0 L539 0 L539 315 C539 452 460 537 319 537 L319 537 Z " />
<glyph glyph-name="napostrophe" unicode="&#x149;" horiz-adv-x="683" d="M28 524 L56 524 L80 731 L48 731 L28 524 Z M387 537 C288 537 217 482 189 421 L189 527 L152 527 L152 0 L190 0 L190 336 C192 419 269 501 382 502 C501 503 568 431 568 310 L568 0 L607 0 L607 315 C607 452 529 537 387 537 L387 537 Z " />
<glyph glyph-name="Eng" unicode="&#x14a;" horiz-adv-x="683" d="M550 695 L550 69 L128 695 L95 695 L95 0 L133 0 L133 627 L554 3 L554 -9 C554 -101 505 -151 428 -151 L413 -151 L413 -186 L427 -186 C525 -186 589 -122 589 -10 L589 695 L550 695 Z " />
<glyph glyph-name="eng" unicode="&#x14b;" horiz-adv-x="615" d="M319 537 C220 537 149 482 121 421 L121 527 L84 527 L84 0 L122 0 L122 336 C124 419 201 501 314 502 C432 503 500 431 500 310 L500 -10 C500 -89 450 -144 375 -144 L364 -144 L364 -180 L375 -180 C474 -180 539 -111 539 -10 L539 315 C539 452 460 537 319 537 L319 537 Z " />
<glyph glyph-name="Omacron" unicode="&#x14c;" horiz-adv-x="785" d="M259 815 L525 815 L525 849 L259 849 L259 815 Z M393 -10 C588 -10 734 138 734 347 C734 557 588 705 393 705 C196 705 51 557 51 347 C51 138 196 -10 393 -10 L393 -10 Z M393 27 C219 27 91 159 91 347 C91 536 219 668 393 668 C566 668 694 536 694 347 C694 159 565 27 393 27 L393 27 Z " />
<glyph glyph-name="omacron" unicode="&#x14d;" horiz-adv-x="624" d="M181 666 L443 666 L443 699 L181 699 L181 666 Z M312 -10 C467 -10 578 106 578 263 C578 421 467 537 312 537 C156 537 46 421 46 263 C46 106 156 -10 312 -10 L312 -10 Z M312 25 C179 25 85 126 85 263 C85 402 179 502 312 502 C446 502 539 402 539 263 C539 126 446 25 312 25 L312 25 Z " />
<glyph glyph-name="Ohungarumlaut" unicode="&#x150;" horiz-adv-x="785" d="M287 746 L393 903 L364 922 L261 764 L287 746 Z M458 746 L564 903 L535 922 L432 764 L458 746 Z M393 -10 C588 -10 734 138 734 347 C734 557 588 705 393 705 C196 705 51 557 51 347 C51 138 196 -10 393 -10 L393 -10 Z M393 27 C219 27 91 159 91 347 C91 536 219 668 393 668 C566 668 694 536 694 347 C694 159 565 27 393 27 L393 27 Z " />
<glyph glyph-name="ohungarumlaut" unicode="&#x151;" horiz-adv-x="624" d="M217 612 L324 750 L294 770 L192 629 L217 612 Z M379 612 L485 750 L456 770 L353 629 L379 612 Z M312 -10 C467 -10 578 106 578 263 C578 421 467 537 312 537 C156 537 46 421 46 263 C46 106 156 -10 312 -10 L312 -10 Z M312 25 C179 25 85 126 85 263 C85 402 179 502 312 502 C446 502 539 402 539 263 C539 126 446 25 312 25 L312 25 Z " />
<glyph glyph-name="OE" unicode="&#x152;" horiz-adv-x="1150" d="M733 35 L733 347 L1072 347 L1072 382 L733 382 L733 660 L1104 660 L1104 695 L694 695 L694 508 C643 629 533 705 393 705 C196 705 51 557 51 347 C51 138 196 -10 393 -10 C533 -10 643 66 694 186 L694 0 L1110 0 L1110 35 L733 35 Z M393 27 C219 27 91 159 91 347 C91 536 219 668 393 668 C566 668 694 536 694 347 C694 159 565 27 393 27 L393 27 Z " />
<glyph glyph-name="oe" unicode="&#x153;" horiz-adv-x="1086" d="M796 537 C687 537 597 470 559 370 C521 471 429 537 312 537 C156 537 46 421 46 263 C46 106 156 -10 312 -10 C429 -10 521 56 559 155 C596 56 685 -10 797 -10 C917 -10 998 44 1033 140 L1001 157 C970 69 902 27 798 27 C674 27 586 119 581 253 L1042 253 L1042 276 C1042 425 941 537 796 537 L796 537 Z M312 25 C179 25 85 126 85 263 C85 402 179 502 312 502 C446 502 539 402 539 263 C539 126 446 25 312 25 L312 25 Z M582 289 C592 414 679 501 797 501 C916 501 997 416 1002 289 L582 289 Z " />
<glyph glyph-name="Racute" unicode="&#x154;" horiz-adv-x="590" d="M415 859 L403 892 L185 801 L195 772 L415 859 Z M334 329 C465 329 548 403 548 512 C548 621 466 695 334 695 L95 695 L95 0 L133 0 L133 329 L221 329 L499 0 L546 0 L266 329 L334 329 Z M133 660 L333 660 C445 660 509 598 509 510 C509 422 445 361 333 361 L133 361 L133 660 Z " />
<glyph glyph-name="racute" unicode="&#x155;" horiz-adv-x="317" d="M292 723 L273 752 L87 638 L103 612 L292 723 Z M121 425 L121 527 L84 527 L84 0 L122 0 L122 338 C122 418 201 500 302 501 L302 537 C216 537 148 483 121 425 L121 425 Z " />
<glyph glyph-name="uni0156" unicode="&#x156;" horiz-adv-x="590" d="M334 329 C465 329 548 403 548 512 C548 621 466 695 334 695 L95 695 L95 0 L133 0 L133 329 L221 329 L499 0 L546 0 L266 329 L334 329 Z M133 660 L333 660 C445 660 509 598 509 510 C509 422 445 361 333 361 L133 361 L133 660 Z M292 -50 C269 -50 252 -66 252 -88 C252 -111 269 -127 291 -127 L288 -134 L249 -207 L272 -215 L312 -142 C323 -124 330 -107 330 -90 C330 -66 313 -50 292 -50 L292 -50 Z " />
<glyph glyph-name="uni0157" unicode="&#x157;" horiz-adv-x="317" d="M121 425 L121 527 L84 527 L84 0 L122 0 L122 338 C122 418 201 500 302 501 L302 537 C216 537 148 483 121 425 L121 425 Z M106 -50 C84 -50 67 -66 67 -88 C67 -111 84 -127 106 -127 L103 -134 L64 -207 L87 -215 L127 -142 C138 -124 145 -107 145 -90 C145 -66 128 -50 106 -50 L106 -50 Z " />
<glyph glyph-name="Rcaron" unicode="&#x158;" horiz-adv-x="590" d="M306 774 L428 889 L387 889 L290 802 L192 889 L152 889 L274 774 L306 774 Z M334 329 C465 329 548 403 548 512 C548 621 466 695 334 695 L95 695 L95 0 L133 0 L133 329 L221 329 L499 0 L546 0 L266 329 L334 329 Z M133 660 L333 660 C445 660 509 598 509 510 C509 422 445 361 333 361 L133 361 L133 660 Z " />
<glyph glyph-name="rcaron" unicode="&#x159;" horiz-adv-x="317" d="M200 616 L325 748 L285 748 L183 643 L81 748 L41 748 L167 616 L200 616 Z M121 425 L121 527 L84 527 L84 0 L122 0 L122 338 C122 418 201 500 302 501 L302 537 C216 537 148 483 121 425 L121 425 Z " />
<glyph glyph-name="Sacute" unicode="&#x15a;" horiz-adv-x="527" d="M170 772 L390 859 L378 892 L160 801 L170 772 Z M261 -9 C391 -9 479 60 479 168 C479 424 106 337 106 546 C106 617 163 668 265 668 C353 668 406 633 431 555 L468 569 C441 656 374 704 266 704 C144 704 66 637 66 540 C66 305 439 386 439 166 C439 81 369 27 262 27 C162 27 94 76 72 161 L35 147 C62 49 143 -9 261 -9 L261 -9 Z " />
<glyph glyph-name="sacute" unicode="&#x15b;" horiz-adv-x="464" d="M157 613 L345 724 L326 753 L140 639 L157 613 Z M234 -10 C348 -10 426 42 426 135 C426 328 98 254 98 407 C98 468 146 505 230 505 C298 505 345 479 368 421 L402 435 C378 502 317 537 230 537 C127 537 58 487 58 405 C58 224 386 293 386 132 C386 62 325 22 235 22 C145 22 86 60 67 123 L32 109 C56 33 130 -10 234 -10 L234 -10 Z " />
<glyph glyph-name="Scedilla" unicode="&#x15e;" horiz-adv-x="527" d="M479 168 C479 424 106 337 106 546 C106 617 163 668 265 668 C353 668 406 633 431 555 L468 569 C441 656 374 704 266 704 C144 704 66 637 66 540 C66 305 439 386 439 166 C439 81 369 27 262 27 C162 27 94 76 72 161 L35 147 C62 49 143 -9 261 -9 L271 -9 L242 -72 L247 -80 L265 -80 C309 -80 340 -109 340 -147 C340 -182 312 -212 267 -212 C228 -212 204 -193 189 -174 L170 -193 C188 -216 219 -239 270 -239 C334 -239 372 -198 372 -149 C372 -100 335 -61 276 -60 L301 -7 C409 6 479 72 479 168 L479 168 Z " />
<glyph glyph-name="scedilla" unicode="&#x15f;" horiz-adv-x="464" d="M426 135 C426 328 98 254 98 407 C98 468 146 505 230 505 C298 505 345 479 368 421 L402 435 C378 502 317 537 230 537 C127 537 58 487 58 405 C58 224 386 293 386 132 C386 62 325 22 235 22 C145 22 86 60 67 123 L32 109 C55 38 121 -5 215 -10 L186 -72 L192 -80 L209 -80 C254 -80 285 -109 285 -147 C285 -182 256 -212 211 -212 C173 -212 149 -193 134 -174 L115 -193 C133 -216 164 -239 214 -239 C279 -239 317 -198 317 -149 C317 -100 279 -61 221 -60 L244 -10 C353 -7 426 45 426 135 L426 135 Z " />
<glyph glyph-name="Scaron" unicode="&#x160;" horiz-adv-x="527" d="M295 774 L416 889 L376 889 L278 802 L181 889 L140 889 L263 774 L295 774 Z M106 546 C106 617 163 668 265 668 C353 668 406 633 431 555 L468 569 C441 656 374 704 266 704 C144 704 66 637 66 540 C66 305 439 386 439 166 C439 81 369 27 262 27 C162 27 94 76 72 161 L35 147 C62 49 143 -9 261 -9 C391 -9 479 60 479 168 C479 424 106 337 106 546 L106 546 Z " />
<glyph glyph-name="scaron" unicode="&#x161;" horiz-adv-x="464" d="M253 617 L379 749 L339 749 L236 644 L134 749 L94 749 L220 617 L253 617 Z M98 407 C98 468 146 505 230 505 C298 505 345 479 368 421 L402 435 C378 502 317 537 230 537 C127 537 58 487 58 405 C58 224 386 293 386 132 C386 62 325 22 235 22 C145 22 86 60 67 123 L32 109 C56 33 130 -10 234 -10 C348 -10 426 42 426 135 C426 328 98 254 98 407 L98 407 Z " />
<glyph glyph-name="uni0162" unicode="&#x162;" horiz-adv-x="524" d="M281 0 L281 660 L510 660 L510 695 L14 695 L14 660 L243 660 L243 0 L247 0 L212 -76 L217 -84 L235 -84 C279 -84 311 -114 311 -151 C311 -187 282 -216 237 -216 C198 -216 175 -198 159 -178 L141 -198 C159 -220 189 -244 240 -244 C305 -244 342 -203 342 -153 C342 -104 305 -65 247 -64 L277 0 L281 0 Z " />
<glyph glyph-name="uni0163" unicode="&#x163;" horiz-adv-x="343" d="M270 0 L340 0 L340 35 L275 35 C196 35 152 83 152 165 L152 492 L330 492 L330 527 L153 527 L153 659 L117 659 L117 570 C117 540 105 527 75 527 L13 527 L13 492 L114 492 L114 162 C114 82 149 27 213 8 L180 -64 L185 -72 L203 -72 C247 -72 279 -102 279 -139 C279 -175 250 -205 205 -205 C166 -205 142 -186 127 -167 L109 -186 C126 -209 157 -232 208 -232 C272 -232 310 -191 310 -141 C310 -92 273 -53 214 -53 L240 2 C250 1 260 0 270 0 L270 0 Z " />
<glyph glyph-name="Tcaron" unicode="&#x164;" horiz-adv-x="524" d="M279 774 L400 889 L360 889 L262 802 L165 889 L124 889 L247 774 L279 774 Z M510 695 L14 695 L14 660 L243 660 L243 0 L281 0 L281 660 L510 660 L510 695 Z " />
<glyph glyph-name="tcaron" unicode="&#x165;" horiz-adv-x="343" d="M280 560 L308 560 L331 767 L300 767 L280 560 Z M270 0 L340 0 L340 35 L275 35 C196 35 152 83 152 165 L152 492 L330 492 L330 527 L153 527 L153 659 L117 659 L117 570 C117 540 105 527 75 527 L13 527 L13 492 L114 492 L114 162 C114 61 170 0 270 0 L270 0 Z " />
<glyph glyph-name="Tbar" unicode="&#x166;" horiz-adv-x="534" d="M515 660 L515 695 L19 695 L19 660 L247 660 L247 357 L126 357 L126 326 L247 326 L247 0 L286 0 L286 326 L408 326 L408 357 L286 357 L286 660 L515 660 Z " />
<glyph glyph-name="tbar" unicode="&#x167;" horiz-adv-x="353" d="M282 35 C203 35 160 83 160 165 L160 270 L313 270 L313 301 L160 301 L160 492 L338 492 L338 527 L160 527 L160 659 L124 659 L124 570 C124 540 112 527 82 527 L20 527 L20 492 L121 492 L121 301 L33 301 L33 270 L121 270 L121 162 C121 61 177 0 278 0 L348 0 L348 35 L282 35 Z " />
<glyph glyph-name="Utilde" unicode="&#x168;" horiz-adv-x="668" d="M274 838 C323 838 334 785 396 785 C450 785 476 825 484 859 L453 871 C448 843 429 819 395 819 C346 819 333 872 274 872 C221 872 194 832 187 799 L218 786 C223 814 241 838 274 838 L274 838 Z M543 695 L543 250 C543 127 473 26 335 26 C195 26 126 126 126 250 L126 695 L87 695 L87 249 C87 107 168 -10 335 -10 C501 -10 582 108 582 249 L582 695 L543 695 Z " />
<glyph glyph-name="utilde" unicode="&#x169;" horiz-adv-x="604" d="M227 693 C275 693 287 640 349 640 C402 640 427 680 435 714 L404 726 C399 698 380 674 346 674 C297 674 284 727 225 727 C173 727 147 687 140 654 L171 641 C176 669 194 693 227 693 L227 693 Z M482 527 L482 182 C480 107 405 26 296 25 C185 24 115 96 115 208 L115 527 L76 527 L76 204 C76 76 155 -10 290 -10 C386 -10 455 44 483 102 L483 0 L520 0 L520 527 L482 527 Z " />
<glyph glyph-name="Umacron" unicode="&#x16a;" horiz-adv-x="668" d="M467 849 L201 849 L201 815 L467 815 L467 849 Z M543 695 L543 250 C543 127 473 26 335 26 C195 26 126 126 126 250 L126 695 L87 695 L87 249 C87 107 168 -10 335 -10 C501 -10 582 108 582 249 L582 695 L543 695 Z " />
<glyph glyph-name="umacron" unicode="&#x16b;" horiz-adv-x="604" d="M418 700 L156 700 L156 667 L418 667 L418 700 Z M482 527 L482 182 C480 107 405 26 296 25 C185 24 115 96 115 208 L115 527 L76 527 L76 204 C76 76 155 -10 290 -10 C386 -10 455 44 483 102 L483 0 L520 0 L520 527 L482 527 Z " />
<glyph glyph-name="Uring" unicode="&#x16e;" horiz-adv-x="668" d="M335 735 C383 735 419 770 419 817 C419 863 383 899 335 899 C286 899 250 863 250 817 C250 770 286 735 335 735 L335 735 Z M335 872 C367 872 391 848 391 817 C391 786 367 762 335 762 C302 762 278 786 278 817 C278 848 302 872 335 872 L335 872 Z M543 695 L543 250 C543 127 473 26 335 26 C195 26 126 126 126 250 L126 695 L87 695 L87 249 C87 107 168 -10 335 -10 C501 -10 582 108 582 249 L582 695 L543 695 Z " />
<glyph glyph-name="uring" unicode="&#x16f;" horiz-adv-x="604" d="M288 590 C336 590 372 625 372 672 C372 719 336 754 288 754 C240 754 203 719 203 672 C203 625 240 590 288 590 L288 590 Z M288 727 C320 727 344 703 344 672 C344 641 320 617 288 617 C256 617 232 641 232 672 C232 703 256 727 288 727 L288 727 Z M482 527 L482 182 C480 107 405 26 296 25 C185 24 115 96 115 208 L115 527 L76 527 L76 204 C76 76 155 -10 290 -10 C386 -10 455 44 483 102 L483 0 L520 0 L520 527 L482 527 Z " />
<glyph glyph-name="Uhungarumlaut" unicode="&#x170;" horiz-adv-x="668" d="M335 903 L306 922 L203 764 L229 746 L335 903 Z M506 903 L477 922 L374 764 L400 746 L506 903 Z M543 695 L543 250 C543 127 473 26 335 26 C195 26 126 126 126 250 L126 695 L87 695 L87 249 C87 107 168 -10 335 -10 C501 -10 582 108 582 249 L582 695 L543 695 Z " />
<glyph glyph-name="uhungarumlaut" unicode="&#x171;" horiz-adv-x="604" d="M299 751 L270 771 L167 630 L193 613 L299 751 Z M460 751 L431 771 L328 630 L354 613 L460 751 Z M482 527 L482 182 C480 107 405 26 296 25 C185 24 115 96 115 208 L115 527 L76 527 L76 204 C76 76 155 -10 290 -10 C386 -10 455 44 483 102 L483 0 L520 0 L520 527 L482 527 Z " />
<glyph glyph-name="Uogonek" unicode="&#x172;" horiz-adv-x="668" d="M543 695 L543 250 C543 127 473 26 335 26 C195 26 126 126 126 250 L126 695 L87 695 L87 249 C87 107 168 -10 335 -10 C357 -10 377 -8 396 -4 C343 -54 322 -88 322 -128 C322 -174 354 -211 405 -211 C439 -211 466 -198 482 -178 L464 -158 C450 -174 431 -181 409 -181 C376 -181 354 -158 354 -124 C354 -94 369 -66 416 -19 L447 12 C538 53 582 145 582 249 L582 695 L543 695 Z " />
<glyph glyph-name="uogonek" unicode="&#x173;" horiz-adv-x="604" d="M537 -170 C524 -186 505 -193 483 -193 C450 -193 428 -170 428 -136 C428 -106 443 -78 490 -31 L520 0 L520 527 L482 527 L482 182 C480 107 405 26 296 25 C185 24 115 96 115 208 L115 527 L76 527 L76 204 C76 76 155 -10 290 -10 C386 -10 455 44 483 102 L483 0 L487 0 L470 -15 C417 -65 395 -100 395 -140 C395 -186 427 -223 479 -223 C513 -223 539 -210 555 -190 L537 -170 Z " />
<glyph glyph-name="Wcircumflex" unicode="&#x174;" horiz-adv-x="844" d="M423 861 L521 774 L561 774 L439 889 L407 889 L285 774 L326 774 L423 861 Z M781 695 L627 61 L442 695 L402 695 L217 59 L62 695 L24 695 L196 0 L236 0 L422 638 L608 0 L648 0 L820 695 L781 695 Z " />
<glyph glyph-name="wcircumflex" unicode="&#x175;" horiz-adv-x="749" d="M374 722 L477 617 L517 617 L391 749 L358 749 L232 617 L272 617 L374 722 Z M688 527 L556 48 L399 527 L354 527 L195 48 L62 527 L21 527 L170 0 L217 0 L376 479 L536 0 L581 0 L731 527 L688 527 Z " />
<glyph glyph-name="Ycircumflex" unicode="&#x176;" horiz-adv-x="587" d="M295 861 L392 774 L433 774 L311 889 L279 889 L157 774 L197 774 L295 861 Z M575 695 L531 695 L294 323 L57 695 L13 695 L274 290 L274 0 L313 0 L313 289 L575 695 Z " />
<glyph glyph-name="ycircumflex" unicode="&#x177;" horiz-adv-x="527" d="M263 722 L366 617 L406 617 L280 749 L247 749 L121 617 L161 617 L263 722 Z M473 527 L263 40 L54 527 L13 527 L241 0 L245 0 L167 -179 L206 -179 L283 0 L514 527 L473 527 Z " />
<glyph glyph-name="Ydieresis" unicode="&#x178;" horiz-adv-x="587" d="M207 789 C230 789 250 808 250 831 C250 855 230 874 208 874 C184 874 164 855 164 832 C164 808 184 789 207 789 L207 789 Z M381 789 C404 789 424 808 424 831 C424 855 404 874 381 874 C359 874 339 855 339 832 C339 808 359 789 381 789 L381 789 Z M575 695 L531 695 L294 323 L57 695 L13 695 L274 290 L274 0 L313 0 L313 289 L575 695 Z " />
<glyph glyph-name="Zacute" unicode="&#x179;" horiz-adv-x="525" d="M387 859 L376 892 L157 801 L167 772 L387 859 Z M71 36 L495 665 L495 695 L35 695 L35 660 L448 660 L24 29 L24 0 L503 0 L503 36 L71 36 Z " />
<glyph glyph-name="zacute" unicode="&#x17a;" horiz-adv-x="447" d="M333 723 L315 752 L128 638 L145 612 L333 723 Z M70 33 L413 495 L413 527 L40 527 L40 494 L368 494 L24 31 L24 0 L427 0 L427 33 L70 33 Z " />
<glyph glyph-name="Zdotaccent" unicode="&#x17b;" horiz-adv-x="525" d="M262 789 C286 789 304 807 304 831 C304 855 286 873 262 873 C238 873 220 855 220 832 C220 807 238 789 262 789 L262 789 Z M71 36 L495 665 L495 695 L35 695 L35 660 L448 660 L24 29 L24 0 L503 0 L503 36 L71 36 Z " />
<glyph glyph-name="zdotaccent" unicode="&#x17c;" horiz-adv-x="447" d="M225 638 C251 638 271 656 271 683 C271 709 251 728 225 728 C199 728 179 709 179 683 C179 656 199 638 225 638 L225 638 Z M70 33 L413 495 L413 527 L40 527 L40 494 L368 494 L24 31 L24 0 L427 0 L427 33 L70 33 Z " />
<glyph glyph-name="Zcaron" unicode="&#x17d;" horiz-adv-x="525" d="M278 774 L400 889 L360 889 L262 802 L165 889 L124 889 L247 774 L278 774 Z M71 36 L495 665 L495 695 L35 695 L35 660 L448 660 L24 29 L24 0 L503 0 L503 36 L71 36 Z " />
<glyph glyph-name="zcaron" unicode="&#x17e;" horiz-adv-x="447" d="M241 616 L367 748 L327 748 L225 643 L122 748 L82 748 L208 616 L241 616 Z M70 33 L413 495 L413 527 L40 527 L40 494 L368 494 L24 31 L24 0 L427 0 L427 33 L70 33 Z " />
<glyph glyph-name="uni01EA" unicode="&#x1ea;" horiz-adv-x="785" d="M491 3 C635 44 734 175 734 347 C734 557 588 705 393 705 C196 705 51 557 51 347 C51 138 196 -10 393 -10 C412 -10 430 -9 447 -6 L443 -10 C390 -60 368 -95 368 -135 C368 -181 400 -217 452 -217 C485 -217 512 -205 528 -185 L510 -165 C497 -181 478 -188 455 -188 C423 -188 400 -165 400 -131 C400 -101 415 -73 463 -25 L491 3 Z M91 347 C91 536 219 668 393 668 C566 668 694 536 694 347 C694 159 565 27 393 27 C219 27 91 159 91 347 L91 347 Z " />
<glyph glyph-name="uni01EB" unicode="&#x1eb;" horiz-adv-x="624" d="M578 263 C578 421 467 537 312 537 C156 537 46 421 46 263 C46 106 156 -10 312 -10 C325 -10 337 -9 349 -8 L342 -14 C288 -64 267 -99 267 -139 C267 -186 299 -222 350 -222 C384 -222 411 -209 427 -189 L408 -169 C395 -186 376 -192 354 -192 C321 -192 299 -169 299 -135 C299 -105 314 -77 361 -30 L392 1 C504 34 578 135 578 263 L578 263 Z M312 25 C179 25 85 126 85 263 C85 402 179 502 312 502 C446 502 539 402 539 263 C539 126 446 25 312 25 L312 25 Z " />
<glyph glyph-name="AEacute" unicode="&#x1fc;" horiz-adv-x="907" d="M735 859 L724 892 L505 801 L515 772 L735 859 Z M491 35 L491 347 L830 347 L830 382 L491 382 L491 660 L861 660 L861 695 L405 695 L-10 0 L32 0 L173 235 L452 235 L452 0 L868 0 L868 35 L491 35 Z M194 269 L429 660 L452 660 L452 269 L194 269 Z " />
<glyph glyph-name="aeacute" unicode="&#x1fd;" horiz-adv-x="1076" d="M655 724 L636 753 L450 639 L466 613 L655 724 Z M567 253 L1032 253 L1032 276 C1032 425 933 537 789 537 C684 537 602 476 564 384 L564 527 L527 527 L527 389 C489 480 408 537 304 537 C156 537 46 420 46 264 C46 107 155 -10 304 -10 C408 -10 489 48 527 138 L527 0 L564 0 L564 141 C602 49 683 -10 792 -10 C911 -10 991 46 1025 143 L992 156 C961 68 892 23 787 23 C664 23 572 119 567 253 L567 253 Z M567 281 C575 410 666 506 787 506 C909 506 994 413 996 281 L567 281 Z M305 25 C179 25 85 126 85 264 C85 400 180 502 305 502 C435 502 526 404 526 264 C526 124 435 25 305 25 L305 25 Z " />
<glyph glyph-name="Oslashacute" unicode="&#x1fe;" horiz-adv-x="788" d="M519 859 L508 892 L290 801 L300 772 L519 859 Z M644 599 L714 677 L689 701 L619 623 C560 675 482 705 395 705 C198 705 53 557 53 347 C53 246 87 159 144 96 L74 18 L99 -7 L170 72 C229 20 307 -10 395 -10 C590 -10 736 138 736 347 C736 449 702 536 644 599 L644 599 Z M93 347 C93 536 221 668 395 668 C472 668 541 641 593 595 L171 125 C122 181 93 258 93 347 L93 347 Z M395 27 C317 27 248 54 195 100 L618 570 C667 514 696 437 696 347 C696 159 567 27 395 27 L395 27 Z " />
<glyph glyph-name="oslashacute" unicode="&#x1ff;" horiz-adv-x="639" d="M429 723 L410 752 L224 638 L240 612 L429 723 Z M600 491 L580 514 L514 456 C467 507 399 537 320 537 C164 537 53 421 53 263 C53 198 72 140 105 95 L39 36 L60 13 L125 71 C173 20 240 -10 320 -10 C475 -10 585 106 585 263 C585 328 566 386 533 432 L600 491 Z M92 263 C92 402 186 502 320 502 C388 502 446 476 486 431 L134 120 C107 159 92 208 92 263 L92 263 Z M546 263 C546 126 453 25 320 25 C252 25 194 51 153 95 L505 407 C531 368 546 318 546 263 L546 263 Z " />
<glyph glyph-name="uni0218" unicode="&#x218;" horiz-adv-x="527" d="M106 546 C106 617 163 668 265 668 C353 668 406 633 431 555 L468 569 C441 656 374 704 266 704 C144 704 66 637 66 540 C66 305 439 386 439 166 C439 81 369 27 262 27 C162 27 94 76 72 161 L35 147 C62 49 143 -9 261 -9 C391 -9 479 60 479 168 C479 424 106 337 106 546 L106 546 Z M287 -50 C264 -50 247 -66 247 -88 C247 -111 264 -126 286 -127 L283 -134 L245 -207 L268 -215 L308 -142 C319 -124 325 -107 325 -90 C325 -66 309 -50 287 -50 L287 -50 Z " />
<glyph glyph-name="uni0219" unicode="&#x219;" horiz-adv-x="464" d="M98 407 C98 468 146 505 230 505 C298 505 345 479 368 421 L402 435 C378 502 317 537 230 537 C127 537 58 487 58 405 C58 224 386 293 386 132 C386 62 325 22 235 22 C145 22 86 60 67 123 L32 109 C56 33 130 -10 234 -10 C348 -10 426 42 426 135 C426 328 98 254 98 407 L98 407 Z M246 -50 C223 -50 207 -66 207 -88 C207 -111 224 -127 245 -127 L242 -134 L204 -207 L227 -215 L267 -142 C278 -124 284 -107 284 -90 C284 -66 268 -50 246 -50 L246 -50 Z " />
<glyph glyph-name="uni021A" unicode="&#x21a;" horiz-adv-x="524" d="M510 695 L14 695 L14 660 L243 660 L243 0 L281 0 L281 660 L510 660 L510 695 Z M263 -50 C241 -50 224 -66 224 -88 C224 -111 241 -127 262 -127 L259 -134 L221 -207 L244 -215 L284 -142 C295 -124 302 -107 302 -90 C302 -66 285 -50 263 -50 L263 -50 Z " />
<glyph glyph-name="uni021B" unicode="&#x21b;" horiz-adv-x="343" d="M275 35 C196 35 152 83 152 165 L152 492 L330 492 L330 527 L153 527 L153 659 L117 659 L117 570 C117 540 105 527 75 527 L13 527 L13 492 L114 492 L114 162 C114 61 170 0 270 0 L340 0 L340 35 L275 35 Z M236 -42 C213 -42 196 -59 196 -80 C196 -103 213 -119 235 -120 L232 -127 L194 -200 L217 -208 L257 -135 C268 -116 274 -99 274 -82 C274 -59 258 -42 236 -42 L236 -42 Z " />
<glyph glyph-name="uni0237" unicode="&#x237;" horiz-adv-x="206" d="M-53 -180 L-41 -180 C58 -180 123 -111 123 -9 L123 527 L84 527 L84 -9 C84 -89 34 -144 -43 -144 L-53 -144 L-53 -180 Z " />
<glyph glyph-name="circumflex" unicode="&#x2c6;" horiz-adv-x="305" d="M315 617 L189 749 L156 749 L30 617 L70 617 L172 722 L275 617 L315 617 Z " />
<glyph glyph-name="caron" unicode="&#x2c7;" horiz-adv-x="315" d="M275 749 L172 644 L70 749 L30 749 L156 617 L189 617 L315 749 L275 749 Z " />
<glyph glyph-name="breve" unicode="&#x2d8;" horiz-adv-x="284" d="M159 617 C236 617 288 672 288 749 L255 749 C255 690 216 649 159 649 C102 649 63 690 63 749 L30 749 C30 672 82 617 159 617 L159 617 Z " />
<glyph glyph-name="dotaccent" unicode="&#x2d9;" horiz-adv-x="108" d="M76 639 C102 639 122 657 122 684 C122 710 102 729 76 729 C50 729 30 710 30 684 C30 657 50 639 76 639 L76 639 Z " />
<glyph glyph-name="ring" unicode="&#x2da;" horiz-adv-x="182" d="M115 590 C163 590 199 625 199 672 C199 719 163 754 115 754 C66 754 30 719 30 672 C30 625 66 590 115 590 L115 590 Z M115 617 C83 617 58 641 58 672 C58 703 83 727 115 727 C147 727 171 703 171 672 C171 641 147 617 115 617 L115 617 Z " />
<glyph glyph-name="ogonek" unicode="&#x2db;" horiz-adv-x="220" d="M114 -222 C147 -222 174 -209 190 -189 L172 -169 C158 -185 140 -192 117 -192 C85 -192 62 -169 62 -135 C62 -105 77 -77 124 -30 L155 1 L138 16 L105 -14 C52 -64 30 -99 30 -139 C30 -185 62 -222 114 -222 L114 -222 Z " />
<glyph glyph-name="tilde" unicode="&#x2dc;" horiz-adv-x="365" d="M238 640 C292 640 317 680 324 714 L294 726 C288 698 270 674 236 674 C186 674 174 727 115 727 C63 727 37 687 30 654 L61 641 C66 669 84 693 117 693 C165 693 177 640 238 640 L238 640 Z " />
<glyph glyph-name="hungarumlaut" unicode="&#x2dd;" horiz-adv-x="276" d="M44 613 L151 751 L121 771 L19 630 L44 613 Z M206 613 L312 751 L283 771 L180 630 L206 613 Z " />
<glyph glyph-name="gravecomb" unicode="&#x300;" d="M-47 613 L-30 639 L-216 753 L-235 724 L-47 613 Z " />
<glyph glyph-name="acutecomb" unicode="&#x301;" d="M-218 613 L-30 724 L-49 753 L-235 639 L-218 613 Z " />
<glyph glyph-name="uni0302" unicode="&#x302;" d="M-30 617 L-156 749 L-189 749 L-315 617 L-275 617 L-173 722 L-70 617 L-30 617 Z " />
<glyph glyph-name="tildecomb" unicode="&#x303;" d="M-116 640 C-62 640 -37 680 -30 714 L-60 726 C-66 698 -84 674 -118 674 C-168 674 -180 727 -239 727 C-291 727 -317 687 -324 654 L-293 641 C-288 669 -270 693 -237 693 C-189 693 -177 640 -116 640 L-116 640 Z " />
<glyph glyph-name="uni0304" unicode="&#x304;" d="M-292 667 L-30 667 L-30 700 L-292 700 L-292 667 Z " />
<glyph glyph-name="uni0306" unicode="&#x306;" d="M-157 617 C-80 617 -28 672 -28 749 L-61 749 C-61 690 -100 649 -157 649 C-214 649 -253 690 -253 749 L-286 749 C-286 672 -234 617 -157 617 L-157 617 Z " />
<glyph glyph-name="uni0307" unicode="&#x307;" d="M-76 639 C-50 639 -30 657 -30 684 C-30 710 -50 729 -76 729 C-102 729 -122 710 -122 684 C-122 657 -102 639 -76 639 L-76 639 Z " />
<glyph glyph-name="uni0308" unicode="&#x308;" d="M-244 640 C-220 640 -200 659 -200 683 C-200 708 -220 727 -243 727 C-267 727 -288 708 -288 684 C-288 659 -267 640 -244 640 L-244 640 Z M-74 640 C-50 640 -30 659 -30 683 C-30 708 -50 727 -74 727 C-97 727 -118 708 -118 684 C-118 659 -97 640 -74 640 L-74 640 Z " />
<glyph glyph-name="uni030A" unicode="&#x30a;" d="M-114 590 C-66 590 -30 625 -30 672 C-30 719 -66 754 -114 754 C-163 754 -199 719 -199 672 C-199 625 -163 590 -114 590 L-114 590 Z M-114 617 C-146 617 -171 641 -171 672 C-171 703 -146 727 -114 727 C-82 727 -58 703 -58 672 C-58 641 -82 617 -114 617 L-114 617 Z " />
<glyph glyph-name="uni030B" unicode="&#x30b;" d="M-297 613 L-191 751 L-220 771 L-323 630 L-297 613 Z M-136 613 L-30 751 L-59 771 L-162 630 L-136 613 Z " />
<glyph glyph-name="uni030C" unicode="&#x30c;" d="M-70 749 L-173 644 L-275 749 L-315 749 L-189 617 L-156 617 L-30 749 L-70 749 Z " />
<glyph glyph-name="uni0326" unicode="&#x326;" d="M-68 -50 C-91 -50 -108 -66 -108 -88 C-108 -111 -91 -127 -69 -127 L-72 -134 L-111 -207 L-88 -215 L-48 -142 C-37 -124 -30 -107 -30 -90 C-30 -66 -47 -50 -68 -50 L-68 -50 Z " />
<glyph glyph-name="uni0327" unicode="&#x327;" d="M-132 -239 C-67 -239 -30 -198 -30 -149 C-30 -100 -67 -61 -125 -60 L-94 7 L-123 7 L-160 -72 L-154 -80 L-137 -80 C-92 -80 -61 -109 -61 -147 C-61 -182 -90 -212 -135 -212 C-173 -212 -197 -193 -213 -174 L-231 -193 C-213 -216 -183 -239 -132 -239 L-132 -239 Z " />
<glyph glyph-name="uni0328" unicode="&#x328;" d="M-106 -222 C-73 -222 -46 -209 -30 -189 L-48 -169 C-62 -185 -80 -192 -103 -192 C-135 -192 -158 -169 -158 -135 C-158 -105 -143 -77 -96 -30 L-65 1 L-82 16 L-115 -14 C-168 -64 -190 -99 -190 -139 C-190 -185 -158 -222 -106 -222 L-106 -222 Z " />
<glyph glyph-name="uni0335" unicode="&#x335;" d="M-313 250 L-30 250 L-30 281 L-313 281 L-313 250 Z " />
<glyph glyph-name="uni0336" unicode="&#x336;" d="M-657 286 L-30 286 L-30 318 L-657 318 L-657 286 Z " />
<glyph glyph-name="uni0337" unicode="&#x337;" d="M-278 177 L-42 314 L-57 340 L-294 203 L-278 177 Z " />
<glyph glyph-name="uni0338" unicode="&#x338;" d="M-570 -1 L-30 477 L-51 500 L-591 23 L-570 -1 Z " />
<glyph glyph-name="Wgrave" unicode="&#x1e80;" horiz-adv-x="844" d="M538 801 L320 892 L308 859 L528 772 L538 801 Z M781 695 L627 61 L442 695 L402 695 L217 59 L62 695 L24 695 L196 0 L236 0 L422 638 L608 0 L648 0 L820 695 L781 695 Z " />
<glyph glyph-name="wgrave" unicode="&#x1e81;" horiz-adv-x="749" d="M465 639 L278 753 L260 724 L448 613 L465 639 Z M688 527 L556 48 L399 527 L354 527 L195 48 L62 527 L21 527 L170 0 L217 0 L376 479 L536 0 L581 0 L731 527 L688 527 Z " />
<glyph glyph-name="Wacute" unicode="&#x1e82;" horiz-adv-x="844" d="M548 859 L537 892 L318 801 L328 772 L548 859 Z M781 695 L627 61 L442 695 L402 695 L217 59 L62 695 L24 695 L196 0 L236 0 L422 638 L608 0 L648 0 L820 695 L781 695 Z " />
<glyph glyph-name="wacute" unicode="&#x1e83;" horiz-adv-x="749" d="M483 724 L464 753 L278 639 L295 613 L483 724 Z M688 527 L556 48 L399 527 L354 527 L195 48 L62 527 L21 527 L170 0 L217 0 L376 479 L536 0 L581 0 L731 527 L688 527 Z " />
<glyph glyph-name="Wdieresis" unicode="&#x1e84;" horiz-adv-x="844" d="M336 789 C358 789 378 808 378 831 C378 855 358 874 336 874 C313 874 292 855 292 832 C292 808 313 789 336 789 L336 789 Z M509 789 C533 789 553 808 553 831 C553 855 533 874 510 874 C487 874 467 855 467 832 C467 808 487 789 509 789 L509 789 Z M781 695 L627 61 L442 695 L402 695 L217 59 L62 695 L24 695 L196 0 L236 0 L422 638 L608 0 L648 0 L820 695 L781 695 Z " />
<glyph glyph-name="wdieresis" unicode="&#x1e85;" horiz-adv-x="749" d="M289 640 C312 640 333 659 333 683 C333 708 313 727 290 727 C266 727 245 708 245 684 C245 659 266 640 289 640 L289 640 Z M458 640 C482 640 503 659 503 683 C503 708 482 727 459 727 C435 727 415 708 415 684 C415 659 435 640 458 640 L458 640 Z M688 527 L556 48 L399 527 L354 527 L195 48 L62 527 L21 527 L170 0 L217 0 L376 479 L536 0 L581 0 L731 527 L688 527 Z " />
<glyph glyph-name="uni1E9E" unicode="&#x1e9e;" horiz-adv-x="630" d="M386 377 L555 561 C519 648 453 705 324 705 C184 705 87 617 87 470 L87 0 L126 0 L126 472 C126 595 206 669 325 669 C428 669 482 627 513 563 L336 370 L336 347 L363 347 C474 347 541 283 541 187 C541 90 475 26 382 26 C299 26 239 72 218 151 L195 129 C220 43 289 -8 385 -8 C499 -8 581 68 581 185 C581 296 506 371 386 377 L386 377 Z " />
<glyph glyph-name="Ygrave" unicode="&#x1ef2;" horiz-adv-x="587" d="M410 801 L191 892 L180 859 L400 772 L410 801 Z M575 695 L531 695 L294 323 L57 695 L13 695 L274 290 L274 0 L313 0 L313 289 L575 695 Z " />
<glyph glyph-name="ygrave" unicode="&#x1ef3;" horiz-adv-x="527" d="M354 639 L168 753 L149 724 L337 613 L354 639 Z M473 527 L263 40 L54 527 L13 527 L241 0 L245 0 L167 -179 L206 -179 L283 0 L514 527 L473 527 Z " />
<glyph glyph-name="uni1EF8" unicode="&#x1ef8;" horiz-adv-x="587" d="M234 838 C283 838 294 785 356 785 C410 785 436 825 444 859 L413 871 C408 843 389 819 355 819 C306 819 293 872 234 872 C181 872 154 832 147 799 L178 786 C183 814 201 838 234 838 L234 838 Z M575 695 L531 695 L294 323 L57 695 L13 695 L274 290 L274 0 L313 0 L313 289 L575 695 Z " />
<glyph glyph-name="uni1EF9" unicode="&#x1ef9;" horiz-adv-x="527" d="M203 693 C251 693 263 640 324 640 C378 640 403 680 410 714 L379 726 C374 698 355 674 322 674 C272 674 260 727 201 727 C149 727 123 687 116 654 L146 641 C152 669 170 693 203 693 L203 693 Z M473 527 L263 40 L54 527 L13 527 L241 0 L245 0 L167 -179 L206 -179 L283 0 L514 527 L473 527 Z " />
<glyph glyph-name="endash" unicode="&#x2013;" horiz-adv-x="527" d="M67 239 L459 239 L459 272 L67 272 L67 239 Z " />
<glyph glyph-name="emdash" unicode="&#x2014;" horiz-adv-x="803" d="M67 237 L736 237 L736 270 L67 270 L67 237 Z " />
<glyph glyph-name="quoteleft" unicode="&#x2018;" horiz-adv-x="177" d="M88 627 L129 715 L98 715 L62 639 C51 617 47 604 47 590 C47 567 64 550 86 550 C109 550 125 567 125 590 C125 612 110 626 88 627 L88 627 Z " />
<glyph glyph-name="quoteright" unicode="&#x2019;" horiz-adv-x="174" d="M95 716 C73 716 56 700 56 676 C56 653 73 639 94 639 L53 551 L83 551 L120 628 C131 650 134 662 134 676 C134 700 118 716 95 716 L95 716 Z " />
<glyph glyph-name="quotesinglbase" unicode="&#x201a;" horiz-adv-x="177" d="M89 68 C67 68 51 52 51 28 C51 5 67 -9 88 -9 L47 -97 L77 -97 L114 -20 C125 2 128 14 128 28 C128 52 112 68 89 68 L89 68 Z " />
<glyph glyph-name="quotedblleft" unicode="&#x201c;" horiz-adv-x="294" d="M98 715 L62 639 C51 617 47 604 47 590 C47 567 64 550 86 550 C109 550 125 567 125 590 C125 612 110 626 88 627 L129 715 L98 715 Z M204 627 L245 715 L215 715 L178 639 C168 617 164 604 164 590 C164 567 181 550 203 550 C225 550 242 567 242 590 C242 613 225 627 204 627 L204 627 Z " />
<glyph glyph-name="quotedblright" unicode="&#x201d;" horiz-adv-x="291" d="M95 716 C73 716 56 700 56 676 C56 653 73 639 94 639 L53 551 L83 551 L120 628 C131 650 134 662 134 676 C134 700 118 716 95 716 L95 716 Z M212 716 C190 716 173 700 173 676 C173 653 190 639 211 639 L169 551 L200 551 L236 628 C247 650 251 662 251 676 C251 700 234 716 212 716 L212 716 Z " />
<glyph glyph-name="quotedblbase" unicode="&#x201e;" horiz-adv-x="294" d="M89 68 C67 68 51 52 51 28 C51 5 67 -9 88 -9 L47 -97 L77 -97 L114 -20 C125 2 128 14 128 28 C128 52 112 68 89 68 L89 68 Z M206 68 C184 68 167 52 167 28 C167 5 184 -9 205 -9 L164 -97 L194 -97 L231 -20 C241 2 245 14 245 28 C245 52 228 68 206 68 L206 68 Z " />
<glyph glyph-name="dagger" unicode="&#x2020;" horiz-adv-x="313" d="M265 631 L174 631 L174 731 L139 731 L139 631 L48 631 L48 601 L139 601 L139 322 L174 322 L174 601 L265 601 L265 631 Z " />
<glyph glyph-name="daggerdbl" unicode="&#x2021;" horiz-adv-x="330" d="M274 606 L274 637 L182 637 L182 731 L148 731 L148 637 L57 637 L57 606 L148 606 L148 447 L57 447 L57 416 L148 416 L148 322 L182 322 L182 416 L274 416 L274 447 L182 447 L182 606 L274 606 Z " />
<glyph glyph-name="bullet" unicode="&#x2022;" horiz-adv-x="329" d="M165 264 C208 264 242 299 242 341 C242 384 208 419 165 419 C121 419 87 384 87 341 C87 299 121 264 165 264 L165 264 Z " />
<glyph glyph-name="ellipsis" unicode="&#x2026;" horiz-adv-x="519" d="M94 -9 C116 -9 133 7 133 30 C133 52 116 69 94 69 C71 69 55 52 55 30 C55 7 71 -9 94 -9 L94 -9 Z M259 -9 C282 -9 298 7 298 30 C298 52 282 69 259 69 C237 69 220 52 220 30 C220 7 237 -9 259 -9 L259 -9 Z M425 -9 C447 -9 464 7 464 30 C464 52 447 69 425 69 C402 69 386 52 386 30 C386 7 402 -9 425 -9 L425 -9 Z " />
<glyph glyph-name="perthousand" unicode="&#x2030;" horiz-adv-x="1052" d="M183 386 C272 386 335 454 335 543 C335 630 272 701 183 701 C95 701 31 630 31 543 C31 454 95 386 183 386 L183 386 Z M138 0 L173 0 L582 695 L546 695 L138 0 Z M183 414 C113 414 61 470 61 544 C61 613 113 672 183 672 C252 672 305 613 305 544 C305 470 252 414 183 414 L183 414 Z M539 -6 C628 -6 691 63 691 151 C691 239 628 309 539 309 C451 309 387 239 387 151 C387 63 451 -6 539 -6 L539 -6 Z M871 -6 C960 -6 1023 63 1023 151 C1023 239 960 309 871 309 C782 309 719 239 719 151 C719 63 782 -6 871 -6 L871 -6 Z M539 23 C469 23 417 78 417 152 C417 222 469 281 539 281 C608 281 661 222 661 152 C661 78 608 23 539 23 L539 23 Z M871 23 C801 23 748 78 748 152 C748 222 801 281 871 281 C940 281 993 222 993 152 C993 78 940 23 871 23 L871 23 Z " />
<glyph glyph-name="guilsinglleft" unicode="&#x2039;" horiz-adv-x="256" d="M151 90 L192 90 L85 254 L192 418 L151 418 L45 254 L151 90 Z " />
<glyph glyph-name="guilsinglright" unicode="&#x203a;" horiz-adv-x="256" d="M64 90 L104 90 L211 254 L104 418 L64 418 L171 254 L64 90 Z " />
<glyph glyph-name="fraction" unicode="&#x2044;" horiz-adv-x="415" d="M-8 0 L27 0 L428 695 L392 695 L-8 0 Z " />
<glyph glyph-name="uni2074" unicode="&#x2074;" horiz-adv-x="324" d="M281 459 L235 459 L235 695 L206 695 L29 455 L29 434 L206 434 L206 347 L235 347 L235 434 L281 434 L281 459 Z M206 459 L62 459 L206 654 L206 459 Z " />
<glyph glyph-name="Euro" unicode="&#x20ac;" horiz-adv-x="742" d="M666 130 C619 63 548 27 453 27 C314 27 204 112 170 243 L446 243 L450 273 L163 273 C161 291 159 310 159 330 C159 350 161 369 164 388 L467 388 L471 417 L170 417 C203 548 312 633 449 633 C547 633 618 596 665 532 L697 556 C643 628 561 671 449 671 C290 671 164 570 129 417 L55 417 L51 388 L123 388 C120 369 119 350 119 330 C119 310 120 291 123 273 L34 273 L30 243 L129 243 C164 91 291 -10 453 -10 C569 -10 648 34 699 105 L666 130 Z " />
<glyph glyph-name="trademark" unicode="&#x2122;" horiz-adv-x="621" d="M235 686 L30 686 L30 661 L119 661 L119 408 L146 408 L146 661 L235 661 L235 686 Z M550 408 L532 686 L506 686 L506 685 L500 686 L411 452 L321 686 L315 685 L315 686 L289 686 L271 408 L297 408 L312 644 L398 420 L423 420 L509 644 L524 408 L550 408 Z " />
<glyph glyph-name="minus" unicode="&#x2212;" horiz-adv-x="556" d="M71 283 L485 283 L485 319 L71 319 L71 283 Z " />
<glyph glyph-name="approxequal" unicode="&#x2248;" horiz-adv-x="529" d="M355 341 C404 341 442 363 459 395 L436 416 C423 393 388 377 353 377 C284 377 254 434 175 434 C126 434 88 412 71 380 L94 359 C107 382 142 398 178 398 C246 398 277 341 355 341 L355 341 Z M354 132 C403 132 441 154 458 186 L435 207 C422 184 387 168 352 168 C283 168 253 225 174 225 C125 225 87 202 70 171 L94 149 C106 173 142 188 177 188 C245 188 276 132 354 132 L354 132 Z " />
<glyph glyph-name="notequal" unicode="&#x2260;" horiz-adv-x="558" d="M486 386 L486 422 L337 422 L382 564 L344 564 L299 422 L72 422 L72 386 L287 386 L224 186 L72 186 L72 150 L212 150 L166 5 L205 5 L251 150 L486 150 L486 186 L262 186 L326 386 L486 386 Z " />
<glyph glyph-name="uniF8FF" unicode="&#xf8ff;" horiz-adv-x="2307" d="M561 199 C585 199 604 202 616 209 L616 284 C610 280 602 277 592 277 C581 277 574 282 574 294 L574 342 L616 342 L616 421 L565 421 C535 421 507 404 507 404 L506 408 C544 425 573 470 573 510 L474 510 L474 282 C474 224 499 199 561 199 L561 199 Z M636 204 L735 204 L735 421 L727 421 C698 421 657 413 657 413 L655 416 C699 426 734 466 734 510 L636 510 L636 204 Z M1371 199 C1394 199 1413 202 1425 209 L1425 284 C1419 280 1411 277 1401 277 C1390 277 1383 282 1383 294 L1383 342 L1425 342 L1425 421 L1375 421 C1345 421 1317 404 1317 404 L1315 408 C1354 425 1382 470 1382 510 L1283 510 L1283 282 C1283 224 1309 199 1371 199 L1371 199 Z M100 204 L199 204 L199 509 L100 509 L100 204 Z M285 199 C326 199 349 216 356 226 L359 226 L359 204 L457 204 L457 338 C457 393 415 428 343 428 C271 428 232 399 221 350 L311 336 C311 356 319 365 334 365 C349 365 357 355 357 340 L357 305 L355 305 C343 317 323 326 289 326 C242 326 215 298 215 260 C215 224 242 199 285 199 L285 199 Z M756 204 L855 204 L855 328 C862 352 866 360 881 360 C893 360 900 352 900 333 L900 204 L1000 204 L1000 338 C1000 396 972 426 927 426 C888 426 862 406 856 356 L853 356 L853 421 L756 421 L756 204 Z M1141 199 C1223 199 1267 247 1267 312 C1267 378 1222 426 1141 426 C1061 426 1015 378 1015 312 C1015 246 1059 199 1141 199 L1141 199 Z M1691 132 L1791 132 L1791 242 L1794 242 C1806 212 1830 199 1863 199 C1907 199 1949 232 1949 312 C1949 392 1917 426 1866 426 C1820 426 1799 396 1793 356 L1790 356 L1790 421 L1691 421 L1691 132 Z M2087 199 C2140 199 2191 222 2203 288 L2121 296 C2119 278 2112 262 2091 262 C2069 262 2057 284 2057 308 L2207 308 L2207 317 C2207 377 2161 426 2090 426 C2011 426 1963 378 1963 312 C1963 246 2007 199 2087 199 L2087 199 Z M1472 128 L1511 128 C1562 128 1597 158 1617 214 L1688 421 L1589 421 C1578 367 1565 302 1559 248 L1557 248 C1553 302 1538 367 1529 421 L1429 421 L1483 248 C1491 222 1507 209 1535 209 L1603 209 L1604 206 C1597 198 1579 194 1537 194 L1472 194 L1472 128 Z M2057 320 C2057 348 2072 366 2094 366 C2111 366 2118 357 2118 344 C2118 328 2105 320 2063 320 L2057 320 Z M1825 247 C1815 247 1806 250 1798 260 L1798 332 C1803 353 1813 365 1828 365 C1849 365 1855 345 1855 304 C1855 263 1845 247 1825 247 L1825 247 Z M1141 261 C1124 261 1113 275 1113 312 C1113 350 1123 364 1141 364 C1158 364 1170 350 1170 312 C1170 275 1158 261 1141 261 L1141 261 Z M335 229 C317 229 311 242 311 264 C311 286 322 299 338 299 C347 299 354 296 357 291 L357 240 C353 234 345 229 335 229 L335 229 Z " />
<glyph glyph-name="fi" unicode="&#xfb01;" horiz-adv-x="467" d="M285 708 L384 708 L384 741 L285 741 C184 741 120 678 120 565 L120 527 L13 527 L13 492 L120 492 L120 0 L159 0 L159 492 L345 492 L345 0 L384 0 L384 527 L159 527 L159 567 C159 659 208 708 285 708 L285 708 Z " />
<glyph glyph-name="fl" unicode="&#xfb02;" horiz-adv-x="482" d="M398 731 L285 731 C184 731 120 667 120 555 L120 527 L13 527 L13 492 L120 492 L120 0 L159 0 L159 492 L285 492 L285 526 L159 526 L159 557 C159 648 208 698 285 698 L360 698 L360 0 L398 0 L398 731 Z " />
</font>
</svg>
