<?xml version="1.0" encoding="UTF-8"?>
<svg xmlns="http://www.w3.org/2000/svg" xmlns:xlink="http://www.w3.org/1999/xlink" version="1.2" >
<font id="Biennale Hair It">
<font-face  font-family="Biennale" units-per-em="1000" ascent="1040" descent="-345" font-style="normal" font-weight="100" font-stretch="normal" slope="-11" cap-height="695" x-height="527" underline-position="-75" underline-thickness="50" />
<missing-glyph  horiz-adv-x="604" d="M234 730 L92 0 L509 0 L651 730 L234 730 Z M581 695 L380 408 L290 695 L581 695 Z M259 658 L350 365 L145 73 L259 658 Z M485 74 L394 365 L597 656 L485 74 Z M363 322 L453 35 L162 35 L363 322 Z " />
<glyph glyph-name="NULL" d="" />
<glyph glyph-name="CR" unicode="&#xd;" horiz-adv-x="250" d="" />
<glyph glyph-name="space" unicode="&#x20;" horiz-adv-x="248" d="" />
<glyph glyph-name="exclam" unicode="&#x21;" horiz-adv-x="210" d="M128 173 L146 173 L257 731 L232 731 L128 173 Z M105 -9 C124 -9 139 5 139 25 C139 42 127 53 111 53 C92 53 77 39 77 19 C77 2 89 -9 105 -9 L105 -9 Z " />
<glyph glyph-name="quotedbl" unicode="&#x22;" horiz-adv-x="244" d="M169 553 L187 553 L220 715 L198 715 L169 553 Z M268 553 L286 553 L319 715 L297 715 L268 553 Z " />
<glyph glyph-name="numbersign" unicode="&#x23;" horiz-adv-x="652" d="M711 469 L714 487 L588 487 L683 695 L664 695 L569 487 L343 487 L438 695 L419 695 L324 487 L188 487 L185 469 L315 469 L204 226 L71 226 L68 208 L195 208 L100 0 L120 0 L215 208 L440 208 L345 0 L365 0 L460 208 L595 208 L598 226 L468 226 L580 469 L711 469 Z M449 226 L223 226 L335 469 L560 469 L449 226 Z " />
<glyph glyph-name="dollar" unicode="&#x24;" horiz-adv-x="433" d="M351 649 L368 740 L350 740 L333 650 L331 650 C226 650 153 586 153 494 C153 324 404 348 404 175 C404 87 336 29 233 29 C141 29 82 76 77 151 L58 145 C65 64 128 12 225 10 L208 -80 L226 -80 L243 10 C352 15 424 79 424 179 C424 363 173 338 173 496 C173 576 237 631 332 631 C410 631 455 594 463 525 L482 531 C472 601 425 643 351 649 L351 649 Z " />
<glyph glyph-name="percent" unicode="&#x25;" horiz-adv-x="696" d="M257 388 C357 388 430 480 430 571 C430 644 383 700 306 700 C206 700 133 608 133 517 C133 444 180 388 257 388 L257 388 Z M135 0 L156 0 L690 695 L670 695 L135 0 Z M260 405 C197 405 151 451 151 518 C151 598 216 683 303 683 C366 683 412 637 412 570 C412 490 347 405 260 405 L260 405 Z M522 -5 C622 -5 695 87 695 178 C695 251 648 307 571 307 C471 307 398 215 398 124 C398 51 445 -5 522 -5 L522 -5 Z M525 12 C462 12 416 58 416 125 C416 205 481 290 568 290 C631 290 677 244 677 177 C677 97 612 12 525 12 L525 12 Z " />
<glyph glyph-name="ampersand" unicode="&#x26;" horiz-adv-x="609" d="M634 335 L616 342 C596 234 539 138 492 96 L298 350 C254 408 229 448 229 505 C229 605 302 683 401 683 C493 683 546 628 547 556 L568 556 C568 640 505 702 405 702 C286 702 208 616 208 504 C208 463 222 428 244 392 C143 339 80 268 80 158 C80 60 160 -10 274 -10 C360 -10 429 13 488 68 L540 0 L566 0 L504 81 C554 127 612 227 634 335 L634 335 Z M276 8 C177 8 100 70 100 160 C100 267 159 328 254 377 C262 365 272 352 282 338 L478 81 C426 32 364 8 276 8 L276 8 Z " />
<glyph glyph-name="quotesingle" unicode="&#x27;" horiz-adv-x="145" d="M169 553 L187 553 L220 715 L198 715 L169 553 Z " />
<glyph glyph-name="parenleft" unicode="&#x28;" horiz-adv-x="282" d="M239 -89 L252 -72 C192 -34 122 77 122 231 C122 427 235 633 408 728 L401 745 C229 651 102 446 102 232 C102 73 172 -43 239 -89 L239 -89 Z " />
<glyph glyph-name="parenright" unicode="&#x29;" horiz-adv-x="282" d="M6 -89 C183 7 305 217 305 425 C305 583 234 700 168 745 L155 728 C215 690 285 579 285 425 C285 231 174 24 -1 -72 L6 -89 Z " />
<glyph glyph-name="asterisk" unicode="&#x2a;" horiz-adv-x="384" d="M258 418 L285 418 L306 553 L406 481 L423 504 L312 570 L449 635 L440 660 L312 586 L346 731 L319 731 L297 586 L197 659 L180 636 L291 570 L154 504 L163 481 L291 553 L258 418 Z " />
<glyph glyph-name="plus" unicode="&#x2b;" horiz-adv-x="463" d="M490 305 L300 305 L340 511 L320 511 L280 305 L90 305 L86 287 L276 287 L233 67 L253 67 L296 287 L486 287 L490 305 Z " />
<glyph glyph-name="comma" unicode="&#x2c;" horiz-adv-x="167" d="M88 53 C70 53 55 39 55 19 C55 2 67 -9 83 -9 L34 -82 L55 -82 L98 -21 C114 2 118 11 118 25 C118 41 106 53 88 53 L88 53 Z " />
<glyph glyph-name="hyphen" unicode="&#x2d;" horiz-adv-x="356" d="M114 248 L334 248 L338 266 L117 266 L114 248 Z " />
<glyph glyph-name="period" unicode="&#x2e;" horiz-adv-x="176" d="M87 -9 C106 -9 121 5 121 25 C121 42 109 53 93 53 C74 53 59 39 59 19 C59 2 71 -9 87 -9 L87 -9 Z " />
<glyph glyph-name="slash" unicode="&#x2f;" horiz-adv-x="295" d="M32 -50 L53 -50 L387 711 L367 711 L32 -50 Z " />
<glyph glyph-name="zero" unicode="0" horiz-adv-x="659" d="M343 -9 C557 -9 678 218 678 424 C678 603 587 702 447 702 C236 702 113 477 113 268 C113 90 202 -9 343 -9 L343 -9 Z M344 10 C217 10 133 102 133 267 C133 461 249 683 446 683 C571 683 657 593 657 426 C657 232 542 10 344 10 L344 10 Z " />
<glyph glyph-name="one" unicode="1" horiz-adv-x="300" d="M312 695 L293 695 L275 604 L162 604 L159 586 L272 586 L161 18 L44 18 L41 0 L279 0 L282 18 L180 18 L312 695 Z " />
<glyph glyph-name="two" unicode="2" horiz-adv-x="490" d="M371 295 C466 383 537 459 537 558 C537 644 473 703 374 703 C275 703 197 654 149 554 L166 547 C209 636 287 684 373 684 C459 684 517 634 517 556 C517 463 450 393 359 308 L42 13 L39 0 L444 0 L448 19 L73 19 L371 295 Z " />
<glyph glyph-name="three" unicode="3" horiz-adv-x="518" d="M598 695 L192 695 L188 676 L567 676 L282 398 L278 380 L317 380 C418 380 486 315 486 208 C486 99 389 9 263 9 C154 9 83 69 77 145 L59 139 C65 58 141 -10 262 -10 C404 -10 507 90 507 212 C507 322 434 398 319 398 L307 398 L595 677 L598 695 Z " />
<glyph glyph-name="four" unicode="4" horiz-adv-x="539" d="M549 206 L449 206 L544 694 L525 694 L57 198 L55 188 L427 188 L390 0 L409 0 L446 188 L546 188 L549 206 Z M430 206 L89 206 L519 662 L430 206 Z " />
<glyph glyph-name="five" unicode="5" horiz-adv-x="508" d="M559 677 L563 695 L240 695 L164 387 L301 387 C414 387 484 322 484 216 C484 100 385 9 259 9 C157 9 88 63 82 148 L63 141 C71 49 146 -10 255 -10 C398 -10 505 88 505 214 C505 331 427 406 305 406 L187 406 L254 677 L559 677 Z " />
<glyph glyph-name="six" unicode="6" horiz-adv-x="525" d="M341 452 C307 452 275 446 235 429 L500 695 L473 695 L156 374 C106 323 76 253 76 179 C76 67 152 -10 272 -10 C430 -10 534 116 534 255 C534 373 459 452 341 452 L341 452 Z M275 9 C167 9 96 82 96 184 C96 306 193 433 339 433 C445 433 514 360 514 254 C514 130 416 9 275 9 L275 9 Z " />
<glyph glyph-name="seven" unicode="7" horiz-adv-x="440" d="M146 695 L142 677 L528 677 L135 0 L157 0 L549 677 L552 695 L146 695 Z " />
<glyph glyph-name="eight" unicode="8" horiz-adv-x="523" d="M394 375 C480 398 545 474 545 560 C545 643 483 702 390 702 C276 702 183 615 183 511 C183 447 219 396 277 376 C171 360 86 262 86 155 C86 53 163 -10 269 -10 C404 -10 506 93 506 215 C506 294 463 356 394 375 L394 375 Z M203 512 C203 605 288 683 388 683 C467 683 525 635 525 560 C525 465 434 385 336 385 C255 385 203 439 203 512 L203 512 Z M268 9 C173 9 106 62 106 155 C106 270 209 366 330 366 C427 366 486 306 486 215 C486 103 395 9 268 9 L268 9 Z " />
<glyph glyph-name="nine" unicode="9" horiz-adv-x="522" d="M385 705 C227 705 123 579 123 440 C123 322 198 243 316 243 C350 243 382 249 422 266 L157 0 L184 0 L501 321 C551 372 581 442 581 516 C581 628 505 705 385 705 L385 705 Z M318 262 C212 262 143 335 143 441 C143 565 241 686 382 686 C490 686 561 613 561 511 C561 389 464 262 318 262 L318 262 Z " />
<glyph glyph-name="colon" unicode="&#x3a;" horiz-adv-x="200" d="M176 385 C195 385 210 399 210 419 C210 436 198 447 182 447 C163 447 148 433 148 413 C148 396 160 385 176 385 L176 385 Z M99 -9 C118 -9 133 5 133 25 C133 42 121 53 105 53 C86 53 71 39 71 19 C71 2 83 -9 99 -9 L99 -9 Z " />
<glyph glyph-name="semicolon" unicode="&#x3b;" horiz-adv-x="203" d="M182 447 C163 447 148 433 148 413 C148 396 160 385 176 385 C195 385 210 399 210 419 C210 436 198 447 182 447 L182 447 Z M104 53 C86 53 71 39 71 19 C71 2 83 -9 99 -9 L50 -82 L71 -82 L114 -21 C130 2 134 11 134 25 C134 41 122 53 104 53 L104 53 Z " />
<glyph glyph-name="less" unicode="&#x3c;" horiz-adv-x="383" d="M427 502 L89 291 L84 267 L340 56 L344 76 L105 277 L423 478 L427 502 Z " />
<glyph glyph-name="equal" unicode="&#x3d;" horiz-adv-x="463" d="M106 390 L506 390 L510 408 L110 408 L106 390 Z M60 153 L460 153 L464 171 L64 171 L60 153 Z " />
<glyph glyph-name="greater" unicode="&#x3e;" horiz-adv-x="383" d="M149 502 L145 482 L384 281 L66 80 L62 56 L400 267 L405 291 L149 502 Z " />
<glyph glyph-name="question" unicode="&#x3f;" horiz-adv-x="401" d="M183 173 L203 173 L212 219 C252 426 480 443 480 612 C480 698 421 741 340 741 C246 741 177 682 144 591 L162 586 C193 664 252 722 340 722 C409 722 460 686 460 610 C460 453 239 445 193 222 L183 173 Z M165 -9 C184 -9 199 5 199 25 C199 42 187 53 171 53 C152 53 137 39 137 19 C137 2 149 -9 165 -9 L165 -9 Z " />
<glyph glyph-name="at" unicode="&#x40;" horiz-adv-x="751" d="M470 576 C258 576 84 396 84 178 C84 6 197 -105 372 -105 C465 -105 534 -76 588 -13 L576 -1 C527 -57 457 -87 374 -87 C211 -87 102 19 102 178 C102 381 272 558 467 558 C625 558 734 449 734 292 C734 175 679 92 601 92 C566 92 549 107 549 136 C549 144 550 150 555 174 L599 402 L581 402 L563 305 C550 368 501 408 431 408 C330 408 246 319 246 212 C246 125 302 64 384 64 C445 64 500 100 533 154 C531 143 531 141 531 135 C531 96 557 74 601 74 C689 74 752 166 752 294 C752 464 640 576 470 576 L470 576 Z M385 81 C314 81 265 134 265 212 C265 310 340 391 432 391 C504 391 552 343 552 269 C552 169 474 81 385 81 L385 81 Z " />
<glyph glyph-name="A" unicode="A" horiz-adv-x="578" d="M542 0 L561 0 L433 695 L412 695 L14 0 L36 0 L179 251 L496 251 L542 0 Z M189 269 L419 671 L493 269 L189 269 Z " />
<glyph glyph-name="B" unicode="B" horiz-adv-x="590" d="M453 364 C549 384 618 453 618 552 C618 634 566 695 459 695 L230 695 L95 0 L327 0 C483 0 577 78 577 202 C577 284 529 344 453 364 L453 364 Z M246 677 L457 677 C556 677 599 622 599 549 C599 447 510 375 402 375 L187 375 L246 677 Z M330 18 L118 18 L184 356 L396 356 C496 356 558 293 558 200 C558 90 471 18 330 18 L330 18 Z " />
<glyph glyph-name="C" unicode="C" horiz-adv-x="703" d="M388 -10 C540 -10 630 60 705 204 L687 213 C615 74 529 9 390 9 C233 9 129 120 129 277 C129 489 273 686 486 686 C627 686 710 601 733 486 L753 491 C731 611 638 705 490 705 C262 705 109 500 109 275 C109 109 222 -10 388 -10 L388 -10 Z " />
<glyph glyph-name="D" unicode="D" horiz-adv-x="691" d="M435 695 L230 695 L95 0 L330 0 C540 0 712 182 712 404 C712 580 603 695 435 695 L435 695 Z M333 18 L118 18 L245 677 L432 677 C590 677 692 569 692 403 C692 195 527 18 333 18 L333 18 Z " />
<glyph glyph-name="E" unicode="E" horiz-adv-x="530" d="M615 677 L618 695 L230 695 L95 0 L490 0 L493 18 L118 18 L184 357 L523 357 L527 375 L187 375 L246 677 L615 677 Z " />
<glyph glyph-name="F" unicode="F" horiz-adv-x="509" d="M615 677 L618 695 L230 695 L95 0 L114 0 L183 357 L522 357 L526 375 L187 375 L246 677 L615 677 Z " />
<glyph glyph-name="G" unicode="G" horiz-adv-x="742" d="M762 347 L440 347 L437 329 L738 329 C693 130 564 9 393 9 C232 9 129 117 129 286 C129 505 290 686 486 686 C620 686 715 610 736 486 L756 491 C733 622 630 705 489 705 C280 705 109 516 109 285 C109 105 220 -10 392 -10 C580 -10 720 125 762 347 L762 347 Z " />
<glyph glyph-name="H" unicode="H" horiz-adv-x="661" d="M679 695 L617 375 L187 375 L249 695 L230 695 L95 0 L114 0 L183 357 L613 357 L544 0 L563 0 L698 695 L679 695 Z " />
<glyph glyph-name="I" unicode="I" horiz-adv-x="212" d="M95 0 L114 0 L249 695 L230 695 L95 0 Z " />
<glyph glyph-name="J" unicode="J" horiz-adv-x="304" d="M11 0 L61 0 C155 0 223 60 242 159 L346 695 L327 695 L223 159 C206 72 145 17 63 17 L14 17 L11 0 Z " />
<glyph glyph-name="K" unicode="K" horiz-adv-x="561" d="M653 695 L620 695 L187 375 L249 695 L230 695 L95 0 L114 0 L184 359 L539 0 L567 0 L204 365 L653 695 Z " />
<glyph glyph-name="L" unicode="L" horiz-adv-x="499" d="M118 18 L249 695 L230 695 L95 0 L484 0 L487 18 L118 18 Z " />
<glyph glyph-name="M" unicode="M" horiz-adv-x="788" d="M784 695 L403 62 L271 695 L252 695 L75 0 L94 0 L261 654 L389 33 L407 33 L778 649 L691 0 L710 0 L803 695 L784 695 Z " />
<glyph glyph-name="N" unicode="N" horiz-adv-x="661" d="M679 695 L550 35 L247 695 L230 695 L95 0 L114 0 L243 661 L546 0 L563 0 L698 695 L679 695 Z " />
<glyph glyph-name="O" unicode="O" horiz-adv-x="761" d="M394 -10 C607 -10 782 177 782 404 C782 585 668 705 497 705 C285 705 109 518 109 292 C109 110 223 -10 394 -10 L394 -10 Z M395 9 C235 9 129 123 129 293 C129 507 296 686 496 686 C656 686 762 572 762 402 C762 188 594 9 395 9 L395 9 Z " />
<glyph glyph-name="P" unicode="P" horiz-adv-x="557" d="M442 695 L230 695 L95 0 L114 0 L177 325 L386 325 C528 325 625 409 625 532 C625 635 558 695 442 695 L442 695 Z M390 344 L181 344 L246 677 L441 677 C546 677 605 625 605 533 C605 422 516 344 390 344 L390 344 Z " />
<glyph glyph-name="Q" unicode="Q" horiz-adv-x="784" d="M782 404 C782 585 668 705 497 705 C285 705 109 518 109 292 C109 110 223 -10 394 -10 C444 -10 492 0 536 19 L691 -135 L703 -121 L554 27 C688 93 782 238 782 404 L782 404 Z M129 293 C129 507 296 686 496 686 C656 686 762 572 762 402 C762 188 594 9 395 9 C235 9 129 123 129 293 L129 293 Z " />
<glyph glyph-name="R" unicode="R" horiz-adv-x="565" d="M626 539 C626 636 559 695 443 695 L230 695 L95 0 L114 0 L180 338 L274 338 L493 0 L518 0 L296 338 L387 338 C529 338 626 422 626 539 L626 539 Z M246 677 L442 677 C547 677 606 625 606 539 C606 434 517 356 391 356 L183 356 L246 677 Z " />
<glyph glyph-name="S" unicode="S" horiz-adv-x="501" d="M265 -7 C401 -7 487 64 487 178 C487 389 188 358 188 535 C188 624 265 685 376 685 C467 685 525 642 533 568 L552 574 C542 654 477 704 376 704 C252 704 168 634 168 533 C168 342 467 372 467 175 C467 75 389 12 267 12 C156 12 86 64 81 150 L62 144 C70 49 145 -7 265 -7 L265 -7 Z " />
<glyph glyph-name="T" unicode="T" horiz-adv-x="498" d="M618 695 L147 695 L144 677 L370 677 L238 0 L257 0 L389 677 L615 677 L618 695 Z " />
<glyph glyph-name="U" unicode="U" horiz-adv-x="648" d="M331 -10 C476 -10 573 77 603 235 L692 695 L673 695 L584 236 C556 92 464 8 335 8 C199 8 128 106 157 256 L242 695 L223 695 L138 255 C108 99 187 -10 331 -10 L331 -10 Z " />
<glyph glyph-name="V" unicode="V" horiz-adv-x="581" d="M673 695 L288 22 L162 695 L143 695 L274 0 L295 0 L695 695 L673 695 Z " />
<glyph glyph-name="W" unicode="W" horiz-adv-x="807" d="M894 695 L608 39 L547 695 L528 695 L210 41 L179 695 L160 695 L194 0 L210 0 L532 662 L594 0 L611 0 L914 695 L894 695 Z " />
<glyph glyph-name="X" unicode="X" horiz-adv-x="564" d="M675 696 L650 696 L353 371 L177 696 L156 696 L340 357 L7 0 L33 0 L348 341 L533 0 L554 0 L362 355 L675 696 Z " />
<glyph glyph-name="Y" unicode="Y" horiz-adv-x="559" d="M678 695 L653 695 L337 309 L170 695 L149 695 L324 292 L268 0 L287 0 L343 289 L678 695 Z " />
<glyph glyph-name="Z" unicode="Z" horiz-adv-x="500" d="M604 695 L168 695 L165 677 L576 677 L24 16 L21 0 L478 0 L481 18 L50 18 L601 678 L604 695 Z " />
<glyph glyph-name="bracketleft" unicode="&#x5b;" horiz-adv-x="258" d="M378 725 L382 745 L238 745 L76 -89 L220 -89 L224 -69 L100 -69 L254 725 L378 725 Z " />
<glyph glyph-name="backslash" unicode="&#x5c;" horiz-adv-x="295" d="M219 -50 L240 -50 L201 711 L181 711 L219 -50 Z " />
<glyph glyph-name="bracketright" unicode="&#x5d;" horiz-adv-x="258" d="M163 745 L159 725 L283 725 L129 -69 L5 -69 L1 -89 L145 -89 L307 745 L163 745 Z " />
<glyph glyph-name="asciicircum" unicode="&#x5e;" horiz-adv-x="391" d="M418 396 L324 643 L306 643 L125 396 L149 396 L312 621 L398 396 L418 396 Z " />
<glyph glyph-name="underscore" unicode="&#x5f;" horiz-adv-x="426" d="M13 -44 L392 -44 L395 -26 L16 -26 L13 -44 Z " />
<glyph glyph-name="grave" unicode="&#x60;" horiz-adv-x="233" d="M330 620 L339 634 L169 741 L159 726 L330 620 Z " />
<glyph glyph-name="a" unicode="a" horiz-adv-x="629" d="M624 527 L592 361 C577 471 505 537 392 537 C222 537 91 388 91 216 C91 81 171 -10 301 -10 C409 -10 499 53 549 143 L522 0 L541 0 L643 527 L624 527 Z M302 8 C183 8 110 94 110 217 C110 377 234 519 392 519 C509 519 579 442 579 318 C579 154 458 8 302 8 L302 8 Z " />
<glyph glyph-name="b" unicode="b" horiz-adv-x="629" d="M428 537 C318 537 229 474 179 385 L245 731 L226 731 L85 0 L104 0 L136 163 C151 55 226 -10 332 -10 C516 -10 637 147 637 314 C637 450 552 537 428 537 L428 537 Z M335 8 C221 8 149 86 149 209 C149 366 264 519 426 519 C540 519 618 437 618 312 C618 162 506 8 335 8 L335 8 Z " />
<glyph glyph-name="c" unicode="c" horiz-adv-x="556" d="M308 -10 C415 -10 495 40 549 146 L531 153 C484 57 404 8 310 8 C187 8 110 98 110 220 C110 374 232 519 391 519 C491 519 559 462 568 375 L588 380 C577 477 500 537 392 537 C221 537 91 387 91 218 C91 85 173 -10 308 -10 L308 -10 Z " />
<glyph glyph-name="d" unicode="d" horiz-adv-x="629" d="M664 731 L593 364 C577 472 504 537 392 537 C222 537 91 388 91 216 C91 81 171 -10 301 -10 C409 -10 498 52 549 141 L522 0 L541 0 L683 731 L664 731 Z M302 8 C183 8 110 94 110 217 C110 377 234 519 392 519 C509 519 579 442 579 318 C579 154 458 8 302 8 L302 8 Z " />
<glyph glyph-name="e" unicode="e" horiz-adv-x="574" d="M391 537 C223 537 91 394 91 211 C91 83 180 -10 304 -10 C417 -10 494 39 549 146 L531 153 C484 59 407 8 308 8 C194 8 110 95 110 214 C110 229 111 244 113 259 L577 259 C581 273 587 318 587 338 C587 457 508 537 391 537 L391 537 Z M116 277 C143 414 256 519 389 519 C498 519 568 447 568 336 C568 321 566 295 562 277 L116 277 Z " />
<glyph glyph-name="f" unicode="f" horiz-adv-x="305" d="M403 731 C315 731 251 679 230 572 L221 527 L112 527 L109 509 L218 509 L119 0 L138 0 L237 509 L396 509 L399 527 L240 527 L249 572 C268 668 328 713 401 713 L439 713 L442 731 L403 731 Z " />
<glyph glyph-name="g" unicode="g" horiz-adv-x="629" d="M626 527 L593 361 C578 470 505 537 392 537 C222 537 91 388 91 216 C91 81 171 -10 301 -10 C411 -10 501 55 552 147 L535 57 C505 -94 411 -171 273 -171 C163 -171 89 -117 79 -16 L61 -20 C72 -130 155 -189 271 -189 C426 -189 522 -104 554 57 L645 527 L626 527 Z M302 8 C183 8 110 94 110 217 C110 377 234 519 392 519 C509 519 579 442 579 318 C579 154 458 8 302 8 L302 8 Z " />
<glyph glyph-name="h" unicode="h" horiz-adv-x="598" d="M404 537 C298 537 217 477 182 401 L246 731 L227 731 L85 0 L104 0 L168 330 C191 437 287 519 402 519 C519 519 585 447 559 313 L499 0 L518 0 L579 313 C607 457 531 537 404 537 L404 537 Z " />
<glyph glyph-name="i" unicode="i" horiz-adv-x="197" d="M222 645 C244 645 264 663 264 686 C264 704 252 718 232 718 C210 718 190 700 190 677 C190 659 202 645 222 645 L222 645 Z M85 0 L104 0 L206 527 L187 527 L85 0 Z " />
<glyph glyph-name="j" unicode="j" horiz-adv-x="197" d="M222 644 C244 644 264 662 264 685 C264 703 252 717 232 717 C210 717 190 699 190 676 C190 658 202 644 222 644 L222 644 Z M-91 -179 L-78 -179 C10 -179 80 -120 100 -17 L205 527 L186 527 L81 -17 C64 -104 1 -160 -74 -160 L-87 -160 L-91 -179 Z " />
<glyph glyph-name="k" unicode="k" horiz-adv-x="459" d="M546 527 L512 527 L161 295 L246 731 L227 731 L85 0 L104 0 L159 284 L430 0 L456 0 L181 287 L546 527 Z " />
<glyph glyph-name="l" unicode="l" horiz-adv-x="192" d="M85 0 L104 0 L246 731 L227 731 L85 0 Z " />
<glyph glyph-name="m" unicode="m" horiz-adv-x="971" d="M787 537 C682 537 598 468 564 382 C562 484 494 537 394 537 C296 537 217 477 182 401 L206 527 L187 527 L85 0 L104 0 L168 330 C191 437 286 519 392 519 C499 519 566 454 541 323 L479 0 L498 0 L561 323 C582 435 678 519 785 519 C892 519 959 454 934 323 L872 0 L891 0 L954 323 C981 464 904 537 787 537 L787 537 Z " />
<glyph glyph-name="n" unicode="n" horiz-adv-x="598" d="M404 537 C298 537 217 477 182 401 L206 527 L187 527 L85 0 L104 0 L168 330 C191 437 287 519 402 519 C519 519 585 447 559 313 L499 0 L518 0 L579 313 C607 457 531 537 404 537 L404 537 Z " />
<glyph glyph-name="o" unicode="o" horiz-adv-x="604" d="M311 -10 C487 -10 612 143 612 310 C612 448 527 537 393 537 C218 537 91 384 91 216 C91 78 177 -10 311 -10 L311 -10 Z M313 8 C191 8 110 92 110 218 C110 370 229 519 392 519 C514 519 593 436 593 310 C593 156 474 8 313 8 L313 8 Z " />
<glyph glyph-name="p" unicode="p" horiz-adv-x="629" d="M425 537 C322 537 231 476 179 385 L206 527 L187 527 L50 -179 L69 -179 L136 166 C151 56 224 -10 336 -10 C501 -10 637 135 637 312 C637 448 554 537 425 537 L425 537 Z M338 8 C222 8 149 85 149 209 C149 377 274 519 423 519 C541 519 618 437 618 312 C618 146 491 8 338 8 L338 8 Z " />
<glyph glyph-name="q" unicode="q" horiz-adv-x="629" d="M624 527 L592 361 C578 471 505 537 392 537 C222 537 91 388 91 216 C91 81 171 -10 301 -10 C409 -10 499 53 549 143 L487 -179 L506 -179 L643 527 L624 527 Z M302 8 C183 8 110 94 110 217 C110 377 234 519 392 519 C509 519 579 442 579 318 C579 154 458 8 302 8 L302 8 Z " />
<glyph glyph-name="r" unicode="r" horiz-adv-x="301" d="M182 401 L206 527 L187 527 L85 0 L104 0 L168 333 C187 425 278 517 385 519 L388 537 C291 537 214 470 182 401 L182 401 Z " />
<glyph glyph-name="s" unicode="s" horiz-adv-x="444" d="M234 -10 C343 -10 433 41 433 138 C433 308 155 253 155 402 C155 473 219 519 309 519 C380 519 434 491 446 430 L465 437 C454 498 396 537 309 537 C205 537 136 483 136 401 C136 237 413 292 413 136 C413 53 335 8 237 8 C148 8 77 45 70 112 L53 106 C63 33 135 -10 234 -10 L234 -10 Z " />
<glyph glyph-name="t" unicode="t" horiz-adv-x="322" d="M266 0 L321 0 L325 18 L270 18 C185 18 143 71 162 166 L229 509 L409 509 L412 527 L232 527 L258 658 L241 658 L223 567 C218 540 205 527 176 527 L113 527 L110 509 L210 509 L143 166 C123 64 172 0 266 0 L266 0 Z " />
<glyph glyph-name="u" unicode="u" horiz-adv-x="587" d="M583 527 L519 197 C496 90 400 8 290 8 C178 8 112 80 138 214 L198 527 L179 527 L118 214 C90 70 166 -10 288 -10 C390 -10 470 50 505 126 L481 0 L500 0 L602 527 L583 527 Z " />
<glyph glyph-name="v" unicode="v" horiz-adv-x="505" d="M568 527 L254 26 L135 527 L115 527 L243 0 L259 0 L591 527 L568 527 Z " />
<glyph glyph-name="w" unicode="w" horiz-adv-x="717" d="M774 527 L539 28 L470 527 L447 527 L182 27 L142 527 L123 527 L168 0 L188 0 L454 502 L525 0 L545 0 L795 527 L774 527 Z " />
<glyph glyph-name="x" unicode="x" horiz-adv-x="465" d="M545 527 L519 527 L287 283 L143 527 L121 527 L272 271 L8 0 L34 0 L281 255 L431 0 L453 0 L296 268 L545 527 Z " />
<glyph glyph-name="y" unicode="y" horiz-adv-x="505" d="M568 527 L254 26 L135 527 L115 527 L242 5 L124 -179 L146 -179 L591 527 L568 527 Z " />
<glyph glyph-name="z" unicode="z" horiz-adv-x="427" d="M494 527 L139 527 L136 509 L465 509 L24 18 L21 0 L405 0 L408 18 L50 18 L491 509 L494 527 Z " />
<glyph glyph-name="braceleft" unicode="&#x7b;" horiz-adv-x="257" d="M211 -89 L216 -89 L220 -69 L215 -69 C159 -69 132 -22 146 51 L176 208 C195 307 131 326 116 328 C135 330 203 347 223 448 L256 615 C270 688 313 725 369 725 L374 725 L378 745 L373 745 C297 745 253 701 236 615 L203 448 C186 364 127 337 81 337 L71 337 L68 319 L78 319 C122 319 174 300 156 208 L126 51 C108 -43 157 -89 211 -89 L211 -89 Z " />
<glyph glyph-name="bar" unicode="&#x7c;" horiz-adv-x="209" d="M77 -80 L97 -80 L251 711 L231 711 L77 -80 Z " />
<glyph glyph-name="braceright" unicode="&#x7d;" horiz-adv-x="257" d="M4 -89 L9 -89 C85 -89 129 -45 146 41 L179 208 C196 292 255 319 301 319 L311 319 L314 337 L304 337 C260 337 208 356 226 448 L256 605 C274 699 225 745 171 745 L166 745 L162 725 L167 725 C223 725 250 678 236 605 L206 448 C187 349 251 330 266 328 C247 326 179 309 159 208 L126 41 C112 -32 69 -69 13 -69 L8 -69 L4 -89 Z " />
<glyph glyph-name="asciitilde" unicode="&#x7e;" horiz-adv-x="509" d="M400 246 C439 246 474 268 493 294 L480 306 C463 283 431 265 401 265 C324 265 303 322 215 322 C176 322 142 300 123 274 L136 262 C153 285 184 303 214 303 C291 303 312 246 400 246 L400 246 Z " />
<glyph glyph-name="uni00A0" unicode="&#xa0;" horiz-adv-x="248" d="" />
<glyph glyph-name="exclamdown" unicode="&#xa1;" horiz-adv-x="196" d="M192 475 C211 475 226 489 226 509 C226 526 214 537 198 537 C179 537 164 523 164 503 C164 486 176 475 192 475 L192 475 Z M49 -179 L74 -179 L176 355 L158 355 L49 -179 Z " />
<glyph glyph-name="cent" unicode="&#xa2;" horiz-adv-x="508" d="M371 553 C459 553 516 505 526 428 L544 433 C535 512 477 563 393 570 L410 661 L392 661 L375 571 L372 571 C221 571 107 439 107 290 C107 179 172 98 281 91 L264 0 L282 0 L299 90 C392 90 464 134 510 227 L494 233 C452 149 382 108 300 108 C192 108 126 185 126 292 C126 427 231 553 371 553 L371 553 Z " />
<glyph glyph-name="sterling" unicode="&#xa3;" horiz-adv-x="501" d="M410 671 C308 671 230 599 207 484 L179 338 L95 338 L92 320 L175 320 L113 0 L453 0 L456 18 L136 18 L194 320 L436 320 L439 338 L197 338 L225 481 C245 585 318 652 410 652 C488 652 539 606 547 526 L567 533 C559 617 497 671 410 671 L410 671 Z " />
<glyph glyph-name="currency" unicode="&#xa4;" horiz-adv-x="547" d="M544 367 C544 407 534 443 515 472 L587 532 L575 548 L503 488 C473 523 427 545 369 545 C312 545 262 525 222 492 L179 548 L164 535 L207 479 C157 431 127 362 127 294 C127 254 137 219 156 190 L83 129 L95 113 L168 173 C198 138 244 116 302 116 C358 116 409 136 448 169 L491 113 L506 126 L463 182 C514 230 544 299 544 367 L544 367 Z M146 294 C146 407 238 527 366 527 C460 527 525 462 525 367 C525 254 433 134 305 134 C211 134 146 199 146 294 L146 294 Z " />
<glyph glyph-name="yen" unicode="&#xa5;" horiz-adv-x="523" d="M620 661 L596 661 L315 296 L178 661 L157 661 L302 283 L168 283 L165 265 L300 265 L277 146 L141 146 L138 128 L274 128 L249 0 L268 0 L293 128 L428 128 L432 146 L296 146 L319 265 L455 265 L459 283 L328 283 L620 661 Z " />
<glyph glyph-name="brokenbar" unicode="&#xa6;" horiz-adv-x="209" d="M170 400 L190 400 L251 711 L231 711 L170 400 Z M77 -80 L97 -80 L157 231 L137 231 L77 -80 Z " />
<glyph glyph-name="section" unicode="&#xa7;" horiz-adv-x="464" d="M357 682 C423 682 477 654 489 593 L508 600 C497 661 439 700 357 700 C258 700 189 646 189 564 C189 507 220 476 261 454 C179 445 124 395 124 322 C124 158 383 213 383 57 C383 -26 305 -71 216 -71 C136 -71 71 -34 64 33 L47 27 C57 -46 123 -89 213 -89 C313 -89 403 -38 403 59 C403 110 380 141 347 163 C416 181 468 227 468 301 C468 471 208 416 208 565 C208 636 272 682 357 682 L357 682 Z M448 299 C448 232 396 187 329 173 C252 216 143 226 143 323 C143 392 204 440 286 442 C360 409 448 390 448 299 L448 299 Z " />
<glyph glyph-name="dieresis" unicode="&#xa8;" horiz-adv-x="277" d="M190 646 C211 646 230 664 230 684 C230 704 217 716 199 716 C178 716 159 698 159 678 C159 658 172 646 190 646 L190 646 Z M344 646 C365 646 384 664 384 684 C384 704 371 716 353 716 C332 716 313 698 313 678 C313 658 326 646 344 646 L344 646 Z " />
<glyph glyph-name="copyright" unicode="&#xa9;" horiz-adv-x="745" d="M384 -10 C588 -10 763 177 763 387 C763 551 649 671 487 671 C284 671 108 484 108 275 C108 110 222 -10 384 -10 L384 -10 Z M385 9 C234 9 128 123 128 276 C128 473 295 652 486 652 C637 652 743 538 743 385 C743 188 575 9 385 9 L385 9 Z M409 133 C486 133 544 169 583 246 L565 254 C531 184 478 152 410 152 C321 152 272 211 272 299 C272 410 354 509 469 509 C541 509 586 472 593 409 L611 415 C603 485 547 528 469 528 C346 528 252 420 252 298 C252 202 311 133 409 133 L409 133 Z " />
<glyph glyph-name="ordfeminine" unicode="&#xaa;" horiz-adv-x="380" d="M454 812 L438 731 C426 782 383 818 328 818 C239 818 168 735 168 645 C168 571 219 522 284 522 C339 522 384 553 412 597 L398 528 L415 528 L471 812 L454 812 Z M287 540 C229 540 186 583 186 646 C186 733 257 800 325 800 C388 800 427 756 427 694 C427 617 368 540 287 540 L287 540 Z " />
<glyph glyph-name="guillemotleft" unicode="&#xab;" horiz-adv-x="379" d="M255 419 L229 419 L95 256 L165 93 L188 93 L119 253 L255 419 Z M397 419 L371 419 L237 256 L307 93 L330 93 L261 253 L397 419 Z " />
<glyph glyph-name="logicalnot" unicode="&#xac;" horiz-adv-x="543" d="M531 348 L131 348 L127 329 L507 329 L470 138 L490 138 L531 348 Z " />
<glyph glyph-name="registered" unicode="&#xae;" horiz-adv-x="467" d="M365 728 C247 728 148 623 148 506 C148 413 212 346 308 346 C427 346 525 451 525 569 C525 661 461 728 365 728 L365 728 Z M309 363 C223 363 166 426 166 507 C166 614 256 711 364 711 C450 711 507 648 507 567 C507 460 417 363 309 363 L309 363 Z M369 657 L303 657 L260 433 L276 433 L297 541 L307 541 L376 433 L396 433 L326 541 L355 541 C400 541 430 566 430 604 C430 637 406 657 369 657 L369 657 Z M356 556 L300 556 L316 642 L368 642 C400 642 414 627 414 602 C414 574 391 556 356 556 L356 556 Z " />
<glyph glyph-name="macron" unicode="&#xaf;" horiz-adv-x="269" d="M159 672 L401 672 L404 690 L162 690 L159 672 Z " />
<glyph glyph-name="degree" unicode="&#xb0;" horiz-adv-x="332" d="M264 457 C338 457 399 517 399 591 C399 654 356 699 291 699 C217 699 156 639 156 565 C156 502 199 457 264 457 L264 457 Z M264 476 C213 476 177 513 177 565 C177 630 230 680 292 680 C342 680 378 643 378 591 C378 526 325 476 264 476 L264 476 Z " />
<glyph glyph-name="plusminus" unicode="&#xb1;" horiz-adv-x="463" d="M308 349 L348 555 L328 555 L288 349 L98 349 L94 331 L284 331 L241 111 L261 111 L304 331 L494 331 L498 349 L308 349 Z M39 45 L439 45 L443 63 L43 63 L39 45 Z " />
<glyph glyph-name="uni00B2" unicode="&#xb2;" horiz-adv-x="324" d="M281 482 C337 535 373 573 373 622 C373 669 337 699 290 699 C233 699 201 667 180 622 L197 616 C216 659 246 682 288 682 C327 682 354 658 354 620 C354 575 316 538 268 492 L128 359 L126 347 L327 347 L330 364 L156 364 L281 482 Z " />
<glyph glyph-name="uni00B3" unicode="&#xb3;" horiz-adv-x="315" d="M391 695 L193 695 L190 678 L363 678 L232 547 L230 533 L247 533 C299 533 330 505 330 458 C330 401 285 359 226 359 C180 359 148 385 144 424 L126 417 C129 375 173 342 225 342 C294 342 348 392 348 457 C348 511 313 545 256 547 L388 679 L391 695 Z " />
<glyph glyph-name="acute" unicode="&#xb4;" horiz-adv-x="185" d="M158 620 L352 726 L344 741 L151 634 L158 620 Z " />
<glyph glyph-name="paragraph" unicode="&#xb6;" horiz-adv-x="560" d="M593 695 L356 695 C217 695 123 601 123 484 C123 384 191 325 304 325 L377 325 L445 675 L498 675 L347 -100 L366 -100 L517 675 L570 675 L419 -100 L438 -100 L593 695 Z " />
<glyph glyph-name="periodcentered" unicode="&#xb7;" horiz-adv-x="200" d="M156 281 C176 281 191 297 191 315 C191 331 179 343 162 343 C143 343 128 328 128 310 C128 293 140 281 156 281 L156 281 Z " />
<glyph glyph-name="cedilla" unicode="&#xb8;" horiz-adv-x="227" d="M107 -63 L151 5 L132 5 L82 -71 L85 -79 L97 -79 C142 -79 168 -110 168 -149 C168 -189 133 -221 81 -221 C40 -221 16 -201 5 -181 L-10 -193 C3 -216 32 -239 80 -239 C143 -239 187 -199 187 -147 C187 -102 155 -65 107 -63 L107 -63 Z " />
<glyph glyph-name="uni00B9" unicode="&#xb9;" horiz-adv-x="254" d="M282 695 L264 695 L255 648 L187 648 L183 631 L251 631 L199 364 L129 364 L126 347 L274 347 L277 364 L217 364 L282 695 Z " />
<glyph glyph-name="ordmasculine" unicode="&#xba;" horiz-adv-x="363" d="M293 522 C384 522 453 599 453 690 C453 766 401 818 328 818 C239 818 168 740 168 649 C168 573 220 522 293 522 L293 522 Z M294 538 C232 538 186 583 186 651 C186 730 248 801 327 801 C389 801 435 756 435 688 C435 609 373 538 294 538 L294 538 Z " />
<glyph glyph-name="guillemotright" unicode="&#xbb;" horiz-adv-x="379" d="M169 419 L146 419 L215 259 L79 93 L105 93 L239 256 L169 419 Z M311 419 L288 419 L357 259 L221 93 L247 93 L381 256 L311 419 Z " />
<glyph glyph-name="onequarter" unicode="&#xbc;" horiz-adv-x="581" d="M625 695 L92 0 L113 0 L646 695 L625 695 Z M110 347 L258 347 L261 364 L201 364 L266 695 L248 695 L239 648 L171 648 L167 631 L235 631 L183 364 L113 364 L110 347 Z M580 348 L357 103 L355 91 L530 91 L512 0 L530 0 L548 91 L595 91 L598 108 L551 108 L598 348 L580 348 Z M385 108 L574 316 L534 108 L385 108 Z " />
<glyph glyph-name="onehalf" unicode="&#xbd;" horiz-adv-x="612" d="M620 695 L87 0 L108 0 L641 695 L620 695 Z M110 347 L258 347 L261 364 L201 364 L266 695 L248 695 L239 648 L171 648 L167 631 L235 631 L183 364 L113 364 L110 347 Z M563 135 C619 188 655 226 655 275 C655 322 619 352 572 352 C515 352 483 320 462 275 L479 269 C498 312 528 335 570 335 C609 335 636 311 636 273 C636 228 598 191 550 145 L410 12 L408 0 L609 0 L612 17 L438 17 L563 135 Z " />
<glyph glyph-name="threequarters" unicode="&#xbe;" horiz-adv-x="582" d="M637 695 L104 0 L125 0 L658 695 L637 695 Z M210 342 C279 342 333 392 333 457 C333 511 298 545 241 547 L373 679 L376 695 L178 695 L175 678 L348 678 L217 547 L215 533 L232 533 C284 533 315 505 315 458 C315 401 270 359 211 359 C165 359 133 385 129 424 L111 417 C114 375 158 342 210 342 L210 342 Z M573 348 L350 103 L348 91 L523 91 L505 0 L523 0 L541 91 L588 91 L591 108 L544 108 L591 348 L573 348 Z M378 108 L567 316 L527 108 L378 108 Z " />
<glyph glyph-name="questiondown" unicode="&#xbf;" horiz-adv-x="399" d="M329 475 C348 475 363 489 363 509 C363 526 351 537 335 537 C316 537 301 523 301 503 C301 486 313 475 329 475 L329 475 Z M160 -189 C254 -189 323 -130 356 -39 L338 -34 C307 -112 248 -170 160 -170 C91 -170 40 -134 40 -58 C40 99 261 107 311 329 L317 355 L297 355 L292 332 C248 126 20 109 20 -60 C20 -146 79 -189 160 -189 L160 -189 Z " />
<glyph glyph-name="Agrave" unicode="&#xc0;" horiz-adv-x="596" d="M557 792 L342 880 L335 864 L551 778 L557 792 Z M542 0 L561 0 L433 695 L412 695 L14 0 L36 0 L179 251 L496 251 L542 0 Z M189 269 L419 671 L493 269 L189 269 Z " />
<glyph glyph-name="Aacute" unicode="&#xc1;" horiz-adv-x="596" d="M576 864 L569 880 L353 792 L359 778 L576 864 Z M412 695 L14 0 L36 0 L179 251 L496 251 L542 0 L561 0 L433 695 L412 695 Z M189 269 L419 671 L493 269 L189 269 Z " />
<glyph glyph-name="Acircumflex" unicode="&#xc2;" horiz-adv-x="596" d="M462 863 L544 777 L565 777 L471 880 L455 880 L320 777 L346 777 L462 863 Z M412 695 L14 0 L36 0 L179 251 L496 251 L542 0 L561 0 L433 695 L412 695 Z M189 269 L419 671 L493 269 L189 269 Z " />
<glyph glyph-name="Atilde" unicode="&#xc3;" horiz-adv-x="596" d="M575 862 C562 828 543 808 512 808 C460 808 450 862 392 862 C351 862 327 834 312 797 L329 790 C341 824 359 844 389 844 C439 844 449 790 510 790 C552 790 576 816 590 855 L575 862 Z M412 695 L14 0 L36 0 L179 251 L496 251 L542 0 L561 0 L433 695 L412 695 Z M189 269 L419 671 L493 269 L189 269 Z " />
<glyph glyph-name="Adieresis" unicode="&#xc4;" horiz-adv-x="596" d="M369 795 C389 795 406 812 406 831 C406 850 395 861 378 861 C358 861 341 844 341 825 C341 806 352 795 369 795 L369 795 Z M526 795 C546 795 563 812 563 831 C563 850 552 861 535 861 C515 861 498 844 498 825 C498 806 509 795 526 795 L526 795 Z M412 695 L14 0 L36 0 L179 251 L496 251 L542 0 L561 0 L433 695 L412 695 Z M189 269 L419 671 L493 269 L189 269 Z " />
<glyph glyph-name="Aring" unicode="&#xc5;" horiz-adv-x="596" d="M442 742 C487 742 527 778 527 823 C527 861 502 890 462 890 C417 890 377 854 377 809 C377 771 402 742 442 742 L442 742 Z M461 873 C492 873 509 851 509 824 C509 786 477 759 443 759 C412 759 395 781 395 808 C395 846 427 873 461 873 L461 873 Z M542 0 L561 0 L433 695 L412 695 L14 0 L36 0 L179 251 L496 251 L542 0 Z M189 269 L419 671 L493 269 L189 269 Z " />
<glyph glyph-name="AE" unicode="&#xc6;" horiz-adv-x="873" d="M958 677 L961 695 L543 695 L-10 0 L12 0 L212 251 L488 251 L439 0 L833 0 L836 18 L462 18 L528 357 L866 357 L870 375 L531 375 L590 677 L958 677 Z M226 269 L551 677 L571 677 L491 269 L226 269 Z " />
<glyph glyph-name="Ccedilla" unicode="&#xc7;" horiz-adv-x="726" d="M487 686 C628 686 711 601 734 486 L754 491 C732 611 639 705 491 705 C263 705 110 500 110 275 C110 115 215 -1 370 -9 L330 -71 L333 -79 L345 -79 C390 -79 416 -110 416 -149 C416 -189 381 -221 329 -221 C288 -221 264 -201 253 -181 L238 -193 C251 -216 280 -239 328 -239 C391 -239 435 -199 435 -147 C435 -102 403 -65 355 -63 L389 -10 C541 -10 631 60 706 204 L688 213 C616 74 530 9 391 9 C234 9 130 120 130 277 C130 489 274 686 487 686 L487 686 Z " />
<glyph glyph-name="Egrave" unicode="&#xc8;" horiz-adv-x="547" d="M560 792 L345 880 L338 864 L554 778 L560 792 Z M615 677 L618 695 L230 695 L95 0 L490 0 L493 18 L118 18 L184 357 L523 357 L527 375 L187 375 L246 677 L615 677 Z " />
<glyph glyph-name="Eacute" unicode="&#xc9;" horiz-adv-x="547" d="M569 864 L562 880 L346 792 L352 778 L569 864 Z M615 677 L618 695 L230 695 L95 0 L490 0 L493 18 L118 18 L184 357 L523 357 L527 375 L187 375 L246 677 L615 677 Z " />
<glyph glyph-name="Ecircumflex" unicode="&#xca;" horiz-adv-x="547" d="M455 863 L537 777 L558 777 L464 880 L448 880 L313 777 L339 777 L455 863 Z M615 677 L618 695 L230 695 L95 0 L490 0 L493 18 L118 18 L184 357 L523 357 L527 375 L187 375 L246 677 L615 677 Z " />
<glyph glyph-name="Edieresis" unicode="&#xcb;" horiz-adv-x="547" d="M359 795 C379 795 396 812 396 831 C396 850 385 861 368 861 C348 861 331 844 331 825 C331 806 342 795 359 795 L359 795 Z M516 795 C536 795 553 812 553 831 C553 850 542 861 525 861 C505 861 488 844 488 825 C488 806 499 795 516 795 L516 795 Z M615 677 L618 695 L230 695 L95 0 L490 0 L493 18 L118 18 L184 357 L523 357 L527 375 L187 375 L246 677 L615 677 Z " />
<glyph glyph-name="Igrave" unicode="&#xcc;" horiz-adv-x="219" d="M364 778 L370 792 L155 880 L148 864 L364 778 Z M95 0 L114 0 L249 695 L230 695 L95 0 Z " />
<glyph glyph-name="Iacute" unicode="&#xcd;" horiz-adv-x="219" d="M172 778 L389 864 L382 880 L166 792 L172 778 Z M95 0 L114 0 L249 695 L230 695 L95 0 Z " />
<glyph glyph-name="Icircumflex" unicode="&#xce;" horiz-adv-x="219" d="M378 777 L284 880 L268 880 L133 777 L159 777 L275 863 L357 777 L378 777 Z M95 0 L114 0 L249 695 L230 695 L95 0 Z " />
<glyph glyph-name="Idieresis" unicode="&#xcf;" horiz-adv-x="219" d="M182 795 C202 795 219 812 219 831 C219 850 208 861 191 861 C171 861 154 844 154 825 C154 806 165 795 182 795 L182 795 Z M339 795 C359 795 376 812 376 831 C376 850 365 861 348 861 C328 861 311 844 311 825 C311 806 322 795 339 795 L339 795 Z M95 0 L114 0 L249 695 L230 695 L95 0 Z " />
<glyph glyph-name="Eth" unicode="&#xd0;" horiz-adv-x="716" d="M439 695 L234 695 L172 375 L78 375 L75 357 L168 357 L99 0 L334 0 C544 0 716 182 716 404 C716 580 607 695 439 695 L439 695 Z M337 18 L122 18 L187 357 L336 357 L339 375 L191 375 L249 677 L436 677 C594 677 696 569 696 403 C696 195 531 18 337 18 L337 18 Z " />
<glyph glyph-name="Ntilde" unicode="&#xd1;" horiz-adv-x="682" d="M423 844 C473 844 483 790 544 790 C586 790 610 816 624 855 L609 862 C596 828 577 808 546 808 C494 808 484 862 426 862 C385 862 361 834 346 797 L363 790 C375 824 393 844 423 844 L423 844 Z M679 695 L550 35 L247 695 L230 695 L95 0 L114 0 L243 661 L546 0 L563 0 L698 695 L679 695 Z " />
<glyph glyph-name="Ograve" unicode="&#xd2;" horiz-adv-x="784" d="M646 778 L652 792 L437 880 L430 864 L646 778 Z M394 -10 C607 -10 782 177 782 404 C782 585 668 705 497 705 C285 705 109 518 109 292 C109 110 223 -10 394 -10 L394 -10 Z M395 9 C235 9 129 123 129 293 C129 507 296 686 496 686 C656 686 762 572 762 402 C762 188 594 9 395 9 L395 9 Z " />
<glyph glyph-name="Oacute" unicode="&#xd3;" horiz-adv-x="784" d="M454 778 L671 864 L664 880 L448 792 L454 778 Z M394 -10 C607 -10 782 177 782 404 C782 585 668 705 497 705 C285 705 109 518 109 292 C109 110 223 -10 394 -10 L394 -10 Z M395 9 C235 9 129 123 129 293 C129 507 296 686 496 686 C656 686 762 572 762 402 C762 188 594 9 395 9 L395 9 Z " />
<glyph glyph-name="Ocircumflex" unicode="&#xd4;" horiz-adv-x="784" d="M551 863 L633 777 L654 777 L560 880 L544 880 L409 777 L435 777 L551 863 Z M497 705 C285 705 109 518 109 292 C109 110 223 -10 394 -10 C607 -10 782 177 782 404 C782 585 668 705 497 705 L497 705 Z M395 9 C235 9 129 123 129 293 C129 507 296 686 496 686 C656 686 762 572 762 402 C762 188 594 9 395 9 L395 9 Z " />
<glyph glyph-name="Otilde" unicode="&#xd5;" horiz-adv-x="784" d="M605 790 C647 790 671 816 685 855 L670 862 C657 828 638 808 607 808 C555 808 545 862 487 862 C446 862 422 834 407 797 L424 790 C436 824 454 844 484 844 C534 844 544 790 605 790 L605 790 Z M394 -10 C607 -10 782 177 782 404 C782 585 668 705 497 705 C285 705 109 518 109 292 C109 110 223 -10 394 -10 L394 -10 Z M395 9 C235 9 129 123 129 293 C129 507 296 686 496 686 C656 686 762 572 762 402 C762 188 594 9 395 9 L395 9 Z " />
<glyph glyph-name="Odieresis" unicode="&#xd6;" horiz-adv-x="784" d="M454 795 C474 795 491 812 491 831 C491 850 480 861 463 861 C443 861 426 844 426 825 C426 806 437 795 454 795 L454 795 Z M611 795 C631 795 648 812 648 831 C648 850 637 861 620 861 C600 861 583 844 583 825 C583 806 594 795 611 795 L611 795 Z M394 -10 C607 -10 782 177 782 404 C782 585 668 705 497 705 C285 705 109 518 109 292 C109 110 223 -10 394 -10 L394 -10 Z M395 9 C235 9 129 123 129 293 C129 507 296 686 496 686 C656 686 762 572 762 402 C762 188 594 9 395 9 L395 9 Z " />
<glyph glyph-name="multiply" unicode="&#xd7;" horiz-adv-x="463" d="M488 452 L476 467 L287 305 L163 465 L149 453 L273 293 L85 131 L96 116 L285 278 L409 117 L424 129 L299 290 L488 452 Z " />
<glyph glyph-name="Oslash" unicode="&#xd8;" horiz-adv-x="787" d="M816 684 L804 697 L715 612 C664 671 590 705 499 705 C287 705 111 518 111 292 C111 214 132 148 169 97 L78 11 L89 -3 L180 83 C230 24 305 -10 396 -10 C609 -10 784 177 784 404 C784 482 763 548 726 599 L816 684 Z M131 293 C131 507 298 686 498 686 C583 686 653 654 699 598 L184 111 C150 159 131 221 131 293 L131 293 Z M764 402 C764 188 596 9 397 9 C312 9 242 41 195 97 L710 584 C745 537 764 474 764 402 L764 402 Z " />
<glyph glyph-name="Ugrave" unicode="&#xd9;" horiz-adv-x="667" d="M580 778 L586 792 L371 880 L364 864 L580 778 Z M331 -10 C476 -10 573 77 603 235 L692 695 L673 695 L584 236 C556 92 464 8 335 8 C199 8 128 106 157 256 L242 695 L223 695 L138 255 C108 99 187 -10 331 -10 L331 -10 Z " />
<glyph glyph-name="Uacute" unicode="&#xda;" horiz-adv-x="667" d="M385 778 L602 864 L595 880 L379 792 L385 778 Z M331 -10 C476 -10 573 77 603 235 L692 695 L673 695 L584 236 C556 92 464 8 335 8 C199 8 128 106 157 256 L242 695 L223 695 L138 255 C108 99 187 -10 331 -10 L331 -10 Z " />
<glyph glyph-name="Ucircumflex" unicode="&#xdb;" horiz-adv-x="667" d="M485 863 L567 777 L588 777 L494 880 L478 880 L343 777 L369 777 L485 863 Z M673 695 L584 236 C556 92 464 8 335 8 C199 8 128 106 157 256 L242 695 L223 695 L138 255 C108 99 187 -10 331 -10 C476 -10 573 77 603 235 L692 695 L673 695 Z " />
<glyph glyph-name="Udieresis" unicode="&#xdc;" horiz-adv-x="667" d="M395 795 C415 795 432 812 432 831 C432 850 421 861 404 861 C384 861 367 844 367 825 C367 806 378 795 395 795 L395 795 Z M552 795 C572 795 589 812 589 831 C589 850 578 861 561 861 C541 861 524 844 524 825 C524 806 535 795 552 795 L552 795 Z M331 -10 C476 -10 573 77 603 235 L692 695 L673 695 L584 236 C556 92 464 8 335 8 C199 8 128 106 157 256 L242 695 L223 695 L138 255 C108 99 187 -10 331 -10 L331 -10 Z " />
<glyph glyph-name="Yacute" unicode="&#xdd;" horiz-adv-x="576" d="M558 864 L551 880 L335 792 L341 778 L558 864 Z M678 695 L653 695 L337 309 L170 695 L149 695 L324 292 L268 0 L287 0 L343 289 L678 695 Z " />
<glyph glyph-name="Thorn" unicode="&#xde;" horiz-adv-x="570" d="M424 540 L219 540 L249 695 L230 695 L95 0 L114 0 L147 170 L352 170 C477 170 569 242 591 355 C613 468 548 540 424 540 L424 540 Z M571 355 C552 255 472 189 356 189 L151 189 L215 522 L420 522 C538 522 590 455 571 355 L571 355 Z " />
<glyph glyph-name="germandbls" unicode="&#xdf;" horiz-adv-x="579" d="M348 -10 C480 -10 572 80 572 207 C572 310 511 382 428 396 C531 413 608 487 608 585 C608 674 547 741 433 741 C304 741 213 660 186 521 L85 0 L104 0 L205 521 C230 649 314 723 431 723 C531 723 589 665 589 587 C589 505 522 407 376 407 L372 384 C490 384 553 310 553 206 C553 95 475 8 347 8 C239 8 187 70 187 152 L170 145 C173 57 234 -10 348 -10 L348 -10 Z " />
<glyph glyph-name="agrave" unicode="&#xe0;" horiz-adv-x="648" d="M516 634 L346 741 L336 726 L507 620 L516 634 Z M624 527 L592 361 C577 471 505 537 392 537 C222 537 91 388 91 216 C91 81 171 -10 301 -10 C409 -10 499 53 549 143 L522 0 L541 0 L643 527 L624 527 Z M302 8 C183 8 110 94 110 217 C110 377 234 519 392 519 C509 519 579 442 579 318 C579 154 458 8 302 8 L302 8 Z " />
<glyph glyph-name="aacute" unicode="&#xe1;" horiz-adv-x="648" d="M549 726 L541 741 L348 634 L355 620 L549 726 Z M624 527 L592 361 C577 471 505 537 392 537 C222 537 91 388 91 216 C91 81 171 -10 301 -10 C409 -10 499 53 549 143 L522 0 L541 0 L643 527 L624 527 Z M302 8 C183 8 110 94 110 217 C110 377 234 519 392 519 C509 519 579 442 579 318 C579 154 458 8 302 8 L302 8 Z " />
<glyph glyph-name="acircumflex" unicode="&#xe2;" horiz-adv-x="648" d="M451 723 L536 620 L557 620 L460 741 L444 741 L300 620 L327 620 L451 723 Z M624 527 L592 361 C577 471 505 537 392 537 C222 537 91 388 91 216 C91 81 171 -10 301 -10 C409 -10 499 53 549 143 L522 0 L541 0 L643 527 L624 527 Z M302 8 C183 8 110 94 110 217 C110 377 234 519 392 519 C509 519 579 442 579 318 C579 154 458 8 302 8 L302 8 Z " />
<glyph glyph-name="atilde" unicode="&#xe3;" horiz-adv-x="648" d="M377 699 C427 699 437 645 498 645 C540 645 564 671 578 710 L563 717 C550 683 531 663 500 663 C448 663 438 717 380 717 C339 717 315 689 300 652 L317 645 C329 679 347 699 377 699 L377 699 Z M624 527 L592 361 C577 471 505 537 392 537 C222 537 91 388 91 216 C91 81 171 -10 301 -10 C409 -10 499 53 549 143 L522 0 L541 0 L643 527 L624 527 Z M302 8 C183 8 110 94 110 217 C110 377 234 519 392 519 C509 519 579 442 579 318 C579 154 458 8 302 8 L302 8 Z " />
<glyph glyph-name="adieresis" unicode="&#xe4;" horiz-adv-x="648" d="M358 646 C379 646 398 664 398 684 C398 704 385 716 367 716 C346 716 327 698 327 678 C327 658 340 646 358 646 L358 646 Z M512 646 C533 646 552 664 552 684 C552 704 539 716 521 716 C500 716 481 698 481 678 C481 658 494 646 512 646 L512 646 Z M624 527 L592 361 C577 471 505 537 392 537 C222 537 91 388 91 216 C91 81 171 -10 301 -10 C409 -10 499 53 549 143 L522 0 L541 0 L643 527 L624 527 Z M302 8 C183 8 110 94 110 217 C110 377 234 519 392 519 C509 519 579 442 579 318 C579 154 458 8 302 8 L302 8 Z " />
<glyph glyph-name="aring" unicode="&#xe5;" horiz-adv-x="648" d="M418 594 C463 594 503 630 503 675 C503 713 478 742 438 742 C393 742 353 706 353 661 C353 623 378 594 418 594 L418 594 Z M437 725 C468 725 485 703 485 676 C485 638 453 611 419 611 C388 611 371 633 371 660 C371 698 403 725 437 725 L437 725 Z M624 527 L592 361 C577 471 505 537 392 537 C222 537 91 388 91 216 C91 81 171 -10 301 -10 C409 -10 499 53 549 143 L522 0 L541 0 L643 527 L624 527 Z M302 8 C183 8 110 94 110 217 C110 377 234 519 392 519 C509 519 579 442 579 318 C579 154 458 8 302 8 L302 8 Z " />
<glyph glyph-name="ae" unicode="&#xe6;" horiz-adv-x="1053" d="M870 537 C759 537 665 474 614 378 L643 527 L624 527 L593 364 C577 472 504 537 392 537 C222 537 91 388 91 216 C91 81 171 -10 301 -10 C409 -10 498 52 549 141 L522 0 L541 0 L576 180 C589 68 669 -10 783 -10 C896 -10 973 39 1028 146 L1010 153 C963 59 886 8 787 8 C673 8 589 95 589 214 C589 229 590 244 592 259 L1056 259 C1060 273 1066 318 1066 338 C1066 457 987 537 870 537 L870 537 Z M302 8 C183 8 110 94 110 217 C110 377 234 519 392 519 C509 519 579 442 579 318 C579 154 458 8 302 8 L302 8 Z M595 277 C622 414 735 519 868 519 C977 519 1047 447 1047 336 C1047 321 1045 295 1041 277 L595 277 Z " />
<glyph glyph-name="ccedilla" unicode="&#xe7;" horiz-adv-x="573" d="M391 519 C491 519 559 462 568 375 L588 380 C577 477 500 537 392 537 C221 537 91 387 91 218 C91 91 166 -2 290 -9 L250 -71 L253 -79 L265 -79 C310 -79 336 -110 336 -149 C336 -189 301 -221 249 -221 C208 -221 184 -201 173 -181 L158 -193 C171 -216 200 -239 248 -239 C311 -239 355 -199 355 -147 C355 -102 323 -65 275 -63 L309 -10 C416 -10 495 40 549 146 L531 153 C484 57 404 8 310 8 C187 8 110 98 110 220 C110 374 232 519 391 519 L391 519 Z " />
<glyph glyph-name="egrave" unicode="&#xe8;" horiz-adv-x="592" d="M494 633 L324 740 L314 725 L485 619 L494 633 Z M391 537 C223 537 91 394 91 211 C91 83 180 -10 304 -10 C417 -10 494 39 549 146 L531 153 C484 59 407 8 308 8 C194 8 110 95 110 214 C110 229 111 244 113 259 L577 259 C581 273 587 318 587 338 C587 457 508 537 391 537 L391 537 Z M116 277 C143 414 256 519 389 519 C498 519 568 447 568 336 C568 321 566 295 562 277 L116 277 Z " />
<glyph glyph-name="eacute" unicode="&#xe9;" horiz-adv-x="592" d="M527 725 L519 740 L326 633 L333 619 L527 725 Z M391 537 C223 537 91 394 91 211 C91 83 180 -10 304 -10 C417 -10 494 39 549 146 L531 153 C484 59 407 8 308 8 C194 8 110 95 110 214 C110 229 111 244 113 259 L577 259 C581 273 587 318 587 338 C587 457 508 537 391 537 L391 537 Z M116 277 C143 414 256 519 389 519 C498 519 568 447 568 336 C568 321 566 295 562 277 L116 277 Z " />
<glyph glyph-name="ecircumflex" unicode="&#xea;" horiz-adv-x="592" d="M429 722 L514 619 L535 619 L438 740 L422 740 L278 619 L305 619 L429 722 Z M391 537 C223 537 91 394 91 211 C91 83 180 -10 304 -10 C417 -10 494 39 549 146 L531 153 C484 59 407 8 308 8 C194 8 110 95 110 214 C110 229 111 244 113 259 L577 259 C581 273 587 318 587 338 C587 457 508 537 391 537 L391 537 Z M116 277 C143 414 256 519 389 519 C498 519 568 447 568 336 C568 321 566 295 562 277 L116 277 Z " />
<glyph glyph-name="edieresis" unicode="&#xeb;" horiz-adv-x="592" d="M336 645 C357 645 376 663 376 683 C376 703 363 715 345 715 C324 715 305 697 305 677 C305 657 318 645 336 645 L336 645 Z M490 645 C511 645 530 663 530 683 C530 703 517 715 499 715 C478 715 459 697 459 677 C459 657 472 645 490 645 L490 645 Z M391 537 C223 537 91 394 91 211 C91 83 180 -10 304 -10 C417 -10 494 39 549 146 L531 153 C484 59 407 8 308 8 C194 8 110 95 110 214 C110 229 111 244 113 259 L577 259 C581 273 587 318 587 338 C587 457 508 537 391 537 L391 537 Z M116 277 C143 414 256 519 389 519 C498 519 568 447 568 336 C568 321 566 295 562 277 L116 277 Z " />
<glyph glyph-name="igrave" unicode="&#xec;" horiz-adv-x="197" d="M292 620 L301 634 L131 741 L121 726 L292 620 Z M85 0 L104 0 L206 527 L187 527 L85 0 Z " />
<glyph glyph-name="iacute" unicode="&#xed;" horiz-adv-x="197" d="M140 620 L334 726 L326 741 L133 634 L140 620 Z M85 0 L104 0 L206 527 L187 527 L85 0 Z " />
<glyph glyph-name="icircumflex" unicode="&#xee;" horiz-adv-x="197" d="M342 620 L245 741 L229 741 L85 620 L112 620 L236 723 L321 620 L342 620 Z M85 0 L104 0 L206 527 L187 527 L85 0 Z " />
<glyph glyph-name="idieresis" unicode="&#xef;" horiz-adv-x="197" d="M143 646 C164 646 183 664 183 684 C183 704 170 716 152 716 C131 716 112 698 112 678 C112 658 125 646 143 646 L143 646 Z M297 646 C318 646 337 664 337 684 C337 704 324 716 306 716 C285 716 266 698 266 678 C266 658 279 646 297 646 L297 646 Z M85 0 L104 0 L206 527 L187 527 L85 0 Z " />
<glyph glyph-name="eth" unicode="&#xf0;" horiz-adv-x="607" d="M438 706 L543 796 L529 808 L421 715 C364 744 298 759 224 759 L214 741 C284 741 349 727 404 700 L265 581 L278 569 L421 691 C526 633 594 524 599 374 C568 471 474 517 385 517 C222 517 89 383 89 213 C89 88 168 -10 309 -10 C486 -10 618 141 618 364 C618 521 549 641 438 706 L438 706 Z M312 8 C183 8 108 99 108 216 C108 378 231 499 382 499 C501 499 591 418 591 309 C591 150 466 8 312 8 L312 8 Z " />
<glyph glyph-name="ntilde" unicode="&#xf1;" horiz-adv-x="616" d="M359 698 C409 698 419 644 480 644 C522 644 546 670 560 709 L545 716 C532 682 513 662 482 662 C430 662 420 716 362 716 C321 716 297 688 282 651 L299 644 C311 678 329 698 359 698 L359 698 Z M404 537 C298 537 217 477 182 401 L206 527 L187 527 L85 0 L104 0 L168 330 C191 437 287 519 402 519 C519 519 585 447 559 313 L499 0 L518 0 L579 313 C607 457 531 537 404 537 L404 537 Z " />
<glyph glyph-name="ograve" unicode="&#xf2;" horiz-adv-x="623" d="M506 619 L515 633 L345 740 L335 725 L506 619 Z M311 -10 C487 -10 612 143 612 310 C612 448 527 537 393 537 C218 537 91 384 91 216 C91 78 177 -10 311 -10 L311 -10 Z M313 8 C191 8 110 92 110 218 C110 370 229 519 392 519 C514 519 593 436 593 310 C593 156 474 8 313 8 L313 8 Z " />
<glyph glyph-name="oacute" unicode="&#xf3;" horiz-adv-x="623" d="M348 619 L542 725 L534 740 L341 633 L348 619 Z M311 -10 C487 -10 612 143 612 310 C612 448 527 537 393 537 C218 537 91 384 91 216 C91 78 177 -10 311 -10 L311 -10 Z M313 8 C191 8 110 92 110 218 C110 370 229 519 392 519 C514 519 593 436 593 310 C593 156 474 8 313 8 L313 8 Z " />
<glyph glyph-name="ocircumflex" unicode="&#xf4;" horiz-adv-x="623" d="M440 722 L525 619 L546 619 L449 740 L433 740 L289 619 L316 619 L440 722 Z M393 537 C218 537 91 384 91 216 C91 78 177 -10 311 -10 C487 -10 612 143 612 310 C612 448 527 537 393 537 L393 537 Z M313 8 C191 8 110 92 110 218 C110 370 229 519 392 519 C514 519 593 436 593 310 C593 156 474 8 313 8 L313 8 Z " />
<glyph glyph-name="otilde" unicode="&#xf5;" horiz-adv-x="623" d="M487 644 C529 644 553 670 567 709 L552 716 C539 682 520 662 489 662 C437 662 427 716 369 716 C328 716 304 688 289 651 L306 644 C318 678 336 698 366 698 C416 698 426 644 487 644 L487 644 Z M311 -10 C487 -10 612 143 612 310 C612 448 527 537 393 537 C218 537 91 384 91 216 C91 78 177 -10 311 -10 L311 -10 Z M313 8 C191 8 110 92 110 218 C110 370 229 519 392 519 C514 519 593 436 593 310 C593 156 474 8 313 8 L313 8 Z " />
<glyph glyph-name="odieresis" unicode="&#xf6;" horiz-adv-x="623" d="M342 645 C363 645 382 663 382 683 C382 703 369 715 351 715 C330 715 311 697 311 677 C311 657 324 645 342 645 L342 645 Z M496 645 C517 645 536 663 536 683 C536 703 523 715 505 715 C484 715 465 697 465 677 C465 657 478 645 496 645 L496 645 Z M311 -10 C487 -10 612 143 612 310 C612 448 527 537 393 537 C218 537 91 384 91 216 C91 78 177 -10 311 -10 L311 -10 Z M313 8 C191 8 110 92 110 218 C110 370 229 519 392 519 C514 519 593 436 593 310 C593 156 474 8 313 8 L313 8 Z " />
<glyph glyph-name="divide" unicode="&#xf7;" horiz-adv-x="463" d="M317 433 C336 433 351 447 351 467 C351 484 339 495 323 495 C304 495 289 481 289 461 C289 444 301 433 317 433 L317 433 Z M86 287 L486 287 L490 305 L90 305 L86 287 Z M250 79 C269 79 284 93 284 113 C284 130 272 141 256 141 C237 141 222 127 222 107 C222 90 234 79 250 79 L250 79 Z " />
<glyph glyph-name="oslash" unicode="&#xf8;" horiz-adv-x="603" d="M669 496 L660 509 L576 444 C539 503 475 537 392 537 C217 537 90 384 90 216 C90 167 101 125 120 90 L45 32 L54 18 L129 76 C167 22 230 -10 310 -10 C486 -10 611 143 611 310 C611 356 602 396 584 430 L669 496 Z M109 218 C109 370 228 519 391 519 C467 519 527 487 560 432 L137 103 C119 135 109 174 109 218 L109 218 Z M592 310 C592 156 473 8 312 8 C239 8 181 38 146 89 L568 418 C584 387 592 351 592 310 L592 310 Z " />
<glyph glyph-name="ugrave" unicode="&#xf9;" horiz-adv-x="605" d="M489 634 L319 741 L309 726 L480 620 L489 634 Z M583 527 L519 197 C496 90 400 8 290 8 C178 8 112 80 138 214 L198 527 L179 527 L118 214 C90 70 166 -10 288 -10 C390 -10 470 50 505 126 L481 0 L500 0 L602 527 L583 527 Z " />
<glyph glyph-name="uacute" unicode="&#xfa;" horiz-adv-x="605" d="M523 726 L515 741 L322 634 L329 620 L523 726 Z M583 527 L519 197 C496 90 400 8 290 8 C178 8 112 80 138 214 L198 527 L179 527 L118 214 C90 70 166 -10 288 -10 C390 -10 470 50 505 126 L481 0 L500 0 L602 527 L583 527 Z " />
<glyph glyph-name="ucircumflex" unicode="&#xfb;" horiz-adv-x="605" d="M419 723 L504 620 L525 620 L428 741 L412 741 L268 620 L295 620 L419 723 Z M583 527 L519 197 C496 90 400 8 290 8 C178 8 112 80 138 214 L198 527 L179 527 L118 214 C90 70 166 -10 288 -10 C390 -10 470 50 505 126 L481 0 L500 0 L602 527 L583 527 Z " />
<glyph glyph-name="udieresis" unicode="&#xfc;" horiz-adv-x="605" d="M329 646 C350 646 369 664 369 684 C369 704 356 716 338 716 C317 716 298 698 298 678 C298 658 311 646 329 646 L329 646 Z M483 646 C504 646 523 664 523 684 C523 704 510 716 492 716 C471 716 452 698 452 678 C452 658 465 646 483 646 L483 646 Z M583 527 L519 197 C496 90 400 8 290 8 C178 8 112 80 138 214 L198 527 L179 527 L118 214 C90 70 166 -10 288 -10 C390 -10 470 50 505 126 L481 0 L500 0 L602 527 L583 527 Z " />
<glyph glyph-name="yacute" unicode="&#xfd;" horiz-adv-x="520" d="M486 726 L478 741 L285 634 L292 620 L486 726 Z M568 527 L254 26 L135 527 L115 527 L242 5 L124 -179 L146 -179 L591 527 L568 527 Z " />
<glyph glyph-name="thorn" unicode="&#xfe;" horiz-adv-x="629" d="M435 537 C328 537 231 471 176 370 L246 731 L227 731 L50 -179 L69 -179 L134 158 C149 56 221 -10 329 -10 C470 -10 601 107 631 263 C661 420 578 537 435 537 L435 537 Z M612 263 C584 118 462 8 334 8 C201 8 126 113 155 263 C184 413 300 519 433 519 C564 519 640 409 612 263 L612 263 Z " />
<glyph glyph-name="ydieresis" unicode="&#xff;" horiz-adv-x="520" d="M291 646 C312 646 331 664 331 684 C331 704 318 716 300 716 C279 716 260 698 260 678 C260 658 273 646 291 646 L291 646 Z M445 646 C466 646 485 664 485 684 C485 704 472 716 454 716 C433 716 414 698 414 678 C414 658 427 646 445 646 L445 646 Z M568 527 L254 26 L135 527 L115 527 L242 5 L124 -179 L146 -179 L591 527 L568 527 Z " />
<glyph glyph-name="Amacron" unicode="&#x100;" horiz-adv-x="596" d="M332 838 L329 820 L571 820 L574 838 L332 838 Z M412 695 L14 0 L36 0 L179 251 L496 251 L542 0 L561 0 L433 695 L412 695 Z M189 269 L419 671 L493 269 L189 269 Z " />
<glyph glyph-name="amacron" unicode="&#x101;" horiz-adv-x="648" d="M562 690 L320 690 L317 672 L559 672 L562 690 Z M624 527 L592 361 C577 471 505 537 392 537 C222 537 91 388 91 216 C91 81 171 -10 301 -10 C409 -10 499 53 549 143 L522 0 L541 0 L643 527 L624 527 Z M302 8 C183 8 110 94 110 217 C110 377 234 519 392 519 C509 519 579 442 579 318 C579 154 458 8 302 8 L302 8 Z " />
<glyph glyph-name="Abreve" unicode="&#x102;" horiz-adv-x="596" d="M446 777 C514 777 562 826 572 880 L554 880 C546 838 504 795 448 795 C389 795 364 838 372 880 L354 880 C344 830 378 777 446 777 L446 777 Z M412 695 L14 0 L36 0 L179 251 L496 251 L542 0 L561 0 L433 695 L412 695 Z M189 269 L419 671 L493 269 L189 269 Z " />
<glyph glyph-name="abreve" unicode="&#x103;" horiz-adv-x="648" d="M432 620 C516 620 557 687 567 741 L549 741 C541 699 506 638 434 638 C364 638 346 699 354 741 L336 741 C326 691 353 620 432 620 L432 620 Z M624 527 L592 361 C577 471 505 537 392 537 C222 537 91 388 91 216 C91 81 171 -10 301 -10 C409 -10 499 53 549 143 L522 0 L541 0 L643 527 L624 527 Z M302 8 C183 8 110 94 110 217 C110 377 234 519 392 519 C509 519 579 442 579 318 C579 154 458 8 302 8 L302 8 Z " />
<glyph glyph-name="Aogonek" unicode="&#x104;" horiz-adv-x="596" d="M489 -203 C458 -203 440 -187 440 -156 C440 -109 481 -70 528 -29 L561 0 L433 695 L412 695 L14 0 L36 0 L179 251 L496 251 L542 1 L518 -19 C477 -54 422 -100 422 -156 C422 -195 447 -220 487 -220 C518 -220 539 -208 558 -189 L548 -178 C533 -195 512 -203 489 -203 L489 -203 Z M189 269 L419 671 L493 269 L189 269 Z " />
<glyph glyph-name="aogonek" unicode="&#x105;" horiz-adv-x="648" d="M508 -29 L541 0 L643 527 L624 527 L592 361 C577 471 505 537 392 537 C222 537 91 388 91 216 C91 81 171 -10 301 -10 C409 -10 499 53 549 143 L522 2 L498 -19 C457 -54 402 -100 402 -156 C402 -195 427 -220 467 -220 C498 -220 519 -208 538 -189 L528 -178 C513 -195 492 -203 469 -203 C438 -203 420 -187 420 -156 C420 -109 461 -70 508 -29 L508 -29 Z M302 8 C183 8 110 94 110 217 C110 377 234 519 392 519 C509 519 579 442 579 318 C579 154 458 8 302 8 L302 8 Z " />
<glyph glyph-name="Cacute" unicode="&#x106;" horiz-adv-x="725" d="M433 778 L650 864 L643 880 L427 792 L433 778 Z M388 -10 C540 -10 630 60 705 204 L687 213 C615 74 529 9 390 9 C233 9 129 120 129 277 C129 489 273 686 486 686 C627 686 710 601 733 486 L753 491 C731 611 638 705 490 705 C262 705 109 500 109 275 C109 109 222 -10 388 -10 L388 -10 Z " />
<glyph glyph-name="cacute" unicode="&#x107;" horiz-adv-x="573" d="M354 620 L548 726 L540 741 L347 634 L354 620 Z M308 -10 C415 -10 495 40 549 146 L531 153 C484 57 404 8 310 8 C187 8 110 98 110 220 C110 374 232 519 391 519 C491 519 559 462 568 375 L588 380 C577 477 500 537 392 537 C221 537 91 387 91 218 C91 85 173 -10 308 -10 L308 -10 Z " />
<glyph glyph-name="Cdotaccent" unicode="&#x10a;" horiz-adv-x="725" d="M525 795 C545 795 561 812 561 830 C561 847 548 860 531 860 C511 860 495 844 495 825 C495 808 508 795 525 795 L525 795 Z M388 -10 C540 -10 630 60 705 204 L687 213 C615 74 529 9 390 9 C233 9 129 120 129 277 C129 489 273 686 486 686 C627 686 710 601 733 486 L753 491 C731 611 638 705 490 705 C262 705 109 500 109 275 C109 109 222 -10 388 -10 L388 -10 Z " />
<glyph glyph-name="cdotaccent" unicode="&#x10b;" horiz-adv-x="573" d="M415 645 C437 645 457 663 457 686 C457 704 445 718 425 718 C403 718 383 700 383 677 C383 659 395 645 415 645 L415 645 Z M308 -10 C415 -10 495 40 549 146 L531 153 C484 57 404 8 310 8 C187 8 110 98 110 220 C110 374 232 519 391 519 C491 519 559 462 568 375 L588 380 C577 477 500 537 392 537 C221 537 91 387 91 218 C91 85 173 -10 308 -10 L308 -10 Z " />
<glyph glyph-name="Ccaron" unicode="&#x10c;" horiz-adv-x="725" d="M525 777 L660 880 L634 880 L519 794 L436 880 L415 880 L509 777 L525 777 Z M486 686 C627 686 710 601 733 486 L753 491 C731 611 638 705 490 705 C262 705 109 500 109 275 C109 109 222 -10 388 -10 C540 -10 630 60 705 204 L687 213 C615 74 529 9 390 9 C233 9 129 120 129 277 C129 489 273 686 486 686 L486 686 Z " />
<glyph glyph-name="ccaron" unicode="&#x10d;" horiz-adv-x="573" d="M420 620 L565 741 L538 741 L413 637 L330 741 L308 741 L404 620 L420 620 Z M391 519 C491 519 559 462 568 375 L588 380 C577 477 500 537 392 537 C221 537 91 387 91 218 C91 85 173 -10 308 -10 C415 -10 495 40 549 146 L531 153 C484 57 404 8 310 8 C187 8 110 98 110 220 C110 374 232 519 391 519 L391 519 Z " />
<glyph glyph-name="Dcaron" unicode="&#x10e;" horiz-adv-x="712" d="M490 777 L625 880 L599 880 L484 794 L401 880 L380 880 L474 777 L490 777 Z M435 695 L230 695 L95 0 L330 0 C540 0 712 182 712 404 C712 580 603 695 435 695 L435 695 Z M333 18 L118 18 L245 677 L432 677 C590 677 692 569 692 403 C692 195 527 18 333 18 L333 18 Z " />
<glyph glyph-name="dcaron" unicode="&#x10f;" horiz-adv-x="656" d="M593 364 C577 472 504 537 392 537 C222 537 91 388 91 216 C91 81 171 -10 301 -10 C409 -10 498 52 549 141 L522 0 L541 0 L683 731 L664 731 L593 364 Z M800 731 L742 532 L759 532 L819 731 L800 731 Z M302 8 C183 8 110 94 110 217 C110 377 234 519 392 519 C509 519 579 442 579 318 C579 154 458 8 302 8 L302 8 Z " />
<glyph glyph-name="Dcroat" unicode="&#x110;" horiz-adv-x="716" d="M439 695 L234 695 L172 375 L78 375 L75 357 L168 357 L99 0 L334 0 C544 0 716 182 716 404 C716 580 607 695 439 695 L439 695 Z M337 18 L122 18 L187 357 L336 357 L339 375 L191 375 L249 677 L436 677 C594 677 696 569 696 403 C696 195 531 18 337 18 L337 18 Z " />
<glyph glyph-name="dcroat" unicode="&#x111;" horiz-adv-x="648" d="M753 629 L663 629 L683 731 L664 731 L644 629 L492 629 L489 611 L641 611 L593 364 C577 472 504 537 392 537 C222 537 91 388 91 216 C91 81 171 -10 301 -10 C409 -10 498 52 549 141 L522 0 L541 0 L660 611 L750 611 L753 629 Z M302 8 C183 8 110 94 110 217 C110 377 234 519 392 519 C509 519 579 442 579 318 C579 154 458 8 302 8 L302 8 Z " />
<glyph glyph-name="Emacron" unicode="&#x112;" horiz-adv-x="547" d="M572 838 L330 838 L327 820 L569 820 L572 838 Z M615 677 L618 695 L230 695 L95 0 L490 0 L493 18 L118 18 L184 357 L523 357 L527 375 L187 375 L246 677 L615 677 Z " />
<glyph glyph-name="emacron" unicode="&#x113;" horiz-adv-x="592" d="M540 689 L298 689 L295 671 L537 671 L540 689 Z M391 537 C223 537 91 394 91 211 C91 83 180 -10 304 -10 C417 -10 494 39 549 146 L531 153 C484 59 407 8 308 8 C194 8 110 95 110 214 C110 229 111 244 113 259 L577 259 C581 273 587 318 587 338 C587 457 508 537 391 537 L391 537 Z M116 277 C143 414 256 519 389 519 C498 519 568 447 568 336 C568 321 566 295 562 277 L116 277 Z " />
<glyph glyph-name="Edotaccent" unicode="&#x116;" horiz-adv-x="547" d="M439 795 C459 795 475 812 475 830 C475 847 462 860 445 860 C425 860 409 844 409 825 C409 808 422 795 439 795 L439 795 Z M615 677 L618 695 L230 695 L95 0 L490 0 L493 18 L118 18 L184 357 L523 357 L527 375 L187 375 L246 677 L615 677 Z " />
<glyph glyph-name="edotaccent" unicode="&#x117;" horiz-adv-x="592" d="M415 644 C437 644 457 662 457 685 C457 703 445 717 425 717 C403 717 383 699 383 676 C383 658 395 644 415 644 L415 644 Z M391 537 C223 537 91 394 91 211 C91 83 180 -10 304 -10 C417 -10 494 39 549 146 L531 153 C484 59 407 8 308 8 C194 8 110 95 110 214 C110 229 111 244 113 259 L577 259 C581 273 587 318 587 338 C587 457 508 537 391 537 L391 537 Z M116 277 C143 414 256 519 389 519 C498 519 568 447 568 336 C568 321 566 295 562 277 L116 277 Z " />
<glyph glyph-name="Eogonek" unicode="&#x118;" horiz-adv-x="547" d="M615 677 L618 695 L230 695 L95 0 L469 0 L447 -19 C406 -54 351 -100 351 -156 C351 -195 376 -220 416 -220 C447 -220 468 -208 487 -189 L477 -178 C462 -195 441 -203 418 -203 C387 -203 369 -187 369 -156 C369 -109 410 -70 457 -29 L490 0 L493 18 L118 18 L184 357 L523 357 L527 375 L187 375 L246 677 L615 677 Z " />
<glyph glyph-name="eogonek" unicode="&#x119;" horiz-adv-x="592" d="M391 537 C223 537 91 394 91 211 C91 83 180 -10 304 -10 C322 -10 340 -9 356 -6 L341 -19 C300 -54 245 -100 245 -156 C245 -195 270 -220 310 -220 C341 -220 362 -208 381 -189 L371 -178 C356 -195 335 -203 312 -203 C281 -203 263 -187 263 -156 C263 -109 304 -70 351 -29 L384 0 C455 19 508 66 549 146 L531 153 C484 59 407 8 308 8 C194 8 110 95 110 214 C110 229 111 244 113 259 L577 259 C581 273 587 318 587 338 C587 457 508 537 391 537 L391 537 Z M116 277 C143 414 256 519 389 519 C498 519 568 447 568 336 C568 321 566 295 562 277 L116 277 Z " />
<glyph glyph-name="Ecaron" unicode="&#x11a;" horiz-adv-x="547" d="M443 777 L578 880 L552 880 L437 794 L354 880 L333 880 L427 777 L443 777 Z M615 677 L618 695 L230 695 L95 0 L490 0 L493 18 L118 18 L184 357 L523 357 L527 375 L187 375 L246 677 L615 677 Z " />
<glyph glyph-name="ecaron" unicode="&#x11b;" horiz-adv-x="592" d="M413 619 L558 740 L531 740 L406 636 L323 740 L301 740 L397 619 L413 619 Z M391 537 C223 537 91 394 91 211 C91 83 180 -10 304 -10 C417 -10 494 39 549 146 L531 153 C484 59 407 8 308 8 C194 8 110 95 110 214 C110 229 111 244 113 259 L577 259 C581 273 587 318 587 338 C587 457 508 537 391 537 L391 537 Z M116 277 C143 414 256 519 389 519 C498 519 568 447 568 336 C568 321 566 295 562 277 L116 277 Z " />
<glyph glyph-name="Gbreve" unicode="&#x11e;" horiz-adv-x="765" d="M517 777 C585 777 633 826 643 880 L625 880 C617 838 575 795 519 795 C460 795 435 838 443 880 L425 880 C415 830 449 777 517 777 L517 777 Z M762 347 L440 347 L437 329 L738 329 C693 130 564 9 393 9 C232 9 129 117 129 286 C129 505 290 686 486 686 C620 686 715 610 736 486 L756 491 C733 622 630 705 489 705 C280 705 109 516 109 285 C109 105 220 -10 392 -10 C580 -10 720 125 762 347 L762 347 Z " />
<glyph glyph-name="gbreve" unicode="&#x11f;" horiz-adv-x="648" d="M428 620 C512 620 553 687 563 741 L545 741 C537 699 502 638 430 638 C360 638 342 699 350 741 L332 741 C322 691 349 620 428 620 L428 620 Z M626 527 L593 361 C578 470 505 537 392 537 C222 537 91 388 91 216 C91 81 171 -10 301 -10 C411 -10 501 55 552 147 L535 57 C505 -94 411 -171 273 -171 C163 -171 89 -117 79 -16 L61 -20 C72 -130 155 -189 271 -189 C426 -189 522 -104 554 57 L645 527 L626 527 Z M302 8 C183 8 110 94 110 217 C110 377 234 519 392 519 C509 519 579 442 579 318 C579 154 458 8 302 8 L302 8 Z " />
<glyph glyph-name="Gdotaccent" unicode="&#x120;" horiz-adv-x="765" d="M516 795 C536 795 552 812 552 830 C552 847 539 860 522 860 C502 860 486 844 486 825 C486 808 499 795 516 795 L516 795 Z M762 347 L440 347 L437 329 L738 329 C693 130 564 9 393 9 C232 9 129 117 129 286 C129 505 290 686 486 686 C620 686 715 610 736 486 L756 491 C733 622 630 705 489 705 C280 705 109 516 109 285 C109 105 220 -10 392 -10 C580 -10 720 125 762 347 L762 347 Z " />
<glyph glyph-name="gdotaccent" unicode="&#x121;" horiz-adv-x="648" d="M422 645 C444 645 464 663 464 686 C464 704 452 718 432 718 C410 718 390 700 390 677 C390 659 402 645 422 645 L422 645 Z M626 527 L593 361 C578 470 505 537 392 537 C222 537 91 388 91 216 C91 81 171 -10 301 -10 C411 -10 501 55 552 147 L535 57 C505 -94 411 -171 273 -171 C163 -171 89 -117 79 -16 L61 -20 C72 -130 155 -189 271 -189 C426 -189 522 -104 554 57 L645 527 L626 527 Z M302 8 C183 8 110 94 110 217 C110 377 234 519 392 519 C509 519 579 442 579 318 C579 154 458 8 302 8 L302 8 Z " />
<glyph glyph-name="uni0122" unicode="&#x122;" horiz-adv-x="765" d="M762 347 L440 347 L437 329 L738 329 C693 130 564 9 393 9 C232 9 129 117 129 286 C129 505 290 686 486 686 C620 686 715 610 736 486 L756 491 C733 622 630 705 489 705 C280 705 109 516 109 285 C109 105 220 -10 392 -10 C580 -10 720 125 762 347 L762 347 Z M371 -50 C351 -50 335 -68 335 -86 C335 -104 347 -115 363 -115 L366 -115 C364 -117 363 -120 361 -122 L309 -195 L323 -202 L375 -131 C392 -107 399 -93 399 -78 C399 -62 389 -50 371 -50 L371 -50 Z " />
<glyph glyph-name="uni0123" unicode="&#x123;" horiz-adv-x="648" d="M402 609 C422 609 438 627 438 645 C438 663 426 674 410 674 L407 674 C409 676 410 679 412 681 L464 754 L450 761 L398 690 C381 666 374 652 374 637 C374 621 384 609 402 609 L402 609 Z M626 527 L593 361 C578 470 505 537 392 537 C222 537 91 388 91 216 C91 81 171 -10 301 -10 C411 -10 501 55 552 147 L535 57 C505 -94 411 -171 273 -171 C163 -171 89 -117 79 -16 L61 -20 C72 -130 155 -189 271 -189 C426 -189 522 -104 554 57 L645 527 L626 527 Z M302 8 C183 8 110 94 110 217 C110 377 234 519 392 519 C509 519 579 442 579 318 C579 154 458 8 302 8 L302 8 Z " />
<glyph glyph-name="Hbar" unicode="&#x126;" horiz-adv-x="682" d="M735 552 L670 552 L698 695 L679 695 L651 552 L221 552 L249 695 L230 695 L202 552 L137 552 L134 534 L199 534 L95 0 L114 0 L183 357 L613 357 L544 0 L563 0 L667 534 L732 534 L735 552 Z M617 375 L187 375 L218 534 L648 534 L617 375 Z " />
<glyph glyph-name="hbar" unicode="&#x127;" horiz-adv-x="616" d="M404 537 C298 537 217 477 182 401 L223 611 L379 611 L382 629 L226 629 L246 731 L227 731 L207 629 L121 629 L118 611 L204 611 L85 0 L104 0 L168 330 C191 437 287 519 402 519 C519 519 585 447 559 313 L499 0 L518 0 L579 313 C607 457 531 537 404 537 L404 537 Z " />
<glyph glyph-name="Itilde" unicode="&#x128;" horiz-adv-x="219" d="M306 790 C339 790 359 816 370 855 L358 862 C347 828 332 808 307 808 C266 808 258 862 211 862 C179 862 159 834 147 797 L161 790 C171 824 185 844 209 844 C249 844 257 790 306 790 L306 790 Z M95 0 L114 0 L249 695 L230 695 L95 0 Z " />
<glyph glyph-name="itilde" unicode="&#x129;" horiz-adv-x="197" d="M273 645 C307 645 326 671 337 710 L325 717 C315 683 300 663 275 663 C233 663 225 717 179 717 C146 717 127 689 115 652 L129 645 C138 679 153 699 177 699 C217 699 225 645 273 645 L273 645 Z M85 0 L104 0 L206 527 L187 527 L85 0 Z " />
<glyph glyph-name="Imacron" unicode="&#x12a;" horiz-adv-x="219" d="M136 820 L329 820 L332 838 L138 838 L136 820 Z M95 0 L114 0 L249 695 L230 695 L95 0 Z " />
<glyph glyph-name="imacron" unicode="&#x12b;" horiz-adv-x="197" d="M124 672 L318 672 L320 690 L127 690 L124 672 Z M85 0 L104 0 L206 527 L187 527 L85 0 Z " />
<glyph glyph-name="Iogonek" unicode="&#x12e;" horiz-adv-x="219" d="M81 -29 L114 0 L249 695 L230 695 L95 2 L71 -19 C30 -54 -25 -100 -25 -156 C-25 -195 0 -220 40 -220 C71 -220 92 -208 111 -189 L101 -178 C86 -195 65 -203 42 -203 C11 -203 -7 -187 -7 -156 C-7 -109 34 -70 81 -29 L81 -29 Z " />
<glyph glyph-name="iogonek" unicode="&#x12f;" horiz-adv-x="200" d="M232 718 C210 718 190 700 190 677 C190 659 202 645 222 645 C244 645 264 663 264 686 C264 704 252 718 232 718 L232 718 Z M85 2 L61 -19 C20 -54 -35 -100 -35 -156 C-35 -195 -10 -220 30 -220 C61 -220 82 -208 101 -189 L91 -178 C76 -195 55 -203 32 -203 C1 -203 -17 -187 -17 -156 C-17 -109 24 -70 71 -29 L104 0 L206 527 L187 527 L85 2 Z " />
<glyph glyph-name="Idotaccent" unicode="&#x130;" horiz-adv-x="219" d="M265 795 C285 795 301 812 301 830 C301 847 288 860 271 860 C251 860 235 844 235 825 C235 808 248 795 265 795 L265 795 Z M95 0 L114 0 L249 695 L230 695 L95 0 Z " />
<glyph glyph-name="dotlessi" unicode="&#x131;" horiz-adv-x="192" d="M85 0 L104 0 L206 527 L187 527 L85 0 Z " />
<glyph glyph-name="IJ" unicode="&#x132;" horiz-adv-x="545" d="M95 0 L114 0 L249 695 L230 695 L95 0 Z M243 0 L293 0 C387 0 455 60 474 159 L578 695 L559 695 L455 159 C438 72 377 17 295 17 L246 17 L243 0 Z " />
<glyph glyph-name="ij" unicode="&#x133;" horiz-adv-x="399" d="M222 645 C244 645 264 663 264 686 C264 704 252 718 232 718 C210 718 190 700 190 677 C190 659 202 645 222 645 L222 645 Z M424 644 C446 644 466 662 466 685 C466 703 454 717 434 717 C412 717 392 699 392 676 C392 658 404 644 424 644 L424 644 Z M85 0 L104 0 L206 527 L187 527 L85 0 Z M111 -179 L124 -179 C212 -179 282 -120 302 -17 L407 527 L388 527 L283 -17 C266 -104 203 -160 128 -160 L115 -160 L111 -179 Z " />
<glyph glyph-name="uni0136" unicode="&#x136;" horiz-adv-x="578" d="M653 695 L620 695 L187 375 L249 695 L230 695 L95 0 L114 0 L184 359 L539 0 L567 0 L204 365 L653 695 Z M298 -50 C278 -50 262 -68 262 -86 C262 -104 274 -115 290 -115 L293 -115 C291 -117 290 -120 288 -122 L236 -195 L250 -202 L302 -131 C319 -107 326 -93 326 -78 C326 -62 316 -50 298 -50 L298 -50 Z " />
<glyph glyph-name="uni0137" unicode="&#x137;" horiz-adv-x="472" d="M546 527 L512 527 L161 295 L246 731 L227 731 L85 0 L104 0 L159 284 L430 0 L456 0 L181 287 L546 527 Z M253 -50 C233 -50 217 -68 217 -86 C217 -104 229 -115 245 -115 L248 -115 C246 -117 245 -120 243 -122 L191 -195 L205 -202 L257 -131 C274 -107 281 -93 281 -78 C281 -62 271 -50 253 -50 L253 -50 Z " />
<glyph glyph-name="kgreenlandic" unicode="&#x138;" horiz-adv-x="459" d="M547 527 L517 527 L157 276 L206 527 L187 527 L85 0 L104 0 L155 264 L428 0 L456 0 L178 269 L547 527 Z " />
<glyph glyph-name="Lacute" unicode="&#x139;" horiz-adv-x="515" d="M389 864 L382 880 L166 792 L172 778 L389 864 Z M118 18 L249 695 L230 695 L95 0 L484 0 L487 18 L118 18 Z " />
<glyph glyph-name="lacute" unicode="&#x13a;" horiz-adv-x="197" d="M161 814 L378 900 L371 916 L155 828 L161 814 Z M85 0 L104 0 L246 731 L227 731 L85 0 Z " />
<glyph glyph-name="uni013B" unicode="&#x13b;" horiz-adv-x="515" d="M118 18 L249 695 L230 695 L95 0 L484 0 L487 18 L118 18 Z M287 -50 C267 -50 251 -68 251 -86 C251 -104 263 -115 279 -115 L282 -115 C280 -117 279 -120 277 -122 L225 -195 L239 -202 L291 -131 C308 -107 315 -93 315 -78 C315 -62 305 -50 287 -50 L287 -50 Z " />
<glyph glyph-name="uni013C" unicode="&#x13c;" horiz-adv-x="197" d="M246 731 L227 731 L85 0 L104 0 L246 731 Z M85 -50 C65 -50 49 -68 49 -86 C49 -104 61 -115 77 -115 L80 -115 C78 -117 77 -120 75 -122 L23 -195 L37 -202 L89 -131 C106 -107 113 -93 113 -78 C113 -62 103 -50 85 -50 L85 -50 Z " />
<glyph glyph-name="Lcaron" unicode="&#x13d;" horiz-adv-x="517" d="M530 705 L511 705 L453 506 L470 506 L530 705 Z M249 695 L230 695 L95 0 L484 0 L487 18 L118 18 L249 695 Z " />
<glyph glyph-name="lcaron" unicode="&#x13e;" horiz-adv-x="205" d="M85 0 L104 0 L246 731 L227 731 L85 0 Z M291 532 L308 532 L368 731 L349 731 L291 532 Z " />
<glyph glyph-name="Ldot" unicode="&#x13f;" horiz-adv-x="516" d="M118 18 L249 695 L230 695 L95 0 L484 0 L487 18 L118 18 Z M423 321 C443 321 458 337 458 355 C458 371 446 383 429 383 C410 383 395 368 395 350 C395 333 407 321 423 321 L423 321 Z " />
<glyph glyph-name="ldot" unicode="&#x140;" horiz-adv-x="223" d="M85 0 L104 0 L246 731 L227 731 L85 0 Z M267 340 C287 340 302 356 302 374 C302 390 290 402 273 402 C254 402 239 387 239 369 C239 352 251 340 267 340 L267 340 Z " />
<glyph glyph-name="Lslash" unicode="&#x141;" horiz-adv-x="542" d="M145 18 L207 341 L334 396 L327 412 L211 362 L276 695 L257 695 L190 353 L81 305 L87 289 L187 332 L122 0 L511 0 L514 18 L145 18 Z " />
<glyph glyph-name="lslash" unicode="&#x142;" horiz-adv-x="192" d="M290 425 L282 439 L178 383 L246 731 L227 731 L157 372 L41 309 L48 295 L153 352 L85 0 L104 0 L175 363 L290 425 Z " />
<glyph glyph-name="Nacute" unicode="&#x143;" horiz-adv-x="682" d="M598 864 L591 880 L375 792 L381 778 L598 864 Z M679 695 L550 35 L247 695 L230 695 L95 0 L114 0 L243 661 L546 0 L563 0 L698 695 L679 695 Z " />
<glyph glyph-name="nacute" unicode="&#x144;" horiz-adv-x="616" d="M552 725 L544 740 L351 633 L358 619 L552 725 Z M404 537 C298 537 217 477 182 401 L206 527 L187 527 L85 0 L104 0 L168 330 C191 437 287 519 402 519 C519 519 585 447 559 313 L499 0 L518 0 L579 313 C607 457 531 537 404 537 L404 537 Z " />
<glyph glyph-name="uni0145" unicode="&#x145;" horiz-adv-x="682" d="M679 695 L550 35 L247 695 L230 695 L95 0 L114 0 L243 661 L546 0 L563 0 L698 695 L679 695 Z M328 -50 C308 -50 292 -68 292 -86 C292 -104 304 -115 320 -115 L323 -115 C321 -117 320 -120 318 -122 L266 -195 L280 -202 L332 -131 C349 -107 356 -93 356 -78 C356 -62 346 -50 328 -50 L328 -50 Z " />
<glyph glyph-name="uni0146" unicode="&#x146;" horiz-adv-x="616" d="M404 537 C298 537 217 477 182 401 L206 527 L187 527 L85 0 L104 0 L168 330 C191 437 287 519 402 519 C519 519 585 447 559 313 L499 0 L518 0 L579 313 C607 457 531 537 404 537 L404 537 Z M307 -50 C287 -50 271 -68 271 -86 C271 -104 283 -115 299 -115 L302 -115 C300 -117 299 -120 297 -122 L245 -195 L259 -202 L311 -131 C328 -107 335 -93 335 -78 C335 -62 325 -50 307 -50 L307 -50 Z " />
<glyph glyph-name="Ncaron" unicode="&#x147;" horiz-adv-x="682" d="M488 777 L623 880 L597 880 L482 794 L399 880 L378 880 L472 777 L488 777 Z M679 695 L550 35 L247 695 L230 695 L95 0 L114 0 L243 661 L546 0 L563 0 L698 695 L679 695 Z " />
<glyph glyph-name="ncaron" unicode="&#x148;" horiz-adv-x="616" d="M429 619 L574 740 L547 740 L422 636 L339 740 L317 740 L413 619 L429 619 Z M404 537 C298 537 217 477 182 401 L206 527 L187 527 L85 0 L104 0 L168 330 C191 437 287 519 402 519 C519 519 585 447 559 313 L499 0 L518 0 L579 313 C607 457 531 537 404 537 L404 537 Z " />
<glyph glyph-name="napostrophe" unicode="&#x149;" horiz-adv-x="675" d="M183 725 L125 526 L142 526 L202 725 L183 725 Z M463 537 C357 537 276 477 241 401 L265 527 L246 527 L144 0 L163 0 L227 330 C250 437 346 519 461 519 C578 519 644 447 618 313 L558 0 L577 0 L638 313 C666 457 590 537 463 537 L463 537 Z " />
<glyph glyph-name="Eng" unicode="&#x14a;" horiz-adv-x="682" d="M679 695 L550 35 L247 695 L230 695 L95 0 L114 0 L243 661 L544 3 L540 -20 C523 -106 462 -162 380 -162 L365 -162 L362 -179 L378 -179 C472 -179 539 -119 559 -20 L563 0 L698 695 L679 695 Z " />
<glyph glyph-name="eng" unicode="&#x14b;" horiz-adv-x="598" d="M407 537 C302 537 216 470 182 402 L206 527 L187 527 L85 0 L104 0 L170 341 L170 340 C189 429 288 517 405 519 C530 520 583 442 559 311 L496 -17 C479 -101 417 -160 338 -160 L328 -160 L323 -179 L332 -179 C426 -179 496 -113 515 -17 L579 312 C606 451 546 537 407 537 L407 537 Z " />
<glyph glyph-name="Omacron" unicode="&#x14c;" horiz-adv-x="784" d="M411 820 L653 820 L656 838 L414 838 L411 820 Z M394 -10 C607 -10 782 177 782 404 C782 585 668 705 497 705 C285 705 109 518 109 292 C109 110 223 -10 394 -10 L394 -10 Z M395 9 C235 9 129 123 129 293 C129 507 296 686 496 686 C656 686 762 572 762 402 C762 188 594 9 395 9 L395 9 Z " />
<glyph glyph-name="omacron" unicode="&#x14d;" horiz-adv-x="623" d="M306 671 L548 671 L551 689 L309 689 L306 671 Z M311 -10 C487 -10 612 143 612 310 C612 448 527 537 393 537 C218 537 91 384 91 216 C91 78 177 -10 311 -10 L311 -10 Z M313 8 C191 8 110 92 110 218 C110 370 229 519 392 519 C514 519 593 436 593 310 C593 156 474 8 313 8 L313 8 Z " />
<glyph glyph-name="Ohungarumlaut" unicode="&#x150;" horiz-adv-x="784" d="M424 748 L551 900 L536 910 L411 757 L424 748 Z M577 748 L705 900 L690 910 L565 757 L577 748 Z M394 -10 C607 -10 782 177 782 404 C782 585 668 705 497 705 C285 705 109 518 109 292 C109 110 223 -10 394 -10 L394 -10 Z M395 9 C235 9 129 123 129 293 C129 507 296 686 496 686 C656 686 762 572 762 402 C762 188 594 9 395 9 L395 9 Z " />
<glyph glyph-name="ohungarumlaut" unicode="&#x151;" horiz-adv-x="623" d="M329 619 L452 751 L438 762 L317 629 L329 619 Z M474 619 L597 751 L583 762 L462 629 L474 619 Z M311 -10 C487 -10 612 143 612 310 C612 448 527 537 393 537 C218 537 91 384 91 216 C91 78 177 -10 311 -10 L311 -10 Z M313 8 C191 8 110 92 110 218 C110 370 229 519 392 519 C514 519 593 436 593 310 C593 156 474 8 313 8 L313 8 Z " />
<glyph glyph-name="OE" unicode="&#x152;" horiz-adv-x="1122" d="M1207 677 L1210 695 L822 695 L773 441 C760 603 658 705 497 705 C285 705 109 518 109 292 C109 110 223 -10 394 -10 C539 -10 662 76 726 203 L687 0 L1082 0 L1085 18 L710 18 L776 357 L1115 357 L1119 375 L779 375 L838 677 L1207 677 Z M395 9 C235 9 129 123 129 293 C129 507 296 686 496 686 C656 686 757 572 757 402 C757 188 594 9 395 9 L395 9 Z " />
<glyph glyph-name="oe" unicode="&#x153;" horiz-adv-x="1069" d="M886 537 C761 537 656 458 610 342 C598 462 516 537 393 537 C218 537 91 384 91 216 C91 78 177 -10 311 -10 C441 -10 543 73 587 184 C599 70 684 -10 799 -10 C912 -10 989 39 1044 146 L1026 153 C979 59 902 8 803 8 C689 8 605 95 605 214 C605 229 606 244 608 258 L608 259 L1072 259 C1076 273 1082 318 1082 338 C1082 457 1003 537 886 537 L886 537 Z M313 8 C191 8 110 92 110 218 C110 370 229 519 392 519 C514 519 593 436 593 310 C593 156 474 8 313 8 L313 8 Z M611 277 C638 414 751 519 884 519 C993 519 1063 447 1063 336 C1063 321 1061 295 1057 277 L611 277 Z " />
<glyph glyph-name="Racute" unicode="&#x154;" horiz-adv-x="583" d="M566 864 L559 880 L343 792 L349 778 L566 864 Z M626 539 C626 636 559 695 443 695 L230 695 L95 0 L114 0 L180 338 L274 338 L493 0 L518 0 L296 338 L387 338 C529 338 626 422 626 539 L626 539 Z M246 677 L442 677 C547 677 606 625 606 539 C606 434 517 356 391 356 L183 356 L246 677 Z " />
<glyph glyph-name="racute" unicode="&#x155;" horiz-adv-x="310" d="M417 725 L409 740 L216 633 L223 619 L417 725 Z M182 401 L206 527 L187 527 L85 0 L104 0 L168 333 C187 425 278 517 385 519 L388 537 C291 537 214 470 182 401 L182 401 Z " />
<glyph glyph-name="uni0156" unicode="&#x156;" horiz-adv-x="583" d="M626 539 C626 636 559 695 443 695 L230 695 L95 0 L114 0 L180 338 L274 338 L493 0 L518 0 L296 338 L387 338 C529 338 626 422 626 539 L626 539 Z M246 677 L442 677 C547 677 606 625 606 539 C606 434 517 356 391 356 L183 356 L246 677 Z M286 -50 C266 -50 250 -68 250 -86 C250 -104 262 -115 278 -115 L281 -115 C279 -117 278 -120 276 -122 L224 -195 L238 -202 L290 -131 C307 -107 314 -93 314 -78 C314 -62 304 -50 286 -50 L286 -50 Z " />
<glyph glyph-name="uni0157" unicode="&#x157;" horiz-adv-x="310" d="M182 401 L206 527 L187 527 L85 0 L104 0 L168 333 C187 425 278 517 385 519 L388 537 C291 537 214 470 182 401 L182 401 Z M88 -50 C68 -50 52 -68 52 -86 C52 -104 64 -115 80 -115 L83 -115 C81 -117 80 -120 78 -122 L26 -195 L40 -202 L92 -131 C109 -107 116 -93 116 -78 C116 -62 106 -50 88 -50 L88 -50 Z " />
<glyph glyph-name="Rcaron" unicode="&#x158;" horiz-adv-x="583" d="M440 777 L575 880 L549 880 L434 794 L351 880 L330 880 L424 777 L440 777 Z M626 539 C626 636 559 695 443 695 L230 695 L95 0 L114 0 L180 338 L274 338 L493 0 L518 0 L296 338 L387 338 C529 338 626 422 626 539 L626 539 Z M246 677 L442 677 C547 677 606 625 606 539 C606 434 517 356 391 356 L183 356 L246 677 Z " />
<glyph glyph-name="rcaron" unicode="&#x159;" horiz-adv-x="310" d="M303 619 L448 740 L421 740 L296 636 L213 740 L191 740 L287 619 L303 619 Z M182 401 L206 527 L187 527 L85 0 L104 0 L168 333 C187 425 278 517 385 519 L388 537 C291 537 214 470 182 401 L182 401 Z " />
<glyph glyph-name="Sacute" unicode="&#x15a;" horiz-adv-x="516" d="M314 779 L531 865 L524 881 L308 793 L314 779 Z M265 -7 C401 -7 487 64 487 178 C487 389 188 358 188 535 C188 624 265 685 376 685 C467 685 525 642 533 568 L552 574 C542 654 477 704 376 704 C252 704 168 634 168 533 C168 342 467 372 467 175 C467 75 389 12 267 12 C156 12 86 64 81 150 L62 144 C70 49 145 -7 265 -7 L265 -7 Z " />
<glyph glyph-name="sacute" unicode="&#x15b;" horiz-adv-x="458" d="M270 620 L464 726 L456 741 L263 634 L270 620 Z M234 -10 C343 -10 433 41 433 138 C433 308 155 253 155 402 C155 473 219 519 309 519 C380 519 434 491 446 430 L465 437 C454 498 396 537 309 537 C205 537 136 483 136 401 C136 237 413 292 413 136 C413 53 335 8 237 8 C148 8 77 45 70 112 L53 106 C63 33 135 -10 234 -10 L234 -10 Z " />
<glyph glyph-name="Scedilla" unicode="&#x15e;" horiz-adv-x="516" d="M376 704 C252 704 168 634 168 533 C168 342 467 372 467 175 C467 75 389 12 267 12 C156 12 86 64 81 150 L62 144 C70 50 144 -6 262 -7 L220 -71 L223 -79 L235 -79 C280 -79 306 -110 306 -149 C306 -189 271 -221 219 -221 C178 -221 154 -201 143 -181 L128 -193 C141 -216 170 -239 218 -239 C281 -239 325 -199 325 -147 C325 -102 293 -65 245 -63 L281 -7 C408 -1 487 69 487 178 C487 389 188 358 188 535 C188 624 265 685 376 685 C467 685 525 642 533 568 L552 574 C542 654 477 704 376 704 L376 704 Z " />
<glyph glyph-name="scedilla" unicode="&#x15f;" horiz-adv-x="458" d="M309 519 C380 519 434 491 446 430 L465 437 C454 498 396 537 309 537 C205 537 136 483 136 401 C136 237 413 292 413 136 C413 53 335 8 237 8 C148 8 77 45 70 112 L53 106 C63 34 133 -9 230 -10 L190 -71 L193 -79 L205 -79 C250 -79 276 -110 276 -149 C276 -189 241 -221 189 -221 C148 -221 124 -201 113 -181 L98 -193 C111 -216 140 -239 188 -239 C251 -239 295 -199 295 -147 C295 -102 263 -65 215 -63 L250 -10 C351 -5 433 46 433 138 C433 308 155 253 155 402 C155 473 219 519 309 519 L309 519 Z " />
<glyph glyph-name="Scaron" unicode="&#x160;" horiz-adv-x="516" d="M408 779 L543 882 L517 882 L402 796 L319 882 L298 882 L392 779 L408 779 Z M376 704 C252 704 168 634 168 533 C168 342 467 372 467 175 C467 75 389 12 267 12 C156 12 86 64 81 150 L62 144 C70 49 145 -7 265 -7 C401 -7 487 64 487 178 C487 389 188 358 188 535 C188 624 265 685 376 685 C467 685 525 642 533 568 L552 574 C542 654 477 704 376 704 L376 704 Z " />
<glyph glyph-name="scaron" unicode="&#x161;" horiz-adv-x="458" d="M342 620 L487 741 L460 741 L335 637 L252 741 L230 741 L326 620 L342 620 Z M309 537 C205 537 136 483 136 401 C136 237 413 292 413 136 C413 53 335 8 237 8 C148 8 77 45 70 112 L53 106 C63 33 135 -10 234 -10 C343 -10 433 41 433 138 C433 308 155 253 155 402 C155 473 219 519 309 519 C380 519 434 491 446 430 L465 437 C454 498 396 537 309 537 L309 537 Z " />
<glyph glyph-name="uni0162" unicode="&#x162;" horiz-adv-x="513" d="M389 677 L615 677 L618 695 L147 695 L144 677 L370 677 L238 0 L188 -76 L191 -84 L203 -84 C248 -84 274 -115 274 -154 C274 -194 239 -226 187 -226 C146 -226 122 -206 111 -186 L96 -198 C109 -221 138 -244 186 -244 C249 -244 293 -204 293 -152 C293 -107 261 -70 213 -68 L257 0 L389 677 Z " />
<glyph glyph-name="uni0163" unicode="&#x163;" horiz-adv-x="332" d="M229 509 L409 509 L412 527 L232 527 L258 658 L241 658 L223 567 C218 540 205 527 176 527 L113 527 L110 509 L210 509 L143 166 C127 82 157 24 220 6 L174 -64 L177 -72 L189 -72 C234 -72 260 -103 260 -142 C260 -182 225 -214 173 -214 C132 -214 108 -194 97 -174 L82 -186 C95 -209 124 -232 172 -232 C235 -232 279 -192 279 -140 C279 -95 247 -58 199 -56 L237 2 C246 1 256 0 266 0 L321 0 L325 18 L270 18 C185 18 143 71 162 166 L229 509 Z " />
<glyph glyph-name="Tcaron" unicode="&#x164;" horiz-adv-x="513" d="M402 777 L537 880 L511 880 L396 794 L313 880 L292 880 L386 777 L402 777 Z M618 695 L147 695 L144 677 L370 677 L238 0 L257 0 L389 677 L615 677 L618 695 Z " />
<glyph glyph-name="tcaron" unicode="&#x165;" horiz-adv-x="332" d="M368 562 L385 562 L445 761 L426 761 L368 562 Z M266 0 L321 0 L325 18 L270 18 C185 18 143 71 162 166 L229 509 L409 509 L412 527 L232 527 L258 658 L241 658 L223 567 C218 540 205 527 176 527 L113 527 L110 509 L210 509 L143 166 C123 64 172 0 266 0 L266 0 Z " />
<glyph glyph-name="Tbar" unicode="&#x166;" horiz-adv-x="523" d="M620 677 L623 695 L152 695 L149 677 L375 677 L312 357 L191 357 L188 339 L309 339 L243 0 L262 0 L328 339 L449 339 L452 357 L331 357 L394 677 L620 677 Z " />
<glyph glyph-name="tbar" unicode="&#x167;" horiz-adv-x="343" d="M417 509 L420 527 L240 527 L266 658 L249 658 L231 567 C226 540 213 527 184 527 L121 527 L118 509 L218 509 L177 297 L83 297 L80 279 L173 279 L151 166 C131 64 180 0 274 0 L329 0 L333 18 L278 18 C193 18 151 71 170 166 L192 279 L341 279 L344 297 L196 297 L237 509 L417 509 Z " />
<glyph glyph-name="Utilde" unicode="&#x168;" horiz-adv-x="667" d="M546 790 C588 790 612 816 626 855 L611 862 C598 828 579 808 548 808 C496 808 486 862 428 862 C387 862 363 834 348 797 L365 790 C377 824 395 844 425 844 C475 844 485 790 546 790 L546 790 Z M331 -10 C476 -10 573 77 603 235 L692 695 L673 695 L584 236 C556 92 464 8 335 8 C199 8 128 106 157 256 L242 695 L223 695 L138 255 C108 99 187 -10 331 -10 L331 -10 Z " />
<glyph glyph-name="utilde" unicode="&#x169;" horiz-adv-x="605" d="M351 699 C401 699 411 645 472 645 C514 645 538 671 552 710 L537 717 C524 683 505 663 474 663 C422 663 412 717 354 717 C313 717 289 689 274 652 L291 645 C303 679 321 699 351 699 L351 699 Z M583 527 L519 197 C496 90 400 8 290 8 C178 8 112 80 138 214 L198 527 L179 527 L118 214 C90 70 166 -10 288 -10 C390 -10 470 50 505 126 L481 0 L500 0 L602 527 L583 527 Z " />
<glyph glyph-name="Umacron" unicode="&#x16a;" horiz-adv-x="667" d="M355 820 L597 820 L600 838 L358 838 L355 820 Z M331 -10 C476 -10 573 77 603 235 L692 695 L673 695 L584 236 C556 92 464 8 335 8 C199 8 128 106 157 256 L242 695 L223 695 L138 255 C108 99 187 -10 331 -10 L331 -10 Z " />
<glyph glyph-name="umacron" unicode="&#x16b;" horiz-adv-x="605" d="M534 690 L292 690 L289 672 L531 672 L534 690 Z M583 527 L519 197 C496 90 400 8 290 8 C178 8 112 80 138 214 L198 527 L179 527 L118 214 C90 70 166 -10 288 -10 C390 -10 470 50 505 126 L481 0 L500 0 L602 527 L583 527 Z " />
<glyph glyph-name="Uring" unicode="&#x16e;" horiz-adv-x="667" d="M469 742 C514 742 554 778 554 823 C554 861 529 890 489 890 C444 890 404 854 404 809 C404 771 429 742 469 742 L469 742 Z M470 759 C439 759 422 781 422 808 C422 846 454 873 488 873 C519 873 536 851 536 824 C536 786 504 759 470 759 L470 759 Z M331 -10 C476 -10 573 77 603 235 L692 695 L673 695 L584 236 C556 92 464 8 335 8 C199 8 128 106 157 256 L242 695 L223 695 L138 255 C108 99 187 -10 331 -10 L331 -10 Z " />
<glyph glyph-name="uring" unicode="&#x16f;" horiz-adv-x="605" d="M403 594 C448 594 488 630 488 675 C488 713 463 742 423 742 C378 742 338 706 338 661 C338 623 363 594 403 594 L403 594 Z M422 725 C453 725 470 703 470 676 C470 638 438 611 404 611 C373 611 356 633 356 660 C356 698 388 725 422 725 L422 725 Z M583 527 L519 197 C496 90 400 8 290 8 C178 8 112 80 138 214 L198 527 L179 527 L118 214 C90 70 166 -10 288 -10 C390 -10 470 50 505 126 L481 0 L500 0 L602 527 L583 527 Z " />
<glyph glyph-name="Uhungarumlaut" unicode="&#x170;" horiz-adv-x="667" d="M376 748 L503 900 L488 910 L363 757 L376 748 Z M529 748 L657 900 L642 910 L517 757 L529 748 Z M331 -10 C476 -10 573 77 603 235 L692 695 L673 695 L584 236 C556 92 464 8 335 8 C199 8 128 106 157 256 L242 695 L223 695 L138 255 C108 99 187 -10 331 -10 L331 -10 Z " />
<glyph glyph-name="uhungarumlaut" unicode="&#x171;" horiz-adv-x="605" d="M436 752 L422 763 L301 630 L313 620 L436 752 Z M581 752 L567 763 L446 630 L458 620 L581 752 Z M583 527 L519 197 C496 90 400 8 290 8 C178 8 112 80 138 214 L198 527 L179 527 L118 214 C90 70 166 -10 288 -10 C390 -10 470 50 505 126 L481 0 L500 0 L602 527 L583 527 Z " />
<glyph glyph-name="Uogonek" unicode="&#x172;" horiz-adv-x="667" d="M673 695 L584 236 C556 92 464 8 335 8 C199 8 128 106 157 256 L242 695 L223 695 L138 255 C108 99 187 -10 331 -10 C356 -10 379 -7 401 -2 L396 -7 C355 -42 300 -88 300 -144 C300 -183 325 -208 365 -208 C396 -208 417 -196 436 -177 L426 -166 C411 -183 390 -191 367 -191 C336 -191 318 -175 318 -144 C318 -97 359 -58 406 -17 L433 7 C522 40 581 118 603 235 L692 695 L673 695 Z " />
<glyph glyph-name="uogonek" unicode="&#x173;" horiz-adv-x="605" d="M467 -29 L500 0 L602 527 L583 527 L519 197 C496 90 400 8 290 8 C178 8 112 80 138 214 L198 527 L179 527 L118 214 C90 70 166 -10 288 -10 C390 -10 470 50 505 126 L481 2 L457 -19 C416 -54 361 -100 361 -156 C361 -195 386 -220 426 -220 C457 -220 478 -208 497 -189 L487 -178 C472 -195 451 -203 428 -203 C397 -203 379 -187 379 -156 C379 -109 420 -70 467 -29 L467 -29 Z " />
<glyph glyph-name="Wcircumflex" unicode="&#x174;" horiz-adv-x="831" d="M572 863 L654 777 L675 777 L581 880 L565 880 L430 777 L456 777 L572 863 Z M894 695 L608 39 L547 695 L528 695 L210 41 L179 695 L160 695 L194 0 L210 0 L532 662 L594 0 L611 0 L914 695 L894 695 Z " />
<glyph glyph-name="wcircumflex" unicode="&#x175;" horiz-adv-x="738" d="M497 723 L582 620 L603 620 L506 741 L490 741 L346 620 L373 620 L497 723 Z M774 527 L539 28 L470 527 L447 527 L182 27 L142 527 L123 527 L168 0 L188 0 L454 502 L525 0 L545 0 L795 527 L774 527 Z " />
<glyph glyph-name="Ycircumflex" unicode="&#x176;" horiz-adv-x="576" d="M444 863 L526 777 L547 777 L453 880 L437 880 L302 777 L328 777 L444 863 Z M678 695 L653 695 L337 309 L170 695 L149 695 L324 292 L268 0 L287 0 L343 289 L678 695 Z " />
<glyph glyph-name="ycircumflex" unicode="&#x177;" horiz-adv-x="520" d="M387 723 L472 620 L493 620 L396 741 L380 741 L236 620 L263 620 L387 723 Z M568 527 L254 26 L135 527 L115 527 L242 5 L124 -179 L146 -179 L591 527 L568 527 Z " />
<glyph glyph-name="Ydieresis" unicode="&#x178;" horiz-adv-x="576" d="M351 795 C371 795 388 812 388 831 C388 850 377 861 360 861 C340 861 323 844 323 825 C323 806 334 795 351 795 L351 795 Z M508 795 C528 795 545 812 545 831 C545 850 534 861 517 861 C497 861 480 844 480 825 C480 806 491 795 508 795 L508 795 Z M678 695 L653 695 L337 309 L170 695 L149 695 L324 292 L268 0 L287 0 L343 289 L678 695 Z " />
<glyph glyph-name="Zacute" unicode="&#x179;" horiz-adv-x="515" d="M526 864 L519 880 L303 792 L309 778 L526 864 Z M604 695 L168 695 L165 677 L576 677 L24 16 L21 0 L478 0 L481 18 L50 18 L601 678 L604 695 Z " />
<glyph glyph-name="zacute" unicode="&#x17a;" horiz-adv-x="439" d="M447 725 L439 740 L246 633 L253 619 L447 725 Z M494 527 L139 527 L136 509 L465 509 L24 18 L21 0 L405 0 L408 18 L50 18 L491 509 L494 527 Z " />
<glyph glyph-name="Zdotaccent" unicode="&#x17b;" horiz-adv-x="515" d="M402 795 C422 795 438 812 438 830 C438 847 425 860 408 860 C388 860 372 844 372 825 C372 808 385 795 402 795 L402 795 Z M604 695 L168 695 L165 677 L576 677 L24 16 L21 0 L478 0 L481 18 L50 18 L601 678 L604 695 Z " />
<glyph glyph-name="zdotaccent" unicode="&#x17c;" horiz-adv-x="439" d="M325 644 C347 644 367 662 367 685 C367 703 355 717 335 717 C313 717 293 699 293 676 C293 658 305 644 325 644 L325 644 Z M494 527 L139 527 L136 509 L465 509 L24 18 L21 0 L405 0 L408 18 L50 18 L491 509 L494 527 Z " />
<glyph glyph-name="Zcaron" unicode="&#x17d;" horiz-adv-x="515" d="M399 777 L534 880 L508 880 L393 794 L310 880 L289 880 L383 777 L399 777 Z M604 695 L168 695 L165 677 L576 677 L24 16 L21 0 L478 0 L481 18 L50 18 L601 678 L604 695 Z " />
<glyph glyph-name="zcaron" unicode="&#x17e;" horiz-adv-x="439" d="M333 619 L478 740 L451 740 L326 636 L243 740 L221 740 L317 619 L333 619 Z M494 527 L139 527 L136 509 L465 509 L24 18 L21 0 L405 0 L408 18 L50 18 L491 509 L494 527 Z " />
<glyph glyph-name="uni01EA" unicode="&#x1ea;" horiz-adv-x="784" d="M458 -24 L488 2 C656 48 782 212 782 404 C782 585 668 705 497 705 C285 705 109 518 109 292 C109 110 223 -10 394 -10 C416 -10 438 -8 460 -4 L448 -14 C407 -49 352 -95 352 -151 C352 -190 377 -215 417 -215 C448 -215 469 -203 488 -184 L478 -173 C463 -190 442 -198 419 -198 C388 -198 370 -182 370 -151 C370 -104 411 -65 458 -24 L458 -24 Z M129 293 C129 507 296 686 496 686 C656 686 762 572 762 402 C762 188 594 9 395 9 C235 9 129 123 129 293 L129 293 Z " />
<glyph glyph-name="uni01EB" unicode="&#x1eb;" horiz-adv-x="623" d="M349 -29 L380 -2 C519 32 612 166 612 310 C612 448 527 537 393 537 C218 537 91 384 91 216 C91 78 177 -10 311 -10 C325 -10 339 -9 353 -7 L339 -19 C298 -54 243 -100 243 -156 C243 -195 268 -220 308 -220 C339 -220 360 -208 379 -189 L369 -178 C354 -195 333 -203 310 -203 C279 -203 261 -187 261 -156 C261 -109 302 -70 349 -29 L349 -29 Z M110 218 C110 370 229 519 392 519 C514 519 593 436 593 310 C593 156 474 8 313 8 C191 8 110 92 110 218 L110 218 Z " />
<glyph glyph-name="AEacute" unicode="&#x1fc;" horiz-adv-x="900" d="M880 864 L873 880 L657 792 L663 778 L880 864 Z M958 677 L961 695 L543 695 L-10 0 L12 0 L212 251 L488 251 L439 0 L833 0 L836 18 L462 18 L528 357 L866 357 L870 375 L531 375 L590 677 L958 677 Z M226 269 L551 677 L571 677 L491 269 L226 269 Z " />
<glyph glyph-name="aeacute" unicode="&#x1fd;" horiz-adv-x="1083" d="M786 726 L778 741 L585 634 L592 620 L786 726 Z M870 537 C759 537 665 474 614 378 L643 527 L624 527 L593 364 C577 472 504 537 392 537 C222 537 91 388 91 216 C91 81 171 -10 301 -10 C409 -10 498 52 549 141 L522 0 L541 0 L576 180 C589 68 669 -10 783 -10 C896 -10 973 39 1028 146 L1010 153 C963 59 886 8 787 8 C673 8 589 95 589 214 C589 229 590 244 592 259 L1056 259 C1060 273 1066 318 1066 338 C1066 457 987 537 870 537 L870 537 Z M302 8 C183 8 110 94 110 217 C110 377 234 519 392 519 C509 519 579 442 579 318 C579 154 458 8 302 8 L302 8 Z M595 277 C622 414 735 519 868 519 C977 519 1047 447 1047 336 C1047 321 1045 295 1041 277 L595 277 Z " />
<glyph glyph-name="Oslashacute" unicode="&#x1fe;" horiz-adv-x="787" d="M673 864 L666 880 L450 792 L456 778 L673 864 Z M816 684 L804 697 L715 612 C664 671 590 705 499 705 C287 705 111 518 111 292 C111 214 132 148 169 97 L78 11 L89 -3 L180 83 C230 24 305 -10 396 -10 C609 -10 784 177 784 404 C784 482 763 548 726 599 L816 684 Z M131 293 C131 507 298 686 498 686 C583 686 653 654 699 598 L184 111 C150 159 131 221 131 293 L131 293 Z M764 402 C764 188 596 9 397 9 C312 9 242 41 195 97 L710 584 C745 537 764 474 764 402 L764 402 Z " />
<glyph glyph-name="oslashacute" unicode="&#x1ff;" horiz-adv-x="637" d="M535 725 L527 740 L334 633 L341 619 L535 725 Z M669 496 L660 509 L576 444 C539 503 475 537 392 537 C217 537 90 384 90 216 C90 167 101 125 120 90 L45 32 L54 18 L129 76 C167 22 230 -10 310 -10 C486 -10 611 143 611 310 C611 356 602 396 584 430 L669 496 Z M109 218 C109 370 228 519 391 519 C467 519 527 487 560 432 L137 103 C119 135 109 174 109 218 L109 218 Z M592 310 C592 156 473 8 312 8 C239 8 181 38 146 89 L568 418 C584 387 592 351 592 310 L592 310 Z " />
<glyph glyph-name="uni0218" unicode="&#x218;" horiz-adv-x="516" d="M376 704 C252 704 168 634 168 533 C168 342 467 372 467 175 C467 75 389 12 267 12 C156 12 86 64 81 150 L62 144 C70 49 145 -7 265 -7 C401 -7 487 64 487 178 C487 389 188 358 188 535 C188 624 265 685 376 685 C467 685 525 642 533 568 L552 574 C542 654 477 704 376 704 L376 704 Z M268 -50 C248 -50 232 -68 232 -86 C232 -104 244 -115 260 -115 L263 -115 C261 -117 260 -120 258 -122 L206 -195 L220 -202 L272 -131 C289 -107 296 -93 296 -78 C296 -62 286 -50 268 -50 L268 -50 Z " />
<glyph glyph-name="uni0219" unicode="&#x219;" horiz-adv-x="458" d="M309 519 C380 519 434 491 446 430 L465 437 C454 498 396 537 309 537 C205 537 136 483 136 401 C136 237 413 292 413 136 C413 53 335 8 237 8 C148 8 77 45 70 112 L53 106 C63 33 135 -10 234 -10 C343 -10 433 41 433 138 C433 308 155 253 155 402 C155 473 219 519 309 519 L309 519 Z M228 -50 C208 -50 192 -68 192 -86 C192 -104 204 -115 220 -115 L223 -115 C221 -117 220 -120 218 -122 L166 -195 L180 -202 L232 -131 C249 -107 256 -93 256 -78 C256 -62 246 -50 228 -50 L228 -50 Z " />
<glyph glyph-name="uni021A" unicode="&#x21a;" horiz-adv-x="513" d="M618 695 L147 695 L144 677 L370 677 L238 0 L257 0 L389 677 L615 677 L618 695 Z M243 -50 C223 -50 207 -68 207 -86 C207 -104 219 -115 235 -115 L238 -115 C236 -117 235 -120 233 -122 L181 -195 L195 -202 L247 -131 C264 -107 271 -93 271 -78 C271 -62 261 -50 243 -50 L243 -50 Z " />
<glyph glyph-name="uni021B" unicode="&#x21b;" horiz-adv-x="332" d="M229 509 L409 509 L412 527 L232 527 L258 658 L241 658 L223 567 C218 540 205 527 176 527 L113 527 L110 509 L210 509 L143 166 C123 64 172 0 266 0 L321 0 L325 18 L270 18 C185 18 143 71 162 166 L229 509 Z M218 -43 C198 -43 182 -61 182 -79 C182 -97 194 -108 210 -108 L213 -108 C211 -110 210 -113 208 -115 L156 -188 L170 -195 L222 -124 C239 -100 246 -86 246 -71 C246 -55 236 -43 218 -43 L218 -43 Z " />
<glyph glyph-name="uni0237" unicode="&#x237;" horiz-adv-x="191" d="M-91 -179 L-78 -179 C10 -179 80 -120 100 -17 L205 527 L186 527 L81 -17 C64 -104 1 -160 -74 -160 L-87 -160 L-91 -179 Z " />
<glyph glyph-name="circumflex" unicode="&#x2c6;" horiz-adv-x="291" d="M406 620 L309 741 L293 741 L149 620 L176 620 L300 723 L385 620 L406 620 Z " />
<glyph glyph-name="caron" unicode="&#x2c7;" horiz-adv-x="291" d="M402 741 L277 637 L194 741 L172 741 L268 620 L284 620 L429 741 L402 741 Z " />
<glyph glyph-name="breve" unicode="&#x2d8;" horiz-adv-x="264" d="M268 620 C352 620 393 687 403 741 L385 741 C377 699 342 638 270 638 C200 638 182 699 190 741 L172 741 C162 691 189 620 268 620 L268 620 Z " />
<glyph glyph-name="dotaccent" unicode="&#x2d9;" horiz-adv-x="90" d="M191 645 C213 645 233 663 233 686 C233 704 221 718 201 718 C179 718 159 700 159 677 C159 659 171 645 191 645 L191 645 Z " />
<glyph glyph-name="ring" unicode="&#x2da;" horiz-adv-x="164" d="M222 594 C267 594 307 630 307 675 C307 713 282 742 242 742 C197 742 157 706 157 661 C157 623 182 594 222 594 L222 594 Z M223 611 C192 611 175 633 175 660 C175 698 207 725 241 725 C272 725 289 703 289 676 C289 638 257 611 223 611 L223 611 Z " />
<glyph glyph-name="ogonek" unicode="&#x2db;" horiz-adv-x="207" d="M64 -219 C95 -219 116 -207 135 -188 L125 -177 C110 -194 89 -202 66 -202 C35 -202 17 -186 17 -155 C17 -108 58 -69 105 -28 L138 1 L129 11 L95 -18 C54 -53 -1 -99 -1 -155 C-1 -194 24 -219 64 -219 L64 -219 Z " />
<glyph glyph-name="tilde" unicode="&#x2dc;" horiz-adv-x="347" d="M353 645 C395 645 419 671 433 710 L418 717 C405 683 386 663 355 663 C303 663 293 717 235 717 C194 717 170 689 155 652 L172 645 C184 679 202 699 232 699 C282 699 292 645 353 645 L353 645 Z " />
<glyph glyph-name="hungarumlaut" unicode="&#x2dd;" horiz-adv-x="252" d="M149 620 L272 752 L258 763 L137 630 L149 620 Z M294 620 L417 752 L403 763 L282 630 L294 620 Z " />
<glyph glyph-name="gravecomb" unicode="&#x300;" d="M89 620 L98 634 L-72 741 L-82 726 L89 620 Z " />
<glyph glyph-name="acutecomb" unicode="&#x301;" d="M-83 620 L111 726 L103 741 L-90 634 L-83 620 Z " />
<glyph glyph-name="uni0302" unicode="&#x302;" d="M90 620 L-7 741 L-23 741 L-167 620 L-140 620 L-16 723 L69 620 L90 620 Z " />
<glyph glyph-name="tildecomb" unicode="&#x303;" d="M27 645 C69 645 93 671 107 710 L92 717 C79 683 60 663 29 663 C-23 663 -33 717 -91 717 C-132 717 -156 689 -171 652 L-154 645 C-142 679 -124 699 -94 699 C-44 699 -34 645 27 645 L27 645 Z " />
<glyph glyph-name="uni0304" unicode="&#x304;" d="M-142 672 L100 672 L103 690 L-139 690 L-142 672 Z " />
<glyph glyph-name="uni0306" unicode="&#x306;" d="M-22 620 C62 620 103 687 113 741 L95 741 C87 699 52 638 -20 638 C-90 638 -108 699 -100 741 L-118 741 C-128 691 -101 620 -22 620 L-22 620 Z " />
<glyph glyph-name="uni0307" unicode="&#x307;" d="M60 645 C82 645 102 663 102 686 C102 704 90 718 70 718 C48 718 28 700 28 677 C28 659 40 645 60 645 L60 645 Z " />
<glyph glyph-name="uni0308" unicode="&#x308;" d="M-92 646 C-71 646 -52 664 -52 684 C-52 704 -65 716 -83 716 C-104 716 -123 698 -123 678 C-123 658 -110 646 -92 646 L-92 646 Z M62 646 C83 646 102 664 102 684 C102 704 89 716 71 716 C50 716 31 698 31 678 C31 658 44 646 62 646 L62 646 Z " />
<glyph glyph-name="uni030A" unicode="&#x30a;" d="M15 594 C60 594 100 630 100 675 C100 713 75 742 35 742 C-10 742 -50 706 -50 661 C-50 623 -25 594 15 594 L15 594 Z M16 611 C-15 611 -32 633 -32 660 C-32 698 0 725 34 725 C65 725 82 703 82 676 C82 638 50 611 16 611 L16 611 Z " />
<glyph glyph-name="uni030B" unicode="&#x30b;" d="M-153 620 L-30 752 L-44 763 L-165 630 L-153 620 Z M-8 620 L115 752 L101 763 L-20 630 L-8 620 Z " />
<glyph glyph-name="uni030C" unicode="&#x30c;" d="M86 741 L-39 637 L-122 741 L-144 741 L-48 620 L-32 620 L113 741 L86 741 Z " />
<glyph glyph-name="uni0326" unicode="&#x326;" d="M-74 -50 C-94 -50 -110 -68 -110 -86 C-110 -104 -98 -115 -82 -115 L-79 -115 C-81 -117 -82 -120 -84 -122 L-136 -195 L-122 -202 L-70 -131 C-53 -107 -46 -93 -46 -78 C-46 -62 -56 -50 -74 -50 L-74 -50 Z " />
<glyph glyph-name="uni0327" unicode="&#x327;" d="M-139 -63 L-95 5 L-114 5 L-164 -71 L-161 -79 L-149 -79 C-104 -79 -78 -110 -78 -149 C-78 -189 -113 -221 -165 -221 C-206 -221 -230 -201 -241 -181 L-256 -193 C-243 -216 -214 -239 -166 -239 C-103 -239 -59 -199 -59 -147 C-59 -102 -91 -65 -139 -63 L-139 -63 Z " />
<glyph glyph-name="uni0328" unicode="&#x328;" d="M-138 -219 C-107 -219 -86 -207 -67 -188 L-77 -177 C-92 -194 -113 -202 -136 -202 C-167 -202 -185 -186 -185 -155 C-185 -108 -144 -69 -97 -28 L-64 1 L-73 11 L-107 -18 C-148 -53 -203 -99 -203 -155 C-203 -194 -178 -219 -138 -219 L-138 -219 Z " />
<glyph glyph-name="uni0335" unicode="&#x335;" d="M-243 254 L18 254 L21 272 L-240 272 L-243 254 Z " />
<glyph glyph-name="uni0336" unicode="&#x336;" d="M-573 289 L25 289 L28 307 L-570 307 L-573 289 Z " />
<glyph glyph-name="uni0337" unicode="&#x337;" d="M-223 178 L19 308 L11 322 L-230 192 L-223 178 Z " />
<glyph glyph-name="uni0338" unicode="&#x338;" d="M-553 0 L62 478 L53 491 L-562 14 L-553 0 Z " />
<glyph glyph-name="Wgrave" unicode="&#x1e80;" horiz-adv-x="831" d="M667 792 L452 880 L445 864 L661 778 L667 792 Z M894 695 L608 39 L547 695 L528 695 L210 41 L179 695 L160 695 L194 0 L210 0 L532 662 L594 0 L611 0 L914 695 L894 695 Z " />
<glyph glyph-name="wgrave" unicode="&#x1e81;" horiz-adv-x="738" d="M572 634 L402 741 L392 726 L563 620 L572 634 Z M774 527 L539 28 L470 527 L447 527 L182 27 L142 527 L123 527 L168 0 L188 0 L454 502 L525 0 L545 0 L795 527 L774 527 Z " />
<glyph glyph-name="Wacute" unicode="&#x1e82;" horiz-adv-x="831" d="M676 864 L669 880 L453 792 L459 778 L676 864 Z M894 695 L608 39 L547 695 L528 695 L210 41 L179 695 L160 695 L194 0 L210 0 L532 662 L594 0 L611 0 L914 695 L894 695 Z " />
<glyph glyph-name="wacute" unicode="&#x1e83;" horiz-adv-x="738" d="M605 726 L597 741 L404 634 L411 620 L605 726 Z M774 527 L539 28 L470 527 L447 527 L182 27 L142 527 L123 527 L168 0 L188 0 L454 502 L525 0 L545 0 L795 527 L774 527 Z " />
<glyph glyph-name="Wdieresis" unicode="&#x1e84;" horiz-adv-x="831" d="M479 795 C499 795 516 812 516 831 C516 850 505 861 488 861 C468 861 451 844 451 825 C451 806 462 795 479 795 L479 795 Z M636 795 C656 795 673 812 673 831 C673 850 662 861 645 861 C625 861 608 844 608 825 C608 806 619 795 636 795 L636 795 Z M894 695 L608 39 L547 695 L528 695 L210 41 L179 695 L160 695 L194 0 L210 0 L532 662 L594 0 L611 0 L914 695 L894 695 Z " />
<glyph glyph-name="wdieresis" unicode="&#x1e85;" horiz-adv-x="738" d="M404 646 C425 646 444 664 444 684 C444 704 431 716 413 716 C392 716 373 698 373 678 C373 658 386 646 404 646 L404 646 Z M558 646 C579 646 598 664 598 684 C598 704 585 716 567 716 C546 716 527 698 527 678 C527 658 540 646 558 646 L558 646 Z M774 527 L539 28 L470 527 L447 527 L182 27 L142 527 L123 527 L168 0 L188 0 L454 502 L525 0 L545 0 L795 527 L774 527 Z " />
<glyph glyph-name="uni1E9E" unicode="&#x1e9e;" horiz-adv-x="608" d="M431 376 L641 564 C621 655 552 705 445 705 C304 705 209 623 181 478 L88 0 L107 0 L199 475 C225 608 316 686 446 686 C540 686 599 645 619 568 L398 369 L395 357 L420 357 C511 357 576 292 576 201 C576 95 487 11 374 11 C286 11 231 62 226 150 L207 143 C213 49 277 -8 375 -8 C499 -8 596 84 596 202 C596 300 526 373 431 376 L431 376 Z " />
<glyph glyph-name="Ygrave" unicode="&#x1ef2;" horiz-adv-x="576" d="M539 792 L324 880 L317 864 L533 778 L539 792 Z M678 695 L653 695 L337 309 L170 695 L149 695 L324 292 L268 0 L287 0 L343 289 L678 695 Z " />
<glyph glyph-name="ygrave" unicode="&#x1ef3;" horiz-adv-x="520" d="M463 634 L293 741 L283 726 L454 620 L463 634 Z M568 527 L254 26 L135 527 L115 527 L242 5 L124 -179 L146 -179 L591 527 L568 527 Z " />
<glyph glyph-name="uni1EF8" unicode="&#x1ef8;" horiz-adv-x="576" d="M371 844 C421 844 431 790 492 790 C534 790 558 816 572 855 L557 862 C544 828 525 808 494 808 C442 808 432 862 374 862 C333 862 309 834 294 797 L311 790 C323 824 341 844 371 844 L371 844 Z M678 695 L653 695 L337 309 L170 695 L149 695 L324 292 L268 0 L287 0 L343 289 L678 695 Z " />
<glyph glyph-name="uni1EF9" unicode="&#x1ef9;" horiz-adv-x="520" d="M312 699 C362 699 372 645 433 645 C475 645 499 671 513 710 L498 717 C485 683 466 663 435 663 C383 663 373 717 315 717 C274 717 250 689 235 652 L252 645 C264 679 282 699 312 699 L312 699 Z M568 527 L254 26 L135 527 L115 527 L242 5 L124 -179 L146 -179 L591 527 L568 527 Z " />
<glyph glyph-name="endash" unicode="&#x2013;" horiz-adv-x="513" d="M114 248 L492 248 L495 266 L117 266 L114 248 Z " />
<glyph glyph-name="emdash" unicode="&#x2014;" horiz-adv-x="786" d="M114 246 L765 246 L768 264 L117 264 L114 246 Z " />
<glyph glyph-name="quoteleft" unicode="&#x2018;" horiz-adv-x="165" d="M200 635 L253 715 L232 715 L185 647 C169 624 165 615 165 601 C165 585 177 573 195 573 C213 573 228 587 228 607 C228 624 216 635 200 635 L200 635 Z " />
<glyph glyph-name="quoteright" unicode="&#x2019;" horiz-adv-x="161" d="M221 715 C203 715 188 701 188 681 C188 664 200 653 216 653 L163 573 L184 573 L231 641 C247 664 251 673 251 687 C251 703 239 715 221 715 L221 715 Z " />
<glyph glyph-name="quotesinglbase" unicode="&#x201a;" horiz-adv-x="164" d="M87 53 C69 53 54 39 54 19 C54 2 66 -9 82 -9 L29 -89 L50 -89 L97 -21 C113 2 117 11 117 25 C117 41 105 53 87 53 L87 53 Z " />
<glyph glyph-name="quotedblleft" unicode="&#x201c;" horiz-adv-x="264" d="M232 715 L185 647 C169 624 165 615 165 601 C165 585 177 573 195 573 C213 573 228 587 228 607 C228 624 216 635 200 635 L253 715 L232 715 Z M299 635 L352 715 L331 715 L284 647 C268 624 264 615 264 601 C264 585 276 573 294 573 C312 573 327 587 327 607 C327 624 315 635 299 635 L299 635 Z " />
<glyph glyph-name="quotedblright" unicode="&#x201d;" horiz-adv-x="260" d="M221 715 C203 715 188 701 188 681 C188 664 200 653 216 653 L163 573 L184 573 L231 641 C247 664 251 673 251 687 C251 703 239 715 221 715 L221 715 Z M320 715 C302 715 287 701 287 681 C287 664 299 653 315 653 L262 573 L283 573 L330 641 C346 664 350 673 350 687 C350 703 338 715 320 715 L320 715 Z " />
<glyph glyph-name="quotedblbase" unicode="&#x201e;" horiz-adv-x="263" d="M87 53 C69 53 54 39 54 19 C54 2 66 -9 82 -9 L29 -89 L50 -89 L97 -21 C113 2 117 11 117 25 C117 41 105 53 87 53 L87 53 Z M186 53 C168 53 153 39 153 19 C153 2 165 -9 181 -9 L128 -89 L149 -89 L196 -21 C212 2 216 11 216 25 C216 41 204 53 186 53 L186 53 Z " />
<glyph glyph-name="dagger" unicode="&#x2020;" horiz-adv-x="293" d="M366 634 L278 634 L297 731 L276 731 L257 634 L170 634 L167 616 L254 616 L198 330 L219 330 L275 616 L362 616 L366 634 Z " />
<glyph glyph-name="daggerdbl" unicode="&#x2021;" horiz-adv-x="309" d="M370 616 L374 634 L286 634 L305 731 L284 731 L265 634 L178 634 L175 616 L262 616 L228 445 L141 445 L138 427 L225 427 L206 330 L227 330 L246 427 L333 427 L337 445 L249 445 L283 616 L370 616 Z " />
<glyph glyph-name="bullet" unicode="&#x2022;" horiz-adv-x="310" d="M212 275 C255 275 286 309 286 348 C286 383 261 408 225 408 C185 408 153 376 153 337 C153 300 178 275 212 275 L212 275 Z " />
<glyph glyph-name="ellipsis" unicode="&#x2026;" horiz-adv-x="481" d="M87 -9 C106 -9 121 5 121 25 C121 42 109 53 93 53 C74 53 59 39 59 19 C59 2 71 -9 87 -9 L87 -9 Z M240 -9 C259 -9 274 5 274 25 C274 42 262 53 246 53 C227 53 212 39 212 19 C212 2 224 -9 240 -9 L240 -9 Z M392 -9 C411 -9 426 5 426 25 C426 42 414 53 398 53 C379 53 364 39 364 19 C364 2 376 -9 392 -9 L392 -9 Z " />
<glyph glyph-name="perthousand" unicode="&#x2030;" horiz-adv-x="1016" d="M257 388 C357 388 430 480 430 571 C430 644 383 700 306 700 C206 700 133 608 133 517 C133 444 180 388 257 388 L257 388 Z M135 0 L156 0 L690 695 L670 695 L135 0 Z M260 405 C197 405 151 451 151 518 C151 598 216 683 303 683 C366 683 412 637 412 570 C412 490 347 405 260 405 L260 405 Z M522 -5 C622 -5 695 87 695 178 C695 251 648 307 571 307 C471 307 398 215 398 124 C398 51 445 -5 522 -5 L522 -5 Z M842 -5 C942 -5 1015 87 1015 178 C1015 251 968 307 891 307 C791 307 718 215 718 124 C718 51 765 -5 842 -5 L842 -5 Z M525 12 C462 12 416 58 416 125 C416 205 481 290 568 290 C631 290 677 244 677 177 C677 97 612 12 525 12 L525 12 Z M845 12 C782 12 736 58 736 125 C736 205 801 290 888 290 C951 290 997 244 997 177 C997 97 932 12 845 12 L845 12 Z " />
<glyph glyph-name="guilsinglleft" unicode="&#x2039;" horiz-adv-x="237" d="M255 419 L229 419 L95 256 L165 93 L188 93 L119 253 L255 419 Z " />
<glyph glyph-name="guilsinglright" unicode="&#x203a;" horiz-adv-x="237" d="M169 419 L146 419 L215 259 L79 93 L105 93 L239 256 L169 419 Z " />
<glyph glyph-name="fraction" unicode="&#x2044;" horiz-adv-x="403" d="M-7 0 L14 0 L547 695 L526 695 L-7 0 Z " />
<glyph glyph-name="uni2074" unicode="&#x2074;" horiz-adv-x="313" d="M356 695 L338 695 L115 450 L113 438 L288 438 L270 347 L288 347 L306 438 L353 438 L356 455 L309 455 L356 695 Z M292 455 L143 455 L332 663 L292 455 Z " />
<glyph glyph-name="Euro" unicode="&#x20ac;" horiz-adv-x="716" d="M535 670 C382 670 250 562 198 412 L132 412 L125 394 L192 394 C180 355 174 313 174 269 L174 266 L82 266 L76 248 L175 248 C183 90 286 -10 445 -10 C548 -10 631 32 689 111 L676 124 C618 47 542 9 446 9 C298 9 203 100 195 248 L480 248 L486 266 L194 266 L194 271 C194 314 200 355 212 394 L530 394 L537 412 L218 412 C268 552 391 651 533 651 C627 651 700 611 740 538 L757 550 C712 627 633 670 535 670 L535 670 Z " />
<glyph glyph-name="trademark" unicode="&#x2122;" horiz-adv-x="597" d="M353 673 L356 690 L162 690 L159 673 L247 673 L196 412 L214 412 L265 673 L353 673 Z M621 690 L477 449 L428 690 L410 690 L339 412 L357 412 L418 652 L464 424 L482 424 L615 647 L584 412 L602 412 L639 690 L621 690 Z " />
<glyph glyph-name="minus" unicode="&#x2212;" horiz-adv-x="463" d="M86 287 L486 287 L490 305 L90 305 L86 287 Z " />
<glyph glyph-name="approxequal" unicode="&#x2248;" horiz-adv-x="511" d="M421 343 C460 343 495 365 514 391 L501 403 C484 380 452 362 422 362 C345 362 324 419 236 419 C197 419 163 397 144 371 L157 359 C174 382 205 400 235 400 C312 400 333 343 421 343 L421 343 Z M380 137 C419 137 454 159 473 185 L460 197 C443 174 411 156 381 156 C304 156 283 213 195 213 C156 213 122 191 103 165 L116 153 C133 176 164 194 194 194 C271 194 292 137 380 137 L380 137 Z " />
<glyph glyph-name="notequal" unicode="&#x2260;" horiz-adv-x="463" d="M506 390 L510 408 L355 408 L431 560 L410 560 L334 408 L110 408 L106 390 L325 390 L215 171 L64 171 L60 153 L206 153 L129 0 L150 0 L227 153 L460 153 L464 171 L236 171 L346 390 L506 390 Z " />
<glyph glyph-name="uniF8FF" unicode="&#xf8ff;" horiz-adv-x="2307" d="M561 199 C585 199 604 202 616 209 L616 284 C610 280 602 277 592 277 C581 277 574 282 574 294 L574 342 L616 342 L616 421 L565 421 C535 421 507 404 507 404 L506 408 C544 425 573 470 573 510 L474 510 L474 282 C474 224 499 199 561 199 L561 199 Z M636 204 L735 204 L735 421 L727 421 C698 421 657 413 657 413 L655 416 C699 426 734 466 734 510 L636 510 L636 204 Z M1371 199 C1394 199 1413 202 1425 209 L1425 284 C1419 280 1411 277 1401 277 C1390 277 1383 282 1383 294 L1383 342 L1425 342 L1425 421 L1375 421 C1345 421 1317 404 1317 404 L1315 408 C1354 425 1382 470 1382 510 L1283 510 L1283 282 C1283 224 1309 199 1371 199 L1371 199 Z M100 204 L199 204 L199 509 L100 509 L100 204 Z M285 199 C326 199 349 216 356 226 L359 226 L359 204 L457 204 L457 338 C457 393 415 428 343 428 C271 428 232 399 221 350 L311 336 C311 356 319 365 334 365 C349 365 357 355 357 340 L357 305 L355 305 C343 317 323 326 289 326 C242 326 215 298 215 260 C215 224 242 199 285 199 L285 199 Z M756 204 L855 204 L855 328 C862 352 866 360 881 360 C893 360 900 352 900 333 L900 204 L1000 204 L1000 338 C1000 396 972 426 927 426 C888 426 862 406 856 356 L853 356 L853 421 L756 421 L756 204 Z M1141 199 C1223 199 1267 247 1267 312 C1267 378 1222 426 1141 426 C1061 426 1015 378 1015 312 C1015 246 1059 199 1141 199 L1141 199 Z M1691 132 L1791 132 L1791 242 L1794 242 C1806 212 1830 199 1863 199 C1907 199 1949 232 1949 312 C1949 392 1917 426 1866 426 C1820 426 1799 396 1793 356 L1790 356 L1790 421 L1691 421 L1691 132 Z M2087 199 C2140 199 2191 222 2203 288 L2121 296 C2119 278 2112 262 2091 262 C2069 262 2057 284 2057 308 L2207 308 L2207 317 C2207 377 2161 426 2090 426 C2011 426 1963 378 1963 312 C1963 246 2007 199 2087 199 L2087 199 Z M1472 128 L1511 128 C1562 128 1597 158 1617 214 L1688 421 L1589 421 C1578 367 1565 302 1559 248 L1557 248 C1553 302 1538 367 1529 421 L1429 421 L1483 248 C1491 222 1507 209 1535 209 L1603 209 L1604 206 C1597 198 1579 194 1537 194 L1472 194 L1472 128 Z M2057 320 C2057 348 2072 366 2094 366 C2111 366 2118 357 2118 344 C2118 328 2105 320 2063 320 L2057 320 Z M1825 247 C1815 247 1806 250 1798 260 L1798 332 C1803 353 1813 365 1828 365 C1849 365 1855 345 1855 304 C1855 263 1845 247 1825 247 L1825 247 Z M1141 261 C1124 261 1113 275 1113 312 C1113 350 1123 364 1141 364 C1158 364 1170 350 1170 312 C1170 275 1158 261 1141 261 L1141 261 Z M335 229 C317 229 311 242 311 264 C311 286 322 299 338 299 C347 299 354 296 357 291 L357 240 C353 234 345 229 335 229 L335 229 Z " />
<glyph glyph-name="fi" unicode="&#xfb01;" horiz-adv-x="436" d="M401 713 L487 713 L490 731 L404 731 C315 731 251 680 230 573 L221 527 L112 527 L109 509 L218 509 L119 0 L138 0 L237 509 L428 509 L329 0 L348 0 L450 527 L240 527 L249 572 C268 669 328 713 401 713 L401 713 Z " />
<glyph glyph-name="fl" unicode="&#xfb02;" horiz-adv-x="449" d="M503 731 L404 731 C315 731 251 680 230 573 L221 527 L112 527 L109 509 L218 509 L119 0 L138 0 L237 509 L366 509 L369 527 L240 527 L249 572 C268 669 328 713 401 713 L481 713 L342 0 L361 0 L503 731 Z " />
</font>
</svg>
