<?xml version="1.0" encoding="UTF-8"?>
<svg width="162px" height="122px" viewBox="0 0 162 122" version="1.1" xmlns="http://www.w3.org/2000/svg" xmlns:xlink="http://www.w3.org/1999/xlink">
    <title>Group 7@2x</title>
    <g id="5.-GETTING-STARTED" stroke="none" stroke-width="1" fill="none" fill-rule="evenodd">
        <g id="5.1-Our-Process" transform="translate(-1128.000000, -1423.000000)">
            <g id="Group-5" transform="translate(310.000000, 1420.000000)">
                <g id="Group-3" transform="translate(818.000000, 3.000000)">
                    <path d="M40.626,91.26 C52.386,91.26 62.025,87.039 69.543,78.597 C77.061,70.155 80.82,59.256 80.82,45.9 C80.82,32.544 77.061,21.645 69.543,13.203 C62.025,4.761 52.386,0.54 40.626,0.54 C28.866,0.54 19.248,4.74 11.772,13.14 C4.296,21.54 0.558,32.46 0.558,45.9 C0.558,59.34 4.296,70.26 11.772,78.66 C19.248,87.06 28.866,91.26 40.626,91.26 Z M40.626,88.866 C35.502,88.866 31.827,85.548 29.601,78.912 C27.375,72.276 26.262,61.272 26.262,45.9 L26.2629926,45.1045033 C26.3007102,30.0651448 27.4133793,19.3053103 29.601,12.825 C31.827,6.231 35.502,2.934 40.626,2.934 C45.75,2.934 49.425,6.21 51.651,12.762 C53.877,19.314 54.99,30.36 54.99,45.9 C54.99,61.356 53.877,72.381 51.651,78.975 C49.425,85.569 45.75,88.866 40.626,88.866 Z" id="01" fill="#9B8F63" fill-rule="nonzero"></path>
                    <line x1="80" y1="120" x2="160.5" y2="39.5" id="Line-3-Copy-3" stroke="#9B8F63" stroke-width="2" stroke-linecap="square"></line>
                    <path d="M121.77,1.8 L121.77,79.038 C121.77,79.1027389 121.770307,79.1669591 121.77092,79.2306606 L111.001,90 L85.734,90 L85.734,89.37 C85.902,89.286 87.099,88.845 89.325,88.047 C91.551,87.249 93.084,86.598 93.924,86.094 C95.52,85.338 96.591,84.456 97.137,83.448 C97.683,82.44 97.956,80.97 97.956,79.038 L97.956,79.038 L97.956,12.888 C97.956,10.956 97.662,9.486 97.074,8.478 C96.486,7.47 95.394,6.588 93.798,5.832 C92.874,5.412 91.404,4.803 89.388,4.005 C87.372,3.207 86.028,2.682 85.356,2.43 L85.356,2.43 L85.356,1.8 L121.77,1.8 Z" id="Combined-Shape" fill="#9B8F63" fill-rule="nonzero"></path>
                </g>
            </g>
        </g>
    </g>
</svg>