<?xml version="1.0" encoding="UTF-8"?>
<svg width="177px" height="122px" viewBox="0 0 177 122" version="1.1" xmlns="http://www.w3.org/2000/svg" xmlns:xlink="http://www.w3.org/1999/xlink">
    <title>Group 2@2x</title>
    <g id="5.-GETTING-STARTED" stroke="none" stroke-width="1" fill="none" fill-rule="evenodd">
        <g id="5.1-Our-Process" transform="translate(-311.000000, -2374.000000)">
            <g id="Group-4" transform="translate(310.000000, 2370.000000)">
                <g id="Group-2" transform="translate(1.000000, 4.000000)">
                    <path d="M40.47,91.26 C52.23,91.26 61.869,87.039 69.387,78.597 C76.905,70.155 80.664,59.256 80.664,45.9 C80.664,32.544 76.905,21.645 69.387,13.203 C61.869,4.761 52.23,0.54 40.47,0.54 C28.71,0.54 19.092,4.74 11.616,13.14 C4.14,21.54 0.402,32.46 0.402,45.9 C0.402,59.34 4.14,70.26 11.616,78.66 C19.092,87.06 28.71,91.26 40.47,91.26 Z M40.47,88.866 C35.346,88.866 31.671,85.548 29.445,78.912 C27.219,72.276 26.106,61.272 26.106,45.9 L26.1069926,45.1045033 C26.1447102,30.0651448 27.2573793,19.3053103 29.445,12.825 C31.671,6.231 35.346,2.934 40.47,2.934 C45.594,2.934 49.269,6.21 51.495,12.762 C53.721,19.314 54.834,30.36 54.834,45.9 C54.834,61.356 53.721,72.381 51.495,78.975 C49.269,85.569 45.594,88.866 40.47,88.866 Z" id="02" fill="#9B8F63" fill-rule="nonzero"></path>
                    <path d="M115.944,0.54 C127.2,0.54 135.957,2.766 142.215,7.218 C148.473,11.67 151.602,18.054 151.602,26.37 C151.602,34.266 148.389,41.406 141.963,47.79 C135.537,54.174 122.454,62.28 102.714,72.108 L102.714,72.108 L127.41,72.108 L128.012746,72.1065917 C135.588761,72.0709152 140.931846,71.3573846 144.042,69.966 C147.234,68.538 150.258,65.64 153.114,61.272 L153.114,61.272 L153.366,61.272 L153.182,62.818 L126.001,90 L83.814,90 L83.814,89.748 L84.5225065,89.0475089 C91.0974792,82.5410547 96.6153103,76.9155517 101.076,72.171 C105.696,67.257 109.602,62.91 112.794,59.13 C118.758,51.906 122.958,45.501 125.394,39.915 C127.83,34.329 129.048,28.176 129.048,21.456 C129.048,15.408 127.935,10.788 125.709,7.596 C123.483,4.404 120.228,2.808 115.944,2.808 C111.66,2.808 108.3,4.257 105.864,7.155 C103.428,10.053 102.21,13.938 102.21,18.81 C102.21,22.674 103.155,25.761 105.045,28.071 C106.935,30.381 109.35,31.536 112.29,31.536 C113.55,31.536 114.6,31.41 115.44,31.158 C116.28,30.906 117.078,30.444 117.834,29.772 L117.834,29.772 L118.086,29.772 L117.945672,30.1982344 C116.840474,33.4333281 115.06025,35.91625 112.605,37.647 C110.043,39.453 106.872,40.356 103.092,40.356 C98.304,40.356 94.377,38.802 91.311,35.694 C88.245,32.586 86.712,28.512 86.712,23.472 C86.712,16.668 89.421,11.145 94.839,6.903 C100.257,2.661 107.292,0.54 115.944,0.54 Z" id="Combined-Shape" fill="#9B8F63" fill-rule="nonzero"></path>
                    <line x1="95" y1="120" x2="175.5" y2="39.5" id="Line-3-Copy-4" stroke="#9B8F63" stroke-width="2" stroke-linecap="square"></line>
                </g>
            </g>
        </g>
    </g>
</svg>