<?xml version="1.0" encoding="UTF-8"?>
<svg width="184px" height="122px" viewBox="0 0 184 122" version="1.1" xmlns="http://www.w3.org/2000/svg" xmlns:xlink="http://www.w3.org/1999/xlink">
    <title>Group 3@2x</title>
    <g id="5.-GETTING-STARTED" stroke="none" stroke-width="1" fill="none" fill-rule="evenodd">
        <g id="5.1-Our-Process" transform="translate(-1202.000000, -3791.000000)">
            <g id="Group-5" transform="translate(406.000000, 3788.000000)">
                <g id="Group-3" transform="translate(796.000000, 3.000000)">
                    <path d="M118.066,0.54 C127.978,0.54 135.958,2.472 142.006,6.336 C148.054,10.2 151.078,15.408 151.078,21.96 C151.078,27.588 148.978,32.145 144.778,35.631 C140.578,39.117 134.614,41.28 126.886,42.12 C135.37,42.624 142.111,44.955 147.109,49.113 C152.107,53.271 154.606,58.794 154.606,65.682 C154.606,66.6637294 154.554384,67.6198131 154.451151,68.550251 L133.67621,89.3255283 C128.991631,90.6151761 123.662227,91.26 117.688,91.26 C108.196,91.26 100.489,89.328 94.567,85.464 C88.645,81.6 85.684,76.392 85.684,69.84 C85.684,65.304 87.154,61.65 90.094,58.878 C93.034,56.106 96.856,54.72 101.56,54.72 C104.92,54.72 107.692,55.266 109.876,56.358 C112.06,57.45 113.656,59.088 114.664,61.272 L114.664,61.272 L114.412,61.272 L114.15748,61.17876 C113.81476,61.06452 113.4586,60.9906 113.089,60.957 C112.627,60.915 112.186,60.894 111.766,60.894 C109.582,60.81 107.881,61.818 106.663,63.918 C105.445,66.018 104.836,68.916 104.836,72.612 C104.836,77.4 106.033,81.327 108.427,84.393 C110.821,87.459 113.908,88.992 117.688,88.992 C121.804,88.992 125.059,86.913 127.453,82.755 C129.847,78.597 131.044,72.99 131.044,65.934 C131.044,58.29 129.574,52.599 126.634,48.861 C123.694,45.123 119.284,43.254 113.404,43.254 L113.404,43.254 L113.404,42.12 L113.85263,42.0937863 C118.74919,41.7616739 122.379647,39.9854118 124.744,36.765 C127.18,33.447 128.398,28.26 128.398,21.204 C128.398,14.988 127.537,10.368 125.815,7.344 C124.093,4.32 121.51,2.808 118.066,2.808 C114.874,2.808 112.312,4.047 110.38,6.525 C108.448,9.003 107.482,12.258 107.482,16.29 C107.482,19.734 108.091,22.485 109.309,24.543 C110.527,26.601 112.228,27.588 114.412,27.504 C114.832,27.504 115.252,27.462 115.672,27.378 C116.092,27.294 116.47,27.21 116.806,27.126 L116.806,27.126 L117.058,27.126 L116.90687,27.4273878 C115.968676,29.2137258 114.465053,30.6042632 112.396,31.599 C110.212,32.649 107.566,33.174 104.458,33.174 C100.258,33.174 96.835,31.935 94.189,29.457 C91.543,26.979 90.22,23.724 90.22,19.692 C90.22,13.98 92.824,9.36 98.032,5.832 C103.24,2.304 109.918,0.54 118.066,0.54 Z" id="Combined-Shape" fill="#9B8F63" fill-rule="nonzero"></path>
                    <line x1="102" y1="120" x2="182.5" y2="39.5" id="Line-3-Copy-3" stroke="#9B8F63" stroke-width="2" stroke-linecap="square"></line>
                    <path d="M40.954,91.26 C52.714,91.26 62.353,87.039 69.871,78.597 C77.389,70.155 81.148,59.256 81.148,45.9 C81.148,32.544 77.389,21.645 69.871,13.203 C62.353,4.761 52.714,0.54 40.954,0.54 C29.194,0.54 19.576,4.74 12.1,13.14 C4.624,21.54 0.886,32.46 0.886,45.9 C0.886,59.34 4.624,70.26 12.1,78.66 C19.576,87.06 29.194,91.26 40.954,91.26 Z M40.954,88.866 C35.83,88.866 32.155,85.548 29.929,78.912 C27.703,72.276 26.59,61.272 26.59,45.9 C26.59,30.444 27.703,19.419 29.929,12.825 C32.155,6.231 35.83,2.934 40.954,2.934 C46.078,2.934 49.753,6.21 51.979,12.762 C54.205,19.314 55.318,30.36 55.318,45.9 L55.3170074,46.6954967 C55.2792898,61.7348552 54.1666207,72.4946897 51.979,78.975 C49.753,85.569 46.078,88.866 40.954,88.866 Z" id="03" fill="#9B8F63" fill-rule="nonzero"></path>
                </g>
            </g>
        </g>
    </g>
</svg>