<?xml version="1.0" encoding="UTF-8"?>
<svg width="177px" height="122px" viewBox="0 0 177 122" version="1.1" xmlns="http://www.w3.org/2000/svg" xmlns:xlink="http://www.w3.org/1999/xlink">
    <title>Group 2@2x</title>
    <g id="5.-GETTING-STARTED" stroke="none" stroke-width="1" fill="none" fill-rule="evenodd">
        <g id="5.1-Our-Process" transform="translate(-311.000000, -4266.000000)">
            <g id="Group-4" transform="translate(310.000000, 4262.000000)">
                <g id="Group-2" transform="translate(1.000000, 4.000000)">
                    <path d="M40.47,91.26 C52.23,91.26 61.869,87.039 69.387,78.597 C76.905,70.155 80.664,59.256 80.664,45.9 C80.664,32.544 76.905,21.645 69.387,13.203 C61.869,4.761 52.23,0.54 40.47,0.54 C28.71,0.54 19.092,4.74 11.616,13.14 C4.14,21.54 0.402,32.46 0.402,45.9 C0.402,59.34 4.14,70.26 11.616,78.66 C19.092,87.06 28.71,91.26 40.47,91.26 Z M40.47,88.866 C35.346,88.866 31.671,85.548 29.445,78.912 C27.219,72.276 26.106,61.272 26.106,45.9 L26.1069926,45.1045033 C26.1447102,30.0651448 27.2573793,19.3053103 29.445,12.825 C31.671,6.231 35.346,2.934 40.47,2.934 C45.594,2.934 49.269,6.21 51.495,12.762 C53.721,19.314 54.834,30.36 54.834,45.9 C54.834,61.356 53.721,72.381 51.495,78.975 C49.269,85.569 45.594,88.866 40.47,88.866 Z" id="04" fill="#9B8F63" fill-rule="nonzero"></path>
                    <path d="M146.058,1.296 L146.058,61.902 L150.72,61.902 L151.145359,61.8998125 C152.312774,61.8876583 153.361165,61.8248552 154.29053,61.7114034 L150.443,65.556 L146.058,65.556 L146.058,69.941 L126,90 L115.692,90 L115.692,89.748 L116.064273,89.4954793 C118.630091,87.7241901 120.354,85.8763636 121.236,83.952 C122.12304,82.01664 122.584301,79.0748928 122.619782,75.1267584 L122.622,74.628 L122.622,65.556 L84.318,65.556 L84.318,65.052 L126.906,1.296 L146.058,1.296 Z M122.622,14.148 L90.744,61.902 L122.622,61.902 L122.622,14.148 Z" id="Combined-Shape" fill="#9B8F63" fill-rule="nonzero"></path>
                    <line x1="95" y1="120" x2="175.5" y2="39.5" id="Line-3-Copy-4" stroke="#9B8F63" stroke-width="2" stroke-linecap="square"></line>
                </g>
            </g>
        </g>
    </g>
</svg>