<?xml version="1.0" encoding="UTF-8"?>
<svg width="183px" height="125px" viewBox="0 0 183 125" version="1.1" xmlns="http://www.w3.org/2000/svg" xmlns:xlink="http://www.w3.org/1999/xlink">
    <title>Group 3@2x</title>
    <g id="5.-GETTING-STARTED" stroke="none" stroke-width="1" fill="none" fill-rule="evenodd">
        <g id="5.1-Our-Process" transform="translate(-1118.000000, -5236.000000)">
            <g id="Group-5" transform="translate(321.000000, 5236.000000)">
                <g id="Group-3" transform="translate(797.000000, 0.000000)">
                    <path d="M150.456,0.012 L150.453324,0.596484444 C150.374841,9.11736148 148.569733,15.3695333 145.038,19.353 C141.426,23.427 135.798,25.464 128.154,25.464 C124.542,25.464 120.111,25.002 114.861,24.078 C109.611,23.154 105.474,22.146 102.45,21.054 L102.45,21.054 L99.804,44.994 L100.152192,44.630969 C102.621428,42.1143533 105.760364,40.1143636 109.569,38.631 C113.559,37.077 117.864,36.3 122.484,36.3 C131.808,36.3 139.263,38.715 144.849,43.545 C150.435,48.375 153.228,54.864 153.228,63.012 C153.228,66.7684068 152.691911,70.2255248 151.619734,73.3833541 L133.828314,91.1731382 C128.728198,93.2310461 122.88876,94.26 116.31,94.26 C107.07,94.26 99.552,92.37 93.756,88.59 C87.96,84.81 85.062,79.686 85.062,73.218 C85.062,68.514 86.49,64.797 89.346,62.067 C92.202,59.337 95.982,57.972 100.686,57.972 C103.878,57.972 106.587,58.56 108.813,59.736 C111.039,60.912 112.614,62.55 113.538,64.65 L113.538,64.65 L113.286,64.65 L113.07936,64.55424 C112.79712,64.43328 112.488,64.3392 112.152,64.272 C111.732,64.188 111.27,64.146 110.766,64.146 C108.582,64.062 106.86,65.091 105.6,67.233 C104.34,69.375 103.71,72.252 103.71,75.864 C103.71,80.568 104.886,84.432 107.238,87.456 C109.59,90.48 112.614,91.992 116.31,91.992 C120.762,91.992 124.185,89.682 126.579,85.062 C128.973,80.442 130.17,73.932 130.17,65.532 C130.17,58.476 128.637,52.869 125.571,48.711 C122.505,44.553 118.284,42.474 112.908,42.474 C110.052,42.474 107.091,43.251 104.025,44.805 C100.959,46.359 98.25,48.396 95.898,50.916 L95.898,50.916 L95.772,50.916 L101.316,3.792 L102.331083,3.92545562 C106.419746,4.45033136 110.848385,4.86784615 115.617,5.178 C120.783,5.514 125.214,5.682 128.91,5.682 C135.546,5.682 140.25,5.262 143.022,4.422 C145.794,3.582 148.188,2.112 150.204,0.012 L150.204,0.012 L150.456,0.012 Z" id="Combined-Shape" fill="#9B8F63" fill-rule="nonzero"></path>
                    <line x1="101" y1="123" x2="181.5" y2="42.5" id="Line-3-Copy-3" stroke="#9B8F63" stroke-width="2" stroke-linecap="square"></line>
                    <path d="M40.584,94.26 C52.344,94.26 61.983,90.039 69.501,81.597 C77.019,73.155 80.778,62.256 80.778,48.9 C80.778,35.544 77.019,24.645 69.501,16.203 C61.983,7.761 52.344,3.54 40.584,3.54 C28.824,3.54 19.206,7.74 11.73,16.14 C4.254,24.54 0.516,35.46 0.516,48.9 C0.516,62.34 4.254,73.26 11.73,81.66 C19.206,90.06 28.824,94.26 40.584,94.26 Z M40.584,91.866 C35.46,91.866 31.785,88.548 29.559,81.912 C27.333,75.276 26.22,64.272 26.22,48.9 C26.22,33.444 27.333,22.419 29.559,15.825 C31.785,9.231 35.46,5.934 40.584,5.934 C45.708,5.934 49.383,9.21 51.609,15.762 C53.835,22.314 54.948,33.36 54.948,48.9 L54.9470074,49.6954967 C54.9092898,64.7348552 53.7966207,75.4946897 51.609,81.975 C49.383,88.569 45.708,91.866 40.584,91.866 Z" id="05" fill="#9B8F63" fill-rule="nonzero"></path>
                </g>
            </g>
        </g>
    </g>
</svg>