<?xml version="1.0" encoding="UTF-8"?>
<svg width="177px" height="122px" viewBox="0 0 177 122" version="1.1" xmlns="http://www.w3.org/2000/svg" xmlns:xlink="http://www.w3.org/1999/xlink">
    <title>Group 2@2x</title>
    <g id="5.-GETTING-STARTED" stroke="none" stroke-width="1" fill="none" fill-rule="evenodd">
        <g id="5.1-Our-Process" transform="translate(-324.000000, -6214.000000)">
            <g id="Group-4" transform="translate(323.000000, 6210.000000)">
                <g id="Group-2" transform="translate(1.000000, 4.000000)">
                    <path d="M130.182,0.54 C138.666,0.54 145.449,2.136 150.531,5.328 C155.613,8.52 158.154,12.888 158.154,18.432 C158.154,22.128 156.873,25.131 154.311,27.441 C151.749,29.751 148.536,30.906 144.672,30.906 C141.396,30.906 138.54,30.045 136.104,28.323 C133.7695,26.67275 132.245031,24.4631927 131.530594,21.6943281 L131.442,21.33 L131.694,21.33 L131.90925,21.491 C132.27675,21.7476667 132.688,21.946 133.143,22.086 C133.689,22.254 134.256,22.338 134.844,22.338 C136.692,22.338 138.204,21.54 139.38,19.944 C140.556,18.348 141.144,16.29 141.144,13.77 C141.144,10.41 140.157,7.743 138.183,5.769 C136.209,3.795 133.542,2.808 130.182,2.808 C123.966,2.808 119.199,6.105 115.881,12.699 C112.563,19.293 110.904,28.554 110.904,40.482 C110.904,41.406 110.925,42.519 110.967,43.821 C111.009,45.123 111.072,46.488 111.156,47.916 C112.92,43.716 115.608,40.482 119.22,38.214 C122.832,35.946 127.116,34.812 132.072,34.812 C140.052,34.812 146.52,37.164 151.476,41.868 C155.639788,45.8200696 158.05447,50.9579729 158.720048,57.28171 L133.243912,82.7585246 C133.273476,82.6948377 133.302838,82.6306629 133.332,82.566 C135.264,78.282 136.23,72.108 136.23,64.044 C136.23,56.064 135.243,49.974 133.269,45.774 C131.295,41.574 128.418,39.474 124.638,39.474 C120.942,39.474 118.065,41.637 116.007,45.963 C113.949,50.289 112.92,56.316 112.92,64.044 C112.92,72.024 113.949,78.177 116.007,82.503 C118.065,86.829 121.026,88.992 124.89,88.992 C125.767328,88.992 126.594959,88.8713078 127.372893,88.6299234 L124.742,91.259 L124.326914,91.2563481 C113.661374,91.1175758 104.882069,87.0237931 97.989,78.975 C90.975,70.785 87.468,60.39 87.468,47.79 C87.468,34.35 91.458,23.115 99.438,14.085 C107.418,5.055 117.666,0.54 130.182,0.54 Z" id="Combined-Shape" fill="#9B8F63" fill-rule="nonzero"></path>
                    <line x1="95" y1="120" x2="175.5" y2="39.5" id="Line-3-Copy-4" stroke="#9B8F63" stroke-width="2" stroke-linecap="square"></line>
                    <path d="M40.47,91.26 C52.23,91.26 61.869,87.039 69.387,78.597 C76.905,70.155 80.664,59.256 80.664,45.9 C80.664,32.544 76.905,21.645 69.387,13.203 C61.869,4.761 52.23,0.54 40.47,0.54 C28.71,0.54 19.092,4.74 11.616,13.14 C4.14,21.54 0.402,32.46 0.402,45.9 C0.402,59.34 4.14,70.26 11.616,78.66 C19.092,87.06 28.71,91.26 40.47,91.26 Z M40.47,88.866 C35.346,88.866 31.671,85.548 29.445,78.912 C27.219,72.276 26.106,61.272 26.106,45.9 L26.1069926,45.1045033 C26.1447102,30.0651448 27.2573793,19.3053103 29.445,12.825 C31.671,6.231 35.346,2.934 40.47,2.934 C45.594,2.934 49.269,6.21 51.495,12.762 C53.721,19.314 54.834,30.36 54.834,45.9 C54.834,61.356 53.721,72.381 51.495,78.975 C49.269,85.569 45.594,88.866 40.47,88.866 Z" id="06" fill="#9B8F63" fill-rule="nonzero"></path>
                </g>
            </g>
        </g>
    </g>
</svg>