<?xml version="1.0" encoding="UTF-8"?>
<svg width="160px" height="114px" viewBox="0 0 160 114" version="1.1" xmlns="http://www.w3.org/2000/svg" xmlns:xlink="http://www.w3.org/1999/xlink">
    <title>Group 3@2x</title>
    <g id="5.-GETTING-STARTED" stroke="none" stroke-width="1" fill="none" fill-rule="evenodd">
        <g id="5.1-Our-Process" transform="translate(-1158.000000, -7393.000000)">
            <g id="Group-5" transform="translate(338.000000, 7382.000000)">
                <g id="Group-3" transform="translate(820.000000, 11.000000)">
                    <path d="M88.496,0.414 L88.7335625,0.5369375 C89.6286875,0.976479167 90.7885,1.2925 92.213,1.485 C93.767,1.695 95.846,1.8 98.45,1.8 L98.45,1.8 L152.504,1.8 L152.504,2.052 L135.242,29.646 L134.83556,30.2902971 C130.27412,37.6319657 127.2386,46.3212 125.729,56.358 C125.24085,59.6035359 124.916401,62.8988036 124.755653,66.2438031 L101.817499,89.1834299 C102.889747,80.5322607 105.379247,72.0264508 109.286,63.666 C113.486,54.678 121.256,43.086 132.596,28.89 L132.596,28.89 L137.258,23.094 L102.608,23.094 L102.137084,23.097821 C98.246182,23.1615044 95.1901538,24.0212308 92.969,25.677 C90.659,27.399 88.37,30.654 86.102,35.442 L86.102,35.442 L85.85,35.442 L88.496,0.414 Z" id="Combined-Shape" fill="#9B8F63" fill-rule="nonzero"></path>
                    <path d="M40.49,91.26 C52.25,91.26 61.889,87.039 69.407,78.597 C76.925,70.155 80.684,59.256 80.684,45.9 C80.684,32.544 76.925,21.645 69.407,13.203 C61.889,4.761 52.25,0.54 40.49,0.54 C28.73,0.54 19.112,4.74 11.636,13.14 C4.16,21.54 0.422,32.46 0.422,45.9 C0.422,59.34 4.16,70.26 11.636,78.66 C19.112,87.06 28.73,91.26 40.49,91.26 Z M40.49,88.866 C35.366,88.866 31.691,85.548 29.465,78.912 C27.239,72.276 26.126,61.272 26.126,45.9 C26.126,30.444 27.239,19.419 29.465,12.825 C31.691,6.231 35.366,2.934 40.49,2.934 C45.614,2.934 49.289,6.21 51.515,12.762 C53.741,19.314 54.854,30.36 54.854,45.9 L54.8530074,46.6954967 C54.8152898,61.7348552 53.7026207,72.4946897 51.515,78.975 C49.289,85.569 45.614,88.866 40.49,88.866 Z" id="07" fill="#9B8F63" fill-rule="nonzero"></path>
                    <line x1="78" y1="112" x2="158.5" y2="31.5" id="Line-3-Copy-3" stroke="#9B8F63" stroke-width="2" stroke-linecap="square"></line>
                </g>
            </g>
        </g>
    </g>
</svg>