<?xml version="1.0" encoding="UTF-8"?>
<svg width="177px" height="122px" viewBox="0 0 177 122" version="1.1" xmlns="http://www.w3.org/2000/svg" xmlns:xlink="http://www.w3.org/1999/xlink">
    <title>Group 2@2x</title>
    <g id="5.-GETTING-STARTED" stroke="none" stroke-width="1" fill="none" fill-rule="evenodd">
        <g id="5.1-Our-Process" transform="translate(-341.000000, -8400.000000)">
            <g id="Group-4" transform="translate(340.000000, 8396.000000)">
                <g id="Group-2" transform="translate(1.000000, 4.000000)">
                    <path d="M120.606,0.54 C129.258,0.54 136.356,2.283 141.9,5.769 C147.444,9.255 150.216,13.812 150.216,19.44 C150.216,23.808 148.452,27.462 144.924,30.402 C141.396,33.342 136.944,35.064 131.568,35.568 C139.8,38.424 145.974,42.162 150.09,46.782 C153.467475,50.5730429 155.459219,54.9579704 156.065232,59.9367824 L138.160041,77.8429242 C138.385347,76.7916986 138.498,75.6780572 138.498,74.502 C138.498,70.974 137.469,68.034 135.411,65.682 C133.415364,63.4012727 129.662284,61.0810523 124.15176,58.7213388 L123.63,58.5 L108.006,51.822 L107.639169,52.0918006 C105.465407,53.7378283 103.781684,55.8738947 102.588,58.5 C101.328,61.272 100.698,64.506 100.698,68.202 C100.698,74.334 102.63,79.332 106.494,83.196 C110.358,87.06 115.356,88.992 121.488,88.992 C123.806347,88.992 125.918346,88.721169 127.823998,88.1795069 L124.8339,91.1695328 C123.742724,91.2298443 122.627424,91.26 121.488,91.26 C110.904,91.26 102.378,89.286 95.91,85.338 C89.442,81.39 86.208,76.056 86.208,69.336 C86.208,64.632 88.014,60.663 91.626,57.429 C95.238,54.195 100.236,52.074 106.62,51.066 C101.496,48.798 97.422,45.543 94.398,41.301 C91.374,37.059 89.862,32.376 89.862,27.252 C89.862,19.104 92.697,12.615 98.367,7.785 C104.037,2.955 111.45,0.54 120.606,0.54 Z M120.606,2.682 C116.406,2.682 113.025,3.9 110.463,6.336 C107.901,8.772 106.62,12.048 106.62,16.164 C106.704,19.356 107.67,22.065 109.518,24.291 C111.29208,26.42796 114.111254,28.3133232 117.975523,29.9470896 L118.464,30.15 L130.056,34.938 C132.324,33.006 134.004,30.717 135.096,28.071 C136.188,25.425 136.734,22.422 136.734,19.062 C136.734,14.022 135.306,10.032 132.45,7.092 C129.594,4.152 125.646,2.682 120.606,2.682 Z" id="Combined-Shape" fill="#9B8F63" fill-rule="nonzero"></path>
                    <line x1="95" y1="120" x2="175.5" y2="39.5" id="Line-3-Copy-4" stroke="#9B8F63" stroke-width="2" stroke-linecap="square"></line>
                    <path d="M40.47,91.26 C52.23,91.26 61.869,87.039 69.387,78.597 C76.905,70.155 80.664,59.256 80.664,45.9 C80.664,32.544 76.905,21.645 69.387,13.203 C61.869,4.761 52.23,0.54 40.47,0.54 C28.71,0.54 19.092,4.74 11.616,13.14 C4.14,21.54 0.402,32.46 0.402,45.9 C0.402,59.34 4.14,70.26 11.616,78.66 C19.092,87.06 28.71,91.26 40.47,91.26 Z M40.47,88.866 C35.346,88.866 31.671,85.548 29.445,78.912 C27.219,72.276 26.106,61.272 26.106,45.9 L26.1069926,45.1045033 C26.1447102,30.0651448 27.2573793,19.3053103 29.445,12.825 C31.671,6.231 35.346,2.934 40.47,2.934 C45.594,2.934 49.269,6.21 51.495,12.762 C53.721,19.314 54.834,30.36 54.834,45.9 C54.834,61.356 53.721,72.381 51.495,78.975 C49.269,85.569 45.594,88.866 40.47,88.866 Z" id="08" fill="#9B8F63" fill-rule="nonzero"></path>
                </g>
            </g>
        </g>
    </g>
</svg>