<?xml version="1.0" encoding="UTF-8" standalone="no"?>
<!DOCTYPE svg PUBLIC "-//W3C//DTD SVG 1.1//EN" "http://www.w3.org/Graphics/SVG/1.1/DTD/svg11.dtd">
<svg width="100%" height="100%" viewBox="0 0 36 33" version="1.1" xmlns="http://www.w3.org/2000/svg" xmlns:xlink="http://www.w3.org/1999/xlink" xml:space="preserve" xmlns:serif="http://www.serif.com/" style="fill-rule:evenodd;clip-rule:evenodd;stroke-linejoin:round;stroke-miterlimit:2;">
    <g>
        <g transform="matrix(1,0,0,0.929674,-0.0398622,0.723125)">
            <path d="M35.61,14.26C35.544,13.47 35.148,12.744 34.52,12.26L31.44,9.84L31.44,2.89C31.44,2.341 30.989,1.89 30.44,1.89L26.23,1.89C25.681,1.89 25.23,2.341 25.23,2.89L25.23,4.89L18.945,-0.021C17.751,-0.947 17.797,-0.459 16.604,0.467L1.09,12.28C0.403,12.797 -0.001,13.609 -0.001,14.468C-0.001,15.069 0.196,15.653 0.56,16.13L0.76,16.37C1.649,17.279 2.98,17.609 4.19,17.22L4.19,32C4.19,32.549 4.641,33 5.19,33L30.4,33C30.949,33 31.4,32.549 31.4,32L31.4,17.22C32.606,17.619 33.941,17.288 34.82,16.37C35.37,15.811 35.657,15.043 35.61,14.26ZM27.27,3.86L29.37,3.86L29.37,8.18L27.27,6.53L27.27,3.86ZM22.07,31L13.57,31L13.57,23.3L22.07,23.3L22.07,31ZM29.37,31L24.14,31L24.14,22.3C24.14,21.751 23.689,21.3 23.14,21.3L12.52,21.3C11.971,21.3 11.52,21.751 11.52,22.3L11.52,31L6.26,31L6.26,15.83L17.88,6.71L29.37,15.82L29.37,31ZM33.28,15.07C32.89,15.472 32.255,15.519 31.81,15.18L18.56,4.7C18.161,4.391 17.599,4.391 17.2,4.7L3.81,15.22C3.365,15.559 2.73,15.512 2.34,15.11C1.984,14.753 1.984,14.167 2.34,13.81L2.41,13.75L17.2,2.17C17.599,1.861 18.161,1.861 18.56,2.17L33.17,13.75C33.546,14.054 33.621,14.606 33.34,15L33.28,15.07Z" style="fill:rgb(123,123,123);fill-rule:nonzero;"/>
        </g>
        <path d="M21,11.59L14.6,11.59C14.051,11.59 13.6,12.041 13.6,12.59L13.6,18.39C13.6,18.939 14.051,19.39 14.6,19.39L21,19.39C21.549,19.39 22,18.939 22,18.39L22,12.59C22,12.041 21.549,11.59 21,11.59ZM20,17.38L15.65,17.38L15.65,13.52L20,13.52L20,17.38Z" style="fill:rgb(123,123,123);fill-rule:nonzero;"/>
        <ellipse cx="18.92" cy="26.21" rx="1.04" ry="1" style="fill:rgb(123,123,123);"/>
    </g>
</svg>
