<svg viewBox="0 0 35.62 33" xmlns="http://www.w3.org/2000/svg"><g fill="#8c8c8c"><path d="m35.61 14.26a2.82 2.82 0 0 0 -1.09-2l-3.08-2.42v-6.95a1 1 0 0 0 -1-1h-4.21a1 1 0 0 0 -1 1v2l-5.31-4.19a3.32 3.32 0 0 0 -4.07 0l-14.76 11.58a2.74 2.74 0 0 0 -.53 3.85l.2.24a3.36 3.36 0 0 0 3.43.85v14.78a1 1 0 0 0 1 1h25.21a1 1 0 0 0 1-1v-14.78a3.3 3.3 0 0 0 3.42-.85 2.77 2.77 0 0 0 .79-2.11zm-8.34-10.4h2.1v4.32l-2.1-1.65zm-5.2 27.14h-8.5v-7.7h8.5zm7.3 0h-5.23v-8.7a1 1 0 0 0 -1-1h-10.62a1 1 0 0 0 -1 1v8.7h-5.26v-15.17l11.62-9.12 11.49 9.11zm3.91-15.93a1.11 1.11 0 0 1 -1.47.11l-13.25-10.48a1.11 1.11 0 0 0 -1.36 0l-13.39 10.52a1.11 1.11 0 0 1 -1.47-.11.92.92 0 0 1 0-1.3l.07-.06 14.79-11.58a1.11 1.11 0 0 1 1.36 0l14.61 11.58a.92.92 0 0 1 .17 1.25z"/><path d="m21 11.59h-6.4a1 1 0 0 0 -1 1v5.8a1 1 0 0 0 1 1h6.4a1 1 0 0 0 1-1v-5.8a1 1 0 0 0 -1-1zm-1 5.79h-4.35v-3.86h4.35z"/><ellipse cx="18.92" cy="26.21" rx="1.04" ry="1"/></g></svg>