<?xml version="1.0" encoding="UTF-8"?>
<svg width="25px" height="25px" viewBox="0 0 25 25" version="1.1" xmlns="http://www.w3.org/2000/svg" xmlns:xlink="http://www.w3.org/1999/xlink">
    <title>049-bathtub@2x</title>
    <defs>
        <filter id="filter-1">
            <feColorMatrix in="SourceGraphic" type="matrix" values="0 0 0 0 0.164317 0 0 0 0 0.164317 0 0 0 0 0.164317 0 0 0 1.000000 0"></feColorMatrix>
        </filter>
    </defs>
    <g id="1.0-HOME-PAGE" stroke="none" stroke-width="1" fill="none" fill-rule="evenodd">
        <g id="1.0-Home-Page-Theme-(Gold-Grey)-1800px" transform="translate(-1043.000000, -1090.000000)">
            <g id="1.-HERO" transform="translate(-92.727727, -110.000000)">
                <g id="SELECTOR" transform="translate(152.727727, 1091.000000)">
                    <g id="Group-4" transform="translate(260.000000, 98.000000)">
                        <g id="049-bathtub" transform="translate(712.000000, 0.000000)" filter="url(#filter-1)">
                            <g transform="translate(11.000000, 11.000000)">
                                <path d="M22.5600463,11.6423365 L4.34776054,11.6423365 L4.34776054,2.17388027 C4.34776054,1.77432107 4.6728281,1.44925351 5.07238729,1.44925351 L8.01920277,1.44925351 C8.41876196,1.44925351 8.74382952,1.77432107 8.74382952,2.17388027 L8.74382952,2.97019676 C8.04954047,3.10893863 7.40761778,3.44622823 6.88820533,3.95390174 C6.18454444,4.64171746 5.79701405,5.55363608 5.79701405,6.5216408 C5.79701405,6.92182801 6.1214536,7.24626756 6.5216408,7.24626756 L12.3669633,7.24626756 C12.7671505,7.24626756 13.0915901,6.92182801 13.0915901,6.5216408 C13.0915901,4.77195704 11.8448456,3.30806607 10.193083,2.97140448 L10.193083,2.17388027 C10.193083,0.975202688 9.21788035,0 8.01920277,0 L5.07238729,0 C3.87370971,0 2.89850702,0.975202688 2.89850702,2.17388027 L2.89850702,11.6423365 L2.17388027,11.6423365 C0.975202688,11.6423365 0,12.6175392 0,13.8162168 L0,15.2654703 C0,15.6656575 0.324439553,15.9900971 0.724626756,15.9900971 L1.58277807,15.9900971 L2.70904128,21.4828162 C2.86763792,22.3966672 3.5746321,23.0902316 4.45998107,23.2498427 C4.74896222,24.1114722 5.56397408,24.7339266 6.5216408,24.7339266 C7.09916833,24.7339266 7.6494982,24.5118527 8.07132758,24.108622 C8.31900501,23.8718623 8.50315682,23.5908521 8.61552228,23.2846731 L16.1625583,23.2846731 C16.4616359,24.1281869 17.2675657,24.7339266 18.2122858,24.7339266 C19.1699525,24.7339266 19.9849644,24.1114722 20.2739938,23.249891 C21.1592945,23.0902799 21.866337,22.3967638 22.0249336,21.4829128 L23.1511968,15.9900971 L24.0092998,15.9900971 C24.4094871,15.9900971 24.7339266,15.6656575 24.7339266,15.2654703 L24.7339266,13.8162168 C24.7339266,12.6175392 23.7587239,11.6423365 22.5600463,11.6423365 Z M11.5181838,5.79701405 L7.37839117,5.79701405 C7.69118839,4.96214741 8.52209374,4.34776054 9.46845628,4.34776054 C10.4131763,4.34776054 11.2191062,4.9535002 11.5181838,5.79701405 Z M13.0915901,13.0915901 L17.487659,13.0915901 L17.487659,17.4393506 L13.0915901,17.4393506 L13.0915901,13.0915901 Z M1.44925351,14.5408436 L1.44925351,13.8162168 C1.44925351,13.4166576 1.77432107,13.0915901 2.17388027,13.0915901 L11.6423365,13.0915901 L11.6423365,14.5408436 C10.9394969,14.5408436 1.90586499,14.5408436 1.44925351,14.5408436 Z M20.6027812,21.2035451 C20.6009937,21.2122889 20.5993513,21.2211293 20.5978537,21.2299215 C20.5394005,21.5807857 20.2388253,21.8354196 19.8831302,21.8354196 L19.6615393,21.8354196 C19.2613521,21.8354196 18.9369126,22.1598591 18.9369126,22.5600463 C18.9369126,22.9596055 18.611845,23.2846731 18.2122858,23.2846731 C17.8127266,23.2846731 17.487659,22.9596055 17.487659,22.5600463 C17.487659,22.1598591 17.1632195,21.8354196 16.7630323,21.8354196 L8.01920277,21.8354196 C7.61901556,21.8354196 7.29457601,22.1598591 7.29457601,22.5600463 C7.29457601,22.9460792 6.93337373,23.2846731 6.5216408,23.2846731 C6.12208161,23.2846731 5.79701405,22.9596055 5.79701405,22.5600463 C5.79701405,22.1598591 5.4725745,21.8354196 5.07238729,21.8354196 L4.85079643,21.8354196 C4.49514962,21.8354196 4.19452613,21.5807857 4.13607291,21.2299698 C4.13462365,21.2211293 4.13298117,21.2123372 4.13114544,21.2035451 L3.06217605,15.9900971 L11.6423365,15.9900971 L11.6423365,18.1639774 C11.6423365,18.5641646 11.9667761,18.8886041 12.3669633,18.8886041 L18.2122858,18.8886041 C18.612473,18.8886041 18.9369126,18.5641646 18.9369126,18.1639774 L18.9369126,15.9900971 L21.6717506,15.9900971 L20.6027812,21.2035451 Z M23.2846731,14.5408436 C22.6206734,14.5408436 19.4741508,14.5408436 18.9369126,14.5408436 L18.9369126,13.0915901 L22.5600463,13.0915901 C22.9596055,13.0915901 23.2846731,13.4166576 23.2846731,13.8162168 L23.2846731,14.5408436 Z" id="Shape" fill="#000000" fill-rule="nonzero"></path>
                            </g>
                        </g>
                    </g>
                </g>
            </g>
        </g>
    </g>
</svg>