<?xml version="1.0" encoding="UTF-8"?>
<svg width="20px" height="20px" viewBox="0 0 20 20" version="1.1" xmlns="http://www.w3.org/2000/svg" xmlns:xlink="http://www.w3.org/1999/xlink">
    <title>Bathtub@2x</title>
    <g id="2.-HOME-DESIGNS*" stroke="none" stroke-width="1" fill="none" fill-rule="evenodd">
        <g id="2.0-NEW-HOME-DESIGNS-B" transform="translate(-1121.000000, -1633.000000)" fill="#7B7B7B" fill-rule="nonzero">
            <g id="CONTENT" transform="translate(359.000000, 1278.000000)">
                <g id="Group-24" transform="translate(551.000000, 150.000000)">
                    <g id="Group-21" transform="translate(179.000000, 205.000000)">
                        <g id="Group-2" transform="translate(32.000000, 0.000000)">
                            <path d="M18.2421875,9.4140625 L3.515625,9.4140625 L3.515625,1.7578125 C3.515625,1.43472656 3.77847656,1.171875 4.1015625,1.171875 L6.484375,1.171875 C6.80746094,1.171875 7.0703125,1.43472656 7.0703125,1.7578125 L7.0703125,2.40171875 C6.50890625,2.51390625 5.98984375,2.78664062 5.56984375,3.19714844 C5.00085937,3.75332031 4.6875,4.49070313 4.6875,5.2734375 C4.6875,5.59703125 4.94984375,5.859375 5.2734375,5.859375 L10,5.859375 C10.3235938,5.859375 10.5859375,5.59703125 10.5859375,5.2734375 C10.5859375,3.85863281 9.5778125,2.67492187 8.2421875,2.40269531 L8.2421875,1.7578125 C8.2421875,0.788554688 7.45363281,0 6.484375,0 L4.1015625,0 C3.13230469,0 2.34375,0.788554688 2.34375,1.7578125 L2.34375,9.4140625 L1.7578125,9.4140625 C0.788554688,9.4140625 0,10.2026172 0,11.171875 L0,12.34375 C0,12.6673438 0.26234375,12.9296875 0.5859375,12.9296875 L1.27984375,12.9296875 L2.19054687,17.3711328 C2.31878906,18.1100781 2.89046875,18.6708984 3.60636719,18.7999609 C3.84003906,19.4966797 4.4990625,20 5.2734375,20 C5.74042969,20 6.18542969,19.8204297 6.52652344,19.494375 C6.72679688,19.3029297 6.87570313,19.0757031 6.9665625,18.828125 L13.0691406,18.828125 C13.3109766,19.5101953 13.9626563,20 14.7265625,20 C15.5009375,20 16.1599609,19.4966797 16.3936719,18.8 C17.1095312,18.6709375 17.68125,18.1101562 17.8094922,17.3712109 L18.7201953,12.9296875 L19.4140625,12.9296875 C19.7376563,12.9296875 20,12.6673438 20,12.34375 L20,11.171875 C20,10.2026172 19.2114453,9.4140625 18.2421875,9.4140625 Z M9.31367188,4.6875 L5.96621094,4.6875 C6.21914063,4.01242188 6.89101563,3.515625 7.65625,3.515625 C8.42015625,3.515625 9.07183594,4.00542969 9.31367188,4.6875 Z M10.5859375,10.5859375 L14.140625,10.5859375 L14.140625,14.1015625 L10.5859375,14.1015625 L10.5859375,10.5859375 Z M1.171875,11.7578125 L1.171875,11.171875 C1.171875,10.8487891 1.43472656,10.5859375 1.7578125,10.5859375 L9.4140625,10.5859375 L9.4140625,11.7578125 C8.84574219,11.7578125 1.54109375,11.7578125 1.171875,11.7578125 Z M16.6595313,17.1453125 C16.6580859,17.1523828 16.6567578,17.1595313 16.6555469,17.1666406 C16.6082813,17.4503516 16.3652344,17.65625 16.0776172,17.65625 L15.8984375,17.65625 C15.5748438,17.65625 15.3125,17.9185938 15.3125,18.2421875 C15.3125,18.5652734 15.0496484,18.828125 14.7265625,18.828125 C14.4034766,18.828125 14.140625,18.5652734 14.140625,18.2421875 C14.140625,17.9185938 13.8782813,17.65625 13.5546875,17.65625 L6.484375,17.65625 C6.16078125,17.65625 5.8984375,17.9185938 5.8984375,18.2421875 C5.8984375,18.5543359 5.60636719,18.828125 5.2734375,18.828125 C4.95035156,18.828125 4.6875,18.5652734 4.6875,18.2421875 C4.6875,17.9185938 4.42515625,17.65625 4.1015625,17.65625 L3.92238281,17.65625 C3.63480469,17.65625 3.39171875,17.4503516 3.34445313,17.1666797 C3.34328125,17.1595313 3.34195313,17.1524219 3.34046875,17.1453125 L2.47609375,12.9296875 L9.4140625,12.9296875 L9.4140625,14.6875 C9.4140625,15.0110938 9.67640625,15.2734375 10,15.2734375 L14.7265625,15.2734375 C15.0501563,15.2734375 15.3125,15.0110938 15.3125,14.6875 L15.3125,12.9296875 L17.5239063,12.9296875 L16.6595313,17.1453125 Z M18.828125,11.7578125 C18.2912109,11.7578125 15.7469141,11.7578125 15.3125,11.7578125 L15.3125,10.5859375 L18.2421875,10.5859375 C18.5652734,10.5859375 18.828125,10.8487891 18.828125,11.171875 L18.828125,11.7578125 Z" id="Bathtub"></path>
                        </g>
                    </g>
                </g>
            </g>
        </g>
    </g>
</svg>