<?xml version="1.0" encoding="UTF-8"?>
<svg width="26px" height="23px" viewBox="0 0 26 23" version="1.1" xmlns="http://www.w3.org/2000/svg" xmlns:xlink="http://www.w3.org/1999/xlink">
    <title>028-bed@2x</title>
    <defs>
        <filter id="filter-1">
            <feColorMatrix in="SourceGraphic" type="matrix" values="0 0 0 0 0.164317 0 0 0 0 0.164317 0 0 0 0 0.164317 0 0 0 1.000000 0"></feColorMatrix>
        </filter>
    </defs>
    <g id="1.0-HOME-PAGE" stroke="none" stroke-width="1" fill="none" fill-rule="evenodd">
        <g id="1.0-Home-Page-Theme-(Gold-Grey)-1800px" transform="translate(-908.000000, -1093.000000)">
            <g id="1.-HERO" transform="translate(-92.727727, -110.000000)">
                <g id="SELECTOR" transform="translate(152.727727, 1091.000000)">
                    <g id="Group-4" transform="translate(260.000000, 98.000000)">
                        <g id="028-bed" transform="translate(576.000000, 0.000000)" filter="url(#filter-1)">
                            <g transform="translate(12.500000, 14.000000)">
                                <path d="M21.9892339,6.45887927 L21.9892339,2.18697066 C21.9892339,1.59946838 21.7487695,1.04613904 21.3121099,0.629063954 C20.8874661,0.223412251 20.3333229,0 19.751937,0 L5.16071382,0 C3.95386752,0 2.97201574,0.981098663 2.97201574,2.18701927 L2.97201574,6.45727514 C-0.230009019,17.4583355 0.000774552925,16.6024565 0.00515282473,16.7818766 L0.00515282473,21.1409918 C0.00515282473,21.5435811 0.331820549,21.8699983 0.73471885,21.8699983 L24.177932,21.8699983 C24.5808303,21.8699983 24.907498,21.5435811 24.907498,21.1409918 L24.907498,16.7670019 C24.907498,16.5163194 24.9079845,16.7621895 21.9892339,6.45887927 Z M4.43114779,2.18697066 C4.43114779,1.78501333 4.75844793,1.45796424 5.16071382,1.45796424 L19.751937,1.45796424 C20.1664621,1.45796424 20.5301505,1.79862417 20.5301505,2.18697066 L20.5301505,5.83195417 L19.022371,5.83195417 L19.022371,5.10294774 C19.022371,3.89702714 18.0405192,2.91592847 16.8336729,2.91592847 L13.9154088,2.91592847 C13.3552333,2.91592847 12.8438511,3.12752846 12.4562768,3.47460493 C12.0687511,3.12747985 11.5573203,2.91592847 10.9971447,2.91592847 L8.07888062,2.91592847 C6.87203432,2.91592847 5.89018255,3.89702714 5.89018255,5.10294774 L5.89018255,5.83195417 L4.43114779,5.83195417 L4.43114779,2.18697066 Z M17.563239,5.10299635 L17.563239,6.5610092 C17.563239,6.96296653 17.2359388,7.29001562 16.8336729,7.29001562 L13.9154088,7.29001562 C13.5131429,7.29001562 13.1858428,6.96296653 13.1858428,6.5610092 L13.1858428,5.10299635 C13.1858428,4.70103902 13.5131429,4.37398993 13.9154088,4.37398993 L16.8336729,4.37398993 C17.2359875,4.37398993 17.563239,4.70099041 17.563239,5.10299635 Z M11.7267594,5.10299635 L11.7267594,6.5610092 C11.7267594,6.96296653 11.3994593,7.29001562 10.9971934,7.29001562 L8.07892927,7.29001562 C7.67666339,7.29001562 7.34936325,6.96296653 7.34936325,6.5610092 L7.34936325,5.10299635 C7.34936325,4.70103902 7.67666339,4.37398993 8.07892927,4.37398993 L10.9971934,4.37398993 C11.3994593,4.37398993 11.7267594,4.70099041 11.7267594,5.10299635 Z M4.24940087,7.28996701 L6.0157903,7.28996701 C6.31696675,8.13845719 7.12787134,8.74797986 8.07897792,8.74797986 L10.997242,8.74797986 C11.5574176,8.74797986 12.0687997,8.53637988 12.4563741,8.1893034 C12.8438998,8.53642849 13.3553306,8.74797986 13.9155061,8.74797986 L16.8337702,8.74797986 C17.7848768,8.74797986 18.59583,8.1385058 18.8969578,7.28996701 L20.7094651,7.28996701 L21.9372784,11.5840419 C21.0878937,11.7561218 20.1764834,11.5841391 19.4635549,11.1092665 C17.8881554,10.059822 15.8522103,10.059822 14.2768108,11.1092665 C13.1931399,11.8312245 11.7925794,11.8311759 10.7088112,11.1092665 C9.13346036,10.059822 7.09746668,10.059822 5.52206718,11.1092665 C4.7792204,11.6040692 3.87102089,11.7664758 3.00679868,11.5645978 L4.24940087,7.28996701 Z M2.59932752,12.9661743 C3.87822071,13.2872929 5.22989051,13.0561516 6.33141505,12.3223814 C7.41508597,11.6004721 8.81564647,11.6004235 9.89936604,12.3223814 C10.6872117,12.8471766 11.5898168,13.1095742 12.4927624,13.1095256 C13.3954647,13.109477 14.298459,12.8470794 15.0861101,12.3223814 C16.1698783,11.6004721 17.5703901,11.6004721 18.6541097,12.3223814 C19.7174946,13.0307285 21.0826884,13.2748973 22.3388632,12.9889238 L23.2106745,16.0379469 L1.70635466,16.0379469 L2.59932752,12.9661743 Z M23.448366,20.412034 L1.46428488,20.412034 L1.46428488,17.4960083 L23.448366,17.4960083 L23.448366,20.412034 Z" id="Shape" fill="#000000" fill-rule="nonzero"></path>
                            </g>
                        </g>
                    </g>
                </g>
            </g>
        </g>
    </g>
</svg>