<?xml version="1.0" encoding="UTF-8"?>
<svg width="20px" height="17px" viewBox="0 0 20 17" version="1.1" xmlns="http://www.w3.org/2000/svg" xmlns:xlink="http://www.w3.org/1999/xlink">
    <title>Bed@2x</title>
    <g id="2.-HOME-DESIGNS*" stroke="none" stroke-width="1" fill="none" fill-rule="evenodd">
        <g id="2.0-NEW-HOME-DESIGNS-B" transform="translate(-1089.000000, -1636.000000)" fill="#7B7B7B" fill-rule="nonzero">
            <g id="CONTENT" transform="translate(359.000000, 1278.000000)">
                <g id="Group-24" transform="translate(551.000000, 150.000000)">
                    <g id="Group-21" transform="translate(179.000000, 205.000000)">
                        <g id="Group-18" transform="translate(0.000000, 3.000000)">
                            <path d="M17.6567184,5.02061986 L17.6567184,1.69997733 C17.6567184,1.24329971 17.4636324,0.813185421 17.1130074,0.488984366 C16.7720308,0.173662943 16.3270698,0 15.8602337,0 L4.14390383,0 C3.17484118,0 2.38644262,0.762628193 2.38644262,1.70001511 L2.38644262,5.01937294 C-0.184690585,13.5707237 0.00062194358,12.9054314 0.00413756912,13.0448983 L0.00413756912,16.4333283 C0.00413756912,16.7462692 0.266442297,17 0.589957971,17 L19.4141796,17 C19.7376953,17 20,16.7462692 20,16.4333283 L20,13.0333359 C20,12.8384751 20.0003906,13.0295951 17.6567184,5.02061986 Z M3.55808342,1.69997733 C3.55808342,1.38752762 3.82089596,1.13330562 4.14390383,1.13330562 L15.8602337,1.13330562 C16.1930854,1.13330562 16.4851167,1.3981076 16.4851167,1.69997733 L16.4851167,4.53329807 L15.2744133,4.53329807 L15.2744133,3.96662636 C15.2744133,3.02923944 14.4860148,2.26661125 13.5169521,2.26661125 L11.1736705,2.26661125 C10.7238658,2.26661125 10.3132407,2.43109227 10.0020297,2.70088196 C9.6908578,2.43105449 9.28019367,2.26661125 8.83038892,2.26661125 L6.48710731,2.26661125 C5.51804466,2.26661125 4.7296461,3.02923944 4.7296461,3.96662636 L4.7296461,4.53329807 L3.55808342,4.53329807 L3.55808342,1.69997733 Z M14.1027725,3.96666415 L14.1027725,5.10000756 C14.1027725,5.41245727 13.83996,5.66667926 13.5169521,5.66667926 L11.1736705,5.66667926 C10.8506627,5.66667926 10.5878501,5.41245727 10.5878501,5.10000756 L10.5878501,3.96666415 C10.5878501,3.65421444 10.8506627,3.39999244 11.1736705,3.39999244 L13.5169521,3.39999244 C13.8399991,3.39999244 14.1027725,3.65417665 14.1027725,3.96666415 Z M9.41624838,3.96666415 L9.41624838,5.10000756 C9.41624838,5.41245727 9.15343584,5.66667926 8.83042798,5.66667926 L6.48714637,5.66667926 C6.16413851,5.66667926 5.90132597,5.41245727 5.90132597,5.10000756 L5.90132597,3.96666415 C5.90132597,3.65421444 6.16413851,3.39999244 6.48714637,3.39999244 L8.83042798,3.39999244 C9.15343584,3.39999244 9.41624838,3.65417665 9.41624838,3.96666415 Z M3.4121459,5.66664148 L4.83050549,5.66664148 C5.07234147,6.32619036 5.72347438,6.79998489 6.48718543,6.79998489 L8.83046704,6.79998489 C9.2802718,6.79998489 9.69089686,6.63550386 10.0021078,6.36571417 C10.3132798,6.63554165 10.7239439,6.79998489 11.1737487,6.79998489 L13.5170303,6.79998489 C14.2807413,6.79998489 14.9319133,6.32622815 15.1737102,5.66664148 L16.629101,5.66664148 L17.6149996,9.00451428 C16.9329683,9.13827555 16.2011322,9.00458985 15.6286712,8.63546163 C14.363671,7.81970678 12.7288661,7.81970678 11.4638659,8.63546163 C10.5937095,9.19665441 9.46909995,9.19661663 8.59886545,8.63546163 C7.33390431,7.81970678 5.69906031,7.81970678 4.43406012,8.63546163 C3.83757565,9.02008197 3.10831773,9.1463239 2.41437231,8.98940001 L3.4121459,5.66664148 Z M2.08718476,10.0788743 C3.11409898,10.3284864 4.19945071,10.1488155 5.08394303,9.57844083 C5.95409942,9.01728583 7.07870896,9.01724805 7.94890441,9.57844083 C8.58152169,9.98637493 9.30628743,10.190342 10.0313266,10.1903042 C10.7561705,10.1902664 11.4812487,9.98629936 12.1137097,9.57844083 C12.9839442,9.01728583 14.1085147,9.01728583 14.9787102,9.57844083 C15.8325775,10.1290536 16.9287886,10.318851 17.9374606,10.0965579 L18.6374998,12.4666264 L1.3701534,12.4666264 L2.08718476,10.0788743 Z M18.8283592,15.8666944 L1.17577837,15.8666944 L1.17577837,13.6000076 L18.8283592,13.6000076 L18.8283592,15.8666944 Z" id="Bed"></path>
                        </g>
                    </g>
                </g>
            </g>
        </g>
    </g>
</svg>