<?xml version="1.0" encoding="UTF-8" standalone="no"?>
<!DOCTYPE svg PUBLIC "-//W3C//DTD SVG 1.1//EN" "http://www.w3.org/Graphics/SVG/1.1/DTD/svg11.dtd">
<svg width="100%" height="100%" viewBox="0 0 23 18" version="1.1" xmlns="http://www.w3.org/2000/svg" xmlns:xlink="http://www.w3.org/1999/xlink" xml:space="preserve" xmlns:serif="http://www.serif.com/" style="fill-rule:evenodd;clip-rule:evenodd;stroke-linejoin:round;stroke-miterlimit:2;">
    <g id="_2.-HOME-DESIGNS" serif:id="2.-HOME-DESIGNS">
        <g id="_2.0-NEW-HOME-DESIGNS-" serif:id="2.0-NEW-HOME-DESIGNS-">
            <g id="Group-24">
                <g id="Group-21">
                    <g id="Car">
                        <g>
                            <path id="Shape" d="M19.119,7.89L16.817,7.89L13.385,3.415C13.015,2.924 12.427,2.63 11.812,2.63L11.812,1.315L12.469,1.315C12.831,1.315 13.125,1.021 13.125,0.657C13.125,0.294 12.831,0 12.469,0L4.594,0C4.231,0 3.937,0.294 3.937,0.657C3.937,1.021 4.231,1.315 4.594,1.315L5.25,1.315L5.25,2.63C4.634,2.63 4.045,2.925 3.675,3.419L0.394,7.802C0.14,8.141 0,8.562 0,8.986L0,12.492C0,13.58 0.883,14.465 1.969,14.465L2.625,14.465C2.625,15.915 3.803,17.095 5.25,17.095C6.697,17.095 7.875,15.915 7.875,14.465L14.525,14.465C14.525,15.915 15.703,17.095 17.15,17.095C18.597,17.095 19.775,15.915 19.775,14.465L20.431,14.465C21.517,14.465 22.4,13.58 22.4,12.492L22.4,11.177C22.4,9.365 20.928,7.89 19.119,7.89ZM6.562,1.315L10.5,1.315L10.5,2.63L6.562,2.63L6.562,1.315ZM5.25,15.78C4.526,15.78 3.937,15.19 3.937,14.465C3.937,13.74 4.526,13.15 5.25,13.15C5.974,13.15 6.562,13.74 6.562,14.465C6.562,15.19 5.974,15.78 5.25,15.78ZM17.15,15.78C16.426,15.78 15.837,15.19 15.837,14.465C15.837,13.74 16.426,13.15 17.15,13.15C17.874,13.15 18.462,13.74 18.462,14.465C18.462,15.19 17.874,15.78 17.15,15.78ZM21.087,12.492C21.087,12.855 20.793,13.15 20.431,13.15L19.422,13.15C18.967,12.364 18.119,11.835 17.15,11.835C16.181,11.835 15.333,12.364 14.878,13.15L7.522,13.15C7.067,12.364 6.219,11.835 5.25,11.835C4.281,11.835 3.433,12.364 2.978,13.15L1.969,13.15C1.607,13.15 1.312,12.855 1.312,12.492L1.312,11.835L1.969,11.835C2.331,11.835 2.625,11.54 2.625,11.177C2.625,10.814 2.331,10.52 1.969,10.52L1.312,10.52L1.312,8.986C1.312,8.844 1.359,8.704 1.444,8.591L4.725,4.208C4.848,4.043 5.045,3.945 5.25,3.945L11.812,3.945C12.018,3.945 12.214,4.043 12.337,4.208C12.339,4.21 12.341,4.212 12.342,4.214L15.973,8.948C16.098,9.11 16.29,9.205 16.494,9.205L19.119,9.205C19.974,9.205 20.704,9.755 20.975,10.52L20.431,10.52C20.069,10.52 19.775,10.814 19.775,11.177C19.775,11.54 20.069,11.835 20.431,11.835L21.087,11.835L21.087,12.492Z" style="fill:rgb(123,123,123);fill-rule:nonzero;"/>
                            <path id="Shape1" serif:id="Shape" d="M13.425,8.331L11.436,5.58C11.311,5.407 11.114,5.305 10.905,5.305L5.6,5.305C5.391,5.305 5.195,5.407 5.07,5.58L3.08,8.331C2.929,8.54 2.905,8.818 3.017,9.051C3.13,9.284 3.359,9.432 3.611,9.432L12.895,9.432C13.146,9.432 13.376,9.284 13.488,9.051C13.6,8.818 13.576,8.54 13.425,8.331ZM7.59,8.056L4.937,8.056L5.932,6.681L7.59,6.681L7.59,8.056ZM8.916,8.056L8.916,6.681L10.574,6.681L11.568,8.056L8.916,8.056Z" style="fill:rgb(123,123,123);fill-rule:nonzero;"/>
                        </g>
                    </g>
                </g>
            </g>
        </g>
    </g>
</svg>
