<?xml version="1.0" encoding="UTF-8"?>
<svg width="23px" height="18px" viewBox="0 0 23 18" version="1.1" xmlns="http://www.w3.org/2000/svg" xmlns:xlink="http://www.w3.org/1999/xlink">
    <title>Car@2x</title>
    <defs>
        <filter id="filter-1">
            <feColorMatrix in="SourceGraphic" type="matrix" values="0 0 0 0 0.480752 0 0 0 0 0.480752 0 0 0 0 0.480752 0 0 0 1.000000 0"></feColorMatrix>
        </filter>
    </defs>
    <g id="2.-HOME-DESIGNS*" stroke="none" stroke-width="1" fill="none" fill-rule="evenodd">
        <g id="2.0-NEW-HOME-DESIGNS-B" transform="translate(-1152.000000, -1637.000000)">
            <g id="CONTENT" transform="translate(359.000000, 1278.000000)">
                <g id="Group-24" transform="translate(551.000000, 150.000000)">
                    <g id="Group-21" transform="translate(179.000000, 205.000000)">
                        <g id="Car" transform="translate(63.000000, 4.000000)" filter="url(#filter-1)">
                            <g>
                                <path d="M19.1187489,7.88987807 L16.8171052,7.88987807 L13.384918,3.41544055 C13.0148805,2.92350665 12.4274493,2.62995936 11.8124993,2.62995936 L11.8124993,1.31497968 L12.4687493,1.31497968 C12.8311742,1.31497968 13.1249992,1.02059956 13.1249992,0.657489839 C13.1249992,0.294380117 12.8311742,3.41060493e-14 12.4687493,3.41060493e-14 L4.59374973,3.41060493e-14 C4.23132475,3.41060493e-14 3.93749977,0.294380117 3.93749977,0.657489839 C3.93749977,1.02059956 4.23132475,1.31497968 4.59374973,1.31497968 L5.24999969,1.31497968 L5.24999969,2.62995936 C4.63364972,2.62995936 4.04486226,2.9249093 3.67499978,3.41894716 L0.393749977,7.80221276 C0.139824992,8.14143368 0,8.56170119 0,8.98569447 L0,12.4923069 C0,13.5799266 0.883181197,14.4647765 1.96874988,14.4647765 L2.62499984,14.4647765 C2.62499984,15.9149361 3.80257477,17.0947358 5.24999969,17.0947358 C6.6974246,17.0947358 7.87499953,15.9149361 7.87499953,14.4647765 L14.5249991,14.4647765 C14.5249991,15.9149361 15.7025741,17.0947358 17.149999,17.0947358 C18.5974239,17.0947358 19.7749988,15.9149361 19.7749988,14.4647765 L20.4312488,14.4647765 C21.5168175,14.4647765 22.3999987,13.5799266 22.3999987,12.4923069 L22.3999987,11.1773273 C22.3999987,9.36462778 20.92803,7.88987807 19.1187489,7.88987807 Z M6.56249961,1.31497968 L10.4999994,1.31497968 L10.4999994,2.62995936 L6.56249961,2.62995936 L6.56249961,1.31497968 Z M5.24999969,15.7797561 C4.52628723,15.7797561 3.93749977,15.1898563 3.93749977,14.4647765 C3.93749977,13.7396967 4.52628723,13.1497968 5.24999969,13.1497968 C5.97371214,13.1497968 6.56249961,13.7396967 6.56249961,14.4647765 C6.56249961,15.1898563 5.97371214,15.7797561 5.24999969,15.7797561 Z M17.149999,15.7797561 C16.4262865,15.7797561 15.8374991,15.1898563 15.8374991,14.4647765 C15.8374991,13.7396967 16.4262865,13.1497968 17.149999,13.1497968 C17.8737114,13.1497968 18.4624989,13.7396967 18.4624989,14.4647765 C18.4624989,15.1898563 17.8737114,15.7797561 17.149999,15.7797561 Z M21.0874987,12.4923069 C21.0874987,12.8548468 20.793105,13.1497968 20.4312488,13.1497968 L19.4218488,13.1497968 C18.9672426,12.3644909 18.1194552,11.8348171 17.149999,11.8348171 C16.1805428,11.8348171 15.3327553,12.3644909 14.8781491,13.1497968 L7.52184955,13.1497968 C7.06724333,12.3644909 6.21945588,11.8348171 5.24999969,11.8348171 C4.28054349,11.8348171 3.43275605,12.3644909 2.97814982,13.1497968 L1.96874988,13.1497968 C1.60689365,13.1497968 1.31249992,12.8548468 1.31249992,12.4923069 L1.31249992,11.8348171 L1.96874988,11.8348171 C2.33117486,11.8348171 2.62499984,11.540437 2.62499984,11.1773273 C2.62499984,10.8142175 2.33117486,10.5198374 1.96874988,10.5198374 L1.31249992,10.5198374 L1.31249992,8.98569447 C1.31249992,8.84437799 1.35909367,8.70428882 1.44374991,8.59120057 L4.72499972,4.20793497 C4.84824346,4.04325568 5.0445497,3.94493904 5.24999969,3.94493904 L11.8124999,3.94493904 C12.0179493,3.94493904 12.2142555,4.04325568 12.3374993,4.20793497 C12.3390305,4.20999511 12.3406055,4.21201141 12.3421368,4.21407154 L15.9733865,8.94799839 C16.0975928,9.10996005 16.289874,9.20485775 16.493749,9.20485775 L19.1187489,9.20485775 C19.9742801,9.20485775 20.7037238,9.75460692 20.9746237,10.5198374 L20.4312488,10.5198374 C20.0688238,10.5198374 19.7749988,10.8142175 19.7749988,11.1773273 C19.7749988,11.540437 20.0688238,11.8348171 20.4312488,11.8348171 L21.0874987,11.8348171 L21.0874987,12.4923069 Z" id="Shape" fill="#000000" fill-rule="nonzero"></path>
                                <path d="M13.4252685,8.33122757 L11.4358197,5.58035054 C11.3105729,5.40718284 11.1140596,5.30526284 10.9053001,5.30526284 L5.60010346,5.30526284 C5.39134397,5.30526284 5.19483065,5.40718284 5.0695838,5.58035054 L3.08000243,8.33122757 C2.92929064,8.53960651 2.90506357,8.8184079 3.0173569,9.05140718 C3.12969444,9.28440646 3.35932104,9.43157839 3.61052209,9.43157839 L12.8947488,9.43157839 C13.1459499,9.43157839 13.3755765,9.28440646 13.4878698,9.05140718 C13.6002073,8.8184079 13.5759803,8.53960651 13.4252685,8.33122757 Z M7.58955219,8.05613987 L4.93686546,8.05613987 L5.93167825,6.68070136 L7.58955219,6.68070136 L7.58955219,8.05613987 Z M8.91585134,8.05613987 L8.91585134,6.68070136 L10.5737253,6.68070136 L11.5684497,8.05613987 L8.91585134,8.05613987 Z" id="Shape" fill="#000000" fill-rule="nonzero"></path>
                            </g>
                        </g>
                    </g>
                </g>
            </g>
        </g>
    </g>
</svg>