<?xml version="1.0" encoding="UTF-8"?>
<svg width="28px" height="22px" viewBox="0 0 28 22" version="1.1" xmlns="http://www.w3.org/2000/svg" xmlns:xlink="http://www.w3.org/1999/xlink">
    <title>012-car@2x</title>
    <defs>
        <filter id="filter-1">
            <feColorMatrix in="SourceGraphic" type="matrix" values="0 0 0 0 0.164317 0 0 0 0 0.164317 0 0 0 0 0.164317 0 0 0 1.000000 0"></feColorMatrix>
        </filter>
    </defs>
    <g id="1.0-HOME-PAGE" stroke="none" stroke-width="1" fill="none" fill-rule="evenodd">
        <g id="1.0-Home-Page-Theme-(Gold-Grey)-1800px" transform="translate(-1178.000000, -1094.000000)">
            <g id="1.-HERO" transform="translate(-92.727727, -110.000000)">
                <g id="SELECTOR" transform="translate(152.727727, 1091.000000)">
                    <g id="Group-4" transform="translate(260.000000, 98.000000)">
                        <g id="012-car" transform="translate(848.000000, 0.000000)" filter="url(#filter-1)">
                            <g transform="translate(10.000000, 15.000000)">
                                <path d="M23.8984375,9.86234818 L21.0213828,9.86234818 L16.7311484,4.26930094 C16.2686016,3.65438354 15.5343125,3.28744939 14.765625,3.28744939 L14.765625,1.6437247 L15.5859375,1.6437247 C16.0389687,1.6437247 16.40625,1.27574953 16.40625,0.821862348 C16.40625,0.367975169 16.0389687,0 15.5859375,0 L5.7421875,0 C5.28915625,0 4.921875,0.367975169 4.921875,0.821862348 C4.921875,1.27574953 5.28915625,1.6437247 5.7421875,1.6437247 L6.5625,1.6437247 L6.5625,3.28744939 C5.7920625,3.28744939 5.05607813,3.65613684 4.59375,4.27368421 L0.4921875,9.75276653 C0.17478125,10.1767927 0,10.7021271 0,11.2321188 L0,15.6153846 C0,16.9749093 1.10397656,18.0809717 2.4609375,18.0809717 L3.28125,18.0809717 C3.28125,19.8936713 4.75321875,21.3684211 6.5625,21.3684211 C8.37178125,21.3684211 9.84375,19.8936713 9.84375,18.0809717 L18.15625,18.0809717 C18.15625,19.8936713 19.6282187,21.3684211 21.4375,21.3684211 C23.2467813,21.3684211 24.71875,19.8936713 24.71875,18.0809717 L25.5390625,18.0809717 C26.8960234,18.0809717 28,16.9749093 28,15.6153846 L28,13.9716599 C28,11.7057854 26.1600391,9.86234818 23.8984375,9.86234818 Z M8.203125,1.6437247 L13.125,1.6437247 L13.125,3.28744939 L8.203125,3.28744939 L8.203125,1.6437247 Z M6.5625,19.7246964 C5.65785938,19.7246964 4.921875,18.9873215 4.921875,18.0809717 C4.921875,17.1746219 5.65785938,16.437247 6.5625,16.437247 C7.46714063,16.437247 8.203125,17.1746219 8.203125,18.0809717 C8.203125,18.9873215 7.46714063,19.7246964 6.5625,19.7246964 Z M21.4375,19.7246964 C20.5328594,19.7246964 19.796875,18.9873215 19.796875,18.0809717 C19.796875,17.1746219 20.5328594,16.437247 21.4375,16.437247 C22.3421406,16.437247 23.078125,17.1746219 23.078125,18.0809717 C23.078125,18.9873215 22.3421406,19.7246964 21.4375,19.7246964 Z M26.359375,15.6153846 C26.359375,16.0685595 25.9913828,16.437247 25.5390625,16.437247 L24.2773125,16.437247 C23.7090547,15.4556146 22.6493203,14.7935223 21.4375,14.7935223 C20.2256797,14.7935223 19.1659453,15.4556146 18.5976875,16.437247 L9.4023125,16.437247 C8.83405469,15.4556146 7.77432031,14.7935223 6.5625,14.7935223 C5.35067969,14.7935223 4.29094531,15.4556146 3.7226875,16.437247 L2.4609375,16.437247 C2.00861719,16.437247 1.640625,16.0685595 1.640625,15.6153846 L1.640625,14.7935223 L2.4609375,14.7935223 C2.91396875,14.7935223 3.28125,14.4255471 3.28125,13.9716599 C3.28125,13.5177727 2.91396875,13.1497976 2.4609375,13.1497976 L1.640625,13.1497976 L1.640625,11.2321188 C1.640625,11.0554731 1.69886719,10.8803617 1.8046875,10.7390013 L5.90625,5.25991903 C6.06030469,5.05406991 6.3056875,4.93117409 6.5625,4.93117409 L14.765625,4.93117409 C15.0224375,4.93117409 15.2678203,5.05406991 15.421875,5.25991903 C15.4237891,5.2624942 15.4257578,5.26501457 15.4276719,5.26758974 L19.9667344,11.1849987 C20.1219922,11.3874507 20.3623437,11.5060729 20.6171875,11.5060729 L23.8984375,11.5060729 C24.9678516,11.5060729 25.8796563,12.1932594 26.2182813,13.1497976 L25.5390625,13.1497976 C25.0860313,13.1497976 24.71875,13.5177727 24.71875,13.9716599 C24.71875,14.4255471 25.0860313,14.7935223 25.5390625,14.7935223 L26.359375,14.7935223 L26.359375,15.6153846 Z" id="Shape" fill="#000000" fill-rule="nonzero"></path>
                                <path d="M16.7815866,10.4140351 L14.2947755,6.9754386 C14.138217,6.75897895 13.8925753,6.63157895 13.6316259,6.63157895 L7.00012974,6.63157895 C6.73918036,6.63157895 6.49353869,6.75897895 6.33698012,6.9754386 L3.85000327,10.4140351 C3.66161352,10.6745088 3.63132968,11.0230105 3.77169635,11.3142596 C3.91211828,11.6055088 4.19915154,11.7894737 4.51315289,11.7894737 L16.118437,11.7894737 C16.4324383,11.7894737 16.7194716,11.6055088 16.8598382,11.3142596 C17.0002602,11.0230105 16.9699763,10.6745088 16.7815866,10.4140351 Z M9.4869408,10.0701754 L6.17108219,10.0701754 L7.41459825,8.35087719 L9.4869408,8.35087719 L9.4869408,10.0701754 Z M11.1448148,10.0701754 L11.1448148,8.35087719 L13.2171574,8.35087719 L14.4605629,10.0701754 L11.1448148,10.0701754 Z" id="Shape" fill="#000000" fill-rule="nonzero"></path>
                            </g>
                        </g>
                    </g>
                </g>
            </g>
        </g>
    </g>
</svg>