<?xml version="1.0" encoding="UTF-8"?>
<svg width="36px" height="33px" viewBox="0 0 36 33" version="1.1" xmlns="http://www.w3.org/2000/svg" xmlns:xlink="http://www.w3.org/1999/xlink">
    <title>house</title>
    <defs>
        <filter id="filter-1">
            <feColorMatrix in="SourceGraphic" type="matrix" values="0 0 0 0 0.072888 0 0 0 0 0.070202 0 0 0 0 0.070202 0 0 0 1.000000 0"></feColorMatrix>
        </filter>
    </defs>
    <g id="2.-HOME-DESIGNS" stroke="none" stroke-width="1" fill="none" fill-rule="evenodd">
        <g id="2.1-Home-Design-Type-Detail-" transform="translate(-306.000000, -343.000000)">
            <g id="house" transform="translate(306.000000, 343.000000)" filter="url(#filter-1)">
                <g>
                    <path d="M35.60881,14.2668258 C35.5447389,13.4946329 35.1597554,12.7920068 34.5248876,12.2882907 L31.4440463,9.84314169 L31.4440463,2.89501515 C31.4440463,2.36141099 30.9768347,1.92887212 30.4006118,1.92887212 L26.2267348,1.92887212 C25.6504423,1.92887212 25.1972137,2.3614754 25.1972137,2.89501515 L25.1972137,4.8743233 L19.916318,0.707070606 C18.7357671,-0.22944206 17.0221248,-0.229313233 15.8453305,0.704300811 L1.09414877,12.2881618 C-0.210439981,13.3231632 -0.379696336,15.1496174 0.755636056,16.3767008 C1.62097917,17.3084469 3.00710037,17.6055234 4.18876434,17.2209729 L4.18876434,32.0093575 C4.18876434,32.5429617 4.64206249,32.9755005 5.21828542,32.9755005 L30.4005422,32.9755005 C30.9768347,32.9755005 31.4439767,32.5428972 31.4439767,32.0093575 L31.4439767,17.2211661 C32.6637634,17.6205319 34.0206664,17.2858376 34.8643742,16.3754125 C35.4083877,15.7874431 35.6728116,15.0385679 35.60881,14.2668258 Z M27.2701693,3.86115818 L29.3710212,3.86115818 L29.3710212,8.18680448 L27.2701693,6.53053168 L27.2701693,3.86115818 Z M22.0667712,31.0432145 L13.5660394,31.0432145 L13.5660394,23.3009298 L22.0667712,23.3009298 L22.0667712,31.0432145 Z M29.3710907,31.0432145 L24.1397963,31.0432145 L24.1397963,22.3476696 C24.1397963,21.8140654 23.6725847,21.3815265 23.0963618,21.3815265 L12.5225354,21.3815265 C11.9462429,21.3815265 11.4930143,21.8141298 11.4930143,22.3476696 L11.4930143,31.0432145 L6.26178946,31.0432145 L6.26178946,15.8313089 L17.8755024,6.7094733 L29.3710907,15.822291 L29.3710907,31.0432145 L29.3710907,31.0432145 Z M33.2800568,15.1175393 C32.9100999,15.5167762 32.2524141,15.5753284 31.8081596,15.2225982 L18.5580236,4.70613879 C18.1687966,4.39714565 17.5948694,4.39585738 17.2039728,4.7029181 C16.9216006,4.9246305 3.86653029,15.178668 3.81129414,15.2220829 C3.37427465,15.5683073 2.71338876,15.5210919 2.33918822,15.1180546 C1.96457027,14.7132137 2.015215,14.1019908 2.44833874,13.7582787 L17.1995901,2.17435323 C17.5933389,1.86207498 18.1647617,1.86201057 18.5582323,2.1742244 L33.1668714,13.7555089 C33.6036127,14.1020553 33.6541878,14.7133425 33.2800568,15.1175393 Z" id="Shape" fill="#000000" fill-rule="nonzero"></path>
                    <path d="M21.0093537,11.5904956 L14.6094739,11.5904956 C14.0331814,11.5904956 13.5799528,12.0230989 13.5799528,12.5566387 L13.5799528,18.3536257 C13.5799528,18.8872298 14.033251,19.3197687 14.6094739,19.3197687 L21.0093537,19.3197687 C21.5856462,19.3197687 22.0527882,18.8871654 22.0527882,18.3536257 L22.0527882,12.5566387 C22.0527882,12.0230345 21.5856462,11.5904956 21.0093537,11.5904956 Z M19.9798327,17.387547 L15.6529084,17.387547 L15.6529084,13.5228461 L19.9798327,13.5228461 L19.9798327,17.387547 Z" id="Shape" fill="#000000" fill-rule="nonzero"></path>
                    <ellipse id="Oval" fill="#000000" fill-rule="nonzero" cx="18.922137" cy="26.2121773" rx="1.04343447" ry="1"></ellipse>
                </g>
            </g>
        </g>
    </g>
</svg>