<?xml version="1.0" encoding="UTF-8" standalone="no"?>
<!DOCTYPE svg PUBLIC "-//W3C//DTD SVG 1.1//EN" "http://www.w3.org/Graphics/SVG/1.1/DTD/svg11.dtd">
<svg width="100%" height="100%" viewBox="0 0 87 27" version="1.1" xmlns="http://www.w3.org/2000/svg" xmlns:xlink="http://www.w3.org/1999/xlink" xml:space="preserve" xmlns:serif="http://www.serif.com/" style="fill-rule:evenodd;clip-rule:evenodd;stroke-linejoin:round;stroke-miterlimit:2;">
    <g id="_2.-HOME-DESIGNS" serif:id="2.-HOME-DESIGNS">
        <g id="_2.0-NEW-HOME-DESIGNS-" serif:id="2.0-NEW-HOME-DESIGNS-">
            <g id="Filter">
                <g id="Group-13-Copy-5">
                    <g id="Dual-Occ">
                        <g id="Group-3" transform="matrix(1,0,0,1,0,0.013547)">
                            <path id="Fill-1" d="M70.252,14.389L65.654,14.389C65.267,14.389 64.953,14.703 64.953,15.09L64.953,25.038L61.999,25.038L61.999,12.144C61.999,12.14 61.999,12.136 61.999,12.131L72.08,6.771L82.159,12.13L82.159,25.038L70.953,25.038L70.953,15.09C70.953,14.703 70.639,14.389 70.252,14.389ZM69.551,19.649C69.432,19.551 69.278,19.491 69.111,19.491C68.728,19.491 68.418,19.802 68.418,20.184C68.418,20.567 68.728,20.878 69.111,20.878C69.278,20.878 69.432,20.818 69.551,20.72L69.551,25.038L66.355,25.038L66.355,15.791L69.551,15.791L69.551,19.649ZM56.929,13.47L47.252,13.47C46.864,13.47 46.551,13.783 46.551,14.17L46.551,24.893C46.551,24.943 46.556,24.991 46.566,25.038L45.026,25.038L45.026,13.407C45.075,13.31 45.102,13.203 45.102,13.091L45.102,11.547L57.999,11.547L57.999,13.092C57.999,13.338 58.128,13.566 58.339,13.692C58.45,13.759 58.575,13.793 58.7,13.793C58.813,13.793 58.926,13.765 59.029,13.711L60.598,12.876L60.598,25.038L57.615,25.038C57.625,24.991 57.63,24.943 57.63,24.893L57.63,14.17C57.63,13.783 57.316,13.47 56.929,13.47ZM47.937,25.038C47.947,24.991 47.952,24.943 47.952,24.893L47.952,22.04L56.229,22.04L56.229,24.893C56.229,24.943 56.234,24.991 56.244,25.038L47.937,25.038ZM47.952,20.639L56.229,20.639L56.229,18.432L47.952,18.432L47.952,20.639ZM47.952,17.03L56.229,17.03L56.229,14.871L47.952,14.871L47.952,17.03ZM42.503,12.875L43.624,13.472L43.624,25.038L42.503,25.038L42.503,12.875ZM29.195,14.389L24.597,14.389C24.21,14.389 23.896,14.703 23.896,15.09L23.896,25.038L20.942,25.038L20.942,12.144C20.942,12.14 20.942,12.136 20.942,12.131L31.023,6.771L41.102,12.13L41.102,25.038L29.896,25.038L29.896,15.09C29.896,14.703 29.582,14.389 29.195,14.389ZM28.494,19.649C28.374,19.551 28.221,19.491 28.054,19.491C27.671,19.491 27.361,19.802 27.361,20.184C27.361,20.567 27.671,20.878 28.054,20.878C28.221,20.878 28.374,20.818 28.494,20.72L28.494,25.038L25.298,25.038L25.298,15.791L28.494,15.791L28.494,19.649ZM15.872,13.47L6.194,13.47C5.807,13.47 5.494,13.783 5.494,14.17L5.494,24.893C5.494,24.943 5.499,24.991 5.509,25.038L3.609,25.038L3.609,11.547L16.942,11.547L16.942,13.092C16.942,13.338 17.071,13.566 17.282,13.692C17.393,13.759 17.517,13.793 17.643,13.793C17.755,13.793 17.869,13.765 17.972,13.711L19.541,12.876L19.541,25.038L16.558,25.038C16.568,24.991 16.573,24.943 16.573,24.893L16.573,14.17C16.573,13.783 16.259,13.47 15.872,13.47ZM6.88,25.038C6.89,24.991 6.895,24.943 6.895,24.893L6.895,22.04L15.172,22.04L15.172,24.893C15.172,24.943 15.177,24.991 15.187,25.038L6.88,25.038ZM6.895,20.639L15.172,20.639L15.172,18.432L6.895,18.432L6.895,20.639ZM6.895,17.03L15.172,17.03L15.172,14.871L6.895,14.871L6.895,17.03ZM3.609,7.564L17.022,7.564C16.971,7.662 16.942,7.771 16.942,7.886L16.942,10.145L3.609,10.145L3.609,7.564ZM31.023,1.565L43.701,8.306L43.701,11.454C43.653,11.549 43.624,11.657 43.624,11.771L43.624,11.884L31.352,5.359C31.146,5.249 30.9,5.249 30.694,5.359L18.343,11.926L18.343,8.307L31.023,1.565ZM22.023,2.097L23.633,2.097L23.633,3.75C23.633,3.801 23.638,3.851 23.649,3.899L22.023,4.763L22.023,2.097ZM58.079,7.564C58.028,7.662 57.999,7.771 57.999,7.886L57.999,10.145L45.102,10.145L45.102,7.885C45.102,7.771 45.073,7.662 45.023,7.564L58.079,7.564ZM72.08,1.565L84.758,8.306L84.758,11.925L72.409,5.359C72.203,5.249 71.957,5.249 71.751,5.359L59.4,11.926L59.4,8.307L72.08,1.565ZM63.08,2.097L64.69,2.097L64.69,3.75C64.69,3.801 64.695,3.851 64.706,3.899L63.08,4.763L63.08,2.097ZM85.454,25.038L83.561,25.038L83.561,12.875L85.13,13.71C85.347,13.826 85.609,13.819 85.82,13.692C86.031,13.565 86.16,13.337 86.16,13.091L86.16,7.885C86.16,7.626 86.017,7.388 85.788,7.266L72.426,0.162C72.313,0.101 72.188,0.075 72.069,0.08C71.955,0.078 71.84,0.105 71.732,0.163L66.091,3.162L66.091,1.396C66.091,1.009 65.777,0.695 65.39,0.695L62.379,0.695C61.992,0.695 61.678,1.009 61.678,1.396L61.678,5.508L60.311,6.236C60.217,6.189 60.112,6.163 60.001,6.163L42.655,6.163L31.369,0.162C31.255,0.101 31.132,0.075 31.012,0.08C30.897,0.078 30.783,0.105 30.675,0.163L25.034,3.162L25.034,1.396C25.034,1.009 24.72,0.695 24.333,0.695L21.322,0.695C20.935,0.695 20.621,1.009 20.621,1.396L20.621,5.508L19.253,6.236C19.16,6.189 19.055,6.163 18.944,6.163L2.908,6.163C2.521,6.163 2.208,6.476 2.208,6.863L2.208,25.038L0.934,25.038C0.418,25.038 -0,25.456 -0,25.972C-0,26.488 0.418,26.907 0.934,26.907L85.454,26.907C85.97,26.907 86.388,26.488 86.388,25.972C86.388,25.456 85.97,25.038 85.454,25.038Z" style="fill:rgb(35,31,32);"/>
                        </g>
                        <path id="Fill-4" d="M74.364,16.516L78.058,16.516L78.058,15.369L74.364,15.369L74.364,16.516ZM74.364,20.679L78.058,20.679L78.058,17.917L74.364,17.917L74.364,20.679ZM73.664,22.08L78.759,22.08C79.146,22.08 79.46,21.766 79.46,21.379L79.46,14.669C79.46,14.282 79.146,13.968 78.759,13.968L73.664,13.968C73.277,13.968 72.963,14.282 72.963,14.669L72.963,21.379C72.963,21.766 73.277,22.08 73.664,22.08Z" style="fill:rgb(35,31,32);"/>
                        <path id="Fill-6" d="M33.307,16.516L37.001,16.516L37.001,15.369L33.307,15.369L33.307,16.516ZM33.307,20.679L37.001,20.679L37.001,17.917L33.307,17.917L33.307,20.679ZM32.607,22.08L37.702,22.08C38.089,22.08 38.403,21.766 38.403,21.379L38.403,14.669C38.403,14.282 38.089,13.968 37.702,13.968L32.607,13.968C32.22,13.968 31.906,14.282 31.906,14.669L31.906,21.379C31.906,21.766 32.22,22.08 32.607,22.08Z" style="fill:rgb(35,31,32);"/>
                    </g>
                </g>
            </g>
        </g>
    </g>
</svg>
