<?xml version="1.0" encoding="UTF-8" standalone="no"?>
<!DOCTYPE svg PUBLIC "-//W3C//DTD SVG 1.1//EN" "http://www.w3.org/Graphics/SVG/1.1/DTD/svg11.dtd">
<svg width="100%" height="100%" viewBox="0 0 84 27" version="1.1" xmlns="http://www.w3.org/2000/svg" xmlns:xlink="http://www.w3.org/1999/xlink" xml:space="preserve" xmlns:serif="http://www.serif.com/" style="fill-rule:evenodd;clip-rule:evenodd;stroke-linejoin:round;stroke-miterlimit:2;">
    <g id="_2.-HOME-DESIGNS" serif:id="2.-HOME-DESIGNS">
        <g id="_2.0-NEW-HOME-DESIGNS-" serif:id="2.0-NEW-HOME-DESIGNS-">
            <g id="Filter">
                <g id="Group-13-Copy-3">
                    <g id="Duplex">
                        <g id="Group-3" transform="matrix(1,0,0,1,0,0.011412)">
                            <path id="Fill-1" d="M67.807,15.065L63.24,15.065C62.856,15.065 62.544,15.377 62.544,15.761L62.544,25.052L59.611,25.052L59.611,12.174C59.611,12.133 59.607,12.094 59.6,12.055L69.622,6.727L79.632,12.049L79.632,25.052L68.503,25.052L68.503,15.761C68.503,15.377 68.191,15.065 67.807,15.065ZM67.111,20.289C66.992,20.191 66.84,20.132 66.674,20.132C66.293,20.132 65.985,20.44 65.985,20.821C65.985,21.201 66.293,21.509 66.674,21.509C66.84,21.509 66.992,21.45 67.111,21.352L67.111,25.052L63.936,25.052L63.936,16.457L67.111,16.457L67.111,20.289ZM54.825,14.152L45.213,14.152C44.829,14.152 44.517,14.463 44.517,14.848L44.517,25.052L42.802,25.052L42.802,13.012C43.163,12.886 43.471,12.695 43.722,12.438C43.934,12.221 44.075,11.987 44.17,11.768L55.638,11.768L55.638,13.004C55.638,13.248 55.766,13.475 55.976,13.6C56.086,13.667 56.21,13.7 56.334,13.7C56.446,13.7 56.558,13.673 56.661,13.618L58.219,12.79L58.219,25.052L55.52,25.052L55.52,14.848C55.52,14.463 55.209,14.152 54.825,14.152ZM45.909,25.052L54.129,25.052L54.129,22.663L45.909,22.663L45.909,25.052ZM45.909,21.271L54.129,21.271L54.129,19.08L45.909,19.08L45.909,21.271ZM45.909,17.688L54.129,17.688L54.129,15.544L45.909,15.544L45.909,17.688ZM38.99,14.152L29.378,14.152C28.994,14.152 28.683,14.463 28.683,14.848L28.683,25.052L25.74,25.052L25.74,12.79L27.298,13.618C27.401,13.673 27.513,13.7 27.625,13.7C27.749,13.7 27.873,13.667 27.983,13.6C28.193,13.475 28.321,13.248 28.321,13.004L28.321,11.768L40.029,11.768C40.124,11.987 40.265,12.221 40.477,12.438C40.729,12.696 41.038,12.888 41.401,13.013L41.401,25.052L39.686,25.052L39.686,14.848C39.686,14.463 39.374,14.152 38.99,14.152ZM30.074,25.052L38.294,25.052L38.294,22.663L30.074,22.663L30.074,25.052ZM30.074,21.271L38.294,21.271L38.294,19.08L30.074,19.08L30.074,21.271ZM30.074,17.688L38.294,17.688L38.294,15.544L30.074,15.544L30.074,17.688ZM20.719,15.065L16.152,15.065C15.768,15.065 15.456,15.377 15.456,15.761L15.456,25.052L4.327,25.052L4.327,12.049L14.337,6.727L24.359,12.055C24.352,12.094 24.348,12.133 24.348,12.174L24.348,25.052L21.415,25.052L21.415,15.761C21.415,15.377 21.103,15.065 20.719,15.065ZM16.848,21.352C16.967,21.45 17.119,21.509 17.285,21.509C17.665,21.509 17.974,21.201 17.974,20.821C17.974,20.44 17.665,20.132 17.285,20.132C17.119,20.132 16.967,20.191 16.848,20.289L16.848,16.457L20.023,16.457L20.023,25.052L16.848,25.052L16.848,21.352ZM1.746,11.845L1.746,8.251L14.337,1.556L26.929,8.252L26.929,11.846L14.664,5.324C14.562,5.27 14.449,5.243 14.337,5.243C14.225,5.243 14.112,5.27 14.01,5.324L1.746,11.845ZM21.125,2.857L22.724,2.857L22.724,4.44L21.125,3.59L21.125,2.857ZM41.318,7.14L41.318,10.376L28.321,10.376L28.321,7.834C28.321,7.576 28.179,7.34 27.952,7.219L27.803,7.14L41.318,7.14ZM42.881,7.14L56.156,7.14L56.007,7.219C55.78,7.34 55.638,7.576 55.638,7.834L55.638,10.376L42.881,10.376L42.881,7.14ZM69.622,1.556L82.213,8.251L82.213,11.845L69.949,5.324C69.745,5.216 69.5,5.216 69.295,5.324L57.03,11.846L57.03,8.252L69.622,1.556ZM61.235,2.857L62.834,2.857L62.834,3.59L61.235,4.44L61.235,2.857ZM83.031,25.052L81.024,25.052L81.024,12.789L82.582,13.618C82.798,13.733 83.058,13.726 83.268,13.6C83.477,13.474 83.605,13.248 83.605,13.003L83.605,7.833C83.605,7.576 83.463,7.339 83.236,7.219L69.966,0.163C69.853,0.103 69.729,0.077 69.61,0.082C69.496,0.079 69.38,0.109 69.277,0.164L64.225,2.85L64.225,2.161C64.225,1.777 63.914,1.465 63.529,1.465L60.539,1.465C60.154,1.465 59.843,1.777 59.843,2.161L59.843,5.18L58.562,5.861C58.367,5.786 58.139,5.748 57.875,5.748L26.324,5.748C25.999,5.748 25.728,5.805 25.506,5.919L24.116,5.18L24.116,2.161C24.116,1.777 23.805,1.465 23.42,1.465L20.43,1.465C20.045,1.465 19.734,1.777 19.734,2.161L19.734,2.85L14.682,0.164C14.579,0.109 14.464,0.079 14.349,0.082C14.229,0.076 14.106,0.103 13.993,0.163L0.723,7.219C0.496,7.339 0.354,7.576 0.354,7.833L0.354,13.003C0.354,13.248 0.482,13.474 0.691,13.6C0.901,13.726 1.161,13.733 1.377,13.618L2.935,12.789L2.935,25.052L0.928,25.052C0.415,25.052 -0,25.467 -0,25.979C-0,26.492 0.415,26.907 0.928,26.907L83.031,26.907C83.544,26.907 83.959,26.492 83.959,25.979C83.959,25.467 83.544,25.052 83.031,25.052Z" style="fill:rgb(35,31,32);"/>
                        </g>
                        <path id="Fill-4" d="M71.891,17.175L75.559,17.175L75.559,16.036L71.891,16.036L71.891,17.175ZM71.891,21.309L75.559,21.309L75.559,18.567L71.891,18.567L71.891,21.309ZM71.195,22.701L76.255,22.701C76.64,22.701 76.951,22.389 76.951,22.005L76.951,15.341C76.951,14.956 76.64,14.645 76.255,14.645L71.195,14.645C70.811,14.645 70.499,14.956 70.499,15.341L70.499,22.005C70.499,22.389 70.811,22.701 71.195,22.701Z" style="fill:rgb(35,31,32);"/>
                        <path id="Fill-6" d="M8.4,21.309L12.068,21.309L12.068,18.567L8.4,18.567L8.4,21.309ZM8.4,17.175L12.068,17.175L12.068,16.036L8.4,16.036L8.4,17.175ZM12.764,14.645L7.704,14.645C7.319,14.645 7.008,14.956 7.008,15.341L7.008,22.005C7.008,22.389 7.319,22.701 7.704,22.701L12.764,22.701C13.148,22.701 13.46,22.389 13.46,22.005L13.46,15.341C13.46,14.956 13.148,14.645 12.764,14.645Z" style="fill:rgb(35,31,32);"/>
                    </g>
                </g>
            </g>
        </g>
    </g>
</svg>
