<?xml version="1.0" encoding="UTF-8"?>
<svg width="33px" height="22px" viewBox="0 0 33 22" version="1.1" xmlns="http://www.w3.org/2000/svg" xmlns:xlink="http://www.w3.org/1999/xlink">
    <!-- Generator: Sketch 53.2 (72643) - https://sketchapp.com -->
    <title>Email</title>
    <desc>Created with Sketch.</desc>
    <g id="_General-Content-Components" stroke="none" stroke-width="1" fill="none" fill-rule="evenodd">
        <g id="Pictura-Creative-Theme-001:-Contact" transform="translate(-142.000000, -1023.000000)" fill="#000000" fill-rule="nonzero">
            <g id="Email" transform="translate(142.000000, 1023.000000)">
                <path d="M0,0.388888889 L0,0.333333333 C0,0.144444444 0.139739414,0 0.32247557,0 L32.6775244,0 C32.8602606,0 33,0.144444444 33,0.333333333 L33,0.388888889 C33,0.488888889 32.9462541,0.588888889 32.8602606,0.655555556 L17.0912052,12.3333333 C16.7687296,12.5555556 16.2312704,12.5555556 15.9087948,12.3333333 L0.139739414,0.655555556 C0.0537459283,0.6 0,0.5 0,0.388888889 Z M0.548208469,19.9 C0.343973941,20.1111111 6.98322326e-13,19.9555556 7.10542736e-13,19.6666667 L7.10542736e-13,3.74444444 C7.10542736e-13,3.47777778 0.300977199,3.32222222 0.515960912,3.47777778 L9.68501629,10.3111111 C9.84625407,10.4333333 9.86775244,10.6777778 9.71726384,10.8222222 L0.548208469,19.9 Z M23.2827362,10.8333333 C23.1429967,10.6888889 23.1537459,10.4444444 23.3149837,10.3333333 L32.4840391,3.5 C32.6990228,3.33333333 33,3.5 33,3.76666667 L33,19.6666667 C33,19.9666667 32.6560261,20.1111111 32.4517915,19.9111111 L23.2827362,10.8333333 Z M31.0221498,21.4222222 C31.2371336,21.6333333 31.086645,22 30.8071661,22 L2.20358306,22 C1.91335505,22 1.76286645,21.6333333 1.97785016,21.4222222 L11.523127,11.9666667 C11.6306189,11.8555556 11.8026059,11.8444444 11.9315961,11.9333333 L14.7263844,14 C15.8013029,14.7777778 17.1986971,14.7777778 18.2736156,14 L21.0684039,11.9333333 C21.1973941,11.8444444 21.3693811,11.8555556 21.476873,11.9666667 L31.0221498,21.4222222 Z" id="Combined-Shape"></path>
            </g>
        </g>
    </g>
</svg>