<?xml version="1.0" encoding="UTF-8" standalone="no"?>
<!DOCTYPE svg PUBLIC "-//W3C//DTD SVG 1.1//EN" "http://www.w3.org/Graphics/SVG/1.1/DTD/svg11.dtd">
<svg width="100%" height="100%" viewBox="0 0 22 22" version="1.1" xmlns="http://www.w3.org/2000/svg" xmlns:xlink="http://www.w3.org/1999/xlink" xml:space="preserve" xmlns:serif="http://www.serif.com/" style="fill-rule:evenodd;clip-rule:evenodd;stroke-linecap:round;">
    <g transform="matrix(1,0,0,1,1,1)">
        <g id="_2.-HOME-DESIGNS" serif:id="2.-HOME-DESIGNS">
            <g id="Group-10">
                <g>
                    <g id="Group-9">
                        <path id="Path-21" d="M0,6.452L0,0L6.452,0" style="fill:none;stroke:rgb(64,64,64);stroke-width:2px;"/>
                        <path id="Path-22" d="M0,0L7.097,7.097" style="fill:none;stroke:rgb(64,64,64);stroke-width:2px;"/>
                    </g>
                    <g id="Group-9-Copy-2" transform="matrix(-1,7.65714e-16,-7.65714e-16,-1,20,20)">
                        <path id="Path-211" serif:id="Path-21" d="M0,6.452L0,0L6.452,0" style="fill:none;stroke:rgb(64,64,64);stroke-width:2px;"/>
                        <path id="Path-221" serif:id="Path-22" d="M0,0L7.097,7.097" style="fill:none;stroke:rgb(64,64,64);stroke-width:2px;"/>
                    </g>
                    <g id="Group-9-Copy" transform="matrix(-3.82857e-16,-1,1,-3.82857e-16,1.77636e-15,20)">
                        <path id="Path-212" serif:id="Path-21" d="M0,6.452L0,0L6.452,0" style="fill:none;stroke:rgb(64,64,64);stroke-width:2px;"/>
                        <path id="Path-222" serif:id="Path-22" d="M0,0L7.097,7.097" style="fill:none;stroke:rgb(64,64,64);stroke-width:2px;"/>
                    </g>
                    <g id="Group-9-Copy-3" transform="matrix(7.04481e-16,1,-1,7.04481e-16,20,-1.77636e-15)">
                        <path id="Path-213" serif:id="Path-21" d="M0,6.452L0,0L6.452,0" style="fill:none;stroke:rgb(64,64,64);stroke-width:2px;"/>
                        <path id="Path-223" serif:id="Path-22" d="M0,0L7.097,7.097" style="fill:none;stroke:rgb(64,64,64);stroke-width:2px;"/>
                    </g>
                </g>
            </g>
        </g>
    </g>
</svg>
