<?xml version="1.0" encoding="UTF-8"?>
<svg width="37px" height="24px" viewBox="0 0 37 24" version="1.1" xmlns="http://www.w3.org/2000/svg" xmlns:xlink="http://www.w3.org/1999/xlink">
    <title>google-plus copy@2x</title>
    <defs>
        <filter id="filter-1">
            <feColorMatrix in="SourceGraphic" type="matrix" values="0 0 0 0 0.250980 0 0 0 0 0.250980 0 0 0 0 0.250980 0 0 0 1.000000 0"></feColorMatrix>
        </filter>
    </defs>
    <g id="1.0-HOME-PAGE" stroke="none" stroke-width="1" fill="none" fill-rule="evenodd">
        <g id="1.0-Home-Page-Theme-(Gold-Grey)-1800px" transform="translate(-783.000000, -7668.000000)">
            <g id="Group-5" transform="translate(60.000000, 4961.000000)">
                <g id="7.-TESTIMONIALS" transform="translate(0.000000, 2220.000000)">
                    <g id="google-plus-copy" transform="translate(723.000000, 487.000000)" filter="url(#filter-1)">
                        <g transform="translate(0.000000, -0.000000)">
                            <polygon id="Path" fill="#404040" fill-rule="nonzero" points="31.9929945 9.35384849 31.9929945 4.71983181 29.7629198 4.71983181 29.7629198 9.35384849 25.3027705 9.35384849 25.3027705 11.6708568 29.7629198 11.6708568 29.7629198 16.3048735 31.9929945 16.3048735 31.9929945 11.6708568 36.4531439 11.6708568 36.4531439 9.35384849"></polygon>
                            <path d="M11.5792339,9.26803337 L11.5792339,13.9020501 L18.1307645,13.9020501 C17.1743198,16.5990478 14.5990982,18.5360667 11.5792339,18.5360667 C7.74882336,18.5360667 4.63169358,15.4173735 4.63169358,11.5850417 C4.63169358,7.75270991 7.74882336,4.63401668 11.5792339,4.63401668 C13.2396961,4.63401668 14.8376304,5.22948783 16.0789243,6.31153072 L19.1219469,2.81748214 C17.0376848,1.0009476 14.3605659,0 11.5792339,0 C5.19444435,0 0,5.19704971 0,11.5850417 C0,17.9730337 5.19444435,23.1700834 11.5792339,23.1700834 C17.9640235,23.1700834 23.1584679,17.9730337 23.1584679,11.5850417 L23.1584679,9.26803337 L11.5792339,9.26803337 Z" id="Path" fill="#404040" fill-rule="nonzero"></path>
                        </g>
                    </g>
                </g>
            </g>
        </g>
    </g>
</svg>