<?xml version="1.0" encoding="UTF-8"?>
<svg width="47px" height="28px" viewBox="0 0 47 28" version="1.1" xmlns="http://www.w3.org/2000/svg" xmlns:xlink="http://www.w3.org/1999/xlink">
    <title>Group 5@2x</title>
    <g id="2.-HOME-DESIGNS*" stroke="none" stroke-width="1" fill="none" fill-rule="evenodd">
        <g id="2.0-NEW-HOME-DESIGNS-B" transform="translate(-786.000000, -2249.000000)" fill="#231F20">
            <g id="CONTENT" transform="translate(359.000000, 1278.000000)">
                <g id="Filter" transform="translate(251.000000, 151.000000)">
                    <g id="Group-13-Copy-4" transform="translate(145.000000, 799.000000)">
                        <g id="Group-5" transform="translate(31.000000, 21.000000)">
                            <path d="M22.2775272,25.2871348 L42.6835654,25.2871348 L42.6835654,24.2305332 L22.2775272,24.2305332 L22.2775272,25.2871348 Z M5.45370221,12.2314427 L18.2282455,12.2314427 L18.2282455,13.1703078 C18.2282455,13.4193038 18.3588431,13.6500483 18.5721871,13.7781871 C18.7856258,13.9064205 19.0506036,13.9133239 19.2705674,13.7965332 L20.8590161,12.9519517 L20.8590161,23.5212777 L20.8590161,25.2871348 L5.45370221,25.2871348 L5.45370221,12.2314427 Z M2.96979477,10.8129316 L10.7155272,3.54060362 L25.6267264,3.54060362 L18.6045292,7.27440845 C18.3729336,7.39744064 18.2282455,7.63830382 18.2282455,7.9006338 L18.2282455,10.8129316 L2.96979477,10.8129316 Z M32.4801207,1.50314889 L45.314336,8.32732193 L45.314336,11.9904849 L32.812998,5.34343662 C32.7088793,5.28802012 32.5944527,5.26040644 32.4800262,5.26040644 C32.3655996,5.26040644 32.251173,5.28802012 32.1469598,5.34343662 L19.6467565,11.9899175 L19.6467565,8.32675453 L32.4801207,1.50314889 Z M29.9215996,17.6904406 C29.8004588,17.590672 29.6451791,17.5307163 29.475998,17.5307163 C29.0884608,17.5307163 28.7743078,17.8447746 28.7743078,18.2323119 C28.7743078,18.6198491 29.0884608,18.934002 29.475998,18.934002 C29.6451791,18.934002 29.8004588,18.8740463 29.9215996,18.7742777 L29.9215996,22.8120221 L26.6858813,22.8120221 L26.6858813,13.7849014 L29.9215996,13.7849014 L29.9215996,17.6904406 Z M42.6835654,22.8120221 L31.3401107,22.8120221 L31.3401107,13.0756459 C31.3401107,12.6839477 31.0225533,12.3663903 30.6308551,12.3663903 L25.9766258,12.3663903 C25.5849276,12.3663903 25.2673702,12.6839477 25.2673702,13.0756459 L25.2673702,22.8120221 L22.2775272,22.8120221 L22.2775272,12.1976821 L32.4800262,6.77291751 L42.6835654,12.1982495 L42.6835654,22.8120221 Z M46.0487465,25.2871348 L44.1020765,25.2871348 L44.1020765,23.5212777 L44.1020765,12.9524245 L45.6906197,13.7971006 C45.794833,13.8526117 45.9092596,13.8801308 46.0235915,13.8801308 C46.1502173,13.8801308 46.2767485,13.8461811 46.389,13.7787545 C46.6023441,13.6506157 46.7328471,13.4198712 46.7328471,13.1708753 L46.7328471,7.90110664 C46.7328471,7.63887123 46.588159,7.39800805 46.3566579,7.27488129 L32.8318169,0.0835975855 C32.7221187,0.025249497 32.6045714,-0.000945674044 32.4878753,0.000567404427 C32.3650322,-0.0043501006 32.2404869,0.0239255533 32.1292757,0.0831247485 L28.2945674,2.12209256 L10.4347565,2.12209256 C10.2544165,2.12209256 10.0807907,2.19074849 9.94924748,2.31425352 L0.692706237,11.0050926 C0.480591549,11.2042515 0.411746479,11.5127304 0.518702213,11.7832877 C0.625847082,12.0537505 0.887325956,12.2314427 1.17821529,12.2314427 L4.03519115,12.2314427 L4.03519115,25.2871348 L0.945674044,25.2871348 C0.423472837,25.2871348 0,25.7105131 0,26.2328089 C0,26.7551046 0.423472837,27.1784829 0.945674044,27.1784829 L46.0487465,27.1784829 C46.5710423,27.1784829 46.9944205,26.7551046 46.9944205,26.2328089 C46.9944205,25.7105131 46.5710423,25.2871348 46.0487465,25.2871348 L46.0487465,25.2871348 Z" id="Fill-1"></path>
                            <path d="M34.7935231,14.5047485 L38.5324346,14.5047485 L38.5324346,13.3445956 L34.7935231,13.3445956 L34.7935231,14.5047485 Z M34.7936177,18.7187666 L38.5325292,18.7187666 L38.5325292,15.9232596 L34.7936177,15.9232596 L34.7936177,18.7187666 Z M34.0842676,20.1372777 L39.2417847,20.1372777 C39.6334829,20.1372777 39.9510402,19.8197203 39.9510402,19.4280221 L39.9510402,12.63534 C39.9510402,12.2436419 39.6334829,11.9260845 39.2417847,11.9260845 L34.0842676,11.9260845 C33.6925694,11.9260845 33.3750121,12.2436419 33.3750121,12.63534 L33.3750121,15.214004 L33.3750121,19.4280221 C33.3750121,19.8197203 33.6925694,20.1372777 34.0842676,20.1372777 L34.0842676,20.1372777 Z" id="Fill-3"></path>
                            <path d="M16.8500012,14.5047485 L9.17680201,14.5047485 C8.78510382,14.5047485 8.46754648,14.8223058 8.46754648,15.214004 C8.46754648,15.6057968 8.78510382,15.9232596 9.17680201,15.9232596 L16.8500012,15.9232596 C17.241794,15.9232596 17.5592567,15.6057968 17.5592567,15.214004 C17.5592567,14.8223058 17.241794,14.5047485 16.8500012,14.5047485" id="Fill-4"></path>
                        </g>
                    </g>
                </g>
            </g>
        </g>
    </g>
</svg>