<?xml version="1.0" encoding="UTF-8" standalone="no"?>
<!DOCTYPE svg PUBLIC "-//W3C//DTD SVG 1.1//EN" "http://www.w3.org/Graphics/SVG/1.1/DTD/svg11.dtd">
<svg width="100%" height="100%" viewBox="0 0 591 561" version="1.1" xmlns="http://www.w3.org/2000/svg" xmlns:xlink="http://www.w3.org/1999/xlink" xml:space="preserve" xmlns:serif="http://www.serif.com/" style="fill-rule:evenodd;clip-rule:evenodd;stroke-linejoin:round;stroke-miterlimit:2;">
    <g id="_1.0-HOME-PAGE" serif:id="1.0-HOME-PAGE">
        <g id="Group-16">
            <circle id="Mask" cx="280.5" cy="280.5" r="280.5" style="fill:rgb(155,143,99);"/>
            <path id="Multi-awardwinning" d="M101.616,278.968L123.88,224.496L123.88,267.176C123.88,269.992 123.528,272.148 122.824,273.644C122.12,275.14 120.771,276.533 118.776,277.824L118.776,278L145.528,278L145.528,277.824C143.533,276.533 142.184,275.14 141.48,273.644C140.776,272.148 140.424,269.992 140.424,267.176L140.424,227.048C140.424,224.056 140.747,221.871 141.392,220.492C142.037,219.113 143.328,217.808 145.264,216.576L145.264,216.4L124.672,216.4L108.744,255.032L92.376,216.4L70.2,216.4L70.2,216.576C72.136,217.867 73.427,219.201 74.072,220.58C74.717,221.959 75.04,224.115 75.04,227.048L75.04,264.712C75.04,267.997 74.512,270.681 73.456,272.764C72.4,274.847 70.728,276.533 68.44,277.824L68.44,278L85.072,278L85.072,277.824C82.549,276.651 80.716,274.993 79.572,272.852C78.428,270.711 77.856,267.792 77.856,264.096L77.856,224.408L101.264,278.968L101.616,278.968ZM166.384,278.88C170.197,278.88 173.439,277.78 176.108,275.58C178.777,273.38 180.611,270.285 181.608,266.296L181.608,278L201.936,278L201.936,277.824C199.941,276.592 198.68,275.433 198.152,274.348C197.624,273.263 197.36,271.371 197.36,268.672L197.36,234.44L176.944,234.44L176.944,234.616C178.997,235.789 180.288,236.919 180.816,238.004C181.344,239.089 181.608,241.157 181.608,244.208L181.608,259.696C181.608,263.451 180.963,266.325 179.672,268.32C178.381,270.315 176.533,271.312 174.128,271.312C172.309,271.312 170.872,270.637 169.816,269.288C168.76,267.939 168.232,266.179 168.232,264.008L168.232,234.44L147.904,234.44L147.904,234.616C149.899,235.789 151.16,236.919 151.688,238.004C152.216,239.089 152.48,241.157 152.48,244.208L152.48,263.568C152.48,268.261 153.712,271.987 156.176,274.744C158.64,277.501 162.043,278.88 166.384,278.88ZM228.336,278L228.336,277.824C226.517,276.709 225.373,275.639 224.904,274.612C224.435,273.585 224.2,271.517 224.2,268.408L224.2,212.088L203.256,212.088L203.256,212.264C205.368,213.32 206.761,214.464 207.436,215.696C208.111,216.928 208.448,218.981 208.448,221.856L208.448,268.408C208.448,271.517 208.213,273.585 207.744,274.612C207.275,275.639 206.16,276.709 204.4,277.824L204.4,278L228.336,278ZM248.752,278.88C253.211,278.88 256.789,277.457 259.488,274.612C262.187,271.767 263.917,267.616 264.68,262.16L263.624,261.808C263.037,264.917 262.084,267.293 260.764,268.936C259.444,270.579 257.787,271.4 255.792,271.4C254.091,271.4 252.785,270.799 251.876,269.596C250.967,268.393 250.512,266.648 250.512,264.36L250.512,236.64L263.272,236.64L263.712,234.44L250.512,234.44L250.512,219.128L249.632,219.128C248.107,223.411 245.657,226.989 242.284,229.864C238.911,232.739 234.877,234.675 230.184,235.672L230.184,236.64L234.936,236.64L234.76,264.008C234.701,268.701 235.919,272.353 238.412,274.964C240.905,277.575 244.352,278.88 248.752,278.88ZM279.024,229.16C281.547,229.16 283.673,228.353 285.404,226.74C287.135,225.127 288,223.117 288,220.712C288,218.307 287.135,216.312 285.404,214.728C283.673,213.144 281.547,212.352 279.024,212.352C276.501,212.352 274.404,213.144 272.732,214.728C271.06,216.312 270.224,218.307 270.224,220.712C270.224,223.117 271.06,225.127 272.732,226.74C274.404,228.353 276.501,229.16 279.024,229.16ZM291.256,278L291.256,277.824C289.437,276.709 288.293,275.639 287.824,274.612C287.355,273.585 287.12,271.517 287.12,268.408L287.12,234.44L266.704,234.44L266.704,234.616C268.757,235.789 270.048,236.919 270.576,238.004C271.104,239.089 271.368,241.157 271.368,244.208L271.368,268.408C271.368,271.517 271.133,273.585 270.664,274.612C270.195,275.639 269.051,276.709 267.232,277.824L267.232,278L291.256,278ZM317.832,255.648L317.832,250.104L295.92,250.104L295.92,255.648L317.832,255.648ZM362.008,278.792C364.12,278.792 366.144,278.425 368.08,277.692C370.016,276.959 371.541,275.976 372.656,274.744L372.656,274.568C372.363,274.685 372.04,274.773 371.688,274.832C371.336,274.891 370.984,274.92 370.632,274.92C368.813,274.92 367.523,274.304 366.76,273.072C365.997,271.84 365.616,269.493 365.616,266.032L365.616,262.087C365.62,260.812 365.649,259.047 365.704,256.792C365.763,254.621 365.792,252.993 365.792,251.908L365.792,248.96C365.792,243.68 364.032,239.793 360.512,237.3C356.992,234.807 351.448,233.56 343.88,233.56C338.307,233.56 333.819,234.587 330.416,236.64C327.013,238.693 325.312,241.392 325.312,244.736C325.312,246.907 326.104,248.681 327.688,250.06C329.272,251.439 331.267,252.128 333.672,252.128C335.843,252.128 337.735,251.688 339.348,250.808C340.961,249.928 342.208,248.637 343.088,246.936C342.795,247.053 342.501,247.127 342.208,247.156C341.915,247.185 341.651,247.2 341.416,247.2C340.067,247.2 339.025,246.745 338.292,245.836C337.559,244.927 337.192,243.592 337.192,241.832C337.192,239.779 337.749,238.151 338.864,236.948C339.979,235.745 341.504,235.144 343.44,235.144C345.611,235.144 347.268,235.936 348.412,237.52C349.556,239.104 350.128,241.275 350.128,244.032L350.128,252.568L343.44,253.8C339.685,254.504 336.899,255.105 335.08,255.604C333.261,256.103 331.677,256.645 330.328,257.232C327.864,258.347 326.045,259.755 324.872,261.456C323.699,263.157 323.112,265.211 323.112,267.616C323.112,271.019 324.315,273.703 326.72,275.668C329.125,277.633 332.264,278.616 336.136,278.616C339.773,278.616 342.868,277.721 345.42,275.932C347.972,274.143 349.6,271.723 350.304,268.672C350.304,268.848 350.333,269.244 350.392,269.86C350.451,270.476 350.48,270.843 350.48,270.96C350.891,273.483 352.079,275.419 354.044,276.768C356.009,278.117 358.664,278.792 362.008,278.792ZM343.528,272.544C341.885,272.544 340.624,271.899 339.744,270.608C338.864,269.317 338.424,267.528 338.424,265.24C338.424,262.307 339.069,260.004 340.36,258.332C341.651,256.66 343.675,255.56 346.432,255.032L350.128,254.152L350.04,263.48C350.04,266.12 349.439,268.291 348.236,269.992C347.033,271.693 345.464,272.544 343.528,272.544ZM392.896,278.88L406.624,250.544L418.592,278.88L418.768,278.88L434.168,244.032C435.283,241.568 436.265,239.735 437.116,238.532C437.967,237.329 439.243,236.024 440.944,234.616L440.944,234.44L427.832,234.44L427.832,234.616C429.24,235.144 430.34,235.907 431.132,236.904C431.924,237.901 432.32,239.075 432.32,240.424C432.32,241.011 432.247,241.597 432.1,242.184C431.953,242.771 431.763,243.357 431.528,243.944L425.016,259.432L419.032,243.504C418.504,241.979 418.167,240.908 418.02,240.292C417.873,239.676 417.8,239.133 417.8,238.664C417.8,237.784 418.005,237.036 418.416,236.42C418.827,235.804 419.501,235.203 420.44,234.616L420.44,234.44L397.472,234.44L397.472,234.616C398.88,235.848 399.965,237.036 400.728,238.18C401.491,239.324 402.517,241.245 403.808,243.944L405.568,248.08L399.848,260.048L392.28,243.504C391.811,242.331 391.473,241.377 391.268,240.644C391.063,239.911 390.96,239.221 390.96,238.576C390.96,237.696 391.107,236.963 391.4,236.376C391.693,235.789 392.192,235.203 392.896,234.616L392.896,234.44L370.192,234.44L370.192,234.616C371.541,235.789 372.597,236.948 373.36,238.092C374.123,239.236 375.149,241.187 376.44,243.944L392.72,278.88L392.896,278.88ZM481.072,278.792C483.184,278.792 485.208,278.425 487.144,277.692C489.08,276.959 490.605,275.976 491.72,274.744L491.72,274.568C491.427,274.685 491.104,274.773 490.752,274.832C490.4,274.891 490.048,274.92 489.696,274.92C487.877,274.92 486.587,274.304 485.824,273.072C485.061,271.84 484.68,269.493 484.68,266.032L484.68,262.087C484.684,260.812 484.713,259.047 484.768,256.792C484.827,254.621 484.856,252.993 484.856,251.908L484.856,248.96C484.856,243.68 483.096,239.793 479.576,237.3C476.056,234.807 470.512,233.56 462.944,233.56C457.371,233.56 452.883,234.587 449.48,236.64C446.077,238.693 444.376,241.392 444.376,244.736C444.376,246.907 445.168,248.681 446.752,250.06C448.336,251.439 450.331,252.128 452.736,252.128C454.907,252.128 456.799,251.688 458.412,250.808C460.025,249.928 461.272,248.637 462.152,246.936C461.859,247.053 461.565,247.127 461.272,247.156C460.979,247.185 460.715,247.2 460.48,247.2C459.131,247.2 458.089,246.745 457.356,245.836C456.623,244.927 456.256,243.592 456.256,241.832C456.256,239.779 456.813,238.151 457.928,236.948C459.043,235.745 460.568,235.144 462.504,235.144C464.675,235.144 466.332,235.936 467.476,237.52C468.62,239.104 469.192,241.275 469.192,244.032L469.192,252.568L462.504,253.8C458.749,254.504 455.963,255.105 454.144,255.604C452.325,256.103 450.741,256.645 449.392,257.232C446.928,258.347 445.109,259.755 443.936,261.456C442.763,263.157 442.176,265.211 442.176,267.616C442.176,271.019 443.379,273.703 445.784,275.668C448.189,277.633 451.328,278.616 455.2,278.616C458.837,278.616 461.932,277.721 464.484,275.932C467.036,274.143 468.664,271.723 469.368,268.672C469.368,268.848 469.397,269.244 469.456,269.86C469.515,270.476 469.544,270.843 469.544,270.96C469.955,273.483 471.143,275.419 473.108,276.768C475.073,278.117 477.728,278.792 481.072,278.792ZM462.592,272.544C460.949,272.544 459.688,271.899 458.808,270.608C457.928,269.317 457.488,267.528 457.488,265.24C457.488,262.307 458.133,260.004 459.424,258.332C460.715,256.66 462.739,255.56 465.496,255.032L469.192,254.152L469.104,263.48C469.104,266.12 468.503,268.291 467.3,269.992C466.097,271.693 464.528,272.544 462.592,272.544ZM518.472,278L518.472,277.824C515.597,276.533 513.749,275.257 512.928,273.996C512.107,272.735 511.696,270.872 511.696,268.408L511.696,254.856C511.696,251.219 512.503,248.256 514.116,245.968C515.729,243.68 517.739,242.536 520.144,242.536C521.904,242.536 523.253,242.961 524.192,243.812C525.131,244.663 525.6,245.88 525.6,247.464C525.6,248.461 525.351,249.341 524.852,250.104C524.353,250.867 523.664,251.424 522.784,251.776C523.077,252.011 523.517,252.216 524.104,252.392C524.691,252.568 525.307,252.656 525.952,252.656C528.592,252.656 530.763,251.747 532.464,249.928C534.165,248.109 535.016,245.704 535.016,242.712C535.016,240.013 534.136,237.813 532.376,236.112C530.616,234.411 528.357,233.56 525.6,233.56C522.315,233.56 519.513,234.821 517.196,237.344C514.879,239.867 513.045,243.621 511.696,248.608L511.696,234.44L491.28,234.44L491.28,234.616C493.333,235.789 494.624,236.919 495.152,238.004C495.68,239.089 495.944,241.157 495.944,244.208L495.944,268.408C495.944,271.517 495.709,273.585 495.24,274.612C494.771,275.639 493.627,276.709 491.808,277.824L491.808,278L518.472,278ZM555.608,278.88C559.187,278.88 562.296,277.824 564.936,275.712C567.576,273.6 569.395,270.725 570.392,267.088L570.392,278L590.368,278L590.368,277.824C588.608,276.651 587.464,275.521 586.936,274.436C586.408,273.351 586.144,271.341 586.144,268.408L586.144,212.088L565.112,212.088L565.112,212.264C567.283,213.32 568.705,214.479 569.38,215.74C570.055,217.001 570.392,219.04 570.392,221.856L570.392,243.416C569.395,240.307 567.708,237.887 565.332,236.156C562.956,234.425 560.096,233.56 556.752,233.56C551.061,233.56 546.353,235.716 542.628,240.028C538.903,244.34 537.04,249.899 537.04,256.704C537.04,263.216 538.8,268.54 542.32,272.676C545.84,276.812 550.269,278.88 555.608,278.88ZM562.12,272.632C559.421,272.632 557.339,271.253 555.872,268.496C554.405,265.739 553.672,261.808 553.672,256.704C553.672,250.427 554.361,245.719 555.74,242.58C557.119,239.441 559.187,237.872 561.944,237.872C564.349,237.872 566.359,239.104 567.972,241.568C569.585,244.032 570.392,247.141 570.392,250.896L570.392,260.928C570.392,264.272 569.6,267.059 568.016,269.288C566.432,271.517 564.467,272.632 562.12,272.632ZM90,360.88L103.728,332.544L115.696,360.88L115.872,360.88L131.272,326.032C132.387,323.568 133.369,321.735 134.22,320.532C135.071,319.329 136.347,318.024 138.048,316.616L138.048,316.44L124.936,316.44L124.936,316.616C126.344,317.144 127.444,317.907 128.236,318.904C129.028,319.901 129.424,321.075 129.424,322.424C129.424,323.011 129.351,323.597 129.204,324.184C129.057,324.771 128.867,325.357 128.632,325.944L122.12,341.432L116.136,325.504C115.608,323.979 115.271,322.908 115.124,322.292C114.977,321.676 114.904,321.133 114.904,320.664C114.904,319.784 115.109,319.036 115.52,318.42C115.931,317.804 116.605,317.203 117.544,316.616L117.544,316.44L94.576,316.44L94.576,316.616C95.984,317.848 97.069,319.036 97.832,320.18C98.595,321.324 99.621,323.245 100.912,325.944L102.672,330.08L96.952,342.048L89.384,325.504C88.915,324.331 88.577,323.377 88.372,322.644C88.167,321.911 88.064,321.221 88.064,320.576C88.064,319.696 88.211,318.963 88.504,318.376C88.797,317.789 89.296,317.203 90,316.616L90,316.44L67.296,316.44L67.296,316.616C68.645,317.789 69.701,318.948 70.464,320.092C71.227,321.236 72.253,323.187 73.544,325.944L89.824,360.88L90,360.88ZM150.984,311.16C153.507,311.16 155.633,310.353 157.364,308.74C159.095,307.127 159.96,305.117 159.96,302.712C159.96,300.307 159.095,298.312 157.364,296.728C155.633,295.144 153.507,294.352 150.984,294.352C148.461,294.352 146.364,295.144 144.692,296.728C143.02,298.312 142.184,300.307 142.184,302.712C142.184,305.117 143.02,307.127 144.692,308.74C146.364,310.353 148.461,311.16 150.984,311.16ZM163.216,360L163.216,359.824C161.397,358.709 160.253,357.639 159.784,356.612C159.315,355.585 159.08,353.517 159.08,350.408L159.08,316.44L138.664,316.44L138.664,316.616C140.717,317.789 142.008,318.919 142.536,320.004C143.064,321.089 143.328,323.157 143.328,326.208L143.328,350.408C143.328,353.517 143.093,355.585 142.624,356.612C142.155,357.639 141.011,358.709 139.192,359.824L139.192,360L163.216,360ZM190.408,360L190.408,359.824C188.589,358.709 187.445,357.639 186.976,356.612C186.507,355.585 186.272,353.517 186.272,350.408L186.272,334.656C186.272,330.96 186.932,328.1 188.252,326.076C189.572,324.052 191.405,323.04 193.752,323.04C195.629,323.04 197.096,323.7 198.152,325.02C199.208,326.34 199.736,328.115 199.736,330.344L199.736,350.408C199.736,353.517 199.501,355.585 199.032,356.612C198.563,357.639 197.419,358.709 195.6,359.824L195.6,360L219.624,360L219.624,359.824C217.805,358.709 216.661,357.639 216.192,356.612C215.723,355.585 215.488,353.517 215.488,350.408L215.488,330.784C215.488,326.091 214.256,322.38 211.792,319.652C209.328,316.924 205.896,315.56 201.496,315.56C197.741,315.56 194.529,316.645 191.86,318.816C189.191,320.987 187.328,324.008 186.272,327.88L186.272,316.44L165.856,316.44L165.856,316.616C167.909,317.789 169.2,318.919 169.728,320.004C170.256,321.089 170.52,323.157 170.52,326.208L170.52,350.408C170.52,353.517 170.285,355.585 169.816,356.612C169.347,357.639 168.203,358.709 166.384,359.824L166.384,360L190.408,360ZM246.64,360L246.64,359.824C244.821,358.709 243.677,357.639 243.208,356.612C242.739,355.585 242.504,353.517 242.504,350.408L242.504,334.656C242.504,330.96 243.164,328.1 244.484,326.076C245.804,324.052 247.637,323.04 249.984,323.04C251.861,323.04 253.328,323.7 254.384,325.02C255.44,326.34 255.968,328.115 255.968,330.344L255.968,350.408C255.968,353.517 255.733,355.585 255.264,356.612C254.795,357.639 253.651,358.709 251.832,359.824L251.832,360L275.856,360L275.856,359.824C274.037,358.709 272.893,357.639 272.424,356.612C271.955,355.585 271.72,353.517 271.72,350.408L271.72,330.784C271.72,326.091 270.488,322.38 268.024,319.652C265.56,316.924 262.128,315.56 257.728,315.56C253.973,315.56 250.761,316.645 248.092,318.816C245.423,320.987 243.56,324.008 242.504,327.88L242.504,316.44L222.088,316.44L222.088,316.616C224.141,317.789 225.432,318.919 225.96,320.004C226.488,321.089 226.752,323.157 226.752,326.208L226.752,350.408C226.752,353.517 226.517,355.585 226.048,356.612C225.579,357.639 224.435,358.709 222.616,359.824L222.616,360L246.64,360ZM290.64,311.16C293.163,311.16 295.289,310.353 297.02,308.74C298.751,307.127 299.616,305.117 299.616,302.712C299.616,300.307 298.751,298.312 297.02,296.728C295.289,295.144 293.163,294.352 290.64,294.352C288.117,294.352 286.02,295.144 284.348,296.728C282.676,298.312 281.84,300.307 281.84,302.712C281.84,305.117 282.676,307.127 284.348,308.74C286.02,310.353 288.117,311.16 290.64,311.16ZM302.872,360L302.872,359.824C301.053,358.709 299.909,357.639 299.44,356.612C298.971,355.585 298.736,353.517 298.736,350.408L298.736,316.44L278.32,316.44L278.32,316.616C280.373,317.789 281.664,318.919 282.192,320.004C282.72,321.089 282.984,323.157 282.984,326.208L282.984,350.408C282.984,353.517 282.749,355.585 282.28,356.612C281.811,357.639 280.667,358.709 278.848,359.824L278.848,360L302.872,360ZM330.064,360L330.064,359.824C328.245,358.709 327.101,357.639 326.632,356.612C326.163,355.585 325.928,353.517 325.928,350.408L325.928,334.656C325.928,330.96 326.588,328.1 327.908,326.076C329.228,324.052 331.061,323.04 333.408,323.04C335.285,323.04 336.752,323.7 337.808,325.02C338.864,326.34 339.392,328.115 339.392,330.344L339.392,350.408C339.392,353.517 339.157,355.585 338.688,356.612C338.219,357.639 337.075,358.709 335.256,359.824L335.256,360L359.28,360L359.28,359.824C357.461,358.709 356.317,357.639 355.848,356.612C355.379,355.585 355.144,353.517 355.144,350.408L355.144,330.784C355.144,326.091 353.912,322.38 351.448,319.652C348.984,316.924 345.552,315.56 341.152,315.56C337.397,315.56 334.185,316.645 331.516,318.816C328.847,320.987 326.984,324.008 325.928,327.88L325.928,316.44L305.512,316.44L305.512,316.616C307.565,317.789 308.856,318.919 309.384,320.004C309.912,321.089 310.176,323.157 310.176,326.208L310.176,350.408C310.176,353.517 309.941,355.585 309.472,356.612C309.003,357.639 307.859,358.709 306.04,359.824L306.04,360L330.064,360ZM382.688,380.152C390.96,380.152 397.663,378.597 402.796,375.488C407.929,372.379 410.496,368.184 410.496,362.904C410.496,358.797 408.985,355.6 405.964,353.312C402.943,351.024 398.763,349.88 393.424,349.88L374.328,349.88C372.979,349.88 371.937,349.601 371.204,349.044C370.471,348.487 370.104,347.709 370.104,346.712C370.104,345.891 370.412,345.157 371.028,344.512C371.644,343.867 372.568,343.309 373.8,342.84C375.267,343.368 376.851,343.764 378.552,344.028C380.253,344.292 382.072,344.424 384.008,344.424C390.227,344.424 395.14,343.119 398.748,340.508C402.356,337.897 404.16,334.392 404.16,329.992C404.16,327.997 403.705,326.149 402.796,324.448C401.887,322.747 400.581,321.28 398.88,320.048C399.525,319.403 400.171,318.933 400.816,318.64C401.461,318.347 402.165,318.2 402.928,318.2C404.277,318.2 405.348,318.596 406.14,319.388C406.932,320.18 407.328,321.251 407.328,322.6C407.328,323.187 407.24,323.729 407.064,324.228C406.888,324.727 406.624,325.211 406.272,325.68L406.272,325.856C408.677,325.856 410.628,325.24 412.124,324.008C413.62,322.776 414.368,321.075 414.368,318.904C414.368,316.851 413.708,315.237 412.388,314.064C411.068,312.891 409.264,312.304 406.976,312.304C405.333,312.304 403.837,312.803 402.488,313.8C401.139,314.797 399.672,316.645 398.088,319.344C396.387,318.112 394.348,317.173 391.972,316.528C389.596,315.883 386.941,315.56 384.008,315.56C377.907,315.56 373.052,316.88 369.444,319.52C365.836,322.16 364.032,325.651 364.032,329.992C364.032,332.691 364.765,335.111 366.232,337.252C367.699,339.393 369.781,341.051 372.48,342.224C369.488,343.104 367.083,344.556 365.264,346.58C363.445,348.604 362.536,350.907 362.536,353.488C362.536,356.128 363.372,358.372 365.044,360.22C366.716,362.068 368.989,363.315 371.864,363.96C368.403,364.136 365.675,364.84 363.68,366.072C361.685,367.304 360.688,368.888 360.688,370.824C360.688,373.816 362.653,376.119 366.584,377.732C370.515,379.345 375.883,380.152 382.688,380.152ZM384.008,342.928C382.307,342.928 381.075,341.901 380.312,339.848C379.549,337.795 379.168,334.509 379.168,329.992C379.168,325.475 379.564,322.175 380.356,320.092C381.148,318.009 382.365,316.968 384.008,316.968C385.709,316.968 386.956,318.009 387.748,320.092C388.54,322.175 388.936,325.475 388.936,329.992C388.936,334.509 388.54,337.795 387.748,339.848C386.956,341.901 385.709,342.928 384.008,342.928ZM382.688,378.568C378.523,378.568 375.193,377.864 372.7,376.456C370.207,375.048 368.96,373.112 368.96,370.648C368.96,368.595 369.635,367.025 370.984,365.94C372.333,364.855 374.299,364.312 376.88,364.312L391.488,364.312C394.187,364.312 396.196,364.796 397.516,365.764C398.836,366.732 399.496,368.184 399.496,370.12C399.496,372.701 397.956,374.755 394.876,376.28C391.796,377.805 387.733,378.568 382.688,378.568Z" style="fill:white;fill-rule:nonzero;"/>
            <path id="BuildyournexthomewithatrustedAustralian" d="M78.072,152C80.227,152 82.061,151.408 83.576,150.224C85.091,149.04 85.848,147.488 85.848,145.568C85.848,144.075 85.432,142.885 84.6,142C83.768,141.115 82.616,140.427 81.144,139.936C83.747,138.997 85.048,137.355 85.048,135.008C85.048,133.429 84.403,132.133 83.112,131.12C81.821,130.107 80.12,129.6 78.008,129.6L69.816,129.6L69.816,152L78.072,152ZM77.816,139.008L72.504,139.008L72.504,131.84L77.816,131.84C79.224,131.84 80.355,132.133 81.208,132.72C82.061,133.307 82.488,134.208 82.488,135.424C82.488,136.64 82.061,137.541 81.208,138.128C80.355,138.715 79.224,139.008 77.816,139.008ZM77.656,149.76L72.504,149.76L72.504,141.248L77.656,141.248C79.341,141.248 80.701,141.589 81.736,142.272C82.771,142.955 83.288,144.032 83.288,145.504C83.288,146.976 82.771,148.053 81.736,148.736C80.701,149.419 79.341,149.76 77.656,149.76ZM95.704,152.448C98.093,152.448 99.853,151.371 100.984,149.216L100.984,152L103.48,152L103.48,136.128L100.984,136.128L100.984,145.024C100.984,146.56 100.531,147.808 99.624,148.768C98.717,149.728 97.613,150.208 96.312,150.208C95.181,150.208 94.275,149.888 93.592,149.248C92.909,148.608 92.568,147.68 92.568,146.464L92.568,136.128L90.072,136.128L90.072,146.592C90.072,148.576 90.611,150.048 91.688,151.008C92.765,151.968 94.104,152.448 95.704,152.448ZM111.096,133.376L111.096,130.24L108.088,130.24L108.088,133.376L111.096,133.376ZM110.84,152L110.84,136.128L108.344,136.128L108.344,152L110.84,152ZM118.2,152L118.2,129.6L115.704,129.6L115.704,152L118.2,152ZM129.656,152.448C132.045,152.448 133.869,151.349 135.128,149.152L135.128,152L137.624,152L137.624,129.6L135.128,129.6L135.128,139.008C134.637,137.963 133.901,137.147 132.92,136.56C131.939,135.973 130.797,135.68 129.496,135.68C127.469,135.68 125.709,136.48 124.216,138.08C122.723,139.68 121.976,141.675 121.976,144.064C121.976,146.517 122.701,148.528 124.152,150.096C125.603,151.664 127.437,152.448 129.656,152.448ZM129.944,150.144C128.408,150.144 127.117,149.589 126.072,148.48C125.048,147.349 124.536,145.877 124.536,144.064C124.536,142.251 125.053,140.784 126.088,139.664C127.123,138.544 128.408,137.984 129.944,137.984C131.48,137.984 132.76,138.544 133.784,139.664C134.808,140.784 135.32,142.251 135.32,144.064C135.32,145.877 134.808,147.344 133.784,148.464C132.76,149.584 131.48,150.144 129.944,150.144ZM152.344,158.752C153.368,158.752 154.205,158.528 154.856,158.08C155.507,157.632 156.056,156.853 156.504,155.744L164.472,136.128L161.784,136.128L156.824,148.576L151.8,136.128L149.048,136.128L155.448,151.936L154.264,154.944C154.029,155.52 153.773,155.925 153.496,156.16C153.219,156.395 152.835,156.512 152.344,156.512C151.917,156.512 151.491,156.405 151.064,156.192L150.68,158.432C151.192,158.645 151.747,158.752 152.344,158.752ZM174.296,152.448C175.661,152.448 176.963,152.133 178.2,151.504C179.437,150.875 180.477,149.909 181.32,148.608C182.163,147.307 182.584,145.792 182.584,144.064C182.584,142.336 182.157,140.821 181.304,139.52C180.472,138.219 179.437,137.253 178.2,136.624C176.963,135.995 175.661,135.68 174.296,135.68C172.931,135.68 171.629,135.995 170.392,136.624C169.155,137.253 168.115,138.219 167.272,139.52C166.429,140.821 166.008,142.336 166.008,144.064C166.008,145.792 166.429,147.307 167.272,148.608C168.115,149.909 169.155,150.875 170.392,151.504C171.629,152.133 172.931,152.448 174.296,152.448ZM174.296,150.208C172.675,150.208 171.309,149.632 170.2,148.48C169.112,147.307 168.568,145.835 168.568,144.064C168.568,142.293 169.117,140.827 170.216,139.664C171.315,138.501 172.675,137.92 174.296,137.92C175.917,137.92 177.277,138.501 178.376,139.664C179.475,140.827 180.024,142.293 180.024,144.064C180.024,145.835 179.475,147.301 178.376,148.464C177.277,149.627 175.917,150.208 174.296,150.208ZM191.992,152.448C194.381,152.448 196.141,151.371 197.272,149.216L197.272,152L199.768,152L199.768,136.128L197.272,136.128L197.272,145.024C197.272,146.56 196.819,147.808 195.912,148.768C195.005,149.728 193.901,150.208 192.6,150.208C191.469,150.208 190.563,149.888 189.88,149.248C189.197,148.608 188.856,147.68 188.856,146.464L188.856,136.128L186.36,136.128L186.36,146.592C186.36,148.576 186.899,150.048 187.976,151.008C189.053,151.968 190.392,152.448 191.992,152.448ZM207.128,152L207.128,143.328C207.128,141.749 207.517,140.464 208.296,139.472C209.075,138.48 210.029,137.984 211.16,137.984C211.608,137.984 212.024,138.048 212.408,138.176L212.824,135.84C212.44,135.733 212.077,135.68 211.736,135.68C209.688,135.68 208.152,136.789 207.128,139.008L207.128,136.128L204.632,136.128L204.632,152L207.128,152ZM227.096,152L227.096,143.2C227.096,141.621 227.549,140.347 228.456,139.376C229.363,138.405 230.445,137.92 231.704,137.92C232.856,137.92 233.779,138.24 234.472,138.88C235.165,139.52 235.512,140.448 235.512,141.664L235.512,152L238.008,152L238.008,141.216C238.008,139.381 237.469,138 236.392,137.072C235.315,136.144 233.997,135.68 232.44,135.68C231.309,135.68 230.28,135.968 229.352,136.544C228.424,137.12 227.672,137.909 227.096,138.912L227.096,136.128L224.6,136.128L224.6,152L227.096,152ZM249.656,152.448C252.941,152.448 255.363,150.901 256.92,147.808L255.096,146.72C254.52,147.872 253.821,148.763 253,149.392C252.179,150.021 251.096,150.336 249.752,150.336C248.152,150.336 246.861,149.787 245.88,148.688C244.899,147.589 244.365,146.187 244.28,144.48L257.4,144.48L257.4,143.616C257.4,141.269 256.712,139.36 255.336,137.888C253.96,136.416 252.099,135.68 249.752,135.68C247.512,135.68 245.624,136.475 244.088,138.064C242.552,139.653 241.784,141.653 241.784,144.064C241.784,146.475 242.547,148.475 244.072,150.064C245.597,151.653 247.459,152.448 249.656,152.448ZM254.904,142.432L244.472,142.432C244.771,141.024 245.379,139.899 246.296,139.056C247.213,138.213 248.365,137.792 249.752,137.792C251.053,137.792 252.216,138.208 253.24,139.04C254.264,139.872 254.819,141.003 254.904,142.432ZM261.624,152L265.752,145.536L269.848,152L272.664,152L267.192,143.488L272.12,136.128L269.272,136.128L265.752,141.664L262.264,136.128L259.416,136.128L264.408,143.552L258.776,152L261.624,152ZM280.248,152.448C281.101,152.448 281.805,152.352 282.36,152.16L282.136,150.08C281.709,150.208 281.315,150.272 280.952,150.272C280.077,150.272 279.496,150.075 279.208,149.68C278.92,149.285 278.776,148.629 278.776,147.712L278.776,138.112L282.424,138.112L282.424,136.128L278.776,136.128L278.776,131.84L276.28,131.84L276.28,136.128L273.624,136.128L273.624,138.112L276.28,138.112L276.28,148.192C276.28,149.685 276.653,150.768 277.4,151.44C278.147,152.112 279.096,152.448 280.248,152.448ZM297.336,152L297.336,143.2C297.336,141.621 297.805,140.347 298.744,139.376C299.683,138.405 300.792,137.92 302.072,137.92C303.224,137.92 304.157,138.251 304.872,138.912C305.587,139.573 305.944,140.512 305.944,141.728L305.944,152L308.44,152L308.44,141.28C308.44,139.445 307.891,138.053 306.792,137.104C305.693,136.155 304.344,135.68 302.744,135.68C301.613,135.68 300.557,135.973 299.576,136.56C298.595,137.147 297.848,137.931 297.336,138.912L297.336,129.6L294.84,129.6L294.84,152L297.336,152ZM320.504,152.448C321.869,152.448 323.171,152.133 324.408,151.504C325.645,150.875 326.685,149.909 327.528,148.608C328.371,147.307 328.792,145.792 328.792,144.064C328.792,142.336 328.365,140.821 327.512,139.52C326.68,138.219 325.645,137.253 324.408,136.624C323.171,135.995 321.869,135.68 320.504,135.68C319.139,135.68 317.837,135.995 316.6,136.624C315.363,137.253 314.323,138.219 313.48,139.52C312.637,140.821 312.216,142.336 312.216,144.064C312.216,145.792 312.637,147.307 313.48,148.608C314.323,149.909 315.363,150.875 316.6,151.504C317.837,152.133 319.139,152.448 320.504,152.448ZM320.504,150.208C318.883,150.208 317.517,149.632 316.408,148.48C315.32,147.307 314.776,145.835 314.776,144.064C314.776,142.293 315.325,140.827 316.424,139.664C317.523,138.501 318.883,137.92 320.504,137.92C322.125,137.92 323.485,138.501 324.584,139.664C325.683,140.827 326.232,142.293 326.232,144.064C326.232,145.835 325.683,147.301 324.584,148.464C323.485,149.627 322.125,150.208 320.504,150.208ZM335.064,152L335.064,143.488C335.064,141.632 335.443,140.24 336.2,139.312C336.957,138.384 337.901,137.92 339.032,137.92C339.992,137.92 340.717,138.197 341.208,138.752C341.699,139.307 341.944,140.096 341.944,141.12L341.944,152L344.44,152L344.44,143.424C344.44,141.568 344.808,140.187 345.544,139.28C346.28,138.373 347.213,137.92 348.344,137.92C349.325,137.92 350.067,138.176 350.568,138.688C351.069,139.2 351.32,139.915 351.32,140.832L351.32,152L353.816,152L353.816,139.936C353.816,138.656 353.379,137.627 352.504,136.848C351.629,136.069 350.499,135.68 349.112,135.68C346.893,135.68 345.219,136.683 344.088,138.688C343.789,137.685 343.251,136.933 342.472,136.432C341.693,135.931 340.792,135.68 339.768,135.68C338.723,135.68 337.779,135.968 336.936,136.544C336.093,137.12 335.469,137.824 335.064,138.656L335.064,136.128L332.568,136.128L332.568,152L335.064,152ZM365.464,152.448C368.749,152.448 371.171,150.901 372.728,147.808L370.904,146.72C370.328,147.872 369.629,148.763 368.808,149.392C367.987,150.021 366.904,150.336 365.56,150.336C363.96,150.336 362.669,149.787 361.688,148.688C360.707,147.589 360.173,146.187 360.088,144.48L373.208,144.48L373.208,143.616C373.208,141.269 372.52,139.36 371.144,137.888C369.768,136.416 367.907,135.68 365.56,135.68C363.32,135.68 361.432,136.475 359.896,138.064C358.36,139.653 357.592,141.653 357.592,144.064C357.592,146.475 358.355,148.475 359.88,150.064C361.405,151.653 363.267,152.448 365.464,152.448ZM370.712,142.432L360.28,142.432C360.579,141.024 361.187,139.899 362.104,139.056C363.021,138.213 364.173,137.792 365.56,137.792C366.861,137.792 368.024,138.208 369.048,139.04C370.072,139.872 370.627,141.003 370.712,142.432ZM390.84,152L394.36,139.072L397.88,152L400.568,152L405.048,136.128L402.488,136.128L399.256,148.864L395.672,136.128L393.048,136.128L389.464,148.864L386.232,136.128L383.672,136.128L388.152,152L390.84,152ZM410.456,133.376L410.456,130.24L407.448,130.24L407.448,133.376L410.456,133.376ZM410.2,152L410.2,136.128L407.704,136.128L407.704,152L410.2,152ZM420.184,152.448C421.037,152.448 421.741,152.352 422.296,152.16L422.072,150.08C421.645,150.208 421.251,150.272 420.888,150.272C420.013,150.272 419.432,150.075 419.144,149.68C418.856,149.285 418.712,148.629 418.712,147.712L418.712,138.112L422.36,138.112L422.36,136.128L418.712,136.128L418.712,131.84L416.216,131.84L416.216,136.128L413.56,136.128L413.56,138.112L416.216,138.112L416.216,148.192C416.216,149.685 416.589,150.768 417.336,151.44C418.083,152.112 419.032,152.448 420.184,152.448ZM428.44,152L428.44,143.2C428.44,141.621 428.909,140.347 429.848,139.376C430.787,138.405 431.896,137.92 433.176,137.92C434.328,137.92 435.261,138.251 435.976,138.912C436.691,139.573 437.048,140.512 437.048,141.728L437.048,152L439.544,152L439.544,141.28C439.544,139.445 438.995,138.053 437.896,137.104C436.797,136.155 435.448,135.68 433.848,135.68C432.717,135.68 431.661,135.973 430.68,136.56C429.699,137.147 428.952,137.931 428.44,138.912L428.44,129.6L425.944,129.6L425.944,152L428.44,152ZM74.008,188.448C75.224,188.448 76.307,188.139 77.256,187.52C78.205,186.901 78.925,186.016 79.416,184.864C79.416,186.187 79.736,187.232 80.376,188L82.872,188C82.488,187.36 82.232,186.768 82.104,186.224C81.976,185.68 81.912,184.949 81.912,184.032L81.912,176.864C81.912,175.221 81.384,173.947 80.328,173.04C79.272,172.133 77.72,171.68 75.672,171.68C73.837,171.68 72.36,172.123 71.24,173.008C70.12,173.893 69.56,174.955 69.56,176.192C69.56,176.64 69.645,177.067 69.816,177.472L71.992,176.736C71.949,176.565 71.928,176.405 71.928,176.256C71.928,175.552 72.253,174.965 72.904,174.496C73.555,174.027 74.477,173.792 75.672,173.792C78.168,173.792 79.416,174.816 79.416,176.864L79.416,177.568L74.136,178.432C72.515,178.688 71.197,179.253 70.184,180.128C69.171,181.003 68.664,182.165 68.664,183.616C68.664,185.024 69.155,186.181 70.136,187.088C71.117,187.995 72.408,188.448 74.008,188.448ZM74.296,186.208C73.357,186.208 72.611,185.963 72.056,185.472C71.501,184.981 71.224,184.32 71.224,183.488C71.224,182.677 71.512,182.005 72.088,181.472C72.664,180.939 73.496,180.576 74.584,180.384L79.416,179.552L79.416,180.032C79.416,181.739 78.963,183.195 78.056,184.4C77.149,185.605 75.896,186.208 74.296,186.208ZM100.76,188.448C101.613,188.448 102.317,188.352 102.872,188.16L102.648,186.08C102.221,186.208 101.827,186.272 101.464,186.272C100.589,186.272 100.008,186.075 99.72,185.68C99.432,185.285 99.288,184.629 99.288,183.712L99.288,174.112L102.936,174.112L102.936,172.128L99.288,172.128L99.288,167.84L96.792,167.84L96.792,172.128L94.136,172.128L94.136,174.112L96.792,174.112L96.792,184.192C96.792,185.685 97.165,186.768 97.912,187.44C98.659,188.112 99.608,188.448 100.76,188.448ZM109.016,188L109.016,179.328C109.016,177.749 109.405,176.464 110.184,175.472C110.963,174.48 111.917,173.984 113.048,173.984C113.496,173.984 113.912,174.048 114.296,174.176L114.712,171.84C114.328,171.733 113.965,171.68 113.624,171.68C111.576,171.68 110.04,172.789 109.016,175.008L109.016,172.128L106.52,172.128L106.52,188L109.016,188ZM123.288,188.448C125.677,188.448 127.437,187.371 128.568,185.216L128.568,188L131.064,188L131.064,172.128L128.568,172.128L128.568,181.024C128.568,182.56 128.115,183.808 127.208,184.768C126.301,185.728 125.197,186.208 123.896,186.208C122.765,186.208 121.859,185.888 121.176,185.248C120.493,184.608 120.152,183.68 120.152,182.464L120.152,172.128L117.656,172.128L117.656,182.592C117.656,184.576 118.195,186.048 119.272,187.008C120.349,187.968 121.688,188.448 123.288,188.448ZM141.784,188.448C143.661,188.448 145.133,187.957 146.2,186.976C147.267,185.995 147.8,184.789 147.8,183.36C147.8,180.928 146.019,179.371 142.456,178.688C141.069,178.432 140.019,178.091 139.304,177.664C138.589,177.237 138.232,176.64 138.232,175.872C138.232,175.189 138.531,174.672 139.128,174.32C139.725,173.968 140.493,173.792 141.432,173.792C143.48,173.792 144.888,174.741 145.656,176.64L147.576,175.52C146.509,172.96 144.451,171.68 141.4,171.68C139.885,171.68 138.595,172.069 137.528,172.848C136.461,173.627 135.928,174.667 135.928,175.968C135.928,177.248 136.419,178.267 137.4,179.024C138.381,179.781 139.661,180.309 141.24,180.608C142.648,180.864 143.677,181.211 144.328,181.648C144.979,182.085 145.304,182.688 145.304,183.456C145.304,184.331 144.989,185.019 144.36,185.52C143.731,186.021 142.872,186.272 141.784,186.272C139.587,186.272 138.029,185.035 137.112,182.56L135.032,183.84C135.544,185.184 136.381,186.288 137.544,187.152C138.707,188.016 140.12,188.448 141.784,188.448ZM156.76,188.448C157.613,188.448 158.317,188.352 158.872,188.16L158.648,186.08C158.221,186.208 157.827,186.272 157.464,186.272C156.589,186.272 156.008,186.075 155.72,185.68C155.432,185.285 155.288,184.629 155.288,183.712L155.288,174.112L158.936,174.112L158.936,172.128L155.288,172.128L155.288,167.84L152.792,167.84L152.792,172.128L150.136,172.128L150.136,174.112L152.792,174.112L152.792,184.192C152.792,185.685 153.165,186.768 153.912,187.44C154.659,188.112 155.608,188.448 156.76,188.448ZM169.304,188.448C172.589,188.448 175.011,186.901 176.568,183.808L174.744,182.72C174.168,183.872 173.469,184.763 172.648,185.392C171.827,186.021 170.744,186.336 169.4,186.336C167.8,186.336 166.509,185.787 165.528,184.688C164.547,183.589 164.013,182.187 163.928,180.48L177.048,180.48L177.048,179.616C177.048,177.269 176.36,175.36 174.984,173.888C173.608,172.416 171.747,171.68 169.4,171.68C167.16,171.68 165.272,172.475 163.736,174.064C162.2,175.653 161.432,177.653 161.432,180.064C161.432,182.475 162.195,184.475 163.72,186.064C165.245,187.653 167.107,188.448 169.304,188.448ZM174.552,178.432L164.12,178.432C164.419,177.024 165.027,175.899 165.944,175.056C166.861,174.213 168.013,173.792 169.4,173.792C170.701,173.792 171.864,174.208 172.888,175.04C173.912,175.872 174.467,177.003 174.552,178.432ZM187.48,188.448C189.869,188.448 191.693,187.349 192.952,185.152L192.952,188L195.448,188L195.448,165.6L192.952,165.6L192.952,175.008C192.461,173.963 191.725,173.147 190.744,172.56C189.763,171.973 188.621,171.68 187.32,171.68C185.293,171.68 183.533,172.48 182.04,174.08C180.547,175.68 179.8,177.675 179.8,180.064C179.8,182.517 180.525,184.528 181.976,186.096C183.427,187.664 185.261,188.448 187.48,188.448ZM187.768,186.144C186.232,186.144 184.941,185.589 183.896,184.48C182.872,183.349 182.36,181.877 182.36,180.064C182.36,178.251 182.877,176.784 183.912,175.664C184.947,174.544 186.232,173.984 187.768,173.984C189.304,173.984 190.584,174.544 191.608,175.664C192.632,176.784 193.144,178.251 193.144,180.064C193.144,181.877 192.632,183.344 191.608,184.464C190.584,185.584 189.304,186.144 187.768,186.144ZM209.656,188L212.248,181.376L222.168,181.376L224.76,188L227.512,188L218.616,165.6L215.8,165.6L206.904,188L209.656,188ZM221.272,179.136L213.112,179.136L216.536,170.432L217.208,168.576C217.357,169.045 217.581,169.664 217.88,170.432L221.272,179.136ZM235.768,188.448C238.157,188.448 239.917,187.371 241.048,185.216L241.048,188L243.544,188L243.544,172.128L241.048,172.128L241.048,181.024C241.048,182.56 240.595,183.808 239.688,184.768C238.781,185.728 237.677,186.208 236.376,186.208C235.245,186.208 234.339,185.888 233.656,185.248C232.973,184.608 232.632,183.68 232.632,182.464L232.632,172.128L230.136,172.128L230.136,182.592C230.136,184.576 230.675,186.048 231.752,187.008C232.829,187.968 234.168,188.448 235.768,188.448ZM254.264,188.448C256.141,188.448 257.613,187.957 258.68,186.976C259.747,185.995 260.28,184.789 260.28,183.36C260.28,180.928 258.499,179.371 254.936,178.688C253.549,178.432 252.499,178.091 251.784,177.664C251.069,177.237 250.712,176.64 250.712,175.872C250.712,175.189 251.011,174.672 251.608,174.32C252.205,173.968 252.973,173.792 253.912,173.792C255.96,173.792 257.368,174.741 258.136,176.64L260.056,175.52C258.989,172.96 256.931,171.68 253.88,171.68C252.365,171.68 251.075,172.069 250.008,172.848C248.941,173.627 248.408,174.667 248.408,175.968C248.408,177.248 248.899,178.267 249.88,179.024C250.861,179.781 252.141,180.309 253.72,180.608C255.128,180.864 256.157,181.211 256.808,181.648C257.459,182.085 257.784,182.688 257.784,183.456C257.784,184.331 257.469,185.019 256.84,185.52C256.211,186.021 255.352,186.272 254.264,186.272C252.067,186.272 250.509,185.035 249.592,182.56L247.512,183.84C248.024,185.184 248.861,186.288 250.024,187.152C251.187,188.016 252.6,188.448 254.264,188.448ZM269.24,188.448C270.093,188.448 270.797,188.352 271.352,188.16L271.128,186.08C270.701,186.208 270.307,186.272 269.944,186.272C269.069,186.272 268.488,186.075 268.2,185.68C267.912,185.285 267.768,184.629 267.768,183.712L267.768,174.112L271.416,174.112L271.416,172.128L267.768,172.128L267.768,167.84L265.272,167.84L265.272,172.128L262.616,172.128L262.616,174.112L265.272,174.112L265.272,184.192C265.272,185.685 265.645,186.768 266.392,187.44C267.139,188.112 268.088,188.448 269.24,188.448ZM277.496,188L277.496,179.328C277.496,177.749 277.885,176.464 278.664,175.472C279.443,174.48 280.397,173.984 281.528,173.984C281.976,173.984 282.392,174.048 282.776,174.176L283.192,171.84C282.808,171.733 282.445,171.68 282.104,171.68C280.056,171.68 278.52,172.789 277.496,175.008L277.496,172.128L275,172.128L275,188L277.496,188ZM290.712,188.448C291.928,188.448 293.011,188.139 293.96,187.52C294.909,186.901 295.629,186.016 296.12,184.864C296.12,186.187 296.44,187.232 297.08,188L299.576,188C299.192,187.36 298.936,186.768 298.808,186.224C298.68,185.68 298.616,184.949 298.616,184.032L298.616,176.864C298.616,175.221 298.088,173.947 297.032,173.04C295.976,172.133 294.424,171.68 292.376,171.68C290.541,171.68 289.064,172.123 287.944,173.008C286.824,173.893 286.264,174.955 286.264,176.192C286.264,176.64 286.349,177.067 286.52,177.472L288.696,176.736C288.653,176.565 288.632,176.405 288.632,176.256C288.632,175.552 288.957,174.965 289.608,174.496C290.259,174.027 291.181,173.792 292.376,173.792C294.872,173.792 296.12,174.816 296.12,176.864L296.12,177.568L290.84,178.432C289.219,178.688 287.901,179.253 286.888,180.128C285.875,181.003 285.368,182.165 285.368,183.616C285.368,185.024 285.859,186.181 286.84,187.088C287.821,187.995 289.112,188.448 290.712,188.448ZM291,186.208C290.061,186.208 289.315,185.963 288.76,185.472C288.205,184.981 287.928,184.32 287.928,183.488C287.928,182.677 288.216,182.005 288.792,181.472C289.368,180.939 290.2,180.576 291.288,180.384L296.12,179.552L296.12,180.032C296.12,181.739 295.667,183.195 294.76,184.4C293.853,185.605 292.6,186.208 291,186.208ZM306.008,188L306.008,165.6L303.512,165.6L303.512,188L306.008,188ZM313.624,169.376L313.624,166.24L310.616,166.24L310.616,169.376L313.624,169.376ZM313.368,188L313.368,172.128L310.872,172.128L310.872,188L313.368,188ZM322.808,188.448C324.024,188.448 325.107,188.139 326.056,187.52C327.005,186.901 327.725,186.016 328.216,184.864C328.216,186.187 328.536,187.232 329.176,188L331.672,188C331.288,187.36 331.032,186.768 330.904,186.224C330.776,185.68 330.712,184.949 330.712,184.032L330.712,176.864C330.712,175.221 330.184,173.947 329.128,173.04C328.072,172.133 326.52,171.68 324.472,171.68C322.637,171.68 321.16,172.123 320.04,173.008C318.92,173.893 318.36,174.955 318.36,176.192C318.36,176.64 318.445,177.067 318.616,177.472L320.792,176.736C320.749,176.565 320.728,176.405 320.728,176.256C320.728,175.552 321.053,174.965 321.704,174.496C322.355,174.027 323.277,173.792 324.472,173.792C326.968,173.792 328.216,174.816 328.216,176.864L328.216,177.568L322.936,178.432C321.315,178.688 319.997,179.253 318.984,180.128C317.971,181.003 317.464,182.165 317.464,183.616C317.464,185.024 317.955,186.181 318.936,187.088C319.917,187.995 321.208,188.448 322.808,188.448ZM323.096,186.208C322.157,186.208 321.411,185.963 320.856,185.472C320.301,184.981 320.024,184.32 320.024,183.488C320.024,182.677 320.312,182.005 320.888,181.472C321.464,180.939 322.296,180.576 323.384,180.384L328.216,179.552L328.216,180.032C328.216,181.739 327.763,183.195 326.856,184.4C325.949,185.605 324.696,186.208 323.096,186.208ZM338.104,188L338.104,179.2C338.104,177.621 338.557,176.347 339.464,175.376C340.371,174.405 341.453,173.92 342.712,173.92C343.864,173.92 344.787,174.24 345.48,174.88C346.173,175.52 346.52,176.448 346.52,177.664L346.52,188L349.016,188L349.016,177.216C349.016,175.381 348.477,174 347.4,173.072C346.323,172.144 345.005,171.68 343.448,171.68C342.317,171.68 341.288,171.968 340.36,172.544C339.432,173.12 338.68,173.909 338.104,174.912L338.104,172.128L335.608,172.128L335.608,188L338.104,188Z" style="fill:white;fill-rule:nonzero;"/>
            <path id="HomeBuilder" d="M79.06,442.26C80.2,443.16 81.28,442.86 82.3,441.36C82.42,441.24 82.495,441.105 82.525,440.955C82.555,440.805 82.63,440.61 82.75,440.37C82.87,440.13 82.96,440.01 83.02,440.01L83.11,440.01L83.11,439.29L81.67,438.03L80.32,438.3C80.44,436.02 80.845,434.16 81.535,432.72C82.225,431.28 82.99,429.87 83.83,428.49C85.03,426.39 86.335,424.515 87.745,422.865C89.155,421.215 90.22,419.85 90.94,418.77C91.54,417.81 92.11,417.075 92.65,416.565C93.19,416.055 93.805,415.665 94.495,415.395C95.185,415.125 95.965,414.93 96.835,414.81C97.705,414.69 98.83,414.48 100.21,414.18C100.69,414.06 101.485,413.895 102.595,413.685C103.705,413.475 104.86,413.25 106.06,413.01C107.26,412.77 108.385,412.575 109.435,412.425C110.485,412.275 111.22,412.2 111.64,412.2C111.52,412.56 111.325,412.95 111.055,413.37C110.785,413.79 110.53,414.12 110.29,414.36L107.32,419.04C106.6,420.3 105.925,421.53 105.295,422.73C104.665,423.93 104.095,425.175 103.585,426.465C103.075,427.755 102.655,429.15 102.325,430.65C101.995,432.15 101.8,433.83 101.74,435.69C101.68,436.41 101.725,437.055 101.875,437.625C102.025,438.195 102.22,438.72 102.46,439.2C102.82,439.86 103.135,440.31 103.405,440.55C103.675,440.79 104.11,440.94 104.71,441L105.97,439.83C105.91,439.35 105.79,438.99 105.61,438.75C105.43,438.51 105.28,438.225 105.16,437.895C105.04,437.565 105.01,437.07 105.07,436.41C105.13,435.75 105.4,434.79 105.88,433.53C106.54,431.49 107.17,429.705 107.77,428.175C108.37,426.645 109.27,424.95 110.47,423.09L114.43,417.24C114.61,417 114.895,416.595 115.285,416.025C115.675,415.455 116.11,414.87 116.59,414.27C117.07,413.67 117.52,413.13 117.94,412.65C118.36,412.17 118.66,411.9 118.84,411.84C119.5,411.9 119.935,411.885 120.145,411.795C120.355,411.705 120.67,411.51 121.09,411.21C121.09,410.55 121.12,410.07 121.18,409.77C121.24,409.47 121.24,408.96 121.18,408.24L128.11,399.51C128.41,399.21 128.59,398.94 128.65,398.7C128.71,398.46 128.89,398.19 129.19,397.89L131.44,394.83C131.74,394.47 131.965,394.215 132.115,394.065C132.265,393.915 132.46,393.69 132.7,393.39L135.22,390.6C135.88,389.94 136.24,389.22 136.3,388.44C136.36,387.66 136.285,386.925 136.075,386.235C135.865,385.545 135.55,384.945 135.13,384.435C134.71,383.925 134.35,383.64 134.05,383.58L133.06,383.58C132.94,383.82 132.85,384.015 132.79,384.165C132.73,384.315 132.64,384.51 132.52,384.75C132.4,384.93 132.265,385.11 132.115,385.29C131.965,385.47 131.83,385.68 131.71,385.92C130.75,387.6 129.475,389.43 127.885,391.41C126.295,393.39 124.87,395.19 123.61,396.81C123.37,397.11 123.22,397.305 123.16,397.395C123.1,397.485 122.98,397.68 122.8,397.98L118.66,403.29C117.7,404.31 117.145,404.985 116.995,405.315C116.845,405.645 116.65,405.84 116.41,405.9C116.17,405.96 115.72,405.975 115.06,405.945C114.4,405.915 113.08,406.08 111.1,406.44L105.16,407.43C104.08,407.55 103.06,407.73 102.1,407.97C101.14,408.21 100.15,408.39 99.13,408.51C99.25,408.27 99.595,407.775 100.165,407.025C100.735,406.275 101.365,405.465 102.055,404.595C102.745,403.725 103.405,402.9 104.035,402.12C104.665,401.34 105.13,400.8 105.43,400.5L108.85,396.63C109.09,396.33 109.225,396.165 109.255,396.135L109.66,395.73C109.78,395.55 109.9,395.37 110.02,395.19C110.14,395.01 110.29,394.83 110.47,394.65C110.65,394.47 110.815,394.32 110.965,394.2C111.115,394.08 111.25,393.96 111.37,393.84C111.61,393.6 111.745,393.435 111.775,393.345C111.805,393.255 111.97,393.09 112.27,392.85C112.33,392.25 112.255,391.515 112.045,390.645C111.835,389.775 111.52,389.025 111.1,388.395C110.68,387.765 110.215,387.405 109.705,387.315C109.195,387.225 108.64,387.72 108.04,388.8C107.86,389.16 107.545,389.655 107.095,390.285C106.645,390.915 106.15,391.56 105.61,392.22C105.07,392.88 104.545,393.495 104.035,394.065C103.525,394.635 103.15,395.07 102.91,395.37C102.07,396.33 101.29,397.32 100.57,398.34C99.85,399.36 98.89,400.5 97.69,401.76C97.33,402.12 97.045,402.48 96.835,402.84C96.625,403.2 96.34,403.59 95.98,404.01L90.76,410.4C90.46,410.58 90.025,410.745 89.455,410.895C88.885,411.045 88.42,411.15 88.06,411.21C87.04,411.45 85.915,411.66 84.685,411.84C83.455,412.02 82.36,412.11 81.4,412.11C80.8,412.05 80.305,411.885 79.915,411.615C79.525,411.345 78.94,411.27 78.16,411.39C77.62,411.45 77.275,411.66 77.125,412.02C76.975,412.38 76.9,412.785 76.9,413.235C76.9,413.685 76.975,414.135 77.125,414.585C77.275,415.035 77.41,415.38 77.53,415.62C77.89,416.34 78.31,416.85 78.79,417.15C79.27,417.45 79.84,417.63 80.5,417.69C81.16,417.75 81.895,417.735 82.705,417.645C83.515,417.555 84.4,417.48 85.36,417.42L83.02,420.66C81.82,422.4 80.68,424.14 79.6,425.88C78.52,427.62 77.74,429.54 77.26,431.64C77.08,432.54 76.93,433.485 76.81,434.475C76.69,435.465 76.675,436.44 76.765,437.4C76.855,438.36 77.065,439.26 77.395,440.1C77.725,440.94 78.28,441.66 79.06,442.26ZM119.92,436.545C119.32,436.755 118.57,436.71 117.67,436.41C117.43,435.33 117.67,434.1 118.39,432.72C119.11,431.34 119.98,430.005 121,428.715C122.02,427.425 123.085,426.285 124.195,425.295C125.305,424.305 126.13,423.63 126.67,423.27L127.57,422.64C128.11,422.34 128.635,422.01 129.145,421.65C129.655,421.29 130.24,421.05 130.9,420.93C130.72,421.47 130.675,421.98 130.765,422.46C130.855,422.94 131.005,423.39 131.215,423.81C131.425,424.23 131.65,424.65 131.89,425.07C132.13,425.49 132.34,425.91 132.52,426.33C132.22,426.93 131.995,427.35 131.845,427.59C131.695,427.83 131.545,428.025 131.395,428.175C131.245,428.325 131.095,428.46 130.945,428.58C130.795,428.7 130.57,428.94 130.27,429.3C130.09,429.54 129.775,429.87 129.325,430.29C128.875,430.71 128.41,431.13 127.93,431.55C127.45,431.97 126.97,432.375 126.49,432.765C126.01,433.155 125.65,433.44 125.41,433.62C124.93,434.04 124.36,434.43 123.7,434.79C123.04,435.15 122.44,435.48 121.9,435.78C121.18,436.08 120.52,436.335 119.92,436.545ZM132.866,420.263C132.853,420.273 132.978,420.225 133.24,420.12C134.02,419.94 134.65,419.925 135.13,420.075C135.61,420.225 136.015,420.435 136.345,420.705C136.675,420.975 137.005,421.29 137.335,421.65C137.665,422.01 138.1,422.28 138.64,422.46C139.54,421.86 139.915,421.335 139.765,420.885C139.615,420.435 139.42,420 139.18,419.58C139,419.34 138.805,418.95 138.595,418.41C138.385,417.87 137.86,417.42 137.02,417.06L134.95,416.07C133.75,415.41 132.295,415.335 130.585,415.845C128.875,416.355 127.15,417.135 125.41,418.185C123.67,419.235 122.05,420.405 120.55,421.695C119.05,422.985 117.91,424.08 117.13,424.98C116.89,425.22 116.71,425.37 116.59,425.43C116.47,425.49 116.29,425.64 116.05,425.88C115.39,426.72 114.685,427.845 113.935,429.255C113.185,430.665 112.81,431.97 112.81,433.17C112.81,434.13 112.885,434.745 113.035,435.015C113.185,435.285 113.41,435.72 113.71,436.32C113.95,436.92 114.115,437.295 114.205,437.445C114.295,437.595 114.355,437.685 114.385,437.715C114.415,437.745 114.475,437.79 114.565,437.85C114.655,437.91 114.85,438.15 115.15,438.57L117.31,440.28C118.63,441 120.055,441.225 121.585,440.955C123.115,440.685 124.51,440.25 125.77,439.65L129.28,437.31C129.76,436.95 130.375,436.455 131.125,435.825C131.875,435.195 132.625,434.505 133.375,433.755C134.125,433.005 134.815,432.27 135.445,431.55C136.075,430.83 136.51,430.2 136.75,429.66C137.47,429.72 138.19,429.765 138.91,429.795C139.63,429.825 140.425,429.78 141.295,429.66C142.165,429.54 143.17,429.3 144.31,428.94C145.45,428.58 146.83,428.01 148.45,427.23C148.81,426.99 149.095,426.645 149.305,426.195C149.515,425.745 149.62,425.31 149.62,424.89C149.62,424.47 149.485,424.155 149.215,423.945C148.945,423.735 148.48,423.75 147.82,423.99C146.44,424.47 144.895,424.965 143.185,425.475C141.475,425.985 139.75,426.12 138.01,425.88L135.85,423.18C135.43,422.76 135.16,422.46 135.04,422.28C134.92,422.1 134.53,421.8 133.87,421.38C133.45,421.08 133.12,420.915 132.88,420.885C132.64,420.855 132.55,420.69 132.61,420.39C132.73,420.33 132.813,420.289 132.857,420.266L132.866,420.263ZM141.16,441.63C141.76,441.69 142.435,441.51 143.185,441.09C143.935,440.67 144.7,440.145 145.48,439.515C146.26,438.885 146.995,438.255 147.685,437.625C148.375,436.995 148.96,436.53 149.44,436.23L152.86,433.62C153.34,433.26 154.075,432.645 155.065,431.775C156.055,430.905 157.09,430.005 158.17,429.075C159.25,428.145 160.3,427.275 161.32,426.465C162.34,425.655 163.12,425.13 163.66,424.89L165.19,424.35C165.07,424.65 164.77,425.1 164.29,425.7C163.81,426.3 163.27,426.945 162.67,427.635C162.07,428.325 161.5,428.97 160.96,429.57C160.42,430.17 160.03,430.59 159.79,430.83L157.45,433.53C157.03,434.07 156.67,434.505 156.37,434.835C156.07,435.165 155.845,435.51 155.695,435.87C155.545,436.23 155.515,436.68 155.605,437.22C155.695,437.76 155.92,438.48 156.28,439.38C156.76,440.52 157.36,441.09 158.08,441.09C158.8,441.09 159.58,440.76 160.42,440.1L162.67,438.75C163.15,438.57 163.57,438.405 163.93,438.255C164.29,438.105 164.62,437.88 164.92,437.58C165.22,437.28 165.52,436.995 165.82,436.725C166.12,436.455 166.45,436.14 166.81,435.78C167.35,435.24 168.025,434.655 168.835,434.025C169.645,433.395 170.47,432.78 171.31,432.18C172.15,431.58 172.93,431.04 173.65,430.56C174.37,430.08 174.94,429.75 175.36,429.57C175.66,429.45 175.855,429.345 175.945,429.255C176.035,429.165 176.2,429.06 176.44,428.94C176.56,428.88 176.665,428.85 176.755,428.85C176.845,428.85 176.95,428.82 177.07,428.76C177.31,428.64 177.475,428.55 177.565,428.49C177.655,428.43 177.745,428.385 177.835,428.355C177.925,428.325 178.06,428.295 178.24,428.265C178.42,428.235 178.72,428.19 179.14,428.13C179.02,428.49 178.72,428.985 178.24,429.615C177.76,430.245 177.265,430.935 176.755,431.685C176.245,432.435 175.81,433.215 175.45,434.025C175.09,434.835 175,435.63 175.18,436.41C175.24,436.71 175.3,436.845 175.36,436.815C175.42,436.785 175.45,436.98 175.45,437.4C175.45,437.82 175.435,438.09 175.405,438.21C175.375,438.33 175.39,438.435 175.45,438.525C175.51,438.615 175.615,438.735 175.765,438.885C175.915,439.035 176.14,439.32 176.44,439.74C176.68,440.1 176.98,440.415 177.34,440.685C177.7,440.955 178.3,441 179.14,440.82C180.16,440.76 181.465,440.265 183.055,439.335C184.645,438.405 186.37,437.22 188.23,435.78C190.09,434.34 192.01,432.69 193.99,430.83C195.97,428.97 197.86,427.05 199.66,425.07C199.72,424.41 199.6,424.05 199.3,423.99C199,423.93 198.58,423.75 198.04,423.45C197.14,424.11 195.91,425.055 194.35,426.285C192.79,427.515 191.125,428.775 189.355,430.065C187.585,431.355 185.875,432.525 184.225,433.575C182.575,434.625 181.21,435.33 180.13,435.69C180.25,435.27 180.625,434.655 181.255,433.845C181.885,433.035 182.515,432.165 183.145,431.235C183.775,430.305 184.24,429.36 184.54,428.4C184.84,427.44 184.75,426.6 184.27,425.88C184.09,425.64 183.985,425.55 183.955,425.61C183.925,425.67 183.82,425.58 183.64,425.34C183.52,425.16 183.445,425.025 183.415,424.935C183.385,424.845 183.325,424.725 183.235,424.575C183.145,424.425 182.98,424.275 182.74,424.125C182.5,423.975 182.11,423.78 181.57,423.54C180.91,423.24 180.4,423.075 180.04,423.045C179.68,423.015 179.08,423.15 178.24,423.45C177.94,423.57 177.655,423.66 177.385,423.72C177.115,423.78 176.83,423.9 176.53,424.08L165.82,431.46L166.63,429.93C166.69,429.81 167.005,429.39 167.575,428.67C168.145,427.95 168.76,427.17 169.42,426.33C170.08,425.49 170.695,424.695 171.265,423.945C171.835,423.195 172.12,422.76 172.12,422.64C172,421.92 171.94,421.455 171.94,421.245C171.94,421.035 171.7,420.63 171.22,420.03C170.92,419.73 170.605,419.37 170.275,418.95C169.945,418.53 169.51,418.35 168.97,418.41C168.85,418.41 168.64,418.44 168.34,418.5C168.04,418.56 167.725,418.62 167.395,418.68C167.065,418.74 166.765,418.8 166.495,418.86C166.225,418.92 166.06,418.95 166,418.95C165.64,419.07 165.295,419.295 164.965,419.625C164.635,419.955 164.23,420.24 163.75,420.48C162.97,420.84 162.04,421.425 160.96,422.235C159.88,423.045 158.77,423.9 157.63,424.8C156.49,425.7 155.38,426.57 154.3,427.41C153.22,428.25 152.32,428.88 151.6,429.3C151.24,429.48 150.85,429.72 150.43,430.02C150.01,430.32 149.56,430.53 149.08,430.65C149.14,430.53 149.695,429.825 150.745,428.535C151.795,427.245 152.98,425.85 154.3,424.35C155.62,422.85 156.865,421.44 158.035,420.12C159.205,418.8 159.97,418.05 160.33,417.87L160.51,416.07C160.03,415.59 159.715,415.17 159.565,414.81C159.415,414.45 159.07,414.09 158.53,413.73C158.17,413.49 157.6,413.64 156.82,414.18C156.04,414.72 155.185,415.485 154.255,416.475C153.325,417.465 152.32,418.605 151.24,419.895C150.16,421.185 149.155,422.445 148.225,423.675C147.295,424.905 146.44,426.03 145.66,427.05C144.88,428.07 144.31,428.82 143.95,429.3C143.65,429.6 143.275,430.095 142.825,430.785C142.375,431.475 142,432.03 141.7,432.45C141.4,432.93 141.085,433.41 140.755,433.89C140.425,434.37 140.14,434.88 139.9,435.42C139.48,436.38 139.24,437.205 139.18,437.895C139.12,438.585 139.33,439.44 139.81,440.46C139.93,440.76 140.11,441.015 140.35,441.225C140.59,441.435 140.86,441.57 141.16,441.63ZM204.205,440.955C204.835,440.985 205.39,440.97 205.87,440.91C207.73,440.67 209.47,440.175 211.09,439.425C212.71,438.675 214.24,437.76 215.68,436.68C217.12,435.6 218.53,434.445 219.91,433.215C221.29,431.985 222.67,430.74 224.05,429.48C224.71,428.7 225.295,428.04 225.805,427.5C226.315,426.96 226.735,426.42 227.065,425.88C227.395,425.34 227.62,424.785 227.74,424.215C227.86,423.645 227.89,422.94 227.83,422.1C227.35,421.92 226.945,421.83 226.615,421.83C226.285,421.83 225.985,421.89 225.715,422.01C225.445,422.13 225.175,422.325 224.905,422.595C224.635,422.865 224.29,423.18 223.87,423.54C223.69,423.72 223.48,423.885 223.24,424.035C223,424.185 222.79,424.35 222.61,424.53C221.59,425.43 220.48,426.405 219.28,427.455C218.08,428.505 216.835,429.525 215.545,430.515C214.255,431.505 212.95,432.42 211.63,433.26C210.31,434.1 209.02,434.79 207.76,435.33C207.28,435.51 206.725,435.705 206.095,435.915C205.465,436.125 204.805,436.275 204.115,436.365C203.425,436.455 202.75,436.485 202.09,436.455C201.43,436.425 200.89,436.29 200.47,436.05C200.23,435.57 200.11,434.97 200.11,434.25C200.11,433.53 200.155,432.795 200.245,432.045C200.335,431.295 200.485,430.605 200.695,429.975C200.905,429.345 201.13,428.85 201.37,428.49C202.39,428.67 203.365,428.775 204.295,428.805C205.225,428.835 206.2,428.73 207.22,428.49C207.94,428.37 208.735,428.13 209.605,427.77C210.475,427.41 211.18,427.02 211.72,426.6C212.26,426.24 212.845,425.775 213.475,425.205C214.105,424.635 214.69,424.02 215.23,423.36C215.77,422.7 216.22,421.98 216.58,421.2C216.94,420.42 217.12,419.64 217.12,418.86C217.12,418.2 216.97,417.555 216.67,416.925C216.37,416.295 215.98,415.74 215.5,415.26C215.02,414.78 214.48,414.405 213.88,414.135C213.28,413.865 212.68,413.73 212.08,413.73C211.24,413.73 210.34,413.94 209.38,414.36C208.42,414.78 207.46,415.29 206.5,415.89C205.54,416.49 204.625,417.12 203.755,417.78C202.885,418.44 202.12,419.04 201.46,419.58C201.22,419.76 200.98,419.94 200.74,420.12C200.5,420.3 200.23,420.54 199.93,420.84C199.03,421.8 198.43,422.415 198.13,422.685C197.83,422.955 197.635,423.165 197.545,423.315C197.455,423.465 197.395,423.675 197.365,423.945C197.335,424.215 197.14,424.86 196.78,425.88C196.48,426.72 196.255,427.44 196.105,428.04C195.955,428.64 195.82,429.45 195.7,430.47C195.4,432.27 195.4,433.83 195.7,435.15C196,436.47 196.78,437.73 198.04,438.93L198.67,439.56C198.91,439.8 199.18,439.98 199.48,440.1C199.66,440.22 200.02,440.34 200.56,440.46C201.1,440.58 201.685,440.685 202.315,440.775C202.945,440.865 203.575,440.925 204.205,440.955ZM206.95,423.9C205.81,424.38 204.82,424.53 203.98,424.35C204.1,424.11 204.55,423.645 205.33,422.955C206.11,422.265 206.995,421.575 207.985,420.885C208.975,420.195 209.935,419.595 210.865,419.085C211.795,418.575 212.5,418.32 212.98,418.32C212.68,419.4 212.23,420.195 211.63,420.705C211.03,421.215 210.31,421.8 209.47,422.46C208.93,422.94 208.09,423.42 206.95,423.9ZM259.51,440.82C260.83,440.94 262.585,440.88 264.775,440.64C266.965,440.4 269.215,440.01 271.525,439.47C273.835,438.93 276.025,438.255 278.095,437.445C280.165,436.635 281.8,435.72 283,434.7C284.38,433.5 285.28,432.21 285.7,430.83C286.12,429.45 286.21,428.085 285.97,426.735C285.73,425.385 285.235,424.08 284.485,422.82C283.735,421.56 282.895,420.42 281.965,419.4C281.035,418.38 280.075,417.51 279.085,416.79C278.095,416.07 277.27,415.59 276.61,415.35L277.78,414.54L279.13,414L284.17,411.21C284.59,410.97 285.115,410.625 285.745,410.175C286.375,409.725 287.005,409.245 287.635,408.735C288.265,408.225 288.85,407.715 289.39,407.205C289.93,406.695 290.35,406.23 290.65,405.81C291.25,405.03 291.82,404.1 292.36,403.02C292.9,401.94 293.23,400.89 293.35,399.87C293.41,398.49 293.245,397.11 292.855,395.73C292.465,394.35 291.85,393.075 291.01,391.905C290.17,390.735 289.15,389.775 287.95,389.025C286.75,388.275 285.43,387.84 283.99,387.72C282.73,387.6 281.41,387.57 280.03,387.63C278.65,387.69 277.3,387.9 275.98,388.26C272.56,389.22 269.185,390.48 265.855,392.04C262.525,393.6 259.45,395.58 256.63,397.98C256.33,398.22 256.015,398.49 255.685,398.79C255.355,399.09 254.98,399.39 254.56,399.69C254.14,399.99 253.675,400.425 253.165,400.995C252.655,401.565 252.19,402.18 251.77,402.84C251.35,403.5 251.005,404.19 250.735,404.91C250.465,405.63 250.36,406.29 250.42,406.89C250.48,407.85 250.675,408.885 251.005,409.995C251.335,411.105 252.01,411.72 253.03,411.84C253.33,411.84 253.555,411.825 253.705,411.795C253.855,411.765 254.08,411.66 254.38,411.48L254.65,411.21C254.59,410.67 254.425,410.31 254.155,410.13C253.885,409.95 253.63,409.8 253.39,409.68C253.15,409.56 252.985,409.35 252.895,409.05C252.805,408.75 252.91,408.21 253.21,407.43C253.63,406.41 254.14,405.585 254.74,404.955C255.34,404.325 255.97,403.74 256.63,403.2C256.99,402.96 257.47,402.555 258.07,401.985C258.67,401.415 259.3,400.95 259.96,400.59C260.62,400.23 261.085,399.945 261.355,399.735C261.625,399.525 261.91,399.3 262.21,399.06C262.51,398.82 262.945,398.55 263.515,398.25C264.085,397.95 265.03,397.47 266.35,396.81C266.71,396.69 266.98,396.555 267.16,396.405C267.34,396.255 267.7,396.09 268.24,395.91C268.6,395.79 268.945,395.64 269.275,395.46C269.605,395.28 269.95,395.1 270.31,394.92C270.85,394.68 271.51,394.44 272.29,394.2C273.07,393.96 273.88,393.735 274.72,393.525C275.56,393.315 276.385,393.135 277.195,392.985C278.005,392.835 278.74,392.73 279.4,392.67C280.84,392.55 282.28,392.52 283.72,392.58C285.16,392.64 286.57,393.18 287.95,394.2C288.43,394.5 288.94,394.995 289.48,395.685C290.02,396.375 290.29,397.11 290.29,397.89C290.23,398.49 289.93,399.225 289.39,400.095C288.85,400.965 288.37,401.61 287.95,402.03C287.71,402.33 287.485,402.57 287.275,402.75C287.065,402.93 286.81,403.14 286.51,403.38C286.21,403.62 285.925,403.875 285.655,404.145C285.385,404.415 285.1,404.67 284.8,404.91C284.32,405.27 283.78,405.66 283.18,406.08L277.6,409.23C276.82,409.59 276.085,409.89 275.395,410.13C274.705,410.37 274.03,410.64 273.37,410.94C273.79,410.28 274.225,409.74 274.675,409.32C275.125,408.9 275.56,408.42 275.98,407.88C275.92,406.44 275.635,405.195 275.125,404.145C274.615,403.095 273.67,402.51 272.29,402.39C271.93,403.05 271.66,403.605 271.48,404.055C271.3,404.505 271.135,404.925 270.985,405.315C270.835,405.705 270.655,406.08 270.445,406.44C270.235,406.8 269.95,407.22 269.59,407.7C269.29,408.12 269.005,408.465 268.735,408.735C268.465,409.005 268.15,409.38 267.79,409.86C267.49,410.34 267.22,410.715 266.98,410.985C266.74,411.255 266.44,411.57 266.08,411.93C265.36,411.87 264.625,411.765 263.875,411.615C263.125,411.465 262.42,411.345 261.76,411.255C261.1,411.165 260.515,411.135 260.005,411.165C259.495,411.195 259.15,411.36 258.97,411.66C258.85,412.32 258.775,412.935 258.745,413.505C258.715,414.075 258.82,414.69 259.06,415.35C259.3,415.95 259.525,416.385 259.735,416.655C259.945,416.925 260.14,417.105 260.32,417.195C260.5,417.285 260.68,417.36 260.86,417.42C261.04,417.48 261.19,417.63 261.31,417.87C261.13,418.17 260.935,418.455 260.725,418.725C260.515,418.995 260.26,419.28 259.96,419.58C259.72,419.88 259.495,420.195 259.285,420.525C259.075,420.855 258.85,421.17 258.61,421.47L253.3,428.94C252.82,429.78 252.49,430.65 252.31,431.55C252.13,432.45 252.1,433.5 252.22,434.7C249.7,434.04 247.945,433.425 246.955,432.855C245.965,432.285 245.38,431.7 245.2,431.1C245.02,430.5 245.11,429.9 245.47,429.3C245.83,428.7 246.1,428.01 246.28,427.23C245.98,426.87 245.77,426.585 245.65,426.375C245.53,426.165 245.17,426.15 244.57,426.33C244.51,426.21 244.48,426.15 244.48,426.15L244.39,425.7C243.31,426.36 242.605,427.02 242.275,427.68C241.945,428.34 241.9,429.48 242.14,431.1C242.2,431.88 242.32,432.51 242.5,432.99C242.68,433.47 242.89,433.89 243.13,434.25C243.37,434.61 243.655,434.955 243.985,435.285C244.315,435.615 244.72,435.99 245.2,436.41C245.38,436.59 245.695,436.815 246.145,437.085C246.595,437.355 247.105,437.64 247.675,437.94C248.245,438.24 248.785,438.51 249.295,438.75C249.805,438.99 250.18,439.14 250.42,439.2C251.5,439.5 252.385,439.725 253.075,439.875C253.765,440.025 254.41,440.16 255.01,440.28C255.61,440.4 256.24,440.505 256.9,440.595C257.56,440.685 258.43,440.76 259.51,440.82ZM259.24,435.69C258.22,435.69 257.275,435.645 256.405,435.555C255.535,435.465 254.89,435.3 254.47,435.06C254.41,434.94 254.32,434.94 254.2,435.06C254.08,435.18 254.14,434.94 254.38,434.34C254.44,434.16 254.5,434.055 254.56,434.025L254.74,433.935C254.8,433.905 254.89,433.845 255.01,433.755C255.13,433.665 255.28,433.47 255.46,433.17C255.94,432.33 256.54,431.385 257.26,430.335C257.98,429.285 258.64,428.46 259.24,427.86L264.64,421.02C265.18,420.42 265.645,419.85 266.035,419.31C266.425,418.77 266.86,418.35 267.34,418.05C267.82,417.75 268.45,417.615 269.23,417.645C270.01,417.675 271.03,417.93 272.29,418.41C272.83,418.59 273.55,418.89 274.45,419.31C275.35,419.73 276.28,420.225 277.24,420.795C278.2,421.365 279.115,421.995 279.985,422.685C280.855,423.375 281.53,424.095 282.01,424.845C282.49,425.595 282.7,426.375 282.64,427.185C282.58,427.995 282.1,428.79 281.2,429.57C279.04,431.37 276.49,432.69 273.55,433.53C272.41,433.89 271.51,434.16 270.85,434.34C270.19,434.52 269.59,434.655 269.05,434.745C268.51,434.835 267.895,434.925 267.205,435.015C266.515,435.105 265.57,435.24 264.37,435.42C263.83,435.48 263.095,435.54 262.165,435.6C261.235,435.66 260.26,435.69 259.24,435.69ZM308.47,442.215C309.49,442.545 310.555,442.62 311.665,442.44C312.775,442.26 313.855,441.915 314.905,441.405C315.955,440.895 316.87,440.4 317.65,439.92C319.45,438.54 320.845,437.475 321.835,436.725C322.825,435.975 323.71,435.255 324.49,434.565C325.27,433.875 326.065,433.125 326.875,432.315C327.685,431.505 328.81,430.32 330.25,428.76C330.55,428.52 330.835,428.31 331.105,428.13C331.375,427.95 331.66,427.74 331.96,427.5C332.38,427.2 332.635,426.93 332.725,426.69C332.815,426.45 332.89,426 332.95,425.34C332.53,425.04 332.17,424.665 331.87,424.215C331.57,423.765 331.09,423.57 330.43,423.63C330.19,423.63 329.56,424.02 328.54,424.8C327.52,425.58 326.29,426.525 324.85,427.635C323.41,428.745 321.85,429.945 320.17,431.235C318.49,432.525 316.87,433.71 315.31,434.79C313.75,435.87 312.34,436.725 311.08,437.355C309.82,437.985 308.89,438.21 308.29,438.03C307.99,437.37 308.065,436.725 308.515,436.095C308.965,435.465 309.37,434.88 309.73,434.34L320.8,421.92C321.1,421.56 321.46,421.245 321.88,420.975C322.3,420.705 322.3,420.18 321.88,419.4C321.58,418.92 321.07,418.35 320.35,417.69C319.63,417.03 318.97,416.76 318.37,416.88C317.95,417.12 317.605,417.45 317.335,417.87C317.065,418.29 316.75,418.68 316.39,419.04C316.21,419.16 315.76,419.52 315.04,420.12C314.32,420.72 313.45,421.44 312.43,422.28C311.41,423.12 310.315,424.02 309.145,424.98C307.975,425.94 306.88,426.84 305.86,427.68C304.84,428.52 303.94,429.24 303.16,429.84C302.38,430.44 301.87,430.8 301.63,430.92L296.23,434.07C295.93,434.25 295.51,434.49 294.97,434.79C294.43,435.09 293.875,435.375 293.305,435.645C292.735,435.915 292.195,436.125 291.685,436.275C291.175,436.425 290.74,436.44 290.38,436.32C290.32,435.3 290.8,434.01 291.82,432.45C292.84,430.89 294.025,429.33 295.375,427.77C296.725,426.21 298.075,424.74 299.425,423.36C300.775,421.98 301.78,420.96 302.44,420.3C303.1,419.64 303.745,419.13 304.375,418.77C305.005,418.41 305.65,418.05 306.31,417.69C306.19,416.25 305.74,415.155 304.96,414.405C304.18,413.655 303.46,413.31 302.8,413.37C302.5,413.37 301.99,413.655 301.27,414.225C300.55,414.795 299.98,415.23 299.56,415.53C298.54,416.25 297.37,417.255 296.05,418.545C294.73,419.835 293.455,421.155 292.225,422.505C290.995,423.855 289.885,425.16 288.895,426.42C287.905,427.68 287.23,428.64 286.87,429.3C286.33,430.26 286,431.28 285.88,432.36C285.76,433.44 285.835,434.475 286.105,435.465C286.375,436.455 286.795,437.355 287.365,438.165C287.935,438.975 288.61,439.59 289.39,440.01C289.63,440.13 289.75,440.19 289.75,440.19C289.75,440.19 289.84,440.25 290.02,440.37C291.16,441.03 292.33,441.195 293.53,440.865C294.73,440.535 295.93,440.01 297.13,439.29C298.33,438.57 299.485,437.805 300.595,436.995C301.705,436.185 302.77,435.6 303.79,435.24C304.15,436.44 304.405,437.28 304.555,437.76C304.705,438.24 304.855,438.585 305.005,438.795C305.155,439.005 305.29,439.17 305.41,439.29C305.53,439.41 305.74,439.68 306.04,440.1C306.64,441.18 307.45,441.885 308.47,442.215ZM343.255,414.54C344.005,414.72 344.74,414.36 345.46,413.46C345.7,413.1 345.985,412.785 346.315,412.515C346.645,412.245 346.885,411.96 347.035,411.66C347.185,411.36 347.23,411.045 347.17,410.715C347.11,410.385 346.84,409.98 346.36,409.5C346,409.14 345.7,408.87 345.46,408.69C345.22,408.51 344.935,408.435 344.605,408.465C344.275,408.495 343.855,408.69 343.345,409.05C342.835,409.41 342.13,409.95 341.23,410.67C341.05,411.69 341.17,412.53 341.59,413.19C341.95,413.91 342.505,414.36 343.255,414.54ZM329.079,440.925L329.26,440.91C329.92,440.85 330.865,440.52 332.095,439.92C333.325,439.32 334.705,438.555 336.235,437.625C337.765,436.695 339.34,435.675 340.96,434.565C342.58,433.455 344.095,432.345 345.505,431.235C346.915,430.125 348.16,429.09 349.24,428.13C350.32,427.17 351.04,426.42 351.4,425.88L351.49,423.81C350.53,423.39 349.72,423.39 349.06,423.81C348.4,424.23 347.68,424.65 346.9,425.07C346.72,425.31 346.225,425.745 345.415,426.375C344.605,427.005 343.63,427.725 342.49,428.535C341.35,429.345 340.12,430.215 338.8,431.145C337.48,432.075 336.205,432.915 334.975,433.665C333.745,434.415 332.635,435.03 331.645,435.51C330.655,435.99 329.92,436.2 329.44,436.14C329.5,435.12 329.62,434.295 329.8,433.665C329.98,433.035 330.205,432.45 330.475,431.91C330.745,431.37 331.06,430.815 331.42,430.245C331.78,429.675 332.2,428.97 332.68,428.13C333.16,427.23 333.775,426.315 334.525,425.385C335.275,424.455 335.98,423.57 336.64,422.73C337.06,422.25 337.495,421.68 337.945,421.02C338.395,420.36 338.86,419.88 339.34,419.58C340.72,418.62 341.215,417.75 340.825,416.97C340.435,416.19 339.7,415.47 338.62,414.81C338.2,414.57 337.87,414.45 337.63,414.45C337.39,414.45 337.15,414.57 336.91,414.81C336.67,415.05 336.4,415.41 336.1,415.89C335.8,416.37 335.35,416.94 334.75,417.6C333.91,418.5 333.025,419.595 332.095,420.885C331.165,422.175 330.31,423.33 329.53,424.35C328.45,425.67 327.475,427.2 326.605,428.94C325.735,430.68 325.21,432.39 325.03,434.07C324.91,434.91 325,435.93 325.3,437.13C325.6,438.33 325.99,439.2 326.47,439.74C326.77,440.04 327.19,440.325 327.73,440.595C328.27,440.865 328.78,440.97 329.26,440.91L329.079,440.925ZM351.85,441C352.81,441.12 353.965,440.775 355.315,439.965C356.665,439.155 358.12,438.12 359.68,436.86C361.24,435.6 362.845,434.25 364.495,432.81C366.145,431.37 367.72,430.05 369.22,428.85C370.6,427.77 371.53,426.84 372.01,426.06C372.49,425.28 372.685,424.665 372.595,424.215C372.505,423.765 372.22,423.495 371.74,423.405C371.26,423.315 370.78,423.45 370.3,423.81L356.44,433.98C356.02,434.28 355.435,434.64 354.685,435.06C353.935,435.48 353.26,435.72 352.66,435.78C352.54,435.42 352.42,435.045 352.3,434.655C352.18,434.265 352.12,433.815 352.12,433.305C352.12,432.795 352.21,432.165 352.39,431.415C352.57,430.665 352.9,429.69 353.38,428.49C354.4,426.63 355.24,424.92 355.9,423.36C356.56,421.8 357.46,420.06 358.6,418.14C358.72,417.9 358.825,417.72 358.915,417.6C359.005,417.48 359.125,417.345 359.275,417.195C359.425,417.045 359.605,416.82 359.815,416.52C360.025,416.22 360.31,415.74 360.67,415.08C360.79,414.96 360.88,414.825 360.94,414.675C361,414.525 361.09,414.39 361.21,414.27C362.23,413.07 363.025,411.99 363.595,411.03C364.165,410.07 364.6,409.35 364.9,408.87L367.69,405.18C368.17,404.52 368.725,403.92 369.355,403.38C369.985,402.84 370.63,402.06 371.29,401.04C371.423,400.873 371.51,400.762 371.551,400.707L371.565,400.688L371.587,400.671C371.631,400.639 371.711,400.576 371.827,400.484L371.92,400.41C372.04,400.29 372.145,400.17 372.235,400.05C372.325,399.93 372.43,399.78 372.55,399.6C373.27,398.58 373.885,397.83 374.395,397.35C374.905,396.87 375.52,396.24 376.24,395.46L377.5,394.11C377.68,393.99 377.785,393.93 377.815,393.93C377.845,393.93 377.98,393.84 378.22,393.66C378.46,393.48 378.58,393.36 378.58,393.3C378.58,393.24 378.64,393.12 378.76,392.94L380.02,391.5C380.2,391.32 380.5,391.08 380.92,390.78C381.34,390.48 381.7,390.135 382,389.745C382.3,389.355 382.42,388.905 382.36,388.395C382.3,387.885 381.88,387.27 381.1,386.55C381.04,386.49 380.725,386.28 380.155,385.92C379.585,385.56 379.15,385.44 378.85,385.56C378.67,385.62 378.535,385.77 378.445,386.01C378.355,386.25 377.98,386.61 377.32,387.09C376.96,387.39 376.675,387.63 376.465,387.81C376.255,387.99 376,388.23 375.7,388.53C374.68,389.61 373.66,390.63 372.64,391.59C371.62,392.55 370.6,393.63 369.58,394.83C369.4,395.13 369.295,395.295 369.265,395.325L368.86,395.73L358.33,408.69C355.81,411.93 353.53,415.32 351.49,418.86C349.45,422.4 347.83,426.33 346.63,430.65C346.45,431.37 346.405,432.195 346.495,433.125C346.585,434.055 346.78,434.955 347.08,435.825C347.38,436.695 347.785,437.505 348.295,438.255C348.805,439.005 349.39,439.59 350.05,440.01C350.23,440.13 350.485,440.325 350.815,440.595C351.145,440.865 351.49,441 351.85,441ZM388.3,446.13C389.14,446.49 390.07,446.61 391.09,446.49C392.11,446.37 392.98,446.04 393.7,445.5L394.015,445.185C394.105,445.095 394.24,444.99 394.42,444.87C394.78,444.57 395.035,444.435 395.185,444.465C395.335,444.495 395.62,444.3 396.04,443.88C396.34,443.52 396.805,443.085 397.435,442.575C398.065,442.065 398.59,441.72 399.01,441.54C399.43,441.36 400.075,440.94 400.945,440.28C401.815,439.62 402.79,438.84 403.87,437.94C404.95,437.04 406.075,436.095 407.245,435.105C408.415,434.115 409.525,433.185 410.575,432.315C411.625,431.445 412.555,430.695 413.365,430.065C414.175,429.435 414.73,429.03 415.03,428.85L415.57,428.31C415.87,427.71 416.155,427.29 416.425,427.05C416.695,426.81 416.95,426.6 417.19,426.42C417.43,426.24 417.625,426.03 417.775,425.79C417.925,425.55 418.06,425.1 418.18,424.44C417.64,423.96 417.25,423.585 417.01,423.315C416.77,423.045 416.08,422.88 414.94,422.82C414.46,423.3 413.965,423.69 413.455,423.99C412.945,424.29 412.39,424.59 411.79,424.89L395.59,437.85C395.11,438.33 394.81,438.555 394.69,438.525C394.57,438.495 394.27,438.63 393.79,438.93C393.37,439.23 393.115,439.425 393.025,439.515L392.845,439.695C392.815,439.725 392.71,439.785 392.53,439.875L391.36,440.46C391.12,440.58 390.985,440.67 390.955,440.73L390.91,440.82C390.91,440.82 390.88,440.835 390.82,440.865C390.76,440.895 390.58,440.91 390.28,440.91C390.34,440.31 390.475,439.665 390.685,438.975C390.895,438.285 391.12,437.64 391.36,437.04C391.66,436.44 391.99,435.855 392.35,435.285C392.71,434.715 393.01,434.19 393.25,433.71C393.61,432.93 393.94,432.39 394.24,432.09C394.54,431.79 394.84,431.31 395.14,430.65C395.44,430.11 395.785,429.615 396.175,429.165C396.565,428.715 396.91,428.19 397.21,427.59C397.33,427.29 397.495,427.035 397.705,426.825C397.915,426.615 398.08,426.39 398.2,426.15C398.44,425.85 398.62,425.61 398.74,425.43C398.86,425.25 399.04,425.01 399.28,424.71L401.8,421.02C401.86,420.9 401.905,420.825 401.935,420.795C401.965,420.765 402.01,420.69 402.07,420.57L403.96,418.05L404.32,417.69C404.44,417.57 404.53,417.45 404.59,417.33C405.91,415.65 407.53,413.595 409.45,411.165C411.37,408.735 413.35,406.23 415.39,403.65C417.43,401.07 419.425,398.61 421.375,396.27C423.325,393.93 424.99,392.04 426.37,390.6C427.69,389.64 428.155,388.62 427.765,387.54C427.375,386.46 426.52,385.62 425.2,385.02C424.78,384.84 424.465,384.75 424.255,384.75C424.045,384.75 423.82,384.93 423.58,385.29C421.54,387.75 419.17,390.63 416.47,393.93C413.77,397.23 411.01,400.65 408.19,404.19C405.37,407.73 402.625,411.195 399.955,414.585C397.285,417.975 394.96,420.93 392.98,423.45C393.04,420.63 392.665,418.515 391.855,417.105C391.045,415.695 389.98,414.81 388.66,414.45C387.34,414.09 385.84,414.15 384.16,414.63C382.48,415.11 380.83,415.83 379.21,416.79C377.59,417.75 376.045,418.83 374.575,420.03C373.105,421.23 371.92,422.37 371.02,423.45C370.3,424.17 369.58,425.115 368.86,426.285C368.14,427.455 367.54,428.7 367.06,430.02C366.58,431.34 366.295,432.66 366.205,433.98C366.115,435.3 366.37,436.44 366.97,437.4L368.86,439.74C369.28,440.16 369.655,440.505 369.985,440.775C370.315,441.045 370.9,441.12 371.74,441C372.52,440.88 373.54,440.61 374.8,440.19C376.06,439.77 377.08,439.32 377.86,438.84C378.1,438.72 378.31,438.6 378.49,438.48L378.68,438.36C378.813,438.28 378.96,438.2 379.12,438.12L384.61,435.33C385.03,435.03 385.225,434.835 385.195,434.745C385.165,434.655 385.42,434.61 385.96,434.61C385.84,434.73 385.66,434.925 385.42,435.195C385.18,435.465 385,435.72 384.88,435.96C384.76,436.2 384.7,436.365 384.7,436.455C384.7,436.545 384.64,436.74 384.52,437.04C384.4,437.34 384.325,437.46 384.295,437.4C384.265,437.34 384.19,437.49 384.07,437.85C383.71,439.05 383.71,440.115 384.07,441.045C384.43,441.975 384.91,442.83 385.51,443.61C385.93,444.09 386.35,444.555 386.77,445.005C387.19,445.455 387.7,445.83 388.3,446.13ZM370.57,436.14C370.57,436.08 370.568,436.008 370.565,435.925L370.55,435.64C370.543,435.533 370.535,435.415 370.525,435.285C370.495,434.895 370.51,434.61 370.57,434.43L371.65,431.73C371.77,431.55 371.845,431.46 371.875,431.46C371.905,431.46 371.98,431.31 372.1,431.01C372.76,429.51 373.705,428.145 374.935,426.915C376.165,425.685 377.41,424.59 378.67,423.63C381.37,421.41 383.455,420.03 384.925,419.49C386.395,418.95 387.475,418.89 388.165,419.31C388.855,419.73 389.29,420.405 389.47,421.335C389.65,422.265 389.77,423.09 389.83,423.81C389.89,424.29 389.83,424.785 389.65,425.295C389.47,425.805 389.14,426.21 388.66,426.51C387.94,427.05 387.34,427.455 386.86,427.725C386.38,427.995 385.975,428.205 385.645,428.355C385.315,428.505 385.03,428.655 384.79,428.805C384.55,428.955 384.25,429.21 383.89,429.57L379.03,432.72C378.55,433.02 378.13,433.26 377.77,433.44C377.41,433.62 376.96,433.86 376.42,434.16C375.58,434.58 374.71,435.015 373.81,435.465C372.91,435.915 371.83,436.14 370.57,436.14ZM421.375,440.955C422.005,440.985 422.56,440.97 423.04,440.91C424.9,440.67 426.64,440.175 428.26,439.425C429.88,438.675 431.41,437.76 432.85,436.68C434.29,435.6 435.7,434.445 437.08,433.215C438.46,431.985 439.84,430.74 441.22,429.48C441.88,428.7 442.465,428.04 442.975,427.5C443.485,426.96 443.905,426.42 444.235,425.88C444.565,425.34 444.79,424.785 444.91,424.215C445.03,423.645 445.06,422.94 445,422.1C444.52,421.92 444.115,421.83 443.785,421.83C443.455,421.83 443.155,421.89 442.885,422.01C442.615,422.13 442.345,422.325 442.075,422.595C441.805,422.865 441.46,423.18 441.04,423.54C440.86,423.72 440.65,423.885 440.41,424.035C440.17,424.185 439.96,424.35 439.78,424.53C438.76,425.43 437.65,426.405 436.45,427.455C435.25,428.505 434.005,429.525 432.715,430.515C431.425,431.505 430.12,432.42 428.8,433.26C427.48,434.1 426.19,434.79 424.93,435.33C424.45,435.51 423.895,435.705 423.265,435.915C422.635,436.125 421.975,436.275 421.285,436.365C420.595,436.455 419.92,436.485 419.26,436.455C418.6,436.425 418.06,436.29 417.64,436.05C417.4,435.57 417.28,434.97 417.28,434.25C417.28,433.53 417.325,432.795 417.415,432.045C417.505,431.295 417.655,430.605 417.865,429.975C418.075,429.345 418.3,428.85 418.54,428.49C419.56,428.67 420.535,428.775 421.465,428.805C422.395,428.835 423.37,428.73 424.39,428.49C425.11,428.37 425.905,428.13 426.775,427.77C427.645,427.41 428.35,427.02 428.89,426.6C429.43,426.24 430.015,425.775 430.645,425.205C431.275,424.635 431.86,424.02 432.4,423.36C432.94,422.7 433.39,421.98 433.75,421.2C434.11,420.42 434.29,419.64 434.29,418.86C434.29,418.2 434.14,417.555 433.84,416.925C433.54,416.295 433.15,415.74 432.67,415.26C432.19,414.78 431.65,414.405 431.05,414.135C430.45,413.865 429.85,413.73 429.25,413.73C428.41,413.73 427.51,413.94 426.55,414.36C425.59,414.78 424.63,415.29 423.67,415.89C422.71,416.49 421.795,417.12 420.925,417.78C420.055,418.44 419.29,419.04 418.63,419.58C418.39,419.76 418.15,419.94 417.91,420.12C417.67,420.3 417.4,420.54 417.1,420.84C416.2,421.8 415.6,422.415 415.3,422.685C415,422.955 414.805,423.165 414.715,423.315C414.625,423.465 414.565,423.675 414.535,423.945C414.505,424.215 414.31,424.86 413.95,425.88C413.65,426.72 413.425,427.44 413.275,428.04C413.125,428.64 412.99,429.45 412.87,430.47C412.57,432.27 412.57,433.83 412.87,435.15C413.17,436.47 413.95,437.73 415.21,438.93L415.84,439.56C416.08,439.8 416.35,439.98 416.65,440.1C416.83,440.22 417.19,440.34 417.73,440.46C418.27,440.58 418.855,440.685 419.485,440.775C420.115,440.865 420.745,440.925 421.375,440.955ZM424.12,423.9C422.98,424.38 421.99,424.53 421.15,424.35C421.27,424.11 421.72,423.645 422.5,422.955C423.28,422.265 424.165,421.575 425.155,420.885C426.145,420.195 427.105,419.595 428.035,419.085C428.965,418.575 429.67,418.32 430.15,418.32C429.85,419.4 429.4,420.195 428.8,420.705C428.2,421.215 427.48,421.8 426.64,422.46C426.1,422.94 425.26,423.42 424.12,423.9ZM437.485,440.82C437.815,441 438.4,441 439.24,440.82C439.54,440.16 439.705,439.59 439.735,439.11C439.765,438.63 439.99,438.21 440.41,437.85C441.25,436.95 442.075,435.975 442.885,434.925C443.695,433.875 444.37,433.11 444.91,432.63C445.27,432.33 445.54,432.075 445.72,431.865C445.9,431.655 446.05,431.445 446.17,431.235C446.29,431.025 446.425,430.815 446.575,430.605C446.725,430.395 446.95,430.14 447.25,429.84C447.61,429.48 448.03,429.15 448.51,428.85C448.99,428.55 449.41,428.19 449.77,427.77C450.13,427.35 450.295,427.125 450.265,427.095C450.235,427.065 450.46,426.87 450.94,426.51C451.78,425.97 452.605,425.355 453.415,424.665C454.225,423.975 454.96,423.3 455.62,422.64L457.465,420.795C458.035,420.225 458.53,419.79 458.95,419.49C459.31,419.25 459.55,419.07 459.67,418.95C459.79,418.83 460.06,418.8 460.48,418.86C460.42,419.7 460.555,420.465 460.885,421.155C461.215,421.845 461.62,422.43 462.1,422.91C462.34,423.09 462.64,423.27 463,423.45C463.36,423.63 463.78,423.75 464.26,423.81C464.92,423.93 465.43,423.795 465.79,423.405C466.15,423.015 466.27,422.49 466.15,421.83C465.97,420.99 465.85,420.33 465.79,419.85C465.73,419.37 466,418.74 466.6,417.96C466.78,417.78 466.885,417.615 466.915,417.465C466.945,417.315 467.08,417.12 467.32,416.88L469.12,415.08C469.78,414.42 470.44,413.88 471.1,413.46C471.7,413.1 472.105,412.77 472.315,412.47C472.525,412.17 472.63,411.87 472.63,411.57C472.63,411.27 472.555,411.015 472.405,410.805C472.255,410.595 472.15,410.4 472.09,410.22C471.79,409.44 471.49,408.855 471.19,408.465C470.89,408.075 470.23,407.79 469.21,407.61C468.85,407.55 468.595,407.64 468.445,407.88C468.295,408.12 468.07,408.39 467.77,408.69C467.53,408.99 467.32,409.2 467.14,409.32C466.96,409.44 466.72,409.59 466.42,409.77L465.34,410.49C464.74,410.91 464.35,411.18 464.17,411.3C463.99,411.42 463.885,411.51 463.855,411.57C463.825,411.63 463.78,411.72 463.72,411.84C463.66,411.96 463.42,412.2 463,412.56C462.7,412.86 462.565,412.95 462.595,412.83C462.625,412.71 462.49,412.8 462.19,413.1C461.89,413.4 461.725,413.625 461.695,413.775C461.665,413.925 461.44,414.15 461.02,414.45C460.78,414.63 460.57,414.78 460.39,414.9C460.21,415.02 459.97,415.2 459.67,415.44L458.725,416.385C458.575,416.535 458.455,416.625 458.365,416.655C458.275,416.685 458.155,416.775 458.005,416.925C457.855,417.075 457.51,417.39 456.97,417.87C456.79,418.05 456.43,418.32 455.89,418.68C455.35,419.04 454.795,419.445 454.225,419.895L452.515,421.245C451.945,421.695 451.54,422.1 451.3,422.46C451.06,422.76 450.85,422.985 450.67,423.135C450.49,423.285 450.25,423.48 449.95,423.72L447.25,426.15C447.01,426.33 446.845,426.45 446.755,426.51C446.665,426.57 446.59,426.63 446.53,426.69C446.47,426.75 446.41,426.825 446.35,426.915C446.34,426.93 446.328,426.947 446.315,426.966L446.215,427.106C446.155,427.189 446.08,427.29 445.99,427.41C445.87,427.71 445.795,427.86 445.765,427.86C445.735,427.86 445.6,427.95 445.36,428.13L444.46,428.67C444.58,428.37 444.76,428.01 445,427.59C445.24,427.17 445.48,426.81 445.72,426.51L447.25,424.62C448.03,423.6 448.735,422.625 449.365,421.695C449.995,420.765 450.73,419.97 451.57,419.31C452.53,418.65 452.995,418.065 452.965,417.555C452.935,417.045 452.65,416.37 452.11,415.53C451.57,414.81 451.135,414.39 450.805,414.27C450.475,414.15 449.8,414.12 448.78,414.18C448.54,414.6 448.3,414.945 448.06,415.215C447.82,415.485 447.55,415.83 447.25,416.25C447.07,416.55 446.965,416.76 446.935,416.88C446.905,417 446.74,417.15 446.44,417.33C446.14,417.51 445.945,417.645 445.855,417.735C445.765,417.825 445.675,417.915 445.585,418.005C445.495,418.095 445.39,418.215 445.27,418.365C445.15,418.515 444.94,418.74 444.64,419.04C444.46,419.22 444.325,419.4 444.235,419.58C444.145,419.76 444.04,419.97 443.92,420.21C443.5,420.87 442.93,421.575 442.21,422.325C441.49,423.075 441.07,423.57 440.95,423.81C440.77,424.11 440.68,424.32 440.68,424.44C440.68,424.56 440.56,424.77 440.32,425.07C440.14,425.31 440.005,425.49 439.915,425.61C439.825,425.73 439.72,425.91 439.6,426.15C439.24,426.81 439,427.23 438.88,427.41C438.76,427.59 438.685,427.695 438.655,427.725C438.625,427.755 438.58,427.785 438.52,427.815C438.46,427.845 438.31,428.04 438.07,428.4L437.26,429.3C437.2,429.36 437.14,429.51 437.08,429.75C437.02,429.99 436.93,430.17 436.81,430.29C436.63,430.59 436.495,430.785 436.405,430.875C436.315,430.965 436.18,431.16 436,431.46C435.82,431.76 435.67,432 435.55,432.18C435.43,432.36 435.325,432.525 435.235,432.675C435.145,432.825 435.085,433.02 435.055,433.26C435.025,433.5 435.01,433.83 435.01,434.25L434.74,436.5C434.86,436.92 434.92,437.16 434.92,437.22C434.92,437.28 435.04,437.49 435.28,437.85L436.36,439.65C436.78,440.25 437.155,440.64 437.485,440.82Z" style="fill:rgb(64,64,64);fill-rule:nonzero;"/>
        </g>
    </g>
</svg>
