<?xml version="1.0" encoding="UTF-8" standalone="no"?>
<!DOCTYPE svg PUBLIC "-//W3C//DTD SVG 1.1//EN" "http://www.w3.org/Graphics/SVG/1.1/DTD/svg11.dtd">
<svg width="100%" height="100%" viewBox="0 0 95 26" version="1.1" xmlns="http://www.w3.org/2000/svg" xmlns:xlink="http://www.w3.org/1999/xlink" xml:space="preserve" xmlns:serif="http://www.serif.com/" style="fill-rule:evenodd;clip-rule:evenodd;stroke-linejoin:round;stroke-miterlimit:2;">
    <g id="_2.-HOME-DESIGNS" serif:id="2.-HOME-DESIGNS">
        <g id="_2.0-NEW-HOME-DESIGNS-" serif:id="2.0-NEW-HOME-DESIGNS-">
            <g id="Filter">
                <g id="Group-13-Copy">
                    <g id="Homestead">
                        <path id="Fill-1" d="M13.105,20.419L9.834,20.419L9.834,18.844L13.105,18.844L13.105,20.419ZM9.834,15.638C9.836,15.416 9.941,14.388 11.678,14.388C11.916,14.391 13.105,14.466 13.105,15.652L13.105,17.551L9.834,17.551L9.834,15.652L9.835,15.652L9.834,15.638ZM11.682,13.095C10.622,13.095 9.8,13.387 9.24,13.963C8.558,14.664 8.539,15.513 8.541,15.658L8.541,18.198L8.541,21.712L14.398,21.712L14.398,15.652C14.398,13.776 12.774,13.095 11.682,13.095Z" style="fill:rgb(35,31,32);"/>
                        <path id="Fill-3" d="M26.002,20.419L22.731,20.419L22.731,18.844L26.002,18.844L26.002,20.419ZM23.064,14.865C23.371,14.548 23.881,14.388 24.575,14.388C24.813,14.391 26.002,14.466 26.002,15.652L26.002,17.551L22.731,17.551L22.731,15.652L22.73,15.634C22.73,15.63 22.739,15.198 23.064,14.865ZM24.578,13.095C23.518,13.095 22.697,13.387 22.137,13.963C21.455,14.664 21.436,15.513 21.437,15.658L21.437,18.198L21.437,21.712L27.295,21.712L27.295,15.652C27.295,13.776 25.67,13.095 24.578,13.095Z" style="fill:rgb(35,31,32);"/>
                        <path id="Fill-5" d="M33.326,20.419L30.054,20.419L30.054,18.844L33.326,18.844L33.326,20.419ZM30.387,14.865C30.695,14.548 31.205,14.388 31.898,14.388C32.137,14.391 33.326,14.466 33.326,15.652L33.326,17.551L30.054,17.551L30.054,15.652L30.054,15.634C30.054,15.63 30.063,15.198 30.387,14.865ZM31.902,13.095C30.842,13.095 30.021,13.387 29.461,13.963C28.779,14.664 28.759,15.513 28.761,15.658L28.761,18.198L28.761,21.712L34.619,21.712L34.619,15.652C34.619,13.776 32.994,13.095 31.902,13.095Z" style="fill:rgb(35,31,32);"/>
                        <path id="Fill-7" d="M61.529,20.419L61.529,18.844L64.8,18.844L64.8,20.419L61.529,20.419ZM61.529,15.652C61.529,14.466 62.718,14.391 62.952,14.388C64.683,14.388 64.796,15.404 64.8,15.634L64.8,17.551L61.529,17.551L61.529,15.652ZM66.093,18.198L66.093,15.658C66.095,15.513 66.075,14.664 65.394,13.963C64.834,13.387 64.012,13.095 62.952,13.095C61.86,13.095 60.236,13.776 60.236,15.652L60.236,21.712L66.093,21.712L66.093,18.198Z" style="fill:rgb(35,31,32);"/>
                        <g id="Group-11" transform="matrix(1,0,0,1,0,0.060776)">
                            <path id="Fill-9" d="M86.989,23.966L86.989,14.014C86.989,13.657 86.7,13.368 86.343,13.368L74.929,13.368C74.571,13.368 74.282,13.657 74.282,14.014L74.282,23.966L71.568,23.966L71.568,12.665C72.54,12.569 73.297,12.248 73.824,11.707C73.902,11.627 73.97,11.547 74.031,11.465L90.062,11.465L90.062,23.966L86.989,23.966ZM75.575,20.597L85.696,20.597L85.696,18.252L75.575,18.252L75.575,20.597ZM75.575,16.959L85.696,16.959L85.696,14.661L75.575,14.661L75.575,16.959ZM75.575,23.966L85.696,23.966L85.696,21.891L75.575,21.891L75.575,23.966ZM57.92,23.966L57.92,11.757L59.511,12.603C59.606,12.653 59.71,12.678 59.814,12.678C59.93,12.678 60.045,12.648 60.147,12.586C60.342,12.469 60.461,12.259 60.461,12.032L60.461,11.465L70.275,11.465L70.275,23.966L57.92,23.966ZM54.567,9.974L56.519,11.012L56.519,23.966L54.567,23.966L54.567,9.974ZM50.422,20.675L50.422,15.909C50.422,14.033 48.797,13.352 47.705,13.352C46.645,13.352 45.824,13.644 45.264,14.22C44.582,14.921 44.562,15.77 44.564,15.914L44.564,20.675L43.184,20.675L43.184,23.966L41.664,23.966L41.664,9.29C41.664,9.289 41.663,9.287 41.663,9.286L47.468,6.2L53.274,9.287C53.274,9.288 53.274,9.289 53.274,9.29L53.274,23.966L51.801,23.966L51.801,20.675L50.422,20.675ZM44.477,21.969L50.508,21.969L50.508,23.966L44.477,23.966L44.477,21.969ZM45.857,15.891C45.857,15.887 45.866,15.455 46.191,15.121C46.498,14.805 47.008,14.645 47.701,14.645C47.94,14.648 49.129,14.722 49.129,15.909L49.129,20.675L45.857,20.675L45.857,15.909L45.857,15.891ZM38.418,11.011L40.37,9.973L40.37,23.966L38.418,23.966L38.418,11.011ZM18.06,23.966L18.06,11.465L34.476,11.465L34.476,12.031C34.476,12.258 34.595,12.469 34.79,12.586C34.984,12.703 35.226,12.709 35.426,12.602L36.934,11.8L36.934,23.966L18.06,23.966ZM4.792,23.966L4.792,11.465L14.304,11.465C14.366,11.547 14.434,11.627 14.511,11.707C15.038,12.248 15.796,12.569 16.767,12.665L16.767,23.966L4.792,23.966ZM2.157,10.172L5.925,5.456L13.795,5.456L13.795,10.028C13.795,10.054 13.795,10.104 13.801,10.172L2.157,10.172ZM37.078,5.456L34.819,6.657C34.608,6.769 34.476,6.988 34.476,7.228L34.476,10.172L15.102,10.172C15.091,10.112 15.089,10.066 15.088,10.043L15.088,5.456L37.078,5.456ZM47.468,1.396L59.168,7.617L59.168,10.956L47.772,4.896C47.677,4.846 47.572,4.821 47.468,4.821C47.364,4.821 47.259,4.846 47.165,4.896L35.769,10.955L35.769,7.616L47.468,1.396ZM73.247,5.456L73.247,10.033L73.247,10.05C73.247,10.051 73.246,10.098 73.231,10.172L60.461,10.172L60.461,7.228C60.461,6.989 60.329,6.769 60.118,6.657L57.858,5.456L73.247,5.456ZM89.012,5.456L92.78,10.172L74.534,10.172C74.54,10.104 74.541,10.054 74.54,10.028L74.54,5.456L89.012,5.456ZM94.138,23.966L91.355,23.966L91.355,11.465L94.124,11.465C94.372,11.465 94.599,11.323 94.707,11.099C94.814,10.875 94.784,10.609 94.629,10.415L89.828,4.406C89.705,4.252 89.519,4.163 89.323,4.163L55.635,4.163C55.578,4.163 55.522,4.171 55.469,4.185L47.789,0.102C47.693,0.051 47.585,0.026 47.48,0.026C47.369,0.021 47.254,0.045 47.148,0.101L39.468,4.185C39.415,4.171 39.359,4.163 39.302,4.163L5.614,4.163C5.418,4.163 5.232,4.252 5.109,4.406L0.308,10.415C0.153,10.609 0.123,10.875 0.231,11.099C0.338,11.323 0.565,11.465 0.813,11.465L3.499,11.465L3.499,23.966L0.862,23.966C0.386,23.966 -0,24.352 -0,24.828C-0,25.304 0.386,25.69 0.862,25.69L94.138,25.69C94.614,25.69 95,25.304 95,24.828C95,24.352 94.614,23.966 94.138,23.966Z" style="fill:rgb(35,31,32);"/>
                        </g>
                    </g>
                </g>
            </g>
        </g>
    </g>
</svg>
