<?xml version="1.0" encoding="UTF-8"?>
<svg width="17px" height="24px" viewBox="0 0 17 24" version="1.1" xmlns="http://www.w3.org/2000/svg" xmlns:xlink="http://www.w3.org/1999/xlink">
    <title>032-placeholder@2x</title>
    <defs>
        <filter id="filter-1">
            <feColorMatrix in="SourceGraphic" type="matrix" values="0 0 0 0 0.164317 0 0 0 0 0.164317 0 0 0 0 0.164317 0 0 0 1.000000 0"></feColorMatrix>
        </filter>
    </defs>
    <g id="1.0-HOME-PAGE" stroke="none" stroke-width="1" fill="none" fill-rule="evenodd">
        <g id="1.0-Home-Page-Theme-(Gold-Grey)-1800px" transform="translate(-685.000000, -1092.000000)">
            <g id="1.-HERO" transform="translate(-92.727727, -110.000000)">
                <g id="SELECTOR" transform="translate(152.727727, 1091.000000)">
                    <g id="Group-4" transform="translate(260.000000, 98.000000)">
                        <g id="032-placeholder" transform="translate(350.000000, 0.000000)" filter="url(#filter-1)">
                            <g transform="translate(15.000000, 13.000000)">
                                <path d="M8.26199907,0 C3.70633278,0 0,3.64842133 0,8.13290533 C0,9.6480656 0.426365052,11.1267182 1.23328696,12.4095484 L7.79170772,22.8132061 C7.91733601,23.0125075 8.13866578,23.1335974 8.37670316,23.1335974 C8.37853916,23.1335974 8.38032926,23.1335974 8.38216526,23.1335974 C8.62226813,23.1317449 8.8440569,23.0069048 8.96739019,22.8041244 L15.3586432,12.2996638 C16.1210421,11.0439433 16.5239981,9.6031087 16.5239981,8.13290533 C16.5239981,3.64842133 12.8176654,0 8.26199907,0 Z M14.1769478,11.6037582 L8.36628386,21.1539579 L2.40364503,11.695389 C1.73199041,10.6276289 1.36781985,9.3957648 1.36781985,8.13290533 C1.36781985,4.39583533 4.4656105,1.34644766 8.26199907,1.34644766 C12.0583876,1.34644766 15.1515883,4.39583533 15.1515883,8.13290533 C15.1515883,9.35830825 14.8114234,10.5586799 14.1769478,11.6037582 Z" id="Shape" fill="#000000" fill-rule="nonzero"></path>
                                <path d="M7.9865991,3.85559957 C5.70876596,3.85559957 3.85559957,5.70876596 3.85559957,7.9865991 C3.85559957,10.2498819 5.67860966,12.1175986 7.9865991,12.1175986 C10.3230465,12.1175986 12.1175986,10.2250041 12.1175986,7.9865991 C12.1175986,5.70876596 10.2644322,3.85559957 7.9865991,3.85559957 Z M7.9865991,10.7497788 C6.46010297,10.7497788 5.22341941,9.50896423 5.22341941,7.9865991 C5.22341941,6.46804367 6.46804367,5.22341941 7.9865991,5.22341941 C9.50515453,5.22341941 10.7451888,6.46804367 10.7451888,7.9865991 C10.7451888,9.48674863 9.53728453,10.7497788 7.9865991,10.7497788 Z" id="Shape" fill="#000000" fill-rule="nonzero"></path>
                            </g>
                        </g>
                    </g>
                </g>
            </g>
        </g>
    </g>
</svg>