<?xml version="1.0" encoding="UTF-8"?>
<svg width="26px" height="35px" viewBox="0 0 26 35" version="1.1" xmlns="http://www.w3.org/2000/svg" xmlns:xlink="http://www.w3.org/1999/xlink">
    <!-- Generator: Sketch 53.2 (72643) - https://sketchapp.com -->
    <title>Location</title>
    <desc>Created with Sketch.</desc>
    <g id="_General-Content-Components" stroke="none" stroke-width="1" fill="none" fill-rule="evenodd">
        <g id="Pictura-Creative-Theme-001:-Contact" transform="translate(-146.000000, -1075.000000)" fill="#000000" fill-rule="nonzero">
            <g id="Location" transform="translate(146.000000, 1075.000000)">
                <path d="M13,0.234791667 C5.91871429,0.234791667 0.157485714,5.88984375 0.157485714,12.8409896 C0.157485714,21.3616667 11.4091714,33.7556771 11.8883143,34.2788542 C12.1709714,34.5883854 12.5762,34.7655729 13,34.7655729 C13.4238,34.7655729 13.8290286,34.5883854 14.1124286,34.2788542 C14.5912,33.7549479 25.8428857,21.3572917 25.8428857,12.8409896 C25.8425143,5.88984375 20.0812857,0.234791667 13,0.234791667 Z M13,7.04630208 C16.2552,7.04630208 18.9031143,9.64578125 18.9031143,12.8409896 C18.9031143,16.0358333 16.2552,18.6349479 13,18.6349479 C9.74517143,18.6349479 7.09688571,16.0358333 7.09688571,12.8409896 C7.09688571,9.64578125 9.74517143,7.04630208 13,7.04630208 Z" id="Shape"></path>
            </g>
        </g>
    </g>
</svg>