<?xml version="1.0" encoding="UTF-8"?>
<svg width="23px" height="23px" viewBox="0 0 23 23" version="1.1" xmlns="http://www.w3.org/2000/svg" xmlns:xlink="http://www.w3.org/1999/xlink">
    <title>Shape@2x</title>
    <g id="3.-HOUSE-&amp;-LAND" stroke="none" stroke-width="1" fill="none" fill-rule="evenodd">
        <g id="3.0-HOUSE-&amp;-LAND" transform="translate(-712.000000, -1436.000000)" fill="#8C8C8C" fill-rule="nonzero">
            <g id="Group-31" transform="translate(310.000000, 1380.000000)">
                <g id="Group-30" transform="translate(400.000000, 0.000000)">
                    <g id="Group-26" transform="translate(2.000000, 53.000000)">
                        <g id="Group-25" transform="translate(0.000000, 2.342593)">
                            <g id="selection-2" transform="translate(0.000000, 0.657407)">
                                <path d="M21.8454889,4.55686247 C22.1474497,4.55686247 22.3945085,4.30980366 22.3999987,4.0078429 L22.3999987,0.554509771 C22.3999987,0.247058809 22.1529399,0 21.8454889,0 L18.3921558,0 C18.090195,0 17.8431362,0.247058809 17.8431362,0.554509771 L17.8431362,1.75686264 L4.55686247,1.75686264 L4.55686247,0.554509771 C4.55686247,0.252549005 4.30980366,0.00549019575 4.0078429,0 L0.554509771,0 C0.252549005,0 0.00549019575,0.247058809 0,0.554509771 L0,4.0078429 C0,4.30980366 0.247058809,4.55686247 0.554509771,4.55686247 L1.75686264,4.55686247 L1.75686264,17.8431362 L0.554509771,17.8431362 C0.252549005,17.8431362 0.00549019575,18.090195 0,18.3921558 L0,21.8454889 C0,22.1474497 0.247058809,22.3945085 0.554509771,22.3999987 L4.0078429,22.3999987 C4.30980366,22.3999987 4.55686247,22.1529399 4.55686247,21.8454889 L4.55686247,20.643136 L17.8431362,20.643136 L17.8431362,21.8454889 C17.8431362,22.1474497 18.090195,22.3945085 18.3921558,22.3999987 L21.8454889,22.3999987 C22.1474497,22.3999987 22.3945085,22.1529399 22.3999987,21.8454889 L22.3999987,18.3921558 C22.3999987,18.090195 22.1529399,17.8431362 21.8454889,17.8431362 L20.643136,17.8431362 L20.643136,4.55686247 L21.8454889,4.55686247 Z M1.09803915,3.45882332 L1.09803915,1.09803915 L3.45882332,1.09803915 L3.45882332,3.45882332 L1.09803915,3.45882332 Z M3.45882332,21.3019595 L1.09803915,21.3019595 L1.09803915,18.9411753 L3.45882332,18.9411753 L3.45882332,21.3019595 Z M17.8431362,18.3921558 L17.8431362,19.5450969 L4.55686247,19.5450969 L4.55686247,18.3921558 C4.55686247,18.090195 4.30980366,17.8431362 4.0078429,17.8431362 L2.85490179,17.8431362 L2.85490179,4.55686247 L4.0078429,4.55686247 C4.30980366,4.55686247 4.55686247,4.30980366 4.55686247,4.0078429 L4.55686247,2.85490179 L17.8431362,2.85490179 L17.8431362,4.0078429 C17.8431362,4.30980366 18.090195,4.55686247 18.3921558,4.55686247 L19.5450969,4.55686247 L19.5450969,17.8431362 L18.3921558,17.8431362 C18.090195,17.8431362 17.8431362,18.090195 17.8431362,18.3921558 Z M21.3019595,18.9411753 L21.3019595,21.3019595 L18.9411753,21.3019595 L18.9411753,18.9411753 L21.3019595,18.9411753 Z M18.9411753,3.45882332 L18.9411753,1.09803915 L21.3019595,1.09803915 L21.3019595,3.45882332 L18.9411753,3.45882332 Z" id="Shape"></path>
                            </g>
                        </g>
                    </g>
                </g>
            </g>
        </g>
    </g>
</svg>