<?xml version="1.0" encoding="UTF-8"?>
<svg width="38px" height="37px" viewBox="0 0 38 37" version="1.1" xmlns="http://www.w3.org/2000/svg" xmlns:xlink="http://www.w3.org/1999/xlink">
    <title>Group 8@2x</title>
    <defs>
        <polygon id="path-1" points="0 0.243990376 38 0.243990376 38 35.2439904 0 35.2439904"></polygon>
    </defs>
    <g id="2.-HOME-DESIGNS*" stroke="none" stroke-width="1" fill="none" fill-rule="evenodd">
        <g id="2.0-NEW-HOME-DESIGNS-B" transform="translate(-671.000000, -2061.000000)">
            <g id="CONTENT" transform="translate(359.000000, 1278.000000)">
                <g id="Filter" transform="translate(251.000000, 151.000000)">
                    <g id="Group-4-Copy" transform="translate(25.000000, 619.000000)">
                        <g id="Group-8" transform="translate(36.000000, 13.756010)">
                            <mask id="mask-2" fill="white">
                                <use xlink:href="#path-1"></use>
                            </mask>
                            <g id="Clip-2"></g>
                            <path d="M13.3509726,33.4168546 L16.4852652,33.4168546 L16.4852652,24.9544752 L13.3509726,24.9544752 L13.3509726,33.4168546 Z M9.08629738,12.1395844 L19.1801375,6.78699011 L28.8659774,11.9232515 C28.8575499,11.9664633 28.8527865,12.010954 28.8527865,12.0565411 L28.8527865,33.4168546 L17.8593121,33.4168546 L17.8593121,24.2692993 C17.8593121,23.8908995 17.5517088,23.5841234 17.1722886,23.5841234 L12.6639491,23.5841234 C12.284529,23.5841234 11.9769257,23.8908995 11.9769257,24.2692993 L11.9769257,33.4168546 L9.08629738,33.4168546 L9.08629738,12.1395844 Z M6.74803596,8.28862165 L10.3268785,6.39086708 C10.3285274,6.38995351 10.3301762,6.3891313 10.3317335,6.38821773 L19.1801375,1.69613305 L31.6111399,8.28807351 L31.6111399,11.8269614 L19.5026722,5.40604089 C19.3010537,5.29906209 19.0592214,5.29906209 18.8576029,5.40604089 L6.74803596,11.8275096 L6.74803596,8.28862165 Z M10.6893521,2.33654414 L12.2679488,2.33654414 L12.2679488,3.80948965 L10.6893521,4.64659191 L10.6893521,2.33654414 Z M37.0839687,33.4168546 L30.2268334,33.4168546 L30.2268334,12.6448788 L31.9757204,13.5722415 C32.188606,13.6852499 32.445278,13.6784895 32.6521178,13.5545183 C32.8587745,13.4306385 32.9851868,13.207728 32.9851868,12.9672769 L32.9851868,7.87641982 C32.9851868,7.62308745 32.845034,7.39040171 32.6207896,7.27145517 L19.5198935,0.324319507 C19.4074049,0.264663523 19.285756,0.23944905 19.1672215,0.244656387 C19.0576642,0.243990376 18.941145,0.270875785 18.8392823,0.324867647 L13.6419957,3.08091926 L13.6419957,1.65136822 C13.6419957,1.2729684 13.3343924,0.966192306 12.9549722,0.966192306 L10.0023286,0.966192306 C9.6229085,0.966192306 9.3153052,1.2729684 9.3153052,1.65136822 L9.3153052,5.37525365 L5.73847789,7.27200331 C5.51414184,7.39094985 5.37398905,7.62354423 5.37398905,7.87696796 L5.37398905,12.9677337 C5.37398905,13.2082761 5.50040137,13.4311867 5.70714962,13.5550665 C5.81588254,13.6202039 5.93835592,13.6529096 6.0610125,13.6529096 C6.17166908,13.6529096 6.28250887,13.6263248 6.38354711,13.5727897 L7.71225047,12.8681548 L7.71225047,33.4168546 L0.91603127,33.4168546 C0.4101072,33.4168546 0,33.8258589 0,34.3304225 C0,34.834986 0.4101072,35.2439904 0.91603127,35.2439904 L37.0839687,35.2439904 C37.5899844,35.2439904 38,34.834986 38,34.3304225 C38,33.8258589 37.5899844,33.4168546 37.0839687,33.4168546 L37.0839687,33.4168546 Z" id="Fill-1" fill="#231F20" mask="url(#mask-2)"></path>
                            <path d="M12.2942073,14.7563939 L15.7057064,14.7563939 L15.7057064,13.6260012 L12.2942073,13.6260012 L12.2942073,14.7563939 Z M12.2942936,18.8619796 L15.7057927,18.8619796 L15.7057927,16.1384047 L12.2942936,16.1384047 L12.2942936,18.8619796 Z M11.6471468,20.2439904 L16.3528532,20.2439904 C16.7103371,20.2439904 17,19.9345121 17,19.552985 L17,12.9349958 C17,12.5533765 16.7103371,12.2439904 16.3528532,12.2439904 L11.6471468,12.2439904 C11.2897492,12.2439904 11,12.5533765 11,12.9349958 L11,19.552985 C11,19.9345121 11.2897492,20.2439904 11.6471468,20.2439904 L11.6471468,20.2439904 Z" id="Fill-3" fill="#231F20" mask="url(#mask-2)"></path>
                            <path d="M22.2942936,14.7563939 L25.7057064,14.7563939 L25.7057064,13.6260012 L22.2942936,13.6260012 L22.2942936,14.7563939 Z M22.2942936,18.8619796 L25.7057064,18.8619796 L25.7057064,16.1384047 L22.2942936,16.1384047 L22.2942936,18.8619796 Z M21.6471468,20.2439904 L26.3528532,20.2439904 C26.7103371,20.2439904 27,19.9345121 27,19.552985 L27,12.9349958 C27,12.5533765 26.7103371,12.2439904 26.3528532,12.2439904 L21.6471468,12.2439904 C21.2897492,12.2439904 21,12.5533765 21,12.9349958 L21,19.552985 C21,19.9345121 21.2897492,20.2439904 21.6471468,20.2439904 L21.6471468,20.2439904 Z" id="Fill-4" fill="#231F20" mask="url(#mask-2)"></path>
                            <path d="M22.2942936,24.7564229 L25.7057064,24.7564229 L25.7057064,23.6260171 L22.2942936,23.6260171 L22.2942936,24.7564229 Z M22.2942936,28.8620558 L25.7057064,28.8620558 L25.7057064,26.1384496 L22.2942936,26.1384496 L22.2942936,28.8620558 Z M21.6471468,30.2439904 L26.3528532,30.2439904 C26.7103371,30.2439904 27,29.9346928 27,29.552977 L27,22.9350037 C27,22.5534722 26.7103371,22.2439904 26.3528532,22.2439904 L21.6471468,22.2439904 C21.2897492,22.2439904 21,22.5534722 21,22.9350037 L21,29.552977 C21,29.9346928 21.2897492,30.2439904 21.6471468,30.2439904 L21.6471468,30.2439904 Z" id="Fill-5" fill="#231F20" mask="url(#mask-2)"></path>
                            <path d="M0.700770848,24.3625593 L3.60756833,24.3625593 L2.67264658,25.187964 C2.39887877,25.4295559 2.39887877,25.8212664 2.67264658,26.0627758 C2.80943705,26.1835305 2.98874095,26.2439904 3.16813829,26.2439904 C3.34744219,26.2439904 3.52683952,26.1835305 3.66362999,26.0627758 L5.79472086,24.1815097 C5.81107218,24.1670752 5.82658257,24.1518159 5.84125204,24.1359792 C5.84779257,24.1289682 5.85349217,24.1215448 5.85965896,24.1142863 C5.86722728,24.1054606 5.87498248,24.096635 5.88208363,24.0873969 C5.88871759,24.0786537 5.89451063,24.0694157 5.90067741,24.0604251 C5.90619014,24.0520943 5.91207662,24.0440935 5.91730904,24.0355978 C5.92300864,24.0261947 5.92777388,24.0165442 5.93291287,24.0068938 C5.93749124,23.9982331 5.94244335,23.9896549 5.94664798,23.9807467 C5.95103948,23.9714262 5.95459005,23.9617757 5.95851437,23.9522077 C5.96234525,23.9427222 5.96645644,23.9333192 5.96982014,23.9236687 C5.9730904,23.9141007 5.97551974,23.9043677 5.97822939,23.8947173 C5.98103247,23.8848193 5.9842093,23.8750039 5.98645176,23.864941 C5.98897454,23.8537233 5.99056295,23.8423407 5.99233824,23.8311231 C5.99373978,23.8223799 5.9956085,23.8138842 5.9966363,23.8050585 C6.00112123,23.7643945 6.00112123,23.7234831 5.9966363,23.6828191 C5.9956085,23.6739935 5.99373978,23.6654977 5.99233824,23.6568371 C5.99056295,23.6455369 5.98897454,23.6342368 5.98645176,23.6229367 C5.9842093,23.6128738 5.98103247,23.6031408 5.97822939,23.5932429 C5.97551974,23.5835924 5.9730904,23.573777 5.96982014,23.564209 C5.96645644,23.5545585 5.96234525,23.5451554 5.95851437,23.5356699 C5.95459005,23.5261019 5.95103948,23.5165339 5.94664798,23.5071309 C5.94244335,23.4982228 5.93749124,23.4896446 5.93291287,23.4809839 C5.92777388,23.4713334 5.92300864,23.4616829 5.91730904,23.4523624 C5.91217005,23.4438667 5.90628358,23.4358658 5.90067741,23.4276176 C5.89460406,23.4185445 5.88871759,23.4093064 5.88208363,23.4004807 C5.87507592,23.3912427 5.86722728,23.382582 5.85975239,23.3737563 C5.85358561,23.3664154 5.84788601,23.3589919 5.84125204,23.3518984 C5.82658257,23.3361442 5.81107218,23.3208849 5.79472086,23.3063679 L3.66362999,21.4251843 C3.38995562,21.1835924 2.94622752,21.1835924 2.67264658,21.4251843 C2.39887877,21.6666937 2.39887877,22.0584042 2.67264658,22.2999961 L3.60747489,23.1253183 L0.700770848,23.1253183 C0.313758468,23.1253183 0,23.4022954 0,23.7439388 C0,24.0856648 0.313758468,24.3625593 0.700770848,24.3625593" id="Fill-6" fill="#231F20" mask="url(#mask-2)"></path>
                            <path d="M32.158748,23.3518984 C32.152114,23.3589919 32.1464144,23.3664154 32.1402476,23.3737563 C32.1327727,23.382582 32.1249241,23.3912427 32.1179164,23.4004807 C32.111189,23.4093064 32.1053959,23.4185445 32.0992292,23.4276176 C32.0937164,23.4358658 32.0878299,23.4438667 32.0827844,23.4523624 C32.0770848,23.4616829 32.0722261,23.4712509 32.0671806,23.4807364 C32.0625088,23.4895621 32.0575566,23.4981403 32.0532586,23.5071309 C32.0489605,23.5164515 32.04541,23.5260195 32.0415791,23.535505 C32.0376548,23.545073 32.0335436,23.554476 32.0301799,23.564209 C32.0269096,23.573777 32.0244803,23.5835924 32.0216772,23.5932429 C32.0189675,23.6031408 32.0157907,23.6128738 32.0134548,23.6229367 C32.010932,23.6342368 32.009437,23.6455369 32.0076618,23.6568371 C32.0062602,23.6654977 32.0043915,23.6739935 32.0033637,23.6828191 C31.9988788,23.7234831 31.9988788,23.7643945 32.0033637,23.8050585 C32.0043915,23.8138842 32.0062602,23.8223799 32.0076618,23.8311231 C32.009437,23.8423407 32.0110255,23.8537233 32.0134548,23.864941 C32.0157907,23.8750039 32.0189675,23.8848193 32.0216772,23.8947173 C32.0244803,23.9043677 32.0269096,23.9140182 32.0301799,23.9236687 C32.0335436,23.9334017 32.0376548,23.9428047 32.0415791,23.9523727 C32.04541,23.9619407 32.0489605,23.9714262 32.0532586,23.9807467 C32.0575566,23.9896549 32.0625088,23.9983156 32.0671806,24.0070587 C32.0722261,24.0166267 32.0770848,24.0262772 32.0827844,24.0355978 C32.0878299,24.0440935 32.0938099,24.0520943 32.0993226,24.0604251 C32.1054894,24.0694157 32.111189,24.0786537 32.1179164,24.0873969 C32.1250175,24.096635 32.1327727,24.1054606 32.140341,24.1142863 C32.1464144,24.1215448 32.1522074,24.1289682 32.158748,24.1359792 C32.1734174,24.1518159 32.1888344,24.1670752 32.2052791,24.1815097 L34.33637,26.0627758 C34.4732539,26.183613 34.6524644,26.2439904 34.8318617,26.2439904 C35.0111656,26.2439904 35.190563,26.1835305 35.3273534,26.0627758 C35.6011212,25.8211839 35.6011212,25.4294734 35.3273534,25.187964 L34.3924317,24.3625593 L37.2992292,24.3625593 C37.6862415,24.3625593 38,24.0856648 38,23.7439388 C38,23.4022954 37.6862415,23.1253183 37.2992292,23.1253183 L34.3924317,23.1253183 L35.3273534,22.2999961 C35.6011212,22.0584042 35.6011212,21.6666937 35.3273534,21.4251843 C35.053679,21.1835924 34.6099509,21.1835924 34.33637,21.4251843 L32.2052791,23.3063679 C32.1888344,23.3208849 32.1734174,23.3361442 32.158748,23.3518984" id="Fill-7" fill="#231F20" mask="url(#mask-2)"></path>
                        </g>
                    </g>
                </g>
            </g>
        </g>
    </g>
</svg>