<?xml version="1.0" encoding="UTF-8"?>
<svg width="159px" height="55px" viewBox="0 0 159 55" version="1.1" xmlns="http://www.w3.org/2000/svg" xmlns:xlink="http://www.w3.org/1999/xlink">
    <title>NSH Logo Colour FLat@2x</title>
    <defs>
        <filter id="filter-1">
            <feColorMatrix in="SourceGraphic" type="matrix" values="0 0 0 0 1.000000 0 0 0 0 1.000000 0 0 0 0 1.000000 0 0 0 1.000000 0"></feColorMatrix>
        </filter>
    </defs>
    <g id="_Symbols" stroke="none" stroke-width="1" fill="none" fill-rule="evenodd">
        <g id="10.-FOOTER" transform="translate(-260.000000, -79.000000)">
            <g id="NSH-Logo-Colour-FLat" transform="translate(260.000000, 79.000000)">
                <path d="M57,0.5 C54.6059056,8.09527268 35.3281684,7.51848673 24.5269697,7.51848673 L0,7.51848673 L0,21.5 C0,21.5 22.2967402,21.5 29.3262681,21.5 C36.3557959,21.5 51.4091507,21.0618645 52.5923111,14.4815133 L57,0.5 Z" id="Path" fill="#00969F" fill-rule="nonzero"></path>
                <path d="M13.814911,25.5 L0,25.5 L0,39.2634489 L13.5840134,39.2634489 C21.4373145,39.4373946 32.5482196,42.2341143 39.7255193,54.5 L45,38.2034677 C34.3870549,27.7042174 21.4289688,25.6522024 13.814911,25.5 Z" id="Path" fill="#81C241" fill-rule="nonzero"></path>
                <g filter="url(#filter-1)" id="Group">
                    <g transform="translate(55.000000, 22.500000)">
                        <polygon id="Path" fill="#006472" fill-rule="nonzero" points="11.3631367 13.9944828 10.3856032 13.9944828 1.19844504 1.92551724 1.19844504 13.9944828 0.118739946 13.9944828 0.118739946 0.228965517 1.19844504 0.228965517 10.286193 12.0993103 10.286193 0.228965517 11.3631367 0.228965517 11.3631367 13.9944828"></polygon>
                        <polygon id="Path" fill="#006472" fill-rule="nonzero" points="21.1881769 13.9944828 13.558445 13.9944828 13.558445 0.228965517 21.0473458 0.228965517 21.0473458 1.20551724 14.6381501 1.20551724 14.6381501 6.19310345 20.6883646 6.19310345 20.6883646 7.16965517 14.6381501 7.16965517 14.6381501 13.0151724 21.1881769 13.0151724"></polygon>
                        <polygon id="Path" fill="#006472" fill-rule="nonzero" points="40.0595442 0.226206897 36.0251475 14.0110345 35.0255228 14.0110345 31.1899464 1.78206897 27.3764611 14.0110345 26.3768365 14.0110345 22.3424397 0.226206897 23.480134 0.226206897 26.9346381 12.1572414 30.6293834 0.226206897 31.7670777 0.226206897 35.4618231 12.1572414 38.9163271 0.226206897 40.0595442 0.226206897"></polygon>
                        <path d="M47.7693566,14.2317241 C45.0935657,14.2317241 43.8536997,12.3172414 43.5554692,11.7572414 L44.394933,11.1586207 C44.8947453,12.0772414 46.0931903,13.2937931 47.8687668,13.2937931 C49.6471046,13.2937931 51.0830295,12.1958621 51.0830295,10.4 C51.0830295,8.60413793 49.2467024,7.92551724 48.4458981,7.60827586 C47.6478552,7.28827586 46.7476408,6.91034483 46.1898391,6.60965517 C45.6513673,6.31172414 44.1933512,5.41241379 44.1933512,3.41793103 C44.1933512,1.42344828 45.9302681,0.0275862069 48.2470777,0.0275862069 C50.5638874,0.0275862069 51.7209115,1.62482759 51.8424129,1.82344828 L51.0857909,2.48275862 C50.5666488,1.82344828 49.7686059,0.987586207 48.1697587,0.987586207 C46.5709115,0.987586207 45.2951475,1.8262069 45.2951475,3.38206897 C45.2951475,4.93793103 46.3720912,5.55586207 47.3523861,5.97517241 C48.3299196,6.39448276 49.8680161,7.03172414 50.1883378,7.21103448 C50.5086595,7.39034483 52.1848257,8.30896552 52.1848257,10.4027586 C52.1848257,12.4965517 50.4451475,14.2317241 47.7693566,14.2317241 Z" id="Path" fill="#006472" fill-rule="nonzero"></path>
                        <path d="M60.5131903,14.2317241 C56.7797855,14.2317241 53.5241019,11.5172414 53.5241019,7.12827586 C53.5241019,2.73931034 56.7797855,0.0248275862 60.5131903,0.0248275862 C64.2686863,0.0248275862 67.5022788,2.73931034 67.5022788,7.12827586 C67.5022788,11.5172414 64.2659249,14.2317241 60.5131903,14.2317241 Z M60.5131903,0.984827586 C57.379008,0.984827586 54.6617962,3.23862069 54.6617962,7.10896552 C54.6617962,10.9406897 57.3983378,13.2137931 60.5131903,13.2137931 C63.6694638,13.2137931 66.3839142,10.9406897 66.3839142,7.10896552 C66.3839142,3.26068966 63.6667024,0.984827586 60.5131903,0.984827586 Z" id="Shape" fill="#006472" fill-rule="nonzero"></path>
                        <path d="M79.3431367,8.44689655 C79.3431367,10.0027586 79.2823861,11.3793103 78.3656032,12.537931 C77.4681501,13.6551724 76.1482038,14.2344828 74.4499464,14.2344828 C72.751689,14.2344828 71.434504,13.6551724 70.5342895,12.537931 C69.6147453,11.382069 69.556756,10.0027586 69.556756,8.44689655 L69.556756,0.226206897 L70.6364611,0.226206897 L70.6364611,8.5462069 C70.6364611,9.58344828 70.6557909,10.8413793 71.3350938,11.7765517 C71.995067,12.6731034 73.052681,13.2331034 74.4499464,13.2331034 C75.8472118,13.2331034 76.9075871,12.6758621 77.5647989,11.7765517 C78.2441019,10.8386207 78.2634316,9.58068966 78.2634316,8.5462069 L78.2634316,0.226206897 L79.3403753,0.226206897 L79.3403753,8.44689655 L79.3431367,8.44689655 Z" id="Path" fill="#006472" fill-rule="nonzero"></path>
                        <polygon id="Path" fill="#006472" fill-rule="nonzero" points="90.4080429 1.20551724 86.3156568 1.20551724 86.3156568 13.9944828 85.2359517 13.9944828 85.2359517 1.20551724 81.1408043 1.20551724 81.1408043 0.228965517 90.4080429 0.228965517 90.4080429 1.20551724"></polygon>
                        <polygon id="Path" fill="#006472" fill-rule="nonzero" points="102.991716 13.9944828 101.914772 13.9944828 101.914772 7.11172414 93.3875871 7.11172414 93.3875871 13.9944828 92.307882 13.9944828 92.307882 0.228965517 93.3875871 0.228965517 93.3875871 6.13517241 101.914772 6.13517241 101.914772 0.228965517 102.991716 0.228965517"></polygon>
                        <polygon id="Path" fill="#006472" fill-rule="nonzero" points="12.0810992 31.6165517 8.8475067 31.6165517 8.8475067 25.8510345 3.31367292 25.8510345 3.31367292 31.6165517 0.080080429 31.6165517 0.080080429 17.8510345 3.31367292 17.8510345 3.31367292 23.177931 8.84474531 23.177931 8.84474531 17.8510345 12.0783378 17.8510345 12.0783378 31.6165517"></polygon>
                        <path d="M21.2075067,31.8565517 C17.1151206,31.8565517 13.8980965,29.2027586 13.8980965,24.7531034 C13.8980965,20.3034483 17.1123592,17.6303448 21.2075067,17.6303448 C25.3026542,17.6303448 28.5169169,20.3034483 28.5169169,24.7531034 C28.5169169,29.2027586 25.3026542,31.8565517 21.2075067,31.8565517 Z M21.2075067,20.3834483 C18.9100268,20.3834483 17.1731099,22.0386207 17.1731099,24.6731034 C17.1731099,27.3075862 18.9100268,28.982069 21.2075067,28.982069 C23.5049866,28.982069 25.2419035,27.3075862 25.2419035,24.6731034 C25.2419035,22.0606897 23.5049866,20.3834483 21.2075067,20.3834483 Z" id="Shape" fill="#006472" fill-rule="nonzero"></path>
                        <polygon id="Path" fill="#006472" fill-rule="nonzero" points="45.7921984 31.6165517 42.6165952 31.6165517 42.0781233 22.24 42.0394638 22.24 39.0847721 31.6165517 36.5277212 31.6165517 33.5509383 22.24 33.4901877 22.24 32.9903753 31.6165517 29.8147721 31.6165517 30.8530563 17.8510345 34.9261126 17.8510345 37.8007239 26.9075862 37.8393834 26.9075862 40.6753351 17.8510345 44.7704826 17.8510345"></polygon>
                        <polygon id="Path" fill="#006472" fill-rule="nonzero" points="56.8985255 31.6165517 47.7914477 31.6165517 47.7914477 17.8510345 56.7190349 17.8510345 56.7190349 20.4248276 51.0084718 20.4248276 51.0084718 23.2386207 56.4014745 23.2386207 56.4014745 25.8124138 51.0084718 25.8124138 51.0084718 29.0041379 56.8985255 29.0041379"></polygon>
                        <path d="M66.9831367,30.72 C66.0056032,31.497931 64.7270777,31.8565517 63.2497319,31.8565517 C61.253244,31.8565517 59.4749062,30.8193103 58.3565416,29.782069 L59.9553887,27.4289655 C60.9550134,28.4662069 62.4931099,29.1641379 63.5507239,29.1641379 C64.589008,29.1641379 65.3870509,28.6648276 65.3870509,27.7489655 C65.3870509,26.8110345 64.3680965,26.4524138 63.768874,26.2317241 C63.1696515,26.0110345 62.1313673,25.6524138 61.6729759,25.4537931 C61.3333244,25.2937931 60.6346917,25.0344828 60.0354692,24.4551724 C59.4362466,23.897931 58.9557641,23.097931 58.9557641,21.8013793 C58.9557641,20.4855172 59.5936461,19.4482759 60.3944504,18.7889655 C61.1731635,18.1296552 62.4323592,17.6910345 64.028445,17.6910345 C65.6272922,17.6910345 67.4636193,18.4496552 68.4024933,19.3875862 L67.0245576,21.6413793 C66.2265147,20.8441379 64.9866488,20.2455172 63.9483646,20.2455172 C62.9100804,20.2455172 62.1506971,20.6455172 62.1506971,21.4813793 C62.1506971,22.32 62.9294102,22.6372414 63.5479625,22.8772414 C64.147185,23.1172414 65.1661394,23.4758621 65.6052011,23.6551724 C65.9835121,23.7958621 66.9030563,24.1544828 67.5216086,24.7724138 C68.1015013,25.3517241 68.5985614,26.1875862 68.5985614,27.4262069 C68.6013137,28.7448276 67.98,29.942069 66.9831367,30.72 Z" id="Path" fill="#006472" fill-rule="nonzero"></path>
                    </g>
                </g>
            </g>
        </g>
    </g>
</svg>