<?xml version="1.0" encoding="UTF-8"?>
<svg width="34px" height="34px" viewBox="0 0 34 34" version="1.1" xmlns="http://www.w3.org/2000/svg" xmlns:xlink="http://www.w3.org/1999/xlink">
    <!-- Generator: Sketch 53.2 (72643) - https://sketchapp.com -->
    <title>Phone</title>
    <desc>Created with Sketch.</desc>
    <g id="_General-Content-Components" stroke="none" stroke-width="1" fill="none" fill-rule="evenodd">
        <g id="Pictura-Creative-Theme-001:-Contact" transform="translate(-141.000000, -955.000000)" fill="#000000" fill-rule="nonzero">
            <g id="Phone" transform="translate(141.000000, 955.000000)">
                <path d="M25.8254387,22.4711019 C24.7156674,21.3754678 23.3302204,21.3754678 22.2275177,22.4711019 C21.3863534,23.3051975 20.5451892,24.1392931 19.7181622,24.987526 C19.4919667,25.22079 19.3011143,25.2702703 19.0254387,25.1147609 C18.4811559,24.8178794 17.9015301,24.5775468 17.3784532,24.2523909 C14.9397838,22.7185031 12.8969563,20.7463617 11.0873929,18.5268191 C10.1896798,17.4241164 9.39092723,16.243659 8.83250728,14.9147609 C8.71940956,14.6461538 8.74061538,14.4694387 8.9597422,14.2503119 C9.80090644,13.437422 10.6208649,12.6033264 11.4478919,11.7692308 C12.6000748,10.6099792 12.6000748,9.25280665 11.4408233,8.08648649 C10.7834428,7.42203742 10.1260624,6.77172557 9.46868191,6.10727651 C8.79009563,5.42869023 8.11857796,4.74303534 7.43292308,4.07151767 C6.32315177,2.99002079 4.93770478,2.99002079 3.83500208,4.07858628 C2.98676923,4.91268191 2.17387942,5.76798337 1.31150936,6.58794179 C0.512756757,7.34428274 0.109846154,8.27027027 0.025022869,9.35176715 C-0.109280665,11.1118503 0.321904366,12.772973 0.929804574,14.391684 C2.17387942,17.7422037 4.06826611,20.7180873 6.36556341,23.4465696 C9.46868191,27.1363825 13.172632,30.0557173 17.5056881,32.1621622 C19.4566237,33.1093555 21.4782453,33.837422 23.6765821,33.9575884 C25.189264,34.0424116 26.5040249,33.6607069 27.5572474,32.4802495 C28.2782453,31.6744283 29.0911351,30.9392931 29.8545447,30.168815 C30.9855218,29.0237006 30.9925904,27.6382536 29.8686819,26.5072765 C28.5256466,25.1571726 27.1755426,23.8141372 25.8254387,22.4711019 Z" id="Path"></path>
                <path d="M24.4753347,16.837422 L27.0836507,16.3920998 C26.6736715,13.995842 25.5426944,11.8257796 23.8250229,10.1010395 C22.0083909,8.28440748 19.7110936,7.13929314 17.1805322,6.78586279 L16.8129647,9.40831601 C18.7709688,9.68399168 20.5522578,10.5675676 21.9589106,11.9742204 C23.2878087,13.3031185 24.1572474,14.985447 24.4753347,16.837422 Z" id="Path"></path>
                <path d="M28.553921,5.4993763 C25.5426944,2.48814969 21.7327152,0.586694387 17.526894,0 L17.1593264,2.62245322 C20.7925904,3.13139293 24.0865613,4.77837838 26.6878087,7.37255717 C29.1547526,9.83950104 30.7734636,12.9567568 31.360158,16.3850312 L33.968474,15.9397089 C33.2828191,11.9671518 31.4096383,8.36216216 28.553921,5.4993763 Z" id="Path"></path>
            </g>
        </g>
    </g>
</svg>