<?xml version="1.0" encoding="UTF-8"?>
<svg width="45px" height="42px" viewBox="0 0 45 42" version="1.1" xmlns="http://www.w3.org/2000/svg" xmlns:xlink="http://www.w3.org/1999/xlink">
    <title>Group 9@2x</title>
    <defs>
        <polygon id="path-1" points="0 0.00469230062 42.9318676 0.00469230062 42.9318676 39.9999512 0 39.9999512"></polygon>
        <polygon id="path-3" points="1.32439314 40.3604651 43.3243931 40.3604651 43.3243931 0.360465116 1.32439314 0.360465116"></polygon>
    </defs>
    <g id="2.-HOME-DESIGNS*" stroke="none" stroke-width="1" fill="none" fill-rule="evenodd">
        <g id="2.0-NEW-HOME-DESIGNS-B" transform="translate(-786.000000, -2147.000000)">
            <g id="CONTENT" transform="translate(359.000000, 1278.000000)">
                <g id="Filter" transform="translate(251.000000, 151.000000)">
                    <g id="Group-13-Copy-2" transform="translate(145.000000, 709.000000)">
                        <g id="Group-9" transform="translate(31.675607, 9.639535)">
                            <g id="Group-3" transform="translate(0.324393, 0.360465)">
                                <mask id="mask-2" fill="white">
                                    <use xlink:href="#path-1"></use>
                                </mask>
                                <g id="Clip-2"></g>
                                <path d="M23.6143139,32.3063902 C23.0721998,32.3063902 22.6325788,32.7431707 22.6325788,33.282 L22.6325788,38.0487317 L16.8832432,38.0487317 L16.8832432,35.130878 L15.7781039,35.130878 L15.7781039,31.5541951 C15.7781039,29.9017073 14.3464395,29.3019024 13.3841427,29.3019024 C12.4738779,29.3019024 11.7632979,29.556439 11.2719395,30.0584878 C10.6737683,30.6698049 10.6490285,31.4140976 10.6501084,31.5578049 L10.6501084,35.130878 L9.54496918,35.130878 L9.54496918,38.0487317 L4.20462443,38.0487317 L4.20462443,14.705122 L12.8008938,10.162878 L24.5189829,16.3545854 C24.7471381,16.4752683 25.0223185,16.4681463 25.2438961,16.3357561 C25.4653756,16.2034634 25.6009532,15.9654146 25.6009532,15.7085366 L25.6009532,11.043561 C25.6009532,10.7730244 25.4507477,10.5245366 25.2103208,10.3975122 L23.5438253,9.51702439 L29.7800034,6.22190244 L38.2769212,10.7116585 L38.2769212,32.3063902 L23.6143139,32.3063902 Z M11.0175719,36.5942927 L11.3863116,36.5942927 L15.0418025,36.5942927 L15.4106404,36.5942927 L15.4106404,38.0487317 L11.0175719,38.0487317 L11.0175719,36.5942927 Z M12.1229075,31.5398537 C12.1448984,30.8213171 13.09296,30.7653171 13.3776632,30.7652195 C13.3806084,30.7653171 13.6713984,30.7720488 13.9322454,30.9013171 C14.1938779,31.030878 14.3055011,31.2261951 14.3055011,31.5541951 L14.3055011,35.130878 L12.122613,35.130878 L12.1227112,31.5541951 C12.1227112,31.5391707 12.1234966,31.5477561 12.1229075,31.5398537 L12.1229075,31.5398537 Z M1.47255365,14.4912683 L1.47255365,11.4836585 L12.8008938,5.49790244 L24.1283505,11.4832683 L24.1283505,14.4907805 L13.1465628,8.68814634 C12.9304829,8.57390244 12.671403,8.57390244 12.4552249,8.68814634 L1.47255365,14.4912683 Z M29.7800034,1.55692683 L41.10746,7.54219512 L41.10746,10.5498049 L30.1256724,4.74717073 C29.9095925,4.63292683 29.6504144,4.63292683 29.4343345,4.74717073 L21.9756016,8.68834146 L19.1295514,7.18453659 L29.7800034,1.55692683 Z M41.9501815,32.3063902 L39.749524,32.3063902 L39.749524,11.4897073 L41.4979943,12.4136098 C41.7261495,12.5342927 42.0013299,12.5271707 42.2229075,12.3947805 C42.4444852,12.2624878 42.5800628,12.024439 42.5800628,11.767561 L42.5800628,7.10258537 C42.5800628,6.83195122 42.4297591,6.58346341 42.1893322,6.45653659 L30.1414783,0.0905853659 C30.0218048,0.0272682927 29.8922158,-0.000243902439 29.7660628,0.00541463415 C29.6485491,0.00687804878 29.5258322,0.033902439 29.4175468,0.0909756098 L17.5612295,6.35585366 L13.1624669,4.03156098 C13.0426952,3.96814634 12.9129098,3.94082927 12.7869532,3.94639024 C12.6699304,3.9495122 12.5468208,3.97487805 12.4385354,4.03204878 L0.390583333,10.398 C0.150254566,10.5250244 -4.9086758e-05,10.7735122 -4.9086758e-05,11.0440488 L-4.9086758e-05,15.7090244 C-4.9086758e-05,15.9659024 0.135528539,16.2039512 0.357106164,16.3362439 C0.473539954,16.4058049 0.604797945,16.4407317 0.736252283,16.4407317 C0.854944064,16.4407317 0.973734018,16.4122439 1.08192123,16.3550732 L2.73202169,15.4832683 L2.73202169,38.0487317 L1.0179121,38.0487317 C0.475699772,38.0487317 0.0361769406,38.4856098 0.0361769406,39.0243415 C0.0361769406,39.5632683 0.475699772,39.9999512 1.0179121,39.9999512 L23.6143139,39.9999512 C24.1565263,39.9999512 24.5960491,39.5632683 24.5960491,39.0243415 L24.5960491,34.2576098 L41.9501815,34.2576098 C42.4923938,34.2576098 42.9319167,33.8207317 42.9319167,33.282 C42.9319167,32.7431707 42.4923938,32.3063902 41.9501815,32.3063902 L41.9501815,32.3063902 Z" id="Fill-1" fill="#231F20" mask="url(#mask-2)"></path>
                            </g>
                            <mask id="mask-4" fill="white">
                                <use xlink:href="#path-3"></use>
                            </mask>
                            <g id="Clip-5"></g>
                            <path d="M24.7505876,26.7334259 L27.8981987,26.7334259 L27.8981987,25.0818726 L24.7505876,25.0818726 L24.7505876,26.7334259 Z M24.7506827,21.3582306 L24.7517285,21.3600746 L24.7506827,21.3404417 C24.7544858,21.0122136 24.899197,19.9875043 26.5324749,19.9875043 C26.5364683,19.9876128 26.9365633,19.9961819 27.3059477,20.202165 C27.7155507,20.4307098 27.8981987,20.7872484 27.8981987,21.3582306 L27.8981987,23.4548334 L24.7505876,23.4548334 L24.7506827,21.3582306 Z M26.5372289,18.3604651 C25.456744,18.3604651 24.6176663,18.7019264 24.0435755,19.3754122 C23.3444549,20.19544 23.3225866,21.1902117 23.3244882,21.3646303 L23.3243931,24.2682445 L23.3243931,24.268353 L23.3243931,24.2685699 L23.3243931,28.3604651 L29.3243931,28.3604651 L29.3243931,24.268353 L29.3243931,21.3582306 C29.3243931,19.158799 27.6575522,18.3604651 26.5372289,18.3604651 L26.5372289,18.3604651 Z" id="Fill-4" fill="#231F20" mask="url(#mask-4)"></path>
                            <path d="M31.7505876,23.7334259 L34.8981987,23.7334259 L34.8981987,22.0818726 L31.7505876,22.0818726 L31.7505876,23.7334259 Z M31.7506827,18.3582306 L31.7516335,18.3600746 L31.7506827,18.3404417 C31.7544858,18.0123221 31.8990069,16.9875043 33.5324749,16.9875043 C33.5364683,16.9876128 33.9364683,16.9961819 34.3058526,17.202165 C34.7154557,17.4307098 34.8981987,17.7872484 34.8981987,18.3582306 L34.8981987,20.4548334 L31.7505876,20.4548334 L31.7506827,18.3582306 Z M33.5371338,15.3604651 C32.4565538,15.3604651 31.6175712,15.7019264 31.0434804,16.3754122 C30.3447402,17.1950061 30.3225866,18.189344 30.3244882,18.3645219 L30.3243931,21.2682445 L30.3243931,21.268353 L30.3243931,21.2685699 L30.3243931,25.3604651 L36.3243931,25.3604651 L36.3243931,21.268353 L36.3243931,18.3582306 C36.3243931,16.158799 34.6575522,15.3604651 33.5371338,15.3604651 L33.5371338,15.3604651 Z" id="Fill-6" fill="#231F20" mask="url(#mask-4)"></path>
                            <path d="M11.8982213,26.7334259 L8.75056498,26.7334259 L8.75066006,25.0819811 L11.8982213,25.0819811 L11.8982213,26.7334259 Z M8.75066006,21.3582306 L8.75170592,21.3601831 L8.75066006,21.3404417 C8.75446318,21.0123221 8.89926716,19.9876128 10.5325192,19.9876128 C10.5365124,19.9876128 10.9365061,19.9961819 11.3058846,20.202165 C11.7155762,20.4308183 11.8982213,20.7872484 11.8982213,21.3582306 L11.8982213,23.4549419 L8.75066006,23.4549419 L8.75066006,21.3582306 Z M10.537178,18.3604651 C9.4567102,18.3604651 8.61774084,18.7019264 8.04356406,19.3754122 C7.34445463,20.19544 7.32258666,21.1902117 7.32448822,21.3647388 L7.32448822,24.2682445 L7.32448822,24.2684615 L7.32448822,24.2685699 L7.32439314,28.3604651 L13.3243931,28.3604651 L13.3243931,24.2684615 L13.3243931,21.3582306 C13.3243931,19.158799 11.6575786,18.3604651 10.537178,18.3604651 L10.537178,18.3604651 Z" id="Fill-7" fill="#231F20" mask="url(#mask-4)"></path>
                            <path d="M18.8981987,26.7334259 L15.7505876,26.7334259 L15.7505876,25.0819811 L18.8981987,25.0819811 L18.8981987,26.7334259 Z M15.7506827,21.3582306 L15.7516335,21.3601831 L15.7506827,21.3404417 C15.7544858,21.0124306 15.899102,19.9876128 17.5324749,19.9876128 C17.5364683,19.9876128 17.9364683,19.9961819 18.3058526,20.202165 C18.7155507,20.4308183 18.8981987,20.7872484 18.8981987,21.3582306 L18.8981987,23.4549419 L15.7505876,23.4549419 L15.7506827,21.3582306 Z M17.5371338,18.3604651 C16.4566489,18.3604651 15.6176663,18.7019264 15.0434804,19.3754122 C14.3446451,20.1951145 14.3225866,21.189344 14.3244882,21.3645219 L14.3243931,24.2682445 L14.3243931,24.2684615 L14.3243931,24.2685699 L14.3243931,28.3604651 L20.3243931,28.3604651 L20.3243931,24.2684615 L20.3243931,21.3582306 C20.3243931,19.158799 18.6575522,18.3604651 17.5371338,18.3604651 L17.5371338,18.3604651 Z" id="Fill-8" fill="#231F20" mask="url(#mask-4)"></path>
                        </g>
                    </g>
                </g>
            </g>
        </g>
    </g>
</svg>