<?xml version="1.0" encoding="UTF-8" standalone="no"?>
<!DOCTYPE svg PUBLIC "-//W3C//DTD SVG 1.1//EN" "http://www.w3.org/Graphics/SVG/1.1/DTD/svg11.dtd">
<svg width="100%" height="100%" viewBox="0 0 47 30" version="1.1" xmlns="http://www.w3.org/2000/svg" xmlns:xlink="http://www.w3.org/1999/xlink" xml:space="preserve" xmlns:serif="http://www.serif.com/" style="fill-rule:evenodd;clip-rule:evenodd;stroke-linejoin:round;stroke-miterlimit:2;">
    <g id="_2.-HOME-DESIGNS" serif:id="2.-HOME-DESIGNS">
        <g id="_2.0-NEW-HOME-DESIGNS-" serif:id="2.0-NEW-HOME-DESIGNS-">
            <g id="Filter">
                <g id="Single-Storey">
                    <g>
                        <g id="Group-3" transform="matrix(1,0,0,1,0,0.065)">
                            <path id="Fill-1" d="M43.2,28.1L31.1,28.1L31.1,17.65C31.1,17.236 30.764,16.9 30.35,16.9L25.55,16.9C25.136,16.9 24.8,17.236 24.8,17.65L24.8,28.1L21.5,28.1L21.5,13.853L32.35,5.305L43.2,13.853L43.2,28.1ZM29.6,22.502C29.583,22.501 29.567,22.5 29.55,22.5C29.353,22.5 29.159,22.58 29.02,22.72C28.88,22.859 28.8,23.053 28.8,23.25C28.8,23.447 28.88,23.641 29.02,23.78C29.159,23.92 29.353,24 29.55,24C29.567,24 29.583,23.999 29.6,23.998L29.6,28.1L26.3,28.1L26.3,18.4L29.6,18.4L29.6,22.502ZM7.9,28.1L15.2,28.1L15.2,26.4L7.9,26.4L7.9,28.1ZM7.9,21.7L15.2,21.7L15.2,20L7.9,20L7.9,21.7ZM7.9,24.9L15.2,24.9L15.2,23.2L7.9,23.2L7.9,24.9ZM3.1,19.153L11.55,12.496L20,19.153L20,28.1L16.7,28.1L16.7,19.25C16.7,18.836 16.364,18.5 15.95,18.5L7.15,18.5C6.736,18.5 6.4,18.836 6.4,19.25L6.4,28.1L3.1,28.1L3.1,19.153ZM1.5,16.414L11.024,8.91C11.334,8.666 11.766,8.666 12.076,8.91L20,15.153L20,17.244L12.014,10.952C11.742,10.737 11.358,10.737 11.086,10.952L1.5,18.504L1.5,16.414ZM19.9,11.114L31.824,1.719C32.134,1.475 32.566,1.475 32.876,1.719L44.8,11.114L44.8,13.204L32.814,3.761C32.678,3.654 32.514,3.6 32.35,3.6C32.186,3.6 32.022,3.654 31.886,3.761L19.9,13.204L19.9,11.114ZM23.1,3.5L24.8,3.5L24.8,5.344L23.1,6.683L23.1,3.5ZM45.086,15.339C45.221,15.445 45.385,15.5 45.55,15.5C45.661,15.5 45.773,15.475 45.877,15.425C46.136,15.299 46.3,15.037 46.3,14.75L46.3,10.75C46.3,10.52 46.195,10.303 46.014,10.161L33.804,0.541C32.948,-0.134 31.752,-0.134 30.896,0.541L26.3,4.162L26.3,2.75C26.3,2.336 25.964,2 25.55,2L22.35,2C21.936,2 21.6,2.336 21.6,2.75L21.6,7.865L18.686,10.161C18.505,10.303 18.4,10.52 18.4,10.75L18.4,14.75C18.4,15.037 18.564,15.299 18.823,15.425C19.081,15.55 19.389,15.517 19.614,15.339L19.925,15.094L18.4,13.893L18.4,11.984L13.004,7.732C12.148,7.057 10.952,7.057 10.096,7.732L0.286,15.461C0.105,15.603 0,15.82 0,16.05L0,20.05C0,20.337 0.164,20.599 0.423,20.725C0.527,20.775 0.639,20.8 0.75,20.8C0.915,20.8 1.079,20.745 1.214,20.639L1.6,20.335L1.6,28.1L0.75,28.1C0.336,28.1 0,28.436 0,28.85C0,29.264 0.336,29.6 0.75,29.6L45.55,29.6C45.964,29.6 46.3,29.264 46.3,28.85C46.3,28.436 45.964,28.1 45.55,28.1L44.7,28.1L44.7,15.035L45.086,15.339Z"/>
                        </g>
                        <path id="Fill-4" d="M35.1,19.365L38.4,19.365L38.4,18.465L35.1,18.465L35.1,19.365ZM35.1,23.365L38.4,23.365L38.4,20.865L35.1,20.865L35.1,23.365ZM34.35,24.865L39.15,24.865C39.564,24.865 39.9,24.529 39.9,24.115L39.9,17.715C39.9,17.301 39.564,16.965 39.15,16.965L34.35,16.965C33.936,16.965 33.6,17.301 33.6,17.715L33.6,24.115C33.6,24.529 33.936,24.865 34.35,24.865Z"/>
                    </g>
                </g>
            </g>
        </g>
    </g>
</svg>
