<?xml version="1.0" encoding="UTF-8" standalone="no"?>
<!DOCTYPE svg PUBLIC "-//W3C//DTD SVG 1.1//EN" "http://www.w3.org/Graphics/SVG/1.1/DTD/svg11.dtd">
<svg width="100%" height="100%" viewBox="0 0 47 39" version="1.1" xmlns="http://www.w3.org/2000/svg" xmlns:xlink="http://www.w3.org/1999/xlink" xml:space="preserve" xmlns:serif="http://www.serif.com/" style="fill-rule:evenodd;clip-rule:evenodd;stroke-linejoin:round;stroke-miterlimit:2;">
    <g id="_2.-HOME-DESIGNS" serif:id="2.-HOME-DESIGNS">
        <g id="_2.0-NEW-HOME-DESIGNS-" serif:id="2.0-NEW-HOME-DESIGNS-">
            <g id="Filter">
                <g id="Double-Storey">
                    <g>
                        <g id="Group-3" transform="matrix(1,0,0,1,0,0.065)">
                            <path id="Fill-1" d="M43.2,37.2L31.1,37.2L31.1,26.75C31.1,26.336 30.764,26 30.35,26L25.55,26C25.136,26 24.8,26.336 24.8,26.75L24.8,37.2L21.5,37.2L21.5,13.853L32.35,5.305L43.2,13.853L43.2,37.2ZM29.6,31.602C29.583,31.601 29.567,31.6 29.55,31.6C29.353,31.6 29.159,31.68 29.02,31.82C28.88,31.959 28.8,32.153 28.8,32.35C28.8,32.547 28.88,32.741 29.02,32.88C29.159,33.02 29.353,33.1 29.55,33.1C29.567,33.1 29.583,33.099 29.6,33.098L29.6,37.2L26.3,37.2L26.3,27.5L29.6,27.5L29.6,31.602ZM7.9,37.2L15.2,37.2L15.2,35.5L7.9,35.5L7.9,37.2ZM7.9,30.8L15.2,30.8L15.2,29.1L7.9,29.1L7.9,30.8ZM7.9,34L15.2,34L15.2,32.3L7.9,32.3L7.9,34ZM3.1,28.253L11.55,21.596L20,28.253L20,37.2L16.7,37.2L16.7,28.35C16.7,27.936 16.364,27.6 15.95,27.6L7.15,27.6C6.736,27.6 6.4,27.936 6.4,28.35L6.4,37.2L3.1,37.2L3.1,28.253ZM1.5,25.514L11.024,18.01C11.334,17.766 11.766,17.766 12.076,18.01L20,24.253L20,26.344L12.014,20.052C11.742,19.837 11.358,19.837 11.086,20.052L1.5,27.604L1.5,25.514ZM19.9,11.114L31.824,1.719C32.134,1.475 32.566,1.475 32.876,1.719L44.8,11.114L44.8,13.204L32.814,3.761C32.678,3.654 32.514,3.6 32.35,3.6C32.186,3.6 32.022,3.654 31.886,3.761L19.9,13.204L19.9,11.114ZM23.1,3.5L24.8,3.5L24.8,5.344L23.1,6.683L23.1,3.5ZM45.086,15.339C45.221,15.445 45.385,15.5 45.55,15.5C45.662,15.5 45.773,15.475 45.877,15.425C46.136,15.299 46.3,15.037 46.3,14.75L46.3,10.75C46.3,10.52 46.195,10.303 46.014,10.161L33.804,0.541C32.948,-0.134 31.752,-0.134 30.896,0.541L26.3,4.162L26.3,2.75C26.3,2.336 25.964,2 25.55,2L22.35,2C21.936,2 21.6,2.336 21.6,2.75L21.6,7.865L18.686,10.161C18.505,10.303 18.4,10.52 18.4,10.75L18.4,14.75C18.4,15.037 18.564,15.299 18.823,15.425C19.081,15.55 19.389,15.517 19.614,15.339L20,15.035L20,22.344L13.004,16.832C12.148,16.157 10.952,16.157 10.096,16.832L0.286,24.561C0.105,24.703 0,24.92 0,25.15L0,29.15C0,29.437 0.164,29.699 0.423,29.825C0.527,29.875 0.639,29.9 0.75,29.9C0.915,29.9 1.079,29.845 1.214,29.739L1.6,29.435L1.6,37.2L0.75,37.2C0.336,37.2 0,37.536 0,37.95C0,38.364 0.336,38.7 0.75,38.7L45.55,38.7C45.964,38.7 46.3,38.364 46.3,37.95C46.3,37.536 45.964,37.2 45.55,37.2L44.7,37.2L44.7,15.035L45.086,15.339Z"/>
                        </g>
                        <path id="Fill-4" d="M35.1,28.465L38.4,28.465L38.4,27.565L35.1,27.565L35.1,28.465ZM35.1,32.465L38.4,32.465L38.4,29.965L35.1,29.965L35.1,32.465ZM34.35,33.965L39.15,33.965C39.564,33.965 39.9,33.629 39.9,33.215L39.9,26.815C39.9,26.401 39.564,26.065 39.15,26.065L34.35,26.065C33.936,26.065 33.6,26.401 33.6,26.815L33.6,33.215C33.6,33.629 33.936,33.965 34.35,33.965Z"/>
                        <path id="Fill-6" d="M35.1,17.265L38.4,17.265L38.4,16.365L35.1,16.365L35.1,17.265ZM35.1,21.265L38.4,21.265L38.4,18.765L35.1,18.765L35.1,21.265ZM34.35,22.765L39.15,22.765C39.564,22.765 39.9,22.429 39.9,22.015L39.9,15.615C39.9,15.201 39.564,14.865 39.15,14.865L34.35,14.865C33.936,14.865 33.6,15.201 33.6,15.615L33.6,22.015C33.6,22.429 33.936,22.765 34.35,22.765Z"/>
                        <path id="Fill-7" d="M26.3,21.265L29.6,21.265L29.6,18.765L26.3,18.765L26.3,21.265ZM26.3,17.265L29.6,17.265L29.6,16.365L26.3,16.365L26.3,17.265ZM30.35,14.865L25.55,14.865C25.136,14.865 24.8,15.201 24.8,15.615L24.8,22.015C24.8,22.429 25.136,22.765 25.55,22.765L30.35,22.765C30.764,22.765 31.1,22.429 31.1,22.015L31.1,15.615C31.1,15.201 30.764,14.865 30.35,14.865Z"/>
                    </g>
                </g>
            </g>
        </g>
    </g>
</svg>
