<?xml version="1.0" encoding="UTF-8"?> <svg xmlns="http://www.w3.org/2000/svg" xmlns:xlink="http://www.w3.org/1999/xlink" width="50px" height="50px" viewBox="0 0 50 50" version="1.1"><title>Back-to-top</title><g id="1.-Home-Page" stroke="none" stroke-width="1" fill="none" fill-rule="evenodd"><g id="iPhone-11-(long)" transform="translate(-349.000000, -7155.000000)"><g id="Group-10" transform="translate(349.000000, 7155.000000)"><circle id="Oval" fill-opacity="0.8" fill="#898989" cx="25" cy="25" r="25"></circle><path d="M25.0000137,12.0087891 C25.5128495,12.0087891 25.9355209,12.3948293 25.993286,12.8921679 L26.0000137,13.0087891 L26,35.3377891 L31.247437,29.3414954 C31.6111191,28.9258588 32.2428817,28.8837413 32.6585183,29.2474233 C33.0444666,29.5851281 33.10835,30.1539839 32.8243228,30.566308 L32.7525904,30.6585046 L25.8138823,38.5899713 C25.6324908,38.8435329 25.3355511,39.0087891 25.0000137,39.0087891 C24.6644763,39.0087891 24.3675366,38.8435329 24.1861451,38.5899713 L17.247437,30.6585046 C16.883755,30.242868 16.9258725,29.6111054 17.3415091,29.2474233 C17.7274574,28.9097185 18.2997592,28.9219124 18.6707317,29.2581593 L18.7525904,29.3414954 L24,35.3377891 L24.0000137,13.0087891 C24.0000137,12.4565043 24.447729,12.0087891 25.0000137,12.0087891 Z" id="Combined-Shape-Copy-4" fill="#262626" fill-rule="nonzero" transform="translate(25.000014, 25.508789) rotate(-180.000000) translate(-25.000014, -25.508789) "></path></g></g></g></svg> 