<?xml version="1.0" encoding="UTF-8"?>
<svg width="290px" height="23px" viewBox="0 0 290 23" version="1.1" xmlns="http://www.w3.org/2000/svg" xmlns:xlink="http://www.w3.org/1999/xlink">
    <!-- Generator: Sketch 53.2 (72643) - https://sketchapp.com -->
    <title>Group 10</title>
    <desc>Created with Sketch.</desc>
    <g id="Home-Page-Components" stroke="none" stroke-width="1" fill="none" fill-rule="evenodd">
        <g id="Pictura-Creative-Theme-001:-Home" transform="translate(-1209.000000, -3467.000000)" fill="#FFFFFF" fill-rule="nonzero">
            <g id="Group-10" transform="translate(1209.000000, 3467.000000)">
                <g id="youtube" transform="translate(153.616890, 2.300000)">
                    <path d="M25.6800364,1.8100303 C24.9525471,0.491781818 24.1630369,0.249306061 22.5555202,0.15709697 C20.9496798,0.0461045455 16.9116114,0 13.4132932,0 C9.90826992,0 5.86852529,0.0461045455 4.26436114,0.155389394 C2.66019698,0.249306061 1.86901048,0.490074242 1.13481623,1.8100303 C0.385535794,3.12657121 0,5.39423182 0,9.38654394 C0,9.38995909 0,9.39166667 0,9.39166667 C0,9.39508182 0,9.39678939 0,9.39678939 L0,9.40020455 C0,13.3754409 0.385535794,15.6601773 1.13481623,16.9630576 C1.86901048,18.2813061 2.65852074,18.5203667 4.26268489,18.6313591 C5.86852529,18.7269833 9.90826992,18.7833333 13.4132932,18.7833333 C16.9116114,18.7833333 20.9496798,18.7269833 22.5571965,18.6330667 C24.1647131,18.5220742 24.9542234,18.2830136 25.6817126,16.9647652 C26.437698,15.6618848 26.8198814,13.3771485 26.8198814,9.40191212 C26.8198814,9.40191212 26.8198814,9.39678939 26.8198814,9.39337424 C26.8198814,9.39337424 26.8198814,9.38995909 26.8198814,9.38825152 C26.8198814,5.39423182 26.437698,3.12657121 25.6800364,1.8100303 Z M10.0574555,14.5143939 L10.0574555,4.26893939 L18.4386684,9.39166667 L10.0574555,14.5143939 Z" id="Shape"></path>
                </g>
                <g id="twitter" transform="translate(96.919570, 1.533333)">
                    <path d="M24.5210344,2.3763021 C23.6091584,2.7793007 22.6375124,3.04642238 21.6244872,3.17612308 C22.6666312,2.54923636 23.4620322,1.56412867 23.835978,0.37674965 C22.864332,0.960402797 21.7915367,1.37266573 20.6482435,1.60273007 C19.7256396,0.61299021 18.4106991,0 16.9762186,0 C14.1930812,0 11.9524717,2.27593846 11.9524717,5.06604755 C11.9524717,5.4675021 11.9861881,5.85351608 12.0689466,6.2210014 C7.88964281,6.01564196 4.19156431,3.99756084 1.70727702,0.923345455 C1.27356122,1.68147692 1.01915549,2.54923636 1.01915549,3.48339021 C1.01915549,5.23743776 1.91570581,6.7923021 3.25210218,7.69248671 C2.44444061,7.67704615 1.65210469,7.44080559 0.980841375,7.06868811 C0.980841375,7.08412867 0.980841375,7.1042014 0.980841375,7.12427413 C0.980841375,9.5854993 2.72336738,11.6298294 5.00842127,12.1007664 C4.59922651,12.2134825 4.1532502,12.2675245 3.69041567,12.2675245 C3.3685771,12.2675245 3.04367339,12.2489958 2.73869303,12.1810573 C3.390033,14.186786 5.23830597,15.6613594 7.43600368,15.7092252 C5.72566153,17.057186 3.55401742,17.8693594 1.20306325,17.8693594 C0.790803359,17.8693594 0.395401679,17.8508308 0,17.7998769 C2.22681643,19.2466573 4.86589276,20.0727273 7.71186531,20.0727273 C16.9624255,20.0727273 22.0198889,12.3524476 22.0198889,5.66050909 C22.0198889,5.43662098 22.0122261,5.22045315 22.0014981,5.00582937 C22.9991977,4.29247552 23.8375105,3.40155524 24.5210344,2.3763021 Z" id="Path"></path>
                </g>
                <g id="instagram" transform="translate(43.287379, 0.000000)">
                    <path d="M15.8045729,0 L7.18389679,0 C3.21694898,0 0,3.2185625 0,7.1875 L0,15.8125 C0,19.7814375 3.21694898,23 7.18389679,23 L15.8045729,23 C19.7715207,23 22.9884697,19.7814375 22.9884697,15.8125 L22.9884697,7.1875 C22.9884697,3.2185625 19.7715207,0 15.8045729,0 Z M20.8333007,15.8125 C20.8333007,18.586875 18.5775571,20.84375 15.8045729,20.84375 L7.18389679,20.84375 C4.41091263,20.84375 2.15516904,18.586875 2.15516904,15.8125 L2.15516904,7.1875 C2.15516904,4.413125 4.41091263,2.15625 7.18389679,2.15625 L15.8045729,2.15625 C18.5775571,2.15625 20.8333007,4.413125 20.8333007,7.1875 L20.8333007,15.8125 Z" id="Shape"></path>
                    <path d="M11.4942349,5.75 C8.32038926,5.75 5.74711743,8.3245625 5.74711743,11.5 C5.74711743,14.6754375 8.32038926,17.25 11.4942349,17.25 C14.6680805,17.25 17.2413523,14.6754375 17.2413523,11.5 C17.2413523,8.3245625 14.6680805,5.75 11.4942349,5.75 Z M11.4942349,15.09375 C9.51435291,15.09375 7.90228647,13.480875 7.90228647,11.5 C7.90228647,9.5176875 9.51435291,7.90625 11.4942349,7.90625 C13.4741168,7.90625 15.0861833,9.5176875 15.0861833,11.5 C15.0861833,13.480875 13.4741168,15.09375 11.4942349,15.09375 Z" id="Shape"></path>
                    <ellipse id="Oval" cx="17.6005471" cy="5.390625" rx="1" ry="1"></ellipse>
                </g>
                <g id="google-plus" transform="translate(211.463634, 1.916667)">
                    <polygon id="Path" points="26.9010171 7.86509804 26.9010171 3.96862745 25.0258792 3.96862745 25.0258792 7.86509804 21.2756034 7.86509804 21.2756034 9.81333333 25.0258792 9.81333333 25.0258792 13.7098039 26.9010171 13.7098039 26.9010171 9.81333333 30.651293 9.81333333 30.651293 7.86509804"></polygon>
                    <path d="M9.73629306,7.79294118 L9.73629306,11.6894118 L15.2450877,11.6894118 C14.4408699,13.9571576 12.2755183,15.5858824 9.73629306,15.5858824 C6.51552732,15.5858824 3.89451723,12.9635576 3.89451723,9.74117647 C3.89451723,6.51879529 6.51552732,3.89647059 9.73629306,3.89647059 C11.1324775,3.89647059 12.4760859,4.39716706 13.5198165,5.30699294 L16.0785144,2.36905412 C14.3259816,0.841637647 12.0749507,0 9.73629306,0 C4.36770107,0 0,4.36989176 0,9.74117647 C0,15.1124612 4.36770107,19.4823529 9.73629306,19.4823529 C15.1048851,19.4823529 19.4725861,15.1124612 19.4725861,9.74117647 L19.4725861,7.79294118 L9.73629306,7.79294118 Z" id="Path"></path>
                </g>
                <g id="facebook" transform="translate(0.000000, 0.766667)">
                    <path d="M6.70497034,7.37916667 L6.70497034,4.69583333 C6.70497034,3.95523333 7.30573568,3.35416667 8.04596441,3.35416667 L9.38695847,3.35416667 L9.38695847,0 L6.70497034,0 C4.48294317,0 2.68198814,1.80185833 2.68198814,4.025 L2.68198814,7.37916667 L0,7.37916667 L0,10.7333333 L2.68198814,10.7333333 L2.68198814,21.4666667 L6.70497034,21.4666667 L6.70497034,10.7333333 L9.38695847,10.7333333 L10.7279525,7.37916667 L6.70497034,7.37916667 Z" id="Path"></path>
                </g>
                <g id="linkedin" transform="translate(267.394671, 0.383333)">
                    <rect id="Rectangle" x="0" y="6.9" width="4.98083511" height="15.7166667"></rect>
                    <path d="M18.783809,7.08431364 C18.7295422,7.06716818 18.6781317,7.04859394 18.6210088,7.03287727 C18.5524614,7.01716061 18.4839139,7.00430152 18.4139384,6.99287121 C18.1426048,6.93857727 17.8455659,6.9 17.4971164,6.9 C14.5181591,6.9 12.6288203,9.06747121 12.0061811,9.90474091 L12.0061811,6.9 L6.89654092,6.9 L6.89654092,22.6166667 L12.0061811,22.6166667 L12.0061811,14.0439394 C12.0061811,14.0439394 15.8676867,8.66312424 17.4971164,12.6151515 C17.4971164,16.1428288 17.4971164,22.6166667 17.4971164,22.6166667 L22.6053286,22.6166667 L22.6053286,12.0107742 C22.6053286,9.63612879 20.978755,7.65725758 18.783809,7.08431364 Z" id="Path"></path>
                    <ellipse id="Oval" cx="2.49041755" cy="2.49166667" rx="2.49041755" ry="2.49166667"></ellipse>
                </g>
            </g>
        </g>
    </g>
</svg>