<?xml version="1.0" encoding="UTF-8"?>
<svg xmlns="http://www.w3.org/2000/svg" xmlns:xlink="http://www.w3.org/1999/xlink" version="1.2" >
<font id="Biennale Heavy">
<font-face  font-family="Biennale" units-per-em="1000" ascent="1040" descent="-345" font-style="normal" font-weight="950" font-stretch="normal" cap-height="695" x-height="527" underline-position="-75" underline-thickness="50" />
<missing-glyph  horiz-adv-x="630" d="M100 730 L100 0 L530 0 L530 730 L100 730 Z M165 695 L465 695 L315 408 L165 695 Z M293 365 L140 73 L140 657 L293 365 Z M338 365 L490 657 L490 73 L338 365 Z M315 322 L465 35 L165 35 L315 322 Z " />
<glyph glyph-name="NULL" d="" />
<glyph glyph-name="CR" unicode="&#xd;" horiz-adv-x="250" d="" />
<glyph glyph-name="space" unicode="&#x20;" horiz-adv-x="169" d="" />
<glyph glyph-name="exclam" unicode="&#x21;" horiz-adv-x="297" d="M66 273 L228 273 L266 731 L32 731 L66 273 Z M149 -10 C210 -10 256 36 256 95 C256 158 210 204 149 204 C89 204 43 158 43 95 C43 36 89 -10 149 -10 L149 -10 Z " />
<glyph glyph-name="quotedbl" unicode="&#x22;" horiz-adv-x="453" d="M47 406 L193 406 L210 715 L32 715 L47 406 Z M261 406 L406 406 L421 715 L247 715 L261 406 Z " />
<glyph glyph-name="numbersign" unicode="&#x23;" horiz-adv-x="713" d="M689 409 L689 564 L622 564 L658 695 L490 695 L454 564 L376 564 L412 695 L247 695 L211 564 L96 564 L96 409 L169 409 L142 310 L26 310 L26 155 L99 155 L57 0 L223 0 L265 155 L342 155 L300 0 L469 0 L511 155 L620 155 L620 310 L553 310 L580 409 L689 409 Z M385 310 L307 310 L334 409 L412 409 L385 310 Z " />
<glyph glyph-name="dollar" unicode="&#x24;" horiz-adv-x="553" d="M525 201 C525 444 233 387 233 471 C233 490 245 503 273 503 C303 503 329 482 339 437 L515 505 C499 573 444 627 366 649 L366 747 L201 747 L201 652 C100 627 47 554 47 458 C47 227 335 286 335 198 C335 176 323 163 291 163 C246 163 211 192 197 245 L21 177 C47 88 114 30 202 10 L202 -83 L367 -83 L367 14 C468 41 525 111 525 201 L525 201 Z " />
<glyph glyph-name="percent" unicode="&#x25;" horiz-adv-x="800" d="M185 375 C281 375 351 449 351 540 C351 631 281 705 185 705 C90 705 19 631 19 540 C19 449 90 375 185 375 L185 375 Z M130 0 L284 1 L675 696 L518 695 L130 0 Z M185 501 C164 501 149 518 149 540 C149 562 163 579 185 579 C208 579 221 562 221 540 C221 518 207 501 185 501 L185 501 Z M615 -10 C711 -10 781 64 781 155 C781 246 711 320 615 320 C520 320 449 246 449 155 C449 64 520 -10 615 -10 L615 -10 Z M615 116 C594 116 579 133 579 155 C579 177 593 194 615 194 C638 194 651 177 651 155 C651 133 637 116 615 116 L615 116 Z " />
<glyph glyph-name="ampersand" unicode="&#x26;" horiz-adv-x="729" d="M739 0 L596 158 C645 214 668 265 677 336 L486 413 C483 371 475 337 461 308 L450 321 C342 441 323 450 323 476 C323 495 339 509 360 509 C395 509 408 484 407 462 L620 462 C613 613 507 705 363 705 C214 705 114 622 114 495 C114 458 121 422 148 378 C66 333 30 270 30 191 C30 72 137 -10 281 -10 C356 -10 415 10 468 50 L520 0 L739 0 Z M284 173 C261 173 240 188 240 214 C240 227 245 238 258 251 L327 185 C311 176 298 173 284 173 L284 173 Z " />
<glyph glyph-name="quotesingle" unicode="&#x27;" horiz-adv-x="241" d="M47 406 L193 406 L210 715 L32 715 L47 406 Z " />
<glyph glyph-name="parenleft" unicode="&#x28;" horiz-adv-x="371" d="M238 -141 L375 -11 C253 108 219 215 219 346 C219 477 253 582 375 702 L238 832 C89 706 24 539 24 346 C24 152 89 -15 238 -141 L238 -141 Z " />
<glyph glyph-name="parenright" unicode="&#x29;" horiz-adv-x="371" d="M133 -141 C282 -15 347 152 347 346 C347 539 282 706 133 832 L-4 702 C118 582 152 477 152 346 C152 215 118 108 -4 -11 L133 -141 Z " />
<glyph glyph-name="asterisk" unicode="&#x2a;" horiz-adv-x="428" d="M146 355 L282 355 L272 437 L336 384 L406 510 L328 543 L406 576 L336 701 L273 649 L283 731 L145 731 L155 649 L92 701 L22 576 L100 543 L22 510 L92 384 L156 437 L146 355 Z " />
<glyph glyph-name="plus" unicode="&#x2b;" horiz-adv-x="502" d="M476 428 L341 428 L341 586 L161 586 L161 428 L26 428 L26 256 L161 256 L161 109 L341 109 L341 256 L476 256 L476 428 Z " />
<glyph glyph-name="comma" unicode="&#x2c;" horiz-adv-x="256" d="M127 205 C69 205 21 160 21 99 C21 44 53 11 97 1 L25 -141 L135 -141 L203 -6 C223 33 233 65 233 96 C233 160 185 205 127 205 L127 205 Z " />
<glyph glyph-name="hyphen" unicode="&#x2d;" horiz-adv-x="397" d="M43 158 L354 158 L354 324 L43 324 L43 158 Z " />
<glyph glyph-name="period" unicode="&#x2e;" horiz-adv-x="255" d="M127 -10 C188 -10 234 36 234 95 C234 158 188 204 127 204 C67 204 21 158 21 95 C21 36 67 -10 127 -10 L127 -10 Z " />
<glyph glyph-name="slash" unicode="&#x2f;" horiz-adv-x="406" d="M18 -50 L196 -50 L386 711 L209 711 L18 -50 Z " />
<glyph glyph-name="zero" unicode="0" horiz-adv-x="716" d="M358 -14 C553 -14 684 125 684 350 C684 581 555 709 358 709 C161 709 32 581 32 350 C32 125 161 -14 358 -14 L358 -14 Z M358 181 C289 181 242 236 242 348 C242 459 289 514 358 514 C427 514 474 459 474 348 C474 236 427 181 358 181 L358 181 Z " />
<glyph glyph-name="one" unicode="1" horiz-adv-x="462" d="M356 170 L356 695 L151 695 L151 593 L44 593 L44 423 L151 423 L151 170 L42 170 L42 0 L430 0 L430 170 L356 170 Z " />
<glyph glyph-name="two" unicode="2" horiz-adv-x="616" d="M338 170 L422 243 C529 337 568 403 568 493 C568 626 465 709 301 709 C161 709 52 632 27 517 L221 454 C233 508 260 534 299 534 C336 534 358 515 358 482 C358 441 326 394 261 338 L29 136 L29 0 L579 0 L579 170 L338 170 Z " />
<glyph glyph-name="three" unicode="3" horiz-adv-x="611" d="M402 421 L530 535 L530 695 L49 695 L49 535 L291 535 L153 425 L153 292 L293 292 C338 292 368 266 368 227 C368 188 338 161 293 161 C245 161 212 184 197 228 L9 153 C41 50 152 -14 299 -14 C462 -14 582 82 582 212 C582 320 508 402 402 421 L402 421 Z " />
<glyph glyph-name="four" unicode="4" horiz-adv-x="633" d="M600 287 L536 287 L536 694 L333 694 L17 279 L17 127 L331 127 L331 0 L536 0 L536 127 L600 127 L600 287 Z M333 287 L224 287 L333 431 L333 287 Z " />
<glyph glyph-name="five" unicode="5" horiz-adv-x="596" d="M285 462 L267 462 L271 535 L514 535 L514 695 L97 695 L75 303 L278 303 C331 303 357 269 357 229 C357 190 330 160 282 160 C241 160 204 182 192 232 L4 157 C47 41 143 -14 280 -14 C463 -14 567 84 567 226 C567 372 458 462 285 462 L285 462 Z " />
<glyph glyph-name="six" unicode="6" horiz-adv-x="614" d="M367 471 L532 695 L294 695 L96 420 C70 384 28 324 28 235 C28 82 152 -14 311 -14 C470 -14 594 82 594 237 C594 371 501 454 367 471 L367 471 Z M311 161 C270 161 238 193 238 235 C238 279 270 309 311 309 C352 309 384 279 384 235 C384 193 352 161 311 161 L311 161 Z " />
<glyph glyph-name="seven" unicode="7" horiz-adv-x="539" d="M17 694 L17 523 L290 523 L78 0 L308 0 L519 540 L519 694 L17 694 Z " />
<glyph glyph-name="eight" unicode="8" horiz-adv-x="617" d="M462 362 C521 389 560 441 560 517 C560 625 476 709 309 709 C142 709 58 625 58 517 C58 442 96 391 150 363 C74 333 30 268 30 192 C30 66 147 -14 309 -14 C471 -14 588 66 588 192 C588 268 539 332 462 362 L462 362 Z M309 544 C342 544 365 524 365 489 C365 454 342 433 309 433 C276 433 253 454 253 489 C253 524 276 544 309 544 L309 544 Z M309 151 C264 151 235 178 235 218 C235 255 264 282 309 282 C354 282 383 255 383 218 C383 178 354 151 309 151 L309 151 Z " />
<glyph glyph-name="nine" unicode="9" horiz-adv-x="614" d="M303 709 C144 709 20 613 20 458 C20 324 113 241 247 224 L82 0 L320 0 L518 275 C544 311 586 371 586 460 C586 613 462 709 303 709 L303 709 Z M303 534 C344 534 376 502 376 460 C376 416 344 386 303 386 C262 386 230 416 230 460 C230 502 262 534 303 534 L303 534 Z " />
<glyph glyph-name="colon" unicode="&#x3a;" horiz-adv-x="278" d="M139 262 C200 262 246 308 246 368 C246 430 200 476 139 476 C79 476 33 430 33 368 C33 308 79 262 139 262 L139 262 Z M139 -10 C200 -10 246 36 246 95 C246 158 200 204 139 204 C79 204 33 158 33 95 C33 36 79 -10 139 -10 L139 -10 Z " />
<glyph glyph-name="semicolon" unicode="&#x3b;" horiz-adv-x="279" d="M139 265 C200 265 246 311 246 371 C246 433 200 479 139 479 C79 479 33 433 33 371 C33 311 79 265 139 265 L139 265 Z M139 205 C81 205 33 160 33 99 C33 44 65 11 109 1 L37 -141 L147 -141 L215 -6 C235 33 245 65 245 96 C245 160 197 205 139 205 L139 205 Z " />
<glyph glyph-name="less" unicode="&#x3c;" horiz-adv-x="453" d="M405 576 L20 390 L20 273 L405 85 L405 268 L247 331 L405 393 L405 576 Z " />
<glyph glyph-name="equal" unicode="&#x3d;" horiz-adv-x="520" d="M47 352 L473 352 L473 524 L47 524 L47 352 Z M47 122 L473 122 L473 294 L47 294 L47 122 Z " />
<glyph glyph-name="greater" unicode="&#x3e;" horiz-adv-x="453" d="M48 576 L48 393 L206 331 L48 268 L48 85 L433 273 L433 390 L48 576 Z " />
<glyph glyph-name="question" unicode="&#x3f;" horiz-adv-x="516" d="M146 273 L321 273 L321 289 C321 366 490 383 490 543 C490 667 401 741 261 741 C128 741 41 673 16 568 L209 505 C213 530 227 544 247 544 C265 544 276 535 276 518 C276 459 146 428 146 305 L146 273 Z M233 -10 C294 -10 340 36 340 97 C340 157 295 204 233 204 C173 204 127 158 127 95 C127 36 173 -10 233 -10 L233 -10 Z " />
<glyph glyph-name="at" unicode="&#x40;" horiz-adv-x="814" d="M410 589 C175 589 24 423 24 231 C24 32 163 -119 389 -119 C477 -119 547 -92 592 -58 L512 42 C490 22 442 8 389 8 C238 8 163 106 163 231 C163 349 250 463 410 463 C575 463 649 371 649 249 C649 204 638 181 618 181 C601 181 592 196 592 218 L592 382 L477 382 L477 357 C453 383 419 399 376 399 C273 399 214 321 214 225 C214 132 282 52 376 52 C437 52 475 76 497 113 C521 76 563 52 620 52 C712 52 788 146 788 249 C788 445 644 589 410 589 L410 589 Z M404 189 C377 189 364 208 364 226 C364 245 376 263 404 263 C427 263 442 246 442 226 C442 206 427 189 404 189 L404 189 Z " />
<glyph glyph-name="A" unicode="A" horiz-adv-x="679" d="M480 0 L683 0 L466 695 L213 695 L-4 0 L200 0 L230 103 L450 103 L480 0 Z M279 270 L340 476 L400 270 L279 270 Z " />
<glyph glyph-name="B" unicode="B" horiz-adv-x="639" d="M507 371 C560 407 592 463 592 526 C592 632 511 695 398 695 L48 695 L48 0 L382 0 C533 0 616 84 616 201 C616 275 577 337 507 371 L507 371 Z M386 483 C386 454 368 435 331 435 L252 435 L252 530 L331 530 C368 530 386 513 386 483 L386 483 Z M350 165 L252 165 L252 271 L349 271 C386 271 410 253 410 218 C410 183 388 165 350 165 L350 165 Z " />
<glyph glyph-name="C" unicode="C" horiz-adv-x="737" d="M391 -14 C578 -14 699 104 731 219 L533 299 C520 230 472 181 387 181 C296 181 235 246 235 347 C235 448 296 514 389 514 C473 514 520 465 533 396 L731 476 C701 586 584 709 394 709 C184 709 25 557 25 347 C25 138 184 -14 391 -14 L391 -14 Z " />
<glyph glyph-name="D" unicode="D" horiz-adv-x="729" d="M336 695 L48 695 L48 0 L336 0 C555 0 703 134 703 348 C703 562 555 695 336 695 L336 695 Z M329 183 L255 183 L255 512 L329 512 C430 512 493 459 493 345 C493 236 430 183 329 183 L329 183 Z " />
<glyph glyph-name="E" unicode="E" horiz-adv-x="583" d="M255 179 L255 259 L504 259 L504 438 L255 438 L255 516 L544 516 L544 695 L48 695 L48 0 L549 0 L549 179 L255 179 Z " />
<glyph glyph-name="F" unicode="F" horiz-adv-x="561" d="M538 516 L538 695 L48 695 L48 0 L255 0 L255 249 L498 249 L498 428 L255 428 L255 516 L538 516 Z " />
<glyph glyph-name="G" unicode="G" horiz-adv-x="779" d="M759 385 L392 385 L392 230 L546 230 C520 187 477 171 417 171 C295 171 235 238 235 343 C235 446 293 514 393 514 C468 514 518 474 535 418 L732 499 C694 601 576 709 397 709 C184 709 25 555 25 347 C25 141 182 -14 398 -14 C600 -14 759 121 759 385 L759 385 Z " />
<glyph glyph-name="H" unicode="H" horiz-adv-x="695" d="M440 695 L440 441 L255 441 L255 695 L48 695 L48 0 L255 0 L255 257 L440 257 L440 0 L647 0 L647 695 L440 695 Z " />
<glyph glyph-name="I" unicode="I" horiz-adv-x="303" d="M48 0 L255 0 L255 695 L48 695 L48 0 Z " />
<glyph glyph-name="J" unicode="J" horiz-adv-x="363" d="M25 0 L77 0 C241 0 320 94 320 235 L320 695 L113 695 L113 238 C113 205 97 184 59 184 L25 184 L25 0 Z " />
<glyph glyph-name="K" unicode="K" horiz-adv-x="676" d="M690 695 L455 695 L255 397 L255 695 L48 695 L48 0 L255 0 L255 304 L448 0 L681 0 L450 350 L690 695 Z " />
<glyph glyph-name="L" unicode="L" horiz-adv-x="556" d="M255 184 L255 695 L48 695 L48 0 L544 0 L544 184 L255 184 Z " />
<glyph glyph-name="M" unicode="M" horiz-adv-x="876" d="M849 0 L794 695 L553 695 L438 295 L324 695 L82 695 L28 0 L219 0 L249 379 L353 19 L524 19 L628 378 L657 0 L849 0 Z " />
<glyph glyph-name="N" unicode="N" horiz-adv-x="696" d="M442 695 L442 354 L219 695 L48 695 L48 0 L254 0 L254 337 L477 0 L648 0 L648 695 L442 695 Z " />
<glyph glyph-name="O" unicode="O" horiz-adv-x="795" d="M398 -14 C606 -14 771 146 771 347 C771 550 606 709 398 709 C190 709 24 550 24 347 C24 146 190 -14 398 -14 L398 -14 Z M398 181 C297 181 234 251 234 348 C234 443 294 514 398 514 C502 514 561 443 561 348 C561 251 499 181 398 181 L398 181 Z " />
<glyph glyph-name="P" unicode="P" horiz-adv-x="627" d="M356 695 L48 695 L48 0 L255 0 L255 227 L356 227 C512 227 614 320 614 461 C614 603 514 695 356 695 L356 695 Z M344 407 L255 407 L255 515 L344 515 C386 515 404 491 404 461 C404 431 386 407 344 407 L344 407 Z " />
<glyph glyph-name="Q" unicode="Q" horiz-adv-x="795" d="M771 347 C771 550 606 709 398 709 C190 709 24 550 24 347 C24 146 190 -14 398 -14 C408 -14 418 -14 428 -13 L620 -191 L762 -43 L638 70 C720 136 771 235 771 347 L771 347 Z M234 348 C234 443 294 514 398 514 C502 514 561 443 561 348 C561 251 499 181 398 181 C297 181 234 251 234 348 L234 348 Z " />
<glyph glyph-name="R" unicode="R" horiz-adv-x="646" d="M633 0 L458 276 C555 307 614 384 614 478 C614 603 514 695 356 695 L48 695 L48 0 L253 0 L253 255 L405 0 L633 0 Z M412 460 C412 425 389 405 350 405 L253 405 L253 515 L350 515 C389 515 412 495 412 460 L412 460 Z " />
<glyph glyph-name="S" unicode="S" horiz-adv-x="618" d="M303 -14 C485 -14 592 77 592 204 C592 471 251 408 251 500 C251 520 267 534 304 534 C343 534 374 511 386 462 L581 537 C556 636 454 709 314 709 C139 709 45 616 45 485 C45 231 383 296 383 200 C383 176 365 163 324 163 C269 163 226 194 210 252 L15 177 C53 54 162 -14 303 -14 L303 -14 Z " />
<glyph glyph-name="T" unicode="T" horiz-adv-x="617" d="M605 695 L12 695 L12 511 L205 511 L205 0 L412 0 L412 511 L605 511 L605 695 Z " />
<glyph glyph-name="U" unicode="U" horiz-adv-x="678" d="M431 695 L431 281 C431 219 401 181 340 181 C279 181 249 219 249 281 L249 695 L41 695 L41 281 C41 120 141 -14 340 -14 C539 -14 637 120 637 281 L637 695 L431 695 Z " />
<glyph glyph-name="V" unicode="V" horiz-adv-x="690" d="M481 695 L345 247 L209 695 L-6 695 L218 0 L473 0 L696 695 L481 695 Z " />
<glyph glyph-name="W" unicode="W" horiz-adv-x="952" d="M751 695 L676 243 L589 695 L364 695 L277 247 L202 695 L-2 695 L151 0 L396 0 L477 398 L556 0 L802 0 L955 695 L751 695 Z " />
<glyph glyph-name="X" unicode="X" horiz-adv-x="707" d="M717 0 L478 351 L707 696 L470 696 L363 520 L243 696 L6 696 L233 363 L-13 0 L223 0 L346 196 L480 0 L717 0 Z " />
<glyph glyph-name="Y" unicode="Y" horiz-adv-x="683" d="M694 695 L463 695 L342 469 L220 695 L-11 695 L239 281 L239 0 L445 0 L445 283 L694 695 Z " />
<glyph glyph-name="Z" unicode="Z" horiz-adv-x="613" d="M578 185 L297 185 L579 556 L579 695 L36 695 L36 515 L307 515 L31 140 L31 0 L583 0 L578 185 Z " />
<glyph glyph-name="bracketleft" unicode="&#x5b;" horiz-adv-x="353" d="M323 663 L323 831 L47 831 L47 -140 L323 -140 L323 28 L239 28 L239 663 L323 663 Z " />
<glyph glyph-name="backslash" unicode="&#x5c;" horiz-adv-x="409" d="M215 -50 L393 -50 L195 711 L18 711 L215 -50 Z " />
<glyph glyph-name="bracketright" unicode="&#x5d;" horiz-adv-x="353" d="M30 831 L30 663 L114 663 L114 28 L30 28 L30 -140 L306 -140 L306 831 L30 831 Z " />
<glyph glyph-name="asciicircum" unicode="&#x5e;" horiz-adv-x="594" d="M576 339 L355 695 L235 695 L18 339 L217 339 L298 478 L377 339 L576 339 Z " />
<glyph glyph-name="underscore" unicode="&#x5f;" horiz-adv-x="619" d="M27 -185 L592 -185 L592 -19 L27 -19 L27 -185 Z " />
<glyph glyph-name="grave" unicode="&#x60;" horiz-adv-x="374" d="M306 551 L388 682 L122 858 L30 708 L306 551 Z " />
<glyph glyph-name="a" unicode="a" horiz-adv-x="641" d="M414 527 L414 488 C381 513 338 527 284 527 C130 527 20 421 20 263 C20 105 130 -14 284 -14 C338 -14 381 1 414 29 L414 0 L604 0 L604 527 L414 527 Z M315 167 C262 167 225 207 225 263 C225 319 262 359 315 359 C371 359 407 320 407 263 C407 206 371 167 315 167 L315 167 Z " />
<glyph glyph-name="b" unicode="b" horiz-adv-x="641" d="M362 540 C316 540 276 529 243 508 L243 731 L37 731 L37 0 L227 0 L227 27 C261 1 305 -14 357 -14 C511 -14 621 105 621 263 C621 421 516 540 362 540 L362 540 Z M326 167 C270 167 234 206 234 263 C234 320 270 359 326 359 C379 359 416 319 416 263 C416 207 379 167 326 167 L326 167 Z " />
<glyph glyph-name="c" unicode="c" horiz-adv-x="577" d="M304 -14 C465 -14 555 96 574 164 L391 237 C382 201 353 169 308 169 C264 169 226 202 226 263 C226 324 264 357 309 357 C353 357 379 325 388 287 L571 360 C552 431 463 540 304 540 C140 540 19 416 19 262 C19 106 143 -14 304 -14 L304 -14 Z " />
<glyph glyph-name="d" unicode="d" horiz-adv-x="641" d="M398 731 L398 508 C365 529 325 540 279 540 C125 540 20 421 20 263 C20 105 130 -14 284 -14 C336 -14 380 1 414 27 L414 0 L604 0 L604 731 L398 731 Z M315 167 C262 167 225 207 225 263 C225 319 262 359 315 359 C371 359 407 320 407 263 C407 206 371 167 315 167 L315 167 Z " />
<glyph glyph-name="e" unicode="e" horiz-adv-x="595" d="M220 205 L573 205 C575 221 577 242 577 274 C577 399 476 540 297 540 C143 540 19 415 19 263 C19 106 130 -14 309 -14 C443 -14 505 39 548 85 L400 186 C380 163 361 149 315 149 C269 149 236 167 220 205 L220 205 Z M214 323 C225 369 253 391 302 391 C349 391 378 365 390 323 L214 323 Z " />
<glyph glyph-name="f" unicode="f" horiz-adv-x="399" d="M353 584 L383 584 L383 744 L344 744 C180 744 95 659 88 527 L20 527 L20 352 L87 352 L87 0 L293 0 L293 352 L383 352 L383 527 L293 527 L293 529 C293 562 312 584 353 584 L353 584 Z " />
<glyph glyph-name="g" unicode="g" horiz-adv-x="639" d="M413 527 L413 498 C380 525 337 540 283 540 C129 540 19 421 19 283 C19 145 129 31 283 31 C337 31 380 46 413 73 L413 70 C413 16 372 -22 300 -22 C255 -22 215 -9 196 24 L22 -43 C58 -128 140 -193 299 -193 C494 -193 603 -75 603 90 L603 527 L413 527 Z M311 187 C261 187 224 226 224 273 C224 320 261 359 311 359 C364 359 400 321 400 273 C400 225 364 187 311 187 L311 187 Z " />
<glyph glyph-name="h" unicode="h" horiz-adv-x="602" d="M369 541 C319 541 277 528 243 506 L243 731 L37 731 L37 0 L243 0 L243 300 C243 337 273 358 303 358 C333 358 363 337 363 300 L363 0 L569 0 L569 341 C569 457 488 541 369 541 L369 541 Z " />
<glyph glyph-name="i" unicode="i" horiz-adv-x="280" d="M141 586 C210 586 264 635 264 705 C264 775 210 826 141 826 C72 826 18 775 18 705 C18 635 72 586 141 586 L141 586 Z M37 0 L243 0 L243 527 L37 527 L37 0 Z " />
<glyph glyph-name="j" unicode="j" horiz-adv-x="284" d="M149 587 C218 587 272 636 272 706 C272 776 218 827 149 827 C80 827 26 776 26 706 C26 636 80 587 149 587 L149 587 Z M-31 -187 L6 -187 C141 -187 247 -98 247 61 L247 527 L41 527 L41 58 C41 13 15 -12 -22 -12 L-32 -12 L-31 -187 Z " />
<glyph glyph-name="k" unicode="k" horiz-adv-x="575" d="M589 527 L362 527 L243 342 L243 731 L37 731 L37 0 L243 0 L243 213 L367 0 L587 0 L419 287 L589 527 Z " />
<glyph glyph-name="l" unicode="l" horiz-adv-x="280" d="M37 0 L243 0 L243 731 L37 731 L37 0 Z " />
<glyph glyph-name="m" unicode="m" horiz-adv-x="893" d="M664 541 C590 541 538 520 506 487 C478 522 432 541 364 541 C308 541 263 524 231 497 L231 527 L37 527 L37 1 L243 1 L243 298 C243 326 253 358 296 358 C334 358 346 322 346 291 L346 1 L552 1 L552 298 C552 325 561 358 605 358 C643 358 654 322 654 291 L654 1 L860 1 L860 331 C860 442 797 541 664 541 L664 541 Z " />
<glyph glyph-name="n" unicode="n" horiz-adv-x="602" d="M369 541 C313 541 266 524 231 498 L231 527 L37 527 L37 0 L243 0 L243 300 C243 337 273 358 303 358 C333 358 363 337 363 300 L363 0 L569 0 L569 341 C569 457 488 541 369 541 L369 541 Z " />
<glyph glyph-name="o" unicode="o" horiz-adv-x="628" d="M313 -14 C486 -14 609 106 609 263 C609 421 486 540 313 540 C141 540 19 421 19 263 C19 106 141 -14 313 -14 L313 -14 Z M315 169 C260 169 226 208 226 263 C226 319 260 357 315 357 C369 357 402 319 402 264 C402 207 367 169 315 169 L315 169 Z " />
<glyph glyph-name="p" unicode="p" horiz-adv-x="641" d="M362 540 C308 540 263 525 227 497 L227 527 L37 527 L37 -179 L243 -179 L243 16 C275 -4 313 -14 357 -14 C511 -14 621 105 621 263 C621 421 516 540 362 540 L362 540 Z M326 167 C270 167 234 206 234 263 C234 320 270 359 326 359 C379 359 416 319 416 263 C416 207 379 167 326 167 L326 167 Z " />
<glyph glyph-name="q" unicode="q" horiz-adv-x="641" d="M414 527 L414 497 C378 525 333 540 279 540 C125 540 20 421 20 263 C20 105 130 -14 284 -14 C328 -14 366 -4 398 16 L398 -179 L604 -179 L604 527 L414 527 Z M315 167 C262 167 225 207 225 263 C225 319 262 359 315 359 C371 359 407 320 407 263 C407 206 371 167 315 167 L315 167 Z " />
<glyph glyph-name="r" unicode="r" horiz-adv-x="381" d="M231 494 L231 527 L37 527 L37 0 L243 0 L243 265 C243 330 282 348 366 348 L366 541 C313 541 266 523 231 494 L231 494 Z " />
<glyph glyph-name="s" unicode="s" horiz-adv-x="511" d="M255 -14 C400 -14 491 56 491 169 C491 363 230 322 230 376 C230 388 239 395 260 395 C287 395 305 381 314 354 L480 418 C459 494 377 540 263 540 C123 540 35 474 35 367 C35 186 296 218 296 156 C296 144 286 136 262 136 C217 136 189 158 177 197 L11 133 C43 37 131 -14 255 -14 L255 -14 Z " />
<glyph glyph-name="t" unicode="t" horiz-adv-x="435" d="M315 0 L410 0 L410 179 L359 179 C321 179 300 199 300 241 L300 352 L410 352 L410 527 L307 527 L307 669 L106 669 L106 591 C106 549 85 527 46 527 L10 527 L10 352 L94 352 L94 216 C94 87 167 0 315 0 L315 0 Z " />
<glyph glyph-name="u" unicode="u" horiz-adv-x="595" d="M352 527 L352 226 C351 187 330 169 296 169 C260 169 239 194 239 224 L239 527 L33 527 L33 196 C33 80 98 -14 232 -14 C283 -14 329 3 365 31 L365 0 L558 0 L558 527 L352 527 Z " />
<glyph glyph-name="v" unicode="v" horiz-adv-x="582" d="M374 527 L291 213 L208 527 L-4 527 L170 0 L412 0 L586 527 L374 527 Z " />
<glyph glyph-name="w" unicode="w" horiz-adv-x="848" d="M640 527 L589 225 L539 527 L310 527 L261 223 L209 527 L0 527 L131 0 L375 0 L425 273 L477 0 L720 0 L849 527 L640 527 Z " />
<glyph glyph-name="x" unicode="x" horiz-adv-x="594" d="M607 0 L415 263 L606 527 L388 527 L306 413 L223 527 L-3 527 L182 273 L-19 0 L199 0 L291 124 L381 0 L607 0 Z " />
<glyph glyph-name="y" unicode="y" horiz-adv-x="585" d="M377 527 L283 168 L211 527 L-1 527 L148 0 L221 0 L154 -179 L356 -179 L589 527 L377 527 Z " />
<glyph glyph-name="z" unicode="z" horiz-adv-x="519" d="M288 165 L483 377 L483 527 L36 527 L36 362 L229 362 L28 143 L28 0 L491 0 L491 165 L288 165 Z " />
<glyph glyph-name="braceleft" unicode="&#x7b;" horiz-adv-x="384" d="M298 -140 L353 -140 L353 28 L327 28 C294 28 277 45 277 78 L277 225 C277 274 272 311 213 345 C272 379 277 416 277 465 L277 612 C277 645 294 662 327 662 L353 662 L353 830 L298 830 C154 830 85 743 85 614 L85 461 C85 439 74 432 52 432 L21 432 L21 258 L52 258 C74 258 85 251 85 229 L85 76 C85 -53 154 -140 298 -140 L298 -140 Z " />
<glyph glyph-name="bar" unicode="&#x7c;" horiz-adv-x="244" d="M47 -100 L197 -100 L197 724 L47 724 L47 -100 Z " />
<glyph glyph-name="braceright" unicode="&#x7d;" horiz-adv-x="384" d="M31 -140 L86 -140 C230 -140 299 -53 299 76 L299 229 C299 251 310 258 332 258 L363 258 L363 432 L332 432 C310 432 299 439 299 461 L299 614 C299 743 230 830 86 830 L31 830 L31 662 L57 662 C90 662 107 645 107 612 L107 465 C107 416 112 379 171 345 C112 311 107 274 107 225 L107 78 C107 45 90 28 57 28 L31 28 L31 -140 Z " />
<glyph glyph-name="asciitilde" unicode="&#x7e;" horiz-adv-x="523" d="M358 237 C414 237 467 268 504 329 L409 440 C390 411 361 402 331 402 C270 402 250 452 166 452 C110 452 57 421 20 360 L115 249 C134 278 163 287 193 287 C254 287 274 237 358 237 L358 237 Z " />
<glyph glyph-name="uni00A0" unicode="&#xa0;" horiz-adv-x="169" d="" />
<glyph glyph-name="exclamdown" unicode="&#xa1;" horiz-adv-x="291" d="M145 317 C206 317 252 363 252 425 C252 485 206 531 145 531 C85 531 39 485 39 425 C39 363 85 317 145 317 L145 317 Z M29 -179 L263 -179 L225 247 L63 247 L29 -179 Z " />
<glyph glyph-name="cent" unicode="&#xa2;" horiz-adv-x="539" d="M518 246 L341 316 C336 290 315 267 279 267 C249 267 222 287 222 330 C222 375 249 395 280 395 C316 395 333 372 339 343 L516 413 C503 460 452 534 358 563 L358 661 L193 661 L193 562 C92 530 27 437 27 329 C27 221 94 131 193 99 L193 0 L358 0 L358 98 C453 127 506 202 518 246 L518 246 Z " />
<glyph glyph-name="sterling" unicode="&#xa3;" horiz-adv-x="603" d="M304 236 L457 236 L457 415 L304 415 L304 444 C304 472 315 499 353 499 C390 499 400 478 406 453 L582 521 C561 611 485 677 342 677 C199 677 97 575 97 444 L97 415 L32 415 L32 236 L97 236 L97 0 L558 0 L558 179 L304 179 L304 236 Z " />
<glyph glyph-name="currency" unicode="&#xa4;" horiz-adv-x="578" d="M524 331 C524 365 516 398 502 427 L549 474 L432 591 L379 539 C352 549 322 555 289 555 C256 555 225 549 197 539 L146 591 L29 474 L75 428 C61 398 53 365 53 331 C53 297 61 264 75 235 L29 189 L146 72 L198 124 C226 114 256 108 289 108 C322 108 352 114 380 124 L431 72 L549 188 L502 235 C516 265 524 297 524 331 L524 331 Z M289 273 C254 273 231 296 231 331 C231 366 252 390 289 390 C325 390 346 366 346 331 C346 296 324 273 289 273 L289 273 Z " />
<glyph glyph-name="yen" unicode="&#xa5;" horiz-adv-x="647" d="M630 660 L410 660 L324 473 L237 660 L17 660 L204 318 L111 318 L111 187 L221 187 L221 183 L111 183 L111 53 L221 53 L221 0 L426 0 L426 53 L536 53 L536 183 L426 183 L426 187 L536 187 L536 318 L443 318 L630 660 Z " />
<glyph glyph-name="brokenbar" unicode="&#xa6;" horiz-adv-x="244" d="M47 391 L197 391 L197 724 L47 724 L47 391 Z M47 -100 L197 -100 L197 233 L47 233 L47 -100 Z " />
<glyph glyph-name="section" unicode="&#xa7;" horiz-adv-x="549" d="M458 151 C498 184 522 231 522 289 C522 493 246 447 246 527 C246 543 257 555 279 555 C303 555 321 541 330 514 L496 578 C475 654 393 700 279 700 C139 700 51 634 51 517 C51 463 71 427 100 401 C57 369 31 324 31 267 C31 66 312 98 312 19 C312 -1 295 -14 269 -14 C233 -14 205 8 193 47 L27 -17 C59 -113 147 -155 271 -155 C416 -155 507 -84 507 39 C507 91 487 126 458 151 L458 151 Z M226 284 C226 301 235 321 268 324 C303 312 327 298 327 272 C327 249 310 234 289 229 C252 242 226 257 226 284 L226 284 Z " />
<glyph glyph-name="dieresis" unicode="&#xa8;" horiz-adv-x="519" d="M146 590 C213 590 265 637 265 704 C265 773 215 822 150 822 C83 822 30 777 30 708 C30 637 83 590 146 590 L146 590 Z M418 590 C485 590 537 637 537 704 C537 773 486 822 421 822 C354 822 301 777 301 708 C301 637 354 590 418 590 L418 590 Z " />
<glyph glyph-name="copyright" unicode="&#xa9;" horiz-adv-x="761" d="M381 -15 C595 -15 734 128 734 329 C734 525 595 676 381 676 C167 676 27 525 27 329 C27 128 167 -15 381 -15 L381 -15 Z M381 111 C248 111 157 199 157 329 C157 453 248 550 381 550 C512 550 604 453 604 329 C604 199 512 111 381 111 L381 111 Z M382 148 C488 148 548 221 560 266 L421 316 C417 302 405 289 385 289 C365 289 349 304 349 331 C349 358 365 373 385 373 C405 373 417 360 420 346 L558 395 C546 442 487 514 382 514 C274 514 194 432 194 331 C194 228 276 148 382 148 L382 148 Z " />
<glyph glyph-name="ordfeminine" unicode="&#xaa;" horiz-adv-x="398" d="M259 825 L259 799 C237 820 206 833 163 833 C81 833 14 771 14 674 C14 580 81 514 163 514 C205 514 237 529 259 552 L259 524 L363 524 L363 825 L259 825 Z M189 643 C165 643 154 659 154 675 C154 692 164 706 189 706 C213 706 225 691 225 675 C225 658 213 643 189 643 L189 643 Z " />
<glyph glyph-name="guillemotleft" unicode="&#xab;" horiz-adv-x="575" d="M135 63 L324 63 L204 238 L324 413 L135 413 L15 238 L135 63 Z M356 63 L545 63 L425 238 L545 413 L356 413 L236 238 L356 63 Z " />
<glyph glyph-name="logicalnot" unicode="&#xac;" horiz-adv-x="507" d="M35 416 L35 244 L268 244 L268 119 L459 119 L459 416 L35 416 Z " />
<glyph glyph-name="registered" unicode="&#xae;" horiz-adv-x="534" d="M269 723 C132 723 31 620 31 486 C31 353 132 252 269 252 C398 252 503 352 503 486 C503 620 400 723 269 723 L269 723 Z M269 329 C178 329 110 392 110 486 C110 580 178 644 269 644 C357 644 424 577 424 486 C424 392 357 329 269 329 L269 329 Z M358 527 C358 571 323 597 282 597 L185 597 L185 382 L257 382 L257 457 L263 457 L295 382 L371 382 L331 472 C347 484 358 503 358 527 L358 527 Z M286 527 C286 518 281 512 268 512 L257 512 L257 542 L268 542 C281 542 286 536 286 527 L286 527 Z " />
<glyph glyph-name="macron" unicode="&#xaf;" horiz-adv-x="391" d="M30 626 L401 626 L401 788 L30 788 L30 626 Z " />
<glyph glyph-name="degree" unicode="&#xb0;" horiz-adv-x="415" d="M207 333 C319 333 397 408 397 517 C397 622 318 699 208 699 C98 699 17 622 17 516 C17 410 96 333 207 333 L207 333 Z M207 452 C171 452 145 478 145 516 C145 551 173 580 207 580 C242 580 269 552 269 516 C269 477 244 452 207 452 L207 452 Z " />
<glyph glyph-name="plusminus" unicode="&#xb1;" horiz-adv-x="514" d="M347 531 L347 664 L167 664 L167 531 L42 531 L42 359 L167 359 L167 238 L347 238 L347 359 L472 359 L472 531 L347 531 Z M42 14 L472 14 L472 186 L42 186 L42 14 Z " />
<glyph glyph-name="uni00B2" unicode="&#xb2;" horiz-adv-x="352" d="M227 452 L239 462 C300 514 313 544 313 589 C313 659 263 702 174 702 C94 702 36 661 26 601 L146 562 C149 584 157 594 169 594 C178 594 183 588 183 579 C183 565 175 551 139 520 L34 431 L34 347 L318 347 L318 452 L227 452 Z " />
<glyph glyph-name="uni00B3" unicode="&#xb3;" horiz-adv-x="325" d="M231 557 L278 596 L278 695 L36 695 L36 596 L133 596 L84 563 L84 481 L154 481 C169 481 175 474 175 465 C175 456 168 448 156 448 C143 448 136 453 131 466 L15 419 C30 371 84 339 159 339 C242 339 305 389 305 455 C305 504 275 543 231 557 L231 557 Z " />
<glyph glyph-name="acute" unicode="&#xb4;" horiz-adv-x="399" d="M112 551 L388 708 L296 858 L30 682 L112 551 Z " />
<glyph glyph-name="paragraph" unicode="&#xb6;" horiz-adv-x="678" d="M620 695 L277 695 C119 695 19 603 19 461 C19 320 121 227 277 227 L342 227 L342 525 L377 525 L377 -100 L481 -100 L481 525 L516 525 L516 -100 L620 -100 L620 695 Z " />
<glyph glyph-name="periodcentered" unicode="&#xb7;" horiz-adv-x="259" d="M129 239 C190 239 236 285 236 345 C236 407 190 453 129 453 C69 453 23 407 23 345 C23 285 69 239 129 239 L129 239 Z " />
<glyph glyph-name="cedilla" unicode="&#xb8;" horiz-adv-x="293" d="M166 -243 C251 -243 312 -199 312 -129 C312 -79 281 -41 245 -34 L263 22 L143 22 L111 -77 L120 -84 L135 -84 C157 -84 167 -96 167 -110 C167 -124 156 -134 137 -134 C118 -134 105 -126 95 -113 L30 -195 C56 -223 108 -243 166 -243 L166 -243 Z " />
<glyph glyph-name="uni00B9" unicode="&#xb9;" horiz-adv-x="306" d="M238 460 L238 695 L102 695 L102 641 L38 641 L38 528 L102 528 L102 460 L37 460 L37 347 L280 347 L280 460 L238 460 Z " />
<glyph glyph-name="ordmasculine" unicode="&#xba;" horiz-adv-x="367" d="M182 513 C284 513 354 584 354 675 C354 767 284 837 182 837 C83 837 13 767 13 675 C13 583 83 513 182 513 L182 513 Z M183 642 C159 642 151 655 151 675 C151 696 159 709 183 709 C207 709 215 696 215 675 C215 655 207 642 183 642 L183 642 Z " />
<glyph glyph-name="guillemotright" unicode="&#xbb;" horiz-adv-x="575" d="M30 63 L219 63 L339 238 L219 413 L30 413 L150 238 L30 63 Z M251 63 L440 63 L560 238 L440 413 L251 413 L371 238 L251 63 Z " />
<glyph glyph-name="onequarter" unicode="&#xbc;" horiz-adv-x="718" d="M270 347 L270 460 L228 460 L228 695 L92 695 L92 641 L28 641 L28 528 L92 528 L92 460 L27 460 L27 347 L270 347 Z M457 695 L145 0 L290 0 L604 695 L457 695 Z M696 144 L671 144 L671 348 L545 348 L404 150 L404 55 L544 55 L544 0 L671 0 L671 55 L696 55 L696 144 Z M545 144 L499 144 L545 209 L545 144 Z " />
<glyph glyph-name="onehalf" unicode="&#xbd;" horiz-adv-x="756" d="M270 347 L270 460 L228 460 L228 695 L92 695 L92 641 L28 641 L28 528 L92 528 L92 460 L27 460 L27 347 L270 347 Z M457 695 L145 0 L290 0 L604 695 L457 695 Z M643 105 L655 115 C716 167 729 197 729 242 C729 312 679 355 590 355 C510 355 452 314 442 254 L562 215 C565 237 573 247 585 247 C594 247 599 241 599 232 C599 218 591 204 555 173 L450 84 L450 0 L734 0 L734 105 L643 105 Z " />
<glyph glyph-name="threequarters" unicode="&#xbe;" horiz-adv-x="747" d="M308 455 C308 504 278 543 234 557 L281 596 L281 695 L39 695 L39 596 L136 596 L87 563 L87 481 L157 481 C172 481 178 474 178 465 C178 456 171 448 159 448 C146 448 139 453 134 466 L18 419 C33 371 87 339 162 339 C245 339 308 389 308 455 L308 455 Z M481 695 L169 0 L314 0 L628 695 L481 695 Z M720 144 L695 144 L695 348 L569 348 L428 150 L428 55 L568 55 L568 0 L695 0 L695 55 L720 55 L720 144 Z M569 144 L523 144 L569 209 L569 144 Z " />
<glyph glyph-name="questiondown" unicode="&#xbf;" horiz-adv-x="513" d="M281 316 C341 316 387 362 387 425 C387 484 341 530 281 530 C220 530 174 484 174 423 C174 363 219 316 281 316 L281 316 Z M253 -189 C386 -189 473 -121 498 -16 L305 47 C301 22 287 8 267 8 C249 8 238 17 238 36 C238 95 368 112 368 225 L368 247 L193 247 L193 241 C193 174 24 162 24 -6 C24 -120 112 -189 253 -189 L253 -189 Z " />
<glyph glyph-name="Agrave" unicode="&#xc0;" horiz-adv-x="679" d="M531 882 L199 990 L149 822 L486 734 L531 882 Z M480 0 L683 0 L466 695 L213 695 L-4 0 L200 0 L230 103 L450 103 L480 0 Z M279 270 L340 476 L400 270 L279 270 Z " />
<glyph glyph-name="Aacute" unicode="&#xc1;" horiz-adv-x="679" d="M541 822 L491 990 L159 882 L204 734 L541 822 Z M480 0 L683 0 L466 695 L213 695 L-4 0 L200 0 L230 103 L450 103 L480 0 Z M279 270 L340 476 L400 270 L279 270 Z " />
<glyph glyph-name="Acircumflex" unicode="&#xc2;" horiz-adv-x="679" d="M340 828 L400 752 L580 752 L426 968 L259 968 L99 752 L280 752 L340 828 Z M480 0 L683 0 L466 695 L213 695 L-4 0 L200 0 L230 103 L450 103 L480 0 Z M279 270 L340 476 L400 270 L279 270 Z " />
<glyph glyph-name="Atilde" unicode="&#xc3;" horiz-adv-x="679" d="M293 791 C337 791 360 745 431 745 C522 745 573 818 593 892 L454 951 C446 924 431 913 411 913 C370 913 343 959 272 959 C178 959 126 880 109 812 L248 753 C255 780 271 791 293 791 L293 791 Z M480 0 L683 0 L466 695 L213 695 L-4 0 L200 0 L230 103 L450 103 L480 0 Z M279 270 L340 476 L400 270 L279 270 Z " />
<glyph glyph-name="Adieresis" unicode="&#xc4;" horiz-adv-x="679" d="M197 739 C267 739 321 788 321 858 C321 930 269 981 201 981 C131 981 76 934 76 862 C76 788 131 739 197 739 L197 739 Z M479 739 C549 739 603 788 603 858 C603 930 550 981 482 981 C412 981 357 934 357 862 C357 788 412 739 479 739 L479 739 Z M480 0 L683 0 L466 695 L213 695 L-4 0 L200 0 L230 103 L450 103 L480 0 Z M279 270 L340 476 L400 270 L279 270 Z " />
<glyph glyph-name="Aring" unicode="&#xc5;" horiz-adv-x="679" d="M480 0 L683 0 L466 695 L430 695 C472 721 498 766 498 823 C498 910 434 973 340 973 C247 973 181 910 181 823 C181 766 207 721 251 695 L213 695 L-4 0 L200 0 L230 103 L450 103 L480 0 Z M340 862 C364 862 381 846 381 823 C381 799 364 783 340 783 C315 783 298 799 298 823 C298 846 315 862 340 862 L340 862 Z M279 270 L340 476 L400 270 L279 270 Z " />
<glyph glyph-name="AE" unicode="&#xc6;" horiz-adv-x="970" d="M642 179 L642 259 L891 259 L891 438 L642 438 L642 516 L931 516 L931 695 L265 695 L-19 0 L196 0 L233 95 L435 95 L435 0 L936 0 L936 179 L642 179 Z M302 270 L399 516 L435 516 L435 270 L302 270 Z " />
<glyph glyph-name="Ccedilla" unicode="&#xc7;" horiz-adv-x="737" d="M387 181 C296 181 235 246 235 347 C235 448 296 514 389 514 C473 514 520 465 533 396 L731 476 C701 586 584 709 394 709 C184 709 25 557 25 347 C25 156 157 13 337 -11 L316 -77 L325 -84 L340 -84 C362 -84 372 -96 372 -110 C372 -124 361 -134 342 -134 C323 -134 310 -126 300 -113 L235 -195 C261 -223 313 -243 371 -243 C456 -243 517 -199 517 -129 C517 -79 486 -41 450 -34 L458 -9 C607 16 703 118 731 219 L533 299 C520 230 472 181 387 181 L387 181 Z " />
<glyph glyph-name="Egrave" unicode="&#xc8;" horiz-adv-x="583" d="M487 882 L155 990 L105 822 L442 734 L487 882 Z M255 179 L255 259 L504 259 L504 438 L255 438 L255 516 L544 516 L544 695 L48 695 L48 0 L549 0 L549 179 L255 179 Z " />
<glyph glyph-name="Eacute" unicode="&#xc9;" horiz-adv-x="583" d="M497 822 L447 990 L115 882 L160 734 L497 822 Z M255 179 L255 259 L504 259 L504 438 L255 438 L255 516 L544 516 L544 695 L48 695 L48 0 L549 0 L549 179 L255 179 Z " />
<glyph glyph-name="Ecircumflex" unicode="&#xca;" horiz-adv-x="583" d="M296 828 L356 752 L536 752 L382 968 L215 968 L55 752 L236 752 L296 828 Z M255 179 L255 259 L504 259 L504 438 L255 438 L255 516 L544 516 L544 695 L48 695 L48 0 L549 0 L549 179 L255 179 Z " />
<glyph glyph-name="Edieresis" unicode="&#xcb;" horiz-adv-x="583" d="M153 739 C223 739 277 788 277 858 C277 930 225 981 157 981 C87 981 32 934 32 862 C32 788 87 739 153 739 L153 739 Z M435 739 C505 739 559 788 559 858 C559 930 506 981 438 981 C368 981 313 934 313 862 C313 788 368 739 435 739 L435 739 Z M255 259 L504 259 L504 438 L255 438 L255 516 L544 516 L544 695 L48 695 L48 0 L549 0 L549 179 L255 179 L255 259 Z " />
<glyph glyph-name="Igrave" unicode="&#xcc;" horiz-adv-x="303" d="M298 734 L343 882 L11 990 L-39 822 L298 734 Z M48 0 L255 0 L255 695 L48 695 L48 0 Z " />
<glyph glyph-name="Iacute" unicode="&#xcd;" horiz-adv-x="303" d="M16 734 L353 822 L303 990 L-29 882 L16 734 Z M48 0 L255 0 L255 695 L48 695 L48 0 Z " />
<glyph glyph-name="Icircumflex" unicode="&#xce;" horiz-adv-x="303" d="M152 828 L212 752 L392 752 L238 968 L71 968 L-89 752 L92 752 L152 828 Z M48 0 L255 0 L255 695 L48 695 L48 0 Z " />
<glyph glyph-name="Idieresis" unicode="&#xcf;" horiz-adv-x="303" d="M9 739 C79 739 133 788 133 858 C133 930 81 981 13 981 C-57 981 -112 934 -112 862 C-112 788 -57 739 9 739 L9 739 Z M291 739 C361 739 415 788 415 858 C415 930 362 981 294 981 C224 981 169 934 169 862 C169 788 224 739 291 739 L291 739 Z M48 0 L255 0 L255 695 L48 695 L48 0 Z " />
<glyph glyph-name="Eth" unicode="&#xd0;" horiz-adv-x="744" d="M351 695 L63 695 L63 419 L15 419 L15 279 L63 279 L63 0 L351 0 C570 0 718 134 718 348 C718 562 570 695 351 695 L351 695 Z M344 183 L270 183 L270 279 L414 279 L414 419 L270 419 L270 512 L344 512 C445 512 508 459 508 345 C508 236 445 183 344 183 L344 183 Z " />
<glyph glyph-name="Ntilde" unicode="&#xd1;" horiz-adv-x="696" d="M283 791 C327 791 350 745 421 745 C512 745 563 818 583 892 L444 951 C436 924 421 913 401 913 C360 913 333 959 262 959 C168 959 116 880 99 812 L238 753 C245 780 261 791 283 791 L283 791 Z M442 695 L442 354 L219 695 L48 695 L48 0 L254 0 L254 337 L477 0 L648 0 L648 695 L442 695 Z " />
<glyph glyph-name="Ograve" unicode="&#xd2;" horiz-adv-x="795" d="M544 734 L589 882 L257 990 L207 822 L544 734 Z M398 -14 C606 -14 771 146 771 347 C771 550 606 709 398 709 C190 709 24 550 24 347 C24 146 190 -14 398 -14 L398 -14 Z M398 181 C297 181 234 251 234 348 C234 443 294 514 398 514 C502 514 561 443 561 348 C561 251 499 181 398 181 L398 181 Z " />
<glyph glyph-name="Oacute" unicode="&#xd3;" horiz-adv-x="795" d="M262 734 L599 822 L549 990 L217 882 L262 734 Z M398 -14 C606 -14 771 146 771 347 C771 550 606 709 398 709 C190 709 24 550 24 347 C24 146 190 -14 398 -14 L398 -14 Z M398 181 C297 181 234 251 234 348 C234 443 294 514 398 514 C502 514 561 443 561 348 C561 251 499 181 398 181 L398 181 Z " />
<glyph glyph-name="Ocircumflex" unicode="&#xd4;" horiz-adv-x="795" d="M398 828 L458 752 L638 752 L484 968 L317 968 L157 752 L338 752 L398 828 Z M398 709 C190 709 24 550 24 347 C24 146 190 -14 398 -14 C606 -14 771 146 771 347 C771 550 606 709 398 709 L398 709 Z M398 181 C297 181 234 251 234 348 C234 443 294 514 398 514 C502 514 561 443 561 348 C561 251 499 181 398 181 L398 181 Z " />
<glyph glyph-name="Otilde" unicode="&#xd5;" horiz-adv-x="795" d="M489 745 C580 745 631 818 651 892 L512 951 C504 924 489 913 469 913 C428 913 401 959 330 959 C236 959 184 880 167 812 L306 753 C313 780 329 791 351 791 C395 791 418 745 489 745 L489 745 Z M398 -14 C606 -14 771 146 771 347 C771 550 606 709 398 709 C190 709 24 550 24 347 C24 146 190 -14 398 -14 L398 -14 Z M398 181 C297 181 234 251 234 348 C234 443 294 514 398 514 C502 514 561 443 561 348 C561 251 499 181 398 181 L398 181 Z " />
<glyph glyph-name="Odieresis" unicode="&#xd6;" horiz-adv-x="795" d="M255 739 C325 739 379 788 379 858 C379 930 327 981 259 981 C189 981 134 934 134 862 C134 788 189 739 255 739 L255 739 Z M537 739 C607 739 661 788 661 858 C661 930 608 981 540 981 C470 981 415 934 415 862 C415 788 470 739 537 739 L537 739 Z M398 -14 C606 -14 771 146 771 347 C771 550 606 709 398 709 C190 709 24 550 24 347 C24 146 190 -14 398 -14 L398 -14 Z M398 181 C297 181 234 251 234 348 C234 443 294 514 398 514 C502 514 561 443 561 348 C561 251 499 181 398 181 L398 181 Z " />
<glyph glyph-name="multiply" unicode="&#xd7;" horiz-adv-x="520" d="M495 452 L367 580 L260 473 L152 580 L25 453 L133 345 L25 237 L152 111 L260 219 L368 111 L495 238 L388 345 L495 452 Z " />
<glyph glyph-name="Oslash" unicode="&#xd8;" horiz-adv-x="798" d="M782 619 L664 734 L590 659 C535 691 469 709 399 709 C191 709 25 550 25 347 C25 272 48 203 88 146 L16 73 L135 -39 L208 36 C264 4 329 -14 399 -14 C607 -14 772 146 772 347 C772 421 750 490 711 547 L782 619 Z M399 181 C298 181 235 251 235 348 C235 443 295 514 399 514 C503 514 562 443 562 348 C562 251 500 181 399 181 L399 181 Z " />
<glyph glyph-name="Ugrave" unicode="&#xd9;" horiz-adv-x="678" d="M531 882 L199 990 L149 822 L486 734 L531 882 Z M431 695 L431 281 C431 219 401 181 340 181 C279 181 249 219 249 281 L249 695 L41 695 L41 281 C41 120 141 -14 340 -14 C539 -14 637 120 637 281 L637 695 L431 695 Z " />
<glyph glyph-name="Uacute" unicode="&#xda;" horiz-adv-x="678" d="M541 822 L491 990 L159 882 L204 734 L541 822 Z M431 695 L431 281 C431 219 401 181 340 181 C279 181 249 219 249 281 L249 695 L41 695 L41 281 C41 120 141 -14 340 -14 C539 -14 637 120 637 281 L637 695 L431 695 Z " />
<glyph glyph-name="Ucircumflex" unicode="&#xdb;" horiz-adv-x="678" d="M340 828 L400 752 L580 752 L426 968 L259 968 L99 752 L280 752 L340 828 Z M431 695 L431 281 C431 219 401 181 340 181 C279 181 249 219 249 281 L249 695 L41 695 L41 281 C41 120 141 -14 340 -14 C539 -14 637 120 637 281 L637 695 L431 695 Z " />
<glyph glyph-name="Udieresis" unicode="&#xdc;" horiz-adv-x="678" d="M197 739 C267 739 321 788 321 858 C321 930 269 981 201 981 C131 981 76 934 76 862 C76 788 131 739 197 739 L197 739 Z M479 739 C549 739 603 788 603 858 C603 930 550 981 482 981 C412 981 357 934 357 862 C357 788 412 739 479 739 L479 739 Z M431 695 L431 281 C431 219 401 181 340 181 C279 181 249 219 249 281 L249 695 L41 695 L41 281 C41 120 141 -14 340 -14 C539 -14 637 120 637 281 L637 695 L431 695 Z " />
<glyph glyph-name="Yacute" unicode="&#xdd;" horiz-adv-x="683" d="M544 822 L494 990 L162 882 L207 734 L544 822 Z M694 695 L463 695 L342 469 L220 695 L-11 695 L239 281 L239 0 L445 0 L445 283 L694 695 Z " />
<glyph glyph-name="Thorn" unicode="&#xde;" horiz-adv-x="636" d="M356 584 L255 584 L255 695 L48 695 L48 0 L255 0 L255 116 L356 116 C512 116 614 209 614 350 C614 492 514 584 356 584 L356 584 Z M344 296 L255 296 L255 404 L344 404 C386 404 404 380 404 350 C404 320 386 296 344 296 L344 296 Z " />
<glyph glyph-name="germandbls" unicode="&#xdf;" horiz-adv-x="642" d="M517 382 C563 411 599 469 599 535 C599 654 499 744 336 744 C145 744 37 641 37 467 L37 0 L243 0 L243 479 C243 544 270 574 322 574 C359 574 390 550 390 511 C390 471 362 449 324 449 L324 293 C385 293 412 264 412 222 C412 178 386 156 347 156 C329 156 312 160 289 173 L257 14 C289 -4 324 -14 378 -14 C521 -14 622 56 622 197 C622 280 575 350 517 382 L517 382 Z " />
<glyph glyph-name="agrave" unicode="&#xe0;" horiz-adv-x="641" d="M504 682 L238 858 L146 708 L422 551 L504 682 Z M414 527 L414 488 C381 513 338 527 284 527 C130 527 20 421 20 263 C20 105 130 -14 284 -14 C338 -14 381 1 414 29 L414 0 L604 0 L604 527 L414 527 Z M315 167 C262 167 225 207 225 263 C225 319 262 359 315 359 C371 359 407 320 407 263 C407 206 371 167 315 167 L315 167 Z " />
<glyph glyph-name="aacute" unicode="&#xe1;" horiz-adv-x="641" d="M507 708 L415 858 L149 682 L231 551 L507 708 Z M414 527 L414 488 C381 513 338 527 284 527 C130 527 20 421 20 263 C20 105 130 -14 284 -14 C338 -14 381 1 414 29 L414 0 L604 0 L604 527 L414 527 Z M315 167 C262 167 225 207 225 263 C225 319 262 359 315 359 C371 359 407 320 407 263 C407 206 371 167 315 167 L315 167 Z " />
<glyph glyph-name="acircumflex" unicode="&#xe2;" horiz-adv-x="641" d="M332 683 L388 593 L563 593 L424 820 L247 820 L102 593 L278 593 L332 683 Z M414 527 L414 488 C381 513 338 527 284 527 C130 527 20 421 20 263 C20 105 130 -14 284 -14 C338 -14 381 1 414 29 L414 0 L604 0 L604 527 L414 527 Z M315 167 C262 167 225 207 225 263 C225 319 262 359 315 359 C371 359 407 320 407 263 C407 206 371 167 315 167 L315 167 Z " />
<glyph glyph-name="atilde" unicode="&#xe3;" horiz-adv-x="641" d="M284 646 C323 646 352 600 417 600 C504 600 542 673 562 747 L423 806 C416 779 399 768 383 768 C340 768 314 814 249 814 C161 814 120 737 103 667 L241 608 C248 635 266 646 284 646 L284 646 Z M414 527 L414 488 C381 513 338 527 284 527 C130 527 20 421 20 263 C20 105 130 -14 284 -14 C338 -14 381 1 414 29 L414 0 L604 0 L604 527 L414 527 Z M315 167 C262 167 225 207 225 263 C225 319 262 359 315 359 C371 359 407 320 407 263 C407 206 371 167 315 167 L315 167 Z " />
<glyph glyph-name="adieresis" unicode="&#xe4;" horiz-adv-x="641" d="M195 590 C262 590 314 637 314 704 C314 773 264 822 199 822 C132 822 79 777 79 708 C79 637 132 590 195 590 L195 590 Z M467 590 C534 590 586 637 586 704 C586 773 535 822 470 822 C403 822 350 777 350 708 C350 637 403 590 467 590 L467 590 Z M414 527 L414 488 C381 513 338 527 284 527 C130 527 20 421 20 263 C20 105 130 -14 284 -14 C338 -14 381 1 414 29 L414 0 L604 0 L604 527 L414 527 Z M315 167 C262 167 225 207 225 263 C225 319 262 359 315 359 C371 359 407 320 407 263 C407 206 371 167 315 167 L315 167 Z " />
<glyph glyph-name="aring" unicode="&#xe5;" horiz-adv-x="641" d="M333 557 C427 557 491 618 491 708 C491 795 427 858 333 858 C240 858 174 795 174 708 C174 618 240 557 333 557 L333 557 Z M333 747 C357 747 374 731 374 708 C374 684 357 668 333 668 C308 668 291 684 291 708 C291 731 308 747 333 747 L333 747 Z M414 527 L414 488 C381 513 338 527 284 527 C130 527 20 421 20 263 C20 105 130 -14 284 -14 C338 -14 381 1 414 29 L414 0 L604 0 L604 527 L414 527 Z M315 167 C262 167 225 207 225 263 C225 319 262 359 315 359 C371 359 407 320 407 263 C407 206 371 167 315 167 L315 167 Z " />
<glyph glyph-name="ae" unicode="&#xe6;" horiz-adv-x="1021" d="M644 205 L997 205 C999 221 1001 242 1001 274 C1001 399 920 540 751 540 C686 540 638 520 604 487 L604 527 L414 527 L414 497 C381 525 338 540 284 540 C130 540 20 421 20 263 C20 105 130 -14 284 -14 C338 -14 381 1 414 29 L414 0 L604 0 L604 37 C640 5 694 -14 772 -14 C902 -14 958 56 992 114 L824 186 C804 163 777 149 732 149 C691 149 659 167 644 205 L644 205 Z M638 323 C649 369 677 391 726 391 C773 391 802 365 814 323 L638 323 Z M315 167 C262 167 225 207 225 263 C225 319 262 359 315 359 C371 359 407 320 407 263 C407 206 371 167 315 167 L315 167 Z " />
<glyph glyph-name="ccedilla" unicode="&#xe7;" horiz-adv-x="577" d="M574 164 L391 237 C382 201 353 169 308 169 C264 169 226 202 226 263 C226 324 264 357 309 357 C353 357 379 325 388 287 L571 360 C552 431 463 540 304 540 C140 540 19 416 19 262 C19 121 121 9 259 -11 L238 -77 L247 -84 L262 -84 C284 -84 294 -96 294 -110 C294 -124 283 -134 264 -134 C245 -134 232 -126 222 -113 L157 -195 C183 -223 235 -243 293 -243 C378 -243 439 -199 439 -129 C439 -79 408 -41 372 -34 L381 -5 C494 23 558 108 574 164 L574 164 Z " />
<glyph glyph-name="egrave" unicode="&#xe8;" horiz-adv-x="595" d="M470 681 L204 857 L112 707 L388 550 L470 681 Z M220 205 L573 205 C575 221 577 242 577 274 C577 399 476 540 297 540 C143 540 19 415 19 263 C19 106 130 -14 309 -14 C443 -14 505 39 548 85 L400 186 C380 163 361 149 315 149 C269 149 236 167 220 205 L220 205 Z M214 323 C225 369 253 391 302 391 C349 391 378 365 390 323 L214 323 Z " />
<glyph glyph-name="eacute" unicode="&#xe9;" horiz-adv-x="595" d="M473 707 L381 857 L115 681 L197 550 L473 707 Z M220 205 L573 205 C575 221 577 242 577 274 C577 399 476 540 297 540 C143 540 19 415 19 263 C19 106 130 -14 309 -14 C443 -14 505 39 548 85 L400 186 C380 163 361 149 315 149 C269 149 236 167 220 205 L220 205 Z M214 323 C225 369 253 391 302 391 C349 391 378 365 390 323 L214 323 Z " />
<glyph glyph-name="ecircumflex" unicode="&#xea;" horiz-adv-x="595" d="M298 682 L354 592 L529 592 L390 819 L213 819 L68 592 L244 592 L298 682 Z M220 205 L573 205 C575 221 577 242 577 274 C577 399 476 540 297 540 C143 540 19 415 19 263 C19 106 130 -14 309 -14 C443 -14 505 39 548 85 L400 186 C380 163 361 149 315 149 C269 149 236 167 220 205 L220 205 Z M214 323 C225 369 253 391 302 391 C349 391 378 365 390 323 L214 323 Z " />
<glyph glyph-name="edieresis" unicode="&#xeb;" horiz-adv-x="595" d="M161 589 C228 589 280 636 280 703 C280 772 230 821 165 821 C98 821 45 776 45 707 C45 636 98 589 161 589 L161 589 Z M433 589 C500 589 552 636 552 703 C552 772 501 821 436 821 C369 821 316 776 316 707 C316 636 369 589 433 589 L433 589 Z M220 205 L573 205 C575 221 577 242 577 274 C577 399 476 540 297 540 C143 540 19 415 19 263 C19 106 130 -14 309 -14 C443 -14 505 39 548 85 L400 186 C380 163 361 149 315 149 C269 149 236 167 220 205 L220 205 Z M214 323 C225 369 253 391 302 391 C349 391 378 365 390 323 L214 323 Z " />
<glyph glyph-name="igrave" unicode="&#xec;" horiz-adv-x="280" d="M230 550 L312 681 L46 857 L-46 707 L230 550 Z M37 0 L243 0 L243 527 L37 527 L37 0 Z " />
<glyph glyph-name="iacute" unicode="&#xed;" horiz-adv-x="280" d="M39 550 L315 707 L223 857 L-43 681 L39 550 Z M37 0 L243 0 L243 527 L37 527 L37 0 Z " />
<glyph glyph-name="icircumflex" unicode="&#xee;" horiz-adv-x="280" d="M140 682 L196 592 L371 592 L232 819 L55 819 L-90 592 L86 592 L140 682 Z M37 0 L243 0 L243 527 L37 527 L37 0 Z " />
<glyph glyph-name="idieresis" unicode="&#xef;" horiz-adv-x="280" d="M3 589 C70 589 122 636 122 703 C122 772 72 821 7 821 C-60 821 -113 776 -113 707 C-113 636 -60 589 3 589 L3 589 Z M275 589 C342 589 394 636 394 703 C394 772 343 821 278 821 C211 821 158 776 158 707 C158 636 211 589 275 589 L275 589 Z M37 0 L243 0 L243 527 L37 527 L37 0 Z " />
<glyph glyph-name="eth" unicode="&#xf0;" horiz-adv-x="632" d="M378 729 L408 759 L309 859 L244 794 C191 811 134 820 73 820 L-6 655 C28 655 62 652 96 646 L63 614 L162 513 L248 599 C288 579 323 554 349 526 C336 529 321 530 306 530 C143 530 19 413 19 258 C19 106 141 -14 313 -14 C486 -14 609 96 609 308 C609 472 522 633 378 729 L378 729 Z M315 169 C260 169 226 208 226 258 C226 309 260 347 315 347 C369 347 402 309 402 259 C402 207 367 169 315 169 L315 169 Z " />
<glyph glyph-name="ntilde" unicode="&#xf1;" horiz-adv-x="602" d="M262 645 C301 645 330 599 395 599 C482 599 520 672 540 746 L401 805 C394 778 377 767 361 767 C318 767 292 813 227 813 C139 813 98 736 81 666 L219 607 C226 634 244 645 262 645 L262 645 Z M369 541 C313 541 266 524 231 498 L231 527 L37 527 L37 0 L243 0 L243 300 C243 337 273 358 303 358 C333 358 363 337 363 300 L363 0 L569 0 L569 341 C569 457 488 541 369 541 L369 541 Z " />
<glyph glyph-name="ograve" unicode="&#xf2;" horiz-adv-x="628" d="M407 550 L489 681 L223 857 L131 707 L407 550 Z M313 -14 C486 -14 609 106 609 263 C609 421 486 540 313 540 C141 540 19 421 19 263 C19 106 141 -14 313 -14 L313 -14 Z M315 169 C260 169 226 208 226 263 C226 319 260 357 315 357 C369 357 402 319 402 264 C402 207 367 169 315 169 L315 169 Z " />
<glyph glyph-name="oacute" unicode="&#xf3;" horiz-adv-x="628" d="M216 550 L492 707 L400 857 L134 681 L216 550 Z M313 -14 C486 -14 609 106 609 263 C609 421 486 540 313 540 C141 540 19 421 19 263 C19 106 141 -14 313 -14 L313 -14 Z M315 169 C260 169 226 208 226 263 C226 319 260 357 315 357 C369 357 402 319 402 264 C402 207 367 169 315 169 L315 169 Z " />
<glyph glyph-name="ocircumflex" unicode="&#xf4;" horiz-adv-x="628" d="M317 682 L373 592 L548 592 L409 819 L232 819 L87 592 L263 592 L317 682 Z M313 540 C141 540 19 421 19 263 C19 106 141 -14 313 -14 C486 -14 609 106 609 263 C609 421 486 540 313 540 L313 540 Z M315 169 C260 169 226 208 226 263 C226 319 260 357 315 357 C369 357 402 319 402 264 C402 207 367 169 315 169 L315 169 Z " />
<glyph glyph-name="otilde" unicode="&#xf5;" horiz-adv-x="628" d="M402 599 C489 599 527 672 547 746 L408 805 C401 778 384 767 368 767 C325 767 299 813 234 813 C146 813 105 736 88 666 L226 607 C233 634 251 645 269 645 C308 645 337 599 402 599 L402 599 Z M313 -14 C486 -14 609 106 609 263 C609 421 486 540 313 540 C141 540 19 421 19 263 C19 106 141 -14 313 -14 L313 -14 Z M315 169 C260 169 226 208 226 263 C226 319 260 357 315 357 C369 357 402 319 402 264 C402 207 367 169 315 169 L315 169 Z " />
<glyph glyph-name="odieresis" unicode="&#xf6;" horiz-adv-x="628" d="M180 589 C247 589 299 636 299 703 C299 772 249 821 184 821 C117 821 64 776 64 707 C64 636 117 589 180 589 L180 589 Z M452 589 C519 589 571 636 571 703 C571 772 520 821 455 821 C388 821 335 776 335 707 C335 636 388 589 452 589 L452 589 Z M313 -14 C486 -14 609 106 609 263 C609 421 486 540 313 540 C141 540 19 421 19 263 C19 106 141 -14 313 -14 L313 -14 Z M315 169 C260 169 226 208 226 263 C226 319 260 357 315 357 C369 357 402 319 402 264 C402 207 367 169 315 169 L315 169 Z " />
<glyph glyph-name="divide" unicode="&#xf7;" horiz-adv-x="474" d="M237 459 C298 459 344 505 344 564 C344 627 298 673 237 673 C177 673 131 627 131 564 C131 505 177 459 237 459 L237 459 Z M24 258 L450 258 L450 430 L24 430 L24 258 Z M237 19 C298 19 344 65 344 124 C344 187 298 233 237 233 C177 233 131 187 131 124 C131 65 177 19 237 19 L237 19 Z " />
<glyph glyph-name="oslash" unicode="&#xf8;" horiz-adv-x="653" d="M653 448 L560 555 L491 496 C444 524 388 540 324 540 C152 540 30 421 30 263 C30 214 42 168 64 129 L-1 74 L95 -33 L164 27 C209 1 264 -14 324 -14 C497 -14 620 106 620 263 C620 310 609 354 589 393 L653 448 Z M326 169 C271 169 237 208 237 263 C237 319 271 357 326 357 C380 357 413 319 413 264 C413 207 378 169 326 169 L326 169 Z " />
<glyph glyph-name="ugrave" unicode="&#xf9;" horiz-adv-x="595" d="M466 682 L200 858 L108 708 L384 551 L466 682 Z M352 527 L352 226 C351 187 330 169 296 169 C260 169 239 194 239 224 L239 527 L33 527 L33 196 C33 80 98 -14 232 -14 C283 -14 329 3 365 31 L365 0 L558 0 L558 527 L352 527 Z " />
<glyph glyph-name="uacute" unicode="&#xfa;" horiz-adv-x="595" d="M469 708 L377 858 L111 682 L193 551 L469 708 Z M352 527 L352 226 C351 187 330 169 296 169 C260 169 239 194 239 224 L239 527 L33 527 L33 196 C33 80 98 -14 232 -14 C283 -14 329 3 365 31 L365 0 L558 0 L558 527 L352 527 Z " />
<glyph glyph-name="ucircumflex" unicode="&#xfb;" horiz-adv-x="595" d="M294 683 L350 593 L525 593 L386 820 L209 820 L64 593 L240 593 L294 683 Z M352 527 L352 226 C351 187 330 169 296 169 C260 169 239 194 239 224 L239 527 L33 527 L33 196 C33 80 98 -14 232 -14 C283 -14 329 3 365 31 L365 0 L558 0 L558 527 L352 527 Z " />
<glyph glyph-name="udieresis" unicode="&#xfc;" horiz-adv-x="595" d="M157 590 C224 590 276 637 276 704 C276 773 226 822 161 822 C94 822 41 777 41 708 C41 637 94 590 157 590 L157 590 Z M429 590 C496 590 548 637 548 704 C548 773 497 822 432 822 C365 822 312 777 312 708 C312 637 365 590 429 590 L429 590 Z M352 527 L352 226 C351 187 330 169 296 169 C260 169 239 194 239 224 L239 527 L33 527 L33 196 C33 80 98 -14 232 -14 C283 -14 329 3 365 31 L365 0 L558 0 L558 527 L352 527 Z " />
<glyph glyph-name="yacute" unicode="&#xfd;" horiz-adv-x="585" d="M467 708 L375 858 L109 682 L191 551 L467 708 Z M377 527 L283 168 L211 527 L-1 527 L148 0 L221 0 L154 -179 L356 -179 L589 527 L377 527 Z " />
<glyph glyph-name="thorn" unicode="&#xfe;" horiz-adv-x="641" d="M362 540 C316 540 276 529 243 508 L243 731 L37 731 L37 -179 L243 -179 L243 16 C275 -4 313 -14 357 -14 C511 -14 621 105 621 263 C621 421 516 540 362 540 L362 540 Z M326 169 C271 169 236 207 236 263 C236 319 271 357 326 357 C378 357 414 318 414 263 C414 208 378 169 326 169 L326 169 Z " />
<glyph glyph-name="ydieresis" unicode="&#xff;" horiz-adv-x="585" d="M155 590 C222 590 274 637 274 704 C274 773 224 822 159 822 C92 822 39 777 39 708 C39 637 92 590 155 590 L155 590 Z M427 590 C494 590 546 637 546 704 C546 773 495 822 430 822 C363 822 310 777 310 708 C310 637 363 590 427 590 L427 590 Z M377 527 L283 168 L211 527 L-1 527 L148 0 L221 0 L154 -179 L356 -179 L589 527 L377 527 Z " />
<glyph glyph-name="Amacron" unicode="&#x100;" horiz-adv-x="679" d="M546 944 L133 944 L133 777 L546 777 L546 944 Z M480 0 L683 0 L466 695 L213 695 L-4 0 L200 0 L230 103 L450 103 L480 0 Z M279 270 L340 476 L400 270 L279 270 Z " />
<glyph glyph-name="amacron" unicode="&#x101;" horiz-adv-x="641" d="M518 788 L147 788 L147 626 L518 626 L518 788 Z M414 527 L414 488 C381 513 338 527 284 527 C130 527 20 421 20 263 C20 105 130 -14 284 -14 C338 -14 381 1 414 29 L414 0 L604 0 L604 527 L414 527 Z M315 167 C262 167 225 207 225 263 C225 319 262 359 315 359 C371 359 407 320 407 263 C407 206 371 167 315 167 L315 167 Z " />
<glyph glyph-name="Abreve" unicode="&#x102;" horiz-adv-x="679" d="M339 752 C472 752 555 840 555 968 L388 968 C388 927 369 902 339 902 C309 902 290 927 290 968 L123 968 C123 840 206 752 339 752 L339 752 Z M480 0 L683 0 L466 695 L213 695 L-4 0 L200 0 L230 103 L450 103 L480 0 Z M279 270 L340 476 L400 270 L279 270 Z " />
<glyph glyph-name="abreve" unicode="&#x103;" horiz-adv-x="641" d="M333 593 C469 593 549 681 549 820 L389 820 C389 765 365 743 333 743 C301 743 277 765 277 820 L117 820 C117 681 197 593 333 593 L333 593 Z M414 527 L414 488 C381 513 338 527 284 527 C130 527 20 421 20 263 C20 105 130 -14 284 -14 C338 -14 381 1 414 29 L414 0 L604 0 L604 527 L414 527 Z M315 167 C262 167 225 207 225 263 C225 319 262 359 315 359 C371 359 407 320 407 263 C407 206 371 167 315 167 L315 167 Z " />
<glyph glyph-name="Aogonek" unicode="&#x104;" horiz-adv-x="679" d="M654 -104 C646 -113 638 -116 629 -116 C617 -116 608 -108 608 -94 C608 -79 615 -68 638 -44 L683 0 L466 695 L213 695 L-4 0 L200 0 L230 103 L450 103 L480 0 L533 0 C482 -40 455 -82 455 -128 C455 -199 512 -244 595 -244 C651 -244 699 -227 725 -199 L654 -104 Z M279 270 L340 476 L400 270 L279 270 Z " />
<glyph glyph-name="aogonek" unicode="&#x105;" horiz-adv-x="641" d="M575 -104 C567 -113 559 -116 550 -116 C538 -116 529 -108 529 -94 C529 -79 536 -68 559 -44 L604 0 L604 527 L414 527 L414 488 C381 513 338 527 284 527 C130 527 20 421 20 263 C20 105 130 -14 284 -14 C338 -14 381 1 414 29 L414 0 L454 0 C403 -40 376 -82 376 -128 C376 -199 433 -244 516 -244 C572 -244 620 -227 646 -199 L575 -104 Z M315 167 C262 167 225 207 225 263 C225 319 262 359 315 359 C371 359 407 320 407 263 C407 206 371 167 315 167 L315 167 Z " />
<glyph glyph-name="Cacute" unicode="&#x106;" horiz-adv-x="737" d="M253 734 L590 822 L540 990 L208 882 L253 734 Z M391 -14 C578 -14 699 104 731 219 L533 299 C520 230 472 181 387 181 C296 181 235 246 235 347 C235 448 296 514 389 514 C473 514 520 465 533 396 L731 476 C701 586 584 709 394 709 C184 709 25 557 25 347 C25 138 184 -14 391 -14 L391 -14 Z " />
<glyph glyph-name="cacute" unicode="&#x107;" horiz-adv-x="577" d="M202 551 L478 708 L386 858 L120 682 L202 551 Z M304 -14 C465 -14 555 96 574 164 L391 237 C382 201 353 169 308 169 C264 169 226 202 226 263 C226 324 264 357 309 357 C353 357 379 325 388 287 L571 360 C552 431 463 540 304 540 C140 540 19 416 19 262 C19 106 143 -14 304 -14 L304 -14 Z " />
<glyph glyph-name="Cdotaccent" unicode="&#x10a;" horiz-adv-x="737" d="M388 739 C458 739 512 789 512 858 C512 931 459 981 391 981 C322 981 266 934 266 862 C266 789 322 739 388 739 L388 739 Z M391 -14 C578 -14 699 104 731 219 L533 299 C520 230 472 181 387 181 C296 181 235 246 235 347 C235 448 296 514 389 514 C473 514 520 465 533 396 L731 476 C701 586 584 709 394 709 C184 709 25 557 25 347 C25 138 184 -14 391 -14 L391 -14 Z " />
<glyph glyph-name="cdotaccent" unicode="&#x10b;" horiz-adv-x="577" d="M304 587 C373 587 427 636 427 706 C427 776 373 827 304 827 C235 827 181 776 181 706 C181 636 235 587 304 587 L304 587 Z M304 -14 C465 -14 555 96 574 164 L391 237 C382 201 353 169 308 169 C264 169 226 202 226 263 C226 324 264 357 309 357 C353 357 379 325 388 287 L571 360 C552 431 463 540 304 540 C140 540 19 416 19 262 C19 106 143 -14 304 -14 L304 -14 Z " />
<glyph glyph-name="Ccaron" unicode="&#x10c;" horiz-adv-x="737" d="M475 752 L629 968 L449 968 L389 892 L329 968 L148 968 L308 752 L475 752 Z M387 181 C296 181 235 246 235 347 C235 448 296 514 389 514 C473 514 520 465 533 396 L731 476 C701 586 584 709 394 709 C184 709 25 557 25 347 C25 138 184 -14 391 -14 C578 -14 699 104 731 219 L533 299 C520 230 472 181 387 181 L387 181 Z " />
<glyph glyph-name="ccaron" unicode="&#x10d;" horiz-adv-x="577" d="M395 593 L534 820 L359 820 L303 730 L249 820 L73 820 L218 593 L395 593 Z M391 237 C382 201 353 169 308 169 C264 169 226 202 226 263 C226 324 264 357 309 357 C353 357 379 325 388 287 L571 360 C552 431 463 540 304 540 C140 540 19 416 19 262 C19 106 143 -14 304 -14 C465 -14 555 96 574 164 L391 237 Z " />
<glyph glyph-name="Dcaron" unicode="&#x10e;" horiz-adv-x="729" d="M425 751 L579 967 L399 967 L339 891 L279 967 L98 967 L258 751 L425 751 Z M336 695 L48 695 L48 0 L336 0 C555 0 703 134 703 348 C703 562 555 695 336 695 L336 695 Z M329 183 L255 183 L255 512 L329 512 C430 512 493 459 493 345 C493 236 430 183 329 183 L329 183 Z " />
<glyph glyph-name="dcaron" unicode="&#x10f;" horiz-adv-x="777" d="M662 732 L642 457 L773 457 L806 732 L662 732 Z M398 508 C365 529 325 540 279 540 C125 540 20 421 20 263 C20 105 130 -14 284 -14 C336 -14 380 1 414 27 L414 0 L604 0 L604 731 L398 731 L398 508 Z M315 167 C262 167 225 207 225 263 C225 319 262 359 315 359 C371 359 407 320 407 263 C407 206 371 167 315 167 L315 167 Z " />
<glyph glyph-name="Dcroat" unicode="&#x110;" horiz-adv-x="744" d="M351 695 L63 695 L63 419 L15 419 L15 279 L63 279 L63 0 L351 0 C570 0 718 134 718 348 C718 562 570 695 351 695 L351 695 Z M344 183 L270 183 L270 279 L414 279 L414 419 L270 419 L270 512 L344 512 C445 512 508 459 508 345 C508 236 445 183 344 183 L344 183 Z " />
<glyph glyph-name="dcroat" unicode="&#x111;" horiz-adv-x="641" d="M660 701 L604 701 L604 731 L398 731 L398 701 L261 701 L261 561 L398 561 L398 508 C365 529 325 540 279 540 C125 540 20 421 20 263 C20 105 130 -14 284 -14 C336 -14 380 1 414 27 L414 0 L604 0 L604 561 L660 561 L660 701 Z M315 167 C262 167 225 207 225 263 C225 319 262 359 315 359 C371 359 407 320 407 263 C407 206 371 167 315 167 L315 167 Z " />
<glyph glyph-name="Emacron" unicode="&#x112;" horiz-adv-x="583" d="M502 944 L89 944 L89 777 L502 777 L502 944 Z M255 179 L255 259 L504 259 L504 438 L255 438 L255 516 L544 516 L544 695 L48 695 L48 0 L549 0 L549 179 L255 179 Z " />
<glyph glyph-name="emacron" unicode="&#x113;" horiz-adv-x="595" d="M484 787 L113 787 L113 625 L484 625 L484 787 Z M220 205 L573 205 C575 221 577 242 577 274 C577 399 476 540 297 540 C143 540 19 415 19 263 C19 106 130 -14 309 -14 C443 -14 505 39 548 85 L400 186 C380 163 361 149 315 149 C269 149 236 167 220 205 L220 205 Z M214 323 C225 369 253 391 302 391 C349 391 378 365 390 323 L214 323 Z " />
<glyph glyph-name="Edotaccent" unicode="&#x116;" horiz-adv-x="583" d="M295 739 C365 739 419 789 419 858 C419 931 366 981 298 981 C229 981 173 934 173 862 C173 789 229 739 295 739 L295 739 Z M255 179 L255 259 L504 259 L504 438 L255 438 L255 516 L544 516 L544 695 L48 695 L48 0 L549 0 L549 179 L255 179 Z " />
<glyph glyph-name="edotaccent" unicode="&#x117;" horiz-adv-x="595" d="M299 586 C368 586 422 635 422 705 C422 775 368 826 299 826 C230 826 176 775 176 705 C176 635 230 586 299 586 L299 586 Z M220 205 L573 205 C575 221 577 242 577 274 C577 399 476 540 297 540 C143 540 19 415 19 263 C19 106 130 -14 309 -14 C443 -14 505 39 548 85 L400 186 C380 163 361 149 315 149 C269 149 236 167 220 205 L220 205 Z M214 323 C225 369 253 391 302 391 C349 391 378 365 390 323 L214 323 Z " />
<glyph glyph-name="Eogonek" unicode="&#x118;" horiz-adv-x="583" d="M520 -104 C512 -113 504 -116 495 -116 C483 -116 474 -108 474 -94 C474 -79 481 -68 504 -44 L549 0 L549 179 L255 179 L255 259 L504 259 L504 438 L255 438 L255 516 L544 516 L544 695 L48 695 L48 0 L399 0 C348 -40 321 -82 321 -128 C321 -199 378 -244 461 -244 C517 -244 565 -227 591 -199 L520 -104 Z " />
<glyph glyph-name="eogonek" unicode="&#x119;" horiz-adv-x="595" d="M220 205 L573 205 C575 221 577 242 577 274 C577 399 476 540 297 540 C143 540 19 415 19 263 C19 114 119 -2 282 -13 C257 -42 244 -72 244 -104 C244 -175 301 -220 384 -220 C440 -220 488 -203 514 -175 L443 -80 C435 -89 427 -92 418 -92 C406 -92 397 -84 397 -70 C397 -55 404 -44 427 -20 L470 22 C504 41 528 64 548 85 L400 186 C380 163 361 149 315 149 C269 149 236 167 220 205 L220 205 Z M214 323 C225 369 253 391 302 391 C349 391 378 365 390 323 L214 323 Z " />
<glyph glyph-name="Ecaron" unicode="&#x11a;" horiz-adv-x="583" d="M382 752 L536 968 L356 968 L296 892 L236 968 L55 968 L215 752 L382 752 Z M255 179 L255 259 L504 259 L504 438 L255 438 L255 516 L544 516 L544 695 L48 695 L48 0 L549 0 L549 179 L255 179 Z " />
<glyph glyph-name="ecaron" unicode="&#x11b;" horiz-adv-x="595" d="M390 592 L529 819 L354 819 L298 729 L244 819 L68 819 L213 592 L390 592 Z M220 205 L573 205 C575 221 577 242 577 274 C577 399 476 540 297 540 C143 540 19 415 19 263 C19 106 130 -14 309 -14 C443 -14 505 39 548 85 L400 186 C380 163 361 149 315 149 C269 149 236 167 220 205 L220 205 Z M214 323 C225 369 253 391 302 391 C349 391 378 365 390 323 L214 323 Z " />
<glyph glyph-name="Gbreve" unicode="&#x11e;" horiz-adv-x="779" d="M392 752 C525 752 608 840 608 968 L441 968 C441 927 422 902 392 902 C362 902 343 927 343 968 L176 968 C176 840 259 752 392 752 L392 752 Z M759 385 L392 385 L392 230 L546 230 C520 187 477 171 417 171 C295 171 235 238 235 343 C235 446 293 514 393 514 C468 514 518 474 535 418 L732 499 C694 601 576 709 397 709 C184 709 25 555 25 347 C25 141 182 -14 398 -14 C600 -14 759 121 759 385 L759 385 Z " />
<glyph glyph-name="gbreve" unicode="&#x11f;" horiz-adv-x="639" d="M308 593 C444 593 524 681 524 820 L364 820 C364 765 340 743 308 743 C276 743 252 765 252 820 L92 820 C92 681 172 593 308 593 L308 593 Z M413 527 L413 498 C380 525 337 540 283 540 C129 540 19 421 19 283 C19 145 129 31 283 31 C337 31 380 46 413 73 L413 70 C413 16 372 -22 300 -22 C255 -22 215 -9 196 24 L22 -43 C58 -128 140 -193 299 -193 C494 -193 603 -75 603 90 L603 527 L413 527 Z M311 187 C261 187 224 226 224 273 C224 320 261 359 311 359 C364 359 400 321 400 273 C400 225 364 187 311 187 L311 187 Z " />
<glyph glyph-name="Gdotaccent" unicode="&#x120;" horiz-adv-x="779" d="M392 739 C462 739 516 789 516 858 C516 931 463 981 395 981 C326 981 270 934 270 862 C270 789 326 739 392 739 L392 739 Z M759 385 L392 385 L392 230 L546 230 C520 187 477 171 417 171 C295 171 235 238 235 343 C235 446 293 514 393 514 C468 514 518 474 535 418 L732 499 C694 601 576 709 397 709 C184 709 25 555 25 347 C25 141 182 -14 398 -14 C600 -14 759 121 759 385 L759 385 Z " />
<glyph glyph-name="gdotaccent" unicode="&#x121;" horiz-adv-x="639" d="M308 587 C377 587 431 636 431 706 C431 776 377 827 308 827 C239 827 185 776 185 706 C185 636 239 587 308 587 L308 587 Z M413 527 L413 498 C380 525 337 540 283 540 C129 540 19 421 19 283 C19 145 129 31 283 31 C337 31 380 46 413 73 L413 70 C413 16 372 -22 300 -22 C255 -22 215 -9 196 24 L22 -43 C58 -128 140 -193 299 -193 C494 -193 603 -75 603 90 L603 527 L413 527 Z M311 187 C261 187 224 226 224 273 C224 320 261 359 311 359 C364 359 400 321 400 273 C400 225 364 187 311 187 L311 187 Z " />
<glyph glyph-name="uni0122" unicode="&#x122;" horiz-adv-x="779" d="M759 385 L392 385 L392 230 L546 230 C520 187 477 171 417 171 C295 171 235 238 235 343 C235 446 293 514 393 514 C468 514 518 474 535 418 L732 499 C694 601 576 709 397 709 C184 709 25 555 25 347 C25 141 182 -14 398 -14 C600 -14 759 121 759 385 L759 385 Z M391 -47 C338 -47 296 -83 296 -137 C296 -176 317 -206 346 -221 L337 -238 L304 -291 L395 -326 L426 -279 C470 -213 484 -181 484 -139 C484 -84 444 -47 391 -47 L391 -47 Z " />
<glyph glyph-name="uni0123" unicode="&#x123;" horiz-adv-x="639" d="M311 584 C364 584 406 620 406 674 C406 713 385 743 356 758 L365 775 L398 828 L307 863 L276 816 C232 750 218 718 218 676 C218 621 258 584 311 584 L311 584 Z M413 527 L413 498 C380 525 337 540 283 540 C129 540 19 421 19 283 C19 145 129 31 283 31 C337 31 380 46 413 73 L413 70 C413 16 372 -22 300 -22 C255 -22 215 -9 196 24 L22 -43 C58 -128 140 -193 299 -193 C494 -193 603 -75 603 90 L603 527 L413 527 Z M311 187 C261 187 224 226 224 273 C224 320 261 359 311 359 C364 359 400 321 400 273 C400 225 364 187 311 187 L311 187 Z " />
<glyph glyph-name="Hbar" unicode="&#x126;" horiz-adv-x="755" d="M737 650 L677 650 L677 695 L470 695 L470 650 L285 650 L285 695 L78 695 L78 650 L18 650 L18 490 L78 490 L78 0 L285 0 L285 257 L470 257 L470 0 L677 0 L677 490 L737 490 L737 650 Z M470 441 L285 441 L285 490 L470 490 L470 441 Z " />
<glyph glyph-name="hbar" unicode="&#x127;" horiz-adv-x="602" d="M369 541 C319 541 277 528 243 506 L243 561 L380 561 L380 701 L243 701 L243 731 L37 731 L37 701 L-19 701 L-19 561 L37 561 L37 0 L243 0 L243 300 C243 337 273 358 303 358 C333 358 363 337 363 300 L363 0 L569 0 L569 341 C569 457 488 541 369 541 L369 541 Z " />
<glyph glyph-name="Itilde" unicode="&#x128;" horiz-adv-x="303" d="M248 745 C343 745 397 818 418 892 L272 951 C263 924 248 913 227 913 C183 913 155 959 80 959 C-19 959 -74 880 -91 812 L55 753 C62 780 79 791 102 791 C149 791 173 745 248 745 L248 745 Z M48 0 L255 0 L255 695 L48 695 L48 0 Z " />
<glyph glyph-name="itilde" unicode="&#x129;" horiz-adv-x="280" d="M214 599 C289 599 322 672 339 746 L219 805 C213 778 198 767 185 767 C147 767 125 813 69 813 C-7 813 -42 736 -57 666 L62 607 C68 634 84 645 99 645 C133 645 158 599 214 599 L214 599 Z M37 0 L243 0 L243 527 L37 527 L37 0 Z " />
<glyph glyph-name="Imacron" unicode="&#x12a;" horiz-adv-x="303" d="M6 777 L298 777 L298 944 L6 944 L6 777 Z M48 0 L255 0 L255 695 L48 695 L48 0 Z " />
<glyph glyph-name="imacron" unicode="&#x12b;" horiz-adv-x="280" d="M-8 625 L289 625 L289 787 L-8 787 L-8 625 Z M37 0 L243 0 L243 527 L37 527 L37 0 Z " />
<glyph glyph-name="Iogonek" unicode="&#x12e;" horiz-adv-x="303" d="M226 -104 C218 -113 210 -116 201 -116 C189 -116 180 -108 180 -94 C180 -79 187 -68 210 -44 L255 0 L255 695 L48 695 L48 0 L105 0 C54 -40 27 -82 27 -128 C27 -199 84 -244 167 -244 C223 -244 271 -227 297 -199 L226 -104 Z " />
<glyph glyph-name="iogonek" unicode="&#x12f;" horiz-adv-x="280" d="M141 586 C210 586 264 635 264 705 C264 775 210 826 141 826 C72 826 18 775 18 705 C18 635 72 586 141 586 L141 586 Z M210 -104 C202 -113 194 -116 185 -116 C173 -116 164 -108 164 -94 C164 -79 171 -68 194 -44 L239 0 L243 0 L243 527 L37 527 L37 0 L89 0 C38 -40 11 -82 11 -128 C11 -199 68 -244 151 -244 C207 -244 255 -227 281 -199 L210 -104 Z " />
<glyph glyph-name="Idotaccent" unicode="&#x130;" horiz-adv-x="303" d="M151 739 C221 739 275 789 275 858 C275 931 222 981 154 981 C85 981 29 934 29 862 C29 789 85 739 151 739 L151 739 Z M48 0 L255 0 L255 695 L48 695 L48 0 Z " />
<glyph glyph-name="dotlessi" unicode="&#x131;" horiz-adv-x="280" d="M37 0 L243 0 L243 527 L37 527 L37 0 Z " />
<glyph glyph-name="IJ" unicode="&#x132;" horiz-adv-x="655" d="M48 0 L255 0 L255 695 L48 695 L48 0 Z M317 0 L369 0 C533 0 612 94 612 235 L612 695 L405 695 L405 238 C405 205 389 184 351 184 L317 184 L317 0 Z " />
<glyph glyph-name="ij" unicode="&#x133;" horiz-adv-x="581" d="M446 587 C515 587 569 636 569 706 C569 776 515 827 446 827 C377 827 323 776 323 706 C323 636 377 587 446 587 L446 587 Z M141 586 C210 586 264 635 264 705 C264 775 210 826 141 826 C72 826 18 775 18 705 C18 635 72 586 141 586 L141 586 Z M37 0 L243 0 L243 527 L37 527 L37 0 Z M266 -187 L303 -187 C438 -187 544 -98 544 61 L544 527 L338 527 L338 58 C338 13 312 -12 275 -12 L265 -12 L266 -187 Z " />
<glyph glyph-name="uni0136" unicode="&#x136;" horiz-adv-x="676" d="M690 695 L455 695 L255 397 L255 695 L48 695 L48 0 L255 0 L255 304 L448 0 L681 0 L450 350 L690 695 Z M366 -47 C313 -47 271 -83 271 -137 C271 -176 292 -206 321 -221 L312 -238 L279 -291 L370 -326 L401 -279 C445 -213 459 -181 459 -139 C459 -84 419 -47 366 -47 L366 -47 Z " />
<glyph glyph-name="uni0137" unicode="&#x137;" horiz-adv-x="575" d="M589 527 L362 527 L243 342 L243 731 L37 731 L37 0 L243 0 L243 213 L367 0 L587 0 L419 287 L589 527 Z M271 -47 C218 -47 176 -83 176 -137 C176 -176 197 -206 226 -221 L217 -238 L184 -291 L275 -326 L306 -279 C350 -213 364 -181 364 -139 C364 -84 324 -47 271 -47 L271 -47 Z " />
<glyph glyph-name="kgreenlandic" unicode="&#x138;" horiz-adv-x="574" d="M589 527 L362 527 L243 333 L243 527 L37 527 L37 0 L243 0 L243 203 L367 0 L587 0 L415 282 L589 527 Z " />
<glyph glyph-name="Lacute" unicode="&#x139;" horiz-adv-x="556" d="M303 990 L-29 882 L16 734 L353 822 L303 990 Z M255 184 L255 695 L48 695 L48 0 L544 0 L544 184 L255 184 Z " />
<glyph glyph-name="lacute" unicode="&#x13a;" horiz-adv-x="280" d="M4 770 L341 858 L291 1026 L-41 918 L4 770 Z M37 0 L243 0 L243 731 L37 731 L37 0 Z " />
<glyph glyph-name="uni013B" unicode="&#x13b;" horiz-adv-x="556" d="M255 184 L255 695 L48 695 L48 0 L544 0 L544 184 L255 184 Z M296 -47 C243 -47 201 -83 201 -137 C201 -176 222 -206 251 -221 L242 -238 L209 -291 L300 -326 L331 -279 C375 -213 389 -181 389 -139 C389 -84 349 -47 296 -47 L296 -47 Z " />
<glyph glyph-name="uni013C" unicode="&#x13c;" horiz-adv-x="280" d="M37 731 L37 0 L243 0 L243 731 L37 731 Z M137 -47 C84 -47 42 -83 42 -137 C42 -176 63 -206 92 -221 L83 -238 L50 -291 L141 -326 L172 -279 C216 -213 230 -181 230 -139 C230 -84 190 -47 137 -47 L137 -47 Z " />
<glyph glyph-name="Lcaron" unicode="&#x13d;" horiz-adv-x="562" d="M518 706 L374 706 L354 431 L485 431 L518 706 Z M255 184 L255 695 L48 695 L48 0 L544 0 L544 184 L255 184 Z " />
<glyph glyph-name="lcaron" unicode="&#x13e;" horiz-adv-x="416" d="M281 457 L412 457 L445 732 L301 732 L281 457 Z M37 0 L243 0 L243 731 L37 731 L37 0 Z " />
<glyph glyph-name="Ldot" unicode="&#x13f;" horiz-adv-x="576" d="M255 695 L48 695 L48 0 L544 0 L544 184 L255 184 L255 695 Z M456 336 C517 336 563 382 563 442 C563 504 517 550 456 550 C396 550 350 504 350 442 C350 382 396 336 456 336 L456 336 Z " />
<glyph glyph-name="ldot" unicode="&#x140;" horiz-adv-x="471" d="M37 0 L243 0 L243 731 L37 731 L37 0 Z M375 266 C436 266 482 312 482 372 C482 434 436 480 375 480 C315 480 269 434 269 372 C269 312 315 266 375 266 L375 266 Z " />
<glyph glyph-name="Lslash" unicode="&#x141;" horiz-adv-x="623" d="M322 184 L322 337 L443 377 L402 505 L322 479 L322 695 L115 695 L115 410 L11 376 L52 248 L115 269 L115 0 L611 0 L611 184 L322 184 Z " />
<glyph glyph-name="lslash" unicode="&#x142;" horiz-adv-x="423" d="M433 401 L357 529 L317 507 L317 731 L111 731 L111 394 L-5 331 L71 202 L111 224 L111 0 L317 0 L317 337 L433 401 Z " />
<glyph glyph-name="Nacute" unicode="&#x143;" horiz-adv-x="696" d="M531 822 L481 990 L149 882 L194 734 L531 822 Z M442 695 L442 354 L219 695 L48 695 L48 0 L254 0 L254 337 L477 0 L648 0 L648 695 L442 695 Z " />
<glyph glyph-name="nacute" unicode="&#x144;" horiz-adv-x="602" d="M485 707 L393 857 L127 681 L209 550 L485 707 Z M369 541 C313 541 266 524 231 498 L231 527 L37 527 L37 0 L243 0 L243 300 C243 337 273 358 303 358 C333 358 363 337 363 300 L363 0 L569 0 L569 341 C569 457 488 541 369 541 L369 541 Z " />
<glyph glyph-name="uni0145" unicode="&#x145;" horiz-adv-x="696" d="M442 695 L442 354 L219 695 L48 695 L48 0 L254 0 L254 337 L477 0 L648 0 L648 695 L442 695 Z M362 -47 C309 -47 267 -83 267 -137 C267 -176 288 -206 317 -221 L308 -238 L275 -291 L366 -326 L397 -279 C441 -213 455 -181 455 -139 C455 -84 415 -47 362 -47 L362 -47 Z " />
<glyph glyph-name="uni0146" unicode="&#x146;" horiz-adv-x="602" d="M369 541 C313 541 266 524 231 498 L231 527 L37 527 L37 0 L243 0 L243 300 C243 337 273 358 303 358 C333 358 363 337 363 300 L363 0 L569 0 L569 341 C569 457 488 541 369 541 L369 541 Z M296 -47 C243 -47 201 -83 201 -137 C201 -176 222 -206 251 -221 L242 -238 L209 -291 L300 -326 L331 -279 C375 -213 389 -181 389 -139 C389 -84 349 -47 296 -47 L296 -47 Z " />
<glyph glyph-name="Ncaron" unicode="&#x147;" horiz-adv-x="696" d="M416 752 L570 968 L390 968 L330 892 L270 968 L89 968 L249 752 L416 752 Z M442 695 L442 354 L219 695 L48 695 L48 0 L254 0 L254 337 L477 0 L648 0 L648 695 L442 695 Z " />
<glyph glyph-name="ncaron" unicode="&#x148;" horiz-adv-x="602" d="M402 592 L541 819 L366 819 L310 729 L256 819 L80 819 L225 592 L402 592 Z M369 541 C313 541 266 524 231 498 L231 527 L37 527 L37 0 L243 0 L243 300 C243 337 273 358 303 358 C333 358 363 337 363 300 L363 0 L569 0 L569 341 C569 457 488 541 369 541 L369 541 Z " />
<glyph glyph-name="napostrophe" unicode="&#x149;" horiz-adv-x="749" d="M6 503 L137 503 L170 778 L26 778 L6 503 Z M516 541 C460 541 413 524 378 498 L378 527 L184 527 L184 0 L390 0 L390 300 C390 337 420 358 450 358 C480 358 510 337 510 300 L510 0 L716 0 L716 341 C716 457 635 541 516 541 L516 541 Z " />
<glyph glyph-name="Eng" unicode="&#x14a;" horiz-adv-x="696" d="M442 695 L442 354 L219 695 L48 695 L48 0 L254 0 L254 337 L475 3 L475 -5 C475 -38 459 -59 421 -59 L387 -59 L387 -243 L418 -243 C569 -243 648 -149 648 -8 L648 695 L442 695 Z " />
<glyph glyph-name="eng" unicode="&#x14b;" horiz-adv-x="602" d="M369 541 C313 541 266 524 231 498 L231 527 L37 527 L37 0 L243 0 L243 300 C243 337 273 358 303 358 C333 358 363 337 363 300 L363 48 C363 9 344 -12 314 -12 L304 -12 L305 -187 L333 -187 C463 -187 569 -98 569 51 L569 341 C569 457 488 541 369 541 L369 541 Z " />
<glyph glyph-name="Omacron" unicode="&#x14c;" horiz-adv-x="795" d="M191 777 L604 777 L604 944 L191 944 L191 777 Z M398 -14 C606 -14 771 146 771 347 C771 550 606 709 398 709 C190 709 24 550 24 347 C24 146 190 -14 398 -14 L398 -14 Z M398 181 C297 181 234 251 234 348 C234 443 294 514 398 514 C502 514 561 443 561 348 C561 251 499 181 398 181 L398 181 Z " />
<glyph glyph-name="omacron" unicode="&#x14d;" horiz-adv-x="628" d="M132 625 L503 625 L503 787 L132 787 L132 625 Z M313 -14 C486 -14 609 106 609 263 C609 421 486 540 313 540 C141 540 19 421 19 263 C19 106 141 -14 313 -14 L313 -14 Z M315 169 C260 169 226 208 226 263 C226 319 260 357 315 357 C369 357 402 319 402 264 C402 207 367 169 315 169 L315 169 Z " />
<glyph glyph-name="Ohungarumlaut" unicode="&#x150;" horiz-adv-x="795" d="M263 732 L422 924 L281 1028 L138 823 L263 732 Z M530 732 L689 924 L548 1028 L405 823 L530 732 Z M398 -14 C606 -14 771 146 771 347 C771 550 606 709 398 709 C190 709 24 550 24 347 C24 146 190 -14 398 -14 L398 -14 Z M398 181 C297 181 234 251 234 348 C234 443 294 514 398 514 C502 514 561 443 561 348 C561 251 499 181 398 181 L398 181 Z " />
<glyph glyph-name="ohungarumlaut" unicode="&#x151;" horiz-adv-x="628" d="M187 550 L346 742 L205 846 L62 641 L187 550 Z M454 550 L613 742 L472 846 L329 641 L454 550 Z M313 -14 C486 -14 609 106 609 263 C609 421 486 540 313 540 C141 540 19 421 19 263 C19 106 141 -14 313 -14 L313 -14 Z M315 169 C260 169 226 208 226 263 C226 319 260 357 315 357 C369 357 402 319 402 264 C402 207 367 169 315 169 L315 169 Z " />
<glyph glyph-name="OE" unicode="&#x152;" horiz-adv-x="1096" d="M768 179 L768 259 L1017 259 L1017 438 L768 438 L768 516 L1057 516 L1057 695 L561 695 L561 670 C515 695 460 709 398 709 C190 709 24 550 24 347 C24 146 190 -14 398 -14 C460 -14 515 0 561 26 L561 0 L1062 0 L1062 179 L768 179 Z M398 181 C297 181 234 251 234 348 C234 443 294 514 398 514 C502 514 561 443 561 348 C561 251 499 181 398 181 L398 181 Z " />
<glyph glyph-name="oe" unicode="&#x153;" horiz-adv-x="984" d="M609 205 L962 205 C964 221 966 242 966 274 C966 399 865 540 686 540 C618 540 556 516 508 476 C458 516 390 540 313 540 C141 540 19 421 19 263 C19 106 141 -14 313 -14 C389 -14 455 9 505 48 C554 9 620 -14 698 -14 C832 -14 894 39 937 85 L789 186 C769 163 750 149 704 149 C658 149 625 167 609 205 L609 205 Z M603 323 C614 369 642 391 691 391 C738 391 767 365 779 323 L603 323 Z M315 169 C260 169 226 208 226 263 C226 319 260 357 315 357 C369 357 402 319 402 264 C402 207 367 169 315 169 L315 169 Z " />
<glyph glyph-name="Racute" unicode="&#x154;" horiz-adv-x="646" d="M515 822 L465 990 L133 882 L178 734 L515 822 Z M633 0 L458 276 C555 307 614 384 614 478 C614 603 514 695 356 695 L48 695 L48 0 L253 0 L253 255 L405 0 L633 0 Z M412 460 C412 425 389 405 350 405 L253 405 L253 515 L350 515 C389 515 412 495 412 460 L412 460 Z " />
<glyph glyph-name="racute" unicode="&#x155;" horiz-adv-x="381" d="M374 707 L282 857 L16 681 L98 550 L374 707 Z M231 527 L37 527 L37 0 L243 0 L243 265 C243 330 282 348 366 348 L366 541 C313 541 266 523 231 494 L231 527 Z " />
<glyph glyph-name="uni0156" unicode="&#x156;" horiz-adv-x="646" d="M253 255 L405 0 L633 0 L458 276 C555 307 614 384 614 478 C614 603 514 695 356 695 L48 695 L48 0 L253 0 L253 255 Z M412 460 C412 425 389 405 350 405 L253 405 L253 515 L350 515 C389 515 412 495 412 460 L412 460 Z M322 -47 C269 -47 227 -83 227 -137 C227 -176 248 -206 277 -221 L268 -238 L235 -291 L326 -326 L357 -279 C401 -213 415 -181 415 -139 C415 -84 375 -47 322 -47 L322 -47 Z " />
<glyph glyph-name="uni0157" unicode="&#x157;" horiz-adv-x="381" d="M231 494 L231 527 L37 527 L37 0 L243 0 L243 265 C243 330 282 348 366 348 L366 541 C313 541 266 523 231 494 L231 494 Z M136 -47 C83 -47 41 -83 41 -137 C41 -176 62 -206 91 -221 L82 -238 L49 -291 L140 -326 L171 -279 C215 -213 229 -181 229 -139 C229 -84 189 -47 136 -47 L136 -47 Z " />
<glyph glyph-name="Rcaron" unicode="&#x158;" horiz-adv-x="646" d="M400 752 L554 968 L374 968 L314 892 L254 968 L73 968 L233 752 L400 752 Z M633 0 L458 276 C555 307 614 384 614 478 C614 603 514 695 356 695 L48 695 L48 0 L253 0 L253 255 L405 0 L633 0 Z M412 460 C412 425 389 405 350 405 L253 405 L253 515 L350 515 C389 515 412 495 412 460 L412 460 Z " />
<glyph glyph-name="rcaron" unicode="&#x159;" horiz-adv-x="381" d="M291 592 L430 819 L255 819 L199 729 L145 819 L-31 819 L114 592 L291 592 Z M231 527 L37 527 L37 0 L243 0 L243 265 C243 330 282 348 366 348 L366 541 C313 541 266 523 231 494 L231 527 Z " />
<glyph glyph-name="Sacute" unicode="&#x15a;" horiz-adv-x="618" d="M179 734 L516 822 L466 990 L134 882 L179 734 Z M303 -14 C485 -14 592 77 592 204 C592 471 251 408 251 500 C251 520 267 534 304 534 C343 534 374 511 386 462 L581 537 C556 636 454 709 314 709 C139 709 45 616 45 485 C45 231 383 296 383 200 C383 176 365 163 324 163 C269 163 226 194 210 252 L15 177 C53 54 162 -14 303 -14 L303 -14 Z " />
<glyph glyph-name="sacute" unicode="&#x15b;" horiz-adv-x="511" d="M162 550 L438 707 L346 857 L80 681 L162 550 Z M255 -14 C400 -14 491 56 491 169 C491 363 230 322 230 376 C230 388 239 395 260 395 C287 395 305 381 314 354 L480 418 C459 494 377 540 263 540 C123 540 35 474 35 367 C35 186 296 218 296 156 C296 144 286 136 262 136 C217 136 189 158 177 197 L11 133 C43 37 131 -14 255 -14 L255 -14 Z " />
<glyph glyph-name="Scedilla" unicode="&#x15e;" horiz-adv-x="618" d="M592 204 C592 471 251 408 251 500 C251 520 267 534 304 534 C343 534 374 511 386 462 L581 537 C556 636 454 709 314 709 C139 709 45 616 45 485 C45 231 383 296 383 200 C383 176 365 163 324 163 C269 163 226 194 210 252 L15 177 C50 65 144 -2 267 -12 L246 -77 L255 -84 L270 -84 C292 -84 302 -96 302 -110 C302 -124 291 -134 272 -134 C253 -134 240 -126 230 -113 L165 -195 C191 -223 243 -243 301 -243 C386 -243 447 -199 447 -129 C447 -79 416 -41 380 -34 L389 -6 C518 18 592 99 592 204 L592 204 Z " />
<glyph glyph-name="scedilla" unicode="&#x15f;" horiz-adv-x="511" d="M491 169 C491 363 230 322 230 376 C230 388 239 395 260 395 C287 395 305 381 314 354 L480 418 C459 494 377 540 263 540 C123 540 35 474 35 367 C35 186 296 218 296 156 C296 144 286 136 262 136 C217 136 189 158 177 197 L11 133 C39 49 109 0 209 -12 L188 -77 L197 -84 L212 -84 C234 -84 244 -96 244 -110 C244 -124 233 -134 214 -134 C195 -134 182 -126 172 -113 L107 -195 C133 -223 185 -243 243 -243 C328 -243 389 -199 389 -129 C389 -79 358 -41 322 -34 L331 -7 C431 14 491 77 491 169 L491 169 Z " />
<glyph glyph-name="Scaron" unicode="&#x160;" horiz-adv-x="618" d="M401 752 L555 968 L375 968 L315 892 L255 968 L74 968 L234 752 L401 752 Z M251 500 C251 520 267 534 304 534 C343 534 374 511 386 462 L581 537 C556 636 454 709 314 709 C139 709 45 616 45 485 C45 231 383 296 383 200 C383 176 365 163 324 163 C269 163 226 194 210 252 L15 177 C53 54 162 -14 303 -14 C485 -14 592 77 592 204 C592 471 251 408 251 500 L251 500 Z " />
<glyph glyph-name="scaron" unicode="&#x161;" horiz-adv-x="511" d="M355 592 L494 819 L319 819 L263 729 L209 819 L33 819 L178 592 L355 592 Z M230 376 C230 388 239 395 260 395 C287 395 305 381 314 354 L480 418 C459 494 377 540 263 540 C123 540 35 474 35 367 C35 186 296 218 296 156 C296 144 286 136 262 136 C217 136 189 158 177 197 L11 133 C43 37 131 -14 255 -14 C400 -14 491 56 491 169 C491 363 230 322 230 376 L230 376 Z " />
<glyph glyph-name="uni0162" unicode="&#x162;" horiz-adv-x="617" d="M412 0 L412 511 L605 511 L605 695 L12 695 L12 511 L205 511 L205 0 L254 0 L229 -77 L238 -84 L253 -84 C275 -84 285 -96 285 -110 C285 -124 274 -134 255 -134 C236 -134 223 -126 213 -113 L148 -195 C174 -223 226 -243 284 -243 C369 -243 430 -199 430 -129 C430 -79 399 -41 363 -34 L374 0 L412 0 Z " />
<glyph glyph-name="uni0163" unicode="&#x163;" horiz-adv-x="435" d="M410 352 L410 527 L307 527 L307 669 L106 669 L106 591 C106 549 85 527 46 527 L10 527 L10 352 L94 352 L94 216 C94 124 131 54 205 21 L177 -67 L186 -74 L201 -74 C223 -74 233 -86 233 -100 C233 -114 222 -124 203 -124 C184 -124 171 -116 161 -103 L96 -185 C122 -213 174 -233 232 -233 C317 -233 378 -189 378 -119 C378 -69 347 -31 311 -24 L319 0 L410 0 L410 179 L359 179 C321 179 300 199 300 241 L300 352 L410 352 Z " />
<glyph glyph-name="Tcaron" unicode="&#x164;" horiz-adv-x="617" d="M395 752 L549 968 L369 968 L309 892 L249 968 L68 968 L228 752 L395 752 Z M605 695 L12 695 L12 511 L205 511 L205 0 L412 0 L412 511 L605 511 L605 695 Z " />
<glyph glyph-name="tcaron" unicode="&#x165;" horiz-adv-x="435" d="M328 546 L459 546 L492 821 L348 821 L328 546 Z M315 0 L410 0 L410 179 L359 179 C321 179 300 199 300 241 L300 352 L410 352 L410 527 L307 527 L307 669 L106 669 L106 591 C106 549 85 527 46 527 L10 527 L10 352 L94 352 L94 216 C94 87 167 0 315 0 L315 0 Z " />
<glyph glyph-name="Tbar" unicode="&#x166;" horiz-adv-x="625" d="M609 511 L609 695 L16 695 L16 511 L209 511 L209 356 L113 356 L113 216 L209 216 L209 0 L416 0 L416 216 L512 216 L512 356 L416 356 L416 511 L609 511 Z " />
<glyph glyph-name="tbar" unicode="&#x167;" horiz-adv-x="437" d="M412 352 L412 527 L309 527 L309 669 L108 669 L108 591 C108 549 87 527 48 527 L12 527 L12 352 L96 352 L96 335 L35 335 L35 195 L97 195 C104 78 177 0 317 0 L412 0 L412 179 L361 179 C342 179 327 184 317 195 L389 195 L389 335 L302 335 L302 352 L412 352 Z " />
<glyph glyph-name="Utilde" unicode="&#x168;" horiz-adv-x="678" d="M293 791 C337 791 360 745 431 745 C522 745 573 818 593 892 L454 951 C446 924 431 913 411 913 C370 913 343 959 272 959 C178 959 126 880 109 812 L248 753 C255 780 271 791 293 791 L293 791 Z M431 695 L431 281 C431 219 401 181 340 181 C279 181 249 219 249 281 L249 695 L41 695 L41 281 C41 120 141 -14 340 -14 C539 -14 637 120 637 281 L637 695 L431 695 Z " />
<glyph glyph-name="utilde" unicode="&#x169;" horiz-adv-x="595" d="M246 646 C285 646 314 600 379 600 C466 600 504 673 524 747 L385 806 C378 779 361 768 345 768 C302 768 276 814 211 814 C123 814 82 737 65 667 L203 608 C210 635 228 646 246 646 L246 646 Z M352 527 L352 226 C351 187 330 169 296 169 C260 169 239 194 239 224 L239 527 L33 527 L33 196 C33 80 98 -14 232 -14 C283 -14 329 3 365 31 L365 0 L558 0 L558 527 L352 527 Z " />
<glyph glyph-name="Umacron" unicode="&#x16a;" horiz-adv-x="678" d="M546 944 L133 944 L133 777 L546 777 L546 944 Z M431 695 L431 281 C431 219 401 181 340 181 C279 181 249 219 249 281 L249 695 L41 695 L41 281 C41 120 141 -14 340 -14 C539 -14 637 120 637 281 L637 695 L431 695 Z " />
<glyph glyph-name="umacron" unicode="&#x16b;" horiz-adv-x="595" d="M480 788 L109 788 L109 626 L480 626 L480 788 Z M352 527 L352 226 C351 187 330 169 296 169 C260 169 239 194 239 224 L239 527 L33 527 L33 196 C33 80 98 -14 232 -14 C283 -14 329 3 365 31 L365 0 L558 0 L558 527 L352 527 Z " />
<glyph glyph-name="Uring" unicode="&#x16e;" horiz-adv-x="678" d="M340 672 C434 672 498 733 498 823 C498 910 434 973 340 973 C247 973 181 910 181 823 C181 733 247 672 340 672 L340 672 Z M340 862 C364 862 381 846 381 823 C381 799 364 783 340 783 C315 783 298 799 298 823 C298 846 315 862 340 862 L340 862 Z M431 695 L431 281 C431 219 401 181 340 181 C279 181 249 219 249 281 L249 695 L41 695 L41 281 C41 120 141 -14 340 -14 C539 -14 637 120 637 281 L637 695 L431 695 Z " />
<glyph glyph-name="uring" unicode="&#x16f;" horiz-adv-x="595" d="M295 557 C389 557 453 618 453 708 C453 795 389 858 295 858 C202 858 136 795 136 708 C136 618 202 557 295 557 L295 557 Z M295 747 C319 747 336 731 336 708 C336 684 319 668 295 668 C270 668 253 684 253 708 C253 731 270 747 295 747 L295 747 Z M352 527 L352 226 C351 187 330 169 296 169 C260 169 239 194 239 224 L239 527 L33 527 L33 196 C33 80 98 -14 232 -14 C283 -14 329 3 365 31 L365 0 L558 0 L558 527 L352 527 Z " />
<glyph glyph-name="Uhungarumlaut" unicode="&#x170;" horiz-adv-x="678" d="M364 924 L223 1028 L80 823 L205 732 L364 924 Z M472 732 L631 924 L490 1028 L347 823 L472 732 Z M431 695 L431 281 C431 219 401 181 340 181 C279 181 249 219 249 281 L249 695 L41 695 L41 281 C41 120 141 -14 340 -14 C539 -14 637 120 637 281 L637 695 L431 695 Z " />
<glyph glyph-name="uhungarumlaut" unicode="&#x171;" horiz-adv-x="595" d="M323 743 L182 847 L39 642 L164 551 L323 743 Z M431 551 L590 743 L449 847 L306 642 L431 551 Z M352 226 C351 187 330 169 296 169 C260 169 239 194 239 224 L239 527 L33 527 L33 196 C33 80 98 -14 232 -14 C283 -14 329 3 365 31 L365 0 L558 0 L558 527 L352 527 L352 226 Z " />
<glyph glyph-name="Uogonek" unicode="&#x172;" horiz-adv-x="678" d="M431 695 L431 281 C431 219 401 181 340 181 C279 181 249 219 249 281 L249 695 L41 695 L41 281 C41 133 126 7 295 -12 C261 -45 244 -79 244 -116 C244 -187 301 -232 384 -232 C440 -232 488 -215 514 -187 L443 -92 C435 -101 427 -104 418 -104 C406 -104 397 -96 397 -82 C397 -67 404 -56 427 -32 L469 9 C581 54 637 160 637 281 L637 695 L431 695 Z " />
<glyph glyph-name="uogonek" unicode="&#x173;" horiz-adv-x="595" d="M529 -104 C521 -113 513 -116 504 -116 C492 -116 483 -108 483 -94 C483 -79 490 -68 513 -44 L558 0 L558 527 L352 527 L352 226 C351 187 330 169 296 169 C260 169 239 194 239 224 L239 527 L33 527 L33 196 C33 80 98 -14 232 -14 C283 -14 329 3 365 31 L365 0 L408 0 C357 -40 330 -82 330 -128 C330 -199 387 -244 470 -244 C526 -244 574 -227 600 -199 L529 -104 Z " />
<glyph glyph-name="Wcircumflex" unicode="&#x174;" horiz-adv-x="952" d="M475 828 L535 752 L715 752 L561 968 L394 968 L234 752 L415 752 L475 828 Z M751 695 L676 243 L589 695 L364 695 L277 247 L202 695 L-2 695 L151 0 L396 0 L477 398 L556 0 L802 0 L955 695 L751 695 Z " />
<glyph glyph-name="wcircumflex" unicode="&#x175;" horiz-adv-x="841" d="M419 683 L475 593 L650 593 L511 820 L334 820 L189 593 L365 593 L419 683 Z M640 527 L589 225 L539 527 L310 527 L261 223 L209 527 L0 527 L131 0 L375 0 L425 273 L477 0 L720 0 L849 527 L640 527 Z " />
<glyph glyph-name="Ycircumflex" unicode="&#x176;" horiz-adv-x="683" d="M343 828 L403 752 L583 752 L429 968 L262 968 L102 752 L283 752 L343 828 Z M694 695 L463 695 L342 469 L220 695 L-11 695 L239 281 L239 0 L445 0 L445 283 L694 695 Z " />
<glyph glyph-name="ycircumflex" unicode="&#x177;" horiz-adv-x="585" d="M292 683 L348 593 L523 593 L384 820 L207 820 L62 593 L238 593 L292 683 Z M377 527 L283 168 L211 527 L-1 527 L148 0 L221 0 L154 -179 L356 -179 L589 527 L377 527 Z " />
<glyph glyph-name="Ydieresis" unicode="&#x178;" horiz-adv-x="683" d="M200 739 C270 739 324 788 324 858 C324 930 272 981 204 981 C134 981 79 934 79 862 C79 788 134 739 200 739 L200 739 Z M482 739 C552 739 606 788 606 858 C606 930 553 981 485 981 C415 981 360 934 360 862 C360 788 415 739 482 739 L482 739 Z M694 695 L463 695 L342 469 L220 695 L-11 695 L239 281 L239 0 L445 0 L445 283 L694 695 Z " />
<glyph glyph-name="Zacute" unicode="&#x179;" horiz-adv-x="613" d="M508 822 L458 990 L126 882 L171 734 L508 822 Z M578 185 L297 185 L579 556 L579 695 L36 695 L36 515 L307 515 L31 140 L31 0 L583 0 L578 185 Z " />
<glyph glyph-name="zacute" unicode="&#x17a;" horiz-adv-x="519" d="M429 707 L337 857 L71 681 L153 550 L429 707 Z M288 165 L483 377 L483 527 L36 527 L36 362 L229 362 L28 143 L28 0 L491 0 L491 165 L288 165 Z " />
<glyph glyph-name="Zdotaccent" unicode="&#x17b;" horiz-adv-x="613" d="M306 739 C376 739 430 789 430 858 C430 931 377 981 309 981 C240 981 184 934 184 862 C184 789 240 739 306 739 L306 739 Z M578 185 L297 185 L579 556 L579 695 L36 695 L36 515 L307 515 L31 140 L31 0 L583 0 L578 185 Z " />
<glyph glyph-name="zdotaccent" unicode="&#x17c;" horiz-adv-x="519" d="M255 586 C324 586 378 635 378 705 C378 775 324 826 255 826 C186 826 132 775 132 705 C132 635 186 586 255 586 L255 586 Z M288 165 L483 377 L483 527 L36 527 L36 362 L229 362 L28 143 L28 0 L491 0 L491 165 L288 165 Z " />
<glyph glyph-name="Zcaron" unicode="&#x17d;" horiz-adv-x="613" d="M393 752 L547 968 L367 968 L307 892 L247 968 L66 968 L226 752 L393 752 Z M578 185 L297 185 L579 556 L579 695 L36 695 L36 515 L307 515 L31 140 L31 0 L583 0 L578 185 Z " />
<glyph glyph-name="zcaron" unicode="&#x17e;" horiz-adv-x="519" d="M346 592 L485 819 L310 819 L254 729 L200 819 L24 819 L169 592 L346 592 Z M288 165 L483 377 L483 527 L36 527 L36 362 L229 362 L28 143 L28 0 L491 0 L491 165 L288 165 Z " />
<glyph glyph-name="uni01EA" unicode="&#x1ea;" horiz-adv-x="795" d="M520 5 C667 54 771 188 771 347 C771 550 606 709 398 709 C190 709 24 550 24 347 C24 162 165 11 351 -11 C313 -46 293 -83 293 -122 C293 -193 350 -238 433 -238 C489 -238 537 -221 563 -193 L492 -98 C484 -107 476 -110 467 -110 C455 -110 446 -102 446 -88 C446 -73 453 -62 476 -38 L520 5 Z M234 348 C234 443 294 514 398 514 C502 514 561 443 561 348 C561 251 499 181 398 181 C297 181 234 251 234 348 L234 348 Z " />
<glyph glyph-name="uni01EB" unicode="&#x1eb;" horiz-adv-x="628" d="M432 7 C540 48 609 145 609 263 C609 421 486 540 313 540 C141 540 19 421 19 263 C19 122 117 11 261 -10 C224 -45 205 -81 205 -120 C205 -191 262 -236 345 -236 C401 -236 449 -219 475 -191 L404 -96 C396 -105 388 -108 379 -108 C367 -108 358 -100 358 -86 C358 -71 365 -60 388 -36 L432 7 Z M226 263 C226 319 260 357 315 357 C369 357 402 319 402 264 C402 207 367 169 315 169 C260 169 226 208 226 263 L226 263 Z " />
<glyph glyph-name="AEacute" unicode="&#x1fc;" horiz-adv-x="970" d="M779 822 L729 990 L397 882 L442 734 L779 822 Z M642 179 L642 259 L891 259 L891 438 L642 438 L642 516 L931 516 L931 695 L265 695 L-19 0 L196 0 L233 95 L435 95 L435 0 L936 0 L936 179 L642 179 Z M302 270 L399 516 L435 516 L435 270 L302 270 Z " />
<glyph glyph-name="aeacute" unicode="&#x1fd;" horiz-adv-x="1021" d="M685 708 L593 858 L327 682 L409 551 L685 708 Z M644 205 L997 205 C999 221 1001 242 1001 274 C1001 399 920 540 751 540 C686 540 638 520 604 487 L604 527 L414 527 L414 497 C381 525 338 540 284 540 C130 540 20 421 20 263 C20 105 130 -14 284 -14 C338 -14 381 1 414 29 L414 0 L604 0 L604 37 C640 5 694 -14 772 -14 C902 -14 958 56 992 114 L824 186 C804 163 777 149 732 149 C691 149 659 167 644 205 L644 205 Z M638 323 C649 369 677 391 726 391 C773 391 802 365 814 323 L638 323 Z M315 167 C262 167 225 207 225 263 C225 319 262 359 315 359 C371 359 407 320 407 263 C407 206 371 167 315 167 L315 167 Z " />
<glyph glyph-name="Oslashacute" unicode="&#x1fe;" horiz-adv-x="798" d="M600 822 L550 990 L218 882 L263 734 L600 822 Z M782 619 L664 734 L590 659 C535 691 469 709 399 709 C191 709 25 550 25 347 C25 272 48 203 88 146 L16 73 L135 -39 L208 36 C264 4 329 -14 399 -14 C607 -14 772 146 772 347 C772 421 750 490 711 547 L782 619 Z M399 181 C298 181 235 251 235 348 C235 443 295 514 399 514 C503 514 562 443 562 348 C562 251 500 181 399 181 L399 181 Z " />
<glyph glyph-name="oslashacute" unicode="&#x1ff;" horiz-adv-x="653" d="M503 707 L411 857 L145 681 L227 550 L503 707 Z M653 448 L560 555 L491 496 C444 524 388 540 324 540 C152 540 30 421 30 263 C30 214 42 168 64 129 L-1 74 L95 -33 L164 27 C209 1 264 -14 324 -14 C497 -14 620 106 620 263 C620 310 609 354 589 393 L653 448 Z M326 169 C271 169 237 208 237 263 C237 319 271 357 326 357 C380 357 413 319 413 264 C413 207 378 169 326 169 L326 169 Z " />
<glyph glyph-name="uni0218" unicode="&#x218;" horiz-adv-x="618" d="M251 500 C251 520 267 534 304 534 C343 534 374 511 386 462 L581 537 C556 636 454 709 314 709 C139 709 45 616 45 485 C45 231 383 296 383 200 C383 176 365 163 324 163 C269 163 226 194 210 252 L15 177 C53 54 162 -14 303 -14 C485 -14 592 77 592 204 C592 471 251 408 251 500 L251 500 Z M304 -47 C251 -47 209 -83 209 -137 C209 -176 230 -206 259 -221 L250 -238 L217 -291 L308 -326 L339 -279 C383 -213 397 -181 397 -139 C397 -84 357 -47 304 -47 L304 -47 Z " />
<glyph glyph-name="uni0219" unicode="&#x219;" horiz-adv-x="511" d="M230 376 C230 388 239 395 260 395 C287 395 305 381 314 354 L480 418 C459 494 377 540 263 540 C123 540 35 474 35 367 C35 186 296 218 296 156 C296 144 286 136 262 136 C217 136 189 158 177 197 L11 133 C43 37 131 -14 255 -14 C400 -14 491 56 491 169 C491 363 230 322 230 376 L230 376 Z M272 -47 C219 -47 177 -83 177 -137 C177 -176 198 -206 227 -221 L218 -238 L185 -291 L276 -326 L307 -279 C351 -213 365 -181 365 -139 C365 -84 325 -47 272 -47 L272 -47 Z " />
<glyph glyph-name="uni021A" unicode="&#x21a;" horiz-adv-x="617" d="M605 695 L12 695 L12 511 L205 511 L205 0 L412 0 L412 511 L605 511 L605 695 Z M309 -47 C256 -47 214 -83 214 -137 C214 -176 235 -206 264 -221 L255 -238 L222 -291 L313 -326 L344 -279 C388 -213 402 -181 402 -139 C402 -84 362 -47 309 -47 L309 -47 Z " />
<glyph glyph-name="uni021B" unicode="&#x21b;" horiz-adv-x="435" d="M410 352 L410 527 L307 527 L307 669 L106 669 L106 591 C106 549 85 527 46 527 L10 527 L10 352 L94 352 L94 216 C94 87 167 0 315 0 L410 0 L410 179 L359 179 C321 179 300 199 300 241 L300 352 L410 352 Z M261 -37 C208 -37 166 -73 166 -127 C166 -166 187 -196 216 -211 L207 -228 L174 -281 L265 -316 L296 -269 C340 -203 354 -171 354 -129 C354 -74 314 -37 261 -37 L261 -37 Z " />
<glyph glyph-name="uni0237" unicode="&#x237;" horiz-adv-x="284" d="M-31 -187 L6 -187 C141 -187 247 -98 247 61 L247 527 L41 527 L41 58 C41 13 15 -12 -22 -12 L-32 -12 L-31 -187 Z " />
<glyph glyph-name="circumflex" unicode="&#x2c6;" horiz-adv-x="425" d="M491 593 L352 820 L175 820 L30 593 L206 593 L260 683 L316 593 L491 593 Z " />
<glyph glyph-name="caron" unicode="&#x2c7;" horiz-adv-x="519" d="M316 820 L260 730 L206 820 L30 820 L175 593 L352 593 L491 820 L316 820 Z " />
<glyph glyph-name="breve" unicode="&#x2d8;" horiz-adv-x="453" d="M246 593 C382 593 462 681 462 820 L302 820 C302 765 278 743 246 743 C214 743 190 765 190 820 L30 820 C30 681 110 593 246 593 L246 593 Z " />
<glyph glyph-name="dotaccent" unicode="&#x2d9;" horiz-adv-x="258" d="M153 587 C222 587 276 636 276 706 C276 776 222 827 153 827 C84 827 30 776 30 706 C30 636 84 587 153 587 L153 587 Z " />
<glyph glyph-name="ring" unicode="&#x2da;" horiz-adv-x="335" d="M189 557 C283 557 347 618 347 708 C347 795 283 858 189 858 C96 858 30 795 30 708 C30 618 96 557 189 557 L189 557 Z M189 668 C164 668 147 684 147 708 C147 731 164 747 189 747 C213 747 230 731 230 708 C230 684 213 668 189 668 L189 668 Z " />
<glyph glyph-name="ogonek" unicode="&#x2db;" horiz-adv-x="330" d="M170 -243 C226 -243 274 -226 300 -198 L229 -103 C221 -112 213 -115 204 -115 C192 -115 183 -107 183 -93 C183 -78 190 -67 213 -43 L258 1 L186 55 L131 18 C65 -27 30 -75 30 -127 C30 -198 87 -243 170 -243 L170 -243 Z " />
<glyph glyph-name="tilde" unicode="&#x2dc;" horiz-adv-x="521" d="M344 600 C431 600 469 673 489 747 L350 806 C343 779 326 768 310 768 C267 768 241 814 176 814 C88 814 47 737 30 667 L168 608 C175 635 193 646 211 646 C250 646 279 600 344 600 L344 600 Z " />
<glyph glyph-name="hungarumlaut" unicode="&#x2dd;" horiz-adv-x="483" d="M158 551 L317 743 L176 847 L33 642 L158 551 Z M425 551 L584 743 L443 847 L300 642 L425 551 Z " />
<glyph glyph-name="gravecomb" unicode="&#x300;" d="M-112 551 L-30 682 L-296 858 L-388 708 L-112 551 Z " />
<glyph glyph-name="acutecomb" unicode="&#x301;" d="M-306 551 L-30 708 L-122 858 L-388 682 L-306 551 Z " />
<glyph glyph-name="uni0302" unicode="&#x302;" d="M-30 593 L-169 820 L-346 820 L-491 593 L-315 593 L-261 683 L-205 593 L-30 593 Z " />
<glyph glyph-name="tildecomb" unicode="&#x303;" d="M-175 600 C-88 600 -50 673 -30 747 L-169 806 C-176 779 -193 768 -209 768 C-252 768 -278 814 -343 814 C-431 814 -472 737 -489 667 L-351 608 C-344 635 -326 646 -308 646 C-269 646 -240 600 -175 600 L-175 600 Z " />
<glyph glyph-name="uni0304" unicode="&#x304;" d="M-401 626 L-30 626 L-30 788 L-401 788 L-401 626 Z " />
<glyph glyph-name="uni0306" unicode="&#x306;" d="M-223 593 C-87 593 -7 681 -7 820 L-167 820 C-167 765 -191 743 -223 743 C-255 743 -279 765 -279 820 L-439 820 C-439 681 -359 593 -223 593 L-223 593 Z " />
<glyph glyph-name="uni0307" unicode="&#x307;" d="M-153 587 C-84 587 -30 636 -30 706 C-30 776 -84 827 -153 827 C-222 827 -276 776 -276 706 C-276 636 -222 587 -153 587 L-153 587 Z " />
<glyph glyph-name="uni0308" unicode="&#x308;" d="M-421 590 C-354 590 -302 637 -302 704 C-302 773 -352 822 -417 822 C-484 822 -537 777 -537 708 C-537 637 -484 590 -421 590 L-421 590 Z M-149 590 C-82 590 -30 637 -30 704 C-30 773 -81 822 -146 822 C-213 822 -266 777 -266 708 C-266 637 -213 590 -149 590 L-149 590 Z " />
<glyph glyph-name="uni030A" unicode="&#x30a;" d="M-188 557 C-94 557 -30 618 -30 708 C-30 795 -94 858 -188 858 C-281 858 -347 795 -347 708 C-347 618 -281 557 -188 557 L-188 557 Z M-188 668 C-213 668 -230 684 -230 708 C-230 731 -213 747 -188 747 C-164 747 -147 731 -147 708 C-147 684 -164 668 -188 668 L-188 668 Z " />
<glyph glyph-name="uni030B" unicode="&#x30b;" d="M-456 551 L-297 743 L-438 847 L-581 642 L-456 551 Z M-189 551 L-30 743 L-171 847 L-314 642 L-189 551 Z " />
<glyph glyph-name="uni030C" unicode="&#x30c;" d="M-205 820 L-261 730 L-315 820 L-491 820 L-346 593 L-169 593 L-30 820 L-205 820 Z " />
<glyph glyph-name="uni0326" unicode="&#x326;" d="M-121 -47 C-174 -47 -216 -83 -216 -137 C-216 -176 -195 -206 -166 -221 L-175 -238 L-208 -291 L-117 -326 L-86 -279 C-42 -213 -28 -181 -28 -139 C-28 -84 -68 -47 -121 -47 L-121 -47 Z " />
<glyph glyph-name="uni0327" unicode="&#x327;" d="M-176 -243 C-91 -243 -30 -199 -30 -129 C-30 -79 -61 -41 -97 -34 L-79 22 L-199 22 L-231 -77 L-222 -84 L-207 -84 C-185 -84 -175 -96 -175 -110 C-175 -124 -186 -134 -205 -134 C-224 -134 -237 -126 -247 -113 L-312 -195 C-286 -223 -234 -243 -176 -243 L-176 -243 Z " />
<glyph glyph-name="uni0328" unicode="&#x328;" d="M-160 -243 C-104 -243 -56 -226 -30 -198 L-101 -103 C-109 -112 -117 -115 -126 -115 C-138 -115 -147 -107 -147 -93 C-147 -78 -140 -67 -117 -43 L-72 1 L-144 55 L-199 18 C-265 -27 -300 -75 -300 -127 C-300 -198 -243 -243 -160 -243 L-160 -243 Z " />
<glyph glyph-name="uni0335" unicode="&#x335;" d="M-429 217 L-30 217 L-30 357 L-429 357 L-429 217 Z " />
<glyph glyph-name="uni0336" unicode="&#x336;" d="M-749 256 L-30 256 L-30 416 L-749 416 L-749 256 Z " />
<glyph glyph-name="uni0337" unicode="&#x337;" d="M-402 167 L-40 366 L-116 494 L-478 296 L-402 167 Z " />
<glyph glyph-name="uni0338" unicode="&#x338;" d="M-265 456 L-172 349 L-30 471 L-123 578 L-265 456 Z M-556 206 L-684 97 L-588 -10 L-464 97 L-556 206 Z " />
<glyph glyph-name="Wgrave" unicode="&#x1e80;" horiz-adv-x="952" d="M666 882 L334 990 L284 822 L621 734 L666 882 Z M751 695 L676 243 L589 695 L364 695 L277 247 L202 695 L-2 695 L151 0 L396 0 L477 398 L556 0 L802 0 L955 695 L751 695 Z " />
<glyph glyph-name="wgrave" unicode="&#x1e81;" horiz-adv-x="841" d="M591 682 L325 858 L233 708 L509 551 L591 682 Z M640 527 L589 225 L539 527 L310 527 L261 223 L209 527 L0 527 L131 0 L375 0 L425 273 L477 0 L720 0 L849 527 L640 527 Z " />
<glyph glyph-name="Wacute" unicode="&#x1e82;" horiz-adv-x="952" d="M676 822 L626 990 L294 882 L339 734 L676 822 Z M751 695 L676 243 L589 695 L364 695 L277 247 L202 695 L-2 695 L151 0 L396 0 L477 398 L556 0 L802 0 L955 695 L751 695 Z " />
<glyph glyph-name="wacute" unicode="&#x1e83;" horiz-adv-x="841" d="M594 708 L502 858 L236 682 L318 551 L594 708 Z M640 527 L589 225 L539 527 L310 527 L261 223 L209 527 L0 527 L131 0 L375 0 L425 273 L477 0 L720 0 L849 527 L640 527 Z " />
<glyph glyph-name="Wdieresis" unicode="&#x1e84;" horiz-adv-x="952" d="M332 739 C402 739 456 788 456 858 C456 930 404 981 336 981 C266 981 211 934 211 862 C211 788 266 739 332 739 L332 739 Z M614 739 C684 739 738 788 738 858 C738 930 685 981 617 981 C547 981 492 934 492 862 C492 788 547 739 614 739 L614 739 Z M751 695 L676 243 L589 695 L364 695 L277 247 L202 695 L-2 695 L151 0 L396 0 L477 398 L556 0 L802 0 L955 695 L751 695 Z " />
<glyph glyph-name="wdieresis" unicode="&#x1e85;" horiz-adv-x="841" d="M282 590 C349 590 401 637 401 704 C401 773 351 822 286 822 C219 822 166 777 166 708 C166 637 219 590 282 590 L282 590 Z M554 590 C621 590 673 637 673 704 C673 773 622 822 557 822 C490 822 437 777 437 708 C437 637 490 590 554 590 L554 590 Z M640 527 L589 225 L539 527 L310 527 L261 223 L209 527 L0 527 L131 0 L375 0 L425 273 L477 0 L720 0 L849 527 L640 527 Z " />
<glyph glyph-name="uni1E9E" unicode="&#x1e9e;" horiz-adv-x="664" d="M507 373 L617 534 C579 636 486 705 334 705 C161 705 42 604 42 447 L42 0 L249 0 L249 447 C249 496 277 528 338 528 C368 528 389 521 406 509 L323 382 L323 265 L361 265 C407 265 434 245 434 208 C434 174 417 155 376 155 C363 155 348 157 333 162 L276 8 C298 -2 333 -10 397 -10 C548 -10 641 64 641 189 C641 280 587 346 507 373 L507 373 Z " />
<glyph glyph-name="Ygrave" unicode="&#x1ef2;" horiz-adv-x="683" d="M534 882 L202 990 L152 822 L489 734 L534 882 Z M694 695 L463 695 L342 469 L220 695 L-11 695 L239 281 L239 0 L445 0 L445 283 L694 695 Z " />
<glyph glyph-name="ygrave" unicode="&#x1ef3;" horiz-adv-x="585" d="M464 682 L198 858 L106 708 L382 551 L464 682 Z M377 527 L283 168 L211 527 L-1 527 L148 0 L221 0 L154 -179 L356 -179 L589 527 L377 527 Z " />
<glyph glyph-name="uni1EF8" unicode="&#x1ef8;" horiz-adv-x="683" d="M296 791 C340 791 363 745 434 745 C525 745 576 818 596 892 L457 951 C449 924 434 913 414 913 C373 913 346 959 275 959 C181 959 129 880 112 812 L251 753 C258 780 274 791 296 791 L296 791 Z M694 695 L463 695 L342 469 L220 695 L-11 695 L239 281 L239 0 L445 0 L445 283 L694 695 Z " />
<glyph glyph-name="uni1EF9" unicode="&#x1ef9;" horiz-adv-x="585" d="M244 646 C283 646 312 600 377 600 C464 600 502 673 522 747 L383 806 C376 779 359 768 343 768 C300 768 274 814 209 814 C121 814 80 737 63 667 L201 608 C208 635 226 646 244 646 L244 646 Z M377 527 L283 168 L211 527 L-1 527 L148 0 L221 0 L154 -179 L356 -179 L589 527 L377 527 Z " />
<glyph glyph-name="endash" unicode="&#x2013;" horiz-adv-x="498" d="M43 158 L455 158 L455 324 L43 324 L43 158 Z " />
<glyph glyph-name="emdash" unicode="&#x2014;" horiz-adv-x="732" d="M43 159 L689 159 L689 325 L43 325 L43 159 Z " />
<glyph glyph-name="quoteleft" unicode="&#x2018;" horiz-adv-x="249" d="M150 561 L221 715 L111 715 L43 567 C25 528 17 496 17 465 C17 401 65 356 123 356 C181 356 229 401 229 462 C229 518 196 552 150 561 L150 561 Z " />
<glyph glyph-name="quoteright" unicode="&#x2019;" horiz-adv-x="253" d="M132 725 C74 725 26 680 26 619 C26 563 59 529 105 520 L34 366 L144 366 L212 514 C230 553 238 585 238 616 C238 680 190 725 132 725 L132 725 Z " />
<glyph glyph-name="quotesinglbase" unicode="&#x201a;" horiz-adv-x="256" d="M127 195 C69 195 21 150 21 89 C21 33 54 -1 100 -10 L29 -164 L139 -164 L207 -16 C225 23 233 55 233 86 C233 150 185 195 127 195 L127 195 Z " />
<glyph glyph-name="quotedblleft" unicode="&#x201c;" horiz-adv-x="490" d="M150 561 L221 715 L111 715 L43 567 C25 528 17 496 17 465 C17 401 65 356 123 356 C181 356 229 401 229 462 C229 518 196 552 150 561 L150 561 Z M391 561 L462 715 L352 715 L284 567 C266 528 258 496 258 465 C258 401 306 356 364 356 C422 356 470 401 470 462 C470 518 437 552 391 561 L391 561 Z " />
<glyph glyph-name="quotedblright" unicode="&#x201d;" horiz-adv-x="494" d="M132 725 C74 725 26 680 26 619 C26 563 59 529 105 520 L34 366 L144 366 L212 514 C230 553 238 585 238 616 C238 680 190 725 132 725 L132 725 Z M373 725 C315 725 267 680 267 619 C267 563 300 529 346 520 L275 366 L385 366 L453 514 C471 553 479 585 479 616 C479 680 431 725 373 725 L373 725 Z " />
<glyph glyph-name="quotedblbase" unicode="&#x201e;" horiz-adv-x="497" d="M127 195 C69 195 21 150 21 89 C21 33 54 -1 100 -10 L29 -164 L139 -164 L207 -16 C225 23 233 55 233 86 C233 150 185 195 127 195 L127 195 Z M368 195 C310 195 262 150 262 89 C262 33 295 -1 341 -10 L270 -164 L380 -164 L448 -16 C466 23 474 55 474 86 C474 150 426 195 368 195 L368 195 Z " />
<glyph glyph-name="dagger" unicode="&#x2020;" horiz-adv-x="415" d="M384 610 L282 610 L282 731 L132 731 L132 610 L31 610 L31 470 L132 470 L132 254 L282 254 L282 470 L384 470 L384 610 Z " />
<glyph glyph-name="daggerdbl" unicode="&#x2021;" horiz-adv-x="443" d="M398 520 L398 660 L296 660 L296 731 L146 731 L146 660 L45 660 L45 520 L146 520 L146 465 L45 465 L45 325 L146 325 L146 254 L296 254 L296 325 L398 325 L398 465 L296 465 L296 520 L398 520 Z " />
<glyph glyph-name="bullet" unicode="&#x2022;" horiz-adv-x="426" d="M213 169 C309 169 382 240 382 336 C382 436 309 508 213 508 C117 508 44 436 44 336 C44 240 117 169 213 169 L213 169 Z " />
<glyph glyph-name="ellipsis" unicode="&#x2026;" horiz-adv-x="728" d="M127 -10 C188 -10 234 36 234 95 C234 158 188 204 127 204 C67 204 21 158 21 95 C21 36 67 -10 127 -10 L127 -10 Z M364 -10 C425 -10 471 36 471 95 C471 158 425 204 364 204 C304 204 258 158 258 95 C258 36 304 -10 364 -10 L364 -10 Z M600 -10 C661 -10 707 36 707 95 C707 158 661 204 600 204 C541 204 495 158 495 95 C495 36 541 -10 600 -10 L600 -10 Z " />
<glyph glyph-name="perthousand" unicode="&#x2030;" horiz-adv-x="1107" d="M186 375 C282 375 352 449 352 540 C352 631 282 705 186 705 C91 705 20 631 20 540 C20 449 91 375 186 375 L186 375 Z M111 0 L265 1 L656 696 L499 695 L111 0 Z M186 501 C165 501 150 518 150 540 C150 562 164 579 186 579 C209 579 222 562 222 540 C222 518 208 501 186 501 L186 501 Z M576 -10 C672 -10 742 64 742 155 C742 246 672 320 576 320 C481 320 410 246 410 155 C410 64 481 -10 576 -10 L576 -10 Z M923 -10 C1019 -10 1089 64 1089 155 C1089 246 1019 320 923 320 C828 320 757 246 757 155 C757 64 828 -10 923 -10 L923 -10 Z M576 116 C555 116 540 133 540 155 C540 177 554 194 576 194 C599 194 612 177 612 155 C612 133 598 116 576 116 L576 116 Z M923 116 C902 116 887 133 887 155 C887 177 901 194 923 194 C946 194 959 177 959 155 C959 133 945 116 923 116 L923 116 Z " />
<glyph glyph-name="guilsinglleft" unicode="&#x2039;" horiz-adv-x="354" d="M135 63 L324 63 L204 238 L324 413 L135 413 L15 238 L135 63 Z " />
<glyph glyph-name="guilsinglright" unicode="&#x203a;" horiz-adv-x="354" d="M30 63 L219 63 L339 238 L219 413 L30 413 L150 238 L30 63 Z " />
<glyph glyph-name="fraction" unicode="&#x2044;" horiz-adv-x="416" d="M-20 0 L125 0 L439 695 L292 695 L-20 0 Z " />
<glyph glyph-name="uni2074" unicode="&#x2074;" horiz-adv-x="339" d="M312 491 L287 491 L287 695 L161 695 L20 497 L20 402 L160 402 L160 347 L287 347 L287 402 L312 402 L312 491 Z M161 491 L115 491 L161 556 L161 491 Z " />
<glyph glyph-name="Euro" unicode="&#x20ac;" horiz-adv-x="764" d="M434 181 C406 181 380 187 359 199 L427 199 L439 329 L289 329 C289 330 289 330 289 331 L289 333 L441 333 L452 464 L360 464 C381 476 407 482 436 482 C508 482 549 447 567 400 L744 518 C694 601 591 677 441 677 C285 677 157 593 104 464 L47 464 L35 333 L79 333 C79 332 79 332 79 331 L79 329 L34 329 L22 199 L104 199 C156 70 284 -14 438 -14 C588 -14 693 62 744 146 L567 263 C548 213 503 181 434 181 L434 181 Z " />
<glyph glyph-name="trademark" unicode="&#x2122;" horiz-adv-x="676" d="M272 654 L23 654 L23 562 L96 562 L96 376 L199 376 L199 562 L272 562 L272 654 Z M638 376 L615 654 L494 654 L465 537 L436 654 L314 654 L291 376 L387 376 L396 485 L422 382 L507 382 L533 483 L542 376 L638 376 Z " />
<glyph glyph-name="minus" unicode="&#x2212;" horiz-adv-x="520" d="M47 256 L473 256 L473 428 L47 428 L47 256 Z " />
<glyph glyph-name="approxequal" unicode="&#x2248;" horiz-adv-x="542" d="M367 335 C423 335 476 366 513 427 L418 538 C399 509 370 500 340 500 C279 500 259 550 175 550 C119 550 66 519 29 458 L124 347 C143 376 172 385 202 385 C263 385 283 335 367 335 L367 335 Z M367 99 C423 99 476 130 513 191 L418 302 C399 273 370 264 340 264 C279 264 259 314 175 314 C119 314 66 283 29 222 L124 111 C143 140 172 149 202 149 C263 149 283 99 367 99 L367 99 Z " />
<glyph glyph-name="notequal" unicode="&#x2260;" horiz-adv-x="520" d="M473 352 L473 524 L418 524 L440 594 L251 594 L229 524 L47 524 L47 352 L175 352 L156 294 L47 294 L47 122 L102 122 L80 52 L269 52 L291 122 L473 122 L473 294 L345 294 L364 352 L473 352 Z " />
<glyph glyph-name="uniF8FF" unicode="&#xf8ff;" horiz-adv-x="2307" d="M561 199 C585 199 604 202 616 209 L616 284 C610 280 602 277 592 277 C581 277 574 282 574 294 L574 342 L616 342 L616 421 L565 421 C535 421 507 404 507 404 L506 408 C544 425 573 470 573 510 L474 510 L474 282 C474 224 499 199 561 199 L561 199 Z M636 204 L735 204 L735 421 L727 421 C698 421 657 413 657 413 L655 416 C699 426 734 466 734 510 L636 510 L636 204 Z M1371 199 C1394 199 1413 202 1425 209 L1425 284 C1419 280 1411 277 1401 277 C1390 277 1383 282 1383 294 L1383 342 L1425 342 L1425 421 L1375 421 C1345 421 1317 404 1317 404 L1315 408 C1354 425 1382 470 1382 510 L1283 510 L1283 282 C1283 224 1309 199 1371 199 L1371 199 Z M100 204 L199 204 L199 509 L100 509 L100 204 Z M285 199 C326 199 349 216 356 226 L359 226 L359 204 L457 204 L457 338 C457 393 415 428 343 428 C271 428 232 399 221 350 L311 336 C311 356 319 365 334 365 C349 365 357 355 357 340 L357 305 L355 305 C343 317 323 326 289 326 C242 326 215 298 215 260 C215 224 242 199 285 199 L285 199 Z M756 204 L855 204 L855 328 C862 352 866 360 881 360 C893 360 900 352 900 333 L900 204 L1000 204 L1000 338 C1000 396 972 426 927 426 C888 426 862 406 856 356 L853 356 L853 421 L756 421 L756 204 Z M1141 199 C1223 199 1267 247 1267 312 C1267 378 1222 426 1141 426 C1061 426 1015 378 1015 312 C1015 246 1059 199 1141 199 L1141 199 Z M1691 132 L1791 132 L1791 242 L1794 242 C1806 212 1830 199 1863 199 C1907 199 1949 232 1949 312 C1949 392 1917 426 1866 426 C1820 426 1799 396 1793 356 L1790 356 L1790 421 L1691 421 L1691 132 Z M2087 199 C2140 199 2191 222 2203 288 L2121 296 C2119 278 2112 262 2091 262 C2069 262 2057 284 2057 308 L2207 308 L2207 317 C2207 377 2161 426 2090 426 C2011 426 1963 378 1963 312 C1963 246 2007 199 2087 199 L2087 199 Z M1472 128 L1511 128 C1562 128 1597 158 1617 214 L1688 421 L1589 421 C1578 367 1565 302 1559 248 L1557 248 C1553 302 1538 367 1529 421 L1429 421 L1483 248 C1491 222 1507 209 1535 209 L1603 209 L1604 206 C1597 198 1579 194 1537 194 L1472 194 L1472 128 Z M2057 320 C2057 348 2072 366 2094 366 C2111 366 2118 357 2118 344 C2118 328 2105 320 2063 320 L2057 320 Z M1825 247 C1815 247 1806 250 1798 260 L1798 332 C1803 353 1813 365 1828 365 C1849 365 1855 345 1855 304 C1855 263 1845 247 1825 247 L1825 247 Z M1141 261 C1124 261 1113 275 1113 312 C1113 350 1123 364 1141 364 C1158 364 1170 350 1170 312 C1170 275 1158 261 1141 261 L1141 261 Z M335 229 C317 229 311 242 311 264 C311 286 322 299 338 299 C347 299 354 296 357 291 L357 240 C353 234 345 229 335 229 L335 229 Z " />
<glyph glyph-name="fi" unicode="&#xfb01;" horiz-adv-x="622" d="M353 584 L585 584 L585 744 L344 744 C180 744 95 659 88 527 L20 527 L20 352 L87 352 L87 0 L293 0 L293 352 L379 352 L379 0 L585 0 L585 527 L293 527 L293 529 C293 562 312 584 353 584 L353 584 Z " />
<glyph glyph-name="fl" unicode="&#xfb02;" horiz-adv-x="652" d="M615 731 L344 731 C186 731 101 651 89 527 L20 527 L20 352 L87 352 L87 0 L293 0 L293 352 L353 352 L353 517 L293 517 C293 549 312 571 353 571 L409 571 L409 0 L615 0 L615 731 Z " />
</font>
</svg>
