<?xml version="1.0" encoding="UTF-8"?>
<svg xmlns="http://www.w3.org/2000/svg" xmlns:xlink="http://www.w3.org/1999/xlink" version="1.2" >
<font id="Biennale Thin It">
<font-face  font-family="Biennale" units-per-em="1000" ascent="1040" descent="-345" font-style="normal" font-weight="200" font-stretch="normal" slope="-11" cap-height="695" x-height="527" underline-position="-75" underline-thickness="50" />
<missing-glyph  horiz-adv-x="600" d="M232 730 L90 0 L507 0 L649 730 L232 730 Z M579 695 L378 408 L288 695 L579 695 Z M257 658 L348 365 L143 73 L257 658 Z M483 74 L392 365 L595 656 L483 74 Z M361 322 L451 35 L160 35 L361 322 Z " />
<glyph glyph-name="NULL" d="" />
<glyph glyph-name="CR" unicode="&#xd;" horiz-adv-x="250" d="" />
<glyph glyph-name="space" unicode="&#x20;" horiz-adv-x="245" d="" />
<glyph glyph-name="exclam" unicode="&#x21;" horiz-adv-x="213" d="M128 177 L151 177 L263 731 L230 731 L128 177 Z M107 -9 C128 -9 144 7 144 28 C144 47 131 59 114 59 C93 59 76 43 76 22 C76 3 89 -9 107 -9 L107 -9 Z " />
<glyph glyph-name="quotedbl" unicode="&#x22;" horiz-adv-x="252" d="M167 547 L190 547 L225 715 L197 715 L167 547 Z M271 547 L294 547 L328 715 L300 715 L271 547 Z " />
<glyph glyph-name="numbersign" unicode="&#x23;" horiz-adv-x="654" d="M713 467 L717 490 L593 490 L687 695 L662 695 L568 490 L348 490 L442 695 L417 695 L323 490 L189 490 L184 467 L312 467 L203 229 L72 229 L67 206 L193 206 L98 0 L124 0 L218 206 L438 206 L343 0 L369 0 L463 206 L597 206 L601 229 L474 229 L583 467 L713 467 Z M448 229 L229 229 L338 467 L557 467 L448 229 Z " />
<glyph glyph-name="dollar" unicode="&#x24;" horiz-adv-x="437" d="M356 649 L374 740 L350 740 L333 650 C226 650 152 585 152 492 C152 321 403 346 403 176 C403 91 337 34 236 34 C146 34 88 81 83 155 L58 146 C65 65 128 13 224 10 L207 -80 L231 -80 L248 10 C358 15 430 80 430 181 C430 366 179 340 179 495 C179 573 241 626 334 626 C410 626 454 589 462 522 L487 530 C478 600 431 642 356 649 L356 649 Z " />
<glyph glyph-name="percent" unicode="&#x25;" horiz-adv-x="700" d="M258 387 C358 387 431 480 431 571 C431 644 383 700 306 700 C206 700 133 609 133 517 C133 444 180 387 258 387 L258 387 Z M135 0 L161 0 L695 695 L669 695 L135 0 Z M261 409 C200 409 155 454 155 519 C155 596 218 679 303 679 C364 679 408 634 408 569 C408 491 345 409 261 409 L261 409 Z M526 -5 C626 -5 699 87 699 178 C699 251 652 308 574 308 C474 308 401 216 401 125 C401 51 449 -5 526 -5 L526 -5 Z M529 16 C468 16 424 61 424 126 C424 204 487 286 571 286 C632 286 677 241 677 176 C677 99 614 16 529 16 L529 16 Z " />
<glyph glyph-name="ampersand" unicode="&#x26;" horiz-adv-x="613" d="M638 335 L614 345 C594 239 539 147 493 104 L306 349 C261 409 236 448 236 504 C236 600 307 676 403 676 C492 676 544 623 545 552 L573 552 C573 639 508 702 407 702 C287 702 208 615 208 504 C208 463 222 428 244 391 C142 339 79 268 79 158 C79 60 159 -10 274 -10 C359 -10 428 13 487 67 L538 0 L572 0 L508 84 C559 129 616 228 638 335 L638 335 Z M278 15 C182 15 107 75 107 162 C107 266 165 325 256 373 C264 361 273 349 283 336 L474 85 C422 38 362 15 278 15 L278 15 Z " />
<glyph glyph-name="quotesingle" unicode="&#x27;" horiz-adv-x="149" d="M167 547 L190 547 L225 715 L197 715 L167 547 Z " />
<glyph glyph-name="parenleft" unicode="&#x28;" horiz-adv-x="285" d="M238 -91 L257 -70 C196 -30 128 81 128 232 C128 428 240 631 412 727 L400 748 C227 652 101 447 101 232 C101 74 170 -43 238 -91 L238 -91 Z " />
<glyph glyph-name="parenright" unicode="&#x29;" horiz-adv-x="285" d="M10 -91 C188 7 310 217 310 426 C310 584 240 702 173 748 L154 727 C214 687 283 577 283 425 C283 232 173 28 -1 -69 L10 -91 Z " />
<glyph glyph-name="asterisk" unicode="&#x2a;" horiz-adv-x="385" d="M256 415 L287 415 L308 548 L406 477 L426 504 L317 569 L451 633 L441 662 L315 589 L349 731 L318 731 L296 589 L198 661 L178 634 L287 569 L153 504 L163 477 L289 548 L256 415 Z " />
<glyph glyph-name="plus" unicode="&#x2b;" horiz-adv-x="464" d="M492 310 L304 310 L344 514 L318 514 L278 310 L91 310 L86 286 L273 286 L231 69 L257 69 L299 286 L487 286 L492 310 Z " />
<glyph glyph-name="comma" unicode="&#x2c;" horiz-adv-x="170" d="M91 59 C71 59 54 44 54 22 C54 4 66 -8 84 -9 L32 -84 L57 -84 L102 -21 C119 3 123 13 123 29 C123 46 110 59 91 59 L91 59 Z " />
<glyph glyph-name="hyphen" unicode="&#x2d;" horiz-adv-x="357" d="M112 244 L336 244 L341 268 L116 268 L112 244 Z " />
<glyph glyph-name="period" unicode="&#x2e;" horiz-adv-x="179" d="M89 -9 C110 -9 126 7 126 28 C126 47 113 59 95 59 C75 59 58 43 58 22 C58 3 71 -9 89 -9 L89 -9 Z " />
<glyph glyph-name="slash" unicode="&#x2f;" horiz-adv-x="299" d="M31 -50 L58 -50 L392 711 L366 711 L31 -50 Z " />
<glyph glyph-name="zero" unicode="0" horiz-adv-x="661" d="M344 -9 C559 -9 681 217 681 424 C681 603 589 702 448 702 C235 702 112 478 112 269 C112 90 202 -9 344 -9 L344 -9 Z M346 17 C222 17 140 107 140 269 C140 460 253 676 446 676 C568 676 652 588 652 424 C652 233 540 17 346 17 L346 17 Z " />
<glyph glyph-name="one" unicode="1" horiz-adv-x="306" d="M319 695 L293 695 L275 604 L162 604 L158 580 L271 580 L163 24 L45 24 L41 0 L285 0 L289 24 L189 24 L319 695 Z " />
<glyph glyph-name="two" unicode="2" horiz-adv-x="495" d="M375 293 C472 382 542 458 542 557 C542 644 477 703 376 703 C275 703 196 653 148 553 L171 543 C214 631 290 678 374 678 C458 678 514 629 514 553 C514 462 449 394 357 309 L42 18 L39 0 L449 0 L454 25 L83 25 L375 293 Z " />
<glyph glyph-name="three" unicode="3" horiz-adv-x="521" d="M600 695 L192 695 L186 670 L561 670 L280 399 L275 377 L317 377 C416 377 483 313 483 209 C483 102 388 15 265 15 C159 15 90 74 83 148 L58 140 C64 58 142 -10 264 -10 C407 -10 511 90 511 213 C511 323 438 399 323 399 L314 399 L596 671 L600 695 Z " />
<glyph glyph-name="four" unicode="4" horiz-adv-x="542" d="M553 209 L455 209 L549 694 L522 694 L58 201 L54 186 L424 186 L387 0 L414 0 L450 186 L549 186 L553 209 Z M428 209 L97 209 L514 652 L428 209 Z " />
<glyph glyph-name="five" unicode="5" horiz-adv-x="511" d="M561 671 L566 695 L240 695 L163 384 L302 384 C412 384 480 320 480 217 C480 104 384 15 261 15 C162 15 94 68 88 151 L62 142 C70 49 147 -10 257 -10 C402 -10 509 88 509 216 C509 333 430 408 307 408 L193 408 L259 671 L561 671 Z " />
<glyph glyph-name="six" unicode="6" horiz-adv-x="528" d="M343 453 C312 453 282 447 247 434 L506 695 L471 695 L157 377 C108 326 76 256 76 180 C76 67 153 -10 274 -10 C433 -10 538 115 538 255 C538 374 461 453 343 453 L343 453 Z M278 15 C173 15 103 86 103 186 C103 304 198 428 340 428 C443 428 510 357 510 254 C510 133 415 15 278 15 L278 15 Z " />
<glyph glyph-name="seven" unicode="7" horiz-adv-x="444" d="M146 695 L141 671 L523 671 L132 0 L163 0 L552 672 L556 695 L146 695 Z " />
<glyph glyph-name="eight" unicode="8" horiz-adv-x="526" d="M399 375 C485 398 549 473 549 559 C549 643 486 702 391 702 C276 702 182 615 182 510 C182 446 218 396 275 376 C169 358 85 263 85 156 C85 53 163 -10 271 -10 C408 -10 510 93 510 214 C510 293 468 355 399 375 L399 375 Z M209 511 C209 602 291 677 389 677 C466 677 522 631 522 557 C522 465 434 387 338 387 C259 387 209 439 209 511 L209 511 Z M271 15 C178 15 113 67 113 157 C113 269 213 363 331 363 C426 363 483 304 483 215 C483 106 394 15 271 15 L271 15 Z " />
<glyph glyph-name="nine" unicode="9" horiz-adv-x="525" d="M386 705 C228 705 122 580 122 440 C122 321 199 242 317 242 C348 242 378 247 413 261 L154 0 L189 0 L503 318 C554 370 585 440 585 515 C585 628 507 705 386 705 L386 705 Z M320 267 C217 267 150 338 150 441 C150 562 245 680 382 680 C488 680 557 609 557 509 C557 391 462 267 320 267 L320 267 Z " />
<glyph glyph-name="colon" unicode="&#x3a;" horiz-adv-x="203" d="M177 380 C198 380 214 396 214 418 C214 436 201 448 184 448 C163 448 146 432 146 411 C146 392 159 380 177 380 L177 380 Z M101 -9 C122 -9 138 7 138 28 C138 47 125 59 108 59 C87 59 70 43 70 22 C70 3 83 -9 101 -9 L101 -9 Z " />
<glyph glyph-name="semicolon" unicode="&#x3b;" horiz-adv-x="206" d="M184 448 C163 448 146 432 146 411 C146 392 159 380 177 380 C198 380 214 396 214 418 C214 436 201 448 184 448 L184 448 Z M107 59 C87 59 70 44 70 22 C70 4 82 -8 100 -9 L48 -84 L73 -84 L118 -21 C135 3 139 13 139 29 C139 46 126 59 107 59 L107 59 Z " />
<glyph glyph-name="less" unicode="&#x3c;" horiz-adv-x="385" d="M430 505 L89 295 L83 267 L343 57 L348 83 L112 279 L425 474 L430 505 Z " />
<glyph glyph-name="equal" unicode="&#x3d;" horiz-adv-x="465" d="M106 388 L507 388 L512 413 L112 413 L106 388 Z M60 152 L461 152 L466 176 L66 176 L60 152 Z " />
<glyph glyph-name="greater" unicode="&#x3e;" horiz-adv-x="385" d="M149 505 L144 479 L380 284 L67 88 L62 57 L403 267 L408 295 L149 505 Z " />
<glyph glyph-name="question" unicode="&#x3f;" horiz-adv-x="405" d="M183 177 L210 177 L219 222 C258 424 484 442 484 610 C484 697 424 741 342 741 C246 741 177 681 143 590 L167 583 C198 659 255 715 340 715 C407 715 456 680 456 606 C456 453 238 444 193 226 L183 177 Z M168 -9 C189 -9 206 7 206 28 C206 47 193 59 175 59 C154 59 138 43 138 22 C138 3 151 -9 168 -9 L168 -9 Z " />
<glyph glyph-name="at" unicode="&#x40;" horiz-adv-x="753" d="M471 577 C258 577 83 396 83 178 C83 6 196 -106 372 -106 C465 -106 534 -77 587 -15 L573 1 C525 -54 457 -83 375 -83 C214 -83 106 22 106 179 C106 379 273 554 468 554 C625 554 732 447 732 292 C732 177 679 96 603 96 C568 96 552 110 552 139 C552 147 553 153 558 176 L601 401 L579 401 L562 308 C548 369 500 408 431 408 C330 408 246 318 246 212 C246 125 302 64 384 64 C444 64 498 99 531 151 C530 143 530 141 530 136 C530 96 557 73 602 73 C691 73 755 166 755 295 C755 465 642 577 471 577 L471 577 Z M387 85 C318 85 270 137 270 212 C270 307 343 386 432 386 C502 386 549 339 549 267 C549 171 473 85 387 85 L387 85 Z " />
<glyph glyph-name="A" unicode="A" horiz-adv-x="582" d="M539 0 L565 0 L439 695 L409 695 L13 0 L43 0 L182 245 L495 245 L539 0 Z M195 269 L420 665 L491 269 L195 269 Z " />
<glyph glyph-name="B" unicode="B" horiz-adv-x="592" d="M458 364 C553 385 621 453 621 551 C621 634 568 695 461 695 L228 695 L93 0 L329 0 C485 0 580 79 580 203 C580 284 534 343 458 364 L458 364 Z M250 671 L455 671 C551 671 594 618 594 547 C594 447 507 377 402 377 L193 377 L250 671 Z M332 24 L125 24 L188 353 L396 353 C493 353 553 291 553 201 C553 94 469 24 332 24 L332 24 Z " />
<glyph glyph-name="C" unicode="C" horiz-adv-x="704" d="M389 -10 C541 -10 633 60 707 204 L683 215 C613 80 528 16 392 16 C238 16 136 125 136 279 C136 487 277 679 485 679 C624 679 705 596 728 483 L755 490 C733 611 639 705 490 705 C262 705 108 501 108 277 C108 109 222 -10 389 -10 L389 -10 Z " />
<glyph glyph-name="D" unicode="D" horiz-adv-x="692" d="M436 695 L228 695 L93 0 L330 0 C542 0 714 181 714 403 C714 580 604 695 436 695 L436 695 Z M334 25 L124 25 L250 670 L432 670 C587 670 686 565 686 402 C686 198 525 25 334 25 L334 25 Z " />
<glyph glyph-name="E" unicode="E" horiz-adv-x="532" d="M616 671 L620 695 L228 695 L93 0 L492 0 L496 24 L125 24 L189 353 L524 353 L529 378 L194 378 L250 671 L616 671 Z " />
<glyph glyph-name="F" unicode="F" horiz-adv-x="511" d="M615 671 L620 695 L228 695 L93 0 L120 0 L189 353 L523 353 L528 377 L193 377 L250 671 L615 671 Z " />
<glyph glyph-name="G" unicode="G" horiz-adv-x="743" d="M764 349 L441 349 L437 325 L732 325 C687 131 561 15 395 15 C237 15 136 122 136 288 C136 502 293 679 486 679 C617 679 710 605 731 483 L758 491 C735 622 631 705 489 705 C279 705 108 517 108 286 C108 106 220 -10 393 -10 C583 -10 723 124 764 349 L764 349 Z " />
<glyph glyph-name="H" unicode="H" horiz-adv-x="662" d="M674 695 L612 378 L193 378 L255 695 L228 695 L93 0 L120 0 L189 353 L608 353 L539 0 L566 0 L701 695 L674 695 Z " />
<glyph glyph-name="I" unicode="I" horiz-adv-x="215" d="M93 0 L120 0 L255 695 L228 695 L93 0 Z " />
<glyph glyph-name="J" unicode="J" horiz-adv-x="306" d="M12 0 L62 0 C158 0 227 60 247 161 L350 695 L324 695 L220 162 C204 77 144 24 64 24 L16 24 L12 0 Z " />
<glyph glyph-name="K" unicode="K" horiz-adv-x="565" d="M659 695 L618 695 L193 377 L255 695 L228 695 L93 0 L120 0 L189 357 L535 0 L571 0 L217 365 L659 695 Z " />
<glyph glyph-name="L" unicode="L" horiz-adv-x="501" d="M125 25 L255 695 L228 695 L93 0 L486 0 L490 25 L125 25 Z " />
<glyph glyph-name="M" unicode="M" horiz-adv-x="791" d="M782 695 L782 694 L779 695 L405 70 L278 695 L250 695 L73 0 L99 0 L263 645 L387 32 L411 32 L775 640 L689 0 L715 0 L807 695 L782 695 Z " />
<glyph glyph-name="N" unicode="N" horiz-adv-x="662" d="M674 695 L548 49 L251 695 L228 695 L93 0 L119 0 L245 649 L543 0 L566 0 L701 695 L674 695 Z " />
<glyph glyph-name="O" unicode="O" horiz-adv-x="762" d="M395 -10 C609 -10 784 176 784 403 C784 585 669 705 497 705 C284 705 108 518 108 293 C108 111 223 -10 395 -10 L395 -10 Z M397 16 C240 16 136 128 136 295 C136 504 299 679 495 679 C652 679 756 567 756 401 C756 191 592 16 397 16 L397 16 Z " />
<glyph glyph-name="P" unicode="P" horiz-adv-x="559" d="M443 695 L228 695 L93 0 L120 0 L183 321 L387 321 C530 321 628 406 628 530 C628 634 560 695 443 695 L443 695 Z M391 347 L188 347 L251 671 L441 671 C543 671 600 620 600 530 C600 422 514 347 391 347 L391 347 Z " />
<glyph glyph-name="Q" unicode="Q" horiz-adv-x="784" d="M784 403 C784 585 669 705 497 705 C284 705 108 518 108 293 C108 111 223 -10 395 -10 C443 -10 490 -1 532 17 L688 -137 L705 -118 L558 28 C691 94 784 238 784 403 L784 403 Z M136 295 C136 504 299 679 495 679 C652 679 756 567 756 401 C756 191 592 16 397 16 C240 16 136 128 136 295 L136 295 Z " />
<glyph glyph-name="R" unicode="R" horiz-adv-x="568" d="M629 537 C629 635 562 695 444 695 L228 695 L93 0 L120 0 L185 335 L276 335 L490 0 L522 0 L305 335 L388 335 C532 335 629 420 629 537 L629 537 Z M251 671 L442 671 C544 671 601 620 601 536 C601 434 515 358 392 358 L190 358 L251 671 Z " />
<glyph glyph-name="S" unicode="S" horiz-adv-x="505" d="M267 -7 C405 -7 493 65 493 180 C493 392 194 360 194 533 C194 620 269 679 377 679 C466 679 523 637 531 564 L557 573 C547 653 480 704 378 704 C252 704 167 633 167 530 C167 338 465 369 465 176 C465 79 389 18 270 18 C162 18 93 69 88 154 L61 145 C70 49 146 -7 267 -7 L267 -7 Z " />
<glyph glyph-name="T" unicode="T" horiz-adv-x="502" d="M622 695 L147 695 L143 670 L366 670 L236 0 L263 0 L393 670 L618 670 L622 695 Z " />
<glyph glyph-name="U" unicode="U" horiz-adv-x="649" d="M332 -10 C478 -10 576 78 606 236 L695 695 L668 695 L580 237 C552 97 462 15 337 15 C204 15 134 110 163 257 L248 695 L221 695 L136 256 C106 100 185 -10 332 -10 L332 -10 Z " />
<glyph glyph-name="V" unicode="V" horiz-adv-x="585" d="M670 695 L291 31 L169 695 L142 695 L271 0 L302 0 L700 695 L670 695 Z " />
<glyph glyph-name="W" unicode="W" horiz-adv-x="813" d="M893 695 L612 47 L554 695 L526 695 L214 49 L185 695 L159 695 L192 0 L217 0 L533 653 L592 0 L618 0 L921 695 L893 695 Z " />
<glyph glyph-name="X" unicode="X" horiz-adv-x="569" d="M681 696 L647 696 L356 377 L184 696 L155 696 L338 358 L6 0 L41 0 L350 335 L531 0 L560 0 L369 354 L681 696 Z " />
<glyph glyph-name="Y" unicode="Y" horiz-adv-x="564" d="M684 695 L650 695 L340 315 L176 695 L148 695 L323 292 L267 0 L293 0 L349 288 L684 695 Z " />
<glyph glyph-name="Z" unicode="Z" horiz-adv-x="504" d="M608 695 L168 695 L164 671 L568 671 L25 21 L21 0 L482 0 L486 25 L63 25 L604 674 L608 695 Z " />
<glyph glyph-name="bracketleft" unicode="&#x5b;" horiz-adv-x="262" d="M381 723 L386 748 L237 748 L74 -91 L223 -91 L228 -65 L105 -65 L259 723 L381 723 Z " />
<glyph glyph-name="backslash" unicode="&#x5c;" horiz-adv-x="299" d="M218 -50 L245 -50 L206 711 L180 711 L218 -50 Z " />
<glyph glyph-name="bracketright" unicode="&#x5d;" horiz-adv-x="262" d="M164 748 L159 723 L282 723 L128 -65 L6 -65 L1 -91 L150 -91 L313 748 L164 748 Z " />
<glyph glyph-name="asciicircum" unicode="&#x5e;" horiz-adv-x="399" d="M427 394 L330 645 L308 645 L123 394 L155 394 L316 615 L400 394 L427 394 Z " />
<glyph glyph-name="underscore" unicode="&#x5f;" horiz-adv-x="433" d="M12 -50 L398 -50 L402 -26 L16 -26 L12 -50 Z " />
<glyph glyph-name="grave" unicode="&#x60;" horiz-adv-x="239" d="M334 617 L346 635 L172 746 L158 726 L334 617 Z " />
<glyph glyph-name="a" unicode="a" horiz-adv-x="629" d="M619 527 L589 369 C572 474 501 537 391 537 C221 537 90 388 90 216 C90 81 170 -10 300 -10 C406 -10 493 51 544 137 L517 0 L543 0 L645 527 L619 527 Z M304 14 C188 14 116 98 116 218 C116 374 237 513 391 513 C505 513 574 437 574 316 C574 156 456 14 304 14 L304 14 Z " />
<glyph glyph-name="b" unicode="b" horiz-adv-x="629" d="M429 537 C322 537 237 478 186 393 L250 731 L224 731 L83 0 L109 0 L139 155 C157 52 229 -10 333 -10 C517 -10 638 147 638 314 C638 449 553 537 429 537 L429 537 Z M336 14 C225 14 154 91 154 211 C154 364 266 513 424 513 C535 513 612 432 612 310 C612 164 502 14 336 14 L336 14 Z " />
<glyph glyph-name="c" unicode="c" horiz-adv-x="556" d="M308 -10 C416 -10 497 41 551 147 L527 156 C481 62 403 14 311 14 C192 14 116 102 116 221 C116 372 235 513 390 513 C488 513 554 457 563 372 L590 379 C579 476 501 537 392 537 C221 537 90 388 90 218 C90 85 173 -10 308 -10 L308 -10 Z " />
<glyph glyph-name="d" unicode="d" horiz-adv-x="629" d="M659 731 L589 374 C571 476 500 537 391 537 C221 537 90 388 90 216 C90 81 170 -10 300 -10 C405 -10 492 50 543 136 L517 0 L543 0 L685 731 L659 731 Z M304 14 C188 14 116 98 116 218 C116 374 237 513 391 513 C505 513 574 437 574 316 C574 156 456 14 304 14 L304 14 Z " />
<glyph glyph-name="e" unicode="e" horiz-adv-x="574" d="M391 537 C222 537 90 394 90 212 C90 83 179 -10 305 -10 C418 -10 494 39 549 144 L527 154 C481 63 406 14 309 14 C198 14 116 98 116 215 C116 229 117 243 119 257 L578 257 C582 271 588 316 588 337 C588 456 509 537 391 537 L391 537 Z M122 279 C149 412 258 514 388 514 C495 514 563 444 563 335 C563 321 561 297 558 279 L122 279 Z " />
<glyph glyph-name="f" unicode="f" horiz-adv-x="308" d="M406 732 C314 732 249 678 228 570 L220 527 L112 527 L108 503 L215 503 L118 0 L144 0 L242 503 L398 503 L402 527 L247 527 L255 570 C273 664 332 708 403 708 L441 708 L445 732 L406 732 Z " />
<glyph glyph-name="g" unicode="g" horiz-adv-x="629" d="M621 527 L590 369 C573 474 501 537 391 537 C221 537 90 389 90 217 C90 83 170 -8 300 -8 C407 -8 495 54 546 142 L530 58 C501 -90 409 -165 274 -165 C166 -165 94 -113 83 -15 L59 -21 C71 -130 155 -189 272 -189 C428 -189 524 -104 556 58 L647 527 L621 527 Z M304 15 C188 15 116 99 116 219 C116 375 237 513 391 513 C505 513 574 437 574 317 C574 157 456 15 304 15 L304 15 Z " />
<glyph glyph-name="h" unicode="h" horiz-adv-x="598" d="M406 537 C306 537 228 483 190 412 L251 731 L225 731 L83 0 L109 0 L172 325 L172 324 C193 431 287 513 400 513 C514 513 578 443 553 312 L493 0 L520 0 L581 314 C609 457 533 537 406 537 L406 537 Z " />
<glyph glyph-name="i" unicode="i" horiz-adv-x="200" d="M224 643 C248 643 269 662 269 687 C269 707 256 722 234 722 C210 722 188 702 188 678 C188 658 202 643 224 643 L224 643 Z M83 0 L109 0 L211 527 L185 527 L83 0 Z " />
<glyph glyph-name="j" unicode="j" horiz-adv-x="201" d="M224 642 C248 642 270 662 270 686 C270 706 256 721 235 721 C210 721 189 702 189 677 C189 657 202 642 224 642 L224 642 Z M-90 -179 L-76 -179 C14 -179 86 -120 106 -14 L211 527 L184 527 L80 -14 C63 -100 2 -154 -72 -154 L-85 -154 L-90 -179 Z " />
<glyph glyph-name="k" unicode="k" horiz-adv-x="463" d="M551 527 L509 527 L167 296 L251 731 L225 731 L83 0 L109 0 L164 283 L427 0 L461 0 L195 286 L551 527 Z " />
<glyph glyph-name="l" unicode="l" horiz-adv-x="195" d="M83 0 L109 0 L251 731 L225 731 L83 0 Z " />
<glyph glyph-name="m" unicode="m" horiz-adv-x="967" d="M786 537 C683 537 601 471 566 388 C561 487 494 537 397 537 C303 537 225 481 188 410 L211 527 L185 527 L83 0 L109 0 L172 325 L172 324 C193 431 287 513 391 513 C494 513 559 449 535 322 L473 0 L500 0 L563 323 L563 329 C587 435 678 513 780 513 C884 513 949 449 924 322 L863 0 L889 0 L952 323 C979 463 902 537 786 537 L786 537 Z " />
<glyph glyph-name="n" unicode="n" horiz-adv-x="598" d="M406 537 C305 537 225 481 188 410 L211 527 L185 527 L83 0 L109 0 L172 325 L172 324 C193 431 287 513 400 513 C514 513 578 443 553 312 L493 0 L520 0 L581 314 C609 457 533 537 406 537 L406 537 Z " />
<glyph glyph-name="o" unicode="o" horiz-adv-x="605" d="M312 -10 C488 -10 614 143 614 309 C614 448 527 537 393 537 C218 537 90 385 90 217 C90 78 177 -10 312 -10 L312 -10 Z M315 14 C195 14 117 97 117 219 C117 368 232 513 391 513 C510 513 587 431 587 309 C587 159 471 14 315 14 L315 14 Z " />
<glyph glyph-name="p" unicode="p" horiz-adv-x="629" d="M426 537 C325 537 237 479 185 391 L211 527 L185 527 L48 -179 L74 -179 L139 156 C157 52 229 -10 337 -10 C502 -10 638 135 638 312 C638 448 555 537 426 537 L426 537 Z M339 14 C226 14 154 90 154 211 C154 374 276 513 421 513 C536 513 612 432 612 310 C612 149 488 14 339 14 L339 14 Z " />
<glyph glyph-name="q" unicode="q" horiz-adv-x="629" d="M619 527 L589 369 C572 474 501 537 391 537 C221 537 90 388 90 216 C90 81 170 -10 300 -10 C405 -10 491 50 542 135 L482 -179 L508 -179 L645 527 L619 527 Z M304 14 C188 14 116 98 116 218 C116 374 237 513 391 513 C505 513 574 437 574 316 C574 156 456 14 304 14 L304 14 Z " />
<glyph glyph-name="r" unicode="r" horiz-adv-x="304" d="M188 408 L211 527 L185 527 L83 0 L109 0 L173 330 L173 328 C191 420 280 510 387 512 L391 537 C298 537 222 475 188 408 L188 408 Z " />
<glyph glyph-name="s" unicode="s" horiz-adv-x="446" d="M235 -10 C346 -10 436 42 436 140 C436 309 161 256 161 401 C161 470 223 514 310 514 C379 514 432 487 443 427 L469 436 C458 498 398 537 310 537 C205 537 135 482 135 399 C135 235 409 289 409 137 C409 57 334 13 239 13 C152 13 83 49 75 115 L52 107 C62 33 135 -10 235 -10 L235 -10 Z " />
<glyph glyph-name="t" unicode="t" horiz-adv-x="326" d="M268 0 L324 0 L330 24 L275 24 C192 24 151 76 169 169 L234 503 L411 503 L416 527 L239 527 L265 658 L241 658 L223 568 C218 540 204 527 175 527 L113 527 L109 503 L208 503 L143 168 C122 65 172 0 268 0 L268 0 Z " />
<glyph glyph-name="u" unicode="u" horiz-adv-x="587" d="M577 527 L513 192 C488 91 396 14 291 14 C183 14 118 84 144 215 L204 527 L177 527 L116 213 C88 70 164 -10 285 -10 C384 -10 462 46 499 119 L476 0 L502 0 L604 527 L577 527 Z " />
<glyph glyph-name="v" unicode="v" horiz-adv-x="508" d="M563 527 L257 31 L142 527 L114 527 L240 0 L265 0 L594 527 L563 527 Z " />
<glyph glyph-name="w" unicode="w" horiz-adv-x="721" d="M772 527 L542 33 L476 527 L445 527 L186 31 L148 527 L122 527 L166 0 L195 0 L455 496 L523 0 L551 0 L800 527 L772 527 Z " />
<glyph glyph-name="x" unicode="x" horiz-adv-x="470" d="M551 527 L517 527 L290 288 L150 527 L120 527 L270 271 L7 0 L41 0 L282 251 L429 0 L459 0 L302 267 L551 527 Z " />
<glyph glyph-name="y" unicode="y" horiz-adv-x="508" d="M563 527 L257 31 L142 527 L114 527 L239 3 L124 -179 L153 -179 L594 527 L563 527 Z " />
<glyph glyph-name="z" unicode="z" horiz-adv-x="430" d="M497 527 L139 527 L135 503 L458 503 L25 23 L21 0 L408 0 L412 24 L61 24 L493 504 L497 527 Z " />
<glyph glyph-name="braceleft" unicode="&#x7b;" horiz-adv-x="262" d="M213 -91 L220 -91 L225 -65 L220 -65 C165 -65 138 -19 152 52 L182 209 C200 306 139 325 122 329 C144 332 209 350 229 449 L261 615 C275 686 317 722 372 722 L378 722 L383 748 L376 748 C298 748 252 703 235 615 L202 449 C185 367 128 341 83 341 L72 341 L68 317 L79 317 C122 317 172 298 155 209 L125 52 C107 -43 156 -91 213 -91 L213 -91 Z " />
<glyph glyph-name="bar" unicode="&#x7c;" horiz-adv-x="210" d="M75 -81 L100 -81 L254 712 L229 712 L75 -81 Z " />
<glyph glyph-name="braceright" unicode="&#x7d;" horiz-adv-x="262" d="M4 -91 L11 -91 C89 -91 135 -45 153 42 L185 209 C202 290 259 317 304 317 L315 317 L319 341 L308 341 C265 341 215 359 232 449 L262 605 C281 701 231 748 174 748 L167 748 L162 722 L168 722 C223 722 249 677 235 605 L206 449 C187 352 248 332 265 329 C244 325 178 308 159 209 L126 43 C112 -29 70 -65 15 -65 L9 -65 L4 -91 Z " />
<glyph glyph-name="asciitilde" unicode="&#x7e;" horiz-adv-x="509" d="M400 246 C440 246 476 268 496 295 L480 311 C463 288 431 270 401 270 C325 270 304 327 216 327 C176 327 141 305 121 278 L137 261 C154 285 185 302 215 302 C291 302 312 246 400 246 L400 246 Z " />
<glyph glyph-name="uni00A0" unicode="&#xa0;" horiz-adv-x="245" d="" />
<glyph glyph-name="exclamdown" unicode="&#xa1;" horiz-adv-x="200" d="M193 469 C214 469 230 484 230 506 C230 525 217 537 200 537 C179 537 162 521 162 499 C162 481 175 469 193 469 L193 469 Z M47 -179 L80 -179 L180 351 L157 351 L47 -179 Z " />
<glyph glyph-name="cent" unicode="&#xa2;" horiz-adv-x="509" d="M370 547 C456 547 511 500 521 425 L545 432 C537 510 479 562 396 570 L413 661 L389 661 L372 571 C221 571 106 440 106 290 C106 179 171 99 279 91 L261 0 L285 0 L302 90 C395 91 467 136 512 228 L490 236 C449 154 381 114 301 114 C196 114 132 189 132 293 C132 425 234 547 370 547 L370 547 Z " />
<glyph glyph-name="sterling" unicode="&#xa3;" horiz-adv-x="505" d="M412 671 C308 671 229 599 206 483 L178 341 L96 341 L91 317 L174 317 L112 0 L457 0 L461 24 L143 24 L200 317 L438 317 L443 341 L204 341 L231 480 C251 581 322 646 411 646 C487 646 537 601 544 523 L571 533 C563 617 500 671 412 671 L412 671 Z " />
<glyph glyph-name="currency" unicode="&#xa4;" horiz-adv-x="548" d="M546 367 C546 406 536 441 518 470 L589 530 L573 550 L502 490 C472 524 426 545 369 545 C313 545 264 525 224 494 L181 550 L162 533 L205 477 C156 429 126 361 126 294 C126 255 136 220 154 191 L82 131 L97 111 L169 171 C199 137 245 116 302 116 C358 116 408 136 447 167 L490 111 L509 128 L466 183 C516 231 546 299 546 367 L546 367 Z M152 295 C152 405 241 522 366 522 C457 522 520 458 520 366 C520 256 431 140 306 140 C215 140 152 203 152 295 L152 295 Z " />
<glyph glyph-name="yen" unicode="&#xa5;" horiz-adv-x="528" d="M625 661 L593 661 L319 302 L185 661 L156 661 L300 284 L168 284 L164 262 L298 262 L276 147 L141 147 L137 125 L272 125 L248 0 L274 0 L298 125 L432 125 L437 147 L302 147 L324 262 L459 262 L464 284 L335 284 L625 661 Z " />
<glyph glyph-name="brokenbar" unicode="&#xa6;" horiz-adv-x="210" d="M168 400 L193 400 L254 712 L229 712 L168 400 Z M75 -81 L100 -81 L160 231 L135 231 L75 -81 Z " />
<glyph glyph-name="section" unicode="&#xa7;" horiz-adv-x="466" d="M357 677 C422 677 474 650 486 590 L511 599 C500 661 441 700 358 700 C257 700 187 645 187 562 C187 506 217 476 256 453 C176 442 122 392 122 319 C122 155 379 208 379 56 C379 -25 304 -68 217 -68 C139 -68 76 -32 69 34 L45 26 C55 -48 122 -92 214 -92 C316 -92 407 -39 407 58 C407 109 384 140 351 162 C420 181 471 227 471 301 C471 471 213 417 213 563 C213 632 275 677 357 677 L357 677 Z M444 298 C444 233 394 189 329 176 C252 216 148 228 148 321 C148 390 208 436 289 437 C361 405 444 385 444 298 L444 298 Z " />
<glyph glyph-name="dieresis" unicode="&#xa8;" horiz-adv-x="287" d="M193 644 C216 644 237 663 237 685 C237 707 223 720 203 720 C180 720 159 701 159 679 C159 657 173 644 193 644 L193 644 Z M352 644 C375 644 395 663 395 685 C395 707 381 720 362 720 C338 720 318 701 318 679 C318 657 332 644 352 644 L352 644 Z " />
<glyph glyph-name="copyright" unicode="&#xa9;" horiz-adv-x="745" d="M385 -10 C589 -10 764 176 764 386 C764 551 649 671 486 671 C282 671 107 485 107 276 C107 110 222 -10 385 -10 L385 -10 Z M386 13 C236 13 131 126 131 278 C131 472 296 648 485 648 C634 648 740 535 740 384 C740 189 574 13 386 13 L386 13 Z M409 134 C486 134 545 170 584 247 L561 257 C529 189 477 157 411 157 C325 157 277 215 277 300 C277 408 357 504 468 504 C538 504 582 468 588 406 L611 414 C603 484 547 527 469 527 C346 527 252 420 252 298 C252 202 311 134 409 134 L409 134 Z " />
<glyph glyph-name="ordfeminine" unicode="&#xaa;" horiz-adv-x="380" d="M452 813 L437 733 C425 783 382 819 327 819 C238 819 167 735 167 645 C167 571 218 522 283 522 C337 522 382 552 410 595 L396 528 L417 528 L473 813 L452 813 Z M288 544 C231 544 190 586 190 647 C190 731 259 796 325 796 C386 796 424 753 424 693 C424 619 367 544 288 544 L288 544 Z " />
<glyph glyph-name="guillemotleft" unicode="&#xab;" horiz-adv-x="387" d="M261 419 L228 419 L94 255 L164 92 L193 92 L123 253 L261 419 Z M406 419 L373 419 L239 255 L309 92 L338 92 L268 252 L406 419 Z " />
<glyph glyph-name="logicalnot" unicode="&#xac;" horiz-adv-x="540" d="M531 351 L130 351 L125 326 L499 326 L462 138 L489 138 L531 351 Z " />
<glyph glyph-name="registered" unicode="&#xae;" horiz-adv-x="469" d="M365 728 C246 728 147 622 147 504 C147 410 212 342 309 342 C429 342 528 447 528 567 C528 660 463 728 365 728 L365 728 Z M310 362 C224 362 167 425 167 506 C167 612 257 708 364 708 C450 708 507 646 507 564 C507 458 418 362 310 362 L310 362 Z M370 655 L303 655 L260 431 L278 431 L299 538 L309 538 L375 431 L397 431 L329 538 L356 538 C400 538 431 563 431 601 C431 634 407 655 370 655 L370 655 Z M356 554 L302 554 L318 638 L368 638 C399 638 413 623 413 599 C413 572 390 554 356 554 L356 554 Z " />
<glyph glyph-name="macron" unicode="&#xaf;" horiz-adv-x="274" d="M159 670 L406 670 L410 693 L163 693 L159 670 Z " />
<glyph glyph-name="degree" unicode="&#xb0;" horiz-adv-x="335" d="M265 452 C341 452 403 514 403 589 C403 654 358 699 292 699 C217 699 154 638 154 562 C154 498 198 452 265 452 L265 452 Z M265 475 C215 475 180 511 180 563 C180 627 232 676 293 676 C342 676 377 640 377 588 C377 524 325 475 265 475 L265 475 Z " />
<glyph glyph-name="plusminus" unicode="&#xb1;" horiz-adv-x="464" d="M312 356 L352 559 L326 559 L286 356 L99 356 L94 332 L281 332 L239 116 L265 116 L307 332 L495 332 L500 356 L312 356 Z M39 44 L439 44 L445 68 L44 68 L39 44 Z " />
<glyph glyph-name="uni00B2" unicode="&#xb2;" horiz-adv-x="325" d="M283 482 C339 534 375 572 375 621 C375 669 339 699 290 699 C232 699 199 667 178 621 L199 614 C218 656 247 679 288 679 C325 679 351 655 351 618 C351 575 314 538 267 493 L127 362 L125 347 L329 347 L333 367 L160 367 L283 482 Z " />
<glyph glyph-name="uni00B3" unicode="&#xb3;" horiz-adv-x="315" d="M392 695 L192 695 L188 675 L359 675 L230 548 L228 531 L247 531 C297 531 327 504 327 458 C327 403 284 363 227 363 C182 363 151 388 147 426 L125 417 C128 375 172 342 225 342 C295 342 350 392 350 457 C350 510 315 546 259 548 L388 676 L392 695 Z " />
<glyph glyph-name="acute" unicode="&#xb4;" horiz-adv-x="194" d="M161 618 L359 726 L348 746 L151 636 L161 618 Z " />
<glyph glyph-name="paragraph" unicode="&#xb6;" horiz-adv-x="564" d="M599 695 L358 695 C217 695 122 600 122 482 C122 381 191 321 305 321 L377 321 L445 669 L497 669 L347 -100 L369 -100 L519 669 L572 669 L422 -100 L444 -100 L599 695 Z " />
<glyph glyph-name="periodcentered" unicode="&#xb7;" horiz-adv-x="202" d="M157 279 C179 279 195 297 195 317 C195 334 182 347 164 347 C143 347 126 331 126 311 C126 292 139 279 157 279 L157 279 Z " />
<glyph glyph-name="cedilla" unicode="&#xb8;" horiz-adv-x="230" d="M112 -62 L155 6 L132 6 L83 -71 L86 -79 L98 -79 C142 -79 167 -109 167 -147 C167 -186 133 -218 82 -218 C42 -218 18 -198 8 -178 L-10 -193 C4 -216 33 -239 82 -239 C146 -239 191 -199 191 -146 C191 -102 159 -65 112 -62 L112 -62 Z " />
<glyph glyph-name="uni00B9" unicode="&#xb9;" horiz-adv-x="256" d="M285 695 L263 695 L254 648 L186 648 L181 627 L250 627 L199 368 L129 368 L125 347 L277 347 L280 368 L221 368 L285 695 Z " />
<glyph glyph-name="ordmasculine" unicode="&#xba;" horiz-adv-x="363" d="M293 522 C385 522 454 599 454 690 C454 767 402 819 328 819 C238 819 167 740 167 649 C167 573 219 522 293 522 L293 522 Z M295 542 C234 542 190 586 190 652 C190 728 250 797 326 797 C387 797 431 753 431 688 C431 611 371 542 295 542 L295 542 Z " />
<glyph glyph-name="guillemotright" unicode="&#xbb;" horiz-adv-x="387" d="M174 419 L145 419 L215 258 L77 92 L110 92 L245 255 L174 419 Z M319 419 L290 419 L360 258 L223 92 L255 92 L390 255 L319 419 Z " />
<glyph glyph-name="onequarter" unicode="&#xbc;" horiz-adv-x="587" d="M623 695 L94 0 L120 0 L649 695 L623 695 Z M109 347 L261 347 L265 368 L206 368 L270 695 L247 695 L238 648 L170 648 L165 627 L234 627 L183 368 L113 368 L109 347 Z M581 348 L360 105 L358 90 L531 90 L513 0 L536 0 L554 90 L599 90 L603 109 L557 109 L604 348 L581 348 Z M391 109 L574 311 L536 109 L391 109 Z " />
<glyph glyph-name="onehalf" unicode="&#xbd;" horiz-adv-x="618" d="M619 695 L89 0 L115 0 L645 695 L619 695 Z M109 347 L261 347 L265 368 L206 368 L270 695 L247 695 L238 648 L170 648 L165 627 L234 627 L183 368 L113 368 L109 347 Z M569 135 C625 187 660 225 660 274 C660 322 624 352 576 352 C518 352 485 320 464 274 L484 267 C503 309 532 332 573 332 C611 332 637 308 637 271 C637 228 600 191 552 146 L413 15 L410 0 L614 0 L618 20 L446 20 L569 135 Z " />
<glyph glyph-name="threequarters" unicode="&#xbe;" horiz-adv-x="589" d="M636 695 L107 0 L133 0 L662 695 L636 695 Z M211 342 C281 342 335 392 335 457 C335 510 300 546 245 548 L374 676 L377 695 L178 695 L174 675 L345 675 L216 548 L213 531 L233 531 C283 531 313 504 313 458 C313 403 269 363 212 363 C168 363 137 388 133 426 L110 417 C114 375 158 342 211 342 L211 342 Z M576 348 L355 105 L352 90 L526 90 L508 0 L530 0 L548 90 L594 90 L597 109 L551 109 L598 348 L576 348 Z M385 109 L569 312 L530 109 L385 109 Z " />
<glyph glyph-name="questiondown" unicode="&#xbf;" horiz-adv-x="403" d="M329 469 C350 469 366 484 366 506 C366 525 353 537 336 537 C315 537 298 521 298 499 C298 481 311 469 329 469 L329 469 Z M162 -189 C258 -189 328 -129 361 -38 L337 -31 C307 -107 249 -163 164 -163 C97 -163 47 -128 47 -55 C47 98 266 107 314 324 L320 351 L294 351 L289 328 C246 128 19 110 19 -58 C19 -145 80 -189 162 -189 L162 -189 Z " />
<glyph glyph-name="Agrave" unicode="&#xc0;" horiz-adv-x="599" d="M562 795 L342 885 L333 863 L554 776 L562 795 Z M539 0 L565 0 L439 695 L409 695 L13 0 L43 0 L182 245 L495 245 L539 0 Z M195 269 L420 665 L491 269 L195 269 Z " />
<glyph glyph-name="Aacute" unicode="&#xc1;" horiz-adv-x="599" d="M581 863 L572 884 L351 796 L359 777 L581 863 Z M409 695 L13 0 L43 0 L182 245 L495 245 L539 0 L565 0 L439 695 L409 695 Z M195 269 L420 665 L491 269 L195 269 Z " />
<glyph glyph-name="Acircumflex" unicode="&#xc2;" horiz-adv-x="599" d="M464 863 L544 776 L571 776 L476 883 L454 883 L317 776 L349 776 L464 863 Z M409 695 L13 0 L43 0 L182 245 L495 245 L539 0 L565 0 L439 695 L409 695 Z M195 269 L420 665 L491 269 L195 269 Z " />
<glyph glyph-name="Atilde" unicode="&#xc3;" horiz-adv-x="599" d="M577 865 C564 832 546 812 515 812 C463 812 452 866 394 866 C351 866 325 836 310 798 L331 789 C343 822 361 842 391 842 C441 842 452 788 513 788 C557 788 582 816 597 856 L577 865 Z M409 695 L13 0 L43 0 L182 245 L495 245 L539 0 L565 0 L439 695 L409 695 Z M195 269 L420 665 L491 269 L195 269 Z " />
<glyph glyph-name="Adieresis" unicode="&#xc4;" horiz-adv-x="599" d="M368 793 C390 793 409 811 409 833 C409 853 397 866 378 866 C356 866 337 847 337 826 C337 805 349 793 368 793 L368 793 Z M530 793 C552 793 571 811 571 833 C571 853 559 866 540 866 C517 866 499 847 499 826 C499 805 511 793 530 793 L530 793 Z M409 695 L13 0 L43 0 L182 245 L495 245 L539 0 L565 0 L439 695 L409 695 Z M195 269 L420 665 L491 269 L195 269 Z " />
<glyph glyph-name="Aring" unicode="&#xc5;" horiz-adv-x="599" d="M443 739 C491 739 532 777 532 824 C532 863 506 893 464 893 C417 893 375 856 375 809 C375 769 402 739 443 739 L443 739 Z M462 873 C493 873 510 851 510 824 C510 787 479 760 445 760 C414 760 397 782 397 808 C397 846 429 873 462 873 L462 873 Z M539 0 L565 0 L439 695 L409 695 L13 0 L43 0 L182 245 L495 245 L539 0 Z M195 269 L420 665 L491 269 L195 269 Z " />
<glyph glyph-name="AE" unicode="&#xc6;" horiz-adv-x="876" d="M960 671 L964 695 L537 695 L-10 0 L20 0 L213 245 L486 245 L438 0 L836 0 L841 24 L470 24 L534 353 L868 353 L874 378 L539 378 L595 671 L960 671 Z M232 269 L549 671 L568 671 L490 269 L232 269 Z " />
<glyph glyph-name="Ccedilla" unicode="&#xc7;" horiz-adv-x="726" d="M486 679 C625 679 706 596 729 483 L756 490 C734 611 640 705 491 705 C263 705 109 501 109 277 C109 116 214 0 369 -9 L329 -71 L332 -79 L344 -79 C388 -79 413 -109 413 -147 C413 -186 379 -218 328 -218 C288 -218 265 -198 254 -178 L236 -193 C250 -216 280 -239 328 -239 C392 -239 437 -199 437 -146 C437 -102 406 -65 359 -62 L392 -10 C543 -9 634 61 708 204 L684 215 C613 80 529 16 393 16 C239 16 137 125 137 279 C137 487 278 679 486 679 L486 679 Z " />
<glyph glyph-name="Egrave" unicode="&#xc8;" horiz-adv-x="549" d="M563 795 L343 885 L334 863 L555 776 L563 795 Z M616 671 L620 695 L228 695 L93 0 L492 0 L496 24 L125 24 L189 353 L524 353 L529 378 L194 378 L250 671 L616 671 Z " />
<glyph glyph-name="Eacute" unicode="&#xc9;" horiz-adv-x="549" d="M572 863 L563 884 L342 796 L349 777 L572 863 Z M616 671 L620 695 L228 695 L93 0 L492 0 L496 24 L125 24 L189 353 L524 353 L529 378 L194 378 L250 671 L616 671 Z " />
<glyph glyph-name="Ecircumflex" unicode="&#xca;" horiz-adv-x="549" d="M456 863 L536 776 L562 776 L468 883 L446 883 L308 776 L341 776 L456 863 Z M616 671 L620 695 L228 695 L93 0 L492 0 L496 24 L125 24 L189 353 L524 353 L529 378 L194 378 L250 671 L616 671 Z " />
<glyph glyph-name="Edieresis" unicode="&#xcb;" horiz-adv-x="549" d="M357 793 C379 793 398 811 398 833 C398 853 385 866 366 866 C344 866 325 847 325 826 C325 805 338 793 357 793 L357 793 Z M518 793 C541 793 559 811 559 833 C559 853 547 866 528 866 C506 866 487 847 487 826 C487 805 500 793 518 793 L518 793 Z M616 671 L620 695 L228 695 L93 0 L492 0 L496 24 L125 24 L189 353 L524 353 L529 378 L194 378 L250 671 L616 671 Z " />
<glyph glyph-name="Igrave" unicode="&#xcc;" horiz-adv-x="223" d="M367 776 L375 795 L155 885 L146 863 L367 776 Z M93 0 L120 0 L255 695 L228 695 L93 0 Z " />
<glyph glyph-name="Iacute" unicode="&#xcd;" horiz-adv-x="223" d="M172 777 L394 863 L385 884 L164 796 L172 777 Z M93 0 L120 0 L255 695 L228 695 L93 0 Z " />
<glyph glyph-name="Icircumflex" unicode="&#xce;" horiz-adv-x="223" d="M384 776 L289 883 L267 883 L130 776 L162 776 L277 863 L357 776 L384 776 Z M93 0 L120 0 L255 695 L228 695 L93 0 Z " />
<glyph glyph-name="Idieresis" unicode="&#xcf;" horiz-adv-x="223" d="M181 793 C203 793 222 811 222 833 C222 853 210 866 191 866 C169 866 150 847 150 826 C150 805 162 793 181 793 L181 793 Z M343 793 C365 793 384 811 384 833 C384 853 372 866 353 866 C330 866 312 847 312 826 C312 805 324 793 343 793 L343 793 Z M93 0 L120 0 L255 695 L228 695 L93 0 Z " />
<glyph glyph-name="Eth" unicode="&#xd0;" horiz-adv-x="717" d="M440 695 L232 695 L170 377 L78 377 L74 354 L166 354 L97 0 L335 0 C547 0 719 181 719 403 C719 580 609 695 440 695 L440 695 Z M338 25 L129 25 L193 354 L341 354 L344 377 L197 377 L254 670 L436 670 C591 670 691 565 691 402 C691 198 529 25 338 25 L338 25 Z " />
<glyph glyph-name="Ntilde" unicode="&#xd1;" horiz-adv-x="683" d="M423 842 C473 842 484 788 545 788 C589 788 615 816 629 856 L609 865 C597 832 578 812 547 812 C495 812 485 866 426 866 C383 866 358 836 342 798 L364 789 C375 822 393 842 423 842 L423 842 Z M674 695 L548 49 L251 695 L228 695 L93 0 L119 0 L245 649 L543 0 L566 0 L701 695 L674 695 Z " />
<glyph glyph-name="Ograve" unicode="&#xd2;" horiz-adv-x="784" d="M648 776 L655 795 L436 885 L427 863 L648 776 Z M395 -10 C609 -10 784 176 784 403 C784 585 669 705 497 705 C284 705 108 518 108 293 C108 111 223 -10 395 -10 L395 -10 Z M397 16 C240 16 136 128 136 295 C136 504 299 679 495 679 C652 679 756 567 756 401 C756 191 592 16 397 16 L397 16 Z " />
<glyph glyph-name="Oacute" unicode="&#xd3;" horiz-adv-x="784" d="M450 777 L673 863 L664 884 L443 796 L450 777 Z M395 -10 C609 -10 784 176 784 403 C784 585 669 705 497 705 C284 705 108 518 108 293 C108 111 223 -10 395 -10 L395 -10 Z M397 16 C240 16 136 128 136 295 C136 504 299 679 495 679 C652 679 756 567 756 401 C756 191 592 16 397 16 L397 16 Z " />
<glyph glyph-name="Ocircumflex" unicode="&#xd4;" horiz-adv-x="784" d="M550 863 L630 776 L657 776 L562 883 L540 883 L403 776 L435 776 L550 863 Z M497 705 C284 705 108 518 108 293 C108 111 223 -10 395 -10 C609 -10 784 176 784 403 C784 585 669 705 497 705 L497 705 Z M397 16 C240 16 136 128 136 295 C136 504 299 679 495 679 C652 679 756 567 756 401 C756 191 592 16 397 16 L397 16 Z " />
<glyph glyph-name="Otilde" unicode="&#xd5;" horiz-adv-x="784" d="M604 788 C648 788 674 816 688 856 L668 865 C656 832 637 812 606 812 C554 812 544 866 485 866 C442 866 417 836 401 798 L423 789 C434 822 452 842 482 842 C532 842 543 788 604 788 L604 788 Z M395 -10 C609 -10 784 176 784 403 C784 585 669 705 497 705 C284 705 108 518 108 293 C108 111 223 -10 395 -10 L395 -10 Z M397 16 C240 16 136 128 136 295 C136 504 299 679 495 679 C652 679 756 567 756 401 C756 191 592 16 397 16 L397 16 Z " />
<glyph glyph-name="Odieresis" unicode="&#xd6;" horiz-adv-x="784" d="M451 793 C473 793 492 811 492 833 C492 853 480 866 461 866 C439 866 420 847 420 826 C420 805 432 793 451 793 L451 793 Z M613 793 C635 793 654 811 654 833 C654 853 642 866 623 866 C600 866 582 847 582 826 C582 805 594 793 613 793 L613 793 Z M395 -10 C609 -10 784 176 784 403 C784 585 669 705 497 705 C284 705 108 518 108 293 C108 111 223 -10 395 -10 L395 -10 Z M397 16 C240 16 136 128 136 295 C136 504 299 679 495 679 C652 679 756 567 756 401 C756 191 592 16 397 16 L397 16 Z " />
<glyph glyph-name="multiply" unicode="&#xd7;" horiz-adv-x="464" d="M491 452 L475 472 L289 311 L166 469 L147 453 L270 295 L84 135 L99 116 L285 275 L408 117 L427 133 L304 292 L491 452 Z " />
<glyph glyph-name="Oslash" unicode="&#xd8;" horiz-adv-x="787" d="M819 681 L803 698 L714 614 C664 672 589 705 499 705 C286 705 110 518 110 293 C110 216 131 150 167 99 L76 13 L90 -4 L181 82 C232 24 306 -10 397 -10 C611 -10 786 176 786 403 C786 480 765 546 729 596 L819 681 Z M137 295 C137 504 301 679 497 679 C580 679 647 648 693 595 L188 119 C155 165 137 225 137 295 L137 295 Z M758 401 C758 191 594 16 399 16 C316 16 248 47 202 101 L707 576 C740 530 758 470 758 401 L758 401 Z " />
<glyph glyph-name="Ugrave" unicode="&#xd9;" horiz-adv-x="667" d="M582 776 L590 795 L370 885 L361 863 L582 776 Z M332 -10 C478 -10 576 78 606 236 L695 695 L668 695 L580 237 C552 97 462 15 337 15 C204 15 134 110 163 257 L248 695 L221 695 L136 256 C106 100 185 -10 332 -10 L332 -10 Z " />
<glyph glyph-name="Uacute" unicode="&#xda;" horiz-adv-x="667" d="M383 777 L605 863 L597 884 L375 796 L383 777 Z M332 -10 C478 -10 576 78 606 236 L695 695 L668 695 L580 237 C552 97 462 15 337 15 C204 15 134 110 163 257 L248 695 L221 695 L136 256 C106 100 185 -10 332 -10 L332 -10 Z " />
<glyph glyph-name="Ucircumflex" unicode="&#xdb;" horiz-adv-x="667" d="M486 863 L566 776 L592 776 L498 883 L476 883 L338 776 L371 776 L486 863 Z M668 695 L580 237 C552 97 462 15 337 15 C204 15 134 110 163 257 L248 695 L221 695 L136 256 C106 100 185 -10 332 -10 C478 -10 576 78 606 236 L695 695 L668 695 Z " />
<glyph glyph-name="Udieresis" unicode="&#xdc;" horiz-adv-x="667" d="M393 793 C415 793 434 811 434 833 C434 853 422 866 403 866 C380 866 361 847 361 826 C361 805 374 793 393 793 L393 793 Z M555 793 C577 793 596 811 596 833 C596 853 583 866 564 866 C542 866 523 847 523 826 C523 805 536 793 555 793 L555 793 Z M332 -10 C478 -10 576 78 606 236 L695 695 L668 695 L580 237 C552 97 462 15 337 15 C204 15 134 110 163 257 L248 695 L221 695 L136 256 C106 100 185 -10 332 -10 L332 -10 Z " />
<glyph glyph-name="Yacute" unicode="&#xdd;" horiz-adv-x="581" d="M562 863 L553 884 L332 796 L339 777 L562 863 Z M684 695 L650 695 L340 315 L176 695 L148 695 L323 292 L267 0 L293 0 L349 288 L684 695 Z " />
<glyph glyph-name="Thorn" unicode="&#xde;" horiz-adv-x="572" d="M425 542 L225 542 L255 695 L228 695 L93 0 L120 0 L153 168 L353 168 C480 168 573 241 594 356 C615 469 550 542 425 542 L425 542 Z M567 355 C548 258 471 193 358 193 L157 193 L220 517 L420 517 C534 517 585 452 567 355 L567 355 Z " />
<glyph glyph-name="germandbls" unicode="&#xdf;" horiz-adv-x="581" d="M349 -10 C481 -10 574 79 575 207 C576 309 516 381 434 395 C535 413 611 486 611 583 C612 673 551 741 435 741 C303 741 211 659 184 519 L83 0 L109 0 L210 519 C235 645 317 717 431 717 C528 717 585 660 585 584 C584 504 519 409 377 409 L372 380 C488 380 549 308 549 207 C548 98 472 14 348 14 C244 14 194 73 193 152 L175 139 C178 54 238 -10 349 -10 L349 -10 Z " />
<glyph glyph-name="agrave" unicode="&#xe0;" horiz-adv-x="648" d="M520 635 L346 746 L333 726 L509 617 L520 635 Z M619 527 L589 369 C572 474 501 537 391 537 C221 537 90 388 90 216 C90 81 170 -10 300 -10 C406 -10 493 51 544 137 L517 0 L543 0 L645 527 L619 527 Z M304 14 C188 14 116 98 116 218 C116 374 237 513 391 513 C505 513 574 437 574 316 C574 156 456 14 304 14 L304 14 Z " />
<glyph glyph-name="aacute" unicode="&#xe1;" horiz-adv-x="648" d="M552 726 L541 746 L344 636 L353 618 L552 726 Z M619 527 L589 369 C572 474 501 537 391 537 C221 537 90 388 90 216 C90 81 170 -10 300 -10 C406 -10 493 51 544 137 L517 0 L543 0 L645 527 L619 527 Z M304 14 C188 14 116 98 116 218 C116 374 237 513 391 513 C505 513 574 437 574 316 C574 156 456 14 304 14 L304 14 Z " />
<glyph glyph-name="acircumflex" unicode="&#xe2;" horiz-adv-x="648" d="M452 722 L535 619 L561 619 L464 744 L442 744 L296 619 L330 619 L452 722 Z M619 527 L589 369 C572 474 501 537 391 537 C221 537 90 388 90 216 C90 81 170 -10 300 -10 C406 -10 493 51 544 137 L517 0 L543 0 L645 527 L619 527 Z M304 14 C188 14 116 98 116 218 C116 374 237 513 391 513 C505 513 574 437 574 316 C574 156 456 14 304 14 L304 14 Z " />
<glyph glyph-name="atilde" unicode="&#xe3;" horiz-adv-x="648" d="M377 697 C427 697 437 643 499 643 C542 643 568 671 582 711 L563 720 C550 687 531 667 500 667 C449 667 438 721 380 721 C337 721 312 691 297 653 L318 644 C330 677 348 697 377 697 L377 697 Z M619 527 L589 369 C572 474 501 537 391 537 C221 537 90 388 90 216 C90 81 170 -10 300 -10 C406 -10 493 51 544 137 L517 0 L543 0 L645 527 L619 527 Z M304 14 C188 14 116 98 116 218 C116 374 237 513 391 513 C505 513 574 437 574 316 C574 156 456 14 304 14 L304 14 Z " />
<glyph glyph-name="adieresis" unicode="&#xe4;" horiz-adv-x="648" d="M356 644 C379 644 400 663 400 685 C400 707 385 720 366 720 C343 720 322 701 322 679 C322 657 336 644 356 644 L356 644 Z M514 644 C537 644 558 663 558 685 C558 707 544 720 524 720 C501 720 480 701 480 679 C480 657 495 644 514 644 L514 644 Z M619 527 L589 369 C572 474 501 537 391 537 C221 537 90 388 90 216 C90 81 170 -10 300 -10 C406 -10 493 51 544 137 L517 0 L543 0 L645 527 L619 527 Z M304 14 C188 14 116 98 116 218 C116 374 237 513 391 513 C505 513 574 437 574 316 C574 156 456 14 304 14 L304 14 Z " />
<glyph glyph-name="aring" unicode="&#xe5;" horiz-adv-x="648" d="M418 593 C465 593 507 630 507 677 C507 717 481 747 439 747 C392 747 350 709 350 662 C350 623 377 593 418 593 L418 593 Z M437 726 C468 726 485 704 485 677 C485 640 453 613 420 613 C389 613 372 635 372 662 C372 699 404 726 437 726 L437 726 Z M619 527 L589 369 C572 474 501 537 391 537 C221 537 90 388 90 216 C90 81 170 -10 300 -10 C406 -10 493 51 544 137 L517 0 L543 0 L645 527 L619 527 Z M304 14 C188 14 116 98 116 218 C116 374 237 513 391 513 C505 513 574 437 574 316 C574 156 456 14 304 14 L304 14 Z " />
<glyph glyph-name="ae" unicode="&#xe6;" horiz-adv-x="1051" d="M868 537 C759 537 668 477 618 386 L645 527 L619 527 L590 372 C572 475 500 537 391 537 C221 537 90 388 90 216 C90 81 170 -10 300 -10 C405 -10 492 50 543 136 L517 0 L543 0 L577 173 C591 65 669 -10 781 -10 C894 -10 971 39 1025 144 L1003 154 C957 63 882 14 786 14 C674 14 592 98 592 215 C592 229 593 243 595 257 L1054 257 C1059 271 1065 316 1065 337 C1065 456 985 537 868 537 L868 537 Z M598 279 C625 412 734 514 865 514 C971 514 1039 444 1039 335 C1039 321 1037 297 1034 279 L598 279 Z M304 14 C188 14 116 98 116 218 C116 374 237 513 391 513 C505 513 574 437 574 316 C574 156 456 14 304 14 L304 14 Z " />
<glyph glyph-name="ccedilla" unicode="&#xe7;" horiz-adv-x="573" d="M390 513 C488 513 554 457 563 372 L590 379 C579 476 501 537 392 537 C221 537 90 388 90 218 C90 91 165 -1 289 -9 L249 -71 L252 -79 L264 -79 C308 -79 333 -109 333 -147 C333 -186 299 -218 248 -218 C208 -218 185 -198 174 -178 L157 -193 C170 -216 200 -239 248 -239 C312 -239 357 -199 357 -146 C357 -102 326 -65 279 -62 L312 -10 C418 -9 498 42 551 147 L527 156 C481 62 403 14 311 14 C192 14 116 102 116 221 C116 372 235 513 390 513 L390 513 Z " />
<glyph glyph-name="egrave" unicode="&#xe8;" horiz-adv-x="592" d="M498 634 L323 745 L310 725 L486 616 L498 634 Z M391 537 C222 537 90 394 90 212 C90 83 179 -10 305 -10 C418 -10 494 39 549 144 L527 154 C481 63 406 14 309 14 C198 14 116 98 116 215 C116 229 117 243 119 257 L578 257 C582 271 588 316 588 337 C588 456 509 537 391 537 L391 537 Z M122 279 C149 412 258 514 388 514 C495 514 563 444 563 335 C563 321 561 297 558 279 L122 279 Z " />
<glyph glyph-name="eacute" unicode="&#xe9;" horiz-adv-x="592" d="M530 725 L519 745 L322 635 L331 617 L530 725 Z M391 537 C222 537 90 394 90 212 C90 83 179 -10 305 -10 C418 -10 494 39 549 144 L527 154 C481 63 406 14 309 14 C198 14 116 98 116 215 C116 229 117 243 119 257 L578 257 C582 271 588 316 588 337 C588 456 509 537 391 537 L391 537 Z M122 279 C149 412 258 514 388 514 C495 514 563 444 563 335 C563 321 561 297 558 279 L122 279 Z " />
<glyph glyph-name="ecircumflex" unicode="&#xea;" horiz-adv-x="592" d="M428 722 L512 618 L538 618 L441 743 L419 743 L273 618 L306 618 L428 722 Z M391 537 C222 537 90 394 90 212 C90 83 179 -10 305 -10 C418 -10 494 39 549 144 L527 154 C481 63 406 14 309 14 C198 14 116 98 116 215 C116 229 117 243 119 257 L578 257 C582 271 588 316 588 337 C588 456 509 537 391 537 L391 537 Z M122 279 C149 412 258 514 388 514 C495 514 563 444 563 335 C563 321 561 297 558 279 L122 279 Z " />
<glyph glyph-name="edieresis" unicode="&#xeb;" horiz-adv-x="592" d="M332 643 C355 643 376 662 376 684 C376 706 362 719 342 719 C319 719 299 700 299 678 C299 656 313 643 332 643 L332 643 Z M491 643 C514 643 535 662 535 684 C535 706 521 719 501 719 C478 719 457 700 457 678 C457 656 471 643 491 643 L491 643 Z M391 537 C222 537 90 394 90 212 C90 83 179 -10 305 -10 C418 -10 494 39 549 144 L527 154 C481 63 406 14 309 14 C198 14 116 98 116 215 C116 229 117 243 119 257 L578 257 C582 271 588 316 588 337 C588 456 509 537 391 537 L391 537 Z M122 279 C149 412 258 514 388 514 C495 514 563 444 563 335 C563 321 561 297 558 279 L122 279 Z " />
<glyph glyph-name="igrave" unicode="&#xec;" horiz-adv-x="200" d="M294 617 L306 635 L132 746 L119 726 L294 617 Z M83 0 L109 0 L211 527 L185 527 L83 0 Z " />
<glyph glyph-name="iacute" unicode="&#xed;" horiz-adv-x="200" d="M140 618 L339 726 L328 746 L131 636 L140 618 Z M83 0 L109 0 L211 527 L185 527 L83 0 Z " />
<glyph glyph-name="icircumflex" unicode="&#xee;" horiz-adv-x="200" d="M347 619 L250 744 L228 744 L82 619 L115 619 L237 723 L321 619 L347 619 Z M83 0 L109 0 L211 527 L185 527 L83 0 Z " />
<glyph glyph-name="idieresis" unicode="&#xef;" horiz-adv-x="200" d="M142 644 C165 644 186 663 186 685 C186 707 172 720 152 720 C129 720 108 701 108 679 C108 657 122 644 142 644 L142 644 Z M301 644 C324 644 344 663 344 685 C344 707 330 720 311 720 C288 720 267 701 267 679 C267 657 281 644 301 644 L301 644 Z M83 0 L109 0 L211 527 L185 527 L83 0 Z " />
<glyph glyph-name="eth" unicode="&#xf0;" horiz-adv-x="608" d="M440 707 L543 795 L527 810 L420 718 C363 746 297 761 224 761 L210 738 C279 738 343 725 398 699 L262 582 L277 567 L418 688 C520 631 586 528 593 385 C560 475 471 518 385 518 C222 518 88 383 88 213 C88 88 168 -10 310 -10 C488 -10 620 142 620 364 C620 521 552 642 440 707 L440 707 Z M314 14 C188 14 115 103 115 217 C115 375 234 493 381 493 C498 493 585 414 585 307 C585 153 464 14 314 14 L314 14 Z " />
<glyph glyph-name="ntilde" unicode="&#xf1;" horiz-adv-x="615" d="M359 696 C409 696 419 642 480 642 C524 642 549 670 564 710 L544 719 C532 686 513 666 482 666 C430 666 420 720 362 720 C319 720 294 690 278 652 L300 643 C311 676 329 696 359 696 L359 696 Z M406 537 C305 537 225 481 188 410 L211 527 L185 527 L83 0 L109 0 L172 325 L172 324 C193 431 287 513 400 513 C514 513 578 443 553 312 L493 0 L520 0 L581 314 C609 457 533 537 406 537 L406 537 Z " />
<glyph glyph-name="ograve" unicode="&#xf2;" horiz-adv-x="623" d="M507 616 L519 634 L344 745 L331 725 L507 616 Z M312 -10 C488 -10 614 143 614 309 C614 448 527 537 393 537 C218 537 90 385 90 217 C90 78 177 -10 312 -10 L312 -10 Z M315 14 C195 14 117 97 117 219 C117 368 232 513 391 513 C510 513 587 431 587 309 C587 159 471 14 315 14 L315 14 Z " />
<glyph glyph-name="oacute" unicode="&#xf3;" horiz-adv-x="623" d="M346 617 L544 725 L533 745 L336 635 L346 617 Z M312 -10 C488 -10 614 143 614 309 C614 448 527 537 393 537 C218 537 90 385 90 217 C90 78 177 -10 312 -10 L312 -10 Z M315 14 C195 14 117 97 117 219 C117 368 232 513 391 513 C510 513 587 431 587 309 C587 159 471 14 315 14 L315 14 Z " />
<glyph glyph-name="ocircumflex" unicode="&#xf4;" horiz-adv-x="623" d="M439 722 L523 618 L549 618 L452 743 L430 743 L284 618 L317 618 L439 722 Z M393 537 C218 537 90 385 90 217 C90 78 177 -10 312 -10 C488 -10 614 143 614 309 C614 448 527 537 393 537 L393 537 Z M315 14 C195 14 117 97 117 219 C117 368 232 513 391 513 C510 513 587 431 587 309 C587 159 471 14 315 14 L315 14 Z " />
<glyph glyph-name="otilde" unicode="&#xf5;" horiz-adv-x="623" d="M486 642 C530 642 555 670 570 710 L550 719 C538 686 519 666 488 666 C436 666 426 720 368 720 C325 720 300 690 284 652 L306 643 C317 676 335 696 365 696 C415 696 425 642 486 642 L486 642 Z M312 -10 C488 -10 614 143 614 309 C614 448 527 537 393 537 C218 537 90 385 90 217 C90 78 177 -10 312 -10 L312 -10 Z M315 14 C195 14 117 97 117 219 C117 368 232 513 391 513 C510 513 587 431 587 309 C587 159 471 14 315 14 L315 14 Z " />
<glyph glyph-name="odieresis" unicode="&#xf6;" horiz-adv-x="623" d="M339 643 C362 643 383 662 383 684 C383 706 369 719 349 719 C326 719 305 700 305 678 C305 656 320 643 339 643 L339 643 Z M498 643 C521 643 542 662 542 684 C542 706 527 719 508 719 C485 719 464 700 464 678 C464 656 478 643 498 643 L498 643 Z M312 -10 C488 -10 614 143 614 309 C614 448 527 537 393 537 C218 537 90 385 90 217 C90 78 177 -10 312 -10 L312 -10 Z M315 14 C195 14 117 97 117 219 C117 368 232 513 391 513 C510 513 587 431 587 309 C587 159 471 14 315 14 L315 14 Z " />
<glyph glyph-name="divide" unicode="&#xf7;" horiz-adv-x="463" d="M318 434 C339 434 355 450 355 472 C355 490 342 502 324 502 C303 502 287 486 287 465 C287 446 300 434 318 434 L318 434 Z M86 286 L486 286 L491 310 L91 310 L86 286 Z M250 77 C271 77 287 92 287 114 C287 132 274 145 257 145 C236 145 219 129 219 107 C219 89 232 77 250 77 L250 77 Z " />
<glyph glyph-name="oslash" unicode="&#xf8;" horiz-adv-x="605" d="M671 494 L660 511 L576 446 C539 504 475 537 392 537 C217 537 89 385 89 217 C89 169 100 127 119 93 L43 34 L55 16 L130 74 C169 21 232 -10 311 -10 C488 -10 613 143 613 309 C613 355 604 395 586 428 L671 494 Z M116 219 C116 368 232 513 391 513 C464 513 522 482 555 430 L142 110 C125 141 116 178 116 219 L116 219 Z M587 309 C587 159 471 14 314 14 C244 14 187 43 153 92 L565 412 C579 382 587 348 587 309 L587 309 Z " />
<glyph glyph-name="ugrave" unicode="&#xf9;" horiz-adv-x="605" d="M493 635 L319 746 L305 726 L481 617 L493 635 Z M577 527 L513 192 C488 91 396 14 291 14 C183 14 118 84 144 215 L204 527 L177 527 L116 213 C88 70 164 -10 285 -10 C384 -10 462 46 499 119 L476 0 L502 0 L604 527 L577 527 Z " />
<glyph glyph-name="uacute" unicode="&#xfa;" horiz-adv-x="605" d="M526 726 L515 746 L318 636 L328 618 L526 726 Z M577 527 L513 192 C488 91 396 14 291 14 C183 14 118 84 144 215 L204 527 L177 527 L116 213 C88 70 164 -10 285 -10 C384 -10 462 46 499 119 L476 0 L502 0 L604 527 L577 527 Z " />
<glyph glyph-name="ucircumflex" unicode="&#xfb;" horiz-adv-x="605" d="M419 723 L503 619 L529 619 L432 744 L410 744 L264 619 L297 619 L419 723 Z M577 527 L513 192 C488 91 396 14 291 14 C183 14 118 84 144 215 L204 527 L177 527 L116 213 C88 70 164 -10 285 -10 C384 -10 462 46 499 119 L476 0 L502 0 L604 527 L577 527 Z " />
<glyph glyph-name="udieresis" unicode="&#xfc;" horiz-adv-x="605" d="M327 644 C350 644 370 663 370 685 C370 707 356 720 337 720 C314 720 293 701 293 679 C293 657 307 644 327 644 L327 644 Z M485 644 C508 644 529 663 529 685 C529 707 515 720 495 720 C472 720 451 701 451 679 C451 657 466 644 485 644 L485 644 Z M577 527 L513 192 C488 91 396 14 291 14 C183 14 118 84 144 215 L204 527 L177 527 L116 213 C88 70 164 -10 285 -10 C384 -10 462 46 499 119 L476 0 L502 0 L604 527 L577 527 Z " />
<glyph glyph-name="yacute" unicode="&#xfd;" horiz-adv-x="523" d="M491 726 L480 746 L283 636 L292 618 L491 726 Z M563 527 L257 31 L142 527 L114 527 L239 3 L124 -179 L153 -179 L594 527 L563 527 Z " />
<glyph glyph-name="thorn" unicode="&#xfe;" horiz-adv-x="629" d="M436 537 C333 537 238 475 183 380 L251 731 L225 731 L48 -179 L74 -179 L138 147 C155 52 226 -10 330 -10 C471 -10 602 107 632 263 C662 420 579 537 436 537 L436 537 Z M606 263 C578 122 460 14 335 14 C205 14 132 117 160 263 C188 409 301 513 431 513 C559 513 633 405 606 263 L606 263 Z " />
<glyph glyph-name="ydieresis" unicode="&#xff;" horiz-adv-x="523" d="M290 644 C313 644 333 663 333 685 C333 707 319 720 299 720 C276 720 256 701 256 679 C256 657 270 644 290 644 L290 644 Z M448 644 C471 644 492 663 492 685 C492 707 478 720 458 720 C435 720 414 701 414 679 C414 657 428 644 448 644 L448 644 Z M563 527 L257 31 L142 527 L114 527 L239 3 L124 -179 L153 -179 L594 527 L563 527 Z " />
<glyph glyph-name="Amacron" unicode="&#x100;" horiz-adv-x="599" d="M331 842 L327 818 L576 818 L580 842 L331 842 Z M409 695 L13 0 L43 0 L182 245 L495 245 L539 0 L565 0 L439 695 L409 695 Z M195 269 L420 665 L491 269 L195 269 Z " />
<glyph glyph-name="amacron" unicode="&#x101;" horiz-adv-x="648" d="M565 693 L318 693 L314 670 L561 670 L565 693 Z M619 527 L589 369 C572 474 501 537 391 537 C221 537 90 388 90 216 C90 81 170 -10 300 -10 C406 -10 493 51 544 137 L517 0 L543 0 L645 527 L619 527 Z M304 14 C188 14 116 98 116 218 C116 374 237 513 391 513 C505 513 574 437 574 316 C574 156 456 14 304 14 L304 14 Z " />
<glyph glyph-name="Abreve" unicode="&#x102;" horiz-adv-x="599" d="M448 776 C519 776 568 827 578 883 L555 883 C546 841 505 799 450 799 C392 799 368 842 376 883 L352 883 C342 831 377 776 448 776 L448 776 Z M409 695 L13 0 L43 0 L182 245 L495 245 L539 0 L565 0 L439 695 L409 695 Z M195 269 L420 665 L491 269 L195 269 Z " />
<glyph glyph-name="abreve" unicode="&#x103;" horiz-adv-x="648" d="M432 619 C518 619 561 687 571 744 L548 744 C540 702 505 642 435 642 C366 642 348 701 356 744 L333 744 C322 691 352 619 432 619 L432 619 Z M619 527 L589 369 C572 474 501 537 391 537 C221 537 90 388 90 216 C90 81 170 -10 300 -10 C406 -10 493 51 544 137 L517 0 L543 0 L645 527 L619 527 Z M304 14 C188 14 116 98 116 218 C116 374 237 513 391 513 C505 513 574 437 574 316 C574 156 456 14 304 14 L304 14 Z " />
<glyph glyph-name="Aogonek" unicode="&#x104;" horiz-adv-x="599" d="M493 -200 C463 -200 445 -184 445 -154 C445 -108 485 -70 531 -30 L565 0 L439 695 L409 695 L13 0 L43 0 L182 245 L495 245 L539 0 L540 0 L518 -18 C476 -54 422 -100 422 -155 C422 -196 448 -221 489 -221 C521 -221 543 -209 563 -189 L551 -175 C536 -192 516 -200 493 -200 L493 -200 Z M195 269 L420 665 L491 269 L195 269 Z " />
<glyph glyph-name="aogonek" unicode="&#x105;" horiz-adv-x="648" d="M508 -30 L543 0 L645 527 L619 527 L589 369 C572 474 501 537 391 537 C221 537 90 388 90 216 C90 81 170 -10 300 -10 C406 -10 493 51 544 137 L517 0 L518 0 L496 -18 C454 -54 399 -100 399 -155 C399 -196 426 -221 467 -221 C499 -221 521 -209 540 -189 L529 -175 C514 -192 493 -200 471 -200 C441 -200 423 -184 423 -154 C423 -108 463 -70 508 -30 L508 -30 Z M304 14 C188 14 116 98 116 218 C116 374 237 513 391 513 C505 513 574 437 574 316 C574 156 456 14 304 14 L304 14 Z " />
<glyph glyph-name="Cacute" unicode="&#x106;" horiz-adv-x="726" d="M430 777 L652 863 L643 884 L422 796 L430 777 Z M389 -10 C541 -10 633 60 707 204 L683 215 C613 80 528 16 392 16 C238 16 136 125 136 279 C136 487 277 679 485 679 C624 679 705 596 728 483 L755 490 C733 611 639 705 490 705 C262 705 108 501 108 277 C108 109 222 -10 389 -10 L389 -10 Z " />
<glyph glyph-name="cacute" unicode="&#x107;" horiz-adv-x="573" d="M351 618 L550 726 L539 746 L342 636 L351 618 Z M308 -10 C416 -10 497 41 551 147 L527 156 C481 62 403 14 311 14 C192 14 116 102 116 221 C116 372 235 513 390 513 C488 513 554 457 563 372 L590 379 C579 476 501 537 392 537 C221 537 90 388 90 218 C90 85 173 -10 308 -10 L308 -10 Z " />
<glyph glyph-name="Cdotaccent" unicode="&#x10a;" horiz-adv-x="726" d="M524 793 C546 793 564 811 564 832 C564 851 550 865 531 865 C509 865 491 847 491 826 C491 807 506 793 524 793 L524 793 Z M389 -10 C541 -10 633 60 707 204 L683 215 C613 80 528 16 392 16 C238 16 136 125 136 279 C136 487 277 679 485 679 C624 679 705 596 728 483 L755 490 C733 611 639 705 490 705 C262 705 108 501 108 277 C108 109 222 -10 389 -10 L389 -10 Z " />
<glyph glyph-name="cdotaccent" unicode="&#x10b;" horiz-adv-x="573" d="M415 643 C439 643 461 663 461 687 C461 707 447 722 426 722 C401 722 380 702 380 678 C380 658 393 643 415 643 L415 643 Z M308 -10 C416 -10 497 41 551 147 L527 156 C481 62 403 14 311 14 C192 14 116 102 116 221 C116 372 235 513 390 513 C488 513 554 457 563 372 L590 379 C579 476 501 537 392 537 C221 537 90 388 90 218 C90 85 173 -10 308 -10 L308 -10 Z " />
<glyph glyph-name="Ccaron" unicode="&#x10c;" horiz-adv-x="726" d="M527 776 L665 883 L632 883 L518 797 L437 883 L410 883 L505 776 L527 776 Z M485 679 C624 679 705 596 728 483 L755 490 C733 611 639 705 490 705 C262 705 108 501 108 277 C108 109 222 -10 389 -10 C541 -10 633 60 707 204 L683 215 C613 80 528 16 392 16 C238 16 136 125 136 279 C136 487 277 679 485 679 L485 679 Z " />
<glyph glyph-name="ccaron" unicode="&#x10d;" horiz-adv-x="573" d="M422 619 L569 744 L536 744 L413 639 L332 744 L304 744 L400 619 L422 619 Z M390 513 C488 513 554 457 563 372 L590 379 C579 476 501 537 392 537 C221 537 90 388 90 218 C90 85 173 -10 308 -10 C416 -10 497 41 551 147 L527 156 C481 62 403 14 311 14 C192 14 116 102 116 221 C116 372 235 513 390 513 L390 513 Z " />
<glyph glyph-name="Dcaron" unicode="&#x10e;" horiz-adv-x="713" d="M492 776 L630 883 L597 883 L483 797 L402 883 L375 883 L470 776 L492 776 Z M436 695 L228 695 L93 0 L330 0 C542 0 714 181 714 403 C714 580 604 695 436 695 L436 695 Z M334 25 L124 25 L250 670 L432 670 C587 670 686 565 686 402 C686 198 525 25 334 25 L334 25 Z " />
<glyph glyph-name="dcaron" unicode="&#x10f;" horiz-adv-x="661" d="M589 374 C571 476 500 537 391 537 C221 537 90 388 90 216 C90 81 170 -10 300 -10 C405 -10 492 50 543 136 L517 0 L543 0 L685 731 L659 731 L589 374 Z M799 731 L741 529 L763 529 L824 731 L799 731 Z M304 14 C188 14 116 98 116 218 C116 374 237 513 391 513 C505 513 574 437 574 316 C574 156 456 14 304 14 L304 14 Z " />
<glyph glyph-name="Dcroat" unicode="&#x110;" horiz-adv-x="717" d="M440 695 L232 695 L170 377 L78 377 L74 354 L166 354 L97 0 L335 0 C547 0 719 181 719 403 C719 580 609 695 440 695 L440 695 Z M338 25 L129 25 L193 354 L341 354 L344 377 L197 377 L254 670 L436 670 C591 670 691 565 691 402 C691 198 529 25 338 25 L338 25 Z " />
<glyph glyph-name="dcroat" unicode="&#x111;" horiz-adv-x="648" d="M755 632 L666 632 L685 731 L659 731 L640 632 L488 632 L484 609 L635 609 L589 374 C571 476 500 537 391 537 C221 537 90 388 90 216 C90 81 170 -10 300 -10 C405 -10 492 50 543 136 L517 0 L543 0 L661 609 L751 609 L755 632 Z M304 14 C188 14 116 98 116 218 C116 374 237 513 391 513 C505 513 574 437 574 316 C574 156 456 14 304 14 L304 14 Z " />
<glyph glyph-name="Emacron" unicode="&#x112;" horiz-adv-x="549" d="M576 842 L327 842 L323 818 L572 818 L576 842 Z M616 671 L620 695 L228 695 L93 0 L492 0 L496 24 L125 24 L189 353 L524 353 L529 378 L194 378 L250 671 L616 671 Z " />
<glyph glyph-name="emacron" unicode="&#x113;" horiz-adv-x="592" d="M543 692 L296 692 L292 669 L539 669 L543 692 Z M391 537 C222 537 90 394 90 212 C90 83 179 -10 305 -10 C418 -10 494 39 549 144 L527 154 C481 63 406 14 309 14 C198 14 116 98 116 215 C116 229 117 243 119 257 L578 257 C582 271 588 316 588 337 C588 456 509 537 391 537 L391 537 Z M122 279 C149 412 258 514 388 514 C495 514 563 444 563 335 C563 321 561 297 558 279 L122 279 Z " />
<glyph glyph-name="Edotaccent" unicode="&#x116;" horiz-adv-x="549" d="M439 793 C461 793 479 811 479 832 C479 851 465 865 446 865 C424 865 406 847 406 826 C406 807 420 793 439 793 L439 793 Z M616 671 L620 695 L228 695 L93 0 L492 0 L496 24 L125 24 L189 353 L524 353 L529 378 L194 378 L250 671 L616 671 Z " />
<glyph glyph-name="edotaccent" unicode="&#x117;" horiz-adv-x="592" d="M414 642 C438 642 460 662 460 686 C460 706 447 721 425 721 C401 721 379 701 379 677 C379 657 392 642 414 642 L414 642 Z M391 537 C222 537 90 394 90 212 C90 83 179 -10 305 -10 C418 -10 494 39 549 144 L527 154 C481 63 406 14 309 14 C198 14 116 98 116 215 C116 229 117 243 119 257 L578 257 C582 271 588 316 588 337 C588 456 509 537 391 537 L391 537 Z M122 279 C149 412 258 514 388 514 C495 514 563 444 563 335 C563 321 561 297 558 279 L122 279 Z " />
<glyph glyph-name="Eogonek" unicode="&#x118;" horiz-adv-x="549" d="M616 671 L620 695 L228 695 L93 0 L467 0 L445 -18 C402 -54 348 -100 348 -155 C348 -196 374 -221 416 -221 C448 -221 470 -209 489 -189 L478 -175 C463 -192 442 -200 420 -200 C389 -200 372 -184 372 -154 C372 -108 412 -70 457 -30 L492 0 L496 24 L125 24 L189 353 L524 353 L529 378 L194 378 L250 671 L616 671 Z " />
<glyph glyph-name="eogonek" unicode="&#x119;" horiz-adv-x="592" d="M391 537 C222 537 90 394 90 212 C90 83 179 -10 305 -10 C322 -10 337 -9 352 -7 L340 -17 C298 -53 244 -99 244 -154 C244 -195 270 -220 311 -220 C343 -220 365 -208 385 -188 L373 -174 C358 -191 338 -199 315 -199 C285 -199 267 -183 267 -153 C267 -107 307 -69 353 -29 L386 0 C456 19 508 66 549 144 L527 154 C481 63 406 14 309 14 C198 14 116 98 116 215 C116 229 117 243 119 257 L578 257 C582 271 588 316 588 337 C588 456 509 537 391 537 L391 537 Z M122 279 C149 412 258 514 388 514 C495 514 563 444 563 335 C563 321 561 297 558 279 L122 279 Z " />
<glyph glyph-name="Ecaron" unicode="&#x11a;" horiz-adv-x="549" d="M446 776 L583 883 L551 883 L437 797 L356 883 L329 883 L424 776 L446 776 Z M616 671 L620 695 L228 695 L93 0 L492 0 L496 24 L125 24 L189 353 L524 353 L529 378 L194 378 L250 671 L616 671 Z " />
<glyph glyph-name="ecaron" unicode="&#x11b;" horiz-adv-x="592" d="M416 618 L562 743 L529 743 L406 638 L325 743 L297 743 L394 618 L416 618 Z M391 537 C222 537 90 394 90 212 C90 83 179 -10 305 -10 C418 -10 494 39 549 144 L527 154 C481 63 406 14 309 14 C198 14 116 98 116 215 C116 229 117 243 119 257 L578 257 C582 271 588 316 588 337 C588 456 509 537 391 537 L391 537 Z M122 279 C149 412 258 514 388 514 C495 514 563 444 563 335 C563 321 561 297 558 279 L122 279 Z " />
<glyph glyph-name="Gbreve" unicode="&#x11e;" horiz-adv-x="766" d="M517 776 C588 776 637 827 647 883 L623 883 C615 841 574 799 519 799 C461 799 437 842 445 883 L421 883 C410 831 446 776 517 776 L517 776 Z M764 349 L441 349 L437 325 L732 325 C687 131 561 15 395 15 C237 15 136 122 136 288 C136 502 293 679 486 679 C617 679 710 605 731 483 L758 491 C735 622 631 705 489 705 C279 705 108 517 108 286 C108 106 220 -10 393 -10 C583 -10 723 124 764 349 L764 349 Z " />
<glyph glyph-name="gbreve" unicode="&#x11f;" horiz-adv-x="648" d="M428 619 C514 619 556 687 567 744 L543 744 C535 702 500 642 430 642 C362 642 343 701 351 744 L328 744 C317 691 347 619 428 619 L428 619 Z M621 527 L590 369 C573 474 501 537 391 537 C221 537 90 389 90 217 C90 83 170 -8 300 -8 C407 -8 495 54 546 142 L530 58 C501 -90 409 -165 274 -165 C166 -165 94 -113 83 -15 L59 -21 C71 -130 155 -189 272 -189 C428 -189 524 -104 556 58 L647 527 L621 527 Z M304 15 C188 15 116 99 116 219 C116 375 237 513 391 513 C505 513 574 437 574 317 C574 157 456 15 304 15 L304 15 Z " />
<glyph glyph-name="Gdotaccent" unicode="&#x120;" horiz-adv-x="766" d="M516 793 C538 793 556 811 556 832 C556 851 541 865 522 865 C500 865 482 847 482 826 C482 807 497 793 516 793 L516 793 Z M764 349 L441 349 L437 325 L732 325 C687 131 561 15 395 15 C237 15 136 122 136 288 C136 502 293 679 486 679 C617 679 710 605 731 483 L758 491 C735 622 631 705 489 705 C279 705 108 517 108 286 C108 106 220 -10 393 -10 C583 -10 723 124 764 349 L764 349 Z " />
<glyph glyph-name="gdotaccent" unicode="&#x121;" horiz-adv-x="648" d="M422 643 C446 643 468 663 468 687 C468 707 454 722 432 722 C408 722 387 702 387 678 C387 658 400 643 422 643 L422 643 Z M621 527 L590 369 C573 474 501 537 391 537 C221 537 90 389 90 217 C90 83 170 -8 300 -8 C407 -8 495 54 546 142 L530 58 C501 -90 409 -165 274 -165 C166 -165 94 -113 83 -15 L59 -21 C71 -130 155 -189 272 -189 C428 -189 524 -104 556 58 L647 527 L621 527 Z M304 15 C188 15 116 99 116 219 C116 375 237 513 391 513 C505 513 574 437 574 317 C574 157 456 15 304 15 L304 15 Z " />
<glyph glyph-name="uni0122" unicode="&#x122;" horiz-adv-x="766" d="M764 349 L441 349 L437 325 L732 325 C687 131 561 15 395 15 C237 15 136 122 136 288 C136 502 293 679 486 679 C617 679 710 605 731 483 L758 491 C735 622 631 705 489 705 C279 705 108 517 108 286 C108 106 220 -10 393 -10 C583 -10 723 124 764 349 L764 349 Z M371 -50 C349 -50 332 -69 332 -89 C332 -108 345 -119 362 -119 L363 -119 C361 -121 360 -124 358 -126 L307 -199 L323 -207 L375 -136 C393 -111 401 -96 401 -80 C401 -63 390 -50 371 -50 L371 -50 Z " />
<glyph glyph-name="uni0123" unicode="&#x123;" horiz-adv-x="648" d="M402 608 C424 608 441 627 441 647 C441 666 428 677 411 677 C411 677 411 677 410 677 L415 685 L467 757 L450 765 L398 695 C380 669 372 654 372 638 C372 621 383 608 402 608 L402 608 Z M621 527 L590 369 C573 474 501 537 391 537 C221 537 90 389 90 217 C90 83 170 -8 300 -8 C407 -8 495 54 546 142 L530 58 C501 -90 409 -165 274 -165 C166 -165 94 -113 83 -15 L59 -21 C71 -130 155 -189 272 -189 C428 -189 524 -104 556 58 L647 527 L621 527 Z M304 15 C188 15 116 99 116 219 C116 375 237 513 391 513 C505 513 574 437 574 317 C574 157 456 15 304 15 L304 15 Z " />
<glyph glyph-name="Hbar" unicode="&#x126;" horiz-adv-x="685" d="M740 556 L675 556 L702 695 L676 695 L649 556 L229 556 L256 695 L229 695 L202 556 L137 556 L133 532 L197 532 L94 0 L121 0 L190 353 L610 353 L541 0 L567 0 L670 532 L735 532 L740 556 Z M614 378 L194 378 L224 532 L644 532 L614 378 Z " />
<glyph glyph-name="hbar" unicode="&#x127;" horiz-adv-x="615" d="M406 537 C306 537 228 483 190 412 L228 609 L383 609 L387 632 L232 632 L251 731 L225 731 L206 632 L120 632 L116 609 L201 609 L83 0 L109 0 L172 325 L172 324 C193 431 287 513 400 513 C514 513 578 443 553 312 L493 0 L520 0 L581 314 C609 457 533 537 406 537 L406 537 Z " />
<glyph glyph-name="Itilde" unicode="&#x128;" horiz-adv-x="223" d="M309 788 C344 788 365 816 377 856 L361 865 C351 832 335 812 310 812 C268 812 260 866 212 866 C177 866 157 836 144 798 L162 789 C171 822 186 842 210 842 C250 842 259 788 309 788 L309 788 Z M93 0 L120 0 L255 695 L228 695 L93 0 Z " />
<glyph glyph-name="itilde" unicode="&#x129;" horiz-adv-x="200" d="M275 643 C310 643 331 671 342 711 L327 720 C316 687 301 667 277 667 C235 667 227 721 180 721 C146 721 125 691 113 653 L130 643 C140 677 154 697 178 697 C218 697 226 643 275 643 L275 643 Z M83 0 L109 0 L211 527 L185 527 L83 0 Z " />
<glyph glyph-name="Imacron" unicode="&#x12a;" horiz-adv-x="223" d="M135 818 L333 818 L336 842 L138 842 L135 818 Z M93 0 L120 0 L255 695 L228 695 L93 0 Z " />
<glyph glyph-name="imacron" unicode="&#x12b;" horiz-adv-x="200" d="M124 670 L321 670 L325 693 L127 693 L124 670 Z M83 0 L109 0 L211 527 L185 527 L83 0 Z " />
<glyph glyph-name="Iogonek" unicode="&#x12e;" horiz-adv-x="223" d="M85 -30 L120 0 L255 695 L228 695 L93 0 L94 0 L72 -18 C30 -54 -24 -100 -24 -155 C-24 -196 2 -221 43 -221 C75 -221 97 -209 117 -189 L105 -175 C90 -192 70 -200 47 -200 C17 -200 -1 -184 -1 -154 C-1 -108 39 -70 85 -30 L85 -30 Z " />
<glyph glyph-name="iogonek" unicode="&#x12f;" horiz-adv-x="203" d="M234 722 C210 722 188 702 188 678 C188 658 202 643 224 643 C248 643 269 662 269 687 C269 707 256 722 234 722 L234 722 Z M83 0 L84 0 L62 -18 C20 -54 -34 -100 -34 -155 C-34 -196 -8 -221 33 -221 C65 -221 87 -209 107 -189 L95 -175 C80 -192 60 -200 37 -200 C7 -200 -11 -184 -11 -154 C-11 -108 29 -70 75 -30 L109 0 L211 527 L185 527 L83 0 Z " />
<glyph glyph-name="Idotaccent" unicode="&#x130;" horiz-adv-x="223" d="M266 793 C288 793 307 811 307 832 C307 851 292 865 273 865 C251 865 233 847 233 826 C233 807 248 793 266 793 L266 793 Z M93 0 L120 0 L255 695 L228 695 L93 0 Z " />
<glyph glyph-name="dotlessi" unicode="&#x131;" horiz-adv-x="195" d="M83 0 L109 0 L211 527 L185 527 L83 0 Z " />
<glyph glyph-name="IJ" unicode="&#x132;" horiz-adv-x="550" d="M93 0 L120 0 L255 695 L228 695 L93 0 Z M246 0 L297 0 C393 0 462 60 481 161 L585 695 L558 695 L455 162 C438 77 379 24 299 24 L250 24 L246 0 Z " />
<glyph glyph-name="ij" unicode="&#x133;" horiz-adv-x="407" d="M224 643 C248 643 269 662 269 687 C269 707 256 722 234 722 C210 722 188 702 188 678 C188 658 202 643 224 643 L224 643 Z M430 642 C454 642 476 662 476 686 C476 706 462 721 441 721 C416 721 395 702 395 677 C395 657 408 642 430 642 L430 642 Z M83 0 L109 0 L211 527 L185 527 L83 0 Z M116 -179 L130 -179 C220 -179 292 -120 312 -14 L417 527 L390 527 L286 -14 C269 -100 208 -154 134 -154 L121 -154 L116 -179 Z " />
<glyph glyph-name="uni0136" unicode="&#x136;" horiz-adv-x="582" d="M659 695 L618 695 L193 377 L255 695 L228 695 L93 0 L120 0 L189 357 L535 0 L571 0 L217 365 L659 695 Z M300 -50 C278 -50 261 -69 261 -89 C261 -108 274 -119 291 -119 L292 -119 C290 -121 289 -124 287 -126 L236 -199 L252 -207 L304 -136 C322 -111 330 -96 330 -80 C330 -63 319 -50 300 -50 L300 -50 Z " />
<glyph glyph-name="uni0137" unicode="&#x137;" horiz-adv-x="476" d="M551 527 L509 527 L167 296 L251 731 L225 731 L83 0 L109 0 L164 283 L427 0 L461 0 L195 286 L551 527 Z M254 -50 C233 -50 216 -69 216 -89 C216 -108 228 -119 245 -119 L246 -119 C245 -121 244 -124 242 -126 L190 -199 L206 -207 L259 -136 C277 -111 285 -96 285 -80 C285 -63 274 -50 254 -50 L254 -50 Z " />
<glyph glyph-name="kgreenlandic" unicode="&#x138;" horiz-adv-x="463" d="M552 527 L515 527 L163 277 L211 527 L185 527 L83 0 L109 0 L160 263 L425 0 L461 0 L191 269 L552 527 Z " />
<glyph glyph-name="Lacute" unicode="&#x139;" horiz-adv-x="517" d="M393 863 L384 884 L163 796 L170 777 L393 863 Z M125 25 L255 695 L228 695 L93 0 L486 0 L490 25 L125 25 Z " />
<glyph glyph-name="lacute" unicode="&#x13a;" horiz-adv-x="200" d="M160 813 L382 899 L374 920 L152 832 L160 813 Z M83 0 L109 0 L251 731 L225 731 L83 0 Z " />
<glyph glyph-name="uni013B" unicode="&#x13b;" horiz-adv-x="517" d="M125 25 L255 695 L228 695 L93 0 L486 0 L490 25 L125 25 Z M287 -50 C265 -50 248 -69 248 -89 C248 -108 261 -119 278 -119 C277 -121 276 -124 274 -126 L222 -199 L239 -207 L291 -136 C309 -111 317 -96 317 -80 C317 -63 306 -50 287 -50 L287 -50 Z " />
<glyph glyph-name="uni013C" unicode="&#x13c;" horiz-adv-x="200" d="M251 731 L225 731 L83 0 L109 0 L251 731 Z M86 -50 C65 -50 48 -69 48 -89 C48 -108 60 -119 77 -119 L78 -119 C77 -121 76 -124 74 -126 L22 -199 L38 -207 L91 -136 C109 -111 117 -96 117 -80 C117 -63 106 -50 86 -50 L86 -50 Z " />
<glyph glyph-name="Lcaron" unicode="&#x13d;" horiz-adv-x="519" d="M535 705 L510 705 L452 503 L474 503 L535 705 Z M255 695 L228 695 L93 0 L486 0 L490 25 L125 25 L255 695 Z " />
<glyph glyph-name="lcaron" unicode="&#x13e;" horiz-adv-x="214" d="M83 0 L109 0 L251 731 L225 731 L83 0 Z M294 529 L316 529 L377 731 L352 731 L294 529 Z " />
<glyph glyph-name="Ldot" unicode="&#x13f;" horiz-adv-x="519" d="M125 25 L255 695 L228 695 L93 0 L486 0 L490 25 L125 25 Z M427 321 C449 321 465 339 465 359 C465 376 452 389 434 389 C413 389 396 373 396 353 C396 334 409 321 427 321 L427 321 Z " />
<glyph glyph-name="ldot" unicode="&#x140;" horiz-adv-x="233" d="M83 0 L109 0 L251 731 L225 731 L83 0 Z M274 337 C296 337 312 355 312 374 C312 392 299 405 280 405 C259 405 243 388 243 368 C243 350 256 337 274 337 L274 337 Z " />
<glyph glyph-name="Lslash" unicode="&#x141;" horiz-adv-x="545" d="M153 25 L214 341 L342 395 L334 416 L219 367 L283 695 L257 695 L191 355 L81 308 L88 287 L186 329 L122 0 L515 0 L519 25 L153 25 Z " />
<glyph glyph-name="lslash" unicode="&#x142;" horiz-adv-x="202" d="M299 424 L289 442 L188 388 L255 731 L228 731 L158 372 L42 310 L51 291 L153 346 L86 0 L113 0 L183 362 L299 424 Z " />
<glyph glyph-name="Nacute" unicode="&#x143;" horiz-adv-x="683" d="M602 863 L593 884 L372 796 L379 777 L602 863 Z M674 695 L548 49 L251 695 L228 695 L93 0 L119 0 L245 649 L543 0 L566 0 L701 695 L674 695 Z " />
<glyph glyph-name="nacute" unicode="&#x144;" horiz-adv-x="615" d="M553 725 L543 745 L345 635 L355 617 L553 725 Z M406 537 C305 537 225 481 188 410 L211 527 L185 527 L83 0 L109 0 L172 325 L172 324 C193 431 287 513 400 513 C514 513 578 443 553 312 L493 0 L520 0 L581 314 C609 457 533 537 406 537 L406 537 Z " />
<glyph glyph-name="uni0145" unicode="&#x145;" horiz-adv-x="683" d="M674 695 L548 49 L251 695 L228 695 L93 0 L119 0 L245 649 L543 0 L566 0 L701 695 L674 695 Z M328 -50 C307 -50 290 -69 290 -89 C290 -108 302 -119 319 -119 L320 -119 C319 -121 318 -124 316 -126 L264 -199 L280 -207 L333 -136 C351 -111 359 -96 359 -80 C359 -63 348 -50 328 -50 L328 -50 Z " />
<glyph glyph-name="uni0146" unicode="&#x146;" horiz-adv-x="615" d="M406 537 C305 537 225 481 188 410 L211 527 L185 527 L83 0 L109 0 L172 325 L172 324 C193 431 287 513 400 513 C514 513 578 443 553 312 L493 0 L520 0 L581 314 C609 457 533 537 406 537 L406 537 Z M306 -50 C284 -50 267 -69 267 -89 C267 -108 280 -119 297 -119 C296 -121 295 -124 293 -126 L241 -199 L258 -207 L310 -136 C328 -111 336 -96 336 -80 C336 -63 325 -50 306 -50 L306 -50 Z " />
<glyph glyph-name="Ncaron" unicode="&#x147;" horiz-adv-x="683" d="M490 776 L628 883 L595 883 L482 797 L401 883 L374 883 L468 776 L490 776 Z M674 695 L548 49 L251 695 L228 695 L93 0 L119 0 L245 649 L543 0 L566 0 L701 695 L674 695 Z " />
<glyph glyph-name="ncaron" unicode="&#x148;" horiz-adv-x="615" d="M431 618 L578 743 L544 743 L421 638 L340 743 L313 743 L409 618 L431 618 Z M406 537 C305 537 225 481 188 410 L211 527 L185 527 L83 0 L109 0 L172 325 L172 324 C193 431 287 513 400 513 C514 513 578 443 553 312 L493 0 L520 0 L581 314 C609 457 533 537 406 537 L406 537 Z " />
<glyph glyph-name="napostrophe" unicode="&#x149;" horiz-adv-x="678" d="M182 727 L124 525 L145 525 L206 727 L182 727 Z M469 537 C368 537 288 481 251 410 L274 527 L248 527 L146 0 L172 0 L235 325 L235 324 C255 431 350 513 463 513 C577 513 641 443 616 312 L556 0 L582 0 L643 314 C671 457 596 537 469 537 L469 537 Z " />
<glyph glyph-name="Eng" unicode="&#x14a;" horiz-adv-x="683" d="M674 695 L548 49 L251 695 L228 695 L93 0 L119 0 L245 649 L541 4 L536 -20 C520 -103 460 -158 380 -158 L365 -158 L360 -182 L378 -182 C474 -182 541 -122 562 -21 L566 0 L701 695 L674 695 Z " />
<glyph glyph-name="eng" unicode="&#x14b;" horiz-adv-x="598" d="M409 537 C308 537 224 474 188 409 L211 527 L185 527 L83 0 L109 0 L175 340 L175 338 C194 425 290 511 403 513 C525 514 576 438 553 310 L491 -14 C474 -97 414 -154 337 -154 L327 -154 L321 -179 L330 -179 C426 -179 498 -112 517 -14 L581 313 C608 451 547 537 409 537 L409 537 Z " />
<glyph glyph-name="Omacron" unicode="&#x14c;" horiz-adv-x="784" d="M406 818 L655 818 L659 842 L411 842 L406 818 Z M395 -10 C609 -10 784 176 784 403 C784 585 669 705 497 705 C284 705 108 518 108 293 C108 111 223 -10 395 -10 L395 -10 Z M397 16 C240 16 136 128 136 295 C136 504 299 679 495 679 C652 679 756 567 756 401 C756 191 592 16 397 16 L397 16 Z " />
<glyph glyph-name="omacron" unicode="&#x14d;" horiz-adv-x="623" d="M303 669 L550 669 L554 692 L307 692 L303 669 Z M312 -10 C488 -10 614 143 614 309 C614 448 527 537 393 537 C218 537 90 385 90 217 C90 78 177 -10 312 -10 L312 -10 Z M315 14 C195 14 117 97 117 219 C117 368 232 513 391 513 C510 513 587 431 587 309 C587 159 471 14 315 14 L315 14 Z " />
<glyph glyph-name="Ohungarumlaut" unicode="&#x150;" horiz-adv-x="784" d="M422 747 L552 901 L533 915 L406 760 L422 747 Z M580 747 L711 901 L691 915 L564 760 L580 747 Z M395 -10 C609 -10 784 176 784 403 C784 585 669 705 497 705 C284 705 108 518 108 293 C108 111 223 -10 395 -10 L395 -10 Z M397 16 C240 16 136 128 136 295 C136 504 299 679 495 679 C652 679 756 567 756 401 C756 191 592 16 397 16 L397 16 Z " />
<glyph glyph-name="ohungarumlaut" unicode="&#x151;" horiz-adv-x="623" d="M327 616 L453 751 L435 765 L311 629 L327 616 Z M477 616 L603 751 L585 765 L461 629 L477 616 Z M312 -10 C488 -10 614 143 614 309 C614 448 527 537 393 537 C218 537 90 385 90 217 C90 78 177 -10 312 -10 L312 -10 Z M315 14 C195 14 117 97 117 219 C117 368 232 513 391 513 C510 513 587 431 587 309 C587 159 471 14 315 14 L315 14 Z " />
<glyph glyph-name="OE" unicode="&#x152;" horiz-adv-x="1120" d="M1205 671 L1209 695 L817 695 L771 460 C752 612 652 705 497 705 C284 705 108 518 108 293 C108 111 223 -10 395 -10 C533 -10 652 70 718 186 L682 0 L1081 0 L1085 24 L713 24 L777 353 L1113 353 L1118 378 L782 378 L838 671 L1205 671 Z M397 16 C240 16 136 128 136 295 C136 504 299 679 495 679 C652 679 751 567 751 401 C751 191 592 16 397 16 L397 16 Z " />
<glyph glyph-name="oe" unicode="&#x153;" horiz-adv-x="1065" d="M881 537 C761 537 659 464 610 356 C593 468 511 537 393 537 C218 537 90 385 90 217 C90 78 177 -10 312 -10 C436 -10 536 66 583 170 C601 63 684 -10 795 -10 C908 -10 985 39 1040 144 L1017 154 C971 63 896 14 800 14 C688 14 606 98 606 215 C606 224 606 233 607 242 L610 257 L1069 257 C1073 271 1079 316 1079 337 C1079 456 1000 537 881 537 L881 537 Z M613 279 L613 281 C640 413 750 514 879 514 C986 514 1054 444 1054 335 C1054 321 1051 297 1048 279 L613 279 Z M315 14 C195 14 117 97 117 219 C117 368 232 513 391 513 C510 513 587 431 587 309 C587 159 471 14 315 14 L315 14 Z " />
<glyph glyph-name="Racute" unicode="&#x154;" horiz-adv-x="586" d="M569 863 L561 884 L339 796 L347 777 L569 863 Z M629 537 C629 635 562 695 444 695 L228 695 L93 0 L120 0 L185 335 L276 335 L490 0 L522 0 L305 335 L388 335 C532 335 629 420 629 537 L629 537 Z M251 671 L442 671 C544 671 601 620 601 536 C601 434 515 358 392 358 L190 358 L251 671 Z " />
<glyph glyph-name="racute" unicode="&#x155;" horiz-adv-x="313" d="M421 725 L410 745 L213 635 L222 617 L421 725 Z M188 408 L211 527 L185 527 L83 0 L109 0 L173 330 L173 328 C191 420 280 510 387 512 L391 537 C298 537 222 475 188 408 L188 408 Z " />
<glyph glyph-name="uni0156" unicode="&#x156;" horiz-adv-x="586" d="M629 537 C629 635 562 695 444 695 L228 695 L93 0 L120 0 L185 335 L276 335 L490 0 L522 0 L305 335 L388 335 C532 335 629 420 629 537 L629 537 Z M251 671 L442 671 C544 671 601 620 601 536 C601 434 515 358 392 358 L190 358 L251 671 Z M287 -50 C266 -50 249 -69 249 -89 C249 -108 261 -119 278 -119 L279 -119 C278 -121 276 -124 274 -126 L223 -199 L239 -207 L291 -136 C310 -111 318 -96 318 -80 C318 -63 306 -50 287 -50 L287 -50 Z " />
<glyph glyph-name="uni0157" unicode="&#x157;" horiz-adv-x="313" d="M188 408 L211 527 L185 527 L83 0 L109 0 L173 330 L173 328 C191 420 280 510 387 512 L391 537 C298 537 222 475 188 408 L188 408 Z M89 -50 C67 -50 50 -69 50 -89 C50 -108 63 -119 80 -119 L81 -119 C80 -121 78 -124 76 -126 L25 -199 L41 -207 L93 -136 C111 -111 119 -96 119 -80 C119 -63 108 -50 89 -50 L89 -50 Z " />
<glyph glyph-name="Rcaron" unicode="&#x158;" horiz-adv-x="586" d="M443 776 L581 883 L548 883 L434 797 L353 883 L327 883 L421 776 L443 776 Z M629 537 C629 635 562 695 444 695 L228 695 L93 0 L120 0 L185 335 L276 335 L490 0 L522 0 L305 335 L388 335 C532 335 629 420 629 537 L629 537 Z M251 671 L442 671 C544 671 601 620 601 536 C601 434 515 358 392 358 L190 358 L251 671 Z " />
<glyph glyph-name="rcaron" unicode="&#x159;" horiz-adv-x="313" d="M306 618 L453 743 L420 743 L297 638 L216 743 L188 743 L284 618 L306 618 Z M188 408 L211 527 L185 527 L83 0 L109 0 L173 330 L173 328 C191 420 280 510 387 512 L391 537 C298 537 222 475 188 408 L188 408 Z " />
<glyph glyph-name="Sacute" unicode="&#x15a;" horiz-adv-x="520" d="M313 777 L535 864 L527 885 L306 797 L313 777 Z M267 -7 C405 -7 493 65 493 180 C493 392 194 360 194 533 C194 620 269 679 377 679 C466 679 523 637 531 564 L557 573 C547 653 480 704 378 704 C252 704 167 633 167 530 C167 338 465 369 465 176 C465 79 389 18 270 18 C162 18 93 69 88 154 L61 145 C70 49 146 -7 267 -7 L267 -7 Z " />
<glyph glyph-name="sacute" unicode="&#x15b;" horiz-adv-x="460" d="M270 618 L468 726 L458 746 L260 636 L270 618 Z M235 -10 C346 -10 436 42 436 140 C436 309 161 256 161 401 C161 470 223 514 310 514 C379 514 432 487 443 427 L469 436 C458 498 398 537 310 537 C205 537 135 482 135 399 C135 235 409 289 409 137 C409 57 334 13 239 13 C152 13 83 49 75 115 L52 107 C62 33 135 -10 235 -10 L235 -10 Z " />
<glyph glyph-name="Scedilla" unicode="&#x15e;" horiz-adv-x="520" d="M378 704 C252 704 167 633 167 530 C167 338 465 369 465 176 C465 79 389 18 270 18 C162 18 93 69 88 154 L61 145 C70 50 144 -5 262 -7 L220 -71 L224 -79 L236 -79 C279 -79 305 -109 305 -147 C305 -186 271 -218 220 -218 C180 -218 156 -198 146 -178 L128 -193 C141 -216 171 -239 220 -239 C284 -239 329 -199 329 -146 C329 -102 297 -65 250 -62 L285 -7 C413 -1 493 70 493 180 C493 392 194 360 194 533 C194 620 269 679 377 679 C466 679 523 637 531 564 L557 573 C547 653 480 704 378 704 L378 704 Z " />
<glyph glyph-name="scedilla" unicode="&#x15f;" horiz-adv-x="460" d="M310 514 C379 514 432 487 443 427 L469 436 C458 498 398 537 310 537 C205 537 135 482 135 399 C135 235 409 289 409 137 C409 57 334 13 239 13 C152 13 83 49 75 115 L52 107 C62 35 132 -8 229 -10 L189 -71 L193 -79 L205 -79 C248 -79 274 -109 274 -147 C274 -186 240 -218 189 -218 C149 -218 125 -198 115 -178 L97 -193 C110 -216 140 -239 189 -239 C253 -239 298 -199 298 -146 C298 -102 266 -65 219 -62 L252 -10 C355 -4 436 47 436 140 C436 309 161 256 161 401 C161 470 223 514 310 514 L310 514 Z " />
<glyph glyph-name="Scaron" unicode="&#x160;" horiz-adv-x="520" d="M413 778 L550 885 L518 885 L404 799 L323 885 L296 885 L391 778 L413 778 Z M378 704 C252 704 167 633 167 530 C167 338 465 369 465 176 C465 79 389 18 270 18 C162 18 93 69 88 154 L61 145 C70 49 146 -7 267 -7 C405 -7 493 65 493 180 C493 392 194 360 194 533 C194 620 269 679 377 679 C466 679 523 637 531 564 L557 573 C547 653 480 704 378 704 L378 704 Z " />
<glyph glyph-name="scaron" unicode="&#x161;" horiz-adv-x="460" d="M346 619 L493 744 L460 744 L336 639 L255 744 L228 744 L324 619 L346 619 Z M310 537 C205 537 135 482 135 399 C135 235 409 289 409 137 C409 57 334 13 239 13 C152 13 83 49 75 115 L52 107 C62 33 135 -10 235 -10 C346 -10 436 42 436 140 C436 309 161 256 161 401 C161 470 223 514 310 514 C379 514 432 487 443 427 L469 436 C458 498 398 537 310 537 L310 537 Z " />
<glyph glyph-name="uni0162" unicode="&#x162;" horiz-adv-x="517" d="M263 0 L393 670 L618 670 L622 695 L147 695 L143 670 L366 670 L236 0 L238 0 L189 -76 L192 -84 L204 -84 C248 -84 273 -114 273 -152 C273 -191 239 -222 189 -222 C148 -222 125 -203 114 -183 L97 -198 C110 -221 140 -244 188 -244 C252 -244 297 -203 297 -151 C297 -107 266 -70 219 -67 L261 0 L263 0 Z " />
<glyph glyph-name="uni0163" unicode="&#x163;" horiz-adv-x="336" d="M234 503 L411 503 L416 527 L239 527 L265 658 L241 658 L223 568 C218 540 204 527 175 527 L113 527 L109 503 L208 503 L143 168 C126 84 156 25 221 6 L175 -64 L178 -72 L190 -72 C234 -72 259 -102 259 -140 C259 -179 225 -211 174 -211 C134 -211 111 -191 100 -171 L82 -186 C96 -209 126 -232 174 -232 C238 -232 283 -191 283 -139 C283 -95 252 -58 205 -55 L241 2 C250 1 259 0 268 0 L324 0 L330 24 L275 24 C192 24 151 76 169 169 L234 503 Z " />
<glyph glyph-name="Tcaron" unicode="&#x164;" horiz-adv-x="517" d="M407 776 L545 883 L512 883 L398 797 L317 883 L290 883 L385 776 L407 776 Z M622 695 L147 695 L143 670 L366 670 L236 0 L263 0 L393 670 L618 670 L622 695 Z " />
<glyph glyph-name="tcaron" unicode="&#x165;" horiz-adv-x="336" d="M371 562 L392 562 L453 764 L429 764 L371 562 Z M268 0 L324 0 L330 24 L275 24 C192 24 151 76 169 169 L234 503 L411 503 L416 527 L239 527 L265 658 L241 658 L223 568 C218 540 204 527 175 527 L113 527 L109 503 L208 503 L143 168 C122 65 172 0 268 0 L268 0 Z " />
<glyph glyph-name="Tbar" unicode="&#x166;" horiz-adv-x="527" d="M623 670 L627 695 L152 695 L148 670 L371 670 L310 357 L190 357 L187 334 L306 334 L241 0 L268 0 L333 334 L453 334 L457 357 L337 357 L398 670 L623 670 Z " />
<glyph glyph-name="tbar" unicode="&#x167;" horiz-adv-x="347" d="M419 503 L423 527 L247 527 L273 658 L248 658 L231 568 C225 540 212 527 183 527 L121 527 L116 503 L216 503 L176 298 L84 298 L80 276 L171 276 L150 168 C130 65 180 0 276 0 L332 0 L337 24 L283 24 C200 24 158 76 177 169 L198 276 L345 276 L349 298 L202 298 L242 503 L419 503 Z " />
<glyph glyph-name="Utilde" unicode="&#x168;" horiz-adv-x="667" d="M546 788 C590 788 615 816 630 856 L610 865 C597 832 579 812 548 812 C496 812 485 866 427 866 C384 866 358 836 343 798 L364 789 C376 822 394 842 424 842 C474 842 485 788 546 788 L546 788 Z M332 -10 C478 -10 576 78 606 236 L695 695 L668 695 L580 237 C552 97 462 15 337 15 C204 15 134 110 163 257 L248 695 L221 695 L136 256 C106 100 185 -10 332 -10 L332 -10 Z " />
<glyph glyph-name="utilde" unicode="&#x169;" horiz-adv-x="605" d="M351 697 C401 697 411 643 473 643 C516 643 542 671 556 711 L537 720 C524 687 505 667 474 667 C423 667 412 721 354 721 C311 721 286 691 271 653 L292 644 C304 677 322 697 351 697 L351 697 Z M577 527 L513 192 C488 91 396 14 291 14 C183 14 118 84 144 215 L204 527 L177 527 L116 213 C88 70 164 -10 285 -10 C384 -10 462 46 499 119 L476 0 L502 0 L604 527 L577 527 Z " />
<glyph glyph-name="Umacron" unicode="&#x16a;" horiz-adv-x="667" d="M351 818 L600 818 L604 842 L355 842 L351 818 Z M332 -10 C478 -10 576 78 606 236 L695 695 L668 695 L580 237 C552 97 462 15 337 15 C204 15 134 110 163 257 L248 695 L221 695 L136 256 C106 100 185 -10 332 -10 L332 -10 Z " />
<glyph glyph-name="umacron" unicode="&#x16b;" horiz-adv-x="605" d="M537 693 L290 693 L286 670 L533 670 L537 693 Z M577 527 L513 192 C488 91 396 14 291 14 C183 14 118 84 144 215 L204 527 L177 527 L116 213 C88 70 164 -10 285 -10 C384 -10 462 46 499 119 L476 0 L502 0 L604 527 L577 527 Z " />
<glyph glyph-name="Uring" unicode="&#x16e;" horiz-adv-x="667" d="M469 739 C516 739 557 777 557 824 C557 863 531 893 489 893 C442 893 401 856 401 809 C401 769 427 739 469 739 L469 739 Z M470 760 C440 760 423 782 423 808 C423 846 454 873 488 873 C518 873 535 851 535 824 C535 787 504 760 470 760 L470 760 Z M332 -10 C478 -10 576 78 606 236 L695 695 L668 695 L580 237 C552 97 462 15 337 15 C204 15 134 110 163 257 L248 695 L221 695 L136 256 C106 100 185 -10 332 -10 L332 -10 Z " />
<glyph glyph-name="uring" unicode="&#x16f;" horiz-adv-x="605" d="M403 593 C450 593 492 630 492 677 C492 717 466 747 424 747 C377 747 335 709 335 662 C335 623 361 593 403 593 L403 593 Z M422 726 C453 726 470 704 470 677 C470 640 438 613 405 613 C374 613 357 635 357 662 C357 699 389 726 422 726 L422 726 Z M577 527 L513 192 C488 91 396 14 291 14 C183 14 118 84 144 215 L204 527 L177 527 L116 213 C88 70 164 -10 285 -10 C384 -10 462 46 499 119 L476 0 L502 0 L604 527 L577 527 Z " />
<glyph glyph-name="Uhungarumlaut" unicode="&#x170;" horiz-adv-x="667" d="M374 747 L504 901 L485 915 L357 760 L374 747 Z M532 747 L662 901 L643 915 L516 760 L532 747 Z M332 -10 C478 -10 576 78 606 236 L695 695 L668 695 L580 237 C552 97 462 15 337 15 C204 15 134 110 163 257 L248 695 L221 695 L136 256 C106 100 185 -10 332 -10 L332 -10 Z " />
<glyph glyph-name="uhungarumlaut" unicode="&#x171;" horiz-adv-x="605" d="M437 752 L419 766 L295 630 L311 617 L437 752 Z M587 752 L568 766 L445 630 L461 617 L587 752 Z M577 527 L513 192 C488 91 396 14 291 14 C183 14 118 84 144 215 L204 527 L177 527 L116 213 C88 70 164 -10 285 -10 C384 -10 462 46 499 119 L476 0 L502 0 L604 527 L577 527 Z " />
<glyph glyph-name="Uogonek" unicode="&#x172;" horiz-adv-x="667" d="M668 695 L580 237 C552 97 462 15 337 15 C204 15 134 110 163 257 L248 695 L221 695 L136 256 C106 100 185 -10 332 -10 C355 -10 376 -8 397 -4 L394 -6 C351 -42 297 -88 297 -143 C297 -184 323 -209 365 -209 C397 -209 419 -197 438 -177 L426 -163 C412 -180 391 -188 369 -188 C338 -188 321 -172 321 -142 C321 -96 360 -58 406 -18 L436 8 C524 40 584 119 606 236 L695 695 L668 695 Z " />
<glyph glyph-name="uogonek" unicode="&#x173;" horiz-adv-x="605" d="M467 -30 L502 0 L604 527 L577 527 L513 192 C488 91 396 14 291 14 C183 14 118 84 144 215 L204 527 L177 527 L116 213 C88 70 164 -10 285 -10 C384 -10 462 46 499 119 L476 0 L477 0 L455 -18 C412 -54 358 -100 358 -155 C358 -196 384 -221 426 -221 C458 -221 480 -209 499 -189 L488 -175 C473 -192 452 -200 430 -200 C399 -200 382 -184 382 -154 C382 -108 421 -70 467 -30 L467 -30 Z " />
<glyph glyph-name="Wcircumflex" unicode="&#x174;" horiz-adv-x="836" d="M574 863 L654 776 L681 776 L587 883 L565 883 L427 776 L460 776 L574 863 Z M893 695 L612 47 L554 695 L526 695 L214 49 L185 695 L159 695 L192 0 L217 0 L533 653 L592 0 L618 0 L921 695 L893 695 Z " />
<glyph glyph-name="wcircumflex" unicode="&#x175;" horiz-adv-x="742" d="M498 723 L581 619 L608 619 L511 744 L489 744 L343 619 L376 619 L498 723 Z M772 527 L542 33 L476 527 L445 527 L186 31 L148 527 L122 527 L166 0 L195 0 L455 496 L523 0 L551 0 L800 527 L772 527 Z " />
<glyph glyph-name="Ycircumflex" unicode="&#x176;" horiz-adv-x="581" d="M446 863 L526 776 L552 776 L458 883 L436 883 L298 776 L331 776 L446 863 Z M684 695 L650 695 L340 315 L176 695 L148 695 L323 292 L267 0 L293 0 L349 288 L684 695 Z " />
<glyph glyph-name="ycircumflex" unicode="&#x177;" horiz-adv-x="523" d="M388 722 L471 619 L497 619 L400 744 L378 744 L232 619 L265 619 L388 722 Z M563 527 L257 31 L142 527 L114 527 L239 3 L124 -179 L153 -179 L594 527 L563 527 Z " />
<glyph glyph-name="Ydieresis" unicode="&#x178;" horiz-adv-x="581" d="M350 793 C372 793 391 811 391 833 C391 853 378 866 359 866 C337 866 318 847 318 826 C318 805 331 793 350 793 L350 793 Z M511 793 C534 793 553 811 553 833 C553 853 540 866 521 866 C499 866 480 847 480 826 C480 805 493 793 511 793 L511 793 Z M684 695 L650 695 L340 315 L176 695 L148 695 L323 292 L267 0 L293 0 L349 288 L684 695 Z " />
<glyph glyph-name="Zacute" unicode="&#x179;" horiz-adv-x="519" d="M531 863 L522 884 L301 796 L308 777 L531 863 Z M608 695 L168 695 L164 671 L568 671 L25 21 L21 0 L482 0 L486 25 L63 25 L604 674 L608 695 Z " />
<glyph glyph-name="zacute" unicode="&#x17a;" horiz-adv-x="442" d="M451 725 L440 745 L243 635 L253 617 L451 725 Z M497 527 L139 527 L135 503 L458 503 L25 23 L21 0 L408 0 L412 24 L61 24 L493 504 L497 527 Z " />
<glyph glyph-name="Zdotaccent" unicode="&#x17b;" horiz-adv-x="519" d="M403 793 C426 793 444 811 444 832 C444 851 429 865 410 865 C388 865 370 847 370 826 C370 807 385 793 403 793 L403 793 Z M608 695 L168 695 L164 671 L568 671 L25 21 L21 0 L482 0 L486 25 L63 25 L604 674 L608 695 Z " />
<glyph glyph-name="zdotaccent" unicode="&#x17c;" horiz-adv-x="442" d="M327 642 C351 642 372 662 372 686 C372 706 359 721 337 721 C313 721 291 701 291 677 C291 657 305 642 327 642 L327 642 Z M497 527 L139 527 L135 503 L458 503 L25 23 L21 0 L408 0 L412 24 L61 24 L493 504 L497 527 Z " />
<glyph glyph-name="Zcaron" unicode="&#x17d;" horiz-adv-x="519" d="M404 776 L542 883 L509 883 L395 797 L314 883 L287 883 L382 776 L404 776 Z M608 695 L168 695 L164 671 L568 671 L25 21 L21 0 L482 0 L486 25 L63 25 L604 674 L608 695 Z " />
<glyph glyph-name="zcaron" unicode="&#x17e;" horiz-adv-x="442" d="M337 618 L484 743 L451 743 L327 638 L246 743 L219 743 L315 618 L337 618 Z M497 527 L139 527 L135 503 L458 503 L25 23 L21 0 L408 0 L412 24 L61 24 L493 504 L497 527 Z " />
<glyph glyph-name="uni01EA" unicode="&#x1ea;" horiz-adv-x="784" d="M459 -25 L492 3 C659 49 784 211 784 403 C784 585 669 705 497 705 C284 705 108 518 108 293 C108 111 223 -10 395 -10 C416 -10 436 -8 456 -5 L446 -13 C404 -49 350 -95 350 -150 C350 -191 376 -216 417 -216 C449 -216 471 -204 491 -184 L479 -170 C464 -187 444 -195 421 -195 C391 -195 373 -179 373 -149 C373 -103 413 -65 459 -25 L459 -25 Z M136 295 C136 504 299 679 495 679 C652 679 756 567 756 401 C756 191 592 16 397 16 C240 16 136 128 136 295 L136 295 Z " />
<glyph glyph-name="uni01EB" unicode="&#x1eb;" horiz-adv-x="623" d="M350 -30 L384 -1 C521 34 614 167 614 309 C614 448 527 537 393 537 C218 537 90 385 90 217 C90 78 177 -10 312 -10 C325 -10 338 -9 351 -7 L338 -18 C295 -53 241 -99 241 -155 C241 -195 267 -221 309 -221 C341 -221 363 -208 382 -189 L370 -175 C356 -191 335 -199 313 -199 C282 -199 265 -184 265 -153 C265 -108 304 -70 350 -30 L350 -30 Z M117 219 C117 368 232 513 391 513 C510 513 587 431 587 309 C587 159 471 14 315 14 C195 14 117 97 117 219 L117 219 Z " />
<glyph glyph-name="AEacute" unicode="&#x1fc;" horiz-adv-x="903" d="M882 863 L874 884 L652 796 L660 777 L882 863 Z M960 671 L964 695 L537 695 L-10 0 L20 0 L213 245 L486 245 L438 0 L836 0 L841 24 L470 24 L534 353 L868 353 L874 378 L539 378 L595 671 L960 671 Z M232 269 L549 671 L568 671 L490 269 L232 269 Z " />
<glyph glyph-name="aeacute" unicode="&#x1fd;" horiz-adv-x="1080" d="M786 726 L775 746 L578 636 L588 618 L786 726 Z M868 537 C759 537 668 477 618 386 L645 527 L619 527 L590 372 C572 475 500 537 391 537 C221 537 90 388 90 216 C90 81 170 -10 300 -10 C405 -10 492 50 543 136 L517 0 L543 0 L577 173 C591 65 669 -10 781 -10 C894 -10 971 39 1025 144 L1003 154 C957 63 882 14 786 14 C674 14 592 98 592 215 C592 229 593 243 595 257 L1054 257 C1059 271 1065 316 1065 337 C1065 456 985 537 868 537 L868 537 Z M598 279 C625 412 734 514 865 514 C971 514 1039 444 1039 335 C1039 321 1037 297 1034 279 L598 279 Z M304 14 C188 14 116 98 116 218 C116 374 237 513 391 513 C505 513 574 437 574 316 C574 156 456 14 304 14 L304 14 Z " />
<glyph glyph-name="Oslashacute" unicode="&#x1fe;" horiz-adv-x="787" d="M674 863 L665 884 L444 796 L452 777 L674 863 Z M819 681 L803 698 L714 614 C664 672 589 705 499 705 C286 705 110 518 110 293 C110 216 131 150 167 99 L76 13 L90 -4 L181 82 C232 24 306 -10 397 -10 C611 -10 786 176 786 403 C786 480 765 546 729 596 L819 681 Z M137 295 C137 504 301 679 497 679 C580 679 647 648 693 595 L188 119 C155 165 137 225 137 295 L137 295 Z M758 401 C758 191 594 16 399 16 C316 16 248 47 202 101 L707 576 C740 530 758 470 758 401 L758 401 Z " />
<glyph glyph-name="oslashacute" unicode="&#x1ff;" horiz-adv-x="638" d="M537 725 L527 745 L329 635 L339 617 L537 725 Z M671 494 L660 511 L576 446 C539 504 475 537 392 537 C217 537 89 385 89 217 C89 169 100 127 119 93 L43 34 L55 16 L130 74 C169 21 232 -10 311 -10 C488 -10 613 143 613 309 C613 355 604 395 586 428 L671 494 Z M116 219 C116 368 232 513 391 513 C464 513 522 482 555 430 L142 110 C125 141 116 178 116 219 L116 219 Z M587 309 C587 159 471 14 314 14 C244 14 187 43 153 92 L565 412 C579 382 587 348 587 309 L587 309 Z " />
<glyph glyph-name="uni0218" unicode="&#x218;" horiz-adv-x="520" d="M378 704 C252 704 167 633 167 530 C167 338 465 369 465 176 C465 79 389 18 270 18 C162 18 93 69 88 154 L61 145 C70 49 146 -7 267 -7 C405 -7 493 65 493 180 C493 392 194 360 194 533 C194 620 269 679 377 679 C466 679 523 637 531 564 L557 573 C547 653 480 704 378 704 L378 704 Z M269 -50 C248 -50 231 -69 231 -89 C231 -108 243 -119 260 -119 L261 -119 C260 -121 258 -124 256 -126 L205 -199 L221 -207 L273 -136 C292 -111 300 -96 300 -80 C300 -63 288 -50 269 -50 L269 -50 Z " />
<glyph glyph-name="uni0219" unicode="&#x219;" horiz-adv-x="460" d="M310 514 C379 514 432 487 443 427 L469 436 C458 498 398 537 310 537 C205 537 135 482 135 399 C135 235 409 289 409 137 C409 57 334 13 239 13 C152 13 83 49 75 115 L52 107 C62 33 135 -10 235 -10 C346 -10 436 42 436 140 C436 309 161 256 161 401 C161 470 223 514 310 514 L310 514 Z M229 -50 C207 -50 190 -69 190 -89 C190 -108 203 -119 220 -119 L221 -119 C219 -121 218 -124 216 -126 L165 -199 L181 -207 L233 -136 C251 -111 259 -96 259 -80 C259 -63 248 -50 229 -50 L229 -50 Z " />
<glyph glyph-name="uni021A" unicode="&#x21a;" horiz-adv-x="517" d="M622 695 L147 695 L143 670 L366 670 L236 0 L263 0 L393 670 L618 670 L622 695 Z M245 -50 C223 -50 206 -69 206 -89 C206 -108 219 -119 236 -119 C235 -121 234 -124 232 -126 L180 -199 L197 -207 L249 -136 C267 -111 275 -96 275 -80 C275 -63 264 -50 245 -50 L245 -50 Z " />
<glyph glyph-name="uni021B" unicode="&#x21b;" horiz-adv-x="336" d="M234 503 L411 503 L416 527 L239 527 L265 658 L241 658 L223 568 C218 540 204 527 175 527 L113 527 L109 503 L208 503 L143 168 C122 65 172 0 268 0 L324 0 L330 24 L275 24 C192 24 151 76 169 169 L234 503 Z M220 -43 C198 -43 181 -62 181 -81 C181 -101 194 -112 211 -112 C210 -114 209 -117 207 -119 L155 -191 L172 -200 L224 -129 C242 -104 250 -89 250 -73 C250 -55 239 -43 220 -43 L220 -43 Z " />
<glyph glyph-name="uni0237" unicode="&#x237;" horiz-adv-x="195" d="M-90 -179 L-76 -179 C14 -179 86 -120 106 -14 L211 527 L184 527 L80 -14 C63 -100 2 -154 -72 -154 L-85 -154 L-90 -179 Z " />
<glyph glyph-name="circumflex" unicode="&#x2c6;" horiz-adv-x="297" d="M414 619 L317 744 L295 744 L149 619 L182 619 L304 722 L387 619 L414 619 Z " />
<glyph glyph-name="caron" unicode="&#x2c7;" horiz-adv-x="301" d="M404 744 L281 639 L200 744 L173 744 L269 619 L291 619 L438 744 L404 744 Z " />
<glyph glyph-name="breve" unicode="&#x2d8;" horiz-adv-x="272" d="M272 619 C359 619 401 687 411 744 L388 744 C380 702 345 642 275 642 C206 642 188 701 196 744 L173 744 C162 691 192 619 272 619 L272 619 Z " />
<glyph glyph-name="dotaccent" unicode="&#x2d9;" horiz-adv-x="97" d="M194 643 C219 643 240 663 240 687 C240 707 227 722 205 722 C181 722 159 702 159 678 C159 658 173 643 194 643 L194 643 Z " />
<glyph glyph-name="ring" unicode="&#x2da;" horiz-adv-x="171" d="M225 593 C273 593 314 630 314 677 C314 717 288 747 246 747 C199 747 157 709 157 662 C157 623 184 593 225 593 L225 593 Z M227 613 C196 613 179 635 179 662 C179 699 211 726 244 726 C275 726 292 704 292 677 C292 640 260 613 227 613 L227 613 Z " />
<glyph glyph-name="ogonek" unicode="&#x2db;" horiz-adv-x="212" d="M67 -220 C98 -220 120 -208 140 -188 L128 -174 C113 -191 93 -199 70 -199 C40 -199 23 -183 23 -153 C23 -107 62 -69 108 -29 L143 1 L132 13 L96 -17 C53 -53 -1 -99 -1 -154 C-1 -195 25 -220 67 -220 L67 -220 Z " />
<glyph glyph-name="tilde" unicode="&#x2dc;" horiz-adv-x="354" d="M357 643 C401 643 426 671 441 711 L421 720 C408 687 390 667 359 667 C307 667 297 721 239 721 C196 721 170 691 155 653 L177 644 C188 677 206 697 236 697 C286 697 296 643 357 643 L357 643 Z " />
<glyph glyph-name="hungarumlaut" unicode="&#x2dd;" horiz-adv-x="262" d="M154 617 L279 752 L261 766 L138 630 L154 617 Z M303 617 L429 752 L411 766 L288 630 L303 617 Z " />
<glyph glyph-name="gravecomb" unicode="&#x300;" d="M86 617 L98 635 L-76 746 L-90 726 L86 617 Z " />
<glyph glyph-name="acutecomb" unicode="&#x301;" d="M-87 618 L111 726 L100 746 L-97 636 L-87 618 Z " />
<glyph glyph-name="uni0302" unicode="&#x302;" d="M90 619 L-7 744 L-29 744 L-175 619 L-142 619 L-20 722 L63 619 L90 619 Z " />
<glyph glyph-name="tildecomb" unicode="&#x303;" d="M24 643 C68 643 93 671 108 711 L88 720 C75 687 57 667 26 667 C-26 667 -36 721 -94 721 C-137 721 -163 691 -178 653 L-156 644 C-145 677 -127 697 -97 697 C-47 697 -37 643 24 643 L24 643 Z " />
<glyph glyph-name="uni0304" unicode="&#x304;" d="M-147 670 L100 670 L104 693 L-143 693 L-147 670 Z " />
<glyph glyph-name="uni0306" unicode="&#x306;" d="M-25 619 C62 619 104 687 114 744 L91 744 C83 702 48 642 -22 642 C-91 642 -109 701 -101 744 L-124 744 C-135 691 -105 619 -25 619 L-25 619 Z " />
<glyph glyph-name="uni0307" unicode="&#x307;" d="M56 643 C81 643 102 663 102 687 C102 707 89 722 67 722 C43 722 21 702 21 678 C21 658 35 643 56 643 L56 643 Z " />
<glyph glyph-name="uni0308" unicode="&#x308;" d="M-100 644 C-77 644 -56 663 -56 685 C-56 707 -70 720 -90 720 C-113 720 -134 701 -134 679 C-134 657 -120 644 -100 644 L-100 644 Z M59 644 C82 644 102 663 102 685 C102 707 88 720 69 720 C45 720 25 701 25 679 C25 657 39 644 59 644 L59 644 Z " />
<glyph glyph-name="uni030A" unicode="&#x30a;" d="M11 593 C59 593 100 630 100 677 C100 717 74 747 32 747 C-15 747 -57 709 -57 662 C-57 623 -30 593 11 593 L11 593 Z M13 613 C-18 613 -35 635 -35 662 C-35 699 -3 726 30 726 C61 726 78 704 78 677 C78 640 46 613 13 613 L13 613 Z " />
<glyph glyph-name="uni030B" unicode="&#x30b;" d="M-161 617 L-35 752 L-53 766 L-177 630 L-161 617 Z M-11 617 L115 752 L96 766 L-27 630 L-11 617 Z " />
<glyph glyph-name="uni030C" unicode="&#x30c;" d="M80 744 L-43 639 L-124 744 L-151 744 L-55 619 L-33 619 L114 744 L80 744 Z " />
<glyph glyph-name="uni0326" unicode="&#x326;" d="M-77 -50 C-98 -50 -116 -69 -116 -89 C-116 -108 -103 -119 -86 -119 L-85 -119 C-86 -121 -88 -124 -90 -126 L-141 -199 L-125 -207 L-73 -136 C-55 -111 -46 -96 -46 -80 C-46 -63 -58 -50 -77 -50 L-77 -50 Z " />
<glyph glyph-name="uni0327" unicode="&#x327;" d="M-138 -62 L-95 6 L-118 6 L-167 -71 L-164 -79 L-152 -79 C-108 -79 -83 -109 -83 -147 C-83 -186 -117 -218 -168 -218 C-208 -218 -232 -198 -242 -178 L-260 -193 C-246 -216 -217 -239 -168 -239 C-104 -239 -59 -199 -59 -146 C-59 -102 -91 -65 -138 -62 L-138 -62 Z " />
<glyph glyph-name="uni0328" unicode="&#x328;" d="M-140 -220 C-109 -220 -87 -208 -67 -188 L-79 -174 C-94 -191 -114 -199 -137 -199 C-167 -199 -184 -183 -184 -153 C-184 -107 -145 -69 -99 -29 L-64 1 L-75 13 L-111 -17 C-154 -53 -208 -99 -208 -154 C-208 -195 -182 -220 -140 -220 L-140 -220 Z " />
<glyph glyph-name="uni0335" unicode="&#x335;" d="M-248 253 L18 253 L22 275 L-244 275 L-248 253 Z " />
<glyph glyph-name="uni0336" unicode="&#x336;" d="M-577 288 L25 288 L29 311 L-573 311 L-577 288 Z " />
<glyph glyph-name="uni0337" unicode="&#x337;" d="M-228 178 L20 311 L10 329 L-237 196 L-228 178 Z " />
<glyph glyph-name="uni0338" unicode="&#x338;" d="M-554 0 L62 478 L51 494 L-565 17 L-554 0 Z " />
<glyph glyph-name="Wgrave" unicode="&#x1e80;" horiz-adv-x="836" d="M673 795 L453 885 L444 863 L665 776 L673 795 Z M893 695 L612 47 L554 695 L526 695 L214 49 L185 695 L159 695 L192 0 L217 0 L533 653 L592 0 L618 0 L921 695 L893 695 Z " />
<glyph glyph-name="wgrave" unicode="&#x1e81;" horiz-adv-x="742" d="M578 635 L403 746 L390 726 L566 617 L578 635 Z M772 527 L542 33 L476 527 L445 527 L186 31 L148 527 L122 527 L166 0 L195 0 L455 496 L523 0 L551 0 L800 527 L772 527 Z " />
<glyph glyph-name="Wacute" unicode="&#x1e82;" horiz-adv-x="836" d="M681 863 L672 884 L451 796 L458 777 L681 863 Z M893 695 L612 47 L554 695 L526 695 L214 49 L185 695 L159 695 L192 0 L217 0 L533 653 L592 0 L618 0 L921 695 L893 695 Z " />
<glyph glyph-name="wacute" unicode="&#x1e83;" horiz-adv-x="742" d="M608 726 L598 746 L400 636 L410 618 L608 726 Z M772 527 L542 33 L476 527 L445 527 L186 31 L148 527 L122 527 L166 0 L195 0 L455 496 L523 0 L551 0 L800 527 L772 527 Z " />
<glyph glyph-name="Wdieresis" unicode="&#x1e84;" horiz-adv-x="836" d="M479 793 C501 793 520 811 520 833 C520 853 508 866 489 866 C466 866 447 847 447 826 C447 805 460 793 479 793 L479 793 Z M641 793 C663 793 682 811 682 833 C682 853 669 866 650 866 C628 866 609 847 609 826 C609 805 622 793 641 793 L641 793 Z M893 695 L612 47 L554 695 L526 695 L214 49 L185 695 L159 695 L192 0 L217 0 L533 653 L592 0 L618 0 L921 695 L893 695 Z " />
<glyph glyph-name="wdieresis" unicode="&#x1e85;" horiz-adv-x="742" d="M403 644 C426 644 447 663 447 685 C447 707 433 720 413 720 C390 720 369 701 369 679 C369 657 384 644 403 644 L403 644 Z M562 644 C585 644 606 663 606 685 C606 707 591 720 572 720 C549 720 528 701 528 679 C528 657 542 644 562 644 L562 644 Z M772 527 L542 33 L476 527 L445 527 L186 31 L148 527 L122 527 L166 0 L195 0 L455 496 L523 0 L551 0 L800 527 L772 527 Z " />
<glyph glyph-name="uni1E9E" unicode="&#x1e9e;" horiz-adv-x="610" d="M437 376 L644 563 C624 654 554 705 446 705 C304 705 207 622 179 477 L86 0 L113 0 L204 474 C230 604 318 680 445 680 C536 680 594 640 615 567 L398 370 L394 353 L419 353 C508 353 572 290 571 201 C571 98 485 17 375 17 C290 17 237 66 231 150 L210 138 C216 47 279 -8 375 -8 C500 -8 598 83 599 201 C600 299 531 371 437 376 L437 376 Z " />
<glyph glyph-name="Ygrave" unicode="&#x1ef2;" horiz-adv-x="581" d="M545 795 L325 885 L316 863 L537 776 L545 795 Z M684 695 L650 695 L340 315 L176 695 L148 695 L323 292 L267 0 L293 0 L349 288 L684 695 Z " />
<glyph glyph-name="ygrave" unicode="&#x1ef3;" horiz-adv-x="523" d="M468 635 L294 746 L280 726 L456 617 L468 635 Z M563 527 L257 31 L142 527 L114 527 L239 3 L124 -179 L153 -179 L594 527 L563 527 Z " />
<glyph glyph-name="uni1EF8" unicode="&#x1ef8;" horiz-adv-x="581" d="M372 842 C422 842 432 788 494 788 C537 788 563 816 577 856 L558 865 C545 832 526 812 495 812 C444 812 433 866 374 866 C332 866 306 836 291 798 L312 789 C324 822 342 842 372 842 L372 842 Z M684 695 L650 695 L340 315 L176 695 L148 695 L323 292 L267 0 L293 0 L349 288 L684 695 Z " />
<glyph glyph-name="uni1EF9" unicode="&#x1ef9;" horiz-adv-x="523" d="M313 697 C363 697 373 643 434 643 C478 643 504 671 518 711 L498 720 C486 687 467 667 436 667 C384 667 374 721 316 721 C273 721 248 691 232 653 L254 644 C266 677 283 697 313 697 L313 697 Z M563 527 L257 31 L142 527 L114 527 L239 3 L124 -179 L153 -179 L594 527 L563 527 Z " />
<glyph glyph-name="endash" unicode="&#x2013;" horiz-adv-x="512" d="M112 244 L491 244 L496 268 L116 268 L112 244 Z " />
<glyph glyph-name="emdash" unicode="&#x2014;" horiz-adv-x="783" d="M112 243 L763 243 L767 266 L116 266 L112 243 Z " />
<glyph glyph-name="quoteleft" unicode="&#x2018;" horiz-adv-x="168" d="M202 632 L257 715 L233 715 L184 644 C167 620 163 610 163 595 C163 578 176 564 195 564 C215 564 232 580 232 602 C232 620 220 632 202 632 L202 632 Z " />
<glyph glyph-name="quoteright" unicode="&#x2019;" horiz-adv-x="165" d="M223 715 C203 715 186 700 186 678 C186 660 199 648 216 648 L160 565 L185 565 L234 636 C251 660 255 670 255 685 C255 702 242 715 223 715 L223 715 Z " />
<glyph glyph-name="quotesinglbase" unicode="&#x201a;" horiz-adv-x="168" d="M90 59 C70 59 53 43 53 21 C53 3 65 -9 83 -9 L28 -92 L52 -92 L101 -21 C118 3 122 13 122 28 C122 45 109 59 90 59 L90 59 Z " />
<glyph glyph-name="quotedblleft" unicode="&#x201c;" horiz-adv-x="273" d="M233 715 L184 644 C167 620 163 610 163 595 C163 578 176 564 195 564 C215 564 232 580 232 602 C232 620 220 632 202 632 L257 715 L233 715 Z M306 632 L362 715 L337 715 L288 644 C272 620 267 610 267 595 C267 578 280 564 300 564 C319 564 336 580 336 602 C336 620 323 632 306 632 L306 632 Z " />
<glyph glyph-name="quotedblright" unicode="&#x201d;" horiz-adv-x="269" d="M223 715 C203 715 186 700 186 678 C186 660 199 648 216 648 L160 565 L185 565 L234 636 C251 660 255 670 255 685 C255 702 242 715 223 715 L223 715 Z M327 715 C307 715 291 700 291 678 C291 660 303 648 320 648 L265 565 L290 565 L339 636 C355 660 360 670 360 685 C360 702 347 715 327 715 L327 715 Z " />
<glyph glyph-name="quotedblbase" unicode="&#x201e;" horiz-adv-x="272" d="M90 59 C70 59 53 43 53 21 C53 3 65 -9 83 -9 L28 -92 L52 -92 L101 -21 C118 3 122 13 122 28 C122 45 109 59 90 59 L90 59 Z M194 59 C175 59 158 43 158 21 C158 3 171 -9 188 -9 L132 -92 L157 -92 L206 -21 C222 3 227 13 227 28 C227 45 214 59 194 59 L194 59 Z " />
<glyph glyph-name="dagger" unicode="&#x2020;" horiz-adv-x="298" d="M371 633 L283 633 L302 731 L276 731 L257 633 L169 633 L165 610 L252 610 L197 327 L223 327 L278 610 L366 610 L371 633 Z " />
<glyph glyph-name="daggerdbl" unicode="&#x2021;" horiz-adv-x="314" d="M375 612 L380 635 L291 635 L310 731 L284 731 L265 635 L178 635 L174 612 L261 612 L228 446 L141 446 L137 423 L224 423 L205 327 L232 327 L251 423 L338 423 L343 446 L255 446 L287 612 L375 612 Z " />
<glyph glyph-name="bullet" unicode="&#x2022;" horiz-adv-x="314" d="M214 271 C259 271 292 307 292 349 C292 386 266 412 228 412 C185 412 151 378 151 336 C151 297 177 271 214 271 L214 271 Z " />
<glyph glyph-name="ellipsis" unicode="&#x2026;" horiz-adv-x="490" d="M89 -9 C110 -9 126 7 126 28 C126 47 113 59 95 59 C75 59 58 43 58 22 C58 3 71 -9 89 -9 L89 -9 Z M245 -9 C266 -9 282 7 282 28 C282 47 269 59 252 59 C231 59 214 43 214 22 C214 3 227 -9 245 -9 L245 -9 Z M400 -9 C421 -9 438 7 438 28 C438 47 425 59 407 59 C386 59 370 43 370 22 C370 3 383 -9 400 -9 L400 -9 Z " />
<glyph glyph-name="perthousand" unicode="&#x2030;" horiz-adv-x="1020" d="M258 387 C358 387 431 480 431 571 C431 644 383 700 306 700 C206 700 133 609 133 517 C133 444 180 387 258 387 L258 387 Z M134 0 L160 0 L694 695 L668 695 L134 0 Z M261 409 C200 409 155 454 155 519 C155 596 218 679 303 679 C364 679 408 634 408 569 C408 491 345 409 261 409 L261 409 Z M525 -5 C625 -5 698 87 698 178 C698 251 650 308 573 308 C473 308 400 216 400 125 C400 51 447 -5 525 -5 L525 -5 Z M846 -5 C946 -5 1019 87 1019 178 C1019 251 972 308 894 308 C794 308 721 216 721 125 C721 51 769 -5 846 -5 L846 -5 Z M528 16 C467 16 422 61 422 126 C422 204 485 286 570 286 C631 286 675 241 675 176 C675 99 613 16 528 16 L528 16 Z M849 16 C788 16 743 61 743 126 C743 204 807 286 891 286 C952 286 997 241 997 176 C997 99 934 16 849 16 L849 16 Z " />
<glyph glyph-name="guilsinglleft" unicode="&#x2039;" horiz-adv-x="242" d="M261 419 L228 419 L94 255 L164 92 L193 92 L123 253 L261 419 Z " />
<glyph glyph-name="guilsinglright" unicode="&#x203a;" horiz-adv-x="242" d="M174 419 L145 419 L215 258 L77 92 L110 92 L245 255 L174 419 Z " />
<glyph glyph-name="fraction" unicode="&#x2044;" horiz-adv-x="403" d="M-8 0 L18 0 L548 695 L522 695 L-8 0 Z " />
<glyph glyph-name="uni2074" unicode="&#x2074;" horiz-adv-x="314" d="M358 695 L336 695 L115 452 L112 437 L286 437 L268 347 L290 347 L308 437 L354 437 L358 456 L311 456 L358 695 Z M290 456 L145 456 L329 658 L290 456 Z " />
<glyph glyph-name="Euro" unicode="&#x20ac;" horiz-adv-x="718" d="M534 670 C382 670 249 563 197 414 L131 414 L123 392 L189 392 C178 353 172 312 172 270 L172 269 L82 269 L74 246 L173 246 C182 90 286 -10 445 -10 C550 -10 635 33 693 114 L673 130 C617 53 542 16 447 16 C304 16 211 102 201 246 L478 246 L485 269 L200 269 L200 273 C200 315 206 355 217 392 L528 392 L536 414 L225 414 C274 549 393 644 532 644 C625 644 697 604 736 532 L760 546 C716 625 635 670 534 670 L534 670 Z " />
<glyph glyph-name="trademark" unicode="&#x2122;" horiz-adv-x="600" d="M354 669 L357 689 L161 689 L158 669 L245 669 L195 411 L216 411 L266 669 L354 669 Z M643 689 L621 689 L479 450 L433 689 L411 689 L340 411 L361 411 L421 646 L465 422 L486 422 L616 643 L585 411 L606 411 L643 689 Z " />
<glyph glyph-name="minus" unicode="&#x2212;" horiz-adv-x="463" d="M86 286 L486 286 L491 310 L91 310 L86 286 Z " />
<glyph glyph-name="approxequal" unicode="&#x2248;" horiz-adv-x="512" d="M422 343 C462 343 497 365 517 392 L501 408 C484 385 452 368 423 368 C346 368 325 424 237 424 C197 424 163 402 143 375 L158 359 C176 382 206 399 236 399 C312 399 334 343 422 343 L422 343 Z M380 135 C420 135 456 158 476 185 L460 201 C443 178 411 160 381 160 C305 160 284 217 196 217 C156 217 121 195 101 168 L117 151 C134 175 165 192 195 192 C271 192 292 135 380 135 L380 135 Z " />
<glyph glyph-name="notequal" unicode="&#x2260;" horiz-adv-x="463" d="M506 388 L511 413 L360 413 L434 561 L406 561 L332 413 L111 413 L105 388 L320 388 L214 176 L65 176 L60 152 L202 152 L127 3 L155 3 L230 152 L460 152 L465 176 L242 176 L348 388 L506 388 Z " />
<glyph glyph-name="uniF8FF" unicode="&#xf8ff;" horiz-adv-x="2307" d="M561 199 C585 199 604 202 616 209 L616 284 C610 280 602 277 592 277 C581 277 574 282 574 294 L574 342 L616 342 L616 421 L565 421 C535 421 507 404 507 404 L506 408 C544 425 573 470 573 510 L474 510 L474 282 C474 224 499 199 561 199 L561 199 Z M636 204 L735 204 L735 421 L727 421 C698 421 657 413 657 413 L655 416 C699 426 734 466 734 510 L636 510 L636 204 Z M1371 199 C1394 199 1413 202 1425 209 L1425 284 C1419 280 1411 277 1401 277 C1390 277 1383 282 1383 294 L1383 342 L1425 342 L1425 421 L1375 421 C1345 421 1317 404 1317 404 L1315 408 C1354 425 1382 470 1382 510 L1283 510 L1283 282 C1283 224 1309 199 1371 199 L1371 199 Z M100 204 L199 204 L199 509 L100 509 L100 204 Z M285 199 C326 199 349 216 356 226 L359 226 L359 204 L457 204 L457 338 C457 393 415 428 343 428 C271 428 232 399 221 350 L311 336 C311 356 319 365 334 365 C349 365 357 355 357 340 L357 305 L355 305 C343 317 323 326 289 326 C242 326 215 298 215 260 C215 224 242 199 285 199 L285 199 Z M756 204 L855 204 L855 328 C862 352 866 360 881 360 C893 360 900 352 900 333 L900 204 L1000 204 L1000 338 C1000 396 972 426 927 426 C888 426 862 406 856 356 L853 356 L853 421 L756 421 L756 204 Z M1141 199 C1223 199 1267 247 1267 312 C1267 378 1222 426 1141 426 C1061 426 1015 378 1015 312 C1015 246 1059 199 1141 199 L1141 199 Z M1691 132 L1791 132 L1791 242 L1794 242 C1806 212 1830 199 1863 199 C1907 199 1949 232 1949 312 C1949 392 1917 426 1866 426 C1820 426 1799 396 1793 356 L1790 356 L1790 421 L1691 421 L1691 132 Z M2087 199 C2140 199 2191 222 2203 288 L2121 296 C2119 278 2112 262 2091 262 C2069 262 2057 284 2057 308 L2207 308 L2207 317 C2207 377 2161 426 2090 426 C2011 426 1963 378 1963 312 C1963 246 2007 199 2087 199 L2087 199 Z M1472 128 L1511 128 C1562 128 1597 158 1617 214 L1688 421 L1589 421 C1578 367 1565 302 1559 248 L1557 248 C1553 302 1538 367 1529 421 L1429 421 L1483 248 C1491 222 1507 209 1535 209 L1603 209 L1604 206 C1597 198 1579 194 1537 194 L1472 194 L1472 128 Z M2057 320 C2057 348 2072 366 2094 366 C2111 366 2118 357 2118 344 C2118 328 2105 320 2063 320 L2057 320 Z M1825 247 C1815 247 1806 250 1798 260 L1798 332 C1803 353 1813 365 1828 365 C1849 365 1855 345 1855 304 C1855 263 1845 247 1825 247 L1825 247 Z M1141 261 C1124 261 1113 275 1113 312 C1113 350 1123 364 1141 364 C1158 364 1170 350 1170 312 C1170 275 1158 261 1141 261 L1141 261 Z M335 229 C317 229 311 242 311 264 C311 286 322 299 338 299 C347 299 354 296 357 291 L357 240 C353 234 345 229 335 229 L335 229 Z " />
<glyph glyph-name="fi" unicode="&#xfb01;" horiz-adv-x="443" d="M403 708 L495 708 L499 732 L407 732 C315 732 249 679 228 570 L220 527 L112 527 L108 503 L215 503 L118 0 L144 0 L242 503 L428 503 L331 0 L357 0 L459 527 L247 527 L255 570 C273 665 332 708 403 708 L403 708 Z " />
<glyph glyph-name="fl" unicode="&#xfb02;" horiz-adv-x="457" d="M513 731 L407 731 C315 731 249 678 228 570 L220 527 L112 527 L108 503 L215 503 L118 0 L144 0 L242 503 L368 503 L372 527 L247 527 L255 570 C273 664 332 707 403 707 L481 707 L344 0 L371 0 L513 731 Z " />
</font>
</svg>
